<svg xmlns="http://www.w3.org/2000/svg" xmlns:xlink="http://www.w3.org/1999/xlink" viewBox="0 0 612.04 395.91"><defs><clipPath id="clip-path"><rect x="0.03" y="-0.06" width="612.01" height="395.99" fill="none"/></clipPath></defs><title>TopLeft-box</title><g style="isolation:isolate"><g id="Layer_1" data-name="Layer 1"><g clip-path="url(#clip-path)"><rect x="0.03" y="-0.06" width="1224.02" height="791.98" fill="#cfd1d2"/><polyline points="107.19 43.09 165.13 43.09 165.13 69.39 107.19 69.39" fill="none" stroke="#fff" stroke-miterlimit="10" stroke-width="2"/><polyline points="186.58 55.09 244.52 55.09 244.52 97.39 186.58 97.39" fill="none" stroke="#fff" stroke-miterlimit="10" stroke-width="2"/><polyline points="239.24 76.42 297.19 76.42 297.19 160.06 239.24 160.06" fill="none" stroke="#fff" stroke-miterlimit="10" stroke-width="2"/><circle cx="615.52" cy="404.79" r="370.75" fill="#c9cacc"/><polyline points="297.91 121.76 349.85 121.76 349.85 284.39 297.91 284.39" fill="none" stroke="#fff" stroke-miterlimit="10" stroke-width="2"/><polyline points="359.18 197.39 404.12 197.39 404.12 570.51 359.18 570.51" fill="none" stroke="#fff" stroke-miterlimit="10" stroke-width="2"/><polyline points="239.24 243.76 297.19 243.76 297.19 327.39 239.24 327.39" fill="none" stroke="#fff" stroke-miterlimit="10" stroke-width="2"/><polyline points="186.58 137.93 244.52 137.93 244.52 180.23 186.58 180.23" fill="none" stroke="#fff" stroke-miterlimit="10" stroke-width="2"/><polyline points="186.58 221.93 244.52 221.93 244.52 264.23 186.58 264.23" fill="none" stroke="#fff" stroke-miterlimit="10" stroke-width="2"/><polyline points="186.58 305.26 244.52 305.26 244.52 347.56 186.58 347.56" fill="none" stroke="#fff" stroke-miterlimit="10" stroke-width="2"/><polyline points="107.19 84.53 165.13 84.53 165.13 110.83 107.19 110.83" fill="none" stroke="#fff" stroke-miterlimit="10" stroke-width="2"/><polyline points="107.19 125.97 165.13 125.97 165.13 152.28 107.19 152.28" fill="none" stroke="#fff" stroke-miterlimit="10" stroke-width="2"/><polyline points="107.19 167.42 165.13 167.42 165.13 193.72 107.19 193.72" fill="none" stroke="#fff" stroke-miterlimit="10" stroke-width="2"/><polyline points="107.19 208.86 165.13 208.86 165.13 235.16 107.19 235.16" fill="none" stroke="#fff" stroke-miterlimit="10" stroke-width="2"/><polyline points="107.19 250.3 165.13 250.3 165.13 276.6 107.19 276.6" fill="none" stroke="#fff" stroke-miterlimit="10" stroke-width="2"/><polyline points="107.19 291.74 165.13 291.74 165.13 318.04 107.19 318.04" fill="none" stroke="#fff" stroke-miterlimit="10" stroke-width="2"/><polyline points="107.19 333.18 165.13 333.18 165.13 359.48 107.19 359.48" fill="none" stroke="#fff" stroke-miterlimit="10" stroke-width="2"/><rect x="47.07" y="39.15" width="75.67" height="16" fill="#fff"/><rect x="127.73" y="47.73" width="75.67" height="15.73" fill="#fff"/><rect x="207.23" y="68.31" width="75.67" height="16" fill="#fff"/><rect x="207.23" y="150.81" width="75.67" height="16" fill="#fff"/><rect x="207.23" y="236.31" width="75.67" height="16" fill="#fff"/><rect x="207.23" y="318.31" width="75.67" height="16" fill="#fff"/><rect x="259.57" y="275.81" width="75.67" height="16" fill="#fff"/><rect x="559.89" y="-4.68" width="105.25" height="799.53" fill="#b1b3b4"/><rect x="313.62" y="189.81" width="75.67" height="16" fill="#fff"/><rect x="259.57" y="113.81" width="75.67" height="16" fill="#fff"/><rect x="127.73" y="89.31" width="75.67" height="16" fill="#fff"/><rect x="127.73" y="130.81" width="75.67" height="16" fill="#fff"/><rect x="127.73" y="172.31" width="75.67" height="16" fill="#fff"/><rect x="127.73" y="213.81" width="75.67" height="16" fill="#fff"/><rect x="127.73" y="255.31" width="75.67" height="16" fill="#fff"/><rect x="127.73" y="296.81" width="75.67" height="16" fill="#fff"/><rect x="127.73" y="338.31" width="75.67" height="16" fill="#fff"/><rect x="47.07" y="58.15" width="75.67" height="16" fill="#fff"/><rect x="47.07" y="80.65" width="75.67" height="16" fill="#fff"/><rect x="47.07" y="99.65" width="75.67" height="16" fill="#fff"/><rect x="47.07" y="122.15" width="75.67" height="16" fill="#fff"/><rect x="47.07" y="141.15" width="75.67" height="16" fill="#fff"/><rect x="47.07" y="163.65" width="75.67" height="16" fill="#fff"/><rect x="47.07" y="182.65" width="75.67" height="16" fill="#fff"/><rect x="47.07" y="205.15" width="75.67" height="16" fill="#fff"/><rect x="47.07" y="224.15" width="75.67" height="16" fill="#fff"/><rect x="47.07" y="246.65" width="75.67" height="16" fill="#fff"/><rect x="47.07" y="265.65" width="75.67" height="16" fill="#fff"/><rect x="47.07" y="288.15" width="75.67" height="16" fill="#fff"/><rect x="47.07" y="307.15" width="75.67" height="16" fill="#fff"/><rect x="47.07" y="329.65" width="75.67" height="16" fill="#fff"/><rect x="47.07" y="348.65" width="75.67" height="16" fill="#fff"/><path d="M553.22,41.29c-.4.31-1.09.88-1.09.88a2,2,0,0,1-1.06.56,5.2,5.2,0,0,1-2.33-1V32.85h4.48v8.43ZM538.08,29.54V21.42l1.55-.92,3.07,2.22v6.81Zm8.57,11.61V22.34l1.62-1V41.64a9.66,9.66,0,0,0-1.62-.5Zm2.08-11.61V21.18l1-.64a6,6,0,0,0,3.46,2.26v6.74Zm11.12,13a6.45,6.45,0,0,1-2.72-1.31V22.9a4.06,4.06,0,0,0,2-3l-.07-.11a6.63,6.63,0,0,1-2.26.35A4.64,4.64,0,0,1,553,18.21l-5.5,3.14c-1.44-1-3.2-2.24-4.59-3.25l-7.13,4.13c-2.26,1.31-3.85,2.83-3.85,5.33v2h-.53a2.85,2.85,0,0,0-3.14,2.75,2.5,2.5,0,0,0,.88,2l.1,0a1.84,1.84,0,0,1,2.08-1.52h.6V37.2a3.61,3.61,0,0,1-1.31,3.11l0,.07c2.79-.27,5.22-1.68,5.22-4.52V22.66c.56-.32.88-.54,1.69-1V40.3c0,1.67-.65,2.22-2.29,2.22-1.86,0-3.74-.85-5.47-.85-2.68,0-4.13,1.68-4.27,4.41l.21.07a3.43,3.43,0,0,1,3.1-1.27c1.7,0,3.35.88,5.12.88,2.51,0,4.06-1.45,4.06-3.85V32.85h4.66v8.5a7,7,0,0,0-3.39,3.74l.07.18A6,6,0,0,1,543,44.15,8.42,8.42,0,0,1,548,45.74c.88-.74,3.45-2.61,4.48-3.39,1.37,1.06,3,2.32,4.13,3.35,1.26-1.24,3.25-3.1,3.25-3.1l0-.07Zm15.63-.39-2.4,1.41a4.85,4.85,0,0,1-2-4.34c0-1.84.6-3.21,2.36-3.21a6.81,6.81,0,0,1,2,.28v5.86Zm-2.19-6.67a8.77,8.77,0,0,0-1.87.28V29.5l.17-.14c1.57,1.05,2.53,1.71,3.88,2.68v3.7a8.13,8.13,0,0,0-2.19-.28ZM580.88,43a3.86,3.86,0,0,1-1.84-.92V30.53c-2-1.36-3.26-2.15-4.9-3.25a40.84,40.84,0,0,1-5.4,3.14v3.85a14.11,14.11,0,0,1,2.5,1.52c-2.48.91-3.74,2.59-3.74,4.59a5.9,5.9,0,0,0,3.1,5.33c2.09-1.32,2.91-1.9,4.45-2.79,1.53,1.14,2.44,1.83,3.64,2.75l2.22-2.61,0-.07Zm65.73-8.72-3.07,1.91V29.64l.28-.18c.74,1.33,1.86,3.28,2.79,4.8Zm-.32-7c-1.49,1.08-4.49,3.07-6.32,4.16V42.66c1.37.9,3,2,4.34,3,1.31-1.47,2.65-2.78,4-4.06l-.29-.28c-.84.84-1.21,1.27-1.69,1.27s-1.13-.4-2.79-1.41V36.67l6.28-3.88c-1.39-2.09-2.55-3.87-3.53-5.51Zm22.9,14.86-2.4,1.41a4.84,4.84,0,0,1-2-4.34c0-1.84.6-3.21,2.37-3.21a6.83,6.83,0,0,1,2,.28v5.86ZM667,35.47a8.79,8.79,0,0,0-1.87.28V29.5l.21-.14c1.57,1.05,2.5,1.71,3.85,2.68v3.7a8.15,8.15,0,0,0-2.19-.28ZM674.59,43a3.86,3.86,0,0,1-1.84-.92V30.53c-2-1.36-3.26-2.15-4.9-3.25a40.65,40.65,0,0,1-5.4,3.14v3.85A14.12,14.12,0,0,1,665,35.78c-2.48.91-3.74,2.59-3.74,4.59a5.91,5.91,0,0,0,3.11,5.33c2.09-1.32,2.91-1.9,4.45-2.79,1.53,1.14,2.44,1.83,3.63,2.75l2.22-2.61,0-.07Zm16.83-.53-.63.49a36.28,36.28,0,0,1-3.71-2.4V28.9c.6-.36,1.18-.66,2-1.16L691.42,30V42.45ZM695,28.8c-4.06-4.14-7.57-7.73-9.14-9.35-.82.72-1.84,1.52-3.07,2.4l0,.07a5.29,5.29,0,0,1,1.94,1.41l4.06,4.09c-2,1.17-3.73,2.11-5.29,3v12c1.45,1,3.28,2.21,4.76,3.35a33,33,0,0,1,6.7-5V28.8ZM537,19l-.21-.1a3.14,3.14,0,0,1-1.83.63c-1.11,0-2.37-.78-3.63-.78-2,0-3.83,1.41-4.13,4.34l.18.11a2.78,2.78,0,0,1,2.72-1.55c1,0,2.51.74,3.25.74,1.54,0,2.74-1.26,3.67-3.39Zm30,23.85,0-.07a6,6,0,0,1-2.08-.92V29.26c-1-.68-1.76-1.26-2.68-2l-2.36,2.65,0,.07a3.5,3.5,0,0,1,1.45.85V43.34c1,.68,2.24,1.6,3.21,2.36,1.54-1.84,2.47-2.89,2.47-2.89ZM565,22.52c-.8-.62-1.63-1.3-2.4-2-.73.9-1.4,1.61-2,2.29.91.7,1.81,1.33,2.47,1.91.8-.95,1.4-1.62,2-2.22Zm39.21,20.25,0-.07a5.05,5.05,0,0,1-2.08-.88V29.93c-.94-.61-3.21-2-4.23-2.68-1.16,1-2.29,1.94-3.49,2.9-1.27-.92-2.82-2-4-2.82-1.38,1.11-2.56,2-3.6,2.82-1.3-1-2.52-2-3.64-2.86-.73.88-1.66,1.84-2.51,2.68l0,.07c.6.06,1,.28,2.15,1.31V44c.54.39,1.37,1.05,2.12,1.66.73-.78,1.6-1.61,2.43-2.4-.29-.15-.66-.38-1-.6V31l1.77-1.41,2.5,1.73V44s1.23.95,2.12,1.66c.58-.58,1.82-1.75,2.47-2.36l-1-.64V30.88l1.45-1.17,2.82,1.73V43.34c1.14.79,2.14,1.52,3.21,2.36,1.78-2.18,2.47-2.93,2.47-2.93Zm7.23,0,0-.07a6,6,0,0,1-2.08-.92V29.26c-1-.68-1.76-1.26-2.68-2l-2.36,2.65,0,.07a3.5,3.5,0,0,1,1.45.85V43.34c1,.68,2.24,1.6,3.21,2.36,1.54-1.84,2.47-2.89,2.47-2.89Zm-2.08-20.29c-.8-.62-1.63-1.3-2.4-2-.73.9-1.4,1.61-2,2.29.91.7,1.8,1.33,2.47,1.91.8-.95,1.39-1.62,2-2.22Zm14.87-.07-.11-.07c-2.49.74-4.34,2.34-4.34,5.36v1.8h-.85a2.82,2.82,0,0,0-3.11,2.75,2.49,2.49,0,0,0,.85,2h.11c.15-.78.67-1.48,2.08-1.48h.92v5a2.74,2.74,0,0,1-.81,2l.18.11a6,6,0,0,0,4.55-5.58V26.26c0-2.19.16-3.14.53-3.81Zm14.57-3.18-.07-.14a6.77,6.77,0,0,1-2.61.49,5.43,5.43,0,0,1-3.64-1.38c-.82.91-1.85,2-2.72,2.86a5.47,5.47,0,0,0,2.72,1.38v7.06h-6.56V18.42h-.46V41.85a10,10,0,0,0-4.23-1,6.36,6.36,0,0,0-6.42,4.27l.07.18a8.66,8.66,0,0,1,4.55-1.17,8.18,8.18,0,0,1,5.12,1.52c1.07-1.45,2.57-3.17,3.42-4.2l-.28-.25c-.34.49-.81,1-1.16,1a1.34,1.34,0,0,1-.6-.18V32.85h6.56v8.5a5.11,5.11,0,0,0-4.13,4.06l0,.14a6.88,6.88,0,0,1,4-1.23,5.22,5.22,0,0,1,3.56,1.38l2.82-3a6.46,6.46,0,0,0-2.33-1V22.3a4.67,4.67,0,0,0,2.36-3Zm-14.4-.21-.07-.14a3,3,0,0,1-1.94.67c-1.11,0-2.37-.78-3.63-.78-2,0-3.79,1.37-4.09,4.31l.14.14a2.79,2.79,0,0,1,2.72-1.55c1,0,2.51.74,3.25.74,1.54,0,2.7-1.26,3.63-3.39Zm37.55,10,0-.11a5.23,5.23,0,0,1-3.74-1.69c-.94,1-1.67,1.68-2.72,2.61-1.25-.91-2.13-1.66-3.32-2.65l-2.4,2.68,0,.07a5.37,5.37,0,0,1,2,1.31V42.66c1.49,1,2.92,2,4.38,3,1-1.1,2.17-2.33,3.42-3.56l-.25-.25c-.49.49-.81.71-1.23.71s-1.12-.34-2.75-1.27V30.53l.32-.32a3.67,3.67,0,0,0,3,1.41c1.45,0,2.57-1,3.28-2.54Zm20.4,13.76c-.73.73-1.72,1.83-2.58,2.86-1.26-1-2.49-1.82-3.21-2.36v-19a1.54,1.54,0,0,0-.88-1.55v-.11L680,19.48l.07.07V41.82a5,5,0,0,0,2.19,1l0,.07Z" fill="none" stroke="#b1b3b4" stroke-linecap="round" stroke-miterlimit="10" stroke-width="11"/><rect x="375.85" y="386.93" width="75.67" height="16" fill="#fff"/><circle cx="611.02" cy="401.79" r="116.22" fill="#7a7c7d"/><path d="M476.4,272.37l-.35,45.54h0a1.62,1.62,0,0,1-3.24.14l0,0L472,272.37c.18-3.69-1.89-4.45-1.89-4.45-2.14.76-2.08,4.57-2.08,4.57l-1.75,45.65,0,.08h0a1.3,1.3,0,0,1-.59,1.08.71.71,0,0,1-.56.21l-.13,0a1.3,1.3,0,0,1-1.28-1.31s0-.07,0-.11l1.16-45.87c-1.49-8.24-3.94-.21-3.94-.21l-2.22,21.56-3.19,34.11a31.16,31.16,0,0,0-.17,6.08,8.5,8.5,0,0,0,1.11,3.6c1.08,1.74,2.8,2.35,4.32,3.52l4.08,3.15c3.74,2.92,3.15,6.31,3.15,6.31l-4.51,142.2s0,0,0,.07c0,1.34,4,2.43,9,2.43s9-1.09,9-2.43a.57.57,0,0,0,0-.12l-3.21-142.26a10.3,10.3,0,0,1,5.06-7.26l2.65-1.73a9.09,9.09,0,0,0,5-6.9c0-2,.15-4.17.16-6.24,0-3.71-.29-7.39-.51-11.08q-.41-6.76-.88-13.51c-.33-4.86-.63-9.71-.93-14.57q-.37-5.85-.74-11.7-.15-2.37-.31-4.75c-2.68-8.64-4.21.22-4.21.22l.93,45.42,0,0a1.56,1.56,0,0,1-3.12-.12.38.38,0,0,1,0-.05l0-.08-.82-45.3c-2.31-10.73-4.09-.23-4.09-.23" fill="#7a7c7d"/><circle cx="611.02" cy="395.93" r="116.22" fill="#fff"/><path d="M506.74,377.64l1-5.08,25.16-3.3-1.34,6.67-2.26.27L528,382.61l2,1.13-1.34,6.67Zm20.05,7.47-1.64-1,2.11-10.48,1.89-.25.18-.89-19.13,2.53-.24,1.21L526.61,386Zm-15.87-9.27,15.43-2.05-2,9.91Zm12.85,1.1-4.42.6,3.84,2.26Z" fill="#f59120"/><path d="M511,360.06l2.37-5.15,10.9-1.56-8.41-3.86,2.83-6.15,21.82,10-2.38,5.18-10.85,1.54,8.38,3.85-2.83,6.15Zm20.81,5.32-15.11-6.94,19.58-2.78.35-.77-16.59-7.62-.35.77L534.82,355l-19.58,2.77-.35.77,16.59,7.62Z" fill="#f59120"/><path d="M541,352.56l-18.89-14.83,3.7-4.71a17.93,17.93,0,0,1,3.95-3.8,10.5,10.5,0,0,1,4.26-1.76,9.78,9.78,0,0,1,4.5.36,16.19,16.19,0,0,1,8.18,6.42,9.78,9.78,0,0,1,1.42,4.28,10.7,10.7,0,0,1-.68,4.57,17.52,17.52,0,0,1-2.74,4.75Zm-.26-4.33,1.7-2.17q2.92-3.72,2.53-7.1a10.62,10.62,0,0,0-10.61-8.32q-3.36.43-6.28,4.15l-1.7,2.17Zm-.16-1.2-13-10.2,1.18-1.5a9.19,9.19,0,0,1,5.58-3.75q3-.52,6.27,2t3.46,5.62a9.14,9.14,0,0,1-2.31,6.32Zm-.69-4.13a4.58,4.58,0,0,0-.94-7.2,5.13,5.13,0,0,0-3.88-1.35,5.25,5.25,0,0,0-3.31,2.18Z" fill="#f59120"/><path d="M549.68,317.44l-3.23,2.34-3.69-5.1L555,305.82l3.69,5.1-3.23,2.34,10.39,14.35-5.77,4.18Zm11.93,9.68L551.41,313l3.75-2.72-.51-.7-8.19,5.93.51.7,3.75-2.72,10.2,14.09Z" fill="#f59120"/><path d="M559,303.35l6.27-2.87,3.4,7.43,3.51-1.61-3.4-7.43,6.3-2.89,10,21.83-6.3,2.89-3.7-8.08-3.5,1.61,3.7,8.08L569,325.18Zm12.51,17.51-3.79-8.28,8.66-4,3.79,8.28.76-.35-7.6-16.59-.77.35,3.45,7.53-8.66,4-3.45-7.53-.77.35,7.6,16.59Z" fill="#f59120"/><path d="M580.72,294.31l12.4-2.91,1.44,6.13-5.68,1.33.61,2.59,5.58-1.31,1.37,5.82-5.58,1.31.63,2.7,5.9-1.39,1.44,6.13-12.62,3Zm15.12,18.16-.2-.84-6.31,1.48-1.8-7.67,6-1.41-.2-.84-6,1.41L585.55,297l6.31-1.48-.2-.84-7.13,1.67,4.17,17.77Z" fill="#f59120"/><path d="M605.76,289.19l7.29.65,1.74,8.58,3.23-8.13,4.71.42,1.74,8.58,3.23-8.13,7.29.65-9.24,23.28-5.36-.48-1.51-7.44-2.81,7-5.36-.48Zm8.44,22,5.64-14.64,2.95,15.41.81.07,7-17.7-.87-.08-6.38,16.09-3.23-17-6.19,16.11-3.43-17-.87-.08,3.76,18.66Z" fill="#f59120"/><line x1="446.52" y1="394.93" x2="775.02" y2="394.93" fill="none" stroke="#fff" stroke-miterlimit="10" stroke-width="2"/><rect x="21.52" y="39.15" width="25.55" height="325.78" fill="#f59120"/><path d="M34.66,299.21a7.9,7.9,0,0,1-3.18-.62A7.4,7.4,0,0,1,29,296.92a7.29,7.29,0,0,1-1.55-2.46,8.3,8.3,0,0,1-.54-3,9.35,9.35,0,0,1,.24-2.23,10.58,10.58,0,0,1,.55-1.68,7.88,7.88,0,0,1,.77-1.41l4.07,2.31a7.93,7.93,0,0,0-.51.77,7.54,7.54,0,0,0-.34.89,3.87,3.87,0,0,0-.16,1.18,3.19,3.19,0,0,0,.24,1.25,3.23,3.23,0,0,0,.66,1,3,3,0,0,0,1,.67,3,3,0,0,0,1.2.24,2.89,2.89,0,0,0,1.2-.25,3.07,3.07,0,0,0,1-.69,3.28,3.28,0,0,0,.66-1,3.41,3.41,0,0,0,.24-1.3,4.1,4.1,0,0,0-.18-1.25,4.61,4.61,0,0,0-.4-.92,3.37,3.37,0,0,0-.57-.77l4.07-2.31a6.55,6.55,0,0,1,.86,1.41,11.89,11.89,0,0,1,.57,1.69,8.81,8.81,0,0,1,.26,2.27,8.72,8.72,0,0,1-.56,3.17A7.48,7.48,0,0,1,40.22,297a7.14,7.14,0,0,1-2.43,1.65A8,8,0,0,1,34.66,299.21Zm0-2.77a5.36,5.36,0,0,1-2-.36A4.69,4.69,0,0,1,30,293.44a5.42,5.42,0,0,1-.4-2.11,6.13,6.13,0,0,1,.08-1,4.65,4.65,0,0,1,.19-.76,2.91,2.91,0,0,1,.26-.64l-.53-.31q-.15.35-.29.75a8.54,8.54,0,0,0-.2.86,6.39,6.39,0,0,0-.09,1.12,5.89,5.89,0,0,0,.4,2.15,5.48,5.48,0,0,0,1.13,1.8,5.55,5.55,0,0,0,4.1,1.73,5.77,5.77,0,0,0,2.33-.45,5.26,5.26,0,0,0,1.77-1.24,5.53,5.53,0,0,0,1.13-1.85,6.34,6.34,0,0,0,.4-2.24,5.81,5.81,0,0,0-.11-1.19,7.12,7.12,0,0,0-.24-.9,4.45,4.45,0,0,0-.35-.75l-.53.31a2.78,2.78,0,0,1,.33.66,4.88,4.88,0,0,1,.23.79,5.17,5.17,0,0,1,.1,1.08,5.7,5.7,0,0,1-.4,2.18A4.82,4.82,0,0,1,38.24,295a4.71,4.71,0,0,1-1.61,1A5.36,5.36,0,0,1,34.66,296.44Z" fill="#fff"/><path d="M27.31,281v-3.52L42,271.93v4.62l-1.32.48v4.44L42,282v4.62Zm12.91,2.29-1.1-.42v-7.26l1.1-.42v-.62l-11.15,4.25v.84l11.15,4.25Zm-10.63-4,9-3.43v6.86Zm7.83-1-2.57,1,2.57,1Z" fill="#fff"/><path d="M37.43,272a7.21,7.21,0,0,0,.24-1,7.92,7.92,0,0,0,.18-1,9.59,9.59,0,0,0,.07-1.13q0-1-.75-1a.84.84,0,0,0-.58.31,9.28,9.28,0,0,0-.66.78q-.36.47-.8,1a7.32,7.32,0,0,1-1,1,5.27,5.27,0,0,1-1.29.78,4.1,4.1,0,0,1-1.64.31,4.23,4.23,0,0,1-1.83-.37,3.67,3.67,0,0,1-1.32-1,4.66,4.66,0,0,1-.8-1.55,6.42,6.42,0,0,1-.27-1.9,10.34,10.34,0,0,1,.05-1.06l.1-.95.13-.95h4.11q0,.18,0,.4t0,.4q0,.22,0,.46t0,.33a2,2,0,0,0,.06.37.76.76,0,0,0,.15.31.38.38,0,0,0,.31.13q.18,0,.44-.3l.62-.73q.35-.43.81-.95a6.57,6.57,0,0,1,1.06-.95A6.18,6.18,0,0,1,36,263a4.49,4.49,0,0,1,1.67-.3,5.27,5.27,0,0,1,1.81.31A3.86,3.86,0,0,1,41,264a4.58,4.58,0,0,1,1,1.66,7.12,7.12,0,0,1,.36,2.4,14.53,14.53,0,0,1-.08,1.55q-.08.72-.19,1.27a10.61,10.61,0,0,1-.26,1.17Zm2.64-1.85c0-.21.08-.43.11-.66s.06-.42.08-.65,0-.46,0-.69a5,5,0,0,0-.14-1.2,3,3,0,0,0-.47-1,2.42,2.42,0,0,0-.85-.74,2.67,2.67,0,0,0-1.26-.27,2.45,2.45,0,0,0-1.21.32,5.63,5.63,0,0,0-1.1.81,13.84,13.84,0,0,0-1,1.06q-.48.56-1,1.06a6,6,0,0,1-1,.81,1.86,1.86,0,0,1-1,.32,1.51,1.51,0,0,1-1.22-.51,2.5,2.5,0,0,1-.43-1.63q0-.18,0-.36c0-.12,0-.25,0-.36a2.83,2.83,0,0,0,0-.35h-.57a2.67,2.67,0,0,1,0,.33c0,.1,0,.22,0,.34s0,.25,0,.39a3.34,3.34,0,0,0,.54,2,1.91,1.91,0,0,0,1.68.77,2.23,2.23,0,0,0,1.15-.32,5.81,5.81,0,0,0,1.06-.81q.52-.5,1-1.06t1-1.06a5.42,5.42,0,0,1,1-.81,2.1,2.1,0,0,1,1.1-.32,1.9,1.9,0,0,1,1.61.72,3.16,3.16,0,0,1,.55,2,7.75,7.75,0,0,1-.11,1.36q0,.33-.11.64Z" fill="#fff"/><path d="M42.36,255.69A8.37,8.37,0,0,1,42,258.2,5.15,5.15,0,0,1,41,260.11a4.63,4.63,0,0,1-1.78,1.22,6.83,6.83,0,0,1-2.53.43H27.31v-4.69h9.13a1.87,1.87,0,0,0,1.18-.32,1.6,1.6,0,0,0,0-2.13,1.87,1.87,0,0,0-1.18-.32H27.31V249.6h9.33a6.82,6.82,0,0,1,2.53.43A4.57,4.57,0,0,1,41,251.26,5.26,5.26,0,0,1,42,253.18,8.37,8.37,0,0,1,42.36,255.69Zm-2.64,0q0,3.3-3.23,3.3H29.07v.57h7.41a3.78,3.78,0,0,0,2.83-1,3.94,3.94,0,0,0,1-2.87,4,4,0,0,0-1-2.88,3.75,3.75,0,0,0-2.83-1H29.07v.59h7.41Q39.72,252.39,39.72,255.69Z" fill="#fff"/><path d="M27.31,243.77v-3.52L42,234.68v4.62l-1.32.48v4.44l1.32.48v4.62Zm12.91,2.29-1.1-.42v-7.26l1.1-.42v-.62l-11.15,4.25v.84l11.15,4.25ZM29.6,242l9-3.43v6.86Zm7.83-1-2.57,1,2.57,1Z" fill="#fff"/><path d="M27.31,234.35v-4.88H38.13v-4H42v8.93Zm12.91-7.7H39.7v4.93H29.07v.57H40.22Z" fill="#fff"/><path d="M42,220.25H27.31v-4.07a13.43,13.43,0,0,1,.46-3.69,7.38,7.38,0,0,1,1.39-2.73,6,6,0,0,1,2.3-1.69,9,9,0,0,1,6.36,0,6,6,0,0,1,2.3,1.69,7.49,7.49,0,0,1,1.4,2.73,13.12,13.12,0,0,1,.47,3.69ZM40.22,218v-1.87a7.08,7.08,0,0,0-1.46-4.85,5.24,5.24,0,0,0-4.12-1.64,5.21,5.21,0,0,0-4.11,1.64,7.11,7.11,0,0,0-1.45,4.85V218Zm-.53-.57H29.6v-1.3a6.7,6.7,0,0,1,1.27-4.35,4.58,4.58,0,0,1,3.77-1.55,4.61,4.61,0,0,1,3.78,1.55,6.66,6.66,0,0,1,1.28,4.35Zm-1.89-1.91A3.78,3.78,0,0,0,37,213a3,3,0,0,0-2.39-.9,3,3,0,0,0-2.38.9,3.82,3.82,0,0,0-.77,2.55Z" fill="#fff"/><path d="M27.31,206.28v-5H42v5Zm12.91-2.77H29.07v.57H40.22Z" fill="#fff"/><path d="M27.31,199.77v-3.85l5.65-4H27.31v-4.6H42v3.87l-5.63,4H42v4.6Zm12.91-2.62H30.06l10.16-7.26v-.57H29.07v.57H39.23l-10.16,7.26v.57H40.22Z" fill="#fff"/><path d="M27.31,185.73v-5H42v5ZM40.22,183H29.07v.57H40.22Z" fill="#fff"/><path d="M27.31,179.22v-3.85l5.65-4H27.31v-4.6H42v3.87l-5.63,4H42v4.6Zm12.91-2.62H30.06l10.16-7.26v-.57H29.07v.57H39.23L29.07,176.6v.57H40.22Z" fill="#fff"/><path d="M32.3,155.84a2.69,2.69,0,0,0-.54,1,3.89,3.89,0,0,0-.19,1.17,2.87,2.87,0,0,0,.23,1.17,2.77,2.77,0,0,0,.64.91,3,3,0,0,0,1,.6,3.41,3.41,0,0,0,1.23.22,3.13,3.13,0,0,0,1.23-.24,3,3,0,0,0,1-.66,3,3,0,0,0,.64-1,3.12,3.12,0,0,0,.23-1.2,2.92,2.92,0,0,0-.32-1.36,3.26,3.26,0,0,0-.87-1.06v1.32H33.47v-5.65h4.88A8.09,8.09,0,0,1,40,152.27a7.68,7.68,0,0,1,1.27,1.57,7.56,7.56,0,0,1,.81,1.88,7.66,7.66,0,0,1-7.41,9.79,7.86,7.86,0,0,1-3-.57,7.68,7.68,0,0,1-2.45-1.57A7.36,7.36,0,0,1,27.56,161a7.26,7.26,0,0,1-.6-3,8.31,8.31,0,0,1,.24-2.13,8.15,8.15,0,0,1,.55-1.52,5.56,5.56,0,0,1,.77-1.21Zm-2.84-.22a3.61,3.61,0,0,0-.22.64,6.21,6.21,0,0,0-.15.73,6,6,0,0,0-.07.92,5.65,5.65,0,0,0,.42,2.18,5.44,5.44,0,0,0,1.16,1.76A5.31,5.31,0,0,0,32.37,163a5.91,5.91,0,0,0,2.29.43,5.77,5.77,0,0,0,2.29-.44,5.27,5.27,0,0,0,1.77-1.21A5.66,5.66,0,0,0,39.87,160a5.72,5.72,0,0,0,.42-2.19,5.38,5.38,0,0,0-.72-2.75,5.85,5.85,0,0,0-1.9-2H34.79v2.33h.53v-1.76h2.2a5,5,0,0,1,2.2,4.18,5.29,5.29,0,0,1-.36,2,4.81,4.81,0,0,1-2.64,2.69,5.22,5.22,0,0,1-2.06.4,5.35,5.35,0,0,1-2.06-.38A4.85,4.85,0,0,1,31,161.43a4.66,4.66,0,0,1-1-1.57,5.19,5.19,0,0,1-.36-2,4.06,4.06,0,0,1,.07-.75q.07-.35.13-.62c.06-.21.12-.4.18-.57Z" fill="#fff"/><g opacity="0.32" style="mix-blend-mode:multiply"><path d="M456,60h17.2l17,27.79L507.14,60h17.2v72.42H503.52V106.37l-13.29,21.71-13.39-21.71v26.06H456Zm12.31,63.73V73.91l21.89,35.39L512,73.91v49.83h2.54v-55H512l-21.79,35.72L468.34,68.7H465.8v55Z" fill="#747578" stroke="#747578" stroke-miterlimit="10" stroke-width="10"/><path d="M557.85,134.28a33.71,33.71,0,0,1-11.14-1.74,22.37,22.37,0,0,1-8.5-5.21,23.06,23.06,0,0,1-5.42-8.79A37,37,0,0,1,530.88,106V60h20.81v45.06a10,10,0,0,0,1.42,5.81q1.42,2,4.74,2t4.74-2a10,10,0,0,0,1.42-5.81V60h20.91v46A37,37,0,0,1,583,118.53a22,22,0,0,1-14,14A33.71,33.71,0,0,1,557.85,134.28Zm0-13q-14.66,0-14.66-16V68.7h-2.54v36.59q0,9.12,4.45,14t12.75,4.83q8.3,0,12.8-4.83t4.5-14V68.7h-2.64v36.59Q572.51,121.25,557.85,121.25Z" fill="#747578" stroke="#747578" stroke-miterlimit="10" stroke-width="10"/><path d="M591.46,60h17.1l18,27.9V60H647v72.42h-17.2l-17.88-27.79v27.79H591.46Zm11.63,63.73V73.58l32.25,50.16h2.54v-55h-2.54v50.16L603.09,68.7h-2.54v55Z" fill="#747578" stroke="#747578" stroke-miterlimit="10" stroke-width="10"/><path d="M422.22,136.58h17.2l17,27.79,16.9-27.79h17.2V209H469.7V182.94l-13.29,21.71L443,182.94V209H422.22Zm12.31,63.73V150.48l21.89,35.39,21.79-35.39v49.83h2.54v-55h-2.54L456.42,181l-21.89-35.72H432v55Z" fill="#747578" stroke="#747578" stroke-miterlimit="10" stroke-width="10"/><path d="M516.71,136.58h15.63L557.06,209H536.54l-2.15-6.51H514.65L512.5,209H492Zm-10.16,63.73,1.86-5.43h32.25l1.86,5.43h2.74l-18.86-55h-3.71l-18.86,55Zm18-52.44,15.24,44.41H509.28Zm4.4,38.65-4.4-12.7-4.4,12.7Z" fill="#747578" stroke="#747578" stroke-miterlimit="10" stroke-width="10"/><path d="M558.53,209V136.58H576.6A54.06,54.06,0,0,1,593,138.86a31.69,31.69,0,0,1,12.12,6.84A29.52,29.52,0,0,1,612.61,157a48.82,48.82,0,0,1,0,31.38,29.5,29.5,0,0,1-7.52,11.35A32.25,32.25,0,0,1,593,206.67,52.85,52.85,0,0,1,576.6,209Zm9.77-8.69h8.31q14.27,0,21.55-7.22t7.28-20.36q0-13.14-7.28-20.3t-21.55-7.17H568.3Zm2.54-2.61V147.87h5.77q12.41,0,19.3,6.24t6.89,18.62q0,12.38-6.89,18.67t-19.3,6.3Zm8.5-9.34q7.33,0,11.33-3.85t4-11.78q0-7.92-4-11.73t-11.33-3.8Z" fill="#747578" stroke="#747578" stroke-miterlimit="10" stroke-width="10"/></g><path d="M456,55h17.2l17,27.79L507.14,55h17.2v72.42H503.52V101.37l-13.29,21.71-13.39-21.71v26.06H456Zm12.31,63.73V68.91l21.89,35.39L512,68.91v49.83h2.54v-55H512L490.23,99.42,468.34,63.7H465.8v55Z" fill="none" stroke="#f59120" stroke-miterlimit="10" stroke-width="9"/><path d="M557.85,129.28a33.71,33.71,0,0,1-11.14-1.74,22.37,22.37,0,0,1-8.5-5.21,23.06,23.06,0,0,1-5.42-8.79A37,37,0,0,1,530.88,101V55h20.81v45.06a10,10,0,0,0,1.42,5.81q1.42,2,4.74,2t4.74-2a10,10,0,0,0,1.42-5.81V55h20.91v46A37,37,0,0,1,583,113.53a22,22,0,0,1-14,14A33.71,33.71,0,0,1,557.85,129.28Zm0-13q-14.66,0-14.66-16V63.7h-2.54v36.59q0,9.12,4.45,14t12.75,4.83q8.3,0,12.8-4.83t4.5-14V63.7h-2.64v36.59Q572.51,116.25,557.85,116.25Z" fill="none" stroke="#f59120" stroke-miterlimit="10" stroke-width="9"/><path d="M591.46,55h17.1l18,27.9V55H647v72.42h-17.2L611.88,99.63v27.79H591.46Zm11.63,63.73V68.58l32.25,50.16h2.54v-55h-2.54v50.16L603.09,63.7h-2.54v55Z" fill="none" stroke="#f59120" stroke-miterlimit="10" stroke-width="9"/><path d="M422.22,131.58h17.2l17,27.79,16.9-27.79h17.2V204H469.7V177.94l-13.29,21.71L443,177.94V204H422.22Zm12.31,63.73V145.48l21.89,35.39,21.79-35.39v49.83h2.54v-55h-2.54L456.42,176l-21.89-35.72H432v55Z" fill="none" stroke="#f59120" stroke-miterlimit="10" stroke-width="9"/><path d="M516.71,131.58h15.63L557.06,204H536.54l-2.15-6.51H514.65L512.5,204H492Zm-10.16,63.73,1.86-5.43h32.25l1.86,5.43h2.74l-18.86-55h-3.71l-18.86,55Zm18-52.44,15.24,44.41H509.28Zm4.4,38.65-4.4-12.7-4.4,12.7Z" fill="none" stroke="#f59120" stroke-miterlimit="10" stroke-width="9"/><path d="M558.53,204V131.58H576.6A54.06,54.06,0,0,1,593,133.86a31.69,31.69,0,0,1,12.12,6.84A29.52,29.52,0,0,1,612.61,152a48.82,48.82,0,0,1,0,31.38,29.5,29.5,0,0,1-7.52,11.35A32.25,32.25,0,0,1,593,201.67,52.85,52.85,0,0,1,576.6,204Zm9.77-8.69h8.31q14.27,0,21.55-7.22t7.28-20.36q0-13.14-7.28-20.3t-21.55-7.17H568.3Zm2.54-2.61V142.87h5.77q12.41,0,19.3,6.24t6.89,18.62q0,12.38-6.89,18.67t-19.3,6.3Zm8.5-9.34q7.33,0,11.33-3.85t4-11.78q0-7.92-4-11.73t-11.33-3.8Z" fill="none" stroke="#f59120" stroke-miterlimit="10" stroke-width="9"/><path d="M456,55h17.2l17,27.79L507.14,55h17.2v72.42H503.52V101.37l-13.29,21.71-13.39-21.71v26.06H456Zm12.31,63.73V68.91l21.89,35.39L512,68.91v49.83h2.54v-55H512L490.23,99.42,468.34,63.7H465.8v55Z" fill="#fff"/><path d="M557.85,129.28a33.71,33.71,0,0,1-11.14-1.74,22.37,22.37,0,0,1-8.5-5.21,23.06,23.06,0,0,1-5.42-8.79A37,37,0,0,1,530.88,101V55h20.81v45.06a10,10,0,0,0,1.42,5.81q1.42,2,4.74,2t4.74-2a10,10,0,0,0,1.42-5.81V55h20.91v46A37,37,0,0,1,583,113.53a22,22,0,0,1-14,14A33.71,33.71,0,0,1,557.85,129.28Zm0-13q-14.66,0-14.66-16V63.7h-2.54v36.59q0,9.12,4.45,14t12.75,4.83q8.3,0,12.8-4.83t4.5-14V63.7h-2.64v36.59Q572.51,116.25,557.85,116.25Z" fill="#fff"/><path d="M591.46,55h17.1l18,27.9V55H647v72.42h-17.2L611.88,99.63v27.79H591.46Zm11.63,63.73V68.58l32.25,50.16h2.54v-55h-2.54v50.16L603.09,63.7h-2.54v55Z" fill="#fff"/><path d="M422.22,131.58h17.2l17,27.79,16.9-27.79h17.2V204H469.7V177.94l-13.29,21.71L443,177.94V204H422.22Zm12.31,63.73V145.48l21.89,35.39,21.79-35.39v49.83h2.54v-55h-2.54L456.42,176l-21.89-35.72H432v55Z" fill="#fff"/><path d="M516.71,131.58h15.63L557.06,204H536.54l-2.15-6.51H514.65L512.5,204H492Zm-10.16,63.73,1.86-5.43h32.25l1.86,5.43h2.74l-18.86-55h-3.71l-18.86,55Zm18-52.44,15.24,44.41H509.28Zm4.4,38.65-4.4-12.7-4.4,12.7Z" fill="#fff"/><path d="M558.53,204V131.58H576.6A54.06,54.06,0,0,1,593,133.86a31.69,31.69,0,0,1,12.12,6.84A29.52,29.52,0,0,1,612.61,152a48.82,48.82,0,0,1,0,31.38,29.5,29.5,0,0,1-7.52,11.35A32.25,32.25,0,0,1,593,201.67,52.85,52.85,0,0,1,576.6,204Zm9.77-8.69h8.31q14.27,0,21.55-7.22t7.28-20.36q0-13.14-7.28-20.3t-21.55-7.17H568.3Zm2.54-2.61V142.87h5.77q12.41,0,19.3,6.24t6.89,18.62q0,12.38-6.89,18.67t-19.3,6.3Zm8.5-9.34q7.33,0,11.33-3.85t4-11.78q0-7.92-4-11.73t-11.33-3.8Z" fill="#fff"/><path d="M476.4,266.51,476.06,312h0a1.62,1.62,0,0,1-3.24.14l0,0L472,266.51c.18-3.69-1.89-4.45-1.89-4.45-2.14.76-2.08,4.57-2.08,4.57l-1.75,45.65,0,.08h0a1.3,1.3,0,0,1-.59,1.08.71.71,0,0,1-.56.21l-.13,0a1.3,1.3,0,0,1-1.28-1.31s0-.07,0-.11l1.16-45.87c-1.49-8.24-3.94-.21-3.94-.21l-2.22,21.56-3.19,34.11a31.16,31.16,0,0,0-.17,6.08,8.5,8.5,0,0,0,1.11,3.6c1.08,1.74,2.8,2.35,4.32,3.52l4.08,3.15c3.74,2.92,3.15,6.31,3.15,6.31l-4.51,142.2s0,0,0,.07c0,1.34,4,2.43,9,2.43s9-1.09,9-2.43a.57.57,0,0,0,0-.12l-3.21-142.26a10.3,10.3,0,0,1,5.06-7.26L486,335.4a9.09,9.09,0,0,0,5-6.9c0-2,.15-4.17.16-6.24,0-3.71-.29-7.39-.51-11.08q-.41-6.76-.88-13.51c-.33-4.86-.63-9.71-.93-14.57q-.37-5.85-.74-11.7-.15-2.37-.31-4.75c-2.68-8.64-4.21.22-4.21.22l.93,45.42,0,0a1.56,1.56,0,0,1-3.12-.12.38.38,0,0,1,0-.05l0-.08-.82-45.3c-2.31-10.73-4.09-.23-4.09-.23" fill="#fff"/><circle cx="610.81" cy="395.45" r="76" fill="#cfd1d2"/><circle cx="610.81" cy="401.44" r="76" fill="#fff"/><path d="M83.84,34.4l.52-7.49H86l.68,3.2.17,1.15h0l.22-1.15.75-3.2h1.57L90,34.4H88.33l-.15-3V29.86h0l-.26,1.56-.66,3h-1l-.61-3-.22-1.56h0l0,1.56-.17,3Z" fill="#221f1f"/><path d="M93.72,33.09H92.1l-.27,1.31H90.39l1.74-7.49h1.8l1.73,7.49H94ZM92.34,31.9h1.14l-.4-2-.15-1h0l-.17,1Z" fill="#221f1f"/><path d="M96.26,26.91h2.3a2,2,0,0,1,2.1,2.29,2.16,2.16,0,0,1-1,1.92l1.16,3.28H99.13l-1-2.86H98V34.4H96.26ZM98,28.17v2.22h.32c.59,0,.77-.44.77-1.14s-.19-1.08-.75-1.08Z" fill="#221f1f"/><path d="M105.64,34.21a2.39,2.39,0,0,1-1.3.31c-1.9,0-3.08-1.24-3.08-3.78s1.31-3.94,3-3.94a2.61,2.61,0,0,1,1.35.28l-.38,1.27a2.15,2.15,0,0,0-.85-.17c-.94,0-1.43.92-1.43,2.54s.51,2.42,1.46,2.42a1.85,1.85,0,0,0,.82-.19Z" fill="#221f1f"/><path d="M106.34,26.91H108v3h1.41v-3h1.7V34.4h-1.7V31.2H108v3.2h-1.7Z" fill="#221f1f"/><path d="M114.33,28.78l-1,1V28.25l1.39-1.4H116V34.4h-1.66Z" fill="#221f1f"/><path d="M117,31.52A5.7,5.7,0,0,1,119,26.91H121V27a5.71,5.71,0,0,0-2.18,3,1.27,1.27,0,0,1,1-.5c.89,0,1.63.75,1.63,2.39s-.86,2.68-2.21,2.68S117,33.57,117,31.52Zm2.85.34c0-1-.27-1.21-.62-1.21a.78.78,0,0,0-.59.33c0,.2,0,.4,0,.61,0,1.38.24,1.72.62,1.72S119.8,32.9,119.8,31.86Z" fill="#221f1f"/><path d="M169.52,44.4l.52-7.49h1.66l.68,3.2.17,1.15h0l.22-1.15.75-3.2h1.57l.52,7.49H174l-.15-3V39.86h0l-.26,1.56-.66,3h-1l-.61-3-.22-1.56h0l0,1.56-.17,3Z" fill="#221f1f"/><path d="M179.4,43.09h-1.62l-.27,1.31h-1.44l1.74-7.49h1.8l1.73,7.49h-1.68ZM178,41.9h1.14l-.4-2-.15-1h0l-.17,1Z" fill="#221f1f"/><path d="M181.94,36.91h2.3a2,2,0,0,1,2.1,2.29,2.16,2.16,0,0,1-1,1.92l1.16,3.28h-1.73l-1-2.86h-.19V44.4h-1.69Zm1.69,1.26v2.22h.32c.59,0,.77-.44.77-1.14s-.19-1.08-.75-1.08Z" fill="#221f1f"/><path d="M191.32,44.21a2.39,2.39,0,0,1-1.3.31c-1.9,0-3.08-1.24-3.08-3.78s1.31-3.94,3-3.94a2.61,2.61,0,0,1,1.35.28l-.38,1.27a2.15,2.15,0,0,0-.85-.17c-.94,0-1.43.92-1.43,2.54s.51,2.42,1.46,2.42a1.85,1.85,0,0,0,.82-.19Z" fill="#221f1f"/><path d="M192,36.91h1.7v3h1.41v-3h1.7V44.4h-1.7V41.2h-1.41v3.2H192Z" fill="#221f1f"/><path d="M199,44.4v-1l1.24-2.24a4.5,4.5,0,0,0,.69-2.15.74.74,0,0,0-.79-.83,1.78,1.78,0,0,0-.86.24L199,37.14a2.78,2.78,0,0,1,1.49-.35,1.93,1.93,0,0,1,2.19,2.13A6.73,6.73,0,0,1,201.44,42l-.61,1h1.81V44.4Z" fill="#221f1f"/><path d="M205.64,44.57c-1.44,0-2.39-1-2.39-3.87s1-3.95,2.39-3.95S208,37.92,208,40.7,207.08,44.57,205.64,44.57Zm0-1.38c.47,0,.69-.51.69-2.51s-.22-2.55-.69-2.55-.69.63-.69,2.55S205.17,43.19,205.64,43.19Z" fill="#221f1f"/><path d="M249.53,65.06l.52-7.49h1.66l.68,3.2.17,1.15h0l.22-1.15.75-3.2h1.57l.52,7.49H254l-.15-3V60.53h0l-.26,1.56-.66,3h-1l-.61-3-.22-1.56h0l0,1.56-.17,3Z" fill="#221f1f"/><path d="M259.41,63.75h-1.62l-.27,1.31h-1.44l1.74-7.49h1.8l1.73,7.49h-1.68ZM258,62.57h1.14l-.4-2-.15-1h0l-.17,1Z" fill="#221f1f"/><path d="M262,57.58h2.3a2,2,0,0,1,2.1,2.29,2.16,2.16,0,0,1-1,1.92l1.16,3.28h-1.73l-1-2.86h-.19v2.86H262Zm1.69,1.26v2.22H264c.59,0,.77-.44.77-1.14s-.19-1.08-.75-1.08Z" fill="#221f1f"/><path d="M271.33,64.87a2.39,2.39,0,0,1-1.3.31c-1.9,0-3.08-1.24-3.08-3.78s1.31-3.94,3-3.94a2.61,2.61,0,0,1,1.35.28L271,59a2.15,2.15,0,0,0-.85-.17c-.94,0-1.43.92-1.43,2.54s.51,2.42,1.46,2.42a1.85,1.85,0,0,0,.82-.19Z" fill="#221f1f"/><path d="M272,57.58h1.7v3h1.41v-3h1.7v7.49h-1.7v-3.2h-1.41v3.2H272Z" fill="#221f1f"/><path d="M279,65.06v-1l1.24-2.24a4.5,4.5,0,0,0,.69-2.15.74.74,0,0,0-.79-.83,1.78,1.78,0,0,0-.86.24L279,57.81a2.78,2.78,0,0,1,1.49-.35,1.93,1.93,0,0,1,2.19,2.13,6.73,6.73,0,0,1-1.23,3.13l-.61,1h1.81v1.31Z" fill="#221f1f"/><path d="M286.92,63.51v1.55H285.4V63.51h-2.24v-1l1.7-5h2.06v4.78h.58v1.16Zm-1.52-1.16V60.13l0-1.18h0l-.28,1.12-.76,2.29Z" fill="#221f1f"/><path d="M303.55,109.73l.52-7.49h1.66l.68,3.2.17,1.15h0l.22-1.15.75-3.2h1.57l.52,7.49H308l-.15-3v-1.56h0l-.26,1.56-.66,3h-1l-.61-3-.22-1.56h0l0,1.56-.17,3Z" fill="#221f1f"/><path d="M313.43,108.42h-1.62l-.27,1.31H310.1l1.74-7.49h1.8l1.73,7.49h-1.68ZM312,107.23h1.14l-.4-2-.15-1h0l-.17,1Z" fill="#221f1f"/><path d="M316,102.24h2.3a2,2,0,0,1,2.1,2.29,2.17,2.17,0,0,1-1,1.92l1.16,3.28h-1.73l-1-2.86h-.19v2.86H316Zm1.69,1.26v2.22H318c.59,0,.77-.44.77-1.14s-.19-1.08-.75-1.08Z" fill="#221f1f"/><path d="M325.35,109.54a2.39,2.39,0,0,1-1.3.31c-1.9,0-3.08-1.24-3.08-3.78s1.31-3.94,3-3.94a2.61,2.61,0,0,1,1.35.28l-.38,1.27a2.14,2.14,0,0,0-.85-.17c-.94,0-1.43.92-1.43,2.54s.51,2.42,1.46,2.42a1.85,1.85,0,0,0,.82-.19Z" fill="#221f1f"/><path d="M326,102.24h1.7v3h1.41v-3h1.7v7.49h-1.7v-3.2h-1.41v3.2H326Z" fill="#221f1f"/><path d="M332.86,109.53l.37-1.29a2,2,0,0,0,1,.25.86.86,0,0,0,.9-1c0-.56-.2-1-.88-1h-.33v-1.26h.33a.82.82,0,0,0,.87-.92c0-.57-.28-.87-.91-.87a1.77,1.77,0,0,0-.85.24l-.35-1.24a2.81,2.81,0,0,1,1.49-.37,1.92,1.92,0,0,1,2.1,2.11,1.61,1.61,0,0,1-1,1.61,1.76,1.76,0,0,1,1.14,1.82,2.12,2.12,0,0,1-2.27,2.24A2.94,2.94,0,0,1,332.86,109.53Z" fill="#221f1f"/><path d="M339.64,109.9c-1.44,0-2.39-1-2.39-3.87s1-3.95,2.39-3.95S342,103.25,342,106,341.08,109.9,339.64,109.9Zm0-1.38c.47,0,.69-.51.69-2.51s-.22-2.55-.69-2.55-.69.63-.69,2.55S339.17,108.52,339.64,108.52Z" fill="#221f1f"/><path d="M353.4,185.73l.52-7.49h1.66l.68,3.2.17,1.15h0l.22-1.15.75-3.2H359l.52,7.49h-1.62l-.15-3v-1.56h0l-.26,1.56-.66,3h-1l-.61-3-.22-1.56h0l0,1.56-.17,3Z" fill="#221f1f"/><path d="M363.28,184.42h-1.62l-.27,1.31h-1.44l1.74-7.49h1.8l1.73,7.49h-1.68Zm-1.38-1.19H363l-.4-2-.15-1h0l-.17,1Z" fill="#221f1f"/><path d="M365.82,178.24h2.3a2,2,0,0,1,2.1,2.29,2.16,2.16,0,0,1-1,1.92l1.16,3.28h-1.73l-1-2.86h-.19v2.86h-1.69Zm1.69,1.26v2.22h.32c.59,0,.77-.44.77-1.14s-.19-1.08-.75-1.08Z" fill="#221f1f"/><path d="M375.2,185.54a2.39,2.39,0,0,1-1.3.31c-1.9,0-3.08-1.24-3.08-3.78s1.31-3.94,3-3.94a2.61,2.61,0,0,1,1.35.28l-.38,1.27a2.15,2.15,0,0,0-.85-.17c-.94,0-1.43.92-1.43,2.54s.51,2.42,1.46,2.42a1.86,1.86,0,0,0,.82-.19Z" fill="#221f1f"/><path d="M375.9,178.24h1.7v3H379v-3h1.7v7.49H379v-3.2H377.6v3.2h-1.7Z" fill="#221f1f"/><path d="M382.71,185.53l.37-1.29a2,2,0,0,0,1,.25.86.86,0,0,0,.9-1c0-.56-.2-1-.88-1h-.33v-1.26h.33a.82.82,0,0,0,.87-.92c0-.57-.28-.87-.91-.87a1.77,1.77,0,0,0-.85.24l-.35-1.24a2.81,2.81,0,0,1,1.49-.37,1.92,1.92,0,0,1,2.1,2.11,1.61,1.61,0,0,1-1,1.61,1.76,1.76,0,0,1,1.14,1.82,2.12,2.12,0,0,1-2.27,2.24A3,3,0,0,1,382.71,185.53Z" fill="#221f1f"/><path d="M388,180.11l-1,1v-1.49l1.39-1.4h1.27v7.55H388Z" fill="#221f1f"/><path d="M423.79,380.75h-1.62l-.27,1.31h-1.44l1.74-7.49H424l1.73,7.49h-1.68Zm-1.38-1.19h1.14l-.4-2-.15-1h0l-.17,1Z" fill="#221f1f"/><path d="M426.33,374.58h2.14a2.42,2.42,0,0,1,0,4.84H428v2.65h-1.69Zm1.69,1.26v2.39h.31c.57,0,.78-.41.78-1.2s-.21-1.19-.78-1.19Z" fill="#221f1f"/><path d="M431.42,374.58h2.3a2,2,0,0,1,2.1,2.29,2.16,2.16,0,0,1-1,1.92l1.16,3.28h-1.73l-1-2.86h-.19v2.86h-1.69Zm1.69,1.26v2.22h.32c.59,0,.77-.44.77-1.14s-.19-1.08-.75-1.08Z" fill="#221f1f"/><path d="M436.68,374.58h1.71v7.49h-1.71Z" fill="#221f1f"/><path d="M439.42,374.58h1.71v6.2h1.71v1.29h-3.42Z" fill="#221f1f"/><path d="M444.59,381.86l.37-1.29a2,2,0,0,0,1,.25.86.86,0,0,0,.9-1c0-.56-.2-1-.88-1h-.33v-1.26h.33a.82.82,0,0,0,.87-.92c0-.57-.28-.87-.91-.87a1.77,1.77,0,0,0-.85.24l-.35-1.24a2.81,2.81,0,0,1,1.49-.37,1.92,1.92,0,0,1,2.1,2.11,1.61,1.61,0,0,1-1,1.61A1.76,1.76,0,0,1,448.4,380a2.12,2.12,0,0,1-2.27,2.24A2.94,2.94,0,0,1,444.59,381.86Z" fill="#221f1f"/><path d="M553.22,38.29c-.4.31-1.09.88-1.09.88a2,2,0,0,1-1.06.56,5.2,5.2,0,0,1-2.33-1V29.85h4.48v8.43ZM538.08,26.54V18.42l1.55-.92,3.07,2.22v6.81Zm8.57,11.61V19.34l1.62-1V38.64a9.66,9.66,0,0,0-1.62-.5Zm2.08-11.61V18.18l1-.64a6,6,0,0,0,3.46,2.26v6.74Zm11.12,13a6.45,6.45,0,0,1-2.72-1.31V19.9a4.06,4.06,0,0,0,2-3l-.07-.11a6.63,6.63,0,0,1-2.26.35A4.64,4.64,0,0,1,553,15.21l-5.5,3.14c-1.44-1-3.2-2.24-4.59-3.25l-7.13,4.13c-2.26,1.31-3.85,2.83-3.85,5.33v2h-.53a2.85,2.85,0,0,0-3.14,2.75,2.5,2.5,0,0,0,.88,2l.1,0a1.84,1.84,0,0,1,2.08-1.52h.6V34.2a3.61,3.61,0,0,1-1.31,3.11l0,.07c2.79-.27,5.22-1.68,5.22-4.52V19.66c.56-.32.88-.54,1.69-1V37.3c0,1.67-.65,2.22-2.29,2.22-1.86,0-3.74-.85-5.47-.85-2.68,0-4.13,1.68-4.27,4.41l.21.07a3.43,3.43,0,0,1,3.1-1.27c1.7,0,3.35.88,5.12.88,2.51,0,4.06-1.45,4.06-3.85V29.85h4.66v8.5a7,7,0,0,0-3.39,3.74l.07.18A6,6,0,0,1,543,41.15,8.42,8.42,0,0,1,548,42.74c.88-.74,3.45-2.61,4.48-3.39,1.37,1.06,3,2.32,4.13,3.35,1.26-1.24,3.25-3.1,3.25-3.1l0-.07Zm15.63-.39-2.4,1.41a4.85,4.85,0,0,1-2-4.34c0-1.84.6-3.21,2.36-3.21a6.81,6.81,0,0,1,2,.28v5.86Zm-2.19-6.67a8.77,8.77,0,0,0-1.87.28V26.5l.17-.14c1.57,1.05,2.53,1.71,3.88,2.68v3.7a8.13,8.13,0,0,0-2.19-.28ZM580.88,40a3.86,3.86,0,0,1-1.84-.92V27.53c-2-1.36-3.26-2.15-4.9-3.25a40.84,40.84,0,0,1-5.4,3.14v3.85a14.11,14.11,0,0,1,2.5,1.52c-2.48.91-3.74,2.59-3.74,4.59a5.9,5.9,0,0,0,3.1,5.33c2.09-1.32,2.91-1.9,4.45-2.79,1.53,1.14,2.44,1.83,3.64,2.75l2.22-2.61,0-.07Zm65.73-8.72-3.07,1.91V26.64l.28-.18c.74,1.33,1.86,3.28,2.79,4.8Zm-.32-7c-1.49,1.08-4.49,3.07-6.32,4.16V39.66c1.37.9,3,2,4.34,3,1.31-1.47,2.65-2.78,4-4.06l-.29-.28c-.84.84-1.21,1.27-1.69,1.27s-1.13-.4-2.79-1.41V33.67l6.28-3.88c-1.39-2.09-2.55-3.87-3.53-5.51Zm22.9,14.86-2.4,1.41a4.84,4.84,0,0,1-2-4.34c0-1.84.6-3.21,2.37-3.21a6.83,6.83,0,0,1,2,.28v5.86ZM667,32.47a8.79,8.79,0,0,0-1.87.28V26.5l.21-.14c1.57,1.05,2.5,1.71,3.85,2.68v3.7a8.15,8.15,0,0,0-2.19-.28ZM674.59,40a3.86,3.86,0,0,1-1.84-.92V27.53c-2-1.36-3.26-2.15-4.9-3.25a40.65,40.65,0,0,1-5.4,3.14v3.85A14.12,14.12,0,0,1,665,32.78c-2.48.91-3.74,2.59-3.74,4.59a5.91,5.91,0,0,0,3.11,5.33c2.09-1.32,2.91-1.9,4.45-2.79,1.53,1.14,2.44,1.83,3.63,2.75l2.22-2.61,0-.07Zm16.83-.53-.63.49a36.28,36.28,0,0,1-3.71-2.4V25.9c.6-.36,1.18-.66,2-1.16L691.42,27V39.45ZM695,25.8c-4.06-4.14-7.57-7.73-9.14-9.35-.82.72-1.84,1.52-3.07,2.4l0,.07a5.29,5.29,0,0,1,1.94,1.41l4.06,4.09c-2,1.17-3.73,2.11-5.29,3v12c1.45,1,3.28,2.21,4.76,3.35a33,33,0,0,1,6.7-5V25.8ZM537,16l-.21-.1a3.14,3.14,0,0,1-1.83.63c-1.11,0-2.37-.78-3.63-.78-2,0-3.83,1.41-4.13,4.34l.18.11a2.78,2.78,0,0,1,2.72-1.55c1,0,2.51.74,3.25.74,1.54,0,2.74-1.26,3.67-3.39Zm30,23.85,0-.07a6,6,0,0,1-2.08-.92V26.26c-1-.68-1.76-1.26-2.68-2l-2.36,2.65,0,.07a3.5,3.5,0,0,1,1.45.85V40.34c1,.68,2.24,1.6,3.21,2.36,1.54-1.84,2.47-2.89,2.47-2.89ZM565,19.52c-.8-.62-1.63-1.3-2.4-2-.73.9-1.4,1.61-2,2.29.91.7,1.81,1.33,2.47,1.91.8-.95,1.4-1.62,2-2.22Zm39.21,20.25,0-.07a5.05,5.05,0,0,1-2.08-.88V26.93c-.94-.61-3.21-2-4.23-2.68-1.16,1-2.29,1.94-3.49,2.9-1.27-.92-2.82-2-4-2.82-1.38,1.11-2.56,2-3.6,2.82-1.3-1-2.52-2-3.64-2.86-.73.88-1.66,1.84-2.51,2.68l0,.07c.6.06,1,.28,2.15,1.31V41c.54.39,1.37,1.05,2.12,1.66.73-.78,1.6-1.61,2.43-2.4-.29-.15-.66-.38-1-.6V28l1.77-1.41,2.5,1.73V41s1.23.95,2.12,1.66c.58-.58,1.82-1.75,2.47-2.36l-1-.64V27.88l1.45-1.17,2.82,1.73V40.34c1.14.79,2.14,1.52,3.21,2.36,1.78-2.18,2.47-2.93,2.47-2.93Zm7.23,0,0-.07a6,6,0,0,1-2.08-.92V26.26c-1-.68-1.76-1.26-2.68-2l-2.36,2.65,0,.07a3.5,3.5,0,0,1,1.45.85V40.34c1,.68,2.24,1.6,3.21,2.36,1.54-1.84,2.47-2.89,2.47-2.89Zm-2.08-20.29c-.8-.62-1.63-1.3-2.4-2-.73.9-1.4,1.61-2,2.29.91.7,1.8,1.33,2.47,1.91.8-.95,1.39-1.62,2-2.22Zm14.87-.07-.11-.07c-2.49.74-4.34,2.34-4.34,5.36v1.8h-.85a2.82,2.82,0,0,0-3.11,2.75,2.49,2.49,0,0,0,.85,2h.11c.15-.78.67-1.48,2.08-1.48h.92v5a2.74,2.74,0,0,1-.81,2l.18.11a6,6,0,0,0,4.55-5.58V23.26c0-2.19.16-3.14.53-3.81Zm14.57-3.18-.07-.14a6.77,6.77,0,0,1-2.61.49,5.43,5.43,0,0,1-3.64-1.38c-.82.91-1.85,2-2.72,2.86a5.47,5.47,0,0,0,2.72,1.38v7.06h-6.56V15.42h-.46V38.85a10,10,0,0,0-4.23-1,6.36,6.36,0,0,0-6.42,4.27l.07.18a8.66,8.66,0,0,1,4.55-1.17,8.18,8.18,0,0,1,5.12,1.52c1.07-1.45,2.57-3.17,3.42-4.2l-.28-.25c-.34.49-.81,1-1.16,1a1.34,1.34,0,0,1-.6-.18V29.85h6.56v8.5a5.11,5.11,0,0,0-4.13,4.06l0,.14a6.88,6.88,0,0,1,4-1.23,5.22,5.22,0,0,1,3.56,1.38l2.82-3a6.46,6.46,0,0,0-2.33-1V19.3a4.67,4.67,0,0,0,2.36-3Zm-14.4-.21-.07-.14a3,3,0,0,1-1.94.67c-1.11,0-2.37-.78-3.63-.78-2,0-3.79,1.37-4.09,4.31l.14.14a2.79,2.79,0,0,1,2.72-1.55c1,0,2.51.74,3.25.74,1.54,0,2.7-1.26,3.63-3.39Zm37.55,10,0-.11a5.23,5.23,0,0,1-3.74-1.69c-.94,1-1.67,1.68-2.72,2.61-1.25-.91-2.13-1.66-3.32-2.65l-2.4,2.68,0,.07a5.37,5.37,0,0,1,2,1.31V39.66c1.49,1,2.92,2,4.38,3,1-1.1,2.17-2.33,3.42-3.56l-.25-.25c-.49.49-.81.71-1.23.71s-1.12-.34-2.75-1.27V27.53l.32-.32a3.67,3.67,0,0,0,3,1.41c1.45,0,2.57-1,3.28-2.54Zm20.4,13.76c-.73.73-1.72,1.83-2.58,2.86-1.26-1-2.49-1.82-3.21-2.36v-19a1.54,1.54,0,0,0-.88-1.55v-.11L680,16.48l.07.07V38.82a5,5,0,0,0,2.19,1l0,.07Z" fill="#fff"/></g><path d="M131.62,53.24l-1,.91V52.73L132,51.4h1.21v7.18h-1.58Z" fill="#221f1f"/><path d="M135.65,51.46h2c1.27,0,2.05.59,2.05,1.92a1.49,1.49,0,0,1-.9,1.47,1.64,1.64,0,0,1,1.14,1.66,2,2,0,0,1-2.28,2.06h-2Zm1.6,1.1v1.82h.28c.48,0,.68-.29.68-.94s-.21-.86-.68-.87Zm0,2.87v2h.32c.53,0,.79-.29.79-1.06s-.26-1-.78-1Z" fill="#221f1f"/><path d="M142.83,58.67c-1.45,0-2.46-.79-2.46-2.72,0-1.7.9-2.66,2-2.66s1.85.6,1.85,2.27v.84h-2.4c.09.74.41,1.06,1.08,1.06a2.06,2.06,0,0,0,1-.24l.21,1.11A2.4,2.4,0,0,1,142.83,58.67Zm-1-3.26h1c0-.78-.16-1-.49-1S141.89,54.81,141.86,55.41Z" fill="#221f1f"/><path d="M146.83,58.1a1,1,0,0,1-1,.59c-.88,0-1.26-.79-1.26-1.64,0-1.07.59-1.66,1.4-1.66a1.1,1.1,0,0,1,.83.31v-.47a.68.68,0,0,0-.76-.73,1.81,1.81,0,0,0-1,.26l-.3-1.1a3,3,0,0,1,1.56-.37,1.7,1.7,0,0,1,1.95,1.9v3.38h-1.49Zm0-.56V56.42a.59.59,0,0,0-.36-.12c-.26,0-.44.21-.44.68s.15.71.44.71A.54.54,0,0,0,146.83,57.54Z" fill="#221f1f"/><path d="M149.07,58.58V51.16h1.5v4.5l1.11-2.21h1.43l-1.21,2.31,1.3,2.81h-1.63l-1-2.31v2.31Z" fill="#221f1f"/><path d="M155.9,58.67c-1.45,0-2.46-.79-2.46-2.72,0-1.7.9-2.66,2-2.66s1.85.6,1.85,2.27v.84h-2.4c.09.74.41,1.06,1.08,1.06a2.06,2.06,0,0,0,1-.24l.21,1.11A2.4,2.4,0,0,1,155.9,58.67Zm-1-3.26h1c0-.78-.16-1-.49-1S155,54.81,154.93,55.41Z" fill="#221f1f"/><path d="M157.9,58.58V53.45h1.5v.91a1.52,1.52,0,0,1,1.25-1V55c-.29,0-1-.09-1.25.36v3.2Z" fill="#221f1f"/><path d="M164.57,58.1a1,1,0,0,1-1,.59c-.88,0-1.26-.79-1.26-1.64,0-1.07.59-1.66,1.4-1.66a1.1,1.1,0,0,1,.83.31v-.47a.68.68,0,0,0-.76-.73,1.82,1.82,0,0,0-1,.26l-.3-1.1a3,3,0,0,1,1.56-.37,1.7,1.7,0,0,1,1.95,1.9v3.38h-1.49Zm0-.56V56.42a.59.59,0,0,0-.36-.12c-.26,0-.44.21-.44.68s.15.71.44.71A.54.54,0,0,0,164.57,57.54Z" fill="#221f1f"/><path d="M166.8,58.58V53.45h1.49v.63a1.47,1.47,0,0,1,1.27-.79c.88,0,1.26.59,1.26,1.61v3.68h-1.49V55.06c0-.34-.15-.5-.45-.5a.66.66,0,0,0-.6.42v3.6Z" fill="#221f1f"/><path d="M174.18,58a1.25,1.25,0,0,1-1.13.72c-1,0-1.67-.85-1.67-2.67s.77-2.74,1.73-2.74a1.12,1.12,0,0,1,1.07.64V51.16h1.49v7.42h-1.49Zm0-.88V54.82a.67.67,0,0,0-.59-.3c-.41,0-.7.46-.7,1.51s.28,1.45.69,1.45A.71.71,0,0,0,174.18,57.1Z" fill="#221f1f"/><path d="M180.5,58.72c-1.72,0-2.81-1.1-2.81-3.64s1.23-3.73,2.93-3.73a3.3,3.3,0,0,1,1.5.29l-.39,1.27a2.09,2.09,0,0,0-.93-.21c-.93,0-1.46.73-1.46,2.36s.28,2.35,1.21,2.35h.21V55.78h-.58V54.53h2.1v3.75A3.19,3.19,0,0,1,180.5,58.72Z" fill="#221f1f"/><path d="M183.1,58.58V53.45h1.5v.91a1.52,1.52,0,0,1,1.25-1V55c-.29,0-1-.09-1.25.36v3.2Z" fill="#221f1f"/><path d="M188.41,58.1a1,1,0,0,1-1,.59c-.88,0-1.26-.79-1.26-1.64,0-1.07.59-1.66,1.4-1.66a1.1,1.1,0,0,1,.83.31v-.47a.68.68,0,0,0-.76-.73,1.81,1.81,0,0,0-1,.26l-.3-1.1a3,3,0,0,1,1.56-.37,1.7,1.7,0,0,1,1.95,1.9v3.38h-1.49Zm0-.56V56.42a.59.59,0,0,0-.36-.12c-.26,0-.44.21-.44.68s.15.71.44.71A.54.54,0,0,0,188.41,57.54Z" fill="#221f1f"/><path d="M191.79,58.68l-1.47-5.23h1.51l.39,1.62.29,1.59h0l.31-1.59.4-1.62h1.34l-2,6.94h-1.31Z" fill="#221f1f"/><path d="M130.66,98.74a2,2,0,0,1,.93-1.7,2.27,2.27,0,0,1-.81-1.75,1.82,1.82,0,0,1,1.87-1.95,1.74,1.74,0,0,1,1.88,1.83,2,2,0,0,1-.81,1.65,2.13,2.13,0,0,1,.93,1.81,1.91,1.91,0,0,1-2,2.1A1.85,1.85,0,0,1,130.66,98.74Zm2.5,0a1.51,1.51,0,0,0-.67-1.17,1.66,1.66,0,0,0-.48,1.15c0,.5.22.84.59.84S133.16,99.23,133.16,98.73Zm-.36-2.48a1.45,1.45,0,0,0,.47-1c0-.39-.17-.71-.54-.71s-.54.33-.54.7A1.35,1.35,0,0,0,132.79,96.25Z" fill="#221f1f"/><path d="M137.74,97.84l-1.53-4.38h1.63l.5,1.62.27,1.16h0l.29-1.16.47-1.62h1.41l-1.45,4.35v2.77h-1.62Z" fill="#221f1f"/><path d="M143.19,100.1a1,1,0,0,1-1,.59c-.88,0-1.26-.79-1.26-1.64,0-1.07.59-1.66,1.4-1.66a1.1,1.1,0,0,1,.83.31v-.47a.68.68,0,0,0-.76-.73,1.81,1.81,0,0,0-1,.26l-.3-1.1a3,3,0,0,1,1.56-.37,1.7,1.7,0,0,1,1.95,1.9v3.38h-1.49Zm0-.56V98.42a.59.59,0,0,0-.36-.12c-.26,0-.44.21-.44.68s.15.71.44.71A.54.54,0,0,0,143.19,99.54Z" fill="#221f1f"/><path d="M145.42,100.58V95.45h1.5v.91a1.52,1.52,0,0,1,1.25-1V97c-.29,0-1-.09-1.25.36v3.2Z" fill="#221f1f"/><path d="M151.33,100a1.25,1.25,0,0,1-1.13.72c-1,0-1.67-.85-1.67-2.67s.77-2.74,1.73-2.74a1.12,1.12,0,0,1,1.07.64V93.16h1.49v7.42h-1.49Zm0-.88V96.82a.67.67,0,0,0-.59-.3c-.41,0-.7.46-.7,1.51s.28,1.45.69,1.45A.71.71,0,0,0,151.33,99.1Z" fill="#221f1f"/><path d="M155.09,100v.56H153.6V93.16h1.49V96a1.38,1.38,0,0,1,1.18-.71c1,0,1.63.85,1.63,2.67s-.77,2.74-1.71,2.74A1.18,1.18,0,0,1,155.09,100ZM156.38,98c0-1.06-.28-1.44-.69-1.44a.71.71,0,0,0-.6.38v2.27a.67.67,0,0,0,.59.3C156.09,99.48,156.38,99,156.38,98Z" fill="#221f1f"/><path d="M159.2,93.38a.82.82,0,1,1,0,1.64.82.82,0,1,1,0-1.64Zm-.75,2.07h1.49v5.12h-1.49Z" fill="#221f1f"/><path d="M160.71,100.58V95.45h1.5v.91a1.52,1.52,0,0,1,1.25-1V97c-.29,0-1-.09-1.25.36v3.2Z" fill="#221f1f"/><path d="M166.62,100a1.25,1.25,0,0,1-1.13.72c-1,0-1.67-.85-1.67-2.67s.77-2.74,1.73-2.74a1.12,1.12,0,0,1,1.07.64V93.16h1.49v7.42h-1.49Zm0-.88V96.82a.67.67,0,0,0-.59-.3c-.41,0-.7.46-.7,1.51s.28,1.45.69,1.45A.71.71,0,0,0,166.62,99.1Z" fill="#221f1f"/><path d="M131.5,137.07l-.85.91v-1.42l1.19-1.33h1.08v7.18H131.5Z" fill="#221f1f"/><path d="M133.34,142.41v-1l1.06-2.13a4.62,4.62,0,0,0,.59-2c0-.47-.21-.79-.67-.79a1.41,1.41,0,0,0-.73.23l-.26-1.22a2.19,2.19,0,0,1,1.27-.33c1.33,0,1.87.83,1.87,2a6.84,6.84,0,0,1-1.05,3l-.52,1h1.55v1.25Z" fill="#221f1f"/><path d="M137.67,135.29h2c1,0,1.79.7,1.79,2.18a2.13,2.13,0,0,1-.82,1.83l1,3.12h-1.48l-.85-2.72h-.16v2.72h-1.44Zm1.44,1.2v2.11h.27c.5,0,.66-.42.66-1.08s-.16-1-.64-1Z" fill="#221f1f"/><path d="M142.39,135.22a.76.76,0,0,1,.75.82.75.75,0,1,1-.75-.82Zm-.68,2.07h1.34v5.12h-1.34Z" fill="#221f1f"/><path d="M143.41,142.41v-5.12h1.34v.63a1.32,1.32,0,0,1,1.14-.79c.79,0,1.14.59,1.14,1.61v3.68h-1.34v-3.52c0-.34-.14-.5-.4-.5a.6.6,0,0,0-.54.42v3.6Z" fill="#221f1f"/><path d="M150.18,142.24a1.56,1.56,0,0,1-.92.27c-1.27,0-2.08-.87-2.08-2.63s.87-2.7,2.09-2.7a1.82,1.82,0,0,1,.93.22l-.32,1.19a1,1,0,0,0-.54-.15c-.5,0-.81.51-.81,1.43s.26,1.41.83,1.41a1,1,0,0,0,.54-.15Z" fill="#221f1f"/><path d="M152.12,142.55c-1.14,0-2-.93-2-2.67s.82-2.76,2-2.76,2,1,2,2.76S153.26,142.55,152.12,142.55Zm0-1.2c.35,0,.61-.41.61-1.49s-.26-1.54-.61-1.54-.61.47-.61,1.54S151.77,141.36,152.12,141.36Z" fill="#221f1f"/><path d="M154.26,142.41v-5.12h1.34v.63a1.32,1.32,0,0,1,1.15-.79c.79,0,1.14.59,1.14,1.61v3.68h-1.34v-3.52c0-.34-.14-.5-.4-.5a.6.6,0,0,0-.54.42v3.6Z" fill="#221f1f"/><path d="M161,142.24a1.56,1.56,0,0,1-.92.27c-1.27,0-2.08-.87-2.08-2.63s.87-2.7,2.09-2.7a1.82,1.82,0,0,1,.93.22l-.32,1.19a1,1,0,0,0-.54-.15c-.5,0-.81.51-.81,1.43s.26,1.41.83,1.41a1,1,0,0,0,.54-.15Z" fill="#221f1f"/><path d="M161.85,135.22a.76.76,0,0,1,.75.82.75.75,0,1,1-.75-.82Zm-.67,2.07h1.34v5.12h-1.34Z" fill="#221f1f"/><path d="M163,141V138.4h-.38v-1.11H163v-1.5h1.35v1.5H165v1.11h-.63v2.42c0,.36.2.44.38.44a.68.68,0,0,0,.25,0v1.18a1.72,1.72,0,0,1-.5.08C163.55,142.48,163,142,163,141Z" fill="#221f1f"/><path d="M167,142.55c-1.15,0-2-.93-2-2.67s.82-2.76,2-2.76,2,1,2,2.76S168.13,142.55,167,142.55Zm0-1.2c.35,0,.61-.41.61-1.49s-.26-1.54-.61-1.54-.61.47-.61,1.54S166.64,141.36,167,141.36Z" fill="#221f1f"/><path d="M170,142.41l.44-7.12h1.42l.58,3,.14,1.09h0l.19-1.09.64-3h1.34l.45,7.12H173.8l-.13-2.83V138.1h0l-.22,1.48-.56,2.83H172l-.52-2.83-.19-1.48h0l0,1.48-.15,2.83Z" fill="#221f1f"/><path d="M177.53,142.51c-1.3,0-2.21-.79-2.21-2.72,0-1.7.81-2.66,1.83-2.66s1.67.6,1.67,2.27v.84h-2.15c.08.74.37,1.06,1,1.06a1.7,1.7,0,0,0,.9-.24l.19,1.11A2,2,0,0,1,177.53,142.51Zm-.87-3.26h.94c0-.78-.14-1-.44-1S176.69,138.65,176.66,139.25Z" fill="#221f1f"/><path d="M178.68,142.41l1.14-2.63-1.09-2.49h1.41l.36.87.21.72h0l.21-.72.32-.87h1.2l-1.08,2.52,1.12,2.6h-1.41l-.38-.92-.21-.77h0l-.24.77-.36.92Z" fill="#221f1f"/><path d="M183.21,135.22a.76.76,0,0,1,.75.82.75.75,0,1,1-.75-.82Zm-.68,2.07h1.34v5.12h-1.34Z" fill="#221f1f"/><path d="M187.06,142.24a1.56,1.56,0,0,1-.92.27c-1.27,0-2.08-.87-2.08-2.63s.87-2.7,2.09-2.7a1.82,1.82,0,0,1,.93.22l-.32,1.19a1,1,0,0,0-.54-.15c-.5,0-.81.51-.81,1.43s.26,1.41.83,1.41a1,1,0,0,0,.54-.15Z" fill="#221f1f"/><path d="M189,141.94a.9.9,0,0,1-.86.59c-.79,0-1.14-.79-1.14-1.64,0-1.07.53-1.66,1.26-1.66a.94.94,0,0,1,.74.31v-.47a.64.64,0,0,0-.68-.73,1.51,1.51,0,0,0-.85.26l-.27-1.1a2.46,2.46,0,0,1,1.4-.37c1.23,0,1.75.7,1.75,1.9v3.38H189Zm0-.56v-1.12a.5.5,0,0,0-.32-.12c-.23,0-.39.21-.39.68s.14.71.39.71A.46.46,0,0,0,189,141.38Z" fill="#221f1f"/><path d="M190.68,142.41v-5.12H192v.63a1.32,1.32,0,0,1,1.15-.79c.79,0,1.14.59,1.14,1.61v3.68H193v-3.52c0-.34-.14-.5-.4-.5a.6.6,0,0,0-.54.42v3.6Z" fill="#221f1f"/><path d="M196.41,142.55c-1.14,0-2-.93-2-2.67s.82-2.76,2-2.76,2,1,2,2.76S197.56,142.55,196.41,142.55Zm0-1.2c.35,0,.61-.41.61-1.49s-.26-1.54-.61-1.54-.61.47-.61,1.54S196.06,141.36,196.41,141.36Z" fill="#221f1f"/><path d="M134.21,182.44v1.47h-1.45v-1.47h-2.13v-.93l1.62-4.71h2v4.54h.55v1.1Zm-1.45-1.1v-2.12l0-1.12h0l-.27,1.06-.72,2.18Z" fill="#221f1f"/><path d="M136.76,176.79h3.42V178h-1.81v1.83H140V181h-1.61v2.86h-1.62Z" fill="#221f1f"/><path d="M141.61,176.72a.82.82,0,1,1,0,1.64.82.82,0,1,1,0-1.64Zm-.75,2.07h1.49v5.12h-1.49Z" fill="#221f1f"/><path d="M143.12,183.91v-5.12h1.49v.63a1.47,1.47,0,0,1,1.27-.79c.88,0,1.26.59,1.26,1.61v3.68h-1.49v-3.52c0-.34-.15-.5-.45-.5a.66.66,0,0,0-.6.42v3.6Z" fill="#221f1f"/><path d="M147.89,183.91V176.5h1.5V181l1.11-2.21h1.43l-1.21,2.31,1.3,2.81H150.4l-1-2.31v2.31Z" fill="#221f1f"/><path d="M154.46,183.44a1,1,0,0,1-1,.59c-.88,0-1.26-.79-1.26-1.64,0-1.07.59-1.66,1.4-1.66a1.1,1.1,0,0,1,.83.31v-.47a.68.68,0,0,0-.76-.73,1.82,1.82,0,0,0-1,.26l-.3-1.1a3,3,0,0,1,1.56-.37,1.7,1.7,0,0,1,1.95,1.9v3.38h-1.49Zm0-.56v-1.12a.59.59,0,0,0-.36-.12c-.26,0-.44.21-.44.68s.15.71.44.71A.54.54,0,0,0,154.46,182.88Z" fill="#221f1f"/><path d="M131.62,219.4l-1,.91V218.9l1.32-1.33h1.21v7.18h-1.58Z" fill="#221f1f"/><path d="M135,219.4l-1,.91V218.9l1.32-1.33h1.21v7.18H135Z" fill="#221f1f"/><path d="M139,217.62h2a2.31,2.31,0,0,1,0,4.6h-.43v2.52H139Zm1.61,1.2v2.27h.29c.54,0,.74-.39.74-1.14s-.2-1.13-.74-1.13Z" fill="#221f1f"/><path d="M144.5,217.55a.82.82,0,1,1,0,1.64.82.82,0,1,1,0-1.64Zm-.75,2.07h1.49v5.12h-1.49Z" fill="#221f1f"/><path d="M146,224.74v-5.12h1.49v.63a1.47,1.47,0,0,1,1.27-.79c.88,0,1.26.59,1.26,1.61v3.68h-1.49v-3.52c0-.34-.15-.5-.45-.5a.66.66,0,0,0-.6.42v3.6Z" fill="#221f1f"/><path d="M153.92,224.57a1.88,1.88,0,0,1-1,.27c-1.42,0-2.31-.87-2.31-2.63s1-2.7,2.33-2.7a2.21,2.21,0,0,1,1,.22l-.35,1.19a1.18,1.18,0,0,0-.6-.15c-.55,0-.9.51-.9,1.43s.29,1.41.92,1.41a1.21,1.21,0,0,0,.6-.15Z" fill="#221f1f"/><path d="M154.46,224.74v-7.42H156v2.92a1.47,1.47,0,0,1,1.27-.79c.88,0,1.26.59,1.26,1.61v3.68H157v-3.52c0-.34-.15-.5-.45-.5a.66.66,0,0,0-.6.42v3.6Z" fill="#221f1f"/><path d="M161.22,224.89c-1.27,0-2.19-.93-2.19-2.67s.91-2.76,2.19-2.76,2.19,1,2.19,2.76S162.49,224.89,161.22,224.89Zm0-1.2c.39,0,.67-.41.67-1.49s-.29-1.54-.67-1.54-.68.47-.68,1.54S160.83,223.69,161.22,223.69Z" fill="#221f1f"/><path d="M165.43,217.62h3.42v1.21H167v1.83h1.61v1.22H167v2.86h-1.62Z" fill="#221f1f"/><path d="M171.55,224.27a1,1,0,0,1-1,.59c-.88,0-1.26-.79-1.26-1.64,0-1.07.59-1.66,1.4-1.66a1.1,1.1,0,0,1,.83.31v-.47a.68.68,0,0,0-.76-.73,1.81,1.81,0,0,0-1,.26l-.3-1.1a3,3,0,0,1,1.56-.37,1.7,1.7,0,0,1,1.95,1.9v3.38h-1.49Zm0-.56v-1.12a.59.59,0,0,0-.36-.12c-.26,0-.44.21-.44.68s.15.71.44.71A.54.54,0,0,0,171.55,223.71Z" fill="#221f1f"/><path d="M176.93,224.57a1.88,1.88,0,0,1-1,.27c-1.42,0-2.31-.87-2.31-2.63s1-2.7,2.33-2.7a2.21,2.21,0,0,1,1,.22l-.35,1.19a1.18,1.18,0,0,0-.6-.15c-.55,0-.9.51-.9,1.43s.29,1.41.92,1.41a1.21,1.21,0,0,0,.6-.15Z" fill="#221f1f"/><path d="M177.64,223.29v-2.56h-.42v-1.11h.42v-1.5h1.5v1.5h.7v1.11h-.7v2.42a.38.38,0,0,0,.43.44.84.84,0,0,0,.28,0v1.18a2.12,2.12,0,0,1-.56.08C178.23,224.81,177.64,224.36,177.64,223.29Z" fill="#221f1f"/><path d="M182.43,224.89c-1.27,0-2.19-.93-2.19-2.67s.91-2.76,2.19-2.76,2.19,1,2.19,2.76S183.7,224.89,182.43,224.89Zm0-1.2c.39,0,.67-.41.67-1.49s-.29-1.54-.67-1.54-.68.47-.68,1.54S182,223.69,182.43,223.69Z" fill="#221f1f"/><path d="M185.19,224.74v-5.12h1.5v.91a1.52,1.52,0,0,1,1.25-1v1.63c-.29,0-1-.09-1.25.36v3.2Z" fill="#221f1f"/><path d="M189.64,224.85l-1.47-5.23h1.51l.39,1.62.29,1.59h0l.31-1.59.4-1.62h1.34l-2,6.94h-1.31Z" fill="#221f1f"/><path d="M131.62,260.9l-1,.91V260.4l1.32-1.33h1.21v7.18h-1.58Z" fill="#221f1f"/><path d="M137.58,264.77v1.47h-1.45v-1.47H134v-.93l1.62-4.71h2v4.54h.55v1.1Zm-1.45-1.1v-2.12l0-1.12h0l-.27,1.06-.72,2.18Z" fill="#221f1f"/><path d="M139.76,259.12h1.63l.67,3.5.23,1.51h0l.22-1.51.64-3.5h1.44L143,266.24h-1.65Z" fill="#221f1f"/><path d="M147.35,266.34c-1.45,0-2.46-.79-2.46-2.72,0-1.7.9-2.66,2-2.66s1.85.6,1.85,2.27v.84h-2.4c.09.74.41,1.06,1.08,1.06a2.06,2.06,0,0,0,1-.24l.21,1.11A2.4,2.4,0,0,1,147.35,266.34Zm-1-3.26h1c0-.78-.16-1-.49-1S146.42,262.48,146.38,263.08Z" fill="#221f1f"/><path d="M149.35,266.24v-5.12h1.5V262a1.52,1.52,0,0,1,1.25-1v1.63c-.29,0-1-.09-1.25.36v3.2Z" fill="#221f1f"/><path d="M154.28,262.15c-.33,0-.5.11-.5.3s.12.29.33.41a8.24,8.24,0,0,1,1,.56,1.55,1.55,0,0,1,.63,1.29,1.62,1.62,0,0,1-1.83,1.65,2.55,2.55,0,0,1-1.5-.39l.36-1.07a2,2,0,0,0,1.06.32c.44,0,.53-.19.53-.41s-.1-.25-.27-.35a6.74,6.74,0,0,1-1-.62,1.46,1.46,0,0,1-.54-1.23,1.52,1.52,0,0,1,1.72-1.61,2.82,2.82,0,0,1,1.41.32l-.33,1.09A2,2,0,0,0,154.28,262.15Z" fill="#221f1f"/><path d="M158.27,265.77a1,1,0,0,1-1,.59c-.88,0-1.26-.79-1.26-1.64,0-1.07.59-1.66,1.4-1.66a1.1,1.1,0,0,1,.83.31v-.47a.68.68,0,0,0-.76-.73,1.81,1.81,0,0,0-1,.26l-.3-1.1a3,3,0,0,1,1.56-.37,1.7,1.7,0,0,1,1.95,1.9v3.38h-1.49Zm0-.56v-1.12a.59.59,0,0,0-.36-.12c-.26,0-.44.21-.44.68s.15.71.44.71A.54.54,0,0,0,158.27,265.21Z" fill="#221f1f"/><path d="M161.24,259a.82.82,0,1,1,0,1.64.82.82,0,1,1,0-1.64Zm-.75,2.07H162v5.12h-1.49Z" fill="#221f1f"/><path d="M162.75,258.83h1.5v7.42h-1.5Z" fill="#221f1f"/><path d="M165.05,258.83h1.5v7.42h-1.5Z" fill="#221f1f"/><path d="M169.61,266.34c-1.45,0-2.46-.79-2.46-2.72,0-1.7.9-2.66,2-2.66s1.85.6,1.85,2.27v.84h-2.4c.09.74.41,1.06,1.08,1.06a2.06,2.06,0,0,0,1-.24l.21,1.11A2.4,2.4,0,0,1,169.61,266.34Zm-1-3.26h1c0-.78-.16-1-.49-1S168.67,262.48,168.64,263.08Z" fill="#221f1f"/><path d="M173.23,262.15c-.33,0-.49.11-.49.3s.12.29.33.41a8.24,8.24,0,0,1,1,.56,1.55,1.55,0,0,1,.63,1.29,1.62,1.62,0,0,1-1.83,1.65,2.55,2.55,0,0,1-1.5-.39l.36-1.07a2,2,0,0,0,1.06.32c.44,0,.53-.19.53-.41s-.1-.25-.27-.35a6.74,6.74,0,0,1-1-.62,1.46,1.46,0,0,1-.54-1.23,1.52,1.52,0,0,1,1.72-1.61,2.82,2.82,0,0,1,1.41.32l-.33,1.09A2,2,0,0,0,173.23,262.15Z" fill="#221f1f"/><path d="M131,307.41l1.5-5.87h-1.82v-1.25h3.45v1l-1.57,6.15Z" fill="#221f1f"/><path d="M138.92,306.17h-1.54l-.26,1.25h-1.37l1.65-7.12h1.71l1.64,7.12h-1.6ZM137.61,305h1.08l-.38-1.87-.14-1h0l-.16,1Z" fill="#221f1f"/><path d="M141.24,307.41v-5.12h1.5v.91a1.52,1.52,0,0,1,1.25-1v1.63c-.29,0-1-.09-1.25.36v3.2Z" fill="#221f1f"/><path d="M145.28,300.22a.82.82,0,1,1,0,1.64.82.82,0,1,1,0-1.64Zm-.75,2.07H146v5.12h-1.49Z" fill="#221f1f"/><path d="M149,307.51c-1.45,0-2.46-.79-2.46-2.72,0-1.7.9-2.66,2-2.66s1.85.6,1.85,2.27v.84h-2.4c.09.74.41,1.06,1.08,1.06a2.06,2.06,0,0,0,1-.24l.21,1.11A2.4,2.4,0,0,1,149,307.51Zm-1-3.26h1c0-.78-.16-1-.49-1S148.12,303.65,148.08,304.25Z" fill="#221f1f"/><path d="M151.22,306V303.4h-.42v-1.11h.42v-1.5h1.5v1.5h.7v1.11h-.7v2.42a.38.38,0,0,0,.43.44.84.84,0,0,0,.28,0v1.18a2.12,2.12,0,0,1-.56.08C151.81,307.48,151.22,307,151.22,306Z" fill="#221f1f"/><path d="M156.29,307.51c-1.45,0-2.46-.79-2.46-2.72,0-1.7.9-2.66,2-2.66s1.85.6,1.85,2.27v.84h-2.4c.09.74.41,1.06,1.08,1.06a2.06,2.06,0,0,0,1-.24l.21,1.11A2.4,2.4,0,0,1,156.29,307.51Zm-1-3.26h1c0-.78-.16-1-.49-1S155.36,303.65,155.32,304.25Z" fill="#221f1f"/><path d="M130.67,349.58v-1l1.18-2.13a4.27,4.27,0,0,0,.66-2,.7.7,0,0,0-.75-.79,1.69,1.69,0,0,0-.82.23l-.29-1.22a2.64,2.64,0,0,1,1.42-.33,1.84,1.84,0,0,1,2.08,2,6.4,6.4,0,0,1-1.17,3l-.58,1h1.72v1.25Z" fill="#221f1f"/><path d="M136.24,342.46h2a2.31,2.31,0,0,1,0,4.6h-.43v2.52h-1.61Zm1.61,1.2v2.27h.29c.54,0,.74-.39.74-1.14s-.2-1.13-.74-1.13Z" fill="#221f1f"/><path d="M143.43,349a1.39,1.39,0,0,1-1.19.69c-.88,0-1.3-.58-1.3-1.6v-3.68h1.49V348c0,.34.15.5.45.5a.65.65,0,0,0,.55-.33v-3.69h1.49v5.12h-1.49Z" fill="#221f1f"/><path d="M147.2,349v.56H145.7v-7.42h1.49V345a1.38,1.38,0,0,1,1.18-.71c1,0,1.63.85,1.63,2.67s-.77,2.74-1.71,2.74A1.18,1.18,0,0,1,147.2,349Zm1.29-2.05c0-1.06-.28-1.44-.69-1.44a.71.71,0,0,0-.6.38v2.27a.67.67,0,0,0,.59.3C148.19,348.48,148.49,348,148.49,347Z" fill="#221f1f"/><path d="M152.07,349v.56h-1.49v-7.42h1.49V345a1.38,1.38,0,0,1,1.18-.71c1,0,1.63.85,1.63,2.67s-.77,2.74-1.71,2.74A1.18,1.18,0,0,1,152.07,349Zm1.29-2.05c0-1.06-.28-1.44-.69-1.44a.71.71,0,0,0-.6.38v2.27a.67.67,0,0,0,.59.3C153.07,348.48,153.36,348,153.36,347Z" fill="#221f1f"/><path d="M157.71,349.67c-1.45,0-2.46-.79-2.46-2.72,0-1.7.9-2.66,2-2.66s1.85.6,1.85,2.27v.84h-2.4c.09.74.41,1.06,1.08,1.06a2.06,2.06,0,0,0,1-.24l.21,1.11A2.4,2.4,0,0,1,157.71,349.67Zm-1-3.26h1c0-.78-.16-1-.49-1S156.78,345.81,156.74,346.41Z" fill="#221f1f"/><path d="M159.72,342.16h1.5v7.42h-1.5Z" fill="#221f1f"/><path d="M162,342.16h1.5v7.42H162Z" fill="#221f1f"/><path d="M165.45,349.68,164,344.45h1.51l.39,1.62.29,1.59h0l.31-1.59.4-1.62h1.34l-2,6.94H165Z" fill="#221f1f"/><path d="M52.75,45.31l-1,.91V44.8l1.32-1.33h1.21v7.18H52.75Z" fill="#221f1f"/><path d="M56.78,43.53h2c1.27,0,2.05.59,2.05,1.92a1.49,1.49,0,0,1-.9,1.47,1.64,1.64,0,0,1,1.14,1.66,2,2,0,0,1-2.28,2.06h-2Zm1.6,1.1v1.82h.28c.48,0,.68-.29.68-.94s-.21-.86-.68-.87Zm0,2.87v2h.32c.53,0,.79-.29.79-1.06s-.26-1-.78-1Z" fill="#221f1f"/><path d="M64,50.74c-1.44,0-2.46-.79-2.46-2.72,0-1.7.9-2.66,2-2.66s1.85.6,1.85,2.27v.84H63c.09.74.41,1.06,1.08,1.06a2.07,2.07,0,0,0,1-.24l.21,1.11A2.4,2.4,0,0,1,64,50.74Zm-1-3.26h1c0-.78-.16-1-.48-1S63,46.88,63,47.48Z" fill="#221f1f"/><path d="M68,50.17a1,1,0,0,1-1,.59c-.88,0-1.26-.79-1.26-1.64,0-1.07.59-1.66,1.4-1.66a1.1,1.1,0,0,1,.83.31v-.47a.68.68,0,0,0-.76-.73,1.82,1.82,0,0,0-1,.26l-.3-1.1a3,3,0,0,1,1.56-.37,1.7,1.7,0,0,1,1.95,1.9v3.38H68Zm0-.56V48.49a.59.59,0,0,0-.36-.12c-.26,0-.44.21-.44.68s.15.71.44.71A.54.54,0,0,0,68,49.61Z" fill="#221f1f"/><path d="M70.2,50.65V43.23h1.5v4.5l1.11-2.21h1.43L73,47.83l1.3,2.81H72.71l-1-2.31v2.31Z" fill="#221f1f"/><path d="M77,50.74c-1.44,0-2.46-.79-2.46-2.72,0-1.7.9-2.66,2-2.66s1.85.6,1.85,2.27v.84h-2.4c.09.74.41,1.06,1.08,1.06a2.07,2.07,0,0,0,1-.24l.21,1.11A2.4,2.4,0,0,1,77,50.74Zm-1-3.26h1c0-.78-.16-1-.48-1S76.1,46.88,76.06,47.48Z" fill="#221f1f"/><path d="M79,50.65V45.52h1.5v.91a1.52,1.52,0,0,1,1.25-1v1.63c-.29,0-1-.09-1.25.36v3.2Z" fill="#221f1f"/><path d="M85.7,50.17a1,1,0,0,1-1,.59c-.88,0-1.26-.79-1.26-1.64,0-1.07.59-1.66,1.4-1.66a1.1,1.1,0,0,1,.83.31v-.47a.68.68,0,0,0-.76-.73,1.82,1.82,0,0,0-1,.26l-.3-1.1a3,3,0,0,1,1.56-.37,1.7,1.7,0,0,1,1.95,1.9v3.38H85.7Zm0-.56V48.49a.59.59,0,0,0-.36-.12c-.26,0-.44.21-.44.68s.15.71.44.71A.54.54,0,0,0,85.7,49.61Z" fill="#221f1f"/><path d="M87.93,50.65V45.52h1.49v.63a1.47,1.47,0,0,1,1.27-.79C91.58,45.36,92,46,92,47v3.68H90.47V47.13c0-.34-.15-.5-.45-.5a.66.66,0,0,0-.6.42v3.6Z" fill="#221f1f"/><path d="M95.31,50a1.25,1.25,0,0,1-1.13.72c-1,0-1.67-.85-1.67-2.67s.77-2.74,1.73-2.74a1.12,1.12,0,0,1,1.07.64V43.23H96.8v7.42H95.31Zm0-.88V46.89a.67.67,0,0,0-.59-.3c-.41,0-.7.46-.7,1.51s.28,1.45.69,1.45A.71.71,0,0,0,95.31,49.16Z" fill="#221f1f"/><path d="M101.63,50.79c-1.72,0-2.81-1.1-2.81-3.64s1.23-3.73,2.93-3.73a3.3,3.3,0,0,1,1.5.29L102.86,45a2.09,2.09,0,0,0-.93-.21c-.93,0-1.46.73-1.46,2.36s.28,2.35,1.21,2.35h.21V47.85h-.58V46.6h2.1v3.75A3.2,3.2,0,0,1,101.63,50.79Z" fill="#221f1f"/><path d="M104.23,50.65V45.52h1.5v.91a1.52,1.52,0,0,1,1.25-1v1.63c-.29,0-1-.09-1.25.36v3.2Z" fill="#221f1f"/><path d="M109.55,50.17a1,1,0,0,1-1,.59c-.88,0-1.26-.79-1.26-1.64,0-1.07.59-1.66,1.4-1.66a1.1,1.1,0,0,1,.83.31v-.47a.68.68,0,0,0-.76-.73,1.82,1.82,0,0,0-1,.26l-.3-1.1a3,3,0,0,1,1.56-.37,1.7,1.7,0,0,1,1.95,1.9v3.38h-1.49Zm0-.56V48.49a.59.59,0,0,0-.36-.12c-.26,0-.44.21-.44.68s.15.71.44.71A.54.54,0,0,0,109.55,49.61Z" fill="#221f1f"/><path d="M112.92,50.75l-1.47-5.23H113l.39,1.62.29,1.59h0l.31-1.59.4-1.62h1.34l-2,6.94h-1.31Z" fill="#221f1f"/><path d="M52.75,64.31l-1,.91V63.8l1.32-1.33h1.21v7.18H52.75Z" fill="#221f1f"/><path d="M55.24,66.91a5.42,5.42,0,0,1,2-4.38H59v.09A5.43,5.43,0,0,0,57,65.45a1.21,1.21,0,0,1,1-.48c.85,0,1.55.71,1.55,2.27s-.82,2.55-2.1,2.55S55.24,68.86,55.24,66.91Zm2.71.32c0-.93-.26-1.15-.59-1.15a.74.74,0,0,0-.56.31c0,.19,0,.38,0,.58,0,1.31.23,1.64.59,1.64S57.94,68.22,57.94,67.23Z" fill="#221f1f"/><path d="M61.56,62.53h1.63v5.89h1.63v1.23H61.56Z" fill="#221f1f"/><path d="M67.45,69.17a1,1,0,0,1-1,.59c-.88,0-1.26-.79-1.26-1.64,0-1.07.59-1.66,1.4-1.66a1.1,1.1,0,0,1,.83.31v-.47a.68.68,0,0,0-.76-.73,1.82,1.82,0,0,0-1,.26l-.3-1.1A3,3,0,0,1,67,64.36a1.7,1.7,0,0,1,1.95,1.9v3.38H67.45Zm0-.56V67.49a.59.59,0,0,0-.36-.12c-.26,0-.44.21-.44.68s.15.71.44.71A.54.54,0,0,0,67.45,68.61Z" fill="#221f1f"/><path d="M75.06,69.47a2.28,2.28,0,0,1-1.24.29c-1.81,0-2.93-1.18-2.93-3.59s1.25-3.75,2.89-3.75a2.48,2.48,0,0,1,1.28.27l-.36,1.21a2,2,0,0,0-.81-.16c-.89,0-1.36.87-1.36,2.42s.48,2.3,1.39,2.3a1.76,1.76,0,0,0,.78-.18Z" fill="#221f1f"/><path d="M77.64,69.17a1,1,0,0,1-1,.59c-.88,0-1.26-.79-1.26-1.64,0-1.07.59-1.66,1.4-1.66a1.1,1.1,0,0,1,.83.31v-.47a.68.68,0,0,0-.76-.73,1.82,1.82,0,0,0-1,.26l-.3-1.1a3,3,0,0,1,1.56-.37,1.7,1.7,0,0,1,1.95,1.9v3.38H77.64Zm0-.56V67.49a.59.59,0,0,0-.36-.12c-.26,0-.44.21-.44.68s.15.71.44.71A.54.54,0,0,0,77.64,68.61Z" fill="#221f1f"/><path d="M79.87,69.65V64.52h1.49v.6a1.35,1.35,0,0,1,1.17-.76,1,1,0,0,1,1.1.9,1.46,1.46,0,0,1,1.28-.9c.85,0,1.22.59,1.22,1.61v3.68H84.64V66.13c0-.34-.1-.5-.38-.5a.56.56,0,0,0-.51.38v3.64H82.25V66.13c0-.34-.1-.5-.38-.5a.56.56,0,0,0-.51.38v3.64Z" fill="#221f1f"/><path d="M88.88,69.17a1,1,0,0,1-1,.59c-.88,0-1.26-.79-1.26-1.64,0-1.07.59-1.66,1.4-1.66a1.1,1.1,0,0,1,.83.31v-.47a.68.68,0,0,0-.76-.73,1.82,1.82,0,0,0-1,.26l-.3-1.1a3,3,0,0,1,1.56-.37,1.7,1.7,0,0,1,1.95,1.9v3.38H88.88Zm0-.56V67.49a.59.59,0,0,0-.36-.12c-.26,0-.44.21-.44.68s.15.71.44.71A.54.54,0,0,0,88.88,68.61Z" fill="#221f1f"/><path d="M91.11,69.65V64.52h1.5v.91a1.52,1.52,0,0,1,1.25-1v1.63c-.29,0-1-.09-1.25.36v3.2Z" fill="#221f1f"/><path d="M96.4,69.79c-1.27,0-2.19-.93-2.19-2.67s.91-2.76,2.19-2.76,2.19,1,2.19,2.76S97.67,69.79,96.4,69.79Zm0-1.2c.39,0,.67-.41.67-1.49s-.29-1.54-.67-1.54-.67.47-.67,1.54S96,68.59,96.4,68.59Z" fill="#221f1f"/><path d="M99.16,69.65V64.52h1.49v.63a1.47,1.47,0,0,1,1.27-.79c.88,0,1.26.59,1.26,1.61v3.68H101.7V66.13c0-.34-.15-.5-.45-.5a.66.66,0,0,0-.6.42v3.6Z" fill="#221f1f"/><path d="M106.19,69.74c-1.44,0-2.46-.79-2.46-2.72,0-1.7.9-2.66,2-2.66s1.85.6,1.85,2.27v.84h-2.4c.09.74.41,1.06,1.08,1.06a2.07,2.07,0,0,0,1-.24l.21,1.11A2.4,2.4,0,0,1,106.19,69.74Zm-1-3.26h1c0-.78-.16-1-.48-1S105.26,65.88,105.22,66.48Z" fill="#221f1f"/><path d="M108.2,69.65V64.52h1.5v.91a1.52,1.52,0,0,1,1.25-1v1.63c-.29,0-1-.09-1.25.36v3.2Z" fill="#221f1f"/><path d="M113.51,69.17a1,1,0,0,1-1,.59c-.88,0-1.26-.79-1.26-1.64,0-1.07.59-1.66,1.4-1.66a1.1,1.1,0,0,1,.83.31v-.47a.68.68,0,0,0-.76-.73,1.82,1.82,0,0,0-1,.26l-.3-1.1a3,3,0,0,1,1.56-.37,1.7,1.7,0,0,1,1.95,1.9v3.38h-1.49Zm0-.56V67.49a.59.59,0,0,0-.36-.12c-.26,0-.44.21-.44.68s.15.71.44.71A.54.54,0,0,0,113.51,68.61Z" fill="#221f1f"/><path d="M51.79,90.31a2,2,0,0,1,.93-1.7,2.27,2.27,0,0,1-.81-1.75,1.82,1.82,0,0,1,1.87-1.95,1.74,1.74,0,0,1,1.88,1.83,2,2,0,0,1-.81,1.65,2.13,2.13,0,0,1,.93,1.81,1.91,1.91,0,0,1-2,2.1A1.85,1.85,0,0,1,51.79,90.31Zm2.5,0a1.5,1.5,0,0,0-.67-1.17,1.66,1.66,0,0,0-.48,1.15c0,.5.22.84.59.84S54.29,90.8,54.29,90.3Zm-.36-2.48a1.45,1.45,0,0,0,.47-1c0-.39-.17-.71-.54-.71s-.54.33-.54.7A1.35,1.35,0,0,0,53.93,87.82Z" fill="#221f1f"/><path d="M58.87,89.41,57.34,85H59l.5,1.62.27,1.16h0l.29-1.16L60.54,85h1.41l-1.45,4.35v2.77H58.87Z" fill="#221f1f"/><path d="M64.32,91.67a1,1,0,0,1-1,.59c-.88,0-1.26-.79-1.26-1.64,0-1.07.59-1.66,1.4-1.66a1.1,1.1,0,0,1,.83.31v-.47a.68.68,0,0,0-.76-.73,1.82,1.82,0,0,0-1,.26l-.3-1.1a3,3,0,0,1,1.56-.37,1.7,1.7,0,0,1,1.95,1.9v3.38H64.32Zm0-.56V90a.59.59,0,0,0-.36-.12c-.26,0-.44.21-.44.68s.15.71.44.71A.54.54,0,0,0,64.32,91.11Z" fill="#221f1f"/><path d="M66.55,92.15V87h1.5v.91a1.52,1.52,0,0,1,1.25-1v1.63c-.29,0-1-.09-1.25.36v3.2Z" fill="#221f1f"/><path d="M72.46,91.55a1.25,1.25,0,0,1-1.13.72c-1,0-1.67-.85-1.67-2.67s.77-2.74,1.73-2.74a1.12,1.12,0,0,1,1.07.64V84.73H74v7.42H72.46Zm0-.88V88.39a.67.67,0,0,0-.59-.3c-.41,0-.7.46-.7,1.51s.28,1.45.69,1.45A.71.71,0,0,0,72.46,90.66Z" fill="#221f1f"/><path d="M76.22,91.59v.56H74.73V84.73h1.49v2.84a1.38,1.38,0,0,1,1.18-.71c1,0,1.63.85,1.63,2.67s-.77,2.74-1.71,2.74A1.18,1.18,0,0,1,76.22,91.59Zm1.29-2.05c0-1.06-.28-1.44-.69-1.44a.71.71,0,0,0-.6.38v2.27a.67.67,0,0,0,.59.3C77.22,91,77.51,90.59,77.51,89.53Z" fill="#221f1f"/><path d="M80.33,85a.82.82,0,1,1,0,1.64.82.82,0,1,1,0-1.64ZM79.58,87h1.49v5.12H79.58Z" fill="#221f1f"/><path d="M81.84,92.15V87h1.5v.91a1.52,1.52,0,0,1,1.25-1v1.63c-.29,0-1-.09-1.25.36v3.2Z" fill="#221f1f"/><path d="M87.75,91.55a1.25,1.25,0,0,1-1.13.72c-1,0-1.67-.85-1.67-2.67s.77-2.74,1.73-2.74a1.12,1.12,0,0,1,1.07.64V84.73h1.49v7.42H87.75Zm0-.88V88.39a.67.67,0,0,0-.59-.3c-.41,0-.7.46-.7,1.51s.28,1.45.69,1.45A.71.71,0,0,0,87.75,90.66Z" fill="#221f1f"/><path d="M52.25,111.06a5.65,5.65,0,0,0,2.06-2.81,1.23,1.23,0,0,1-.94.46c-.85,0-1.55-.71-1.55-2.27s.82-2.55,2.1-2.55,2.13.93,2.13,2.84a5.5,5.5,0,0,1-1.94,4.42H52.25Zm2.23-3.78c0-.19,0-.4,0-.62,0-1.27-.23-1.6-.59-1.6s-.58.39-.58,1.38.26,1.15.59,1.15A.71.71,0,0,0,54.49,107.28Z" fill="#221f1f"/><path d="M58.19,104h1.63v5.89h1.63v1.23H58.19Z" fill="#221f1f"/><path d="M64.06,111.29c-1.27,0-2.19-.93-2.19-2.67s.91-2.76,2.19-2.76,2.19,1,2.19,2.76S65.34,111.29,64.06,111.29Zm0-1.2c.39,0,.67-.41.67-1.49s-.29-1.54-.67-1.54-.67.47-.67,1.54S63.67,110.09,64.06,110.09Z" fill="#221f1f"/><path d="M66.82,111.15v-7.42h1.5v4.5L69.44,106h1.43l-1.21,2.31,1.3,2.81H69.33l-1-2.31v2.31Z" fill="#221f1f"/><path d="M73.4,110.67a1,1,0,0,1-1,.59c-.88,0-1.26-.79-1.26-1.64,0-1.07.59-1.66,1.4-1.66a1.1,1.1,0,0,1,.83.31v-.47a.68.68,0,0,0-.76-.73,1.82,1.82,0,0,0-1,.26l-.3-1.1a3,3,0,0,1,1.56-.37,1.7,1.7,0,0,1,1.95,1.9v3.38H73.4Zm0-.56V109a.59.59,0,0,0-.36-.12c-.26,0-.44.21-.44.68s.15.71.44.71A.54.54,0,0,0,73.4,110.11Z" fill="#221f1f"/><path d="M75.64,103.73h1.5v7.42h-1.5Z" fill="#221f1f"/><path d="M51.67,133.49l.38-1.22a1.51,1.51,0,0,0,.77.18c.51,0,.9-.38.9-1.08s-.32-1.1-1-1.1a1.78,1.78,0,0,0-.66.12l0,0,.24-3.83h2.81v1.27H53.49l-.09,1.33a1.94,1.94,0,0,1,1.87,2.2,2.21,2.21,0,0,1-2.3,2.48A2.52,2.52,0,0,1,51.67,133.49Z" fill="#221f1f"/><path d="M57.43,126.53h1.63v5.89h1.63v1.23H57.43Z" fill="#221f1f"/><path d="M63.77,133.11a1.39,1.39,0,0,1-1.19.69c-.88,0-1.3-.58-1.3-1.6v-3.68h1.49V132c0,.34.15.5.45.5a.64.64,0,0,0,.55-.33v-3.69h1.49v5.12H63.77Z" fill="#221f1f"/><path d="M66,133.65v-5.12h1.49v.63a1.47,1.47,0,0,1,1.27-.79c.88,0,1.26.59,1.26,1.61v3.68H68.57v-3.52c0-.34-.15-.5-.45-.5a.66.66,0,0,0-.6.42v3.6Z" fill="#221f1f"/><path d="M72.51,135.56c-1.25,0-2-.42-2-1.16a1,1,0,0,1,.67-.9,1,1,0,0,1-.38-.79,1.33,1.33,0,0,1,.68-1.18,1.54,1.54,0,0,1-.72-1.41,1.7,1.7,0,0,1,1.82-1.76,1.9,1.9,0,0,1,1.2.41,1.48,1.48,0,0,1,1.1-.37v1.06a2.08,2.08,0,0,0-.63.07,1.32,1.32,0,0,1,.11.63,1.65,1.65,0,0,1-1.8,1.65,2.48,2.48,0,0,1-.46,0,.47.47,0,0,0-.14.32c0,.18.13.29.38.29h.89c1,0,1.57.47,1.57,1.44S74.12,135.56,72.51,135.56Zm.87-1.47c0-.2-.14-.37-.44-.37h-1a.5.5,0,0,0-.15.37c0,.32.22.52.78.52S73.37,134.39,73.37,134.09Zm-.86-3.18c.25,0,.46-.19.46-.78s-.21-.81-.46-.81-.45.21-.45.81S72.29,130.9,72.52,130.9Z" fill="#221f1f"/><path d="M77.81,130.91l-1.53-4.38h1.64l.5,1.62.27,1.16h0l.29-1.16.48-1.62h1.41l-1.45,4.35v2.77H77.81Z" fill="#221f1f"/><path d="M83.25,133.17a1,1,0,0,1-1,.59c-.88,0-1.26-.79-1.26-1.64,0-1.07.59-1.66,1.4-1.66a1.1,1.1,0,0,1,.83.31v-.47a.68.68,0,0,0-.76-.73,1.82,1.82,0,0,0-1,.26l-.3-1.1a3,3,0,0,1,1.56-.37,1.7,1.7,0,0,1,1.95,1.9v3.38H83.25Zm0-.56v-1.12a.59.59,0,0,0-.36-.12c-.26,0-.44.21-.44.68s.15.71.44.71A.54.54,0,0,0,83.25,132.61Z" fill="#221f1f"/><path d="M86.21,126.45a.82.82,0,1,1,0,1.64.82.82,0,1,1,0-1.64Zm-.75,2.07H87v5.12H85.46Z" fill="#221f1f"/><path d="M52.63,147.31l-.85.91V146.8L53,145.47H54v7.18H52.63Z" fill="#221f1f"/><path d="M54.48,152.65v-1l1.06-2.13a4.62,4.62,0,0,0,.59-2c0-.47-.21-.79-.68-.79a1.41,1.41,0,0,0-.73.23l-.27-1.22a2.19,2.19,0,0,1,1.27-.33c1.33,0,1.87.83,1.87,2a6.84,6.84,0,0,1-1.05,3l-.52,1h1.55v1.25Z" fill="#221f1f"/><path d="M58.8,145.53h2c1,0,1.79.7,1.79,2.18a2.13,2.13,0,0,1-.82,1.83l1,3.12H61.25l-.85-2.72h-.16v2.72H58.8Zm1.44,1.2v2.11h.27c.5,0,.66-.42.66-1.08s-.16-1-.64-1Z" fill="#221f1f"/><path d="M63.52,145.45a.76.76,0,0,1,.75.82.75.75,0,1,1-.75-.82Zm-.67,2.07h1.34v5.12H62.85Z" fill="#221f1f"/><path d="M64.54,152.65v-5.12h1.34v.63a1.32,1.32,0,0,1,1.15-.79c.79,0,1.14.59,1.14,1.61v3.68H66.82v-3.52c0-.34-.14-.5-.4-.5a.6.6,0,0,0-.54.42v3.6Z" fill="#221f1f"/><path d="M71.32,152.48a1.56,1.56,0,0,1-.92.27c-1.27,0-2.08-.87-2.08-2.63s.87-2.7,2.09-2.7a1.82,1.82,0,0,1,.93.22L71,148.82a1,1,0,0,0-.54-.15c-.5,0-.81.51-.81,1.43s.26,1.41.83,1.41a1,1,0,0,0,.54-.15Z" fill="#221f1f"/><path d="M73.25,152.79c-1.15,0-2-.93-2-2.67s.82-2.76,2-2.76,2,1,2,2.76S74.39,152.79,73.25,152.79Zm0-1.2c.35,0,.61-.41.61-1.49s-.26-1.54-.61-1.54-.61.47-.61,1.54S72.9,151.59,73.25,151.59Z" fill="#221f1f"/><path d="M75.4,152.65v-5.12h1.34v.63a1.32,1.32,0,0,1,1.15-.79c.79,0,1.14.59,1.14,1.61v3.68H77.68v-3.52c0-.34-.14-.5-.4-.5a.6.6,0,0,0-.54.42v3.6Z" fill="#221f1f"/><path d="M82.17,152.48a1.56,1.56,0,0,1-.92.27c-1.27,0-2.08-.87-2.08-2.63s.87-2.7,2.09-2.7a1.82,1.82,0,0,1,.93.22l-.32,1.19a1,1,0,0,0-.54-.15c-.5,0-.81.51-.81,1.43s.26,1.41.83,1.41a1,1,0,0,0,.54-.15Z" fill="#221f1f"/><path d="M83,145.45a.76.76,0,0,1,.75.82.75.75,0,1,1-.75-.82Zm-.68,2.07h1.34v5.12H82.3Z" fill="#221f1f"/><path d="M84.15,151.19v-2.56h-.38v-1.11h.38V146H85.5v1.5h.63v1.11H85.5v2.42c0,.36.2.44.38.44a.68.68,0,0,0,.25,0v1.18a1.72,1.72,0,0,1-.5.08C84.68,152.71,84.15,152.27,84.15,151.19Z" fill="#221f1f"/><path d="M88.12,152.79c-1.15,0-2-.93-2-2.67s.82-2.76,2-2.76,2,1,2,2.76S89.26,152.79,88.12,152.79Zm0-1.2c.35,0,.61-.41.61-1.49s-.26-1.54-.61-1.54-.61.47-.61,1.54S87.77,151.59,88.12,151.59Z" fill="#221f1f"/><path d="M91.09,152.65l.44-7.12H93l.58,3,.15,1.09h0l.19-1.09.64-3h1.34l.44,7.12H94.93l-.13-2.83v-1.48h0l-.22,1.48L94,152.65h-.83l-.52-2.83-.19-1.48h0l0,1.48-.15,2.83Z" fill="#221f1f"/><path d="M98.66,152.74c-1.3,0-2.21-.79-2.21-2.72,0-1.7.81-2.66,1.83-2.66s1.67.6,1.67,2.27v.84H97.79c.08.74.37,1.06,1,1.06a1.7,1.7,0,0,0,.9-.24l.19,1.11A2,2,0,0,1,98.66,152.74Zm-.87-3.26h.94c0-.78-.15-1-.44-1S97.82,148.88,97.79,149.48Z" fill="#221f1f"/><path d="M99.81,152.65,101,150l-1.09-2.49h1.41l.36.87.21.72h0l.21-.72.32-.87h1.2L102.52,150l1.12,2.6h-1.41l-.38-.92-.21-.77h0l-.24.77-.36.92Z" fill="#221f1f"/><path d="M104.35,145.45a.76.76,0,0,1,.75.82.75.75,0,1,1-.75-.82Zm-.67,2.07H105v5.12h-1.34Z" fill="#221f1f"/><path d="M108.19,152.48a1.56,1.56,0,0,1-.92.27c-1.27,0-2.08-.87-2.08-2.63s.87-2.7,2.09-2.7a1.83,1.83,0,0,1,.93.22l-.32,1.19a1,1,0,0,0-.54-.15c-.5,0-.81.51-.81,1.43s.27,1.41.83,1.41a1,1,0,0,0,.54-.15Z" fill="#221f1f"/><path d="M110.14,152.17a.9.9,0,0,1-.86.59c-.79,0-1.14-.79-1.14-1.64,0-1.07.53-1.66,1.26-1.66a.94.94,0,0,1,.74.31v-.47a.64.64,0,0,0-.68-.73,1.51,1.51,0,0,0-.85.26l-.27-1.1a2.46,2.46,0,0,1,1.4-.37c1.23,0,1.75.7,1.75,1.9v3.38h-1.34Zm0-.56v-1.12a.5.5,0,0,0-.32-.12c-.23,0-.39.21-.39.68s.14.71.39.71A.46.46,0,0,0,110.14,151.61Z" fill="#221f1f"/><path d="M111.81,152.65v-5.12h1.34v.63a1.32,1.32,0,0,1,1.15-.79c.79,0,1.14.59,1.14,1.61v3.68h-1.34v-3.52c0-.34-.14-.5-.4-.5a.6.6,0,0,0-.54.42v3.6Z" fill="#221f1f"/><path d="M117.55,152.79c-1.15,0-2-.93-2-2.67s.82-2.76,2-2.76,2,1,2,2.76S118.69,152.79,117.55,152.79Zm0-1.2c.35,0,.61-.41.61-1.49s-.26-1.54-.61-1.54-.61.47-.61,1.54S117.19,151.59,117.55,151.59Z" fill="#221f1f"/><path d="M55.34,173.67v1.47H53.9v-1.47H51.77v-.93L53.38,168h2v4.54h.55v1.1Zm-1.44-1.1v-2.12l0-1.12h0l-.27,1.06-.72,2.18Z" fill="#221f1f"/><path d="M57.89,168h3.42v1.21H59.51v1.83h1.61v1.22H59.51v2.86H57.89Z" fill="#221f1f"/><path d="M62.74,168a.82.82,0,1,1,0,1.64.82.82,0,1,1,0-1.64ZM62,170h1.49v5.12H62Z" fill="#221f1f"/><path d="M64.25,175.15V170h1.49v.63a1.47,1.47,0,0,1,1.27-.79c.88,0,1.26.59,1.26,1.61v3.68H66.79v-3.52c0-.34-.15-.5-.45-.5a.66.66,0,0,0-.6.42v3.6Z" fill="#221f1f"/><path d="M69,175.15v-7.42h1.5v4.5L71.63,170h1.43l-1.21,2.31,1.3,2.81H71.53l-1-2.31v2.31Z" fill="#221f1f"/><path d="M75.59,174.67a1,1,0,0,1-1,.59c-.88,0-1.26-.79-1.26-1.64,0-1.07.59-1.66,1.4-1.66a1.1,1.1,0,0,1,.83.31v-.47a.68.68,0,0,0-.76-.73,1.82,1.82,0,0,0-1,.26l-.3-1.1a3,3,0,0,1,1.56-.37,1.7,1.7,0,0,1,1.95,1.9v3.38H75.59Zm0-.56V173a.59.59,0,0,0-.36-.12c-.26,0-.44.21-.44.68s.15.71.44.71A.54.54,0,0,0,75.59,174.11Z" fill="#221f1f"/><path d="M52.75,188.81l-1,.91V188.3L53.12,187h1.21v7.18H52.75Z" fill="#221f1f"/><path d="M55,194l.35-1.23a1.86,1.86,0,0,0,.91.24.82.82,0,0,0,.86-.91c0-.53-.19-.94-.84-.94H56v-1.2h.31a.78.78,0,0,0,.83-.87c0-.54-.27-.83-.87-.83a1.68,1.68,0,0,0-.81.23l-.33-1.18a2.68,2.68,0,0,1,1.42-.35,1.82,1.82,0,0,1,2,2,1.54,1.54,0,0,1-1,1.53,1.67,1.67,0,0,1,1.08,1.73,2,2,0,0,1-2.16,2.13A2.8,2.8,0,0,1,55,194Z" fill="#221f1f"/><path d="M60.5,192.88a1.42,1.42,0,0,0,.39.06c.39,0,.55-.23.55-.74V187h1.62v5.16c0,1.2-.51,2.07-1.79,2.07a3,3,0,0,1-.94-.12Z" fill="#221f1f"/><path d="M63.88,194.15V189h1.5v.91a1.52,1.52,0,0,1,1.25-1v1.63c-.29,0-1-.09-1.25.36v3.2Z" fill="#221f1f"/><path d="M67,189.2a3.28,3.28,0,0,0,.58-.85.71.71,0,0,1-.6-.68.74.74,0,0,1,.75-.73.77.77,0,0,1,.75.86,2.6,2.6,0,0,1-1,1.74Z" fill="#221f1f"/><path d="M70.71,190.05c-.33,0-.49.11-.49.3s.12.29.33.41a8.28,8.28,0,0,1,1,.56,1.55,1.55,0,0,1,.63,1.29,1.62,1.62,0,0,1-1.83,1.65,2.55,2.55,0,0,1-1.5-.39l.36-1.07a2,2,0,0,0,1.06.32c.44,0,.53-.19.53-.41s-.1-.25-.27-.35a6.74,6.74,0,0,1-1-.62,1.46,1.46,0,0,1-.54-1.23,1.52,1.52,0,0,1,1.72-1.61,2.82,2.82,0,0,1,1.41.32l-.33,1.09A2,2,0,0,0,70.71,190.05Z" fill="#221f1f"/><path d="M76.75,194.29c-1.72,0-2.81-1.1-2.81-3.64s1.23-3.73,2.93-3.73a3.3,3.3,0,0,1,1.5.29L78,188.48a2.09,2.09,0,0,0-.93-.21c-.93,0-1.46.73-1.46,2.36s.28,2.35,1.21,2.35H77v-1.62h-.58V190.1h2.1v3.75A3.2,3.2,0,0,1,76.75,194.29Z" fill="#221f1f"/><path d="M81.34,194.29c-1.27,0-2.19-.93-2.19-2.67s.91-2.76,2.19-2.76,2.19,1,2.19,2.76S82.62,194.29,81.34,194.29Zm0-1.2c.39,0,.67-.41.67-1.49s-.29-1.54-.67-1.54-.67.47-.67,1.54S81,193.09,81.34,193.09Z" fill="#221f1f"/><path d="M86.56,193.61a1.39,1.39,0,0,1-1.19.69c-.88,0-1.3-.58-1.3-1.6V189h1.49v3.52c0,.34.15.5.45.5a.64.64,0,0,0,.55-.33V189h1.49v5.12H86.56Z" fill="#221f1f"/><path d="M88.83,194.15V189h1.5v.91a1.52,1.52,0,0,1,1.25-1v1.63c-.29,0-1-.09-1.25.36v3.2Z" fill="#221f1f"/><path d="M92.13,194.15V189h1.49v.6a1.35,1.35,0,0,1,1.17-.76,1,1,0,0,1,1.1.9,1.46,1.46,0,0,1,1.28-.9c.85,0,1.22.59,1.22,1.61v3.68H96.9v-3.52c0-.34-.1-.5-.38-.5a.56.56,0,0,0-.51.38v3.64H94.52v-3.52c0-.34-.1-.5-.38-.5a.56.56,0,0,0-.51.38v3.64Z" fill="#221f1f"/><path d="M101.4,194.24c-1.44,0-2.46-.79-2.46-2.72,0-1.7.9-2.66,2-2.66s1.85.6,1.85,2.27V192h-2.4c.09.74.41,1.06,1.08,1.06a2.07,2.07,0,0,0,1-.24l.21,1.11A2.4,2.4,0,0,1,101.4,194.24Zm-1-3.26h1c0-.78-.16-1-.48-1S100.46,190.38,100.43,191Z" fill="#221f1f"/><path d="M103.57,192.69v-2.56h-.42V189h.42v-1.5h1.5V189h.7v1.11h-.7v2.42a.38.38,0,0,0,.43.44.83.83,0,0,0,.28,0v1.18a2.11,2.11,0,0,1-.56.08C104.16,194.21,103.57,193.77,103.57,192.69Z" fill="#221f1f"/><path d="M51.86,213.91a5.42,5.42,0,0,1,2-4.38h1.82v.09a5.43,5.43,0,0,0-2.07,2.83,1.21,1.21,0,0,1,1-.48c.85,0,1.55.71,1.55,2.27s-.82,2.55-2.1,2.55S51.86,215.86,51.86,213.91Zm2.71.32c0-.93-.26-1.15-.59-1.15a.74.74,0,0,0-.56.31c0,.19,0,.38,0,.58,0,1.31.23,1.64.59,1.64S54.57,215.22,54.57,214.23Z" fill="#221f1f"/><path d="M58.19,209.53h2a2.31,2.31,0,0,1,0,4.6H59.8v2.52H58.19Zm1.61,1.2V213h.29c.54,0,.74-.39.74-1.14s-.2-1.13-.74-1.13Z" fill="#221f1f"/><path d="M63.66,209.45a.82.82,0,1,1,0,1.64.82.82,0,1,1,0-1.64Zm-.75,2.07H64.4v5.12H62.91Z" fill="#221f1f"/><path d="M65.17,216.65v-5.12h1.49v.63a1.47,1.47,0,0,1,1.27-.79c.88,0,1.26.59,1.26,1.61v3.68H67.71v-3.52c0-.34-.15-.5-.45-.5a.66.66,0,0,0-.6.42v3.6Z" fill="#221f1f"/><path d="M73.09,216.48a1.88,1.88,0,0,1-1,.27c-1.42,0-2.31-.87-2.31-2.63s1-2.7,2.33-2.7a2.22,2.22,0,0,1,1,.22l-.35,1.19a1.18,1.18,0,0,0-.6-.15c-.55,0-.9.51-.9,1.43s.29,1.41.92,1.41a1.21,1.21,0,0,0,.6-.15Z" fill="#221f1f"/><path d="M73.63,216.65v-7.42h1.49v2.92a1.47,1.47,0,0,1,1.27-.79c.88,0,1.26.59,1.26,1.61v3.68H76.16v-3.52c0-.34-.15-.5-.45-.5a.66.66,0,0,0-.6.42v3.6Z" fill="#221f1f"/><path d="M79.85,216.65v-7.12h1.62v3.12l1.37-3.12h1.52l-1.44,3.24,1.6,3.88H82.82l-1.36-3.24v3.24Z" fill="#221f1f"/><path d="M85.67,209.45a.82.82,0,1,1,0,1.64.82.82,0,1,1,0-1.64Zm-.75,2.07h1.49v5.12H84.92Z" fill="#221f1f"/><path d="M87.35,215.19v-2.56h-.42v-1.11h.42V210h1.5v1.5h.7v1.11h-.7v2.42a.38.38,0,0,0,.43.44.83.83,0,0,0,.28,0v1.18a2.11,2.11,0,0,1-.56.08C87.94,216.71,87.35,216.27,87.35,215.19Z" fill="#221f1f"/><path d="M93.3,216.48a1.88,1.88,0,0,1-1,.27c-1.42,0-2.31-.87-2.31-2.63s1-2.7,2.33-2.7a2.22,2.22,0,0,1,1,.22L93,212.82a1.18,1.18,0,0,0-.6-.15c-.55,0-.9.51-.9,1.43s.29,1.41.92,1.41a1.21,1.21,0,0,0,.6-.15Z" fill="#221f1f"/><path d="M93.84,216.65v-7.42h1.49v2.92a1.47,1.47,0,0,1,1.27-.79c.88,0,1.26.59,1.26,1.61v3.68H96.38v-3.52c0-.34-.15-.5-.45-.5a.66.66,0,0,0-.6.42v3.6Z" fill="#221f1f"/><path d="M100.87,216.74c-1.44,0-2.46-.79-2.46-2.72,0-1.7.9-2.66,2-2.66s1.85.6,1.85,2.27v.84H99.9c.09.74.41,1.06,1.08,1.06a2.07,2.07,0,0,0,1-.24l.21,1.11A2.4,2.4,0,0,1,100.87,216.74Zm-1-3.26h1c0-.78-.16-1-.48-1S99.94,212.88,99.9,213.48Z" fill="#221f1f"/><path d="M102.88,216.65v-5.12h1.49v.63a1.47,1.47,0,0,1,1.27-.79c.88,0,1.26.59,1.26,1.61v3.68h-1.49v-3.52c0-.34-.15-.5-.45-.5a.66.66,0,0,0-.6.42v3.6Z" fill="#221f1f"/><path d="M52.75,230.31l-1,.91V229.8l1.32-1.33h1.21v7.18H52.75Z" fill="#221f1f"/><path d="M56.12,230.31l-1,.91V229.8l1.32-1.33H57.7v7.18H56.12Z" fill="#221f1f"/><path d="M60.16,228.53h2a2.31,2.31,0,0,1,0,4.6h-.43v2.52H60.16Zm1.61,1.2V232h.29c.54,0,.74-.39.74-1.14s-.2-1.13-.74-1.13Z" fill="#221f1f"/><path d="M65.63,228.45a.82.82,0,1,1,0,1.64.82.82,0,1,1,0-1.64Zm-.75,2.07h1.49v5.12H64.88Z" fill="#221f1f"/><path d="M67.14,235.65v-5.12h1.49v.63a1.47,1.47,0,0,1,1.27-.79c.88,0,1.26.59,1.26,1.61v3.68H69.68v-3.52c0-.34-.15-.5-.45-.5a.66.66,0,0,0-.6.42v3.6Z" fill="#221f1f"/><path d="M75.05,235.48a1.88,1.88,0,0,1-1,.27c-1.42,0-2.31-.87-2.31-2.63s1-2.7,2.33-2.7a2.22,2.22,0,0,1,1,.22l-.35,1.19a1.18,1.18,0,0,0-.6-.15c-.55,0-.9.51-.9,1.43s.29,1.41.92,1.41a1.21,1.21,0,0,0,.6-.15Z" fill="#221f1f"/><path d="M75.59,235.65v-7.42h1.49v2.92a1.47,1.47,0,0,1,1.27-.79c.88,0,1.26.59,1.26,1.61v3.68H78.13v-3.52c0-.34-.15-.5-.45-.5a.66.66,0,0,0-.6.42v3.6Z" fill="#221f1f"/><path d="M82.35,235.79c-1.27,0-2.19-.93-2.19-2.67s.91-2.76,2.19-2.76,2.19,1,2.19,2.76S83.62,235.79,82.35,235.79Zm0-1.2c.39,0,.67-.41.67-1.49s-.29-1.54-.67-1.54-.67.47-.67,1.54S82,234.59,82.35,234.59Z" fill="#221f1f"/><path d="M86.57,228.53H90v1.21H88.18v1.83h1.61v1.22H88.18v2.86H86.57Z" fill="#221f1f"/><path d="M92.68,235.17a1,1,0,0,1-1,.59c-.88,0-1.26-.79-1.26-1.64,0-1.07.59-1.66,1.4-1.66a1.1,1.1,0,0,1,.83.31v-.47a.68.68,0,0,0-.76-.73,1.82,1.82,0,0,0-1,.26l-.3-1.1a3,3,0,0,1,1.56-.37,1.7,1.7,0,0,1,1.95,1.9v3.38H92.68Zm0-.56v-1.12a.59.59,0,0,0-.36-.12c-.26,0-.44.21-.44.68s.15.71.44.71A.54.54,0,0,0,92.68,234.61Z" fill="#221f1f"/><path d="M98.06,235.48a1.88,1.88,0,0,1-1,.27c-1.42,0-2.31-.87-2.31-2.63s1-2.7,2.33-2.7a2.22,2.22,0,0,1,1,.22l-.35,1.19a1.18,1.18,0,0,0-.6-.15c-.55,0-.9.51-.9,1.43s.29,1.41.92,1.41a1.21,1.21,0,0,0,.6-.15Z" fill="#221f1f"/><path d="M98.77,234.19v-2.56h-.42v-1.11h.42V229h1.5v1.5h.7v1.11h-.7v2.42a.38.38,0,0,0,.43.44.83.83,0,0,0,.28,0v1.18a2.11,2.11,0,0,1-.56.08C99.36,235.71,98.77,235.27,98.77,234.19Z" fill="#221f1f"/><path d="M103.56,235.79c-1.27,0-2.19-.93-2.19-2.67s.91-2.76,2.19-2.76,2.19,1,2.19,2.76S104.84,235.79,103.56,235.79Zm0-1.2c.39,0,.67-.41.67-1.49s-.29-1.54-.67-1.54-.67.47-.67,1.54S103.17,234.59,103.56,234.59Z" fill="#221f1f"/><path d="M106.33,235.65v-5.12h1.5v.91a1.52,1.52,0,0,1,1.25-1v1.63c-.29,0-1-.09-1.25.36v3.2Z" fill="#221f1f"/><path d="M110.77,235.75l-1.47-5.23h1.51l.39,1.62.29,1.59h0l.31-1.59.4-1.62h1.34l-2,6.94H110.3Z" fill="#221f1f"/><path d="M51.62,258l.35-1.23a1.86,1.86,0,0,0,.91.24.82.82,0,0,0,.86-.91c0-.53-.19-.94-.84-.94h-.31v-1.2h.31a.78.78,0,0,0,.83-.87c0-.54-.27-.83-.87-.83a1.68,1.68,0,0,0-.81.23l-.33-1.18a2.68,2.68,0,0,1,1.42-.35,1.82,1.82,0,0,1,2,2,1.54,1.54,0,0,1-1,1.53,1.67,1.67,0,0,1,1.08,1.73,2,2,0,0,1-2.16,2.13A2.8,2.8,0,0,1,51.62,258Z" fill="#221f1f"/><path d="M57.1,258.15v-1l1.18-2.13a4.28,4.28,0,0,0,.66-2,.7.7,0,0,0-.75-.79,1.69,1.69,0,0,0-.82.23l-.29-1.22a2.64,2.64,0,0,1,1.42-.33,1.84,1.84,0,0,1,2.08,2,6.4,6.4,0,0,1-1.17,3l-.58,1h1.72v1.25Z" fill="#221f1f"/><path d="M61.35,258.15l1.5-5.87H61V251h3.45v1l-1.57,6.15Z" fill="#221f1f"/><path d="M66.54,251h2.19a1.92,1.92,0,0,1,2,2.18,2.06,2.06,0,0,1-.91,1.83l1.1,3.12H69.27l-.94-2.72h-.18v2.72H66.54Zm1.61,1.2v2.11h.3c.56,0,.73-.42.73-1.08s-.18-1-.71-1Z" fill="#221f1f"/><path d="M73.69,258.24c-1.44,0-2.46-.79-2.46-2.72,0-1.7.9-2.66,2-2.66s1.85.6,1.85,2.27V256h-2.4c.09.74.41,1.06,1.08,1.06a2.07,2.07,0,0,0,1-.24L75,257.9A2.4,2.4,0,0,1,73.69,258.24Zm-1-3.26h1c0-.78-.16-1-.48-1S72.76,254.38,72.73,255Z" fill="#221f1f"/><path d="M77.32,254.05c-.33,0-.49.11-.49.3s.12.29.33.41a8.28,8.28,0,0,1,1,.56,1.55,1.55,0,0,1,.63,1.29,1.62,1.62,0,0,1-1.83,1.65,2.55,2.55,0,0,1-1.5-.39l.36-1.07a2,2,0,0,0,1.06.32c.44,0,.53-.19.53-.41s-.1-.25-.27-.35a6.74,6.74,0,0,1-1-.62,1.46,1.46,0,0,1-.54-1.23,1.52,1.52,0,0,1,1.72-1.61,2.82,2.82,0,0,1,1.41.32l-.33,1.09A2,2,0,0,0,77.32,254.05Z" fill="#221f1f"/><path d="M79.48,256.69v-2.56h-.42V253h.42v-1.5H81V253h.7v1.11H81v2.42a.38.38,0,0,0,.43.44.83.83,0,0,0,.28,0v1.18a2.11,2.11,0,0,1-.56.08C80.07,258.21,79.48,257.77,79.48,256.69Z" fill="#221f1f"/><path d="M84.29,257.67a1,1,0,0,1-1,.59c-.88,0-1.26-.79-1.26-1.64,0-1.07.59-1.66,1.4-1.66a1.1,1.1,0,0,1,.83.31v-.47a.68.68,0,0,0-.76-.73,1.82,1.82,0,0,0-1,.26l-.3-1.1a3,3,0,0,1,1.56-.37,1.7,1.7,0,0,1,1.95,1.9v3.38H84.29Zm0-.56V256a.59.59,0,0,0-.36-.12c-.26,0-.44.21-.44.68s.15.71.44.71A.54.54,0,0,0,84.29,257.11Z" fill="#221f1f"/><path d="M89,257.61a1.39,1.39,0,0,1-1.19.69c-.88,0-1.3-.58-1.3-1.6V253H88v3.52c0,.34.15.5.45.5a.64.64,0,0,0,.55-.33V253h1.49v5.12H89Z" fill="#221f1f"/><path d="M91.24,258.15V253h1.5v.91a1.52,1.52,0,0,1,1.25-1v1.63c-.29,0-1-.09-1.25.36v3.2Z" fill="#221f1f"/><path d="M96.55,257.67a1,1,0,0,1-1,.59c-.88,0-1.26-.79-1.26-1.64,0-1.07.59-1.66,1.4-1.66a1.1,1.1,0,0,1,.83.31v-.47a.68.68,0,0,0-.76-.73,1.82,1.82,0,0,0-1,.26l-.3-1.1a3,3,0,0,1,1.56-.37,1.7,1.7,0,0,1,1.95,1.9v3.38H96.55Zm0-.56V256a.59.59,0,0,0-.36-.12c-.26,0-.44.21-.44.68s.15.71.44.71A.54.54,0,0,0,96.55,257.11Z" fill="#221f1f"/><path d="M98.78,258.15V253h1.49v.63a1.47,1.47,0,0,1,1.27-.79c.88,0,1.26.59,1.26,1.61v3.68h-1.49v-3.52c0-.34-.15-.5-.45-.5a.66.66,0,0,0-.6.42v3.6Z" fill="#221f1f"/><path d="M103.72,256.69v-2.56h-.42V253h.42v-1.5h1.5V253h.7v1.11h-.7v2.42a.38.38,0,0,0,.43.44.83.83,0,0,0,.28,0v1.18a2.11,2.11,0,0,1-.56.08C104.31,258.21,103.72,257.77,103.72,256.69Z" fill="#221f1f"/><path d="M52.75,271.81l-1,.91V271.3L53.12,270h1.21v7.18H52.75Z" fill="#221f1f"/><path d="M58.71,275.67v1.47H57.27v-1.47H55.14v-.93L56.76,270h2v4.54h.55v1.1Zm-1.44-1.1v-2.12l0-1.12h0L57,272.39l-.72,2.18Z" fill="#221f1f"/><path d="M60.89,270h1.64l.67,3.5.23,1.51h0l.22-1.51.64-3.5h1.44l-1.59,7.12H62.48Z" fill="#221f1f"/><path d="M68.48,277.24c-1.44,0-2.46-.79-2.46-2.72,0-1.7.9-2.66,2-2.66s1.85.6,1.85,2.27V275h-2.4c.09.74.41,1.06,1.08,1.06a2.07,2.07,0,0,0,1-.24l.21,1.11A2.4,2.4,0,0,1,68.48,277.24Zm-1-3.26h1c0-.78-.16-1-.48-1S67.55,273.38,67.51,274Z" fill="#221f1f"/><path d="M70.48,277.15V272H72v.91a1.52,1.52,0,0,1,1.25-1v1.63c-.29,0-1-.09-1.25.36v3.2Z" fill="#221f1f"/><path d="M75.41,273.05c-.33,0-.49.11-.49.3s.12.29.33.41a8.28,8.28,0,0,1,1,.56,1.55,1.55,0,0,1,.63,1.29A1.62,1.62,0,0,1,75,277.27a2.55,2.55,0,0,1-1.5-.39l.36-1.07a2,2,0,0,0,1.06.32c.44,0,.53-.19.53-.41s-.1-.25-.27-.35a6.74,6.74,0,0,1-1-.62,1.46,1.46,0,0,1-.54-1.23,1.52,1.52,0,0,1,1.72-1.61,2.82,2.82,0,0,1,1.41.32l-.33,1.09A2,2,0,0,0,75.41,273.05Z" fill="#221f1f"/><path d="M79.4,276.67a1,1,0,0,1-1,.59c-.88,0-1.26-.79-1.26-1.64,0-1.07.59-1.66,1.4-1.66a1.1,1.1,0,0,1,.83.31v-.47a.68.68,0,0,0-.76-.73,1.82,1.82,0,0,0-1,.26l-.3-1.1a3,3,0,0,1,1.56-.37,1.7,1.7,0,0,1,1.95,1.9v3.38H79.4Zm0-.56V275a.59.59,0,0,0-.36-.12c-.26,0-.44.21-.44.68s.15.71.44.71A.54.54,0,0,0,79.4,276.11Z" fill="#221f1f"/><path d="M82.37,270a.82.82,0,1,1,0,1.64.82.82,0,1,1,0-1.64ZM81.62,272h1.49v5.12H81.62Z" fill="#221f1f"/><path d="M83.89,269.73h1.5v7.42h-1.5Z" fill="#221f1f"/><path d="M86.19,269.73h1.5v7.42h-1.5Z" fill="#221f1f"/><path d="M90.74,277.24c-1.44,0-2.46-.79-2.46-2.72,0-1.7.9-2.66,2-2.66s1.85.6,1.85,2.27V275h-2.4c.09.74.41,1.06,1.08,1.06a2.07,2.07,0,0,0,1-.24l.21,1.11A2.4,2.4,0,0,1,90.74,277.24Zm-1-3.26h1c0-.78-.16-1-.48-1S89.81,273.38,89.77,274Z" fill="#221f1f"/><path d="M94.37,273.05c-.33,0-.49.11-.49.3s.12.29.33.41a8.28,8.28,0,0,1,1,.56,1.55,1.55,0,0,1,.63,1.29A1.62,1.62,0,0,1,94,277.27a2.55,2.55,0,0,1-1.5-.39l.36-1.07a2,2,0,0,0,1.06.32c.44,0,.53-.19.53-.41s-.1-.25-.27-.35a6.74,6.74,0,0,1-1-.62,1.46,1.46,0,0,1-.54-1.23,1.52,1.52,0,0,1,1.72-1.61,2.82,2.82,0,0,1,1.41.32l-.33,1.09A2,2,0,0,0,94.37,273.05Z" fill="#221f1f"/><path d="M52.1,299.65l1.5-5.87H51.79v-1.25h3.45v1l-1.57,6.15Z" fill="#221f1f"/><path d="M60.05,298.4H58.51l-.26,1.25H56.89l1.65-7.12h1.71l1.64,7.12H60.3Zm-1.31-1.13h1.08l-.38-1.87-.14-1h0l-.16,1Z" fill="#221f1f"/><path d="M62.37,299.65v-5.12h1.5v.91a1.52,1.52,0,0,1,1.25-1v1.63c-.29,0-1-.09-1.25.36v3.2Z" fill="#221f1f"/><path d="M66.41,292.45a.82.82,0,1,1,0,1.64.82.82,0,1,1,0-1.64Zm-.75,2.07h1.49v5.12H65.66Z" fill="#221f1f"/><path d="M70.18,299.74c-1.44,0-2.46-.79-2.46-2.72,0-1.7.9-2.66,2-2.66s1.85.6,1.85,2.27v.84h-2.4c.09.74.41,1.06,1.08,1.06a2.07,2.07,0,0,0,1-.24l.21,1.11A2.4,2.4,0,0,1,70.18,299.74Zm-1-3.26h1c0-.78-.16-1-.48-1S69.25,295.88,69.21,296.48Z" fill="#221f1f"/><path d="M72.35,298.19v-2.56h-.42v-1.11h.42V293h1.5v1.5h.7v1.11h-.7v2.42a.38.38,0,0,0,.43.44.83.83,0,0,0,.28,0v1.18a2.11,2.11,0,0,1-.56.08C72.94,299.71,72.35,299.27,72.35,298.19Z" fill="#221f1f"/><path d="M77.42,299.74C76,299.74,75,299,75,297c0-1.7.9-2.66,2-2.66s1.85.6,1.85,2.27v.84h-2.4c.09.74.41,1.06,1.08,1.06a2.07,2.07,0,0,0,1-.24l.21,1.11A2.4,2.4,0,0,1,77.42,299.74Zm-1-3.26h1c0-.78-.16-1-.48-1S76.49,295.88,76.45,296.48Z" fill="#221f1f"/><path d="M52.62,313.31l-.85.91V312.8l1.17-1.33H54v7.18h-1.4Z" fill="#221f1f"/><path d="M56.85,318.81c-1.22,0-2-1-2-3.68s.83-3.76,2-3.76,2,1.11,2,3.76S58.07,318.81,56.85,318.81Zm0-1.31c.4,0,.58-.48.58-2.39s-.19-2.42-.58-2.42-.58.6-.58,2.42S56.45,317.5,56.85,317.5Z" fill="#221f1f"/><path d="M60.77,311.53h1.45v5.89h1.45v1.23H60.77Z" fill="#221f1f"/><path d="M66,318.17a.89.89,0,0,1-.85.59c-.79,0-1.12-.79-1.12-1.64,0-1.07.52-1.66,1.24-1.66a.92.92,0,0,1,.74.31v-.47a.64.64,0,0,0-.68-.73,1.48,1.48,0,0,0-.85.26l-.27-1.1a2.42,2.42,0,0,1,1.39-.37c1.22,0,1.73.7,1.73,1.9v3.38H66Zm0-.56v-1.12a.49.49,0,0,0-.32-.12c-.23,0-.39.21-.39.68s.13.71.39.71A.45.45,0,0,0,66,317.61Z" fill="#221f1f"/><path d="M69.3,311.53h3v1.21H70.73v1.83h1.43v1.22H70.73v2.86H69.3Z" fill="#221f1f"/><path d="M73,318.65v-5.12h1.34v.91c.21-.49.58-1,1.12-1v1.63c-.26,0-.88-.09-1.12.36v3.2Z" fill="#221f1f"/><path d="M77.68,318.17a.89.89,0,0,1-.85.59c-.79,0-1.12-.79-1.12-1.64,0-1.07.52-1.66,1.24-1.66a.92.92,0,0,1,.74.31v-.47a.64.64,0,0,0-.68-.73,1.49,1.49,0,0,0-.85.26l-.27-1.1a2.42,2.42,0,0,1,1.39-.37c1.22,0,1.73.7,1.73,1.9v3.38H77.68Zm0-.56v-1.12a.49.49,0,0,0-.32-.12c-.23,0-.39.21-.39.68s.14.71.39.71A.45.45,0,0,0,77.68,317.61Z" fill="#221f1f"/><path d="M81.18,320.56c-1.11,0-1.8-.42-1.8-1.16a1,1,0,0,1,.59-.9,1,1,0,0,1-.34-.79,1.37,1.37,0,0,1,.6-1.18,1.8,1.8,0,0,1,1-3.17,1.58,1.58,0,0,1,1.06.41,1.23,1.23,0,0,1,1-.37v1.06a1.65,1.65,0,0,0-.56.07,1.47,1.47,0,0,1,.1.63,1.55,1.55,0,0,1-1.6,1.65,2,2,0,0,1-.41,0,.5.5,0,0,0-.13.32c0,.18.12.29.34.29h.79a1.28,1.28,0,0,1,1.39,1.44C83.2,319.83,82.62,320.56,81.18,320.56Zm.77-1.47a.36.36,0,0,0-.39-.37h-.9a.53.53,0,0,0-.14.37c0,.32.19.52.69.52S82,319.39,82,319.09Zm-.76-3.18c.22,0,.41-.19.41-.78s-.19-.81-.41-.81-.4.21-.4.81S81,315.9,81.19,315.9Z" fill="#221f1f"/><path d="M85.88,318.11a1.22,1.22,0,0,1-1.06.69c-.79,0-1.16-.58-1.16-1.6v-3.68H85V317c0,.34.14.5.4.5a.57.57,0,0,0,.49-.33v-3.69H87.2v5.12H85.88Z" fill="#221f1f"/><path d="M89.68,318.17a.89.89,0,0,1-.85.59c-.79,0-1.12-.79-1.12-1.64,0-1.07.52-1.66,1.24-1.66a.92.92,0,0,1,.74.31v-.47a.64.64,0,0,0-.68-.73,1.48,1.48,0,0,0-.85.26l-.27-1.1a2.42,2.42,0,0,1,1.39-.37c1.22,0,1.73.7,1.73,1.9v3.38H89.68Zm0-.56v-1.12a.49.49,0,0,0-.32-.12c-.23,0-.39.21-.39.68s.13.71.39.71A.45.45,0,0,0,89.68,317.61Z" fill="#221f1f"/><path d="M51.81,341.15v-1L53,338.07a4.28,4.28,0,0,0,.66-2,.7.7,0,0,0-.75-.79,1.69,1.69,0,0,0-.82.23l-.29-1.22a2.64,2.64,0,0,1,1.42-.33,1.84,1.84,0,0,1,2.08,2,6.4,6.4,0,0,1-1.17,3l-.58,1h1.72v1.25Z" fill="#221f1f"/><path d="M57.37,334h2a2.31,2.31,0,0,1,0,4.6H59v2.52H57.37Zm1.61,1.2v2.27h.29c.54,0,.74-.39.74-1.14s-.2-1.13-.74-1.13Z" fill="#221f1f"/><path d="M64.57,340.61a1.39,1.39,0,0,1-1.19.69c-.88,0-1.3-.58-1.3-1.6V336h1.49v3.52c0,.34.15.5.45.5a.64.64,0,0,0,.55-.33V336h1.49v5.12H64.57Z" fill="#221f1f"/><path d="M68.33,340.59v.56H66.83v-7.42h1.49v2.84a1.38,1.38,0,0,1,1.18-.71c1,0,1.63.85,1.63,2.67s-.77,2.74-1.71,2.74A1.18,1.18,0,0,1,68.33,340.59Zm1.29-2.05c0-1.06-.28-1.44-.69-1.44a.71.71,0,0,0-.6.38v2.27a.67.67,0,0,0,.59.3C69.32,340,69.62,339.59,69.62,338.53Z" fill="#221f1f"/><path d="M73.2,340.59v.56H71.71v-7.42H73.2v2.84a1.38,1.38,0,0,1,1.18-.71c1,0,1.63.85,1.63,2.67s-.77,2.74-1.71,2.74A1.18,1.18,0,0,1,73.2,340.59Zm1.29-2.05c0-1.06-.28-1.44-.69-1.44a.71.71,0,0,0-.6.38v2.27a.67.67,0,0,0,.59.3C74.2,340,74.49,339.59,74.49,338.53Z" fill="#221f1f"/><path d="M78.84,341.24c-1.44,0-2.46-.79-2.46-2.72,0-1.7.9-2.66,2-2.66s1.85.6,1.85,2.27V339h-2.4c.09.74.41,1.06,1.08,1.06a2.07,2.07,0,0,0,1-.24l.21,1.11A2.4,2.4,0,0,1,78.84,341.24Zm-1-3.26h1c0-.78-.16-1-.48-1S77.91,337.38,77.87,338Z" fill="#221f1f"/><path d="M80.86,333.73h1.5v7.42h-1.5Z" fill="#221f1f"/><path d="M83.15,333.73h1.5v7.42h-1.5Z" fill="#221f1f"/><path d="M86.58,341.25,85.11,336h1.51l.39,1.62.29,1.59h0l.31-1.59L88,336h1.34l-2,6.94H86.11Z" fill="#221f1f"/><path d="M52.75,354.81l-1,.91V354.3L53.12,353h1.21v7.18H52.75Z" fill="#221f1f"/><path d="M55,360l.38-1.22a1.51,1.51,0,0,0,.77.18c.51,0,.9-.38.9-1.08s-.32-1.1-1-1.1a1.78,1.78,0,0,0-.66.12l0,0,.24-3.83h2.81v1.27H56.86l-.09,1.33a1.94,1.94,0,0,1,1.87,2.2,2.21,2.21,0,0,1-2.3,2.48A2.52,2.52,0,0,1,55,360Z" fill="#221f1f"/><path d="M60.8,360.15V353h1.62v3.12L63.79,353h1.52l-1.44,3.24,1.6,3.88H63.78l-1.36-3.24v3.24Z" fill="#221f1f"/><path d="M68.16,360.24c-1.44,0-2.46-.79-2.46-2.72,0-1.7.9-2.66,2-2.66s1.85.6,1.85,2.27V358h-2.4c.09.74.41,1.06,1.08,1.06a2.07,2.07,0,0,0,1-.24l.21,1.11A2.4,2.4,0,0,1,68.16,360.24Zm-1-3.26h1c0-.78-.16-1-.48-1S67.22,356.38,67.19,357Z" fill="#221f1f"/><path d="M71.86,362.06c-1.25,0-2-.42-2-1.16a1,1,0,0,1,.67-.9,1,1,0,0,1-.38-.79A1.33,1.33,0,0,1,70.8,358a1.54,1.54,0,0,1-.72-1.41,1.7,1.7,0,0,1,1.82-1.76,1.9,1.9,0,0,1,1.2.41,1.48,1.48,0,0,1,1.1-.37V356a2.08,2.08,0,0,0-.63.07,1.32,1.32,0,0,1,.11.63,1.65,1.65,0,0,1-1.8,1.65,2.48,2.48,0,0,1-.46,0,.47.47,0,0,0-.14.32c0,.18.13.29.38.29h.89c1,0,1.57.47,1.57,1.44S73.48,362.06,71.86,362.06Zm.87-1.47c0-.2-.14-.37-.44-.37h-1a.5.5,0,0,0-.15.37c0,.32.22.52.78.52S72.73,360.89,72.73,360.59Zm-.86-3.18c.25,0,.46-.19.46-.78s-.21-.81-.46-.81-.45.21-.45.81S71.64,357.4,71.87,357.4Z" fill="#221f1f"/><path d="M78.06,354.23a.56.56,0,0,0-.63.55.76.76,0,0,0,.29.57c.39.38.87.69,1.25,1.08a2.17,2.17,0,0,1,.73,1.69,2,2,0,0,1-2.13,2.1,3.61,3.61,0,0,1-1.82-.41l.43-1.27a2.72,2.72,0,0,0,1.24.35c.54,0,.74-.29.74-.61a.77.77,0,0,0-.31-.61,14.94,14.94,0,0,1-1.24-1.07,2.2,2.2,0,0,1-.71-1.68,1.93,1.93,0,0,1,2.07-2,3.34,3.34,0,0,1,1.57.35l-.37,1.25A2.52,2.52,0,0,0,78.06,354.23Z" fill="#221f1f"/><path d="M82.28,360.29c-1.27,0-2.19-.93-2.19-2.67s.91-2.76,2.19-2.76,2.19,1,2.19,2.76S83.56,360.29,82.28,360.29Zm0-1.2c.39,0,.67-.41.67-1.49s-.29-1.54-.67-1.54-.67.47-.67,1.54S81.89,359.09,82.28,359.09Z" fill="#221f1f"/><path d="M87.5,359.61a1.39,1.39,0,0,1-1.19.69c-.88,0-1.3-.58-1.3-1.6V355H86.5v3.52c0,.34.15.5.45.5a.64.64,0,0,0,.55-.33V355H89v5.12H87.5Z" fill="#221f1f"/><path d="M89.94,358.69v-2.56h-.42V355h.42v-1.5h1.5V355h.7v1.11h-.7v2.42a.38.38,0,0,0,.43.44.83.83,0,0,0,.28,0v1.18a2.11,2.11,0,0,1-.56.08C90.53,360.21,89.94,359.77,89.94,358.69Z" fill="#221f1f"/><path d="M92.74,360.15v-7.42h1.49v2.92a1.47,1.47,0,0,1,1.27-.79c.88,0,1.26.59,1.26,1.61v3.68H95.28v-3.52c0-.34-.15-.5-.45-.5a.66.66,0,0,0-.6.42v3.6Z" fill="#221f1f"/></g></g></svg>