<svg xmlns="http://www.w3.org/2000/svg" viewBox="0 0 612.04 395.91"><defs><clipPath id="a"><path fill="none" d="M.03-.06h612.01v395.99H.03z"/></clipPath></defs><title>TopLeft-box</title><g data-name="Layer 1" style="isolation:isolate"><g clip-path="url(#a)"><path fill="#cfd1d2" d="M.03-.06h1224.02v791.98H.03z"/><path fill="none" stroke="#fff" stroke-miterlimit="10" stroke-width="2" d="M107.19 43.09h57.94v26.3h-57.94M186.58 55.09h57.94v42.3h-57.94"/><path fill="none" stroke="#fff" stroke-miterlimit="10" stroke-width="2" d="M239.24 76.42h57.95v83.64h-57.95"/><circle cx="615.52" cy="404.79" r="370.75" fill="#c9cacc"/><path fill="none" stroke="#fff" stroke-miterlimit="10" stroke-width="2" d="M297.91 121.76h51.94v162.63h-51.94M359.18 197.39h44.94v373.12h-44.94M239.24 243.76h57.95v83.63h-57.95M186.58 137.93h57.94v42.3h-57.94"/><path fill="none" stroke="#fff" stroke-miterlimit="10" stroke-width="2" d="M186.58 221.93h57.94v42.3h-57.94M186.58 305.26h57.94v42.3h-57.94M107.19 84.53h57.94v26.3h-57.94M107.19 125.97h57.94v26.31h-57.94M107.19 167.42h57.94v26.3h-57.94M107.19 208.86h57.94v26.3h-57.94M107.19 250.3h57.94v26.3h-57.94M107.19 291.74h57.94v26.3h-57.94M107.19 333.18h57.94v26.3h-57.94"/><path fill="#fff" d="M47.07 39.15h75.67v16H47.07zM127.73 47.73h75.67v15.73h-75.67zM207.23 68.31h75.67v16h-75.67zM207.23 150.81h75.67v16h-75.67zM207.23 236.31h75.67v16h-75.67zM207.23 318.31h75.67v16h-75.67zM259.57 275.81h75.67v16h-75.67z"/><path fill="#b1b3b4" d="M559.89-4.68h105.25v799.53H559.89z"/><path fill="#fff" d="M313.62 189.81h75.67v16h-75.67zM259.57 113.81h75.67v16h-75.67zM127.73 89.31h75.67v16h-75.67zM127.73 130.81h75.67v16h-75.67zM127.73 172.31h75.67v16h-75.67zM127.73 213.81h75.67v16h-75.67zM127.73 255.31h75.67v16h-75.67zM127.73 296.81h75.67v16h-75.67zM127.73 338.31h75.67v16h-75.67zM47.07 58.15h75.67v16H47.07zM47.07 80.65h75.67v16H47.07zM47.07 99.65h75.67v16H47.07zM47.07 122.15h75.67v16H47.07zM47.07 141.15h75.67v16H47.07zM47.07 163.65h75.67v16H47.07zM47.07 182.65h75.67v16H47.07zM47.07 205.15h75.67v16H47.07zM47.07 224.15h75.67v16H47.07zM47.07 246.65h75.67v16H47.07zM47.07 265.65h75.67v16H47.07zM47.07 288.15h75.67v16H47.07zM47.07 307.15h75.67v16H47.07zM47.07 329.65h75.67v16H47.07zM47.07 348.65h75.67v16H47.07z"/><path d="M553.22 41.29c-.4.31-1.09.88-1.09.88a2 2 0 0 1-1.06.56 5.2 5.2 0 0 1-2.33-1v-8.88h4.48v8.43zm-15.14-11.75v-8.12l1.55-.92 3.07 2.22v6.81zm8.57 11.61V22.34l1.62-1v20.3a9.66 9.66 0 0 0-1.62-.5zm2.08-11.61v-8.36l1-.64a6 6 0 0 0 3.46 2.26v6.74zm11.12 13a6.45 6.45 0 0 1-2.72-1.31V22.9a4.06 4.06 0 0 0 2-3l-.07-.11a6.63 6.63 0 0 1-2.26.35 4.64 4.64 0 0 1-3.8-1.93l-5.5 3.14c-1.44-1-3.2-2.24-4.59-3.25l-7.13 4.13c-2.26 1.31-3.85 2.83-3.85 5.33v2h-.53a2.85 2.85 0 0 0-3.14 2.75 2.5 2.5 0 0 0 .88 2h.1a1.84 1.84 0 0 1 2.08-1.52h.6v4.41a3.61 3.61 0 0 1-1.31 3.11v.07c2.79-.27 5.22-1.68 5.22-4.52v-13.2c.56-.32.88-.54 1.69-1V40.3c0 1.67-.65 2.22-2.29 2.22-1.86 0-3.74-.85-5.47-.85-2.68 0-4.13 1.68-4.27 4.41l.21.07a3.43 3.43 0 0 1 3.1-1.27c1.7 0 3.35.88 5.12.88 2.51 0 4.06-1.45 4.06-3.85v-9.06h4.66v8.5a7 7 0 0 0-3.39 3.74l.07.18a6 6 0 0 1 3.68-1.12 8.42 8.42 0 0 1 5 1.59c.88-.74 3.45-2.61 4.48-3.39 1.37 1.06 3 2.32 4.13 3.35 1.26-1.24 3.25-3.1 3.25-3.1v-.07zm15.63-.39l-2.4 1.41a4.85 4.85 0 0 1-2-4.34c0-1.84.6-3.21 2.36-3.21a6.81 6.81 0 0 1 2 .28v5.86zm-2.19-6.67a8.77 8.77 0 0 0-1.87.28V29.5l.17-.14c1.57 1.05 2.53 1.71 3.88 2.68v3.7a8.13 8.13 0 0 0-2.19-.28zm7.59 7.52a3.86 3.86 0 0 1-1.84-.92V30.53c-2-1.36-3.26-2.15-4.9-3.25a40.84 40.84 0 0 1-5.4 3.14v3.85a14.11 14.11 0 0 1 2.5 1.52c-2.48.91-3.74 2.59-3.74 4.59a5.9 5.9 0 0 0 3.1 5.33c2.09-1.32 2.91-1.9 4.45-2.79 1.53 1.14 2.44 1.83 3.64 2.75l2.22-2.61v-.07zm65.73-8.72l-3.07 1.91v-6.55l.28-.18a149.2 149.2 0 0 0 2.79 4.8zm-.32-7c-1.49 1.08-4.49 3.07-6.32 4.16v11.22c1.37.9 3 2 4.34 3 1.31-1.47 2.65-2.78 4-4.06l-.29-.28c-.84.84-1.21 1.27-1.69 1.27s-1.13-.4-2.79-1.41v-4.51l6.28-3.88c-1.39-2.09-2.55-3.87-3.53-5.51zm22.9 14.86l-2.4 1.41a4.84 4.84 0 0 1-2-4.34c0-1.84.6-3.21 2.37-3.21a6.83 6.83 0 0 1 2 .28v5.86zM667 35.47a8.79 8.79 0 0 0-1.87.28V29.5l.21-.14c1.57 1.05 2.5 1.71 3.85 2.68v3.7a8.15 8.15 0 0 0-2.19-.28zm7.59 7.53a3.86 3.86 0 0 1-1.84-.92V30.53c-2-1.36-3.26-2.15-4.9-3.25a40.65 40.65 0 0 1-5.4 3.14v3.85a14.12 14.12 0 0 1 2.55 1.51c-2.48.91-3.74 2.59-3.74 4.59a5.91 5.91 0 0 0 3.11 5.33c2.09-1.32 2.91-1.9 4.45-2.79 1.53 1.14 2.44 1.83 3.63 2.75l2.22-2.61v-.07zm16.83-.53l-.63.49a36.28 36.28 0 0 1-3.71-2.4V28.9c.6-.36 1.18-.66 2-1.16l2.34 2.26v12.45zM695 28.8c-4.06-4.14-7.57-7.73-9.14-9.35-.82.72-1.84 1.52-3.07 2.4v.07a5.29 5.29 0 0 1 1.94 1.41l4.06 4.09c-2 1.17-3.73 2.11-5.29 3v12c1.45 1 3.28 2.21 4.76 3.35a33 33 0 0 1 6.7-5V28.8zM537 19l-.21-.1a3.14 3.14 0 0 1-1.83.63c-1.11 0-2.37-.78-3.63-.78-2 0-3.83 1.41-4.13 4.34l.18.11a2.78 2.78 0 0 1 2.72-1.55c1 0 2.51.74 3.25.74 1.54 0 2.74-1.26 3.67-3.39zm30 23.85v-.07a6 6 0 0 1-2.08-.92v-12.6c-1-.68-1.76-1.26-2.68-2l-2.36 2.65v.07a3.5 3.5 0 0 1 1.45.85v12.51c1 .68 2.24 1.6 3.21 2.36 1.54-1.84 2.47-2.89 2.47-2.89zm-2-20.33c-.8-.62-1.63-1.3-2.4-2-.73.9-1.4 1.61-2 2.29.91.7 1.81 1.33 2.47 1.91.8-.95 1.4-1.62 2-2.22zm39.21 20.25v-.07a5.05 5.05 0 0 1-2.08-.88V29.93c-.94-.61-3.21-2-4.23-2.68-1.16 1-2.29 1.94-3.49 2.9-1.27-.92-2.82-2-4-2.82-1.38 1.11-2.56 2-3.6 2.82-1.3-1-2.52-2-3.64-2.86-.73.88-1.66 1.84-2.51 2.68v.07c.6.06 1 .28 2.15 1.31V44c.54.39 1.37 1.05 2.12 1.66.73-.78 1.6-1.61 2.43-2.4-.29-.15-.66-.38-1-.6V31l1.77-1.41 2.5 1.73V44s1.23.95 2.12 1.66c.58-.58 1.82-1.75 2.47-2.36l-1-.64V30.88l1.45-1.17 2.82 1.73v11.9c1.14.79 2.14 1.52 3.21 2.36 1.78-2.18 2.47-2.93 2.47-2.93zm7.23 0v-.07a6 6 0 0 1-2.08-.92V29.26c-1-.68-1.76-1.26-2.68-2l-2.36 2.65v.07a3.5 3.5 0 0 1 1.45.85v12.51c1 .68 2.24 1.6 3.21 2.36 1.54-1.84 2.47-2.89 2.47-2.89zm-2.08-20.29c-.8-.62-1.63-1.3-2.4-2-.73.9-1.4 1.61-2 2.29.91.7 1.8 1.33 2.47 1.91.8-.95 1.39-1.62 2-2.22zm14.87-.07l-.11-.07c-2.49.74-4.34 2.34-4.34 5.36v1.8h-.85a2.82 2.82 0 0 0-3.11 2.75 2.49 2.49 0 0 0 .85 2h.11c.15-.78.67-1.48 2.08-1.48h.92v5a2.74 2.74 0 0 1-.81 2l.18.11a6 6 0 0 0 4.55-5.58v-8.04c0-2.19.16-3.14.53-3.81zm14.57-3.18l-.07-.14a6.77 6.77 0 0 1-2.61.49 5.43 5.43 0 0 1-3.64-1.38c-.82.91-1.85 2-2.72 2.86a5.47 5.47 0 0 0 2.72 1.38v7.06h-6.56V18.42h-.46v23.43a10 10 0 0 0-4.23-1 6.36 6.36 0 0 0-6.42 4.27l.07.18a8.66 8.66 0 0 1 4.55-1.17 8.18 8.18 0 0 1 5.12 1.52c1.07-1.45 2.57-3.17 3.42-4.2l-.28-.25c-.34.49-.81 1-1.16 1a1.34 1.34 0 0 1-.6-.18v-9.17h6.56v8.5a5.11 5.11 0 0 0-4.13 4.06v.14a6.88 6.88 0 0 1 4-1.23 5.22 5.22 0 0 1 3.56 1.38l2.82-3a6.46 6.46 0 0 0-2.33-1V22.3a4.67 4.67 0 0 0 2.36-3zm-14.4-.21l-.07-.14a3 3 0 0 1-1.94.67c-1.11 0-2.37-.78-3.63-.78-2 0-3.79 1.37-4.09 4.31l.14.14a2.79 2.79 0 0 1 2.72-1.55c1 0 2.51.74 3.25.74 1.54 0 2.7-1.26 3.63-3.39zm37.55 10v-.11a5.23 5.23 0 0 1-3.74-1.69c-.94 1-1.67 1.68-2.72 2.61-1.25-.91-2.13-1.66-3.32-2.65l-2.4 2.68v.07a5.37 5.37 0 0 1 2 1.31v11.42c1.49 1 2.92 2 4.38 3 1-1.1 2.17-2.33 3.42-3.56l-.25-.25c-.49.49-.81.71-1.23.71s-1.12-.34-2.75-1.27V30.53l.32-.32a3.67 3.67 0 0 0 3 1.41c1.45 0 2.57-1 3.28-2.54zm20.4 13.76c-.73.73-1.72 1.83-2.58 2.86-1.26-1-2.49-1.82-3.21-2.36v-19a1.54 1.54 0 0 0-.88-1.55v-.11l4.32-3.14.07.07v22.27a5 5 0 0 0 2.19 1v.07z" fill="none" stroke="#b1b3b4" stroke-linecap="round" stroke-miterlimit="10" stroke-width="11"/><path fill="#fff" d="M375.85 386.93h75.67v16h-75.67z"/><circle cx="611.02" cy="401.79" r="116.22" fill="#7a7c7d"/><path d="M476.4 272.37l-.35 45.54a1.62 1.62 0 0 1-3.24.14l-.81-45.68c.18-3.69-1.89-4.45-1.89-4.45-2.14.76-2.08 4.57-2.08 4.57l-1.75 45.65v.08a1.3 1.3 0 0 1-.59 1.08.71.71 0 0 1-.56.21H465a1.3 1.3 0 0 1-1.28-1.31v-.11l1.16-45.87c-1.49-8.24-3.94-.21-3.94-.21l-2.22 21.56-3.19 34.11a31.16 31.16 0 0 0-.17 6.08 8.5 8.5 0 0 0 1.11 3.6c1.08 1.74 2.8 2.35 4.32 3.52l4.08 3.15c3.74 2.92 3.15 6.31 3.15 6.31l-4.51 142.2v.07c0 1.34 4 2.43 9 2.43s9-1.09 9-2.43a.57.57 0 0 0 0-.12l-3.21-142.26a10.3 10.3 0 0 1 5.06-7.26l2.65-1.73a9.09 9.09 0 0 0 5-6.9c0-2 .15-4.17.16-6.24 0-3.71-.29-7.39-.51-11.08q-.41-6.76-.88-13.51c-.33-4.86-.63-9.71-.93-14.57l-.74-11.7q-.15-2.37-.31-4.75c-2.68-8.64-4.21.22-4.21.22l.93 45.42a1.56 1.56 0 0 1-3.12-.12.38.38 0 0 1 0-.05v-.08l-.82-45.3c-2.31-10.73-4.09-.23-4.09-.23" fill="#7a7c7d"/><circle cx="611.02" cy="395.93" r="116.22" fill="#fff"/><path d="M506.74 377.64l1-5.08 25.16-3.3-1.34 6.67-2.26.27-1.3 6.41 2 1.13-1.34 6.67zm20.05 7.47l-1.64-1 2.11-10.48 1.89-.25.18-.89-19.13 2.53-.24 1.21 16.65 9.77zm-15.87-9.27l15.43-2.05-2 9.91zm12.85 1.1l-4.42.6 3.84 2.26z" fill="#f59120"/><path d="M511 360.06l2.37-5.15 10.9-1.56-8.41-3.86 2.83-6.15 21.82 10-2.38 5.18-10.85 1.54 8.38 3.85-2.83 6.15zm20.81 5.32l-15.11-6.94 19.58-2.78.35-.77-16.59-7.62-.35.77 15.13 6.96-19.58 2.77-.35.77 16.59 7.62zM541 352.56l-18.89-14.83 3.7-4.71a17.93 17.93 0 0 1 3.95-3.8 10.5 10.5 0 0 1 4.26-1.76 9.78 9.78 0 0 1 4.5.36 16.19 16.19 0 0 1 8.18 6.42 9.78 9.78 0 0 1 1.42 4.28 10.7 10.7 0 0 1-.68 4.57 17.52 17.52 0 0 1-2.74 4.75zm-.26-4.33l1.7-2.17q2.92-3.72 2.53-7.1a10.62 10.62 0 0 0-10.61-8.32q-3.36.43-6.28 4.15l-1.7 2.17zm-.16-1.2l-13-10.2 1.18-1.5a9.19 9.19 0 0 1 5.58-3.75q3-.52 6.27 2t3.46 5.62a9.14 9.14 0 0 1-2.31 6.32zm-.69-4.13a4.58 4.58 0 0 0-.94-7.2 5.13 5.13 0 0 0-3.88-1.35 5.25 5.25 0 0 0-3.31 2.18zM549.68 317.44l-3.23 2.34-3.69-5.1 12.24-8.86 3.69 5.1-3.23 2.34 10.39 14.35-5.77 4.18zm11.93 9.68L551.41 313l3.75-2.72-.51-.7-8.19 5.93.51.7 3.75-2.72 10.2 14.09zM559 303.35l6.27-2.87 3.4 7.43 3.51-1.61-3.4-7.43 6.3-2.89 10 21.83-6.3 2.89-3.7-8.08-3.5 1.61 3.7 8.08-6.28 2.87zm12.51 17.51l-3.79-8.28 8.66-4 3.79 8.28.76-.35-7.6-16.59-.77.35 3.45 7.53-8.66 4-3.45-7.53-.77.35 7.6 16.59zM580.72 294.31l12.4-2.91 1.44 6.13-5.68 1.33.61 2.59 5.58-1.31 1.37 5.82-5.58 1.31.63 2.7 5.9-1.39 1.44 6.13-12.62 3zm15.12 18.16l-.2-.84-6.31 1.48-1.8-7.67 6-1.41-.2-.84-6 1.41-1.78-7.6 6.31-1.48-.2-.84-7.13 1.67 4.17 17.77zM605.76 289.19l7.29.65 1.74 8.58 3.23-8.13 4.71.42 1.74 8.58 3.23-8.13 7.29.65-9.24 23.28-5.36-.48-1.51-7.44-2.81 7-5.36-.48zm8.44 22l5.64-14.64 2.95 15.41.81.07 7-17.7-.87-.08-6.38 16.09-3.23-17-6.19 16.11-3.43-17-.87-.08 3.76 18.66z" fill="#f59120"/><path fill="none" stroke="#fff" stroke-miterlimit="10" stroke-width="2" d="M446.52 394.93h328.5"/><path fill="#f59120" d="M21.52 39.15h25.55v325.78H21.52z"/><path d="M34.66 299.21a7.9 7.9 0 0 1-3.18-.62 7.4 7.4 0 0 1-2.48-1.67 7.29 7.29 0 0 1-1.55-2.46 8.3 8.3 0 0 1-.54-3 9.35 9.35 0 0 1 .24-2.23 10.58 10.58 0 0 1 .55-1.68 7.88 7.88 0 0 1 .77-1.41l4.07 2.31a7.93 7.93 0 0 0-.51.77 7.54 7.54 0 0 0-.34.89 3.87 3.87 0 0 0-.16 1.18 3.19 3.19 0 0 0 .24 1.25 3.23 3.23 0 0 0 .66 1 3 3 0 0 0 1 .67 3 3 0 0 0 1.2.24 2.89 2.89 0 0 0 1.2-.25 3.07 3.07 0 0 0 1-.69 3.28 3.28 0 0 0 .66-1 3.41 3.41 0 0 0 .24-1.3 4.1 4.1 0 0 0-.18-1.25 4.61 4.61 0 0 0-.4-.92 3.37 3.37 0 0 0-.57-.77l4.07-2.31a6.55 6.55 0 0 1 .86 1.41 11.89 11.89 0 0 1 .57 1.69 8.81 8.81 0 0 1 .26 2.27 8.72 8.72 0 0 1-.56 3.17 7.48 7.48 0 0 1-1.56 2.5 7.14 7.14 0 0 1-2.43 1.65 8 8 0 0 1-3.13.56zm0-2.77a5.36 5.36 0 0 1-2-.36 4.69 4.69 0 0 1-2.66-2.64 5.42 5.42 0 0 1-.4-2.11 6.13 6.13 0 0 1 .08-1 4.65 4.65 0 0 1 .19-.76 2.91 2.91 0 0 1 .26-.64l-.53-.31q-.15.35-.29.75a8.54 8.54 0 0 0-.2.86 6.39 6.39 0 0 0-.09 1.12 5.89 5.89 0 0 0 .4 2.15 5.48 5.48 0 0 0 1.13 1.8 5.55 5.55 0 0 0 4.1 1.73 5.77 5.77 0 0 0 2.33-.45 5.26 5.26 0 0 0 1.77-1.24 5.53 5.53 0 0 0 1.13-1.85 6.34 6.34 0 0 0 .4-2.24 5.81 5.81 0 0 0-.11-1.19 7.12 7.12 0 0 0-.24-.9 4.45 4.45 0 0 0-.35-.75l-.53.31a2.78 2.78 0 0 1 .33.66 4.88 4.88 0 0 1 .23.79 5.17 5.17 0 0 1 .1 1.08 5.7 5.7 0 0 1-.4 2.18 4.82 4.82 0 0 1-1.07 1.57 4.71 4.71 0 0 1-1.61 1 5.36 5.36 0 0 1-1.97.44z" fill="#fff"/><path d="M27.31 281v-3.52L42 271.93v4.62l-1.32.48v4.44L42 282v4.62zm12.91 2.29l-1.1-.42v-7.26l1.1-.42v-.62l-11.15 4.25v.84l11.15 4.25zm-10.63-4l9-3.43v6.86zm7.83-1l-2.57 1 2.57 1z" fill="#fff"/><path d="M37.43 272a7.21 7.21 0 0 0 .24-1 7.92 7.92 0 0 0 .18-1 9.59 9.59 0 0 0 .07-1.13q0-1-.75-1a.84.84 0 0 0-.58.31 9.28 9.28 0 0 0-.66.78q-.36.47-.8 1a7.32 7.32 0 0 1-1 1 5.27 5.27 0 0 1-1.29.78 4.1 4.1 0 0 1-1.64.31 4.23 4.23 0 0 1-1.83-.37 3.67 3.67 0 0 1-1.32-1 4.66 4.66 0 0 1-.8-1.55 6.42 6.42 0 0 1-.27-1.9 10.34 10.34 0 0 1 .05-1.06l.1-.95.13-.95h4.11v1.59a2 2 0 0 0 .06.37.76.76 0 0 0 .15.31.38.38 0 0 0 .31.13q.18 0 .44-.3l.62-.73q.35-.43.81-.95a6.57 6.57 0 0 1 1.06-.95A6.18 6.18 0 0 1 36 263a4.49 4.49 0 0 1 1.67-.3 5.27 5.27 0 0 1 1.81.31A3.86 3.86 0 0 1 41 264a4.58 4.58 0 0 1 1 1.66 7.12 7.12 0 0 1 .36 2.4 14.53 14.53 0 0 1-.08 1.55q-.08.72-.19 1.27a10.61 10.61 0 0 1-.26 1.17zm2.64-1.85c0-.21.08-.43.11-.66s.06-.42.08-.65 0-.46 0-.69a5 5 0 0 0-.14-1.2 3 3 0 0 0-.47-1 2.42 2.42 0 0 0-.85-.74 2.67 2.67 0 0 0-1.26-.27 2.45 2.45 0 0 0-1.21.32 5.63 5.63 0 0 0-1.1.81 13.84 13.84 0 0 0-1 1.06q-.48.56-1 1.06a6 6 0 0 1-1 .81 1.86 1.86 0 0 1-1 .32 1.51 1.51 0 0 1-1.22-.51 2.5 2.5 0 0 1-.43-1.63v-.36-.36a2.83 2.83 0 0 0 0-.35h-.57a2.67 2.67 0 0 1 0 .33v.73a3.34 3.34 0 0 0 .54 2 1.91 1.91 0 0 0 1.68.77 2.23 2.23 0 0 0 1.15-.32 5.81 5.81 0 0 0 1.06-.81q.52-.5 1-1.06t1-1.06a5.42 5.42 0 0 1 1-.81 2.1 2.1 0 0 1 1.1-.32 1.9 1.9 0 0 1 1.61.72 3.16 3.16 0 0 1 .55 2 7.75 7.75 0 0 1-.11 1.36q0 .33-.11.64zM42.36 255.69a8.37 8.37 0 0 1-.36 2.51 5.15 5.15 0 0 1-1 1.91 4.63 4.63 0 0 1-1.78 1.22 6.83 6.83 0 0 1-2.53.43h-9.38v-4.69h9.13a1.87 1.87 0 0 0 1.18-.32 1.6 1.6 0 0 0 0-2.13 1.87 1.87 0 0 0-1.18-.32h-9.13v-4.7h9.33a6.82 6.82 0 0 1 2.53.43 4.57 4.57 0 0 1 1.83 1.23 5.26 5.26 0 0 1 1 1.92 8.37 8.37 0 0 1 .36 2.51zm-2.64 0q0 3.3-3.23 3.3h-7.42v.57h7.41a3.78 3.78 0 0 0 2.83-1 3.94 3.94 0 0 0 1-2.87 4 4 0 0 0-1-2.88 3.75 3.75 0 0 0-2.83-1h-7.41v.59h7.41q3.24-.01 3.24 3.29zM27.31 243.77v-3.52L42 234.68v4.62l-1.32.48v4.44l1.32.48v4.62zm12.91 2.29l-1.1-.42v-7.26l1.1-.42v-.62l-11.15 4.25v.84l11.15 4.25zM29.6 242l9-3.43v6.86zm7.83-1l-2.57 1 2.57 1zM27.31 234.35v-4.88h10.82v-4H42v8.93zm12.91-7.7h-.52v4.93H29.07v.57h11.15zM42 220.25H27.31v-4.07a13.43 13.43 0 0 1 .46-3.69 7.38 7.38 0 0 1 1.39-2.73 6 6 0 0 1 2.3-1.69 9 9 0 0 1 6.36 0 6 6 0 0 1 2.3 1.69 7.49 7.49 0 0 1 1.4 2.73 13.12 13.12 0 0 1 .47 3.69zM40.22 218v-1.87a7.08 7.08 0 0 0-1.46-4.85 5.24 5.24 0 0 0-4.12-1.64 5.21 5.21 0 0 0-4.11 1.64 7.11 7.11 0 0 0-1.45 4.85V218zm-.53-.57H29.6v-1.3a6.7 6.7 0 0 1 1.27-4.35 4.58 4.58 0 0 1 3.77-1.55 4.61 4.61 0 0 1 3.78 1.55 6.66 6.66 0 0 1 1.28 4.35zm-1.89-1.91A3.78 3.78 0 0 0 37 213a3 3 0 0 0-2.39-.9 3 3 0 0 0-2.38.9 3.82 3.82 0 0 0-.77 2.55zM27.31 206.28v-5H42v5zm12.91-2.77H29.07v.57h11.15zM27.31 199.77v-3.85l5.65-4h-5.65v-4.6H42v3.87l-5.63 4H42v4.6zm12.91-2.62H30.06l10.16-7.26v-.57H29.07v.57h10.16l-10.16 7.26v.57h11.15zM27.31 185.73v-5H42v5zM40.22 183H29.07v.57h11.15zM27.31 179.22v-3.85l5.65-4h-5.65v-4.6H42v3.87l-5.63 4H42v4.6zm12.91-2.62H30.06l10.16-7.26v-.57H29.07v.57h10.16l-10.16 7.26v.57h11.15zM32.3 155.84a2.69 2.69 0 0 0-.54 1 3.89 3.89 0 0 0-.19 1.17 2.87 2.87 0 0 0 .23 1.17 2.77 2.77 0 0 0 .64.91 3 3 0 0 0 1 .6 3.41 3.41 0 0 0 1.23.22 3.13 3.13 0 0 0 1.23-.24 3 3 0 0 0 1-.66 3 3 0 0 0 .64-1 3.12 3.12 0 0 0 .23-1.2 2.92 2.92 0 0 0-.32-1.36 3.26 3.26 0 0 0-.87-1.06v1.32h-3.11v-5.65h4.88a8.09 8.09 0 0 1 1.65 1.21 7.68 7.68 0 0 1 1.27 1.57 7.56 7.56 0 0 1 .81 1.88 7.66 7.66 0 0 1-7.41 9.79 7.86 7.86 0 0 1-3-.57 7.68 7.68 0 0 1-2.45-1.57 7.36 7.36 0 0 1-1.66-2.37 7.26 7.26 0 0 1-.6-3 8.31 8.31 0 0 1 .24-2.13 8.15 8.15 0 0 1 .55-1.52 5.56 5.56 0 0 1 .77-1.21zm-2.84-.22a3.61 3.61 0 0 0-.22.64 6.21 6.21 0 0 0-.15.73 6 6 0 0 0-.07.92 5.65 5.65 0 0 0 .42 2.18 5.44 5.44 0 0 0 1.16 1.76 5.31 5.31 0 0 0 1.77 1.15 5.91 5.91 0 0 0 2.29.43 5.77 5.77 0 0 0 2.29-.44 5.27 5.27 0 0 0 1.77-1.21 5.66 5.66 0 0 0 1.15-1.78 5.72 5.72 0 0 0 .42-2.19 5.38 5.38 0 0 0-.72-2.75 5.85 5.85 0 0 0-1.9-2h-2.88v2.33h.53v-1.76h2.2a5 5 0 0 1 2.2 4.18 5.29 5.29 0 0 1-.36 2 4.81 4.81 0 0 1-2.64 2.69 5.22 5.22 0 0 1-2.06.4 5.35 5.35 0 0 1-2.06-.38 4.85 4.85 0 0 1-1.6-1.09 4.66 4.66 0 0 1-1-1.57 5.19 5.19 0 0 1-.36-2 4.06 4.06 0 0 1 .07-.75q.07-.35.13-.62c.06-.21.12-.4.18-.57z" fill="#fff"/><g opacity=".32" style="mix-blend-mode:multiply" fill="#747578" stroke="#747578" stroke-miterlimit="10" stroke-width="10"><path d="M456 60h17.2l17 27.79L507.14 60h17.2v72.42h-20.82v-26.05l-13.29 21.71-13.39-21.71v26.06H456zm12.31 63.73V73.91l21.89 35.39L512 73.91v49.83h2.54v-55H512l-21.79 35.72-21.87-35.76h-2.54v55zM557.85 134.28a33.71 33.71 0 0 1-11.14-1.74 22.37 22.37 0 0 1-8.5-5.21 23.06 23.06 0 0 1-5.42-8.79 37 37 0 0 1-1.91-12.54V60h20.81v45.06a10 10 0 0 0 1.42 5.81q1.42 2 4.74 2t4.74-2a10 10 0 0 0 1.42-5.81V60h20.91v46a37 37 0 0 1-1.92 12.53 22 22 0 0 1-14 14 33.71 33.71 0 0 1-11.15 1.75zm0-13q-14.66 0-14.66-16V68.7h-2.54v36.59q0 9.12 4.45 14t12.75 4.83q8.3 0 12.8-4.83t4.5-14V68.7h-2.64v36.59q0 15.96-14.66 15.96zM591.46 60h17.1l18 27.9V60H647v72.42h-17.2l-17.88-27.79v27.79h-20.46zm11.63 63.73V73.58l32.25 50.16h2.54v-55h-2.54v50.16l-32.25-50.2h-2.54v55zM422.22 136.58h17.2l17 27.79 16.9-27.79h17.2V209H469.7v-26.06l-13.29 21.71L443 182.94V209h-20.78zm12.31 63.73v-49.83l21.89 35.39 21.79-35.39v49.83h2.54v-55h-2.54L456.42 181l-21.89-35.72H432v55zM516.71 136.58h15.63L557.06 209h-20.52l-2.15-6.51h-19.74L512.5 209H492zm-10.16 63.73l1.86-5.43h32.25l1.86 5.43h2.74l-18.86-55h-3.71l-18.86 55zm18-52.44l15.24 44.41h-30.51zm4.4 38.65l-4.4-12.7-4.4 12.7zM558.53 209v-72.42h18.07a54.06 54.06 0 0 1 16.4 2.28 31.69 31.69 0 0 1 12.12 6.84 29.52 29.52 0 0 1 7.49 11.3 48.82 48.82 0 0 1 0 31.38 29.5 29.5 0 0 1-7.52 11.35 32.25 32.25 0 0 1-12.09 6.94 52.85 52.85 0 0 1-16.4 2.33zm9.77-8.69h8.31q14.27 0 21.55-7.22t7.28-20.36q0-13.14-7.28-20.3t-21.55-7.17h-8.31zm2.54-2.61v-49.83h5.77q12.41 0 19.3 6.24t6.89 18.62q0 12.38-6.89 18.67t-19.3 6.3zm8.5-9.34q7.33 0 11.33-3.85t4-11.78q0-7.92-4-11.73t-11.33-3.8z"/></g><path d="M456 55h17.2l17 27.79L507.14 55h17.2v72.42h-20.82v-26.05l-13.29 21.71-13.39-21.71v26.06H456zm12.31 63.73V68.91l21.89 35.39L512 68.91v49.83h2.54v-55H512l-21.77 35.68-21.89-35.72h-2.54v55zM557.85 129.28a33.71 33.71 0 0 1-11.14-1.74 22.37 22.37 0 0 1-8.5-5.21 23.06 23.06 0 0 1-5.42-8.79 37 37 0 0 1-1.91-12.54V55h20.81v45.06a10 10 0 0 0 1.42 5.81q1.42 2 4.74 2t4.74-2a10 10 0 0 0 1.42-5.81V55h20.91v46a37 37 0 0 1-1.92 12.53 22 22 0 0 1-14 14 33.71 33.71 0 0 1-11.15 1.75zm0-13q-14.66 0-14.66-16V63.7h-2.54v36.59q0 9.12 4.45 14t12.75 4.83q8.3 0 12.8-4.83t4.5-14V63.7h-2.64v36.59q0 15.96-14.66 15.96zM591.46 55h17.1l18 27.9V55H647v72.42h-17.2l-17.92-27.79v27.79h-20.42zm11.63 63.73V68.58l32.25 50.16h2.54v-55h-2.54v50.16l-32.25-50.2h-2.54v55zM422.22 131.58h17.2l17 27.79 16.9-27.79h17.2V204H469.7v-26.06l-13.29 21.71L443 177.94V204h-20.78zm12.31 63.73v-49.83l21.89 35.39 21.79-35.39v49.83h2.54v-55h-2.54L456.42 176l-21.89-35.72H432v55zM516.71 131.58h15.63L557.06 204h-20.52l-2.15-6.51h-19.74L512.5 204H492zm-10.16 63.73l1.86-5.43h32.25l1.86 5.43h2.74l-18.86-55h-3.71l-18.86 55zm18-52.44l15.24 44.41h-30.51zm4.4 38.65l-4.4-12.7-4.4 12.7zM558.53 204v-72.42h18.07a54.06 54.06 0 0 1 16.4 2.28 31.69 31.69 0 0 1 12.12 6.84 29.52 29.52 0 0 1 7.49 11.3 48.82 48.82 0 0 1 0 31.38 29.5 29.5 0 0 1-7.52 11.35 32.25 32.25 0 0 1-12.09 6.94 52.85 52.85 0 0 1-16.4 2.33zm9.77-8.69h8.31q14.27 0 21.55-7.22t7.28-20.36q0-13.14-7.28-20.3t-21.55-7.17h-8.31zm2.54-2.61v-49.83h5.77q12.41 0 19.3 6.24t6.89 18.62q0 12.38-6.89 18.67t-19.3 6.3zm8.5-9.34q7.33 0 11.33-3.85t4-11.78q0-7.92-4-11.73t-11.33-3.8z" fill="none" stroke="#f59120" stroke-miterlimit="10" stroke-width="9"/><path d="M456 55h17.2l17 27.79L507.14 55h17.2v72.42h-20.82v-26.05l-13.29 21.71-13.39-21.71v26.06H456zm12.31 63.73V68.91l21.89 35.39L512 68.91v49.83h2.54v-55H512l-21.77 35.68-21.89-35.72h-2.54v55zM557.85 129.28a33.71 33.71 0 0 1-11.14-1.74 22.37 22.37 0 0 1-8.5-5.21 23.06 23.06 0 0 1-5.42-8.79 37 37 0 0 1-1.91-12.54V55h20.81v45.06a10 10 0 0 0 1.42 5.81q1.42 2 4.74 2t4.74-2a10 10 0 0 0 1.42-5.81V55h20.91v46a37 37 0 0 1-1.92 12.53 22 22 0 0 1-14 14 33.71 33.71 0 0 1-11.15 1.75zm0-13q-14.66 0-14.66-16V63.7h-2.54v36.59q0 9.12 4.45 14t12.75 4.83q8.3 0 12.8-4.83t4.5-14V63.7h-2.64v36.59q0 15.96-14.66 15.96zM591.46 55h17.1l18 27.9V55H647v72.42h-17.2l-17.92-27.79v27.79h-20.42zm11.63 63.73V68.58l32.25 50.16h2.54v-55h-2.54v50.16l-32.25-50.2h-2.54v55zM422.22 131.58h17.2l17 27.79 16.9-27.79h17.2V204H469.7v-26.06l-13.29 21.71L443 177.94V204h-20.78zm12.31 63.73v-49.83l21.89 35.39 21.79-35.39v49.83h2.54v-55h-2.54L456.42 176l-21.89-35.72H432v55zM516.71 131.58h15.63L557.06 204h-20.52l-2.15-6.51h-19.74L512.5 204H492zm-10.16 63.73l1.86-5.43h32.25l1.86 5.43h2.74l-18.86-55h-3.71l-18.86 55zm18-52.44l15.24 44.41h-30.51zm4.4 38.65l-4.4-12.7-4.4 12.7zM558.53 204v-72.42h18.07a54.06 54.06 0 0 1 16.4 2.28 31.69 31.69 0 0 1 12.12 6.84 29.52 29.52 0 0 1 7.49 11.3 48.82 48.82 0 0 1 0 31.38 29.5 29.5 0 0 1-7.52 11.35 32.25 32.25 0 0 1-12.09 6.94 52.85 52.85 0 0 1-16.4 2.33zm9.77-8.69h8.31q14.27 0 21.55-7.22t7.28-20.36q0-13.14-7.28-20.3t-21.55-7.17h-8.31zm2.54-2.61v-49.83h5.77q12.41 0 19.3 6.24t6.89 18.62q0 12.38-6.89 18.67t-19.3 6.3zm8.5-9.34q7.33 0 11.33-3.85t4-11.78q0-7.92-4-11.73t-11.33-3.8zM476.4 266.51l-.34 45.49a1.62 1.62 0 0 1-3.24.14l-.82-45.63c.18-3.69-1.89-4.45-1.89-4.45-2.14.76-2.08 4.57-2.08 4.57l-1.75 45.65v.08a1.3 1.3 0 0 1-.59 1.08.71.71 0 0 1-.56.21H465a1.3 1.3 0 0 1-1.28-1.31v-.11l1.16-45.87c-1.49-8.24-3.94-.21-3.94-.21l-2.22 21.56-3.19 34.11a31.16 31.16 0 0 0-.17 6.08 8.5 8.5 0 0 0 1.11 3.6c1.08 1.74 2.8 2.35 4.32 3.52l4.08 3.15c3.74 2.92 3.15 6.31 3.15 6.31l-4.51 142.2v.07c0 1.34 4 2.43 9 2.43s9-1.09 9-2.43a.57.57 0 0 0 0-.12l-3.21-142.26a10.3 10.3 0 0 1 5.06-7.26l2.64-1.71a9.09 9.09 0 0 0 5-6.9c0-2 .15-4.17.16-6.24 0-3.71-.29-7.39-.51-11.08q-.41-6.76-.88-13.51c-.33-4.86-.63-9.71-.93-14.57l-.74-11.7q-.15-2.37-.31-4.75c-2.68-8.64-4.21.22-4.21.22l.93 45.42a1.56 1.56 0 0 1-3.12-.12.38.38 0 0 1 0-.05v-.08l-.82-45.3c-2.31-10.73-4.09-.23-4.09-.23" fill="#fff"/><circle cx="610.81" cy="395.45" r="76" fill="#cfd1d2"/><circle cx="610.81" cy="401.44" r="76" fill="#fff"/><path d="M83.84 34.4l.52-7.49H86l.68 3.2.17 1.15.22-1.15.75-3.2h1.57L90 34.4h-1.67l-.15-3v-1.54l-.26 1.56-.66 3h-1l-.61-3-.22-1.56v1.56l-.17 3zM93.72 33.09H92.1l-.27 1.31h-1.44l1.74-7.49h1.8l1.73 7.49H94zm-1.38-1.19h1.14l-.4-2-.15-1-.17 1zM96.26 26.91h2.3a2 2 0 0 1 2.1 2.29 2.16 2.16 0 0 1-1 1.92l1.16 3.28h-1.69l-1-2.86H98v2.86h-1.74zM98 28.17v2.22h.32c.59 0 .77-.44.77-1.14s-.19-1.08-.75-1.08zM105.64 34.21a2.39 2.39 0 0 1-1.3.31c-1.9 0-3.08-1.24-3.08-3.78s1.31-3.94 3-3.94a2.61 2.61 0 0 1 1.35.28l-.38 1.27a2.15 2.15 0 0 0-.85-.17c-.94 0-1.43.92-1.43 2.54s.51 2.42 1.46 2.42a1.85 1.85 0 0 0 .82-.19zM106.34 26.91H108v3h1.41v-3h1.7v7.49h-1.7v-3.2H108v3.2h-1.7zM114.33 28.78l-1 1v-1.53l1.39-1.4H116v7.55h-1.66zM117 31.52a5.7 5.7 0 0 1 2-4.61h2V27a5.71 5.71 0 0 0-2.18 3 1.27 1.27 0 0 1 1-.5c.89 0 1.63.75 1.63 2.39s-.86 2.68-2.21 2.68-2.24-1-2.24-3.05zm2.85.34c0-1-.27-1.21-.62-1.21a.78.78 0 0 0-.59.33v.61c0 1.38.24 1.72.62 1.72s.54-.41.54-1.45zM169.52 44.4l.52-7.49h1.66l.68 3.2.17 1.15.22-1.15.75-3.2h1.57l.52 7.49H174l-.15-3v-1.54l-.26 1.56-.66 3h-1l-.61-3-.22-1.56v1.56l-.17 3zM179.4 43.09h-1.62l-.27 1.31h-1.44l1.74-7.49h1.8l1.73 7.49h-1.68zM178 41.9h1.14l-.4-2-.15-1-.17 1zM181.94 36.91h2.3a2 2 0 0 1 2.1 2.29 2.16 2.16 0 0 1-1 1.92l1.16 3.28h-1.73l-1-2.86h-.19v2.86h-1.69zm1.69 1.26v2.22h.32c.59 0 .77-.44.77-1.14s-.19-1.08-.75-1.08zM191.32 44.21a2.39 2.39 0 0 1-1.3.31c-1.9 0-3.08-1.24-3.08-3.78s1.31-3.94 3-3.94a2.61 2.61 0 0 1 1.35.28l-.38 1.27a2.15 2.15 0 0 0-.85-.17c-.94 0-1.43.92-1.43 2.54s.51 2.42 1.46 2.42a1.85 1.85 0 0 0 .82-.19zM192 36.91h1.7v3h1.41v-3h1.7v7.49h-1.7v-3.2h-1.41v3.2H192zM199 44.4v-1l1.24-2.24a4.5 4.5 0 0 0 .69-2.15.74.74 0 0 0-.79-.83 1.78 1.78 0 0 0-.86.24l-.28-1.28a2.78 2.78 0 0 1 1.49-.35 1.93 1.93 0 0 1 2.19 2.13 6.73 6.73 0 0 1-1.24 3.08l-.61 1h1.81v1.4zM205.64 44.57c-1.44 0-2.39-1-2.39-3.87s1-3.95 2.39-3.95S208 37.92 208 40.7s-.92 3.87-2.36 3.87zm0-1.38c.47 0 .69-.51.69-2.51s-.22-2.55-.69-2.55-.69.63-.69 2.55.22 2.51.69 2.51zM249.53 65.06l.52-7.49h1.66l.68 3.2.17 1.15.22-1.15.75-3.2h1.57l.52 7.49H254l-.15-3v-1.53l-.26 1.56-.66 3h-1l-.61-3-.22-1.56v1.56l-.17 3zM259.41 63.75h-1.62l-.27 1.31h-1.44l1.74-7.49h1.8l1.73 7.49h-1.68zM258 62.57h1.14l-.4-2-.15-1-.17 1zM262 57.58h2.3a2 2 0 0 1 2.1 2.29 2.16 2.16 0 0 1-1 1.92l1.16 3.28h-1.73l-1-2.86h-.19v2.86H262zm1.69 1.26v2.22h.31c.59 0 .77-.44.77-1.14s-.19-1.08-.75-1.08zM271.33 64.87a2.39 2.39 0 0 1-1.3.31c-1.9 0-3.08-1.24-3.08-3.78s1.31-3.94 3-3.94a2.61 2.61 0 0 1 1.35.28L271 59a2.15 2.15 0 0 0-.85-.17c-.94 0-1.43.92-1.43 2.54s.51 2.42 1.46 2.42a1.85 1.85 0 0 0 .82-.19zM272 57.58h1.7v3h1.41v-3h1.7v7.49h-1.7v-3.2h-1.41v3.2H272zM279 65.06v-1l1.24-2.24a4.5 4.5 0 0 0 .69-2.15.74.74 0 0 0-.79-.83 1.78 1.78 0 0 0-.86.24l-.28-1.27a2.78 2.78 0 0 1 1.49-.35 1.93 1.93 0 0 1 2.19 2.13 6.73 6.73 0 0 1-1.23 3.13l-.61 1h1.81v1.31zM286.92 63.51v1.55h-1.52v-1.55h-2.24v-1l1.7-5h2.06v4.78h.58v1.16zm-1.52-1.16V58.95l-.28 1.12-.76 2.29zM303.55 109.73l.52-7.49h1.66l.68 3.2.17 1.15.22-1.15.75-3.2h1.57l.52 7.49H308l-.15-3v-1.56l-.26 1.56-.66 3h-1l-.61-3-.22-1.56v1.56l-.17 3zM313.43 108.42h-1.62l-.27 1.31h-1.44l1.74-7.49h1.8l1.73 7.49h-1.68zm-1.43-1.19h1.14l-.4-2-.15-1-.17 1zM316 102.24h2.3a2 2 0 0 1 2.1 2.29 2.17 2.17 0 0 1-1 1.92l1.16 3.28h-1.73l-1-2.86h-.19v2.86H316zm1.69 1.26v2.22h.31c.59 0 .77-.44.77-1.14s-.19-1.08-.75-1.08zM325.35 109.54a2.39 2.39 0 0 1-1.3.31c-1.9 0-3.08-1.24-3.08-3.78s1.31-3.94 3-3.94a2.61 2.61 0 0 1 1.35.28l-.38 1.27a2.14 2.14 0 0 0-.85-.17c-.94 0-1.43.92-1.43 2.54s.51 2.42 1.46 2.42a1.85 1.85 0 0 0 .82-.19zM326 102.24h1.7v3h1.41v-3h1.7v7.49h-1.7v-3.2h-1.41v3.2H326zM332.86 109.53l.37-1.29a2 2 0 0 0 1 .25.86.86 0 0 0 .9-1c0-.56-.2-1-.88-1h-.33v-1.26h.33a.82.82 0 0 0 .87-.92c0-.57-.28-.87-.91-.87a1.77 1.77 0 0 0-.85.24l-.35-1.24a2.81 2.81 0 0 1 1.49-.37 1.92 1.92 0 0 1 2.1 2.11 1.61 1.61 0 0 1-1 1.61 1.76 1.76 0 0 1 1.14 1.82 2.12 2.12 0 0 1-2.27 2.24 2.94 2.94 0 0 1-1.61-.32zM339.64 109.9c-1.44 0-2.39-1-2.39-3.87s1-3.95 2.39-3.95S342 103.25 342 106s-.92 3.9-2.36 3.9zm0-1.38c.47 0 .69-.51.69-2.51s-.22-2.55-.69-2.55-.69.63-.69 2.55.22 2.51.69 2.51zM353.4 185.73l.52-7.49h1.66l.68 3.2.17 1.15.22-1.15.75-3.2h1.6l.52 7.49h-1.62l-.15-3v-1.56l-.26 1.56-.66 3h-1l-.61-3-.22-1.56v1.56l-.17 3zM363.28 184.42h-1.62l-.27 1.31h-1.44l1.74-7.49h1.8l1.73 7.49h-1.68zm-1.38-1.19h1.1l-.4-2-.15-1-.17 1zM365.82 178.24h2.3a2 2 0 0 1 2.1 2.29 2.16 2.16 0 0 1-1 1.92l1.16 3.28h-1.73l-1-2.86h-.19v2.86h-1.69zm1.69 1.26v2.22h.32c.59 0 .77-.44.77-1.14s-.19-1.08-.75-1.08zM375.2 185.54a2.39 2.39 0 0 1-1.3.31c-1.9 0-3.08-1.24-3.08-3.78s1.31-3.94 3-3.94a2.61 2.61 0 0 1 1.35.28l-.38 1.27a2.15 2.15 0 0 0-.85-.17c-.94 0-1.43.92-1.43 2.54s.51 2.42 1.46 2.42a1.86 1.86 0 0 0 .82-.19zM375.9 178.24h1.7v3h1.4v-3h1.7v7.49H379v-3.2h-1.4v3.2h-1.7zM382.71 185.53l.37-1.29a2 2 0 0 0 1 .25.86.86 0 0 0 .9-1c0-.56-.2-1-.88-1h-.33v-1.26h.33a.82.82 0 0 0 .87-.92c0-.57-.28-.87-.91-.87a1.77 1.77 0 0 0-.85.24l-.35-1.24a2.81 2.81 0 0 1 1.49-.37 1.92 1.92 0 0 1 2.1 2.11 1.61 1.61 0 0 1-1 1.61 1.76 1.76 0 0 1 1.14 1.82 2.12 2.12 0 0 1-2.27 2.24 3 3 0 0 1-1.61-.32zM388 180.11l-1 1v-1.49l1.39-1.4h1.27v7.55H388zM423.79 380.75h-1.62l-.27 1.31h-1.44l1.74-7.49h1.8l1.73 7.49h-1.68zm-1.38-1.19h1.14l-.4-2-.15-1-.17 1zM426.33 374.58h2.14a2.42 2.42 0 0 1 0 4.84H428v2.65h-1.69zm1.69 1.26v2.39h.31c.57 0 .78-.41.78-1.2s-.21-1.19-.78-1.19zM431.42 374.58h2.3a2 2 0 0 1 2.1 2.29 2.16 2.16 0 0 1-1 1.92l1.16 3.28h-1.73l-1-2.86h-.19v2.86h-1.69zm1.69 1.26v2.22h.32c.59 0 .77-.44.77-1.14s-.19-1.08-.75-1.08zM436.68 374.58h1.71v7.49h-1.71zM439.42 374.58h1.71v6.2h1.71v1.29h-3.42zM444.59 381.86l.37-1.29a2 2 0 0 0 1 .25.86.86 0 0 0 .9-1c0-.56-.2-1-.88-1h-.33v-1.26h.33a.82.82 0 0 0 .87-.92c0-.57-.28-.87-.91-.87a1.77 1.77 0 0 0-.85.24l-.35-1.24a2.81 2.81 0 0 1 1.49-.37 1.92 1.92 0 0 1 2.1 2.11 1.61 1.61 0 0 1-1 1.61 1.76 1.76 0 0 1 1.07 1.88 2.12 2.12 0 0 1-2.27 2.24 2.94 2.94 0 0 1-1.54-.38z" fill="#221f1f"/><path d="M553.22 38.29c-.4.31-1.09.88-1.09.88a2 2 0 0 1-1.06.56 5.2 5.2 0 0 1-2.33-1v-8.88h4.48v8.43zm-15.14-11.75v-8.12l1.55-.92 3.07 2.22v6.81zm8.57 11.61V19.34l1.62-1v20.3a9.66 9.66 0 0 0-1.62-.5zm2.08-11.61v-8.36l1-.64a6 6 0 0 0 3.46 2.26v6.74zm11.12 13a6.45 6.45 0 0 1-2.72-1.31V19.9a4.06 4.06 0 0 0 2-3l-.07-.11a6.63 6.63 0 0 1-2.26.35 4.64 4.64 0 0 1-3.8-1.93l-5.5 3.14c-1.44-1-3.2-2.24-4.59-3.25l-7.13 4.13c-2.26 1.31-3.85 2.83-3.85 5.33v2h-.53a2.85 2.85 0 0 0-3.14 2.75 2.5 2.5 0 0 0 .88 2h.1a1.84 1.84 0 0 1 2.08-1.52h.6v4.41a3.61 3.61 0 0 1-1.31 3.11v.07c2.79-.27 5.22-1.68 5.22-4.52v-13.2c.56-.32.88-.54 1.69-1V37.3c0 1.67-.65 2.22-2.29 2.22-1.86 0-3.74-.85-5.47-.85-2.68 0-4.13 1.68-4.27 4.41l.21.07a3.43 3.43 0 0 1 3.1-1.27c1.7 0 3.35.88 5.12.88 2.51 0 4.06-1.45 4.06-3.85v-9.06h4.66v8.5a7 7 0 0 0-3.39 3.74l.07.18a6 6 0 0 1 3.68-1.12 8.42 8.42 0 0 1 5 1.59c.88-.74 3.45-2.61 4.48-3.39 1.37 1.06 3 2.32 4.13 3.35 1.26-1.24 3.25-3.1 3.25-3.1v-.07zm15.63-.39l-2.4 1.41a4.85 4.85 0 0 1-2-4.34c0-1.84.6-3.21 2.36-3.21a6.81 6.81 0 0 1 2 .28v5.86zm-2.19-6.67a8.77 8.77 0 0 0-1.87.28V26.5l.17-.14c1.57 1.05 2.53 1.71 3.88 2.68v3.7a8.13 8.13 0 0 0-2.19-.28zm7.59 7.52a3.86 3.86 0 0 1-1.84-.92V27.53c-2-1.36-3.26-2.15-4.9-3.25a40.84 40.84 0 0 1-5.4 3.14v3.85a14.11 14.11 0 0 1 2.5 1.52c-2.48.91-3.74 2.59-3.74 4.59a5.9 5.9 0 0 0 3.1 5.33c2.09-1.32 2.91-1.9 4.45-2.79 1.53 1.14 2.44 1.83 3.64 2.75l2.22-2.61v-.07zm65.73-8.72l-3.07 1.91v-6.55l.28-.18a149.2 149.2 0 0 0 2.79 4.8zm-.32-7c-1.49 1.08-4.49 3.07-6.32 4.16v11.22c1.37.9 3 2 4.34 3 1.31-1.47 2.65-2.78 4-4.06l-.29-.28c-.84.84-1.21 1.27-1.69 1.27s-1.13-.4-2.79-1.41v-4.51l6.28-3.88c-1.39-2.09-2.55-3.87-3.53-5.51zm22.9 14.86l-2.4 1.41a4.84 4.84 0 0 1-2-4.34c0-1.84.6-3.21 2.37-3.21a6.83 6.83 0 0 1 2 .28v5.86zM667 32.47a8.79 8.79 0 0 0-1.87.28V26.5l.21-.14c1.57 1.05 2.5 1.71 3.85 2.68v3.7a8.15 8.15 0 0 0-2.19-.28zm7.59 7.53a3.86 3.86 0 0 1-1.84-.92V27.53c-2-1.36-3.26-2.15-4.9-3.25a40.65 40.65 0 0 1-5.4 3.14v3.85a14.12 14.12 0 0 1 2.55 1.51c-2.48.91-3.74 2.59-3.74 4.59a5.91 5.91 0 0 0 3.11 5.33c2.09-1.32 2.91-1.9 4.45-2.79 1.53 1.14 2.44 1.83 3.63 2.75l2.22-2.61v-.07zm16.83-.53l-.63.49a36.28 36.28 0 0 1-3.71-2.4V25.9c.6-.36 1.18-.66 2-1.16l2.34 2.26v12.45zM695 25.8c-4.06-4.14-7.57-7.73-9.14-9.35-.82.72-1.84 1.52-3.07 2.4v.07a5.29 5.29 0 0 1 1.94 1.41l4.06 4.09c-2 1.17-3.73 2.11-5.29 3v12c1.45 1 3.28 2.21 4.76 3.35a33 33 0 0 1 6.7-5V25.8zM537 16l-.21-.1a3.14 3.14 0 0 1-1.83.63c-1.11 0-2.37-.78-3.63-.78-2 0-3.83 1.41-4.13 4.34l.18.11a2.78 2.78 0 0 1 2.72-1.55c1 0 2.51.74 3.25.74 1.54 0 2.74-1.26 3.67-3.39zm30 23.85v-.07a6 6 0 0 1-2.08-.92v-12.6c-1-.68-1.76-1.26-2.68-2l-2.36 2.65v.07a3.5 3.5 0 0 1 1.45.85v12.51c1 .68 2.24 1.6 3.21 2.36 1.54-1.84 2.47-2.89 2.47-2.89zm-2-20.33c-.8-.62-1.63-1.3-2.4-2-.73.9-1.4 1.61-2 2.29.91.7 1.81 1.33 2.47 1.91.8-.95 1.4-1.62 2-2.22zm39.21 20.25v-.07a5.05 5.05 0 0 1-2.08-.88V26.93c-.94-.61-3.21-2-4.23-2.68-1.16 1-2.29 1.94-3.49 2.9-1.27-.92-2.82-2-4-2.82-1.38 1.11-2.56 2-3.6 2.82-1.3-1-2.52-2-3.64-2.86-.73.88-1.66 1.84-2.51 2.68v.07c.6.06 1 .28 2.15 1.31V41c.54.39 1.37 1.05 2.12 1.66.73-.78 1.6-1.61 2.43-2.4-.29-.15-.66-.38-1-.6V28l1.77-1.41 2.5 1.73V41s1.23.95 2.12 1.66c.58-.58 1.82-1.75 2.47-2.36l-1-.64V27.88l1.45-1.17 2.82 1.73v11.9c1.14.79 2.14 1.52 3.21 2.36 1.78-2.18 2.47-2.93 2.47-2.93zm7.23 0v-.07a6 6 0 0 1-2.08-.92V26.26c-1-.68-1.76-1.26-2.68-2l-2.36 2.65v.07a3.5 3.5 0 0 1 1.45.85v12.51c1 .68 2.24 1.6 3.21 2.36 1.54-1.84 2.47-2.89 2.47-2.89zm-2.08-20.29c-.8-.62-1.63-1.3-2.4-2-.73.9-1.4 1.61-2 2.29.91.7 1.8 1.33 2.47 1.91.8-.95 1.39-1.62 2-2.22zm14.87-.07l-.11-.07c-2.49.74-4.34 2.34-4.34 5.36v1.8h-.85a2.82 2.82 0 0 0-3.11 2.75 2.49 2.49 0 0 0 .85 2h.11c.15-.78.67-1.48 2.08-1.48h.92v5a2.74 2.74 0 0 1-.81 2l.18.11a6 6 0 0 0 4.55-5.58v-8.04c0-2.19.16-3.14.53-3.81zm14.57-3.18l-.07-.14a6.77 6.77 0 0 1-2.61.49 5.43 5.43 0 0 1-3.64-1.38c-.82.91-1.85 2-2.72 2.86a5.47 5.47 0 0 0 2.72 1.38v7.06h-6.56V15.42h-.46v23.43a10 10 0 0 0-4.23-1 6.36 6.36 0 0 0-6.42 4.27l.07.18a8.66 8.66 0 0 1 4.55-1.17 8.18 8.18 0 0 1 5.12 1.52c1.07-1.45 2.57-3.17 3.42-4.2l-.28-.25c-.34.49-.81 1-1.16 1a1.34 1.34 0 0 1-.6-.18v-9.17h6.56v8.5a5.11 5.11 0 0 0-4.13 4.06v.14a6.88 6.88 0 0 1 4-1.23 5.22 5.22 0 0 1 3.56 1.38l2.82-3a6.46 6.46 0 0 0-2.33-1V19.3a4.67 4.67 0 0 0 2.36-3zm-14.4-.21l-.07-.14a3 3 0 0 1-1.94.67c-1.11 0-2.37-.78-3.63-.78-2 0-3.79 1.37-4.09 4.31l.14.14a2.79 2.79 0 0 1 2.72-1.55c1 0 2.51.74 3.25.74 1.54 0 2.7-1.26 3.63-3.39zm37.55 10v-.11a5.23 5.23 0 0 1-3.74-1.69c-.94 1-1.67 1.68-2.72 2.61-1.25-.91-2.13-1.66-3.32-2.65l-2.4 2.68v.07a5.37 5.37 0 0 1 2 1.31v11.42c1.49 1 2.92 2 4.38 3 1-1.1 2.17-2.33 3.42-3.56l-.25-.25c-.49.49-.81.71-1.23.71s-1.12-.34-2.75-1.27V27.53l.32-.32a3.67 3.67 0 0 0 3 1.41c1.45 0 2.57-1 3.28-2.54zm20.4 13.76c-.73.73-1.72 1.83-2.58 2.86-1.26-1-2.49-1.82-3.21-2.36v-19a1.54 1.54 0 0 0-.88-1.55v-.11l4.32-3.14.07.07v22.27a5 5 0 0 0 2.19 1v.07z" fill="#fff"/></g><path d="M131.62 53.24l-1 .91v-1.42L132 51.4h1.21v7.18h-1.58zM135.65 51.46h2c1.27 0 2.05.59 2.05 1.92a1.49 1.49 0 0 1-.9 1.47 1.64 1.64 0 0 1 1.14 1.66 2 2 0 0 1-2.28 2.06h-2zm1.6 1.1v1.82h.28c.48 0 .68-.29.68-.94s-.21-.86-.68-.87zm0 2.87v2h.32c.53 0 .79-.29.79-1.06s-.26-1-.78-1zM142.83 58.67c-1.45 0-2.46-.79-2.46-2.72 0-1.7.9-2.66 2-2.66s1.85.6 1.85 2.27v.84h-2.4c.09.74.41 1.06 1.08 1.06a2.06 2.06 0 0 0 1-.24l.21 1.11a2.4 2.4 0 0 1-1.28.34zm-1-3.26h1c0-.78-.16-1-.49-1s-.45.4-.48 1zM146.83 58.1a1 1 0 0 1-1 .59c-.88 0-1.26-.79-1.26-1.64 0-1.07.59-1.66 1.4-1.66a1.1 1.1 0 0 1 .83.31v-.47a.68.68 0 0 0-.76-.73 1.81 1.81 0 0 0-1 .26l-.3-1.1a3 3 0 0 1 1.56-.37 1.7 1.7 0 0 1 1.95 1.9v3.38h-1.49zm0-.56v-1.12a.59.59 0 0 0-.36-.12c-.26 0-.44.21-.44.68s.15.71.44.71a.54.54 0 0 0 .36-.15zM149.07 58.58v-7.42h1.5v4.5l1.11-2.21h1.43l-1.21 2.31 1.3 2.81h-1.63l-1-2.31v2.31zM155.9 58.67c-1.45 0-2.46-.79-2.46-2.72 0-1.7.9-2.66 2-2.66s1.85.6 1.85 2.27v.84h-2.4c.09.74.41 1.06 1.08 1.06a2.06 2.06 0 0 0 1-.24l.21 1.11a2.4 2.4 0 0 1-1.28.34zm-1-3.26h1c0-.78-.16-1-.49-1s-.41.4-.48 1zM157.9 58.58v-5.13h1.5v.91a1.52 1.52 0 0 1 1.25-1V55c-.29 0-1-.09-1.25.36v3.2zM164.57 58.1a1 1 0 0 1-1 .59c-.88 0-1.26-.79-1.26-1.64 0-1.07.59-1.66 1.4-1.66a1.1 1.1 0 0 1 .83.31v-.47a.68.68 0 0 0-.76-.73 1.82 1.82 0 0 0-1 .26l-.3-1.1a3 3 0 0 1 1.56-.37 1.7 1.7 0 0 1 1.95 1.9v3.38h-1.49zm0-.56v-1.12a.59.59 0 0 0-.36-.12c-.26 0-.44.21-.44.68s.15.71.44.71a.54.54 0 0 0 .36-.15zM166.8 58.58v-5.13h1.49v.63a1.47 1.47 0 0 1 1.27-.79c.88 0 1.26.59 1.26 1.61v3.68h-1.49v-3.52c0-.34-.15-.5-.45-.5a.66.66 0 0 0-.6.42v3.6zM174.18 58a1.25 1.25 0 0 1-1.13.72c-1 0-1.67-.85-1.67-2.67s.77-2.74 1.73-2.74a1.12 1.12 0 0 1 1.07.64v-2.79h1.49v7.42h-1.49zm0-.88v-2.3a.67.67 0 0 0-.59-.3c-.41 0-.7.46-.7 1.51s.28 1.45.69 1.45a.71.71 0 0 0 .6-.38zM180.5 58.72c-1.72 0-2.81-1.1-2.81-3.64s1.23-3.73 2.93-3.73a3.3 3.3 0 0 1 1.5.29l-.39 1.27a2.09 2.09 0 0 0-.93-.21c-.93 0-1.46.73-1.46 2.36s.28 2.35 1.21 2.35h.21v-1.63h-.58v-1.25h2.1v3.75a3.19 3.19 0 0 1-1.78.44zM183.1 58.58v-5.13h1.5v.91a1.52 1.52 0 0 1 1.25-1V55c-.29 0-1-.09-1.25.36v3.2zM188.41 58.1a1 1 0 0 1-1 .59c-.88 0-1.26-.79-1.26-1.64 0-1.07.59-1.66 1.4-1.66a1.1 1.1 0 0 1 .83.31v-.47a.68.68 0 0 0-.76-.73 1.81 1.81 0 0 0-1 .26l-.3-1.1a3 3 0 0 1 1.56-.37 1.7 1.7 0 0 1 1.95 1.9v3.38h-1.49zm0-.56v-1.12a.59.59 0 0 0-.36-.12c-.26 0-.44.21-.44.68s.15.71.44.71a.54.54 0 0 0 .36-.15zM191.79 58.68l-1.47-5.23h1.51l.39 1.62.29 1.59.31-1.59.4-1.62h1.34l-2 6.94h-1.31zM130.66 98.74a2 2 0 0 1 .93-1.7 2.27 2.27 0 0 1-.81-1.75 1.82 1.82 0 0 1 1.87-1.95 1.74 1.74 0 0 1 1.88 1.83 2 2 0 0 1-.81 1.65 2.13 2.13 0 0 1 .93 1.81 1.91 1.91 0 0 1-2 2.1 1.85 1.85 0 0 1-1.99-1.99zm2.5 0a1.51 1.51 0 0 0-.67-1.17 1.66 1.66 0 0 0-.48 1.15c0 .5.22.84.59.84s.56-.33.56-.83zm-.36-2.48a1.45 1.45 0 0 0 .47-1c0-.39-.17-.71-.54-.71s-.54.33-.54.7a1.35 1.35 0 0 0 .6 1zM137.74 97.84l-1.53-4.38h1.63l.5 1.62.27 1.16.29-1.16.47-1.62h1.41l-1.45 4.35v2.77h-1.62zM143.19 100.1a1 1 0 0 1-1 .59c-.88 0-1.26-.79-1.26-1.64 0-1.07.59-1.66 1.4-1.66a1.1 1.1 0 0 1 .83.31v-.47a.68.68 0 0 0-.76-.73 1.81 1.81 0 0 0-1 .26l-.3-1.1a3 3 0 0 1 1.56-.37 1.7 1.7 0 0 1 1.95 1.9v3.38h-1.49zm0-.56v-1.12a.59.59 0 0 0-.36-.12c-.26 0-.44.21-.44.68s.15.71.44.71a.54.54 0 0 0 .36-.15zM145.42 100.58v-5.13h1.5v.91a1.52 1.52 0 0 1 1.25-1V97c-.29 0-1-.09-1.25.36v3.2zM151.33 100a1.25 1.25 0 0 1-1.13.72c-1 0-1.67-.85-1.67-2.67s.77-2.74 1.73-2.74a1.12 1.12 0 0 1 1.07.64v-2.79h1.49v7.42h-1.49zm0-.88v-2.3a.67.67 0 0 0-.59-.3c-.41 0-.7.46-.7 1.51s.28 1.45.69 1.45a.71.71 0 0 0 .6-.38zM155.09 100v.56h-1.49v-7.4h1.49V96a1.38 1.38 0 0 1 1.18-.71c1 0 1.63.85 1.63 2.67s-.77 2.74-1.71 2.74a1.18 1.18 0 0 1-1.1-.7zm1.29-2c0-1.06-.28-1.44-.69-1.44a.71.71 0 0 0-.6.38v2.27a.67.67 0 0 0 .59.3c.41-.03.7-.51.7-1.51zM159.2 93.38a.82.82 0 1 1 0 1.64.82.82 0 1 1 0-1.64zm-.75 2.07h1.49v5.12h-1.49zM160.71 100.58v-5.13h1.5v.91a1.52 1.52 0 0 1 1.25-1V97c-.29 0-1-.09-1.25.36v3.2zM166.62 100a1.25 1.25 0 0 1-1.13.72c-1 0-1.67-.85-1.67-2.67s.77-2.74 1.73-2.74a1.12 1.12 0 0 1 1.07.64v-2.79h1.49v7.42h-1.49zm0-.88v-2.3a.67.67 0 0 0-.59-.3c-.41 0-.7.46-.7 1.51s.28 1.45.69 1.45a.71.71 0 0 0 .6-.38zM131.5 137.07l-.85.91v-1.42l1.19-1.33h1.08v7.18h-1.42zM133.34 142.41v-1l1.06-2.13a4.62 4.62 0 0 0 .59-2c0-.47-.21-.79-.67-.79a1.41 1.41 0 0 0-.73.23l-.26-1.22a2.19 2.19 0 0 1 1.27-.33c1.33 0 1.87.83 1.87 2a6.84 6.84 0 0 1-1.05 3l-.52 1h1.55v1.25zM137.67 135.29h2c1 0 1.79.7 1.79 2.18a2.13 2.13 0 0 1-.82 1.83l1 3.12h-1.48l-.85-2.72h-.16v2.72h-1.44zm1.44 1.2v2.11h.27c.5 0 .66-.42.66-1.08s-.16-1-.64-1zM142.39 135.22a.76.76 0 0 1 .75.82.75.75 0 1 1-.75-.82zm-.68 2.07h1.34v5.12h-1.34zM143.41 142.41v-5.12h1.34v.63a1.32 1.32 0 0 1 1.14-.79c.79 0 1.14.59 1.14 1.61v3.68h-1.34v-3.52c0-.34-.14-.5-.4-.5a.6.6 0 0 0-.54.42v3.6zM150.18 142.24a1.56 1.56 0 0 1-.92.27c-1.27 0-2.08-.87-2.08-2.63s.87-2.7 2.09-2.7a1.82 1.82 0 0 1 .93.22l-.32 1.19a1 1 0 0 0-.54-.15c-.5 0-.81.51-.81 1.43s.26 1.41.83 1.41a1 1 0 0 0 .54-.15z" fill="#221f1f"/><path d="M152.12 142.55c-1.14 0-2-.93-2-2.67s.82-2.76 2-2.76 2 1 2 2.76-.86 2.67-2 2.67zm0-1.2c.35 0 .61-.41.61-1.49s-.26-1.54-.61-1.54-.61.47-.61 1.54.26 1.5.61 1.5zM154.26 142.41v-5.12h1.34v.63a1.32 1.32 0 0 1 1.15-.79c.79 0 1.14.59 1.14 1.61v3.68h-1.34v-3.52c0-.34-.14-.5-.4-.5a.6.6 0 0 0-.54.42v3.6zM161 142.24a1.56 1.56 0 0 1-.92.27c-1.27 0-2.08-.87-2.08-2.63s.87-2.7 2.09-2.7a1.82 1.82 0 0 1 .93.22l-.32 1.19a1 1 0 0 0-.54-.15c-.5 0-.81.51-.81 1.43s.26 1.41.83 1.41a1 1 0 0 0 .54-.15zM161.85 135.22a.76.76 0 0 1 .75.82.75.75 0 1 1-.75-.82zm-.67 2.07h1.34v5.12h-1.34zM163 141v-2.6h-.38v-1.11h.38v-1.5h1.35v1.5h.65v1.11h-.63v2.42c0 .36.2.44.38.44a.68.68 0 0 0 .25 0v1.18a1.72 1.72 0 0 1-.5.08c-.95-.04-1.5-.52-1.5-1.52zM167 142.55c-1.15 0-2-.93-2-2.67s.82-2.76 2-2.76 2 1 2 2.76-.87 2.67-2 2.67zm0-1.2c.35 0 .61-.41.61-1.49s-.26-1.54-.61-1.54-.61.47-.61 1.54.25 1.5.61 1.5zM170 142.41l.44-7.12h1.42l.58 3 .14 1.09.19-1.09.64-3h1.34l.45 7.12h-1.4l-.13-2.83v-1.48l-.22 1.48-.56 2.83H172l-.52-2.83-.19-1.48v1.48l-.15 2.83zM177.53 142.51c-1.3 0-2.21-.79-2.21-2.72 0-1.7.81-2.66 1.83-2.66s1.67.6 1.67 2.27v.84h-2.15c.08.74.37 1.06 1 1.06a1.7 1.7 0 0 0 .9-.24l.19 1.11a2 2 0 0 1-1.23.34zm-.87-3.26h.94c0-.78-.14-1-.44-1s-.47.4-.5 1z" fill="#221f1f"/><path d="M178.68 142.41l1.14-2.63-1.09-2.49h1.41l.36.87.21.72.21-.72.32-.87h1.2l-1.08 2.52 1.12 2.6h-1.41l-.38-.92-.21-.77-.24.77-.36.92zM183.21 135.22a.76.76 0 0 1 .75.82.75.75 0 1 1-.75-.82zm-.68 2.07h1.34v5.12h-1.34zM187.06 142.24a1.56 1.56 0 0 1-.92.27c-1.27 0-2.08-.87-2.08-2.63s.87-2.7 2.09-2.7a1.82 1.82 0 0 1 .93.22l-.32 1.19a1 1 0 0 0-.54-.15c-.5 0-.81.51-.81 1.43s.26 1.41.83 1.41a1 1 0 0 0 .54-.15z" fill="#221f1f"/><path d="M189 141.94a.9.9 0 0 1-.86.59c-.79 0-1.14-.79-1.14-1.64 0-1.07.53-1.66 1.26-1.66a.94.94 0 0 1 .74.31v-.47a.64.64 0 0 0-.68-.73 1.51 1.51 0 0 0-.85.26l-.27-1.1a2.46 2.46 0 0 1 1.4-.37c1.23 0 1.75.7 1.75 1.9v3.38H189zm0-.56v-1.12a.5.5 0 0 0-.32-.12c-.23 0-.39.21-.39.68s.14.71.39.71a.46.46 0 0 0 .32-.15zM190.68 142.41v-5.12H192v.63a1.32 1.32 0 0 1 1.15-.79c.79 0 1.14.59 1.14 1.61v3.68H193v-3.52c0-.34-.14-.5-.4-.5a.6.6 0 0 0-.54.42v3.6zM196.41 142.55c-1.14 0-2-.93-2-2.67s.82-2.76 2-2.76 2 1 2 2.76-.85 2.67-2 2.67zm0-1.2c.35 0 .61-.41.61-1.49s-.26-1.54-.61-1.54-.61.47-.61 1.54.26 1.5.61 1.5zM134.21 182.44v1.47h-1.45v-1.47h-2.13v-.93l1.62-4.71h2v4.54h.55v1.1zm-1.45-1.1v-3.24l-.27 1.06-.72 2.18zM136.76 176.79h3.42V178h-1.81v1.83H140V181h-1.61v2.86h-1.62zM141.61 176.72a.82.82 0 1 1 0 1.64.82.82 0 1 1 0-1.64zm-.75 2.07h1.49v5.12h-1.49zM143.12 183.91v-5.12h1.49v.63a1.47 1.47 0 0 1 1.27-.79c.88 0 1.26.59 1.26 1.61v3.68h-1.49v-3.52c0-.34-.15-.5-.45-.5a.66.66 0 0 0-.6.42v3.6zM147.89 183.91v-7.41h1.5v4.5l1.11-2.21h1.43l-1.21 2.31 1.3 2.81h-1.62l-1-2.31v2.31zM154.46 183.44a1 1 0 0 1-1 .59c-.88 0-1.26-.79-1.26-1.64 0-1.07.59-1.66 1.4-1.66a1.1 1.1 0 0 1 .83.31v-.47a.68.68 0 0 0-.76-.73 1.82 1.82 0 0 0-1 .26l-.3-1.1a3 3 0 0 1 1.56-.37 1.7 1.7 0 0 1 1.95 1.9v3.38h-1.49zm0-.56v-1.12a.59.59 0 0 0-.36-.12c-.26 0-.44.21-.44.68s.15.71.44.71a.54.54 0 0 0 .36-.15zM131.62 219.4l-1 .91v-1.41l1.32-1.33h1.21v7.18h-1.58zM135 219.4l-1 .91v-1.41l1.32-1.33h1.21v7.18H135zM139 217.62h2a2.31 2.31 0 0 1 0 4.6h-.43v2.52H139zm1.61 1.2v2.27h.29c.54 0 .74-.39.74-1.14s-.2-1.13-.74-1.13zM144.5 217.55a.82.82 0 1 1 0 1.64.82.82 0 1 1 0-1.64zm-.75 2.07h1.49v5.12h-1.49zM146 224.74v-5.12h1.49v.63a1.47 1.47 0 0 1 1.27-.79c.88 0 1.26.59 1.26 1.61v3.68h-1.49v-3.52c0-.34-.15-.5-.45-.5a.66.66 0 0 0-.6.42v3.6zM153.92 224.57a1.88 1.88 0 0 1-1 .27c-1.42 0-2.31-.87-2.31-2.63s1-2.7 2.33-2.7a2.21 2.21 0 0 1 1 .22l-.35 1.19a1.18 1.18 0 0 0-.6-.15c-.55 0-.9.51-.9 1.43s.29 1.41.92 1.41a1.21 1.21 0 0 0 .6-.15zM154.46 224.74v-7.42H156v2.92a1.47 1.47 0 0 1 1.27-.79c.88 0 1.26.59 1.26 1.61v3.68H157v-3.52c0-.34-.15-.5-.45-.5a.66.66 0 0 0-.6.42v3.6zM161.22 224.89c-1.27 0-2.19-.93-2.19-2.67s.91-2.76 2.19-2.76 2.19 1 2.19 2.76-.92 2.67-2.19 2.67zm0-1.2c.39 0 .67-.41.67-1.49s-.29-1.54-.67-1.54-.68.47-.68 1.54.29 1.49.68 1.49zM165.43 217.62h3.42v1.21H167v1.83h1.61v1.22H167v2.86h-1.62zM171.55 224.27a1 1 0 0 1-1 .59c-.88 0-1.26-.79-1.26-1.64 0-1.07.59-1.66 1.4-1.66a1.1 1.1 0 0 1 .83.31v-.47a.68.68 0 0 0-.76-.73 1.81 1.81 0 0 0-1 .26l-.3-1.1a3 3 0 0 1 1.56-.37 1.7 1.7 0 0 1 1.95 1.9v3.38h-1.49zm0-.56v-1.12a.59.59 0 0 0-.36-.12c-.26 0-.44.21-.44.68s.15.71.44.71a.54.54 0 0 0 .36-.15zM176.93 224.57a1.88 1.88 0 0 1-1 .27c-1.42 0-2.31-.87-2.31-2.63s1-2.7 2.33-2.7a2.21 2.21 0 0 1 1 .22l-.35 1.19a1.18 1.18 0 0 0-.6-.15c-.55 0-.9.51-.9 1.43s.29 1.41.92 1.41a1.21 1.21 0 0 0 .6-.15zM177.64 223.29v-2.56h-.42v-1.11h.42v-1.5h1.5v1.5h.7v1.11h-.7v2.42a.38.38 0 0 0 .43.44.84.84 0 0 0 .28 0v1.18a2.12 2.12 0 0 1-.56.08c-1.06-.04-1.65-.49-1.65-1.56zM182.43 224.89c-1.27 0-2.19-.93-2.19-2.67s.91-2.76 2.19-2.76 2.19 1 2.19 2.76-.92 2.67-2.19 2.67zm0-1.2c.39 0 .67-.41.67-1.49s-.29-1.54-.67-1.54-.68.47-.68 1.54.25 1.49.68 1.49zM185.19 224.74v-5.12h1.5v.91a1.52 1.52 0 0 1 1.25-1v1.63c-.29 0-1-.09-1.25.36v3.2zM189.64 224.85l-1.47-5.23h1.51l.39 1.62.29 1.59.31-1.59.4-1.62h1.34l-2 6.94h-1.31zM131.62 260.9l-1 .91v-1.41l1.32-1.33h1.21v7.18h-1.58zM137.58 264.77v1.47h-1.45v-1.47H134v-.93l1.62-4.71h2v4.54h.55v1.1zm-1.45-1.1v-3.24l-.27 1.06-.72 2.18zM139.76 259.12h1.63l.67 3.5.23 1.51.22-1.51.64-3.5h1.44l-1.59 7.12h-1.65zM147.35 266.34c-1.45 0-2.46-.79-2.46-2.72 0-1.7.9-2.66 2-2.66s1.85.6 1.85 2.27v.84h-2.4c.09.74.41 1.06 1.08 1.06a2.06 2.06 0 0 0 1-.24l.21 1.11a2.4 2.4 0 0 1-1.28.34zm-1-3.26h1c0-.78-.16-1-.49-1s-.44.4-.48 1zM149.35 266.24v-5.12h1.5v.88a1.52 1.52 0 0 1 1.25-1v1.63c-.29 0-1-.09-1.25.36v3.2zM154.28 262.15c-.33 0-.5.11-.5.3s.12.29.33.41a8.24 8.24 0 0 1 1 .56 1.55 1.55 0 0 1 .63 1.29 1.62 1.62 0 0 1-1.83 1.65 2.55 2.55 0 0 1-1.5-.39l.36-1.07a2 2 0 0 0 1.06.32c.44 0 .53-.19.53-.41s-.1-.25-.27-.35a6.74 6.74 0 0 1-1-.62 1.46 1.46 0 0 1-.54-1.23 1.52 1.52 0 0 1 1.72-1.61 2.82 2.82 0 0 1 1.41.32l-.33 1.09a2 2 0 0 0-1.07-.26zM158.27 265.77a1 1 0 0 1-1 .59c-.88 0-1.26-.79-1.26-1.64 0-1.07.59-1.66 1.4-1.66a1.1 1.1 0 0 1 .83.31v-.47a.68.68 0 0 0-.76-.73 1.81 1.81 0 0 0-1 .26l-.3-1.1a3 3 0 0 1 1.56-.37 1.7 1.7 0 0 1 1.95 1.9v3.38h-1.49zm0-.56v-1.12a.59.59 0 0 0-.36-.12c-.26 0-.44.21-.44.68s.15.71.44.71a.54.54 0 0 0 .36-.15zM161.24 259a.82.82 0 1 1 0 1.64.82.82 0 1 1 0-1.64zm-.75 2.07H162v5.12h-1.49zM162.75 258.83h1.5v7.42h-1.5zM165.05 258.83h1.5v7.42h-1.5zM169.61 266.34c-1.45 0-2.46-.79-2.46-2.72 0-1.7.9-2.66 2-2.66s1.85.6 1.85 2.27v.84h-2.4c.09.74.41 1.06 1.08 1.06a2.06 2.06 0 0 0 1-.24l.21 1.11a2.4 2.4 0 0 1-1.28.34zm-1-3.26h1c0-.78-.16-1-.49-1s-.45.4-.48 1zM173.23 262.15c-.33 0-.49.11-.49.3s.12.29.33.41a8.24 8.24 0 0 1 1 .56 1.55 1.55 0 0 1 .63 1.29 1.62 1.62 0 0 1-1.83 1.65 2.55 2.55 0 0 1-1.5-.39l.36-1.07a2 2 0 0 0 1.06.32c.44 0 .53-.19.53-.41s-.1-.25-.27-.35a6.74 6.74 0 0 1-1-.62 1.46 1.46 0 0 1-.54-1.23 1.52 1.52 0 0 1 1.72-1.61 2.82 2.82 0 0 1 1.41.32l-.33 1.09a2 2 0 0 0-1.08-.26zM131 307.41l1.5-5.87h-1.82v-1.25h3.45v1l-1.57 6.15zM138.92 306.17h-1.54l-.26 1.25h-1.37l1.65-7.12h1.71l1.64 7.12h-1.6zm-1.31-1.17h1.08l-.38-1.87-.14-1-.16 1zM141.24 307.41v-5.12h1.5v.91a1.52 1.52 0 0 1 1.25-1v1.63c-.29 0-1-.09-1.25.36v3.2zM145.28 300.22a.82.82 0 1 1 0 1.64.82.82 0 1 1 0-1.64zm-.75 2.07H146v5.12h-1.49zM149 307.51c-1.45 0-2.46-.79-2.46-2.72 0-1.7.9-2.66 2-2.66s1.85.6 1.85 2.27v.84h-2.4c.09.74.41 1.06 1.08 1.06a2.06 2.06 0 0 0 1-.24l.21 1.11a2.4 2.4 0 0 1-1.28.34zm-1-3.26h1c0-.78-.16-1-.49-1s-.39.4-.43 1zM151.22 306v-2.6h-.42v-1.11h.42v-1.5h1.5v1.5h.7v1.11h-.7v2.42a.38.38 0 0 0 .43.44.84.84 0 0 0 .28 0v1.18a2.12 2.12 0 0 1-.56.08c-1.06-.04-1.65-.52-1.65-1.52zM156.29 307.51c-1.45 0-2.46-.79-2.46-2.72 0-1.7.9-2.66 2-2.66s1.85.6 1.85 2.27v.84h-2.4c.09.74.41 1.06 1.08 1.06a2.06 2.06 0 0 0 1-.24l.21 1.11a2.4 2.4 0 0 1-1.28.34zm-1-3.26h1c0-.78-.16-1-.49-1s-.44.4-.48 1zM130.67 349.58v-1l1.18-2.13a4.27 4.27 0 0 0 .66-2 .7.7 0 0 0-.75-.79 1.69 1.69 0 0 0-.82.23l-.29-1.22a2.64 2.64 0 0 1 1.42-.33 1.84 1.84 0 0 1 2.08 2 6.4 6.4 0 0 1-1.17 3l-.58 1h1.72v1.25zM136.24 342.46h2a2.31 2.31 0 0 1 0 4.6h-.43v2.52h-1.61zm1.61 1.2v2.27h.29c.54 0 .74-.39.74-1.14s-.2-1.13-.74-1.13zM143.43 349a1.39 1.39 0 0 1-1.19.69c-.88 0-1.3-.58-1.3-1.6v-3.68h1.49V348c0 .34.15.5.45.5a.65.65 0 0 0 .55-.33v-3.69h1.49v5.12h-1.49zM147.2 349v.56h-1.5v-7.42h1.49V345a1.38 1.38 0 0 1 1.18-.71c1 0 1.63.85 1.63 2.67s-.77 2.74-1.71 2.74a1.18 1.18 0 0 1-1.09-.7zm1.29-2.05c0-1.06-.28-1.44-.69-1.44a.71.71 0 0 0-.6.38v2.27a.67.67 0 0 0 .59.3c.4.02.7-.46.7-1.46zM152.07 349v.56h-1.49v-7.42h1.49V345a1.38 1.38 0 0 1 1.18-.71c1 0 1.63.85 1.63 2.67s-.77 2.74-1.71 2.74a1.18 1.18 0 0 1-1.1-.7zm1.29-2.05c0-1.06-.28-1.44-.69-1.44a.71.71 0 0 0-.6.38v2.27a.67.67 0 0 0 .59.3c.41.02.7-.46.7-1.46zM157.71 349.67c-1.45 0-2.46-.79-2.46-2.72 0-1.7.9-2.66 2-2.66s1.85.6 1.85 2.27v.84h-2.4c.09.74.41 1.06 1.08 1.06a2.06 2.06 0 0 0 1-.24l.21 1.11a2.4 2.4 0 0 1-1.28.34zm-1-3.26h1c0-.78-.16-1-.49-1s-.44.4-.48 1zM159.72 342.16h1.5v7.42h-1.5zM162 342.16h1.5v7.42H162zM165.45 349.68l-1.45-5.23h1.51l.39 1.62.29 1.59.31-1.59.4-1.62h1.34l-2 6.94H165zM52.75 45.31l-1 .91V44.8l1.32-1.33h1.21v7.18h-1.53zM56.78 43.53h2c1.27 0 2.05.59 2.05 1.92a1.49 1.49 0 0 1-.9 1.47 1.64 1.64 0 0 1 1.14 1.66 2 2 0 0 1-2.28 2.06h-2zm1.6 1.1v1.82h.28c.48 0 .68-.29.68-.94s-.21-.86-.68-.87zm0 2.87v2h.32c.53 0 .79-.29.79-1.06s-.26-1-.78-1zM64 50.74c-1.44 0-2.46-.79-2.46-2.72 0-1.7.9-2.66 2-2.66s1.85.6 1.85 2.27v.84H63c.09.74.41 1.06 1.08 1.06a2.07 2.07 0 0 0 1-.24l.21 1.11a2.4 2.4 0 0 1-1.29.34zm-1-3.26h1c0-.78-.16-1-.48-1s-.52.4-.52 1zM68 50.17a1 1 0 0 1-1 .59c-.88 0-1.26-.79-1.26-1.64 0-1.07.59-1.66 1.4-1.66a1.1 1.1 0 0 1 .83.31v-.47a.68.68 0 0 0-.76-.73 1.82 1.82 0 0 0-1 .26l-.3-1.1a3 3 0 0 1 1.56-.37 1.7 1.7 0 0 1 1.95 1.9v3.38H68zm0-.56v-1.12a.59.59 0 0 0-.36-.12c-.26 0-.44.21-.44.68s.15.71.44.71a.54.54 0 0 0 .36-.15zM70.2 50.65v-7.42h1.5v4.5l1.11-2.21h1.43L73 47.83l1.3 2.81h-1.59l-1-2.31v2.31zM77 50.74c-1.44 0-2.46-.79-2.46-2.72 0-1.7.9-2.66 2-2.66s1.85.6 1.85 2.27v.84h-2.4c.09.74.41 1.06 1.08 1.06a2.07 2.07 0 0 0 1-.24l.21 1.11a2.4 2.4 0 0 1-1.28.34zm-1-3.26h1c0-.78-.16-1-.48-1s-.42.4-.46 1zM79 50.65v-5.13h1.5v.91a1.52 1.52 0 0 1 1.25-1v1.63c-.29 0-1-.09-1.25.36v3.2zM85.7 50.17a1 1 0 0 1-1 .59c-.88 0-1.26-.79-1.26-1.64 0-1.07.59-1.66 1.4-1.66a1.1 1.1 0 0 1 .83.31v-.47a.68.68 0 0 0-.76-.73 1.82 1.82 0 0 0-1 .26l-.3-1.1a3 3 0 0 1 1.56-.37 1.7 1.7 0 0 1 1.95 1.9v3.38H85.7zm0-.56v-1.12a.59.59 0 0 0-.36-.12c-.26 0-.44.21-.44.68s.15.71.44.71a.54.54 0 0 0 .36-.15zM87.93 50.65v-5.13h1.49v.63a1.47 1.47 0 0 1 1.27-.79c.89 0 1.31.64 1.31 1.64v3.68h-1.53v-3.55c0-.34-.15-.5-.45-.5a.66.66 0 0 0-.6.42v3.6zM95.31 50a1.25 1.25 0 0 1-1.13.72c-1 0-1.67-.85-1.67-2.67s.77-2.74 1.73-2.74a1.12 1.12 0 0 1 1.07.64v-2.72h1.49v7.42h-1.49zm0-.88v-2.23a.67.67 0 0 0-.59-.3c-.41 0-.7.46-.7 1.51s.28 1.45.69 1.45a.71.71 0 0 0 .6-.39zM101.63 50.79c-1.72 0-2.81-1.1-2.81-3.64s1.23-3.73 2.93-3.73a3.3 3.3 0 0 1 1.5.29l-.39 1.29a2.09 2.09 0 0 0-.93-.21c-.93 0-1.46.73-1.46 2.36s.28 2.35 1.21 2.35h.21v-1.65h-.58V46.6h2.1v3.75a3.2 3.2 0 0 1-1.78.44zM104.23 50.65v-5.13h1.5v.91a1.52 1.52 0 0 1 1.25-1v1.63c-.29 0-1-.09-1.25.36v3.2zM109.55 50.17a1 1 0 0 1-1 .59c-.88 0-1.26-.79-1.26-1.64 0-1.07.59-1.66 1.4-1.66a1.1 1.1 0 0 1 .83.31v-.47a.68.68 0 0 0-.76-.73 1.82 1.82 0 0 0-1 .26l-.3-1.1a3 3 0 0 1 1.56-.37 1.7 1.7 0 0 1 1.95 1.9v3.38h-1.49zm0-.56v-1.12a.59.59 0 0 0-.36-.12c-.26 0-.44.21-.44.68s.15.71.44.71a.54.54 0 0 0 .36-.15zM112.92 50.75l-1.47-5.23H113l.39 1.62.29 1.59.31-1.59.4-1.62h1.34l-2 6.94h-1.31zM52.75 64.31l-1 .91V63.8l1.32-1.33h1.21v7.18h-1.53zM55.24 66.91a5.42 5.42 0 0 1 2-4.38H59v.09a5.43 5.43 0 0 0-2 2.83 1.21 1.21 0 0 1 1-.48c.85 0 1.55.71 1.55 2.27s-.82 2.55-2.1 2.55-2.21-.93-2.21-2.88zm2.71.32c0-.93-.26-1.15-.59-1.15a.74.74 0 0 0-.56.31v.58c0 1.31.23 1.64.59 1.64s.55-.39.55-1.38zM61.56 62.53h1.63v5.89h1.63v1.23h-3.26zM67.45 69.17a1 1 0 0 1-1 .59c-.88 0-1.26-.79-1.26-1.64 0-1.07.59-1.66 1.4-1.66a1.1 1.1 0 0 1 .83.31v-.47a.68.68 0 0 0-.76-.73 1.82 1.82 0 0 0-1 .26l-.3-1.1a3 3 0 0 1 1.64-.37 1.7 1.7 0 0 1 1.95 1.9v3.38h-1.5zm0-.56v-1.12a.59.59 0 0 0-.36-.12c-.26 0-.44.21-.44.68s.15.71.44.71a.54.54 0 0 0 .36-.15zM75.06 69.47a2.28 2.28 0 0 1-1.24.29c-1.81 0-2.93-1.18-2.93-3.59s1.25-3.75 2.89-3.75a2.48 2.48 0 0 1 1.28.27l-.36 1.21a2 2 0 0 0-.81-.16c-.89 0-1.36.87-1.36 2.42s.48 2.3 1.39 2.3a1.76 1.76 0 0 0 .78-.18zM77.64 69.17a1 1 0 0 1-1 .59c-.88 0-1.26-.79-1.26-1.64 0-1.07.59-1.66 1.4-1.66a1.1 1.1 0 0 1 .83.31v-.47a.68.68 0 0 0-.76-.73 1.82 1.82 0 0 0-1 .26l-.3-1.1a3 3 0 0 1 1.56-.37 1.7 1.7 0 0 1 1.95 1.9v3.38h-1.42zm0-.56v-1.12a.59.59 0 0 0-.36-.12c-.26 0-.44.21-.44.68s.15.71.44.71a.54.54 0 0 0 .36-.15zM79.87 69.65v-5.13h1.49v.6a1.35 1.35 0 0 1 1.17-.76 1 1 0 0 1 1.1.9 1.46 1.46 0 0 1 1.28-.9c.85 0 1.22.59 1.22 1.61v3.68h-1.49v-3.52c0-.34-.1-.5-.38-.5a.56.56 0 0 0-.51.38v3.64h-1.5v-3.52c0-.34-.1-.5-.38-.5a.56.56 0 0 0-.51.38v3.64zM88.88 69.17a1 1 0 0 1-1 .59c-.88 0-1.26-.79-1.26-1.64 0-1.07.59-1.66 1.4-1.66a1.1 1.1 0 0 1 .83.31v-.47a.68.68 0 0 0-.76-.73 1.82 1.82 0 0 0-1 .26l-.3-1.1a3 3 0 0 1 1.56-.37 1.7 1.7 0 0 1 1.95 1.9v3.38h-1.42zm0-.56v-1.12a.59.59 0 0 0-.36-.12c-.26 0-.44.21-.44.68s.15.71.44.71a.54.54 0 0 0 .36-.15zM91.11 69.65v-5.13h1.5v.91a1.52 1.52 0 0 1 1.25-1v1.63c-.29 0-1-.09-1.25.36v3.2zM96.4 69.79c-1.27 0-2.19-.93-2.19-2.67s.91-2.76 2.19-2.76 2.19 1 2.19 2.76-.92 2.67-2.19 2.67zm0-1.2c.39 0 .67-.41.67-1.49s-.29-1.54-.67-1.54-.67.47-.67 1.54.27 1.49.67 1.49zM99.16 69.65v-5.13h1.49v.63a1.47 1.47 0 0 1 1.27-.79c.88 0 1.26.59 1.26 1.61v3.68h-1.48v-3.52c0-.34-.15-.5-.45-.5a.66.66 0 0 0-.6.42v3.6zM106.19 69.74c-1.44 0-2.46-.79-2.46-2.72 0-1.7.9-2.66 2-2.66s1.85.6 1.85 2.27v.84h-2.4c.09.74.41 1.06 1.08 1.06a2.07 2.07 0 0 0 1-.24l.21 1.11a2.4 2.4 0 0 1-1.28.34zm-1-3.26h1c0-.78-.16-1-.48-1s-.45.4-.49 1zM108.2 69.65v-5.13h1.5v.91a1.52 1.52 0 0 1 1.25-1v1.63c-.29 0-1-.09-1.25.36v3.2zM113.51 69.17a1 1 0 0 1-1 .59c-.88 0-1.26-.79-1.26-1.64 0-1.07.59-1.66 1.4-1.66a1.1 1.1 0 0 1 .83.31v-.47a.68.68 0 0 0-.76-.73 1.82 1.82 0 0 0-1 .26l-.3-1.1a3 3 0 0 1 1.56-.37 1.7 1.7 0 0 1 1.95 1.9v3.38h-1.49zm0-.56v-1.12a.59.59 0 0 0-.36-.12c-.26 0-.44.21-.44.68s.15.71.44.71a.54.54 0 0 0 .36-.15zM51.79 90.31a2 2 0 0 1 .93-1.7 2.27 2.27 0 0 1-.81-1.75 1.82 1.82 0 0 1 1.87-1.95 1.74 1.74 0 0 1 1.88 1.83 2 2 0 0 1-.81 1.65 2.13 2.13 0 0 1 .93 1.81 1.91 1.91 0 0 1-2 2.1 1.85 1.85 0 0 1-1.99-1.99zm2.5 0a1.5 1.5 0 0 0-.67-1.17 1.66 1.66 0 0 0-.48 1.15c0 .5.22.84.59.84s.56-.33.56-.83zm-.36-2.48a1.45 1.45 0 0 0 .47-1c0-.39-.17-.71-.54-.71s-.54.33-.54.7a1.35 1.35 0 0 0 .61 1zM58.87 89.41L57.34 85H59l.5 1.62.27 1.16.29-1.16.48-1.62h1.41l-1.45 4.35v2.77h-1.63zM64.32 91.67a1 1 0 0 1-1 .59c-.88 0-1.26-.79-1.26-1.64 0-1.07.59-1.66 1.4-1.66a1.1 1.1 0 0 1 .83.31v-.47a.68.68 0 0 0-.76-.73 1.82 1.82 0 0 0-1 .26l-.3-1.1a3 3 0 0 1 1.56-.37 1.7 1.7 0 0 1 1.95 1.9v3.38h-1.42zm0-.56V90a.59.59 0 0 0-.36-.12c-.26 0-.44.21-.44.68s.15.71.44.71a.54.54 0 0 0 .36-.16zM66.55 92.15V87h1.5v.91a1.52 1.52 0 0 1 1.25-1v1.63c-.29 0-1-.09-1.25.36v3.2zM72.46 91.55a1.25 1.25 0 0 1-1.13.72c-1 0-1.67-.85-1.67-2.67s.77-2.74 1.73-2.74a1.12 1.12 0 0 1 1.07.64v-2.77H74v7.42h-1.54zm0-.88v-2.28a.67.67 0 0 0-.59-.3c-.41 0-.7.46-.7 1.51s.28 1.45.69 1.45a.71.71 0 0 0 .6-.39zM76.22 91.59v.56h-1.49v-7.42h1.49v2.84a1.38 1.38 0 0 1 1.18-.71c1 0 1.63.85 1.63 2.67s-.77 2.74-1.71 2.74a1.18 1.18 0 0 1-1.1-.68zm1.29-2.05c0-1.06-.28-1.44-.69-1.44a.71.71 0 0 0-.6.38v2.27a.67.67 0 0 0 .59.3c.41-.05.7-.46.7-1.52zM80.33 85a.82.82 0 1 1 0 1.64.82.82 0 1 1 0-1.64zm-.75 2h1.49v5.12h-1.49zM81.84 92.15V87h1.5v.91a1.52 1.52 0 0 1 1.25-1v1.63c-.29 0-1-.09-1.25.36v3.2zM87.75 91.55a1.25 1.25 0 0 1-1.13.72c-1 0-1.67-.85-1.67-2.67s.77-2.74 1.73-2.74a1.12 1.12 0 0 1 1.07.64v-2.77h1.49v7.42h-1.49zm0-.88v-2.28a.67.67 0 0 0-.59-.3c-.41 0-.7.46-.7 1.51s.28 1.45.69 1.45a.71.71 0 0 0 .6-.39zM52.25 111.06a5.65 5.65 0 0 0 2.06-2.81 1.23 1.23 0 0 1-.94.46c-.85 0-1.55-.71-1.55-2.27s.82-2.55 2.1-2.55 2.13.93 2.13 2.84a5.5 5.5 0 0 1-1.94 4.42h-1.86zm2.23-3.78v-.62c0-1.27-.23-1.6-.59-1.6s-.58.39-.58 1.38.26 1.15.59 1.15a.71.71 0 0 0 .59-.31zM58.19 104h1.63v5.89h1.63v1.23h-3.26zM64.06 111.29c-1.27 0-2.19-.93-2.19-2.67s.91-2.76 2.19-2.76 2.19 1 2.19 2.76-.91 2.67-2.19 2.67zm0-1.2c.39 0 .67-.41.67-1.49s-.29-1.54-.67-1.54-.67.47-.67 1.54.28 1.49.67 1.49zM66.82 111.15v-7.42h1.5v4.5l1.12-2.23h1.43l-1.21 2.31 1.3 2.81h-1.63l-1-2.31v2.31zM73.4 110.67a1 1 0 0 1-1 .59c-.88 0-1.26-.79-1.26-1.64 0-1.07.59-1.66 1.4-1.66a1.1 1.1 0 0 1 .83.31v-.47a.68.68 0 0 0-.76-.73 1.82 1.82 0 0 0-1 .26l-.3-1.1a3 3 0 0 1 1.56-.37 1.7 1.7 0 0 1 1.95 1.9v3.38H73.4zm0-.56V109a.59.59 0 0 0-.36-.12c-.26 0-.44.21-.44.68s.15.71.44.71a.54.54 0 0 0 .36-.16zM75.64 103.73h1.5v7.42h-1.5zM51.67 133.49l.38-1.22a1.51 1.51 0 0 0 .77.18c.51 0 .9-.38.9-1.08s-.32-1.1-1-1.1a1.78 1.78 0 0 0-.66.12l.24-3.83h2.81v1.27h-1.62l-.09 1.33a1.94 1.94 0 0 1 1.87 2.2 2.21 2.21 0 0 1-2.3 2.48 2.52 2.52 0 0 1-1.3-.35zM57.43 126.53h1.63v5.89h1.63v1.23h-3.26zM63.77 133.11a1.39 1.39 0 0 1-1.19.69c-.88 0-1.3-.58-1.3-1.6v-3.68h1.49V132c0 .34.15.5.45.5a.64.64 0 0 0 .55-.33v-3.69h1.49v5.12h-1.49zM66 133.65v-5.12h1.49v.63a1.47 1.47 0 0 1 1.27-.79c.88 0 1.26.59 1.26 1.61v3.68h-1.45v-3.52c0-.34-.15-.5-.45-.5a.66.66 0 0 0-.6.42v3.6zM72.51 135.56c-1.25 0-2-.42-2-1.16a1 1 0 0 1 .67-.9 1 1 0 0 1-.38-.79 1.33 1.33 0 0 1 .68-1.18 1.54 1.54 0 0 1-.72-1.41 1.7 1.7 0 0 1 1.82-1.76 1.9 1.9 0 0 1 1.2.41 1.48 1.48 0 0 1 1.1-.37v1.06a2.08 2.08 0 0 0-.63.07 1.32 1.32 0 0 1 .11.63 1.65 1.65 0 0 1-1.8 1.65 2.48 2.48 0 0 1-.46 0 .47.47 0 0 0-.14.32c0 .18.13.29.38.29h.89c1 0 1.57.47 1.57 1.44s-.68 1.7-2.29 1.7zm.87-1.47c0-.2-.14-.37-.44-.37h-1a.5.5 0 0 0-.15.37c0 .32.22.52.78.52s.8-.22.8-.52zm-.86-3.18c.25 0 .46-.19.46-.78s-.21-.81-.46-.81-.45.21-.45.81.22.77.45.77zM77.81 130.91l-1.53-4.38h1.64l.5 1.62.27 1.16.29-1.16.48-1.62h1.41l-1.45 4.35v2.77h-1.61zM83.25 133.17a1 1 0 0 1-1 .59c-.88 0-1.26-.79-1.26-1.64 0-1.07.59-1.66 1.4-1.66a1.1 1.1 0 0 1 .83.31v-.47a.68.68 0 0 0-.76-.73 1.82 1.82 0 0 0-1 .26l-.3-1.1a3 3 0 0 1 1.56-.37 1.7 1.7 0 0 1 1.95 1.9v3.38h-1.42zm0-.56v-1.12a.59.59 0 0 0-.36-.12c-.26 0-.44.21-.44.68s.15.71.44.71a.54.54 0 0 0 .36-.15zM86.21 126.45a.82.82 0 1 1 0 1.64.82.82 0 1 1 0-1.64zm-.75 2.07H87v5.12h-1.54zM52.63 147.31l-.85.91v-1.42l1.22-1.33h1v7.18h-1.37zM54.48 152.65v-1l1.06-2.13a4.62 4.62 0 0 0 .59-2c0-.47-.21-.79-.68-.79a1.41 1.41 0 0 0-.73.23l-.27-1.22a2.19 2.19 0 0 1 1.27-.33c1.33 0 1.87.83 1.87 2a6.84 6.84 0 0 1-1.05 3l-.52 1h1.55v1.25zM58.8 145.53h2c1 0 1.79.7 1.79 2.18a2.13 2.13 0 0 1-.82 1.83l1 3.12h-1.52l-.85-2.72h-.16v2.72H58.8zm1.44 1.2v2.11h.27c.5 0 .66-.42.66-1.08s-.16-1-.64-1zM63.52 145.45a.76.76 0 0 1 .75.82.75.75 0 1 1-.75-.82zm-.67 2.07h1.34v5.12h-1.34zM64.54 152.65v-5.12h1.34v.63a1.32 1.32 0 0 1 1.15-.79c.79 0 1.14.59 1.14 1.61v3.68h-1.35v-3.52c0-.34-.14-.5-.4-.5a.6.6 0 0 0-.54.42v3.6zM71.32 152.48a1.56 1.56 0 0 1-.92.27c-1.27 0-2.08-.87-2.08-2.63s.87-2.7 2.09-2.7a1.82 1.82 0 0 1 .93.22l-.34 1.18a1 1 0 0 0-.54-.15c-.5 0-.81.51-.81 1.43s.26 1.41.83 1.41a1 1 0 0 0 .54-.15z" fill="#221f1f"/><path d="M73.25 152.79c-1.15 0-2-.93-2-2.67s.82-2.76 2-2.76 2 1 2 2.76-.86 2.67-2 2.67zm0-1.2c.35 0 .61-.41.61-1.49s-.26-1.54-.61-1.54-.61.47-.61 1.54.26 1.49.61 1.49zM75.4 152.65v-5.12h1.34v.63a1.32 1.32 0 0 1 1.15-.79c.79 0 1.14.59 1.14 1.61v3.68h-1.35v-3.52c0-.34-.14-.5-.4-.5a.6.6 0 0 0-.54.42v3.6zM82.17 152.48a1.56 1.56 0 0 1-.92.27c-1.27 0-2.08-.87-2.08-2.63s.87-2.7 2.09-2.7a1.82 1.82 0 0 1 .93.22l-.32 1.19a1 1 0 0 0-.54-.15c-.5 0-.81.51-.81 1.43s.26 1.41.83 1.41a1 1 0 0 0 .54-.15zM83 145.45a.76.76 0 0 1 .75.82.75.75 0 1 1-.75-.82zm-.68 2.07h1.34v5.12H82.3zM84.15 151.19v-2.56h-.38v-1.11h.38V146h1.35v1.5h.63v1.11h-.63v2.42c0 .36.2.44.38.44a.68.68 0 0 0 .25 0v1.18a1.72 1.72 0 0 1-.5.08c-.95-.02-1.48-.46-1.48-1.54z" fill="#221f1f"/><path d="M88.12 152.79c-1.15 0-2-.93-2-2.67s.82-2.76 2-2.76 2 1 2 2.76-.86 2.67-2 2.67zm0-1.2c.35 0 .61-.41.61-1.49s-.26-1.54-.61-1.54-.61.47-.61 1.54.26 1.49.61 1.49zM91.09 152.65l.44-7.12H93l.58 3 .15 1.09.19-1.09.64-3h1.34l.44 7.12h-1.41l-.13-2.83v-1.48l-.22 1.48-.58 2.83h-.83l-.52-2.83-.19-1.48v1.48l-.15 2.83zM98.66 152.74c-1.3 0-2.21-.79-2.21-2.72 0-1.7.81-2.66 1.83-2.66s1.67.6 1.67 2.27v.84h-2.16c.08.74.37 1.06 1 1.06a1.7 1.7 0 0 0 .9-.24l.19 1.11a2 2 0 0 1-1.22.34zm-.87-3.26h.94c0-.78-.15-1-.44-1s-.47.4-.5 1z" fill="#221f1f"/><path d="M99.81 152.65L101 150l-1.09-2.49h1.41l.36.87.21.72.21-.72.32-.87h1.2l-1.1 2.49 1.12 2.6h-1.41l-.38-.92-.21-.77-.24.77-.36.92zM104.35 145.45a.76.76 0 0 1 .75.82.75.75 0 1 1-.75-.82zm-.67 2.07H105v5.12h-1.34zM108.19 152.48a1.56 1.56 0 0 1-.92.27c-1.27 0-2.08-.87-2.08-2.63s.87-2.7 2.09-2.7a1.83 1.83 0 0 1 .93.22l-.32 1.19a1 1 0 0 0-.54-.15c-.5 0-.81.51-.81 1.43s.27 1.41.83 1.41a1 1 0 0 0 .54-.15z" fill="#221f1f"/><path d="M110.14 152.17a.9.9 0 0 1-.86.59c-.79 0-1.14-.79-1.14-1.64 0-1.07.53-1.66 1.26-1.66a.94.94 0 0 1 .74.31v-.47a.64.64 0 0 0-.68-.73 1.51 1.51 0 0 0-.85.26l-.27-1.1a2.46 2.46 0 0 1 1.4-.37c1.23 0 1.75.7 1.75 1.9v3.38h-1.34zm0-.56v-1.12a.5.5 0 0 0-.32-.12c-.23 0-.39.21-.39.68s.14.71.39.71a.46.46 0 0 0 .32-.15zM111.81 152.65v-5.12h1.34v.63a1.32 1.32 0 0 1 1.15-.79c.79 0 1.14.59 1.14 1.61v3.68h-1.34v-3.52c0-.34-.14-.5-.4-.5a.6.6 0 0 0-.54.42v3.6zM117.55 152.79c-1.15 0-2-.93-2-2.67s.82-2.76 2-2.76 2 1 2 2.76-.86 2.67-2 2.67zm0-1.2c.35 0 .61-.41.61-1.49s-.26-1.54-.61-1.54-.61.47-.61 1.54.25 1.49.61 1.49zM55.34 173.67v1.47H53.9v-1.47h-2.13v-.93l1.61-4.74h2v4.54h.55v1.1zm-1.44-1.1v-3.24l-.27 1.06-.72 2.18zM57.89 168h3.42v1.21h-1.8v1.83h1.61v1.22h-1.61v2.86h-1.62zM62.74 168a.82.82 0 1 1 0 1.64.82.82 0 1 1 0-1.64zm-.74 2h1.49v5.12H62zM64.25 175.15V170h1.49v.63a1.47 1.47 0 0 1 1.27-.79c.88 0 1.26.59 1.26 1.61v3.68h-1.48v-3.52c0-.34-.15-.5-.45-.5a.66.66 0 0 0-.6.42v3.6zM69 175.15v-7.42h1.5v4.5l1.13-2.23h1.43l-1.21 2.31 1.3 2.81h-1.62l-1-2.31v2.31zM75.59 174.67a1 1 0 0 1-1 .59c-.88 0-1.26-.79-1.26-1.64 0-1.07.59-1.66 1.4-1.66a1.1 1.1 0 0 1 .83.31v-.47a.68.68 0 0 0-.76-.73 1.82 1.82 0 0 0-1 .26l-.3-1.1a3 3 0 0 1 1.56-.37 1.7 1.7 0 0 1 1.95 1.9v3.38h-1.42zm0-.56V173a.59.59 0 0 0-.36-.12c-.26 0-.44.21-.44.68s.15.71.44.71a.54.54 0 0 0 .36-.16zM52.75 188.81l-1 .91v-1.42l1.37-1.3h1.21v7.18h-1.58zM55 194l.35-1.23a1.86 1.86 0 0 0 .91.24.82.82 0 0 0 .86-.91c0-.53-.19-.94-.84-.94H56v-1.2h.31a.78.78 0 0 0 .83-.87c0-.54-.27-.83-.87-.83a1.68 1.68 0 0 0-.81.23l-.33-1.18a2.68 2.68 0 0 1 1.42-.35 1.82 1.82 0 0 1 2 2 1.54 1.54 0 0 1-1 1.53 1.67 1.67 0 0 1 1.08 1.73 2 2 0 0 1-2.16 2.13A2.8 2.8 0 0 1 55 194zM60.5 192.88a1.42 1.42 0 0 0 .39.06c.39 0 .55-.23.55-.74V187h1.62v5.16c0 1.2-.51 2.07-1.79 2.07a3 3 0 0 1-.94-.12zM63.88 194.15V189h1.5v.91a1.52 1.52 0 0 1 1.25-1v1.63c-.29 0-1-.09-1.25.36v3.2zM67 189.2a3.28 3.28 0 0 0 .58-.85.71.71 0 0 1-.6-.68.74.74 0 0 1 .75-.73.77.77 0 0 1 .75.86 2.6 2.6 0 0 1-1 1.74zM70.71 190.05c-.33 0-.49.11-.49.3s.12.29.33.41a8.28 8.28 0 0 1 1 .56 1.55 1.55 0 0 1 .63 1.29 1.62 1.62 0 0 1-1.83 1.65 2.55 2.55 0 0 1-1.5-.39l.36-1.07a2 2 0 0 0 1.06.32c.44 0 .53-.19.53-.41s-.1-.25-.27-.35a6.74 6.74 0 0 1-1-.62 1.46 1.46 0 0 1-.54-1.23 1.52 1.52 0 0 1 1.72-1.61 2.82 2.82 0 0 1 1.41.32l-.33 1.09a2 2 0 0 0-1.08-.26zM76.75 194.29c-1.72 0-2.81-1.1-2.81-3.64s1.23-3.73 2.93-3.73a3.3 3.3 0 0 1 1.5.29l-.37 1.27a2.09 2.09 0 0 0-.93-.21c-.93 0-1.46.73-1.46 2.36s.28 2.35 1.21 2.35H77v-1.62h-.58v-1.26h2.1v3.75a3.2 3.2 0 0 1-1.77.44zM81.34 194.29c-1.27 0-2.19-.93-2.19-2.67s.91-2.76 2.19-2.76 2.19 1 2.19 2.76-.91 2.67-2.19 2.67zm0-1.2c.39 0 .67-.41.67-1.49s-.29-1.54-.67-1.54-.67.47-.67 1.54.33 1.49.67 1.49zM86.56 193.61a1.39 1.39 0 0 1-1.19.69c-.88 0-1.3-.58-1.3-1.6V189h1.49v3.52c0 .34.15.5.45.5a.64.64 0 0 0 .55-.33V189h1.49v5.12h-1.49zM88.83 194.15V189h1.5v.91a1.52 1.52 0 0 1 1.25-1v1.63c-.29 0-1-.09-1.25.36v3.2zM92.13 194.15V189h1.49v.6a1.35 1.35 0 0 1 1.17-.76 1 1 0 0 1 1.1.9 1.46 1.46 0 0 1 1.28-.9c.85 0 1.22.59 1.22 1.61v3.68H96.9v-3.52c0-.34-.1-.5-.38-.5a.56.56 0 0 0-.51.38v3.64h-1.49v-3.52c0-.34-.1-.5-.38-.5a.56.56 0 0 0-.51.38v3.64zM101.4 194.24c-1.44 0-2.46-.79-2.46-2.72 0-1.7.9-2.66 2-2.66s1.85.6 1.85 2.27v.87h-2.4c.09.74.41 1.06 1.08 1.06a2.07 2.07 0 0 0 1-.24l.21 1.11a2.4 2.4 0 0 1-1.28.31zm-1-3.26h1c0-.78-.16-1-.48-1s-.46.4-.49 1.02zM103.57 192.69v-2.56h-.42V189h.42v-1.5h1.5v1.5h.7v1.11h-.7v2.42a.38.38 0 0 0 .43.44.83.83 0 0 0 .28 0v1.18a2.11 2.11 0 0 1-.56.08c-1.06-.02-1.65-.46-1.65-1.54zM51.86 213.91a5.42 5.42 0 0 1 2-4.38h1.82v.09a5.43 5.43 0 0 0-2.07 2.83 1.21 1.21 0 0 1 1-.48c.85 0 1.55.71 1.55 2.27s-.82 2.55-2.1 2.55-2.2-.93-2.2-2.88zm2.71.32c0-.93-.26-1.15-.59-1.15a.74.74 0 0 0-.56.31v.58c0 1.31.23 1.64.59 1.64s.56-.39.56-1.38zM58.19 209.53h2a2.31 2.31 0 0 1 0 4.6h-.39v2.52h-1.61zm1.61 1.2V213h.29c.54 0 .74-.39.74-1.14s-.2-1.13-.74-1.13zM63.66 209.45a.82.82 0 1 1 0 1.64.82.82 0 1 1 0-1.64zm-.75 2.07h1.49v5.12h-1.49zM65.17 216.65v-5.12h1.49v.63a1.47 1.47 0 0 1 1.27-.79c.88 0 1.26.59 1.26 1.61v3.68h-1.48v-3.52c0-.34-.15-.5-.45-.5a.66.66 0 0 0-.6.42v3.6zM73.09 216.48a1.88 1.88 0 0 1-1 .27c-1.42 0-2.31-.87-2.31-2.63s1-2.7 2.33-2.7a2.22 2.22 0 0 1 1 .22l-.35 1.19a1.18 1.18 0 0 0-.6-.15c-.55 0-.9.51-.9 1.43s.29 1.41.92 1.41a1.21 1.21 0 0 0 .6-.15zM73.63 216.65v-7.42h1.49v2.92a1.47 1.47 0 0 1 1.27-.79c.88 0 1.26.59 1.26 1.61v3.68h-1.49v-3.52c0-.34-.15-.5-.45-.5a.66.66 0 0 0-.6.42v3.6zM79.85 216.65v-7.12h1.62v3.12l1.37-3.12h1.52l-1.44 3.24 1.6 3.88h-1.7l-1.36-3.24v3.24zM85.67 209.45a.82.82 0 1 1 0 1.64.82.82 0 1 1 0-1.64zm-.75 2.07h1.49v5.12h-1.49zM87.35 215.19v-2.56h-.42v-1.11h.42V210h1.5v1.5h.7v1.11h-.7v2.42a.38.38 0 0 0 .43.44.83.83 0 0 0 .28 0v1.18a2.11 2.11 0 0 1-.56.08c-1.06-.02-1.65-.46-1.65-1.54zM93.3 216.48a1.88 1.88 0 0 1-1 .27c-1.42 0-2.31-.87-2.31-2.63s1-2.7 2.33-2.7a2.22 2.22 0 0 1 1 .22l-.32 1.18a1.18 1.18 0 0 0-.6-.15c-.55 0-.9.51-.9 1.43s.29 1.41.92 1.41a1.21 1.21 0 0 0 .6-.15zM93.84 216.65v-7.42h1.49v2.92a1.47 1.47 0 0 1 1.27-.79c.88 0 1.26.59 1.26 1.61v3.68h-1.48v-3.52c0-.34-.15-.5-.45-.5a.66.66 0 0 0-.6.42v3.6zM100.87 216.74c-1.44 0-2.46-.79-2.46-2.72 0-1.7.9-2.66 2-2.66s1.85.6 1.85 2.27v.84H99.9c.09.74.41 1.06 1.08 1.06a2.07 2.07 0 0 0 1-.24l.21 1.11a2.4 2.4 0 0 1-1.32.34zm-1-3.26h1c0-.78-.16-1-.48-1s-.45.4-.49 1zM102.88 216.65v-5.12h1.49v.63a1.47 1.47 0 0 1 1.27-.79c.88 0 1.26.59 1.26 1.61v3.68h-1.49v-3.52c0-.34-.15-.5-.45-.5a.66.66 0 0 0-.6.42v3.6zM52.75 230.31l-1 .91v-1.42l1.32-1.33h1.21v7.18h-1.53zM56.12 230.31l-1 .91v-1.42l1.32-1.33h1.26v7.18h-1.58zM60.16 228.53h2a2.31 2.31 0 0 1 0 4.6h-.43v2.52h-1.57zm1.61 1.2V232h.29c.54 0 .74-.39.74-1.14s-.2-1.13-.74-1.13zM65.63 228.45a.82.82 0 1 1 0 1.64.82.82 0 1 1 0-1.64zm-.75 2.07h1.49v5.12h-1.49zM67.14 235.65v-5.12h1.49v.63a1.47 1.47 0 0 1 1.27-.79c.88 0 1.26.59 1.26 1.61v3.68h-1.48v-3.52c0-.34-.15-.5-.45-.5a.66.66 0 0 0-.6.42v3.6zM75.05 235.48a1.88 1.88 0 0 1-1 .27c-1.42 0-2.31-.87-2.31-2.63s1-2.7 2.33-2.7a2.22 2.22 0 0 1 1 .22l-.35 1.19a1.18 1.18 0 0 0-.6-.15c-.55 0-.9.51-.9 1.43s.29 1.41.92 1.41a1.21 1.21 0 0 0 .6-.15zM75.59 235.65v-7.42h1.49v2.92a1.47 1.47 0 0 1 1.27-.79c.88 0 1.26.59 1.26 1.61v3.68h-1.48v-3.52c0-.34-.15-.5-.45-.5a.66.66 0 0 0-.6.42v3.6zM82.35 235.79c-1.27 0-2.19-.93-2.19-2.67s.91-2.76 2.19-2.76 2.19 1 2.19 2.76-.92 2.67-2.19 2.67zm0-1.2c.39 0 .67-.41.67-1.49s-.29-1.54-.67-1.54-.67.47-.67 1.54.32 1.49.67 1.49zM86.57 228.53H90v1.21h-1.82v1.83h1.61v1.22h-1.61v2.86h-1.61zM92.68 235.17a1 1 0 0 1-1 .59c-.88 0-1.26-.79-1.26-1.64 0-1.07.59-1.66 1.4-1.66a1.1 1.1 0 0 1 .83.31v-.47a.68.68 0 0 0-.76-.73 1.82 1.82 0 0 0-1 .26l-.3-1.1a3 3 0 0 1 1.56-.37 1.7 1.7 0 0 1 1.95 1.9v3.38h-1.42zm0-.56v-1.12a.59.59 0 0 0-.36-.12c-.26 0-.44.21-.44.68s.15.71.44.71a.54.54 0 0 0 .36-.15zM98.06 235.48a1.88 1.88 0 0 1-1 .27c-1.42 0-2.31-.87-2.31-2.63s1-2.7 2.33-2.7a2.22 2.22 0 0 1 1 .22l-.35 1.19a1.18 1.18 0 0 0-.6-.15c-.55 0-.9.51-.9 1.43s.29 1.41.92 1.41a1.21 1.21 0 0 0 .6-.15zM98.77 234.19v-2.56h-.42v-1.11h.42V229h1.5v1.5h.7v1.11h-.7v2.42a.38.38 0 0 0 .43.44.83.83 0 0 0 .28 0v1.18a2.11 2.11 0 0 1-.56.08c-1.06-.02-1.65-.46-1.65-1.54zM103.56 235.79c-1.27 0-2.19-.93-2.19-2.67s.91-2.76 2.19-2.76 2.19 1 2.19 2.76-.91 2.67-2.19 2.67zm0-1.2c.39 0 .67-.41.67-1.49s-.29-1.54-.67-1.54-.67.47-.67 1.54.28 1.49.67 1.49zM106.33 235.65v-5.12h1.5v.91a1.52 1.52 0 0 1 1.25-1v1.63c-.29 0-1-.09-1.25.36v3.2zM110.77 235.75l-1.47-5.23h1.51l.39 1.62.29 1.59.31-1.59.4-1.62h1.34l-2 6.94h-1.24zM51.62 258l.35-1.23a1.86 1.86 0 0 0 .91.24.82.82 0 0 0 .86-.91c0-.53-.19-.94-.84-.94h-.31v-1.2h.31a.78.78 0 0 0 .83-.87c0-.54-.27-.83-.87-.83a1.68 1.68 0 0 0-.81.23l-.33-1.18a2.68 2.68 0 0 1 1.42-.35 1.82 1.82 0 0 1 2 2 1.54 1.54 0 0 1-1 1.53 1.67 1.67 0 0 1 1.08 1.73 2 2 0 0 1-2.16 2.13 2.8 2.8 0 0 1-1.44-.35zM57.1 258.15v-1l1.18-2.13a4.28 4.28 0 0 0 .66-2 .7.7 0 0 0-.75-.79 1.69 1.69 0 0 0-.82.23l-.29-1.22a2.64 2.64 0 0 1 1.42-.33 1.84 1.84 0 0 1 2.08 2 6.4 6.4 0 0 1-1.17 3l-.58 1h1.72v1.25zM61.35 258.15l1.5-5.87H61V251h3.45v1l-1.57 6.15zM66.54 251h2.19a1.92 1.92 0 0 1 2 2.18 2.06 2.06 0 0 1-.91 1.83l1.1 3.12h-1.65l-.94-2.72h-.18v2.72h-1.61zm1.61 1.2v2.11h.3c.56 0 .73-.42.73-1.08s-.18-1-.71-1zM73.69 258.24c-1.44 0-2.46-.79-2.46-2.72 0-1.7.9-2.66 2-2.66s1.85.6 1.85 2.27v.87h-2.4c.09.74.41 1.06 1.08 1.06a2.07 2.07 0 0 0 1-.24l.24 1.08a2.4 2.4 0 0 1-1.31.34zm-1-3.26h1c0-.78-.16-1-.48-1s-.45.4-.48 1.02zM77.32 254.05c-.33 0-.49.11-.49.3s.12.29.33.41a8.28 8.28 0 0 1 1 .56 1.55 1.55 0 0 1 .63 1.29 1.62 1.62 0 0 1-1.83 1.65 2.55 2.55 0 0 1-1.5-.39l.36-1.07a2 2 0 0 0 1.06.32c.44 0 .53-.19.53-.41s-.1-.25-.27-.35a6.74 6.74 0 0 1-1-.62 1.46 1.46 0 0 1-.54-1.23 1.52 1.52 0 0 1 1.72-1.61 2.82 2.82 0 0 1 1.41.32l-.33 1.09a2 2 0 0 0-1.08-.26zM79.48 256.69v-2.56h-.42V253h.42v-1.5H81v1.5h.7v1.11H81v2.42a.38.38 0 0 0 .43.44.83.83 0 0 0 .28 0v1.18a2.11 2.11 0 0 1-.56.08c-1.08-.02-1.67-.46-1.67-1.54zM84.29 257.67a1 1 0 0 1-1 .59c-.88 0-1.26-.79-1.26-1.64 0-1.07.59-1.66 1.4-1.66a1.1 1.1 0 0 1 .83.31v-.47a.68.68 0 0 0-.76-.73 1.82 1.82 0 0 0-1 .26l-.3-1.1a3 3 0 0 1 1.56-.37 1.7 1.7 0 0 1 1.95 1.9v3.38h-1.42zm0-.56V256a.59.59 0 0 0-.36-.12c-.26 0-.44.21-.44.68s.15.71.44.71a.54.54 0 0 0 .36-.16zM89 257.61a1.39 1.39 0 0 1-1.19.69c-.88 0-1.3-.58-1.3-1.6V253H88v3.52c0 .34.15.5.45.5a.64.64 0 0 0 .55-.33V253h1.49v5.12H89zM91.24 258.15V253h1.5v.91a1.52 1.52 0 0 1 1.25-1v1.63c-.29 0-1-.09-1.25.36v3.2zM96.55 257.67a1 1 0 0 1-1 .59c-.88 0-1.26-.79-1.26-1.64 0-1.07.59-1.66 1.4-1.66a1.1 1.1 0 0 1 .83.31v-.47a.68.68 0 0 0-.76-.73 1.82 1.82 0 0 0-1 .26l-.3-1.1a3 3 0 0 1 1.56-.37 1.7 1.7 0 0 1 1.95 1.9v3.38h-1.42zm0-.56V256a.59.59 0 0 0-.36-.12c-.26 0-.44.21-.44.68s.15.71.44.71a.54.54 0 0 0 .36-.16zM98.78 258.15V253h1.49v.63a1.47 1.47 0 0 1 1.27-.79c.88 0 1.26.59 1.26 1.61v3.68h-1.49v-3.52c0-.34-.15-.5-.45-.5a.66.66 0 0 0-.6.42v3.6zM103.72 256.69v-2.56h-.42V253h.42v-1.5h1.5v1.5h.7v1.11h-.7v2.42a.38.38 0 0 0 .43.44.83.83 0 0 0 .28 0v1.18a2.11 2.11 0 0 1-.56.08c-1.06-.02-1.65-.46-1.65-1.54zM52.75 271.81l-1 .91v-1.42l1.37-1.3h1.21v7.18h-1.58zM58.71 275.67v1.47h-1.44v-1.47h-2.13v-.93l1.62-4.74h2v4.54h.55v1.1zm-1.44-1.1v-3.24l-.27 1.06-.72 2.18zM60.89 270h1.64l.67 3.5.23 1.51.22-1.51.64-3.5h1.44l-1.59 7.12h-1.66zM68.48 277.24c-1.44 0-2.46-.79-2.46-2.72 0-1.7.9-2.66 2-2.66s1.85.6 1.85 2.27v.87h-2.4c.09.74.41 1.06 1.08 1.06a2.07 2.07 0 0 0 1-.24l.21 1.11a2.4 2.4 0 0 1-1.28.31zm-1-3.26h1c0-.78-.16-1-.48-1s-.45.4-.49 1.02zM70.48 277.15V272H72v.91a1.52 1.52 0 0 1 1.25-1v1.63c-.29 0-1-.09-1.25.36v3.2zM75.41 273.05c-.33 0-.49.11-.49.3s.12.29.33.41a8.28 8.28 0 0 1 1 .56 1.55 1.55 0 0 1 .63 1.29 1.62 1.62 0 0 1-1.88 1.66 2.55 2.55 0 0 1-1.5-.39l.36-1.07a2 2 0 0 0 1.06.32c.44 0 .53-.19.53-.41s-.1-.25-.27-.35a6.74 6.74 0 0 1-1-.62 1.46 1.46 0 0 1-.54-1.23 1.52 1.52 0 0 1 1.72-1.61 2.82 2.82 0 0 1 1.41.32l-.33 1.09a2 2 0 0 0-1.03-.27zM79.4 276.67a1 1 0 0 1-1 .59c-.88 0-1.26-.79-1.26-1.64 0-1.07.59-1.66 1.4-1.66a1.1 1.1 0 0 1 .83.31v-.47a.68.68 0 0 0-.76-.73 1.82 1.82 0 0 0-1 .26l-.3-1.1a3 3 0 0 1 1.56-.37 1.7 1.7 0 0 1 1.95 1.9v3.38H79.4zm0-.56V275a.59.59 0 0 0-.36-.12c-.26 0-.44.21-.44.68s.15.71.44.71a.54.54 0 0 0 .36-.16zM82.37 270a.82.82 0 1 1 0 1.64.82.82 0 1 1 0-1.64zm-.75 2h1.49v5.12h-1.49zM83.89 269.73h1.5v7.42h-1.5zM86.19 269.73h1.5v7.42h-1.5zM90.74 277.24c-1.44 0-2.46-.79-2.46-2.72 0-1.7.9-2.66 2-2.66s1.85.6 1.85 2.27v.87h-2.4c.09.74.41 1.06 1.08 1.06a2.07 2.07 0 0 0 1-.24l.21 1.11a2.4 2.4 0 0 1-1.28.31zm-1-3.26h1c0-.78-.16-1-.48-1s-.45.4-.49 1.02zM94.37 273.05c-.33 0-.49.11-.49.3s.12.29.33.41a8.28 8.28 0 0 1 1 .56 1.55 1.55 0 0 1 .63 1.29 1.62 1.62 0 0 1-1.84 1.66 2.55 2.55 0 0 1-1.5-.39l.36-1.07a2 2 0 0 0 1.06.32c.44 0 .53-.19.53-.41s-.1-.25-.27-.35a6.74 6.74 0 0 1-1-.62 1.46 1.46 0 0 1-.54-1.23 1.52 1.52 0 0 1 1.72-1.61 2.82 2.82 0 0 1 1.41.32l-.33 1.09a2 2 0 0 0-1.07-.27zM52.1 299.65l1.5-5.87h-1.81v-1.25h3.45v1l-1.57 6.15zM60.05 298.4h-1.54l-.26 1.25h-1.36l1.65-7.12h1.71l1.64 7.12H60.3zm-1.31-1.13h1.08l-.38-1.87-.14-1-.16 1zM62.37 299.65v-5.12h1.5v.91a1.52 1.52 0 0 1 1.25-1v1.63c-.29 0-1-.09-1.25.36v3.2zM66.41 292.45a.82.82 0 1 1 0 1.64.82.82 0 1 1 0-1.64zm-.75 2.07h1.49v5.12h-1.49zM70.18 299.74c-1.44 0-2.46-.79-2.46-2.72 0-1.7.9-2.66 2-2.66s1.85.6 1.85 2.27v.84h-2.4c.09.74.41 1.06 1.08 1.06a2.07 2.07 0 0 0 1-.24l.21 1.11a2.4 2.4 0 0 1-1.28.34zm-1-3.26h1c0-.78-.16-1-.48-1s-.45.4-.49 1zM72.35 298.19v-2.56h-.42v-1.11h.42V293h1.5v1.5h.7v1.11h-.7v2.42a.38.38 0 0 0 .43.44.83.83 0 0 0 .28 0v1.18a2.11 2.11 0 0 1-.56.08c-1.06-.02-1.65-.46-1.65-1.54zM77.42 299.74C76 299.74 75 299 75 297c0-1.7.9-2.66 2-2.66s1.85.6 1.85 2.27v.84h-2.4c.09.74.41 1.06 1.08 1.06a2.07 2.07 0 0 0 1-.24l.21 1.11a2.4 2.4 0 0 1-1.32.36zm-1-3.26h1c0-.78-.16-1-.48-1s-.45.4-.49 1zM52.62 313.31l-.85.91v-1.42l1.17-1.33H54v7.18h-1.4zM56.85 318.81c-1.22 0-2-1-2-3.68s.83-3.76 2-3.76 2 1.11 2 3.76-.78 3.68-2 3.68zm0-1.31c.4 0 .58-.48.58-2.39s-.19-2.42-.58-2.42-.58.6-.58 2.42.18 2.39.58 2.39zM60.77 311.53h1.45v5.89h1.45v1.23h-2.9zM66 318.17a.89.89 0 0 1-.85.59c-.79 0-1.12-.79-1.12-1.64 0-1.07.52-1.66 1.24-1.66a.92.92 0 0 1 .74.31v-.47a.64.64 0 0 0-.68-.73 1.48 1.48 0 0 0-.85.26l-.27-1.1a2.42 2.42 0 0 1 1.39-.37c1.22 0 1.73.7 1.73 1.9v3.38H66zm0-.56v-1.12a.49.49 0 0 0-.32-.12c-.23 0-.39.21-.39.68s.13.71.39.71a.45.45 0 0 0 .32-.15zM69.3 311.53h3v1.21h-1.57v1.83h1.43v1.22h-1.43v2.86H69.3zM73 318.65v-5.12h1.34v.91c.21-.49.58-1 1.12-1v1.63c-.26 0-.88-.09-1.12.36v3.2zM77.68 318.17a.89.89 0 0 1-.85.59c-.79 0-1.12-.79-1.12-1.64 0-1.07.52-1.66 1.24-1.66a.92.92 0 0 1 .74.31v-.47a.64.64 0 0 0-.68-.73 1.49 1.49 0 0 0-.85.26l-.27-1.1a2.42 2.42 0 0 1 1.39-.37c1.22 0 1.73.7 1.73 1.9v3.38h-1.33zm0-.56v-1.12a.49.49 0 0 0-.32-.12c-.23 0-.39.21-.39.68s.14.71.39.71a.45.45 0 0 0 .32-.15zM81.18 320.56c-1.11 0-1.8-.42-1.8-1.16a1 1 0 0 1 .59-.9 1 1 0 0 1-.34-.79 1.37 1.37 0 0 1 .6-1.18 1.8 1.8 0 0 1 1-3.17 1.58 1.58 0 0 1 1.06.41 1.23 1.23 0 0 1 1-.37v1.06a1.65 1.65 0 0 0-.56.07 1.47 1.47 0 0 1 .1.63 1.55 1.55 0 0 1-1.6 1.65 2 2 0 0 1-.41 0 .5.5 0 0 0-.13.32c0 .18.12.29.34.29h.79a1.28 1.28 0 0 1 1.39 1.44c-.01.97-.59 1.7-2.03 1.7zm.77-1.47a.36.36 0 0 0-.39-.37h-.9a.53.53 0 0 0-.14.37c0 .32.19.52.69.52s.79-.22.79-.52zm-.76-3.18c.22 0 .41-.19.41-.78s-.19-.81-.41-.81-.4.21-.4.81.21.77.4.77zM85.88 318.11a1.22 1.22 0 0 1-1.06.69c-.79 0-1.16-.58-1.16-1.6v-3.68H85V317c0 .34.14.5.4.5a.57.57 0 0 0 .49-.33v-3.69h1.31v5.12h-1.32zM89.68 318.17a.89.89 0 0 1-.85.59c-.79 0-1.12-.79-1.12-1.64 0-1.07.52-1.66 1.24-1.66a.92.92 0 0 1 .74.31v-.47a.64.64 0 0 0-.68-.73 1.48 1.48 0 0 0-.85.26l-.27-1.1a2.42 2.42 0 0 1 1.39-.37c1.22 0 1.73.7 1.73 1.9v3.38h-1.33zm0-.56v-1.12a.49.49 0 0 0-.32-.12c-.23 0-.39.21-.39.68s.13.71.39.71a.45.45 0 0 0 .32-.15zM51.81 341.15v-1l1.19-2.08a4.28 4.28 0 0 0 .66-2 .7.7 0 0 0-.75-.79 1.69 1.69 0 0 0-.82.23l-.29-1.22a2.64 2.64 0 0 1 1.42-.33 1.84 1.84 0 0 1 2.08 2 6.4 6.4 0 0 1-1.17 3l-.58 1h1.72v1.25zM57.37 334h2a2.31 2.31 0 0 1 0 4.6H59v2.52h-1.63zm1.61 1.2v2.27h.29c.54 0 .74-.39.74-1.14s-.2-1.13-.74-1.13zM64.57 340.61a1.39 1.39 0 0 1-1.19.69c-.88 0-1.3-.58-1.3-1.6V336h1.49v3.52c0 .34.15.5.45.5a.64.64 0 0 0 .55-.33V336h1.49v5.12h-1.49zM68.33 340.59v.56h-1.5v-7.42h1.49v2.84a1.38 1.38 0 0 1 1.18-.71c1 0 1.63.85 1.63 2.67s-.77 2.74-1.71 2.74a1.18 1.18 0 0 1-1.09-.68zm1.29-2.05c0-1.06-.28-1.44-.69-1.44a.71.71 0 0 0-.6.38v2.27a.67.67 0 0 0 .59.3c.4-.05.7-.46.7-1.52zM73.2 340.59v.56h-1.49v-7.42h1.49v2.84a1.38 1.38 0 0 1 1.18-.71c1 0 1.63.85 1.63 2.67s-.77 2.74-1.71 2.74a1.18 1.18 0 0 1-1.1-.68zm1.29-2.05c0-1.06-.28-1.44-.69-1.44a.71.71 0 0 0-.6.38v2.27a.67.67 0 0 0 .59.3c.41-.05.7-.46.7-1.52zM78.84 341.24c-1.44 0-2.46-.79-2.46-2.72 0-1.7.9-2.66 2-2.66s1.85.6 1.85 2.27v.87h-2.4c.09.74.41 1.06 1.08 1.06a2.07 2.07 0 0 0 1-.24l.21 1.11a2.4 2.4 0 0 1-1.28.31zm-1-3.26h1c0-.78-.16-1-.48-1s-.45.4-.49 1.02zM80.86 333.73h1.5v7.42h-1.5zM83.15 333.73h1.5v7.42h-1.5zM86.58 341.25L85.11 336h1.51l.39 1.62.29 1.59.31-1.59L88 336h1.34l-2 6.94h-1.23zM52.75 354.81l-1 .91v-1.42l1.37-1.3h1.21v7.18h-1.58zM55 360l.38-1.22a1.51 1.51 0 0 0 .77.18c.51 0 .9-.38.9-1.08s-.32-1.1-1-1.1a1.78 1.78 0 0 0-.66.12l.24-3.83h2.81v1.27h-1.58l-.09 1.33a1.94 1.94 0 0 1 1.87 2.2 2.21 2.21 0 0 1-2.3 2.48A2.52 2.52 0 0 1 55 360zM60.8 360.15V353h1.62v3.12l1.37-3.12h1.52l-1.44 3.24 1.6 3.88h-1.69l-1.36-3.24v3.24zM68.16 360.24c-1.44 0-2.46-.79-2.46-2.72 0-1.7.9-2.66 2-2.66s1.85.6 1.85 2.27v.87h-2.4c.09.74.41 1.06 1.08 1.06a2.07 2.07 0 0 0 1-.24l.21 1.11a2.4 2.4 0 0 1-1.28.31zm-1-3.26h1c0-.78-.16-1-.48-1s-.46.4-.49 1.02zM71.86 362.06c-1.25 0-2-.42-2-1.16a1 1 0 0 1 .67-.9 1 1 0 0 1-.38-.79 1.33 1.33 0 0 1 .65-1.21 1.54 1.54 0 0 1-.72-1.41 1.7 1.7 0 0 1 1.82-1.76 1.9 1.9 0 0 1 1.2.41 1.48 1.48 0 0 1 1.1-.37V356a2.08 2.08 0 0 0-.63.07 1.32 1.32 0 0 1 .11.63 1.65 1.65 0 0 1-1.8 1.65 2.48 2.48 0 0 1-.46 0 .47.47 0 0 0-.14.32c0 .18.13.29.38.29h.89c1 0 1.57.47 1.57 1.44s-.64 1.66-2.26 1.66zm.87-1.47c0-.2-.14-.37-.44-.37h-1a.5.5 0 0 0-.15.37c0 .32.22.52.78.52s.81-.22.81-.52zm-.86-3.18c.25 0 .46-.19.46-.78s-.21-.81-.46-.81-.45.21-.45.81.22.77.45.77zM78.06 354.23a.56.56 0 0 0-.63.55.76.76 0 0 0 .29.57c.39.38.87.69 1.25 1.08a2.17 2.17 0 0 1 .73 1.69 2 2 0 0 1-2.13 2.1 3.61 3.61 0 0 1-1.82-.41l.43-1.27a2.72 2.72 0 0 0 1.24.35c.54 0 .74-.29.74-.61a.77.77 0 0 0-.31-.61 14.94 14.94 0 0 1-1.24-1.07 2.2 2.2 0 0 1-.71-1.68 1.93 1.93 0 0 1 2.07-2 3.34 3.34 0 0 1 1.57.35l-.37 1.25a2.52 2.52 0 0 0-1.11-.29zM82.28 360.29c-1.27 0-2.19-.93-2.19-2.67s.91-2.76 2.19-2.76 2.19 1 2.19 2.76-.91 2.67-2.19 2.67zm0-1.2c.39 0 .67-.41.67-1.49s-.29-1.54-.67-1.54-.67.47-.67 1.54.28 1.49.67 1.49zM87.5 359.61a1.39 1.39 0 0 1-1.19.69c-.88 0-1.3-.58-1.3-1.6V355h1.49v3.52c0 .34.15.5.45.5a.64.64 0 0 0 .55-.33V355H89v5.12h-1.5zM89.94 358.69v-2.56h-.42V355h.42v-1.5h1.5v1.5h.7v1.11h-.7v2.42a.38.38 0 0 0 .43.44.83.83 0 0 0 .28 0v1.18a2.11 2.11 0 0 1-.56.08c-1.06-.02-1.65-.46-1.65-1.54zM92.74 360.15v-7.42h1.49v2.92a1.47 1.47 0 0 1 1.27-.79c.88 0 1.26.59 1.26 1.61v3.68h-1.48v-3.52c0-.34-.15-.5-.45-.5a.66.66 0 0 0-.6.42v3.6z" fill="#221f1f"/><path d="M212.21 74.47l-1 .91V74l1.32-1.33h1.21v7.18h-1.58zM216.24 72.69h2c1.27 0 2.05.59 2.05 1.92a1.49 1.49 0 0 1-.9 1.47 1.64 1.64 0 0 1 1.14 1.66 2 2 0 0 1-2.28 2.06h-2zm1.6 1.1v1.82h.28c.48 0 .68-.29.68-.94s-.21-.86-.68-.87zm0 2.87v2h.32c.53 0 .79-.29.79-1.06s-.26-1-.78-1zM223.42 79.91c-1.45 0-2.46-.79-2.46-2.72 0-1.7.9-2.66 2-2.66s1.85.6 1.85 2.27v.84h-2.4c.09.74.41 1.06 1.08 1.06a2.06 2.06 0 0 0 1-.24l.21 1.11a2.4 2.4 0 0 1-1.28.34zm-1-3.26h1c0-.78-.16-1-.49-1s-.44.35-.48 1zM227.43 79.34a1 1 0 0 1-1 .59c-.88 0-1.26-.79-1.26-1.64 0-1.07.59-1.66 1.4-1.66a1.1 1.1 0 0 1 .83.31v-.47a.68.68 0 0 0-.76-.73 1.81 1.81 0 0 0-1 .26l-.3-1.1a3 3 0 0 1 1.56-.37 1.7 1.7 0 0 1 1.95 1.9v3.38h-1.49zm0-.56v-1.12a.59.59 0 0 0-.36-.12c-.26 0-.44.21-.44.68s.15.71.44.71a.54.54 0 0 0 .36-.15zM229.66 79.81V72.4h1.5v4.5l1.11-2.21h1.43L232.49 77l1.3 2.81h-1.63l-1-2.31v2.31zM236.49 79.91c-1.45 0-2.46-.79-2.46-2.72 0-1.7.9-2.66 2-2.66s1.85.6 1.85 2.27v.84h-2.4c.09.74.41 1.06 1.08 1.06a2.06 2.06 0 0 0 1-.24l.21 1.11a2.4 2.4 0 0 1-1.28.34zm-1-3.26h1c0-.78-.16-1-.49-1s-.44.35-.48 1zM238.49 79.81v-5.12H240v.91a1.52 1.52 0 0 1 1.25-1v1.63c-.29 0-1-.09-1.25.36v3.2zM245.16 79.34a1 1 0 0 1-1 .59c-.88 0-1.26-.79-1.26-1.64 0-1.07.59-1.66 1.4-1.66a1.1 1.1 0 0 1 .83.31v-.47a.68.68 0 0 0-.76-.73 1.82 1.82 0 0 0-1 .26l-.3-1.1a3 3 0 0 1 1.56-.37 1.7 1.7 0 0 1 1.95 1.9v3.38h-1.49zm0-.56v-1.12a.59.59 0 0 0-.36-.12c-.26 0-.44.21-.44.68s.15.71.44.71a.54.54 0 0 0 .36-.15zM247.39 79.81v-5.12h1.49v.63a1.47 1.47 0 0 1 1.27-.79c.88 0 1.26.59 1.26 1.61v3.68h-1.49V76.3c0-.34-.15-.5-.45-.5a.66.66 0 0 0-.6.42v3.6zM254.77 79.22a1.25 1.25 0 0 1-1.13.72c-1 0-1.67-.85-1.67-2.67s.77-2.74 1.73-2.74a1.12 1.12 0 0 1 1.07.64V72.4h1.49v7.42h-1.49zm0-.88v-2.28a.67.67 0 0 0-.59-.3c-.41 0-.7.46-.7 1.51s.28 1.45.69 1.45a.71.71 0 0 0 .6-.39zM261.1 80c-1.72 0-2.81-1.1-2.81-3.64s1.23-3.73 2.93-3.73a3.3 3.3 0 0 1 1.5.29l-.39 1.27a2.09 2.09 0 0 0-.93-.21c-.93 0-1.46.73-1.46 2.36s.28 2.35 1.21 2.35h.21V77h-.58v-1.24h2.1v3.75a3.19 3.19 0 0 1-1.78.49zM263.7 79.81v-5.12h1.5v.91a1.52 1.52 0 0 1 1.25-1v1.63c-.29 0-1-.09-1.25.36v3.2zM269 79.34a1 1 0 0 1-1 .59c-.88 0-1.26-.79-1.26-1.64 0-1.07.59-1.66 1.4-1.66a1.1 1.1 0 0 1 .83.31v-.47a.68.68 0 0 0-.76-.73 1.81 1.81 0 0 0-1 .26l-.3-1.1a3 3 0 0 1 1.56-.37 1.7 1.7 0 0 1 1.95 1.9v3.38H269zm0-.56v-1.12a.59.59 0 0 0-.36-.12c-.26 0-.44.21-.44.68s.15.71.44.71a.54.54 0 0 0 .36-.15zM272.38 79.92l-1.47-5.23h1.51l.39 1.62.29 1.59.31-1.59.4-1.62h1.34l-2 6.94h-1.25zM214.8 160.34v1.47h-1.45v-1.47h-2.13v-.93l1.62-4.71h2v4.54h.55v1.1zm-1.45-1.1V156l-.27 1.06-.72 2.18zM217.35 154.69h3.42v1.21H219v1.83h1.61V159H219v2.86h-1.62zM222.2 154.62a.82.82 0 1 1 0 1.64.82.82 0 1 1 0-1.64zm-.75 2.07h1.49v5.12h-1.49zM223.71 161.81v-5.12h1.49v.63a1.47 1.47 0 0 1 1.27-.79c.88 0 1.26.59 1.26 1.61v3.68h-1.49v-3.52c0-.34-.15-.5-.45-.5a.66.66 0 0 0-.6.42v3.6zM228.48 161.81v-7.41H230v4.5l1.11-2.21h1.43l-1.23 2.31 1.3 2.81H231l-1-2.31v2.31zM235.06 161.34a1 1 0 0 1-1 .59c-.88 0-1.26-.79-1.26-1.64 0-1.07.59-1.66 1.4-1.66a1.1 1.1 0 0 1 .83.31v-.47a.68.68 0 0 0-.76-.73 1.82 1.82 0 0 0-1 .26l-.3-1.1a3 3 0 0 1 1.56-.37 1.7 1.7 0 0 1 1.95 1.9v3.38h-1.49zm0-.56v-1.12a.59.59 0 0 0-.36-.12c-.26 0-.44.21-.44.68s.15.71.44.71a.54.54 0 0 0 .36-.15zM212.21 242.47l-1 .91V242l1.32-1.33h1.21v7.18h-1.58zM215.58 242.47l-1 .91V242l1.32-1.33h1.21v7.18h-1.58zM219.62 240.69h2a2.31 2.31 0 0 1 0 4.6h-.43v2.52h-1.61zm1.61 1.2v2.27h.29c.54 0 .74-.39.74-1.14s-.2-1.13-.74-1.13zM225.09 240.62a.82.82 0 1 1 0 1.64.82.82 0 1 1 0-1.64zm-.75 2.07h1.49v5.12h-1.49zM226.6 247.81v-5.12h1.49v.63a1.47 1.47 0 0 1 1.27-.79c.88 0 1.26.59 1.26 1.61v3.68h-1.49v-3.52c0-.34-.15-.5-.45-.5a.66.66 0 0 0-.6.42v3.6zM234.51 247.64a1.88 1.88 0 0 1-1 .27c-1.42 0-2.31-.87-2.31-2.63s1-2.7 2.33-2.7a2.21 2.21 0 0 1 1 .22l-.35 1.19a1.18 1.18 0 0 0-.6-.15c-.55 0-.9.51-.9 1.43s.29 1.41.92 1.41a1.21 1.21 0 0 0 .6-.15zM235.05 247.81v-7.41h1.49v2.92a1.47 1.47 0 0 1 1.27-.79c.88 0 1.26.59 1.26 1.61v3.68h-1.49v-3.52c0-.34-.15-.5-.45-.5a.66.66 0 0 0-.6.42v3.6zM241.81 248c-1.27 0-2.19-.93-2.19-2.67s.91-2.76 2.19-2.76 2.19 1 2.19 2.76-.92 2.67-2.19 2.67zm0-1.2c.39 0 .67-.41.67-1.49s-.29-1.54-.67-1.54-.68.47-.68 1.54.29 1.45.68 1.45zM246 240.69h3.42v1.21h-1.81v1.83h1.61V245h-1.61v2.86H246zM252.15 247.34a1 1 0 0 1-1 .59c-.88 0-1.26-.79-1.26-1.64 0-1.07.59-1.66 1.4-1.66a1.1 1.1 0 0 1 .83.31v-.47a.68.68 0 0 0-.76-.73 1.81 1.81 0 0 0-1 .26l-.3-1.1a3 3 0 0 1 1.56-.37 1.7 1.7 0 0 1 1.95 1.9v3.38h-1.49zm0-.56v-1.12a.59.59 0 0 0-.36-.12c-.26 0-.44.21-.44.68s.15.71.44.71a.54.54 0 0 0 .36-.15zM257.52 247.64a1.88 1.88 0 0 1-1 .27c-1.42 0-2.31-.87-2.31-2.63s1-2.7 2.33-2.7a2.21 2.21 0 0 1 1 .22l-.34 1.2a1.18 1.18 0 0 0-.6-.15c-.55 0-.9.51-.9 1.43s.29 1.41.92 1.41a1.21 1.21 0 0 0 .6-.15zM258.23 246.36v-2.56h-.42v-1.11h.42v-1.5h1.5v1.5h.7v1.11h-.7v2.42a.38.38 0 0 0 .43.44.84.84 0 0 0 .28 0v1.18a2.12 2.12 0 0 1-.56.08c-1.06-.04-1.65-.49-1.65-1.56zM263 248c-1.27 0-2.19-.93-2.19-2.67s.91-2.76 2.19-2.76 2.19 1 2.19 2.76S264.3 248 263 248zm0-1.2c.39 0 .67-.41.67-1.49s-.29-1.54-.67-1.54-.68.47-.68 1.54.31 1.45.68 1.45zM265.79 247.81v-5.12h1.5v.91a1.52 1.52 0 0 1 1.25-1v1.63c-.29 0-1-.09-1.25.36v3.2zM270.23 247.92l-1.47-5.23h1.51l.39 1.62.29 1.59.31-1.59.4-1.62H273l-2 6.94h-1.31zM211.27 329.81v-1l1.18-2.13a4.27 4.27 0 0 0 .66-2 .7.7 0 0 0-.75-.79 1.69 1.69 0 0 0-.82.23l-.29-1.22a2.64 2.64 0 0 1 1.42-.33 1.84 1.84 0 0 1 2.08 2 6.4 6.4 0 0 1-1.17 3l-.58 1h1.72v1.25zM216.83 322.69h2a2.31 2.31 0 0 1 0 4.6h-.43v2.52h-1.61zm1.61 1.2v2.27h.29c.54 0 .74-.39.74-1.14s-.2-1.13-.74-1.13zM224 329.27a1.39 1.39 0 0 1-1.19.69c-.88 0-1.3-.58-1.3-1.6v-3.68H223v3.52c0 .34.15.5.45.5a.65.65 0 0 0 .55-.33v-3.69h1.49v5.12H224zM227.79 329.25v.56h-1.49v-7.41h1.49v2.84a1.38 1.38 0 0 1 1.18-.71c1 0 1.63.85 1.63 2.67s-.77 2.74-1.71 2.74a1.18 1.18 0 0 1-1.1-.69zm1.29-2.05c0-1.06-.28-1.44-.69-1.44a.71.71 0 0 0-.6.38v2.27a.67.67 0 0 0 .59.3c.41 0 .7-.45.7-1.51zM232.66 329.25v.56h-1.49v-7.41h1.49v2.84a1.38 1.38 0 0 1 1.18-.71c1 0 1.63.85 1.63 2.67s-.77 2.74-1.71 2.74a1.18 1.18 0 0 1-1.1-.69zm1.34-2.05c0-1.06-.28-1.44-.69-1.44a.71.71 0 0 0-.6.38v2.27a.67.67 0 0 0 .59.3c.36 0 .7-.45.7-1.51zM238.3 329.91c-1.45 0-2.46-.79-2.46-2.72 0-1.7.9-2.66 2-2.66s1.85.6 1.85 2.27v.84h-2.4c.09.74.41 1.06 1.08 1.06a2.06 2.06 0 0 0 1-.24l.21 1.11a2.4 2.4 0 0 1-1.28.34zm-1-3.26h1c0-.78-.16-1-.49-1s-.44.35-.48 1zM240.32 322.4h1.5v7.42h-1.5zM242.62 322.4h1.5v7.42h-1.5zM246 329.92l-1.47-5.23h1.51l.39 1.62.29 1.59.31-1.59.4-1.62h1.34l-2 6.94h-1.31z" fill="#211e1e"/></g></svg>