<svg xmlns="http://www.w3.org/2000/svg" xmlns:xlink="http://www.w3.org/1999/xlink" viewBox="0 0 612.04 395.91"><defs><clipPath id="clip-path"><rect x="-0.03" y="-0.08" width="612.01" height="395.99" fill="none"/></clipPath></defs><title>TopLeft-box</title><g style="isolation:isolate"><g id="Layer_1" data-name="Layer 1"><g clip-path="url(#clip-path)"><rect x="-0.03" y="-0.08" width="1224.02" height="791.98" fill="#cfd1d2"/><polyline points="107.13 60.08 165.07 60.08 165.07 86.38 107.13 86.38" fill="none" stroke="#fff" stroke-miterlimit="10" stroke-width="2"/><polyline points="186.52 72.08 244.46 72.08 244.46 114.38 186.52 114.38" fill="none" stroke="#fff" stroke-miterlimit="10" stroke-width="2"/><polyline points="239.18 93.41 297.13 93.41 297.13 177.05 239.18 177.05" fill="none" stroke="#fff" stroke-miterlimit="10" stroke-width="2"/><circle cx="615.46" cy="404.78" r="370.75" fill="#c9cacc"/><polyline points="297.85 138.75 349.79 138.75 349.79 301.38 297.85 301.38" fill="none" stroke="#fff" stroke-miterlimit="10" stroke-width="2"/><polyline points="359.12 214.38 411.06 214.38 411.06 570.5 359.12 570.5" fill="none" stroke="#fff" stroke-miterlimit="10" stroke-width="2"/><polyline points="239.18 260.75 297.13 260.75 297.13 344.38 239.18 344.38" fill="none" stroke="#fff" stroke-miterlimit="10" stroke-width="2"/><polyline points="186.52 154.92 244.46 154.92 244.46 197.22 186.52 197.22" fill="none" stroke="#fff" stroke-miterlimit="10" stroke-width="2"/><polyline points="186.52 238.92 244.46 238.92 244.46 281.22 186.52 281.22" fill="none" stroke="#fff" stroke-miterlimit="10" stroke-width="2"/><polyline points="186.52 322.25 244.46 322.25 244.46 364.55 186.52 364.55" fill="none" stroke="#fff" stroke-miterlimit="10" stroke-width="2"/><polyline points="107.13 101.52 165.07 101.52 165.07 127.82 107.13 127.82" fill="none" stroke="#fff" stroke-miterlimit="10" stroke-width="2"/><polyline points="107.13 142.96 165.07 142.96 165.07 169.26 107.13 169.26" fill="none" stroke="#fff" stroke-miterlimit="10" stroke-width="2"/><polyline points="107.13 184.41 165.07 184.41 165.07 210.71 107.13 210.71" fill="none" stroke="#fff" stroke-miterlimit="10" stroke-width="2"/><polyline points="107.13 225.85 165.07 225.85 165.07 252.15 107.13 252.15" fill="none" stroke="#fff" stroke-miterlimit="10" stroke-width="2"/><polyline points="107.13 267.29 165.07 267.29 165.07 293.59 107.13 293.59" fill="none" stroke="#fff" stroke-miterlimit="10" stroke-width="2"/><polyline points="107.13 308.73 165.07 308.73 165.07 335.03 107.13 335.03" fill="none" stroke="#fff" stroke-miterlimit="10" stroke-width="2"/><polyline points="107.13 350.17 165.07 350.17 165.07 376.47 107.13 376.47" fill="none" stroke="#fff" stroke-miterlimit="10" stroke-width="2"/><rect x="47.01" y="56.14" width="75.67" height="16" fill="#fff"/><rect x="127.67" y="64.71" width="75.67" height="15.73" fill="#fff"/><rect x="207.17" y="85.3" width="75.67" height="16" fill="#fff"/><rect x="207.17" y="167.8" width="75.67" height="16" fill="#fff"/><rect x="207.17" y="253.3" width="75.67" height="16" fill="#fff"/><rect x="207.17" y="335.3" width="75.67" height="16" fill="#fff"/><rect x="259.51" y="292.8" width="75.67" height="16" fill="#fff"/><rect x="559.83" y="-4.69" width="105.25" height="799.53" fill="#b1b3b4"/><rect x="313.56" y="206.8" width="75.67" height="16" fill="#fff"/><rect x="259.51" y="130.8" width="75.67" height="16" fill="#fff"/><rect x="127.67" y="106.3" width="75.67" height="16" fill="#fff"/><rect x="127.67" y="147.8" width="75.67" height="16" fill="#fff"/><rect x="127.67" y="189.3" width="75.67" height="16" fill="#fff"/><rect x="127.67" y="230.8" width="75.67" height="16" fill="#fff"/><rect x="127.67" y="272.3" width="75.67" height="16" fill="#fff"/><rect x="127.67" y="313.8" width="75.67" height="16" fill="#fff"/><rect x="127.67" y="355.3" width="75.67" height="16" fill="#fff"/><rect x="47.01" y="75.14" width="75.67" height="16" fill="#fff"/><rect x="47.01" y="97.64" width="75.67" height="16" fill="#fff"/><rect x="47.01" y="116.64" width="75.67" height="16" fill="#fff"/><rect x="47.01" y="139.14" width="75.67" height="16" fill="#fff"/><rect x="47.01" y="158.14" width="75.67" height="16" fill="#fff"/><rect x="47.01" y="180.64" width="75.67" height="16" fill="#fff"/><rect x="47.01" y="199.64" width="75.67" height="16" fill="#fff"/><rect x="47.01" y="222.14" width="75.67" height="16" fill="#fff"/><rect x="47.01" y="241.14" width="75.67" height="16" fill="#fff"/><rect x="47.01" y="263.64" width="75.67" height="16" fill="#fff"/><rect x="47.01" y="282.64" width="75.67" height="16" fill="#fff"/><rect x="47.01" y="305.14" width="75.67" height="16" fill="#fff"/><rect x="47.01" y="324.14" width="75.67" height="16" fill="#fff"/><rect x="47.01" y="346.64" width="75.67" height="16" fill="#fff"/><rect x="47.01" y="365.64" width="75.67" height="16" fill="#fff"/><path d="M553.16,41.28c-.4.31-1.09.88-1.09.88a2,2,0,0,1-1.06.56,5.2,5.2,0,0,1-2.33-1V32.84h4.48v8.43ZM538,29.53V21.41l1.55-.92,3.07,2.22v6.81Zm8.57,11.61V22.33l1.62-1V41.63a9.66,9.66,0,0,0-1.62-.5Zm2.08-11.61V21.16l1-.64a6,6,0,0,0,3.46,2.26v6.74Zm11.12,13a6.45,6.45,0,0,1-2.72-1.31V22.89a4.06,4.06,0,0,0,2-3l-.07-.11a6.63,6.63,0,0,1-2.26.35A4.64,4.64,0,0,1,553,18.2l-5.5,3.14c-1.44-1-3.2-2.24-4.59-3.25l-7.13,4.13c-2.26,1.31-3.85,2.83-3.85,5.33v2h-.53a2.85,2.85,0,0,0-3.14,2.75,2.5,2.5,0,0,0,.88,2l.1,0a1.84,1.84,0,0,1,2.08-1.52h.6v4.34a3.61,3.61,0,0,1-1.31,3.11l0,.07c2.79-.27,5.22-1.68,5.22-4.52V22.65c.56-.32.88-.54,1.69-1V40.29c0,1.67-.65,2.22-2.29,2.22-1.86,0-3.74-.85-5.47-.85-2.68,0-4.13,1.68-4.27,4.41l.21.07a3.43,3.43,0,0,1,3.1-1.27c1.7,0,3.35.88,5.12.88,2.51,0,4.06-1.45,4.06-3.85V32.84h4.66v8.5a7,7,0,0,0-3.39,3.74l.07.18a6,6,0,0,1,3.53-1.13A8.42,8.42,0,0,1,548,45.72c.88-.74,3.45-2.61,4.48-3.39,1.37,1.06,3,2.32,4.13,3.35,1.26-1.24,3.25-3.1,3.25-3.1l0-.07Zm15.63-.39L573,43.54a4.85,4.85,0,0,1-2-4.34c0-1.84.6-3.21,2.36-3.21a6.81,6.81,0,0,1,2,.28v5.86Zm-2.19-6.67a8.77,8.77,0,0,0-1.87.28V29.49l.17-.14c1.57,1.05,2.53,1.71,3.88,2.68v3.7a8.13,8.13,0,0,0-2.19-.28ZM580.83,43a3.86,3.86,0,0,1-1.84-.92V30.52c-2-1.36-3.26-2.15-4.9-3.25a40.84,40.84,0,0,1-5.4,3.14v3.85a14.11,14.11,0,0,1,2.5,1.52c-2.48.91-3.74,2.59-3.74,4.59a5.9,5.9,0,0,0,3.1,5.33c2.09-1.32,2.91-1.9,4.45-2.79,1.53,1.14,2.44,1.83,3.64,2.75L580.86,43l0-.07Zm65.73-8.72-3.07,1.91V29.63l.28-.18c.74,1.33,1.86,3.28,2.79,4.8Zm-.32-7c-1.49,1.08-4.49,3.07-6.32,4.16V42.65c1.37.9,3,2,4.34,3,1.31-1.47,2.65-2.78,4-4.06l-.29-.28c-.84.84-1.21,1.27-1.69,1.27s-1.13-.4-2.79-1.41V36.65l6.28-3.88c-1.39-2.09-2.55-3.87-3.53-5.51Zm22.9,14.86-2.4,1.41a4.84,4.84,0,0,1-2-4.34c0-1.84.6-3.21,2.37-3.21a6.83,6.83,0,0,1,2,.28v5.86Zm-2.19-6.67a8.79,8.79,0,0,0-1.87.28V29.49l.21-.14c1.57,1.05,2.5,1.71,3.85,2.68v3.7a8.15,8.15,0,0,0-2.19-.28ZM674.53,43a3.86,3.86,0,0,1-1.84-.92V30.52c-2-1.36-3.26-2.15-4.9-3.25a40.65,40.65,0,0,1-5.4,3.14v3.85a14.12,14.12,0,0,1,2.51,1.52c-2.48.91-3.74,2.59-3.74,4.59a5.91,5.91,0,0,0,3.11,5.33c2.09-1.32,2.91-1.9,4.45-2.79,1.53,1.14,2.44,1.83,3.63,2.75L674.57,43l0-.07Zm16.83-.53-.63.49a36.28,36.28,0,0,1-3.71-2.4V28.89c.6-.36,1.18-.66,2-1.16L691.36,30V42.44Zm3.56-13.66c-4.06-4.14-7.57-7.73-9.14-9.35-.82.72-1.84,1.52-3.07,2.4l0,.07a5.29,5.29,0,0,1,1.94,1.41l4.06,4.09c-2,1.17-3.73,2.11-5.29,3v12c1.45,1,3.28,2.21,4.76,3.35a33,33,0,0,1,6.7-5V28.78ZM537,18.94l-.21-.1a3.14,3.14,0,0,1-1.83.63c-1.11,0-2.37-.78-3.63-.78-2,0-3.83,1.41-4.13,4.34l.18.11A2.78,2.78,0,0,1,530,21.59c1,0,2.51.74,3.25.74,1.54,0,2.74-1.26,3.67-3.39Zm30,23.85,0-.07a6,6,0,0,1-2.08-.92V29.24c-1-.68-1.76-1.26-2.68-2l-2.36,2.65,0,.07a3.5,3.5,0,0,1,1.45.85V43.32c1,.68,2.24,1.6,3.21,2.36,1.54-1.84,2.47-2.89,2.47-2.89ZM564.91,22.5c-.8-.62-1.63-1.3-2.4-2-.73.9-1.4,1.61-2,2.29.91.7,1.81,1.33,2.47,1.91.8-.95,1.4-1.62,2-2.22Zm39.21,20.25,0-.07a5.05,5.05,0,0,1-2.08-.88V29.91c-.94-.61-3.21-2-4.23-2.68-1.16,1-2.29,1.94-3.49,2.9-1.27-.92-2.82-2-4-2.82-1.38,1.11-2.56,2-3.6,2.82-1.3-1-2.52-2-3.64-2.86-.73.88-1.66,1.84-2.51,2.68l0,.07c.6.06,1,.28,2.15,1.31V44c.54.39,1.37,1.05,2.12,1.66.73-.78,1.6-1.61,2.43-2.4-.29-.15-.67-.38-1-.6V31l1.77-1.41,2.5,1.73V44s1.23.95,2.12,1.66c.58-.58,1.82-1.75,2.47-2.36l-1-.64V30.87l1.45-1.17,2.82,1.73V43.32c1.14.79,2.14,1.52,3.21,2.36,1.78-2.18,2.47-2.93,2.47-2.93Zm7.23,0,0-.07a6,6,0,0,1-2.08-.92V29.24c-1-.68-1.76-1.26-2.68-2l-2.36,2.65,0,.07a3.5,3.5,0,0,1,1.45.85V43.32c1,.68,2.24,1.6,3.21,2.36,1.54-1.84,2.47-2.89,2.47-2.89ZM609.27,22.5c-.8-.62-1.63-1.3-2.4-2-.73.9-1.4,1.61-2,2.29.91.7,1.8,1.33,2.47,1.91.8-.95,1.39-1.62,2-2.22Zm14.87-.07-.11-.07c-2.49.74-4.34,2.34-4.34,5.36v1.8h-.85a2.82,2.82,0,0,0-3.11,2.75,2.49,2.49,0,0,0,.85,2h.11c.15-.78.67-1.48,2.08-1.48h.92v5a2.74,2.74,0,0,1-.81,2l.18.11a6,6,0,0,0,4.55-5.58V26.24c0-2.19.16-3.14.53-3.81Zm14.57-3.18-.07-.14a6.77,6.77,0,0,1-2.61.49,5.43,5.43,0,0,1-3.64-1.38c-.82.91-1.85,2-2.72,2.86a5.47,5.47,0,0,0,2.72,1.38v7.06h-6.56V18.41h-.46V41.84a10,10,0,0,0-4.23-1,6.36,6.36,0,0,0-6.42,4.27l.07.18a8.66,8.66,0,0,1,4.55-1.17,8.18,8.18,0,0,1,5.12,1.52c1.07-1.45,2.57-3.17,3.42-4.2l-.28-.25c-.34.49-.81,1-1.16,1a1.34,1.34,0,0,1-.6-.18V32.84h6.56v8.5a5.11,5.11,0,0,0-4.13,4.06l0,.14a6.88,6.88,0,0,1,4-1.23,5.22,5.22,0,0,1,3.56,1.38l2.82-3a6.46,6.46,0,0,0-2.33-1V22.29a4.67,4.67,0,0,0,2.36-3ZM624.32,19l-.07-.14a3,3,0,0,1-1.94.67c-1.11,0-2.37-.78-3.63-.78-2,0-3.79,1.37-4.09,4.31l.14.14a2.79,2.79,0,0,1,2.72-1.55c1,0,2.51.74,3.25.74,1.54,0,2.7-1.26,3.63-3.39Zm37.55,10,0-.11a5.23,5.23,0,0,1-3.74-1.69c-.94,1-1.67,1.68-2.72,2.61-1.25-.91-2.13-1.66-3.32-2.65l-2.4,2.68,0,.07a5.37,5.37,0,0,1,2,1.31V42.65c1.49,1,2.92,2,4.38,3,1-1.1,2.17-2.33,3.42-3.56l-.25-.25c-.49.49-.81.71-1.23.71s-1.12-.34-2.75-1.27V30.52l.32-.32a3.67,3.67,0,0,0,3,1.41c1.45,0,2.57-1,3.28-2.54Zm20.4,13.76c-.73.73-1.72,1.83-2.58,2.86-1.26-1-2.49-1.82-3.21-2.36v-19a1.54,1.54,0,0,0-.88-1.55v-.11L680,19.47l.07.07V41.81a5,5,0,0,0,2.19,1l0,.07Z" fill="none" stroke="#b1b3b4" stroke-linecap="round" stroke-miterlimit="10" stroke-width="11"/><path d="M52.69,62.29l-1,.91V61.79l1.32-1.33h1.21v7.18H52.69Z" fill="#221f1f"/><path d="M56.72,60.52h2c1.27,0,2.05.59,2.05,1.92a1.49,1.49,0,0,1-.9,1.47A1.64,1.64,0,0,1,61,65.57a2,2,0,0,1-2.28,2.06h-2Zm1.6,1.1v1.82h.28c.48,0,.68-.29.68-.94s-.21-.86-.68-.87Zm0,2.87v2h.32c.53,0,.79-.29.79-1.06s-.26-1-.78-1Z" fill="#221f1f"/><path d="M63.9,67.73c-1.44,0-2.46-.79-2.46-2.72,0-1.7.9-2.66,2-2.66s1.85.6,1.85,2.27v.84h-2.4c.09.74.41,1.06,1.08,1.06a2.07,2.07,0,0,0,1-.24l.21,1.11A2.4,2.4,0,0,1,63.9,67.73Zm-1-3.26h1c0-.78-.16-1-.48-1S63,63.87,62.93,64.47Z" fill="#221f1f"/><path d="M67.91,67.16a1,1,0,0,1-1,.59c-.88,0-1.26-.79-1.26-1.64,0-1.07.59-1.66,1.4-1.66a1.1,1.1,0,0,1,.83.31V64.3a.68.68,0,0,0-.76-.73,1.82,1.82,0,0,0-1,.26l-.3-1.1a3,3,0,0,1,1.56-.37,1.7,1.7,0,0,1,1.95,1.9v3.38H67.91Zm0-.56V65.48a.59.59,0,0,0-.36-.12c-.26,0-.44.21-.44.68s.15.71.44.71A.54.54,0,0,0,67.91,66.6Z" fill="#221f1f"/><path d="M70.14,67.64V60.22h1.5v4.5l1.11-2.21h1.43L73,64.82l1.3,2.81H72.65l-1-2.31v2.31Z" fill="#221f1f"/><path d="M77,67.73c-1.44,0-2.46-.79-2.46-2.72,0-1.7.9-2.66,2-2.66s1.85.6,1.85,2.27v.84H76c.09.74.41,1.06,1.08,1.06a2.07,2.07,0,0,0,1-.24l.21,1.11A2.4,2.4,0,0,1,77,67.73Zm-1-3.26h1c0-.78-.16-1-.48-1S76,63.87,76,64.47Z" fill="#221f1f"/><path d="M79,67.64V62.51h1.5v.91a1.52,1.52,0,0,1,1.25-1v1.63c-.29,0-1-.09-1.25.36v3.2Z" fill="#221f1f"/><path d="M85.64,67.16a1,1,0,0,1-1,.59c-.88,0-1.26-.79-1.26-1.64,0-1.07.59-1.66,1.4-1.66a1.1,1.1,0,0,1,.83.31V64.3a.68.68,0,0,0-.76-.73,1.82,1.82,0,0,0-1,.26l-.3-1.1a3,3,0,0,1,1.56-.37,1.7,1.7,0,0,1,1.95,1.9v3.38H85.64Zm0-.56V65.48a.59.59,0,0,0-.36-.12c-.26,0-.44.21-.44.68s.15.71.44.71A.54.54,0,0,0,85.64,66.6Z" fill="#221f1f"/><path d="M87.87,67.64V62.51h1.49v.63a1.47,1.47,0,0,1,1.27-.79c.88,0,1.26.59,1.26,1.61v3.68H90.41V64.12c0-.34-.15-.5-.45-.5a.66.66,0,0,0-.6.42v3.6Z" fill="#221f1f"/><path d="M95.25,67a1.25,1.25,0,0,1-1.13.72c-1,0-1.67-.85-1.67-2.67s.77-2.74,1.73-2.74a1.12,1.12,0,0,1,1.07.64V60.22h1.49v7.42H95.25Zm0-.88V63.88a.67.67,0,0,0-.59-.3c-.41,0-.7.46-.7,1.51s.28,1.45.69,1.45A.71.71,0,0,0,95.25,66.15Z" fill="#221f1f"/><path d="M101.57,67.78c-1.72,0-2.81-1.1-2.81-3.64s1.23-3.73,2.93-3.73a3.3,3.3,0,0,1,1.5.29L102.8,62a2.09,2.09,0,0,0-.93-.21c-.93,0-1.46.73-1.46,2.36s.28,2.35,1.21,2.35h.21V64.84h-.58V63.59h2.1v3.75A3.2,3.2,0,0,1,101.57,67.78Z" fill="#221f1f"/><path d="M104.18,67.64V62.51h1.5v.91a1.52,1.52,0,0,1,1.25-1v1.63c-.29,0-1-.09-1.25.36v3.2Z" fill="#221f1f"/><path d="M109.49,67.16a1,1,0,0,1-1,.59c-.88,0-1.26-.79-1.26-1.64,0-1.07.59-1.66,1.4-1.66a1.1,1.1,0,0,1,.83.31V64.3a.68.68,0,0,0-.76-.73,1.82,1.82,0,0,0-1,.26l-.3-1.1a3,3,0,0,1,1.56-.37,1.7,1.7,0,0,1,1.95,1.9v3.38h-1.49Zm0-.56V65.48a.59.59,0,0,0-.36-.12c-.26,0-.44.21-.44.68s.15.71.44.71A.54.54,0,0,0,109.49,66.6Z" fill="#221f1f"/><path d="M112.86,67.74l-1.47-5.23h1.51l.39,1.62.29,1.59h0l.31-1.59.4-1.62h1.34l-2,6.94h-1.31Z" fill="#221f1f"/><rect x="375.79" y="386.92" width="75.67" height="16" fill="#fff"/><path d="M52.69,81.29l-1,.91V80.79l1.32-1.33h1.21v7.18H52.69Z" fill="#221f1f"/><path d="M55.18,83.9a5.42,5.42,0,0,1,2-4.38H59v.09a5.43,5.43,0,0,0-2.07,2.83,1.21,1.21,0,0,1,1-.48c.85,0,1.55.71,1.55,2.27s-.82,2.55-2.1,2.55S55.18,85.85,55.18,83.9Zm2.71.32c0-.93-.26-1.15-.59-1.15a.74.74,0,0,0-.56.31c0,.19,0,.38,0,.58,0,1.31.23,1.64.59,1.64S57.88,85.21,57.88,84.22Z" fill="#221f1f"/><path d="M61.5,79.52h1.63v5.89h1.63v1.23H61.5Z" fill="#221f1f"/><path d="M67.39,86.16a1,1,0,0,1-1,.59c-.88,0-1.26-.79-1.26-1.64,0-1.07.59-1.66,1.4-1.66a1.1,1.1,0,0,1,.83.31V83.3a.68.68,0,0,0-.76-.73,1.82,1.82,0,0,0-1,.26l-.3-1.1a3,3,0,0,1,1.56-.37,1.7,1.7,0,0,1,1.95,1.9v3.38H67.39Zm0-.56V84.48a.59.59,0,0,0-.36-.12c-.26,0-.44.21-.44.68s.15.71.44.71A.54.54,0,0,0,67.39,85.6Z" fill="#221f1f"/><path d="M75,86.46a2.28,2.28,0,0,1-1.24.29c-1.81,0-2.93-1.18-2.93-3.59s1.25-3.75,2.89-3.75a2.48,2.48,0,0,1,1.28.27l-.36,1.21a2,2,0,0,0-.81-.16c-.89,0-1.36.88-1.36,2.42s.48,2.3,1.39,2.3a1.76,1.76,0,0,0,.78-.18Z" fill="#221f1f"/><path d="M77.58,86.16a1,1,0,0,1-1,.59c-.88,0-1.26-.79-1.26-1.64,0-1.07.59-1.66,1.4-1.66a1.1,1.1,0,0,1,.83.31V83.3a.68.68,0,0,0-.76-.73,1.82,1.82,0,0,0-1,.26l-.3-1.1a3,3,0,0,1,1.56-.37,1.7,1.7,0,0,1,1.95,1.9v3.38H77.58Zm0-.56V84.48a.59.59,0,0,0-.36-.12c-.26,0-.44.21-.44.68s.15.71.44.71A.54.54,0,0,0,77.58,85.6Z" fill="#221f1f"/><path d="M79.81,86.64V81.51H81.3v.6a1.35,1.35,0,0,1,1.17-.76,1,1,0,0,1,1.1.9,1.46,1.46,0,0,1,1.28-.9c.85,0,1.22.59,1.22,1.61v3.68H84.58V83.12c0-.34-.1-.5-.38-.5a.56.56,0,0,0-.51.38v3.64H82.19V83.12c0-.34-.1-.5-.38-.5a.56.56,0,0,0-.51.38v3.64Z" fill="#221f1f"/><path d="M88.82,86.16a1,1,0,0,1-1,.59c-.88,0-1.26-.79-1.26-1.64,0-1.07.59-1.66,1.4-1.66a1.1,1.1,0,0,1,.83.31V83.3a.68.68,0,0,0-.76-.73,1.82,1.82,0,0,0-1,.26l-.3-1.1a3,3,0,0,1,1.56-.37,1.7,1.7,0,0,1,1.95,1.9v3.38H88.82Zm0-.56V84.48a.59.59,0,0,0-.36-.12c-.26,0-.44.21-.44.68s.15.71.44.71A.54.54,0,0,0,88.82,85.6Z" fill="#221f1f"/><path d="M91,86.64V81.51h1.5v.91a1.52,1.52,0,0,1,1.25-1v1.63c-.29,0-1-.09-1.25.36v3.2Z" fill="#221f1f"/><path d="M96.34,86.78c-1.27,0-2.19-.93-2.19-2.67s.91-2.76,2.19-2.76,2.19,1,2.19,2.76S97.61,86.78,96.34,86.78Zm0-1.2c.39,0,.67-.41.67-1.49s-.29-1.54-.67-1.54-.67.47-.67,1.54S95.95,85.58,96.34,85.58Z" fill="#221f1f"/><path d="M99.1,86.64V81.51h1.49v.63a1.47,1.47,0,0,1,1.27-.79c.88,0,1.26.59,1.26,1.61v3.68h-1.49V83.12c0-.34-.15-.5-.45-.5a.66.66,0,0,0-.6.42v3.6Z" fill="#221f1f"/><path d="M106.13,86.73c-1.44,0-2.46-.79-2.46-2.72,0-1.7.9-2.66,2-2.66s1.85.6,1.85,2.27v.84h-2.4c.09.74.41,1.06,1.08,1.06a2.07,2.07,0,0,0,1-.24l.21,1.11A2.4,2.4,0,0,1,106.13,86.73Zm-1-3.26h1c0-.78-.16-1-.48-1S105.2,82.87,105.16,83.47Z" fill="#221f1f"/><path d="M108.14,86.64V81.51h1.5v.91a1.52,1.52,0,0,1,1.25-1v1.63c-.29,0-1-.09-1.25.36v3.2Z" fill="#221f1f"/><path d="M113.45,86.16a1,1,0,0,1-1,.59c-.88,0-1.26-.79-1.26-1.64,0-1.07.59-1.66,1.4-1.66a1.1,1.1,0,0,1,.83.31V83.3a.68.68,0,0,0-.76-.73,1.82,1.82,0,0,0-1,.26l-.3-1.1a3,3,0,0,1,1.56-.37,1.7,1.7,0,0,1,1.95,1.9v3.38h-1.49Zm0-.56V84.48a.59.59,0,0,0-.36-.12c-.26,0-.44.21-.44.68s.15.71.44.71A.54.54,0,0,0,113.45,85.6Z" fill="#221f1f"/><path d="M51.73,107.3a2,2,0,0,1,.93-1.7,2.27,2.27,0,0,1-.81-1.75,1.82,1.82,0,0,1,1.87-1.95,1.74,1.74,0,0,1,1.88,1.83,2,2,0,0,1-.81,1.65,2.13,2.13,0,0,1,.93,1.81,1.91,1.91,0,0,1-2,2.1A1.85,1.85,0,0,1,51.73,107.3Zm2.5,0a1.5,1.5,0,0,0-.67-1.17,1.66,1.66,0,0,0-.48,1.15c0,.5.22.84.59.84S54.23,107.79,54.23,107.29Zm-.36-2.48a1.45,1.45,0,0,0,.47-1c0-.39-.17-.71-.54-.71s-.54.33-.54.7A1.35,1.35,0,0,0,53.87,104.81Z" fill="#221f1f"/><path d="M58.81,106.4,57.28,102h1.64l.5,1.62.27,1.16h0l.29-1.16.48-1.62h1.41l-1.45,4.35v2.77H58.81Z" fill="#221f1f"/><path d="M64.26,108.66a1,1,0,0,1-1,.59c-.88,0-1.26-.79-1.26-1.64,0-1.07.59-1.66,1.4-1.66a1.1,1.1,0,0,1,.83.31v-.47a.68.68,0,0,0-.76-.73,1.82,1.82,0,0,0-1,.26l-.3-1.1a3,3,0,0,1,1.56-.37,1.7,1.7,0,0,1,1.95,1.9v3.38H64.26Zm0-.56V107a.59.59,0,0,0-.36-.12c-.26,0-.44.21-.44.68s.15.71.44.71A.54.54,0,0,0,64.26,108.1Z" fill="#221f1f"/><path d="M66.49,109.14V104H68v.91a1.52,1.52,0,0,1,1.25-1v1.63c-.29,0-1-.09-1.25.36v3.2Z" fill="#221f1f"/><path d="M72.4,108.54a1.25,1.25,0,0,1-1.13.72c-1,0-1.67-.85-1.67-2.67s.77-2.74,1.73-2.74a1.12,1.12,0,0,1,1.07.64v-2.77h1.49v7.42H72.4Zm0-.88v-2.27a.67.67,0,0,0-.59-.3c-.41,0-.7.46-.7,1.51s.28,1.45.69,1.45A.71.71,0,0,0,72.4,107.65Z" fill="#221f1f"/><path d="M76.16,108.57v.56H74.67v-7.42h1.49v2.84a1.38,1.38,0,0,1,1.18-.71c1,0,1.63.85,1.63,2.67s-.77,2.74-1.71,2.74A1.18,1.18,0,0,1,76.16,108.57Zm1.29-2.05c0-1.06-.28-1.44-.69-1.44a.71.71,0,0,0-.6.38v2.27a.67.67,0,0,0,.59.3C77.16,108,77.45,107.58,77.45,106.52Z" fill="#221f1f"/><path d="M80.27,101.94a.82.82,0,1,1,0,1.64.82.82,0,1,1,0-1.64ZM79.52,104H81v5.12H79.52Z" fill="#221f1f"/><path d="M81.78,109.14V104h1.5v.91a1.52,1.52,0,0,1,1.25-1v1.63c-.29,0-1-.09-1.25.36v3.2Z" fill="#221f1f"/><path d="M87.7,108.54a1.25,1.25,0,0,1-1.13.72c-1,0-1.67-.85-1.67-2.67s.77-2.74,1.73-2.74a1.12,1.12,0,0,1,1.07.64v-2.77h1.49v7.42H87.7Zm0-.88v-2.27a.67.67,0,0,0-.59-.3c-.41,0-.7.46-.7,1.51s.28,1.45.69,1.45A.71.71,0,0,0,87.7,107.65Z" fill="#221f1f"/><path d="M52.19,128.05a5.65,5.65,0,0,0,2.06-2.81,1.23,1.23,0,0,1-.94.46c-.85,0-1.55-.71-1.55-2.27s.82-2.55,2.1-2.55,2.13.93,2.13,2.84a5.5,5.5,0,0,1-1.94,4.42H52.19Zm2.23-3.78c0-.19,0-.4,0-.62,0-1.27-.23-1.6-.59-1.6s-.58.39-.58,1.38.26,1.15.59,1.15A.71.71,0,0,0,54.43,124.27Z" fill="#221f1f"/><path d="M58.13,121h1.63v5.89h1.63v1.23H58.13Z" fill="#221f1f"/><path d="M64,128.28c-1.27,0-2.19-.93-2.19-2.67s.91-2.76,2.19-2.76,2.19,1,2.19,2.76S65.28,128.28,64,128.28Zm0-1.2c.39,0,.67-.41.67-1.49S64.39,124,64,124s-.67.47-.67,1.54S63.61,127.08,64,127.08Z" fill="#221f1f"/><path d="M66.77,128.14v-7.42h1.5v4.5L69.38,123h1.43l-1.21,2.31,1.3,2.81H69.27l-1-2.31v2.31Z" fill="#221f1f"/><path d="M73.34,127.66a1,1,0,0,1-1,.59c-.88,0-1.26-.79-1.26-1.64,0-1.07.59-1.66,1.4-1.66a1.1,1.1,0,0,1,.83.31v-.47a.68.68,0,0,0-.76-.73,1.82,1.82,0,0,0-1,.26l-.3-1.1a3,3,0,0,1,1.56-.37,1.7,1.7,0,0,1,1.95,1.9v3.38H73.34Zm0-.56V126a.59.59,0,0,0-.36-.12c-.26,0-.44.21-.44.68s.15.71.44.71A.54.54,0,0,0,73.34,127.1Z" fill="#221f1f"/><path d="M75.58,120.72h1.5v7.42h-1.5Z" fill="#221f1f"/><path d="M51.61,150.47l.38-1.22a1.51,1.51,0,0,0,.77.18c.51,0,.9-.38.9-1.08s-.32-1.1-1-1.1a1.78,1.78,0,0,0-.66.12l0,0,.24-3.83h2.81v1.27H53.43l-.09,1.33a1.94,1.94,0,0,1,1.87,2.2,2.21,2.21,0,0,1-2.3,2.48A2.52,2.52,0,0,1,51.61,150.47Z" fill="#221f1f"/><path d="M57.37,143.52H59v5.89h1.63v1.23H57.37Z" fill="#221f1f"/><path d="M63.71,150.09a1.39,1.39,0,0,1-1.19.69c-.88,0-1.3-.58-1.3-1.6v-3.68h1.49V149c0,.34.15.5.45.5a.64.64,0,0,0,.55-.33v-3.69H65.2v5.12H63.71Z" fill="#221f1f"/><path d="M66,150.64v-5.12h1.49v.63a1.47,1.47,0,0,1,1.27-.79c.88,0,1.26.59,1.26,1.61v3.68H68.51v-3.52c0-.34-.15-.5-.45-.5a.66.66,0,0,0-.6.42v3.6Z" fill="#221f1f"/><path d="M72.45,152.55c-1.25,0-2-.42-2-1.16a1,1,0,0,1,.67-.9,1,1,0,0,1-.38-.79,1.33,1.33,0,0,1,.68-1.18,1.54,1.54,0,0,1-.72-1.41,1.7,1.7,0,0,1,1.82-1.76,1.9,1.9,0,0,1,1.2.41,1.48,1.48,0,0,1,1.1-.37v1.06a2.08,2.08,0,0,0-.63.07,1.32,1.32,0,0,1,.11.63,1.65,1.65,0,0,1-1.8,1.65,2.48,2.48,0,0,1-.46,0,.47.47,0,0,0-.14.32c0,.18.13.29.38.29h.89c1,0,1.57.47,1.57,1.44S74.06,152.55,72.45,152.55Zm.87-1.47c0-.2-.14-.37-.44-.37h-1a.5.5,0,0,0-.15.37c0,.32.22.52.78.52S73.31,151.38,73.31,151.07Zm-.86-3.18c.25,0,.46-.19.46-.78s-.21-.81-.46-.81-.45.21-.45.81S72.23,147.89,72.46,147.89Z" fill="#221f1f"/><path d="M77.75,147.9l-1.53-4.38h1.64l.5,1.62.27,1.16h0l.29-1.16.48-1.62h1.41l-1.45,4.35v2.77H77.75Z" fill="#221f1f"/><path d="M83.19,150.16a1,1,0,0,1-1,.59c-.88,0-1.26-.79-1.26-1.64,0-1.07.59-1.66,1.4-1.66a1.1,1.1,0,0,1,.83.31v-.47a.68.68,0,0,0-.76-.73,1.82,1.82,0,0,0-1,.26l-.3-1.1a3,3,0,0,1,1.56-.37,1.7,1.7,0,0,1,1.95,1.9v3.38H83.19Zm0-.56v-1.12a.59.59,0,0,0-.36-.12c-.26,0-.44.21-.44.68s.15.71.44.71A.54.54,0,0,0,83.19,149.6Z" fill="#221f1f"/><path d="M86.15,143.44a.82.82,0,1,1,0,1.64.82.82,0,1,1,0-1.64Zm-.75,2.07H86.9v5.12H85.4Z" fill="#221f1f"/><path d="M52.57,164.29l-.85.91v-1.42l1.19-1.33H54v7.18H52.57Z" fill="#221f1f"/><path d="M54.59,169.64v-1l1.06-2.13a4.62,4.62,0,0,0,.59-2c0-.47-.21-.79-.68-.79a1.41,1.41,0,0,0-.73.23l-.27-1.22a2.19,2.19,0,0,1,1.27-.33c1.33,0,1.87.83,1.87,2a6.84,6.84,0,0,1-1.05,3l-.52,1h1.55v1.25Z" fill="#221f1f"/><path d="M59.25,162.52h2c1,0,1.79.7,1.79,2.18a2.13,2.13,0,0,1-.82,1.83l1,3.12H61.71l-.85-2.72H60.7v2.72H59.25Zm1.44,1.2v2.11H61c.5,0,.66-.42.66-1.08s-.16-1-.64-1Z" fill="#221f1f"/><path d="M64.14,162.44a.76.76,0,0,1,.75.82.75.75,0,1,1-.75-.82Zm-.68,2.07h1.34v5.12H63.47Z" fill="#221f1f"/><path d="M65.33,169.64v-5.12h1.34v.63a1.32,1.32,0,0,1,1.15-.79c.79,0,1.14.59,1.14,1.61v3.68H67.61v-3.52c0-.34-.14-.5-.4-.5a.6.6,0,0,0-.54.42v3.6Z" fill="#221f1f"/><path d="M72.28,169.47a1.56,1.56,0,0,1-.92.27c-1.27,0-2.08-.87-2.08-2.63s.87-2.7,2.09-2.7a1.82,1.82,0,0,1,.93.22L72,165.8a1,1,0,0,0-.54-.15c-.5,0-.81.51-.81,1.43s.26,1.41.83,1.41a1,1,0,0,0,.54-.15Z" fill="#221f1f"/><path d="M74.39,169.78c-1.15,0-2-.93-2-2.67s.82-2.76,2-2.76,2,1,2,2.76S75.53,169.78,74.39,169.78Zm0-1.2c.35,0,.61-.41.61-1.49s-.26-1.54-.61-1.54-.61.47-.61,1.54S74,168.58,74.39,168.58Z" fill="#221f1f"/><path d="M76.7,169.64v-5.12H78v.63a1.32,1.32,0,0,1,1.15-.79c.79,0,1.14.59,1.14,1.61v3.68H79v-3.52c0-.34-.14-.5-.4-.5A.6.6,0,0,0,78,166v3.6Z" fill="#221f1f"/><path d="M83.65,169.47a1.56,1.56,0,0,1-.92.27c-1.27,0-2.08-.87-2.08-2.63s.87-2.7,2.09-2.7a1.82,1.82,0,0,1,.93.22l-.32,1.19a1,1,0,0,0-.54-.15c-.5,0-.81.51-.81,1.43s.26,1.41.83,1.41a1,1,0,0,0,.54-.15Z" fill="#221f1f"/><path d="M84.63,162.44a.76.76,0,0,1,.75.82.75.75,0,1,1-.75-.82ZM84,164.51H85.3v5.12H84Z" fill="#221f1f"/><path d="M86,168.18v-2.56H85.6v-1.11H86V163h1.35v1.5H88v1.11h-.63V168c0,.36.2.44.38.44a.68.68,0,0,0,.25,0v1.18a1.72,1.72,0,0,1-.5.08C86.5,169.7,86,169.26,86,168.18Z" fill="#221f1f"/><path d="M90.11,169.78c-1.15,0-2-.93-2-2.67s.82-2.76,2-2.76,2,1,2,2.76S91.25,169.78,90.11,169.78Zm0-1.2c.35,0,.61-.41.61-1.49s-.26-1.54-.61-1.54-.61.47-.61,1.54S89.76,168.58,90.11,168.58Z" fill="#221f1f"/><path d="M93.43,169.64l.44-7.12h1.42l.58,3,.15,1.09h0l.19-1.09.64-3H98.2l.44,7.12H97.26l-.13-2.83v-1.48h0l-.22,1.48-.56,2.83H95.5L95,166.8l-.19-1.48h0l0,1.48-.15,2.83Z" fill="#221f1f"/><path d="M101.16,169.73c-1.3,0-2.21-.79-2.21-2.72,0-1.7.81-2.66,1.83-2.66s1.67.6,1.67,2.27v.84h-2.15c.08.74.37,1.06,1,1.06a1.71,1.71,0,0,0,.9-.24l.19,1.11A2,2,0,0,1,101.16,169.73Zm-.87-3.26h.94c0-.78-.15-1-.44-1S100.33,165.87,100.29,166.47Z" fill="#221f1f"/><path d="M102.49,169.64l1.15-2.63-1.09-2.49H104l.36.87.21.72h0l.21-.72.32-.87h1.21L105.19,167l1.12,2.6H104.9l-.38-.92-.21-.77h0l-.24.77-.36.92Z" fill="#221f1f"/><path d="M107.19,162.44a.76.76,0,0,1,.75.82.75.75,0,1,1-.75-.82Zm-.67,2.07h1.34v5.12h-1.34Z" fill="#221f1f"/><path d="M111.21,169.47a1.56,1.56,0,0,1-.92.27c-1.27,0-2.08-.87-2.08-2.63s.87-2.7,2.09-2.7a1.83,1.83,0,0,1,.93.22l-.32,1.19a1,1,0,0,0-.54-.15c-.5,0-.81.51-.81,1.43s.27,1.41.83,1.41a1,1,0,0,0,.54-.15Z" fill="#221f1f"/><path d="M113.33,169.16a.9.9,0,0,1-.86.59c-.79,0-1.14-.79-1.14-1.64,0-1.07.53-1.66,1.26-1.66a.94.94,0,0,1,.74.31v-.47a.64.64,0,0,0-.68-.73,1.51,1.51,0,0,0-.85.26l-.27-1.1a2.46,2.46,0,0,1,1.4-.37c1.23,0,1.75.7,1.75,1.9v3.38h-1.34Zm0-.56v-1.12a.5.5,0,0,0-.32-.12c-.23,0-.39.21-.39.68s.14.71.39.71A.46.46,0,0,0,113.33,168.6Z" fill="#221f1f"/><path d="M115.17,169.64v-5.12h1.34v.63a1.32,1.32,0,0,1,1.15-.79c.79,0,1.14.59,1.14,1.61v3.68h-1.34v-3.52c0-.34-.14-.5-.4-.5a.6.6,0,0,0-.54.42v3.6Z" fill="#221f1f"/><path d="M121.08,169.78c-1.15,0-2-.93-2-2.67s.82-2.76,2-2.76,2,1,2,2.76S122.22,169.78,121.08,169.78Zm0-1.2c.35,0,.61-.41.61-1.49s-.26-1.54-.61-1.54-.61.47-.61,1.54S120.73,168.58,121.08,168.58Z" fill="#221f1f"/><path d="M55.28,190.66v1.47H53.84v-1.47H51.71v-.93L53.32,185h2v4.54h.55v1.1Zm-1.44-1.1v-2.12l0-1.12h0l-.27,1.06-.72,2.18Z" fill="#221f1f"/><path d="M57.84,185h3.42v1.21H59.45v1.83h1.61v1.22H59.45v2.86H57.84Z" fill="#221f1f"/><path d="M62.68,184.94a.82.82,0,1,1,0,1.64.82.82,0,1,1,0-1.64ZM61.93,187h1.49v5.12H61.93Z" fill="#221f1f"/><path d="M64.19,192.14V187h1.49v.63a1.47,1.47,0,0,1,1.27-.79c.88,0,1.26.59,1.26,1.61v3.68H66.73v-3.52c0-.34-.15-.5-.45-.5a.66.66,0,0,0-.6.42v3.6Z" fill="#221f1f"/><path d="M69,192.14v-7.42h1.5v4.5L71.57,187H73l-1.21,2.31,1.3,2.81H71.47l-1-2.31v2.31Z" fill="#221f1f"/><path d="M75.53,191.66a1,1,0,0,1-1,.59c-.88,0-1.26-.79-1.26-1.64,0-1.07.59-1.66,1.4-1.66a1.1,1.1,0,0,1,.83.31v-.47a.68.68,0,0,0-.76-.73,1.82,1.82,0,0,0-1,.26l-.3-1.1a3,3,0,0,1,1.56-.37,1.7,1.7,0,0,1,1.95,1.9v3.38H75.53Zm0-.56V190a.59.59,0,0,0-.36-.12c-.26,0-.44.21-.44.68s.15.71.44.71A.54.54,0,0,0,75.53,191.1Z" fill="#221f1f"/><path d="M52.69,205.79l-1,.91v-1.42L53.06,204h1.21v7.18H52.69Z" fill="#221f1f"/><path d="M54.94,210.95l.35-1.23a1.86,1.86,0,0,0,.91.24.82.82,0,0,0,.86-.91c0-.53-.19-.94-.84-.94h-.31v-1.2h.31A.78.78,0,0,0,57,206c0-.54-.27-.83-.87-.83a1.68,1.68,0,0,0-.81.23L55,204.25a2.68,2.68,0,0,1,1.42-.35,1.82,1.82,0,0,1,2,2,1.54,1.54,0,0,1-1,1.53,1.67,1.67,0,0,1,1.08,1.73,2,2,0,0,1-2.16,2.13A2.8,2.8,0,0,1,54.94,210.95Z" fill="#221f1f"/><path d="M60.44,209.87a1.42,1.42,0,0,0,.39.06c.39,0,.55-.23.55-.74V204H63v5.16c0,1.2-.51,2.07-1.79,2.07a3,3,0,0,1-.94-.12Z" fill="#221f1f"/><path d="M63.82,211.14V206h1.5v.91a1.52,1.52,0,0,1,1.25-1v1.63c-.29,0-1-.09-1.25.36v3.2Z" fill="#221f1f"/><path d="M67,206.19a3.28,3.28,0,0,0,.58-.85.71.71,0,0,1-.6-.68.74.74,0,0,1,.75-.73.77.77,0,0,1,.75.86,2.6,2.6,0,0,1-1,1.74Z" fill="#221f1f"/><path d="M70.65,207c-.33,0-.49.11-.49.3s.12.29.33.41a8.28,8.28,0,0,1,1,.56,1.55,1.55,0,0,1,.63,1.29,1.62,1.62,0,0,1-1.83,1.65,2.55,2.55,0,0,1-1.5-.39l.36-1.07a2,2,0,0,0,1.06.32c.44,0,.53-.19.53-.41s-.1-.25-.27-.35a6.74,6.74,0,0,1-1-.62,1.46,1.46,0,0,1-.54-1.23,1.52,1.52,0,0,1,1.72-1.61,2.82,2.82,0,0,1,1.41.32l-.33,1.09A2,2,0,0,0,70.65,207Z" fill="#221f1f"/><path d="M76.69,211.28c-1.72,0-2.81-1.1-2.81-3.64s1.23-3.73,2.93-3.73a3.3,3.3,0,0,1,1.5.29l-.39,1.27a2.09,2.09,0,0,0-.93-.21c-.93,0-1.46.73-1.46,2.36S75.8,210,76.73,210h.21v-1.62h-.58v-1.25h2.1v3.75A3.2,3.2,0,0,1,76.69,211.28Z" fill="#221f1f"/><path d="M81.28,211.28c-1.27,0-2.19-.93-2.19-2.67s.91-2.76,2.19-2.76,2.19,1,2.19,2.76S82.56,211.28,81.28,211.28Zm0-1.2c.39,0,.67-.41.67-1.49s-.29-1.54-.67-1.54-.67.47-.67,1.54S80.89,210.08,81.28,210.08Z" fill="#221f1f"/><path d="M86.5,210.59a1.39,1.39,0,0,1-1.19.69c-.88,0-1.3-.58-1.3-1.6V206H85.5v3.52c0,.34.15.5.45.5a.64.64,0,0,0,.55-.33V206H88v5.12H86.5Z" fill="#221f1f"/><path d="M88.77,211.14V206h1.5v.91a1.52,1.52,0,0,1,1.25-1v1.63c-.29,0-1-.09-1.25.36v3.2Z" fill="#221f1f"/><path d="M92.07,211.14V206h1.49v.6a1.35,1.35,0,0,1,1.17-.76,1,1,0,0,1,1.1.9,1.46,1.46,0,0,1,1.28-.9c.85,0,1.22.59,1.22,1.61v3.68H96.85v-3.52c0-.34-.1-.5-.38-.5a.56.56,0,0,0-.51.38v3.64H94.46v-3.52c0-.34-.1-.5-.38-.5a.56.56,0,0,0-.51.38v3.64Z" fill="#221f1f"/><path d="M101.34,211.23c-1.44,0-2.46-.79-2.46-2.72,0-1.7.9-2.66,2-2.66s1.85.6,1.85,2.27V209h-2.4c.09.74.41,1.06,1.08,1.06a2.07,2.07,0,0,0,1-.24l.21,1.11A2.4,2.4,0,0,1,101.34,211.23Zm-1-3.26h1c0-.78-.16-1-.48-1S100.41,207.37,100.37,208Z" fill="#221f1f"/><path d="M103.51,209.68v-2.56h-.42V206h.42v-1.5H105V206h.7v1.11H105v2.42a.38.38,0,0,0,.43.44.83.83,0,0,0,.28,0v1.18a2.11,2.11,0,0,1-.56.08C104.1,211.2,103.51,210.76,103.51,209.68Z" fill="#221f1f"/><path d="M51.8,230.9a5.42,5.42,0,0,1,2-4.38h1.82v.09a5.43,5.43,0,0,0-2.07,2.83,1.21,1.21,0,0,1,1-.48c.85,0,1.55.71,1.55,2.27s-.82,2.55-2.1,2.55S51.8,232.85,51.8,230.9Zm2.71.32c0-.93-.26-1.15-.59-1.15a.74.74,0,0,0-.56.31c0,.19,0,.38,0,.58,0,1.31.23,1.64.59,1.64S54.51,232.21,54.51,231.22Z" fill="#221f1f"/><path d="M58.13,226.52h2a2.31,2.31,0,0,1,0,4.6h-.43v2.52H58.13Zm1.61,1.2V230H60c.54,0,.74-.39.74-1.14s-.2-1.13-.74-1.13Z" fill="#221f1f"/><path d="M63.6,226.44a.82.82,0,1,1,0,1.64.82.82,0,1,1,0-1.64Zm-.75,2.07h1.49v5.12H62.85Z" fill="#221f1f"/><path d="M65.11,233.64v-5.12H66.6v.63a1.47,1.47,0,0,1,1.27-.79c.88,0,1.26.59,1.26,1.61v3.68H67.65v-3.52c0-.34-.15-.5-.45-.5a.66.66,0,0,0-.6.42v3.6Z" fill="#221f1f"/><path d="M73,233.47a1.88,1.88,0,0,1-1,.27c-1.42,0-2.31-.87-2.31-2.63s1-2.7,2.33-2.7a2.22,2.22,0,0,1,1,.22l-.35,1.19a1.18,1.18,0,0,0-.6-.15c-.55,0-.9.51-.9,1.43s.29,1.41.92,1.41a1.21,1.21,0,0,0,.6-.15Z" fill="#221f1f"/><path d="M73.57,233.64v-7.42h1.49v2.92a1.47,1.47,0,0,1,1.27-.79c.88,0,1.26.59,1.26,1.61v3.68H76.1v-3.52c0-.34-.15-.5-.45-.5a.66.66,0,0,0-.6.42v3.6Z" fill="#221f1f"/><path d="M79.79,233.64v-7.12h1.62v3.12l1.37-3.12H84.3l-1.44,3.24,1.6,3.88H82.77l-1.36-3.24v3.24Z" fill="#221f1f"/><path d="M85.61,226.44a.82.82,0,1,1,0,1.64.82.82,0,1,1,0-1.64Zm-.75,2.07h1.49v5.12H84.86Z" fill="#221f1f"/><path d="M87.29,232.18v-2.56h-.42v-1.11h.42V227h1.5v1.5h.7v1.11h-.7V232a.38.38,0,0,0,.43.44.83.83,0,0,0,.28,0v1.18a2.11,2.11,0,0,1-.56.08C87.88,233.7,87.29,233.26,87.29,232.18Z" fill="#221f1f"/><path d="M93.24,233.47a1.88,1.88,0,0,1-1,.27c-1.42,0-2.31-.87-2.31-2.63s1-2.7,2.33-2.7a2.22,2.22,0,0,1,1,.22l-.35,1.19a1.18,1.18,0,0,0-.6-.15c-.55,0-.9.51-.9,1.43s.29,1.41.92,1.41a1.21,1.21,0,0,0,.6-.15Z" fill="#221f1f"/><path d="M93.78,233.64v-7.42h1.49v2.92a1.47,1.47,0,0,1,1.27-.79c.88,0,1.26.59,1.26,1.61v3.68H96.32v-3.52c0-.34-.15-.5-.45-.5a.66.66,0,0,0-.6.42v3.6Z" fill="#221f1f"/><path d="M100.81,233.73c-1.44,0-2.46-.79-2.46-2.72,0-1.7.9-2.66,2-2.66s1.85.6,1.85,2.27v.84h-2.4c.09.74.41,1.06,1.08,1.06a2.07,2.07,0,0,0,1-.24l.21,1.11A2.4,2.4,0,0,1,100.81,233.73Zm-1-3.26h1c0-.78-.16-1-.48-1S99.88,229.87,99.84,230.47Z" fill="#221f1f"/><path d="M102.82,233.64v-5.12h1.49v.63a1.47,1.47,0,0,1,1.27-.79c.88,0,1.26.59,1.26,1.61v3.68h-1.49v-3.52c0-.34-.15-.5-.45-.5a.66.66,0,0,0-.6.42v3.6Z" fill="#221f1f"/><path d="M52.69,247.29l-1,.91v-1.42l1.32-1.33h1.21v7.18H52.69Z" fill="#221f1f"/><path d="M56.06,247.29l-1,.91v-1.42l1.32-1.33h1.21v7.18H56.06Z" fill="#221f1f"/><path d="M60.1,245.52h2a2.31,2.31,0,0,1,0,4.6H61.7v2.52H60.1Zm1.61,1.2V249H62c.54,0,.74-.39.74-1.14s-.2-1.13-.74-1.13Z" fill="#221f1f"/><path d="M65.57,245.44a.82.82,0,1,1,0,1.64.82.82,0,1,1,0-1.64Zm-.75,2.07h1.49v5.12H64.82Z" fill="#221f1f"/><path d="M67.08,252.64v-5.12h1.49v.63a1.47,1.47,0,0,1,1.27-.79c.88,0,1.26.59,1.26,1.61v3.68H69.62v-3.52c0-.34-.15-.5-.45-.5a.66.66,0,0,0-.6.42v3.6Z" fill="#221f1f"/><path d="M75,252.47a1.88,1.88,0,0,1-1,.27c-1.42,0-2.31-.87-2.31-2.63s1-2.7,2.33-2.7a2.22,2.22,0,0,1,1,.22l-.35,1.19a1.18,1.18,0,0,0-.6-.15c-.55,0-.9.51-.9,1.43s.29,1.41.92,1.41a1.21,1.21,0,0,0,.6-.15Z" fill="#221f1f"/><path d="M75.53,252.64v-7.42H77v2.92a1.47,1.47,0,0,1,1.27-.79c.88,0,1.26.59,1.26,1.61v3.68H78.07v-3.52c0-.34-.15-.5-.45-.5a.66.66,0,0,0-.6.42v3.6Z" fill="#221f1f"/><path d="M82.29,252.78c-1.27,0-2.19-.93-2.19-2.67s.91-2.76,2.19-2.76,2.19,1,2.19,2.76S83.56,252.78,82.29,252.78Zm0-1.2c.39,0,.67-.41.67-1.49s-.29-1.54-.67-1.54-.67.47-.67,1.54S81.9,251.58,82.29,251.58Z" fill="#221f1f"/><path d="M86.51,245.52h3.42v1.21H88.12v1.83h1.61v1.22H88.12v2.86H86.51Z" fill="#221f1f"/><path d="M92.62,252.16a1,1,0,0,1-1,.59c-.88,0-1.26-.79-1.26-1.64,0-1.07.59-1.66,1.4-1.66a1.1,1.1,0,0,1,.83.31v-.47a.68.68,0,0,0-.76-.73,1.82,1.82,0,0,0-1,.26l-.3-1.1a3,3,0,0,1,1.56-.37,1.7,1.7,0,0,1,1.95,1.9v3.38H92.62Zm0-.56v-1.12a.59.59,0,0,0-.36-.12c-.26,0-.44.21-.44.68s.15.71.44.71A.54.54,0,0,0,92.62,251.6Z" fill="#221f1f"/><path d="M98,252.47a1.88,1.88,0,0,1-1,.27c-1.42,0-2.31-.87-2.31-2.63s1-2.7,2.33-2.7a2.22,2.22,0,0,1,1,.22l-.35,1.19a1.18,1.18,0,0,0-.6-.15c-.55,0-.9.51-.9,1.43s.29,1.41.92,1.41a1.21,1.21,0,0,0,.6-.15Z" fill="#221f1f"/><path d="M98.71,251.18v-2.56h-.42v-1.11h.42V246h1.5v1.5h.7v1.11h-.7V251a.38.38,0,0,0,.43.44.83.83,0,0,0,.28,0v1.18a2.11,2.11,0,0,1-.56.08C99.3,252.7,98.71,252.26,98.71,251.18Z" fill="#221f1f"/><path d="M103.5,252.78c-1.27,0-2.19-.93-2.19-2.67s.91-2.76,2.19-2.76,2.19,1,2.19,2.76S104.78,252.78,103.5,252.78Zm0-1.2c.39,0,.67-.41.67-1.49s-.29-1.54-.67-1.54-.67.47-.67,1.54S103.11,251.58,103.5,251.58Z" fill="#221f1f"/><path d="M106.27,252.64v-5.12h1.5v.91a1.52,1.52,0,0,1,1.25-1v1.63c-.29,0-1-.09-1.25.36v3.2Z" fill="#221f1f"/><path d="M110.71,252.74l-1.47-5.23h1.51l.39,1.62.29,1.59h0l.31-1.59.4-1.62h1.34l-2,6.94h-1.31Z" fill="#221f1f"/><path d="M51.57,274.95l.35-1.23a1.86,1.86,0,0,0,.91.24.82.82,0,0,0,.86-.91c0-.53-.19-.94-.84-.94h-.31v-1.2h.31a.78.78,0,0,0,.83-.87c0-.54-.27-.83-.87-.83a1.68,1.68,0,0,0-.81.23l-.33-1.18a2.68,2.68,0,0,1,1.42-.35,1.82,1.82,0,0,1,2,2,1.54,1.54,0,0,1-1,1.53,1.67,1.67,0,0,1,1.08,1.73A2,2,0,0,1,53,275.3,2.8,2.8,0,0,1,51.57,274.95Z" fill="#221f1f"/><path d="M57,275.14v-1l1.18-2.13a4.28,4.28,0,0,0,.66-2,.7.7,0,0,0-.75-.79,1.69,1.69,0,0,0-.82.23L57,268.23a2.64,2.64,0,0,1,1.42-.33,1.84,1.84,0,0,1,2.08,2,6.4,6.4,0,0,1-1.17,3l-.58,1h1.72v1.25Z" fill="#221f1f"/><path d="M61.29,275.14l1.5-5.87H61V268h3.45v1l-1.57,6.15Z" fill="#221f1f"/><path d="M66.48,268h2.19a1.92,1.92,0,0,1,2,2.18,2.06,2.06,0,0,1-.91,1.83l1.1,3.12H69.21l-.94-2.72h-.18v2.72H66.48Zm1.61,1.2v2.11h.3c.56,0,.73-.42.73-1.08s-.18-1-.71-1Z" fill="#221f1f"/><path d="M73.64,275.23c-1.44,0-2.46-.79-2.46-2.72,0-1.7.9-2.66,2-2.66s1.85.6,1.85,2.27V273h-2.4c.09.74.41,1.06,1.08,1.06a2.07,2.07,0,0,0,1-.24l.21,1.11A2.4,2.4,0,0,1,73.64,275.23Zm-1-3.26h1c0-.78-.16-1-.48-1S72.7,271.37,72.67,272Z" fill="#221f1f"/><path d="M77.26,271c-.33,0-.49.11-.49.3s.12.29.33.41a8.28,8.28,0,0,1,1,.56,1.55,1.55,0,0,1,.63,1.29,1.62,1.62,0,0,1-1.83,1.65,2.55,2.55,0,0,1-1.5-.39l.36-1.07a2,2,0,0,0,1.06.32c.44,0,.53-.19.53-.41s-.1-.25-.27-.35a6.74,6.74,0,0,1-1-.62,1.46,1.46,0,0,1-.54-1.23,1.52,1.52,0,0,1,1.72-1.61,2.82,2.82,0,0,1,1.41.32l-.33,1.09A2,2,0,0,0,77.26,271Z" fill="#221f1f"/><path d="M79.42,273.68v-2.56H79V270h.42v-1.5h1.5V270h.7v1.11h-.7v2.42a.38.38,0,0,0,.43.44.83.83,0,0,0,.28,0v1.18a2.11,2.11,0,0,1-.56.08C80,275.2,79.42,274.76,79.42,273.68Z" fill="#221f1f"/><path d="M84.23,274.66a1,1,0,0,1-1,.59c-.88,0-1.26-.79-1.26-1.64,0-1.07.59-1.66,1.4-1.66a1.1,1.1,0,0,1,.83.31v-.47a.68.68,0,0,0-.76-.73,1.82,1.82,0,0,0-1,.26l-.3-1.1a3,3,0,0,1,1.56-.37,1.7,1.7,0,0,1,1.95,1.9v3.38H84.23Zm0-.56V273a.59.59,0,0,0-.36-.12c-.26,0-.44.21-.44.68s.15.71.44.71A.54.54,0,0,0,84.23,274.1Z" fill="#221f1f"/><path d="M88.91,274.59a1.39,1.39,0,0,1-1.19.69c-.88,0-1.3-.58-1.3-1.6V270h1.49v3.52c0,.34.15.5.45.5a.64.64,0,0,0,.55-.33V270H90.4v5.12H88.91Z" fill="#221f1f"/><path d="M91.18,275.14V270h1.5v.91a1.52,1.52,0,0,1,1.25-1v1.63c-.29,0-1-.09-1.25.36v3.2Z" fill="#221f1f"/><path d="M96.49,274.66a1,1,0,0,1-1,.59c-.88,0-1.26-.79-1.26-1.64,0-1.07.59-1.66,1.4-1.66a1.1,1.1,0,0,1,.83.31v-.47a.68.68,0,0,0-.76-.73,1.82,1.82,0,0,0-1,.26l-.3-1.1a3,3,0,0,1,1.56-.37,1.7,1.7,0,0,1,1.95,1.9v3.38H96.49Zm0-.56V273a.59.59,0,0,0-.36-.12c-.26,0-.44.21-.44.68s.15.71.44.71A.54.54,0,0,0,96.49,274.1Z" fill="#221f1f"/><path d="M98.72,275.14V270h1.49v.63a1.47,1.47,0,0,1,1.27-.79c.88,0,1.26.59,1.26,1.61v3.68h-1.49v-3.52c0-.34-.15-.5-.45-.5a.66.66,0,0,0-.6.42v3.6Z" fill="#221f1f"/><path d="M103.66,273.68v-2.56h-.42V270h.42v-1.5h1.5V270h.7v1.11h-.7v2.42a.38.38,0,0,0,.43.44.83.83,0,0,0,.28,0v1.18a2.11,2.11,0,0,1-.56.08C104.25,275.2,103.66,274.76,103.66,273.68Z" fill="#221f1f"/><path d="M52.69,288.79l-1,.91v-1.42L53.06,287h1.21v7.18H52.69Z" fill="#221f1f"/><path d="M58.65,292.66v1.47H57.21v-1.47H55.08v-.93L56.7,287h2v4.54h.55v1.1Zm-1.44-1.1v-2.12l0-1.12h0L57,289.38l-.72,2.18Z" fill="#221f1f"/><path d="M60.83,287h1.64l.67,3.5.23,1.51h0l.22-1.51.64-3.5h1.44l-1.59,7.12H62.42Z" fill="#221f1f"/><path d="M68.42,294.23c-1.44,0-2.46-.79-2.46-2.72,0-1.7.9-2.66,2-2.66s1.85.6,1.85,2.27V292h-2.4c.09.74.41,1.06,1.08,1.06a2.07,2.07,0,0,0,1-.24l.21,1.11A2.4,2.4,0,0,1,68.42,294.23Zm-1-3.26h1c0-.78-.16-1-.48-1S67.49,290.37,67.45,291Z" fill="#221f1f"/><path d="M70.42,294.14V289h1.5v.91a1.52,1.52,0,0,1,1.25-1v1.63c-.29,0-1-.09-1.25.36v3.2Z" fill="#221f1f"/><path d="M75.35,290c-.33,0-.49.11-.49.3s.12.29.33.41a8.28,8.28,0,0,1,1,.56,1.55,1.55,0,0,1,.63,1.29,1.62,1.62,0,0,1-1.83,1.65,2.55,2.55,0,0,1-1.5-.39l.36-1.07a2,2,0,0,0,1.06.32c.44,0,.53-.19.53-.41s-.1-.25-.27-.35a6.74,6.74,0,0,1-1-.62,1.46,1.46,0,0,1-.54-1.23,1.52,1.52,0,0,1,1.72-1.61,2.82,2.82,0,0,1,1.41.32l-.33,1.09A2,2,0,0,0,75.35,290Z" fill="#221f1f"/><path d="M79.34,293.66a1,1,0,0,1-1,.59c-.88,0-1.26-.79-1.26-1.64,0-1.07.59-1.66,1.4-1.66a1.1,1.1,0,0,1,.83.31v-.47a.68.68,0,0,0-.76-.73,1.82,1.82,0,0,0-1,.26l-.3-1.1a3,3,0,0,1,1.56-.37,1.7,1.7,0,0,1,1.95,1.9v3.38H79.34Zm0-.56V292a.59.59,0,0,0-.36-.12c-.26,0-.44.21-.44.68s.15.71.44.71A.54.54,0,0,0,79.34,293.1Z" fill="#221f1f"/><path d="M82.31,286.94a.82.82,0,1,1,0,1.64.82.82,0,1,1,0-1.64ZM81.56,289H83v5.12H81.56Z" fill="#221f1f"/><path d="M83.83,286.72h1.5v7.42h-1.5Z" fill="#221f1f"/><path d="M86.13,286.72h1.5v7.42h-1.5Z" fill="#221f1f"/><path d="M90.68,294.23c-1.44,0-2.46-.79-2.46-2.72,0-1.7.9-2.66,2-2.66s1.85.6,1.85,2.27V292h-2.4c.09.74.41,1.06,1.08,1.06a2.07,2.07,0,0,0,1-.24l.21,1.11A2.4,2.4,0,0,1,90.68,294.23Zm-1-3.26h1c0-.78-.16-1-.48-1S89.75,290.37,89.71,291Z" fill="#221f1f"/><path d="M94.31,290c-.33,0-.49.11-.49.3s.12.29.33.41a8.28,8.28,0,0,1,1,.56,1.55,1.55,0,0,1,.63,1.29,1.62,1.62,0,0,1-1.83,1.65,2.55,2.55,0,0,1-1.5-.39l.36-1.07a2,2,0,0,0,1.06.32c.44,0,.53-.19.53-.41s-.1-.25-.27-.35a6.74,6.74,0,0,1-1-.62,1.46,1.46,0,0,1-.54-1.23,1.52,1.52,0,0,1,1.72-1.61,2.82,2.82,0,0,1,1.41.32l-.33,1.09A2,2,0,0,0,94.31,290Z" fill="#221f1f"/><path d="M52,316.64l1.5-5.87H51.73v-1.25h3.45v1l-1.57,6.15Z" fill="#221f1f"/><path d="M60,315.39H58.45l-.26,1.25H56.83l1.65-7.12h1.71l1.64,7.12h-1.6Zm-1.31-1.13h1.08l-.38-1.87-.14-1h0l-.16,1Z" fill="#221f1f"/><path d="M62.31,316.64v-5.12h1.5v.91a1.52,1.52,0,0,1,1.25-1v1.63c-.29,0-1-.09-1.25.36v3.2Z" fill="#221f1f"/><path d="M66.35,309.44a.82.82,0,1,1,0,1.64.82.82,0,1,1,0-1.64Zm-.75,2.07h1.49v5.12H65.6Z" fill="#221f1f"/><path d="M70.12,316.73c-1.44,0-2.46-.79-2.46-2.72,0-1.7.9-2.66,2-2.66s1.85.6,1.85,2.27v.84h-2.4c.09.74.41,1.06,1.08,1.06a2.07,2.07,0,0,0,1-.24l.21,1.11A2.4,2.4,0,0,1,70.12,316.73Zm-1-3.26h1c0-.78-.16-1-.48-1S69.19,312.87,69.15,313.47Z" fill="#221f1f"/><path d="M72.29,315.18v-2.56h-.42v-1.11h.42V310h1.5v1.5h.7v1.11h-.7V315a.38.38,0,0,0,.43.44.83.83,0,0,0,.28,0v1.18a2.11,2.11,0,0,1-.56.08C72.88,316.7,72.29,316.26,72.29,315.18Z" fill="#221f1f"/><path d="M77.36,316.73c-1.44,0-2.46-.79-2.46-2.72,0-1.7.9-2.66,2-2.66s1.85.6,1.85,2.27v.84h-2.4c.09.74.41,1.06,1.08,1.06a2.07,2.07,0,0,0,1-.24l.21,1.11A2.4,2.4,0,0,1,77.36,316.73Zm-1-3.26h1c0-.78-.16-1-.48-1S76.43,312.87,76.39,313.47Z" fill="#221f1f"/><path d="M52.56,330.29l-.85.91v-1.42l1.17-1.33H54v7.18h-1.4Z" fill="#221f1f"/><path d="M56.79,335.8c-1.22,0-2-1-2-3.68s.83-3.76,2-3.76,2,1.11,2,3.76S58,335.8,56.79,335.8Zm0-1.31c.4,0,.58-.48.58-2.39s-.19-2.42-.58-2.42-.58.6-.58,2.42S56.39,334.49,56.79,334.49Z" fill="#221f1f"/><path d="M60.72,328.52h1.45v5.89h1.45v1.23H60.72Z" fill="#221f1f"/><path d="M66,335.16a.89.89,0,0,1-.85.59c-.79,0-1.12-.79-1.12-1.64,0-1.07.52-1.66,1.24-1.66a.92.92,0,0,1,.74.31v-.47a.64.64,0,0,0-.68-.73,1.48,1.48,0,0,0-.85.26l-.27-1.1a2.42,2.42,0,0,1,1.39-.37c1.22,0,1.73.7,1.73,1.9v3.38H66Zm0-.56v-1.12a.49.49,0,0,0-.32-.12c-.23,0-.39.21-.39.68s.13.71.39.71A.45.45,0,0,0,66,334.6Z" fill="#221f1f"/><path d="M69.24,328.52h3v1.21H70.67v1.83H72.1v1.22H70.67v2.86H69.24Z" fill="#221f1f"/><path d="M72.9,335.64v-5.12h1.34v.91c.21-.49.58-1,1.12-1v1.63c-.26,0-.88-.09-1.12.36v3.2Z" fill="#221f1f"/><path d="M77.62,335.16a.89.89,0,0,1-.85.59c-.79,0-1.12-.79-1.12-1.64,0-1.07.52-1.66,1.24-1.66a.92.92,0,0,1,.74.31v-.47a.64.64,0,0,0-.68-.73,1.49,1.49,0,0,0-.85.26l-.27-1.1a2.42,2.42,0,0,1,1.39-.37c1.22,0,1.73.7,1.73,1.9v3.38H77.62Zm0-.56v-1.12a.49.49,0,0,0-.32-.12c-.23,0-.39.21-.39.68s.14.71.39.71A.45.45,0,0,0,77.62,334.6Z" fill="#221f1f"/><path d="M81.13,337.55c-1.11,0-1.8-.42-1.8-1.16a1,1,0,0,1,.59-.9,1,1,0,0,1-.34-.79,1.37,1.37,0,0,1,.6-1.18,1.8,1.8,0,0,1,1-3.17,1.58,1.58,0,0,1,1.06.41,1.23,1.23,0,0,1,1-.37v1.06a1.65,1.65,0,0,0-.56.07,1.47,1.47,0,0,1,.1.63,1.55,1.55,0,0,1-1.6,1.65,2,2,0,0,1-.41,0,.5.5,0,0,0-.13.32c0,.18.12.29.34.29h.79a1.28,1.28,0,0,1,1.39,1.44C83.14,336.81,82.56,337.55,81.13,337.55Zm.77-1.47a.36.36,0,0,0-.39-.37h-.9a.53.53,0,0,0-.14.37c0,.32.19.52.69.52S81.89,336.38,81.89,336.07Zm-.76-3.18c.22,0,.41-.19.41-.78s-.19-.81-.41-.81-.4.21-.4.81S80.93,332.89,81.13,332.89Z" fill="#221f1f"/><path d="M85.82,335.09a1.22,1.22,0,0,1-1.06.69c-.79,0-1.16-.58-1.16-1.6v-3.68h1.33V334c0,.34.14.5.4.5a.57.57,0,0,0,.49-.33v-3.69h1.33v5.12H85.82Z" fill="#221f1f"/><path d="M89.62,335.16a.89.89,0,0,1-.85.59c-.79,0-1.12-.79-1.12-1.64,0-1.07.52-1.66,1.24-1.66a.92.92,0,0,1,.74.31v-.47a.64.64,0,0,0-.68-.73,1.48,1.48,0,0,0-.85.26l-.27-1.1a2.42,2.42,0,0,1,1.39-.37c1.22,0,1.73.7,1.73,1.9v3.38H89.62Zm0-.56v-1.12a.49.49,0,0,0-.32-.12c-.23,0-.39.21-.39.68s.13.71.39.71A.45.45,0,0,0,89.62,334.6Z" fill="#221f1f"/><path d="M51.75,358.14v-1l1.18-2.13a4.28,4.28,0,0,0,.66-2,.7.7,0,0,0-.75-.79,1.69,1.69,0,0,0-.82.23l-.29-1.22a2.64,2.64,0,0,1,1.42-.33,1.84,1.84,0,0,1,2.08,2,6.4,6.4,0,0,1-1.17,3l-.58,1h1.72v1.25Z" fill="#221f1f"/><path d="M57.31,351h2a2.31,2.31,0,0,1,0,4.6h-.43v2.52H57.31Zm1.61,1.2v2.27h.29c.54,0,.74-.39.74-1.14s-.2-1.13-.74-1.13Z" fill="#221f1f"/><path d="M64.51,357.59a1.39,1.39,0,0,1-1.19.69c-.88,0-1.3-.58-1.3-1.6V353h1.49v3.52c0,.34.15.5.45.5a.64.64,0,0,0,.55-.33V353H66v5.12H64.51Z" fill="#221f1f"/><path d="M68.27,357.57v.56H66.77v-7.42h1.49v2.84a1.38,1.38,0,0,1,1.18-.71c1,0,1.63.85,1.63,2.67s-.77,2.74-1.71,2.74A1.18,1.18,0,0,1,68.27,357.57Zm1.29-2.05c0-1.06-.28-1.44-.69-1.44a.71.71,0,0,0-.6.38v2.27a.67.67,0,0,0,.59.3C69.27,357,69.56,356.58,69.56,355.52Z" fill="#221f1f"/><path d="M73.14,357.57v.56H71.65v-7.42h1.49v2.84a1.38,1.38,0,0,1,1.18-.71c1,0,1.63.85,1.63,2.67s-.77,2.74-1.71,2.74A1.18,1.18,0,0,1,73.14,357.57Zm1.29-2.05c0-1.06-.28-1.44-.69-1.44a.71.71,0,0,0-.6.38v2.27a.67.67,0,0,0,.59.3C74.14,357,74.43,356.58,74.43,355.52Z" fill="#221f1f"/><path d="M78.78,358.23c-1.44,0-2.46-.79-2.46-2.72,0-1.7.9-2.66,2-2.66s1.85.6,1.85,2.27V356h-2.4c.09.74.41,1.06,1.08,1.06a2.07,2.07,0,0,0,1-.24l.21,1.11A2.4,2.4,0,0,1,78.78,358.23Zm-1-3.26h1c0-.78-.16-1-.48-1S77.85,354.37,77.81,355Z" fill="#221f1f"/><path d="M80.8,350.72h1.5v7.42H80.8Z" fill="#221f1f"/><path d="M83.1,350.72h1.5v7.42H83.1Z" fill="#221f1f"/><path d="M86.52,358.24,85.05,353h1.51l.39,1.62.29,1.59h0l.31-1.59L88,353h1.34l-2,6.94H86Z" fill="#221f1f"/><path d="M52.69,371.79l-1,.91v-1.42L53.06,370h1.21v7.18H52.69Z" fill="#221f1f"/><path d="M55,377l.38-1.22a1.51,1.51,0,0,0,.77.18c.51,0,.9-.38.9-1.08s-.32-1.1-1-1.1a1.78,1.78,0,0,0-.66.12l0,0,.24-3.83h2.81v1.27H56.8l-.09,1.33a1.94,1.94,0,0,1,1.87,2.2,2.21,2.21,0,0,1-2.3,2.48A2.52,2.52,0,0,1,55,377Z" fill="#221f1f"/><path d="M60.74,377.14V370h1.62v3.12L63.73,370h1.52l-1.44,3.24,1.6,3.88H63.72l-1.36-3.24v3.24Z" fill="#221f1f"/><path d="M68.1,377.23c-1.44,0-2.46-.79-2.46-2.72,0-1.7.9-2.66,2-2.66s1.85.6,1.85,2.27V375h-2.4c.09.74.41,1.06,1.08,1.06a2.07,2.07,0,0,0,1-.24l.21,1.11A2.4,2.4,0,0,1,68.1,377.23Zm-1-3.26h1c0-.78-.16-1-.48-1S67.16,373.37,67.13,374Z" fill="#221f1f"/><path d="M71.8,379c-1.25,0-2-.42-2-1.16a1,1,0,0,1,.67-.9,1,1,0,0,1-.38-.79,1.33,1.33,0,0,1,.68-1.18,1.54,1.54,0,0,1-.72-1.41,1.7,1.7,0,0,1,1.82-1.76,1.9,1.9,0,0,1,1.2.41,1.48,1.48,0,0,1,1.1-.37V373a2.08,2.08,0,0,0-.63.07,1.32,1.32,0,0,1,.11.63,1.65,1.65,0,0,1-1.8,1.65,2.48,2.48,0,0,1-.46,0,.47.47,0,0,0-.14.32c0,.18.13.29.38.29h.89c1,0,1.57.47,1.57,1.44S73.42,379,71.8,379Zm.87-1.47c0-.2-.14-.37-.44-.37h-1a.5.5,0,0,0-.15.37c0,.32.22.52.78.52S72.67,377.88,72.67,377.57Zm-.86-3.18c.25,0,.46-.19.46-.78s-.21-.81-.46-.81-.45.21-.45.81S71.58,374.39,71.81,374.39Z" fill="#221f1f"/><path d="M78,371.22a.56.56,0,0,0-.63.55.76.76,0,0,0,.29.57c.39.38.87.69,1.25,1.08a2.17,2.17,0,0,1,.73,1.69,2,2,0,0,1-2.13,2.1,3.61,3.61,0,0,1-1.82-.41l.43-1.27a2.72,2.72,0,0,0,1.24.35c.54,0,.74-.29.74-.61a.77.77,0,0,0-.31-.61,14.94,14.94,0,0,1-1.24-1.07,2.2,2.2,0,0,1-.71-1.68,1.93,1.93,0,0,1,2.07-2,3.34,3.34,0,0,1,1.57.35l-.37,1.25A2.52,2.52,0,0,0,78,371.22Z" fill="#221f1f"/><path d="M82.22,377.28c-1.27,0-2.19-.93-2.19-2.67s.91-2.76,2.19-2.76,2.19,1,2.19,2.76S83.5,377.28,82.22,377.28Zm0-1.2c.39,0,.67-.41.67-1.49s-.29-1.54-.67-1.54-.67.47-.67,1.54S81.83,376.08,82.22,376.08Z" fill="#221f1f"/><path d="M87.44,376.59a1.39,1.39,0,0,1-1.19.69c-.88,0-1.3-.58-1.3-1.6V372h1.49v3.52c0,.34.15.5.45.5a.64.64,0,0,0,.55-.33V372h1.49v5.12H87.44Z" fill="#221f1f"/><path d="M89.88,375.68v-2.56h-.42V372h.42v-1.5h1.5V372h.7v1.11h-.7v2.42a.38.38,0,0,0,.43.44.83.83,0,0,0,.28,0v1.18a2.11,2.11,0,0,1-.56.08C90.47,377.2,89.88,376.76,89.88,375.68Z" fill="#221f1f"/><path d="M92.68,377.14v-7.42h1.49v2.92a1.47,1.47,0,0,1,1.27-.79c.88,0,1.26.59,1.26,1.61v3.68H95.22v-3.52c0-.34-.15-.5-.45-.5a.66.66,0,0,0-.6.42v3.6Z" fill="#221f1f"/><circle cx="610.96" cy="401.78" r="116.22" fill="#7a7c7d"/><path d="M476.34,272.36,476,317.9h0a1.62,1.62,0,0,1-3.24.14l0,0-.82-45.65c.18-3.69-1.89-4.45-1.89-4.45-2.14.76-2.08,4.57-2.08,4.57l-1.75,45.65,0,.08h0a1.3,1.3,0,0,1-.59,1.08.71.71,0,0,1-.56.21l-.13,0a1.3,1.3,0,0,1-1.28-1.31s0-.07,0-.11l1.16-45.87c-1.49-8.24-3.94-.21-3.94-.21l-2.22,21.56-3.19,34.11a31.16,31.16,0,0,0-.17,6.08,8.5,8.5,0,0,0,1.11,3.6c1.08,1.74,2.8,2.35,4.32,3.52l4.08,3.15c3.74,2.92,3.15,6.31,3.15,6.31l-4.51,142.2s0,0,0,.07c0,1.34,4,2.43,9,2.43s9-1.09,9-2.43a.57.57,0,0,0,0-.12l-3.21-142.26a10.3,10.3,0,0,1,5.06-7.26l2.65-1.73a9.09,9.09,0,0,0,5-6.9c0-2,.15-4.17.16-6.24,0-3.71-.29-7.39-.51-11.08q-.41-6.76-.88-13.51c-.33-4.86-.63-9.71-.93-14.57q-.37-5.85-.74-11.7-.15-2.37-.31-4.75c-2.68-8.64-4.21.22-4.21.22l.93,45.42,0,0a1.56,1.56,0,0,1-3.12-.12.38.38,0,0,1,0-.05l0-.08-.82-45.3c-2.31-10.73-4.09-.23-4.09-.23" fill="#7a7c7d"/><circle cx="610.96" cy="395.92" r="116.22" fill="#fff"/><path d="M506.68,377.62l1-5.08,25.16-3.3-1.34,6.67-2.26.27L528,382.6l2,1.13-1.34,6.67Zm20.05,7.47-1.64-1,2.11-10.48,1.89-.25.18-.89L510.14,375l-.24,1.21L526.55,386Zm-15.87-9.27,15.43-2.05-2,9.91Zm12.85,1.1-4.42.6,3.84,2.26Z" fill="#f59120"/><path d="M511,360l2.37-5.15,10.9-1.56-8.41-3.86,2.83-6.15,21.82,10-2.38,5.18-10.85,1.54,8.38,3.85-2.83,6.15Zm20.81,5.32-15.11-6.94,19.58-2.78.35-.77L520,347.27l-.35.77L534.77,355l-19.58,2.77-.35.77,16.59,7.62Z" fill="#f59120"/><path d="M541,352.55l-18.89-14.83,3.7-4.71a17.93,17.93,0,0,1,3.95-3.8,10.5,10.5,0,0,1,4.26-1.76,9.78,9.78,0,0,1,4.5.36,16.19,16.19,0,0,1,8.18,6.42,9.78,9.78,0,0,1,1.42,4.28,10.7,10.7,0,0,1-.68,4.57,17.52,17.52,0,0,1-2.74,4.75Zm-.26-4.33,1.7-2.17q2.92-3.72,2.53-7.1a10.62,10.62,0,0,0-10.61-8.32q-3.36.43-6.28,4.15l-1.7,2.17Zm-.16-1.2-13-10.2,1.18-1.5a9.19,9.19,0,0,1,5.58-3.75q3-.52,6.27,2T544,339.2a9.14,9.14,0,0,1-2.31,6.32Zm-.69-4.13a4.58,4.58,0,0,0-.94-7.2,5.13,5.13,0,0,0-3.88-1.35,5.25,5.25,0,0,0-3.31,2.18Z" fill="#f59120"/><path d="M549.62,317.43l-3.23,2.34-3.69-5.1,12.23-8.85,3.69,5.1-3.23,2.34,10.39,14.35L560,331.78Zm11.93,9.68L551.35,313l3.75-2.72-.51-.7-8.19,5.93.51.7,3.75-2.72,10.2,14.09Z" fill="#f59120"/><path d="M558.93,303.34l6.27-2.87,3.4,7.43,3.51-1.61-3.4-7.43L575,296l10,21.83-6.3,2.89-3.7-8.08-3.5,1.61,3.7,8.08-6.28,2.87Zm12.51,17.51-3.79-8.28,8.66-4,3.79,8.28.76-.35-7.6-16.59-.77.35,3.45,7.53-8.66,4-3.45-7.53-.77.35,7.6,16.59Z" fill="#f59120"/><path d="M580.66,294.3l12.4-2.91,1.44,6.13-5.68,1.33.61,2.59,5.58-1.31,1.37,5.82-5.58,1.31.63,2.7,5.9-1.39,1.44,6.13-12.62,3Zm15.12,18.16-.2-.84-6.31,1.48-1.8-7.67,6-1.41-.2-.84-6,1.41L585.49,297l6.31-1.48-.2-.84-7.13,1.67,4.17,17.77Z" fill="#f59120"/><path d="M605.7,289.18l7.29.65,1.74,8.58,3.23-8.13,4.71.42,1.74,8.58,3.23-8.13,7.29.65-9.24,23.28-5.36-.48-1.51-7.44-2.81,7-5.36-.48Zm8.44,22,5.64-14.64,2.95,15.41.81.07,7-17.7-.87-.08-6.38,16.09-3.23-17-6.19,16.11-3.43-17-.87-.08,3.76,18.66Z" fill="#f59120"/><line x1="446.46" y1="394.92" x2="774.96" y2="394.92" fill="none" stroke="#fff" stroke-miterlimit="10" stroke-width="2"/><rect x="21.46" y="56.14" width="25.55" height="325.78" fill="#f59120"/><path d="M34.6,316.2a7.9,7.9,0,0,1-3.18-.62A7.4,7.4,0,0,1,29,313.91a7.29,7.29,0,0,1-1.55-2.46,8.3,8.3,0,0,1-.54-3,9.35,9.35,0,0,1,.24-2.23,10.58,10.58,0,0,1,.55-1.68,7.88,7.88,0,0,1,.77-1.41l4.07,2.31a7.93,7.93,0,0,0-.51.77,7.54,7.54,0,0,0-.34.89,3.87,3.87,0,0,0-.16,1.18,3.19,3.19,0,0,0,.24,1.25,3.23,3.23,0,0,0,.66,1,3,3,0,0,0,1,.67,3,3,0,0,0,1.2.24,2.89,2.89,0,0,0,1.2-.25,3.07,3.07,0,0,0,1-.69,3.28,3.28,0,0,0,.66-1,3.41,3.41,0,0,0,.24-1.3,4.1,4.1,0,0,0-.18-1.25,4.61,4.61,0,0,0-.4-.92,3.37,3.37,0,0,0-.57-.77l4.07-2.31a6.55,6.55,0,0,1,.86,1.41A11.89,11.89,0,0,1,42,306a8.81,8.81,0,0,1,.26,2.27,8.72,8.72,0,0,1-.56,3.17A7.48,7.48,0,0,1,40.16,314a7.14,7.14,0,0,1-2.43,1.65A8,8,0,0,1,34.6,316.2Zm0-2.77a5.36,5.36,0,0,1-2-.36,4.69,4.69,0,0,1-2.68-2.63,5.42,5.42,0,0,1-.4-2.11,6.13,6.13,0,0,1,.08-1,4.65,4.65,0,0,1,.19-.76,2.91,2.91,0,0,1,.26-.64l-.53-.31q-.15.35-.29.75a8.54,8.54,0,0,0-.2.86,6.39,6.39,0,0,0-.09,1.12,5.89,5.89,0,0,0,.4,2.15,5.48,5.48,0,0,0,1.13,1.8A5.55,5.55,0,0,0,34.6,314a5.77,5.77,0,0,0,2.33-.45,5.26,5.26,0,0,0,1.77-1.24,5.53,5.53,0,0,0,1.13-1.85,6.34,6.34,0,0,0,.4-2.24,5.81,5.81,0,0,0-.11-1.19,7.12,7.12,0,0,0-.24-.9,4.45,4.45,0,0,0-.35-.75l-.53.31a2.78,2.78,0,0,1,.33.66,4.88,4.88,0,0,1,.23.79,5.17,5.17,0,0,1,.1,1.08,5.7,5.7,0,0,1-.4,2.18A4.82,4.82,0,0,1,38.18,312a4.71,4.71,0,0,1-1.61,1A5.36,5.36,0,0,1,34.6,313.42Z" fill="#fff"/><path d="M27.25,298v-3.52l14.67-5.57v4.62L40.6,294v4.44l1.32.48v4.62Zm12.91,2.29-1.1-.42v-7.26l1.1-.42v-.62L29,295.82v.84l11.15,4.25Zm-10.63-4,9-3.43v6.86Zm7.83-1-2.57,1,2.57,1Z" fill="#fff"/><path d="M37.37,289a7.21,7.21,0,0,0,.24-1,7.92,7.92,0,0,0,.18-1,9.59,9.59,0,0,0,.07-1.13q0-1-.75-1a.84.84,0,0,0-.58.31,9.28,9.28,0,0,0-.66.78q-.36.47-.8,1a7.32,7.32,0,0,1-1,1,5.27,5.27,0,0,1-1.29.78,4.1,4.1,0,0,1-1.64.31,4.23,4.23,0,0,1-1.83-.37,3.67,3.67,0,0,1-1.32-1,4.66,4.66,0,0,1-.8-1.55,6.42,6.42,0,0,1-.27-1.9,10.34,10.34,0,0,1,.05-1.06l.1-.95.13-.95H31.3q0,.18,0,.4t0,.4q0,.22,0,.46t0,.33a2,2,0,0,0,.06.37.76.76,0,0,0,.15.31.38.38,0,0,0,.31.13q.18,0,.44-.3l.62-.73q.35-.43.81-.95a6.57,6.57,0,0,1,1.06-.95A6.18,6.18,0,0,1,36,280a4.49,4.49,0,0,1,1.67-.3,5.27,5.27,0,0,1,1.81.31,3.86,3.86,0,0,1,1.47,1,4.58,4.58,0,0,1,1,1.66,7.12,7.12,0,0,1,.36,2.4,14.53,14.53,0,0,1-.08,1.55q-.08.72-.19,1.27a10.61,10.61,0,0,1-.26,1.17ZM40,287.13c0-.21.08-.43.11-.66s.06-.42.08-.65,0-.46,0-.69a5,5,0,0,0-.14-1.2,3,3,0,0,0-.47-1,2.42,2.42,0,0,0-.85-.74,2.67,2.67,0,0,0-1.26-.27,2.45,2.45,0,0,0-1.21.32,5.63,5.63,0,0,0-1.1.81,13.84,13.84,0,0,0-1,1.06q-.48.56-1,1.06a6,6,0,0,1-1,.81,1.86,1.86,0,0,1-1,.32,1.51,1.51,0,0,1-1.22-.51,2.5,2.5,0,0,1-.43-1.63q0-.18,0-.36c0-.12,0-.25,0-.36a2.83,2.83,0,0,0,0-.35H29a2.67,2.67,0,0,1,0,.33c0,.1,0,.22,0,.34s0,.25,0,.39a3.34,3.34,0,0,0,.54,2,1.91,1.91,0,0,0,1.68.77,2.23,2.23,0,0,0,1.15-.32,5.81,5.81,0,0,0,1.06-.81q.52-.5,1-1.06t1-1.06a5.42,5.42,0,0,1,1-.81,2.1,2.1,0,0,1,1.1-.32,1.9,1.9,0,0,1,1.61.72,3.16,3.16,0,0,1,.55,2,7.75,7.75,0,0,1-.11,1.36q0,.33-.11.64Z" fill="#fff"/><path d="M42.3,272.68a8.37,8.37,0,0,1-.35,2.51,5.15,5.15,0,0,1-1.06,1.91,4.63,4.63,0,0,1-1.78,1.22,6.83,6.83,0,0,1-2.53.43H27.25v-4.69h9.13a1.87,1.87,0,0,0,1.18-.32,1.6,1.6,0,0,0,0-2.13,1.87,1.87,0,0,0-1.18-.32H27.25v-4.71h9.33a6.82,6.82,0,0,1,2.53.43,4.57,4.57,0,0,1,1.78,1.23,5.26,5.26,0,0,1,1.06,1.92A8.37,8.37,0,0,1,42.3,272.68Zm-2.64,0q0,3.3-3.23,3.3H29v.57h7.41a3.78,3.78,0,0,0,2.83-1,3.94,3.94,0,0,0,1-2.87,4,4,0,0,0-1-2.88,3.75,3.75,0,0,0-2.83-1H29v.59h7.41Q39.66,269.38,39.66,272.68Z" fill="#fff"/><path d="M27.25,260.76v-3.52l14.67-5.57v4.62l-1.32.48v4.44l1.32.48v4.62ZM40.16,263l-1.1-.42v-7.26l1.1-.42v-.62L29,258.58v.84l11.15,4.25Zm-10.63-4,9-3.43v6.86Zm7.83-1-2.57,1,2.57,1Z" fill="#fff"/><path d="M27.25,251.34v-4.88H38.07v-4h3.85v8.93Zm12.91-7.7h-.53v4.93H29v.57H40.16Z" fill="#fff"/><path d="M41.92,237.24H27.25v-4.07a13.43,13.43,0,0,1,.46-3.69,7.38,7.38,0,0,1,1.39-2.73,6,6,0,0,1,2.3-1.69,9,9,0,0,1,6.36,0,6,6,0,0,1,2.3,1.69,7.49,7.49,0,0,1,1.4,2.73,13.12,13.12,0,0,1,.47,3.69ZM40.16,235v-1.87a7.08,7.08,0,0,0-1.46-4.85,5.24,5.24,0,0,0-4.12-1.64,5.21,5.21,0,0,0-4.11,1.64A7.11,7.11,0,0,0,29,233.17V235Zm-.53-.57H29.54v-1.3a6.7,6.7,0,0,1,1.27-4.35,4.58,4.58,0,0,1,3.77-1.55,4.61,4.61,0,0,1,3.78,1.55,6.66,6.66,0,0,1,1.28,4.35Zm-1.89-1.91A3.78,3.78,0,0,0,37,230a3,3,0,0,0-2.39-.9,3,3,0,0,0-2.38.9,3.82,3.82,0,0,0-.77,2.55Z" fill="#fff"/><path d="M27.25,223.27v-5H41.92v5Zm12.91-2.77H29v.57H40.16Z" fill="#fff"/><path d="M27.25,216.76v-3.85l5.65-4H27.25v-4.6H41.92v3.87l-5.63,4h5.63v4.6Zm12.91-2.62H30l10.16-7.26v-.57H29v.57H39.17L29,214.14v.57H40.16Z" fill="#fff"/><path d="M27.25,202.72v-5H41.92v5Zm12.91-2.77H29v.57H40.16Z" fill="#fff"/><path d="M27.25,196.21v-3.85l5.65-4H27.25v-4.6H41.92v3.87l-5.63,4h5.63v4.6Zm12.91-2.62H30l10.16-7.26v-.57H29v.57H39.17L29,193.59v.57H40.16Z" fill="#fff"/><path d="M32.24,172.82a2.69,2.69,0,0,0-.54,1,3.89,3.89,0,0,0-.19,1.17,2.87,2.87,0,0,0,.23,1.17,2.77,2.77,0,0,0,.64.91,3,3,0,0,0,1,.6,3.41,3.41,0,0,0,1.23.22,3.13,3.13,0,0,0,1.23-.24,3,3,0,0,0,1-.66,3,3,0,0,0,.64-1,3.12,3.12,0,0,0,.23-1.2,2.92,2.92,0,0,0-.32-1.36,3.26,3.26,0,0,0-.87-1.06v1.32H33.41V168h4.88a8.09,8.09,0,0,1,1.64,1.21,7.68,7.68,0,0,1,1.27,1.57,7.56,7.56,0,0,1,.81,1.88,7.66,7.66,0,0,1-7.41,9.79,7.86,7.86,0,0,1-3-.57,7.68,7.68,0,0,1-2.45-1.57A7.36,7.36,0,0,1,27.5,178a7.26,7.26,0,0,1-.6-3,8.31,8.31,0,0,1,.24-2.13,8.15,8.15,0,0,1,.55-1.52,5.56,5.56,0,0,1,.77-1.21Zm-2.84-.22a3.61,3.61,0,0,0-.22.64A6.21,6.21,0,0,0,29,174a6,6,0,0,0-.07.92,5.65,5.65,0,0,0,.42,2.18,5.44,5.44,0,0,0,1.16,1.76A5.31,5.31,0,0,0,32.31,180a5.91,5.91,0,0,0,2.29.43,5.77,5.77,0,0,0,2.29-.44,5.27,5.27,0,0,0,1.77-1.21A5.66,5.66,0,0,0,39.81,177a5.72,5.72,0,0,0,.42-2.19,5.38,5.38,0,0,0-.72-2.75,5.85,5.85,0,0,0-1.9-2H34.73v2.33h.53v-1.76h2.2a5,5,0,0,1,2.2,4.18,5.29,5.29,0,0,1-.36,2,4.81,4.81,0,0,1-2.64,2.69,5.22,5.22,0,0,1-2.06.4,5.35,5.35,0,0,1-2.06-.38,4.85,4.85,0,0,1-1.61-1.06,4.66,4.66,0,0,1-1-1.57,5.19,5.19,0,0,1-.36-2,4.06,4.06,0,0,1,.07-.75q.07-.35.13-.62c.06-.21.12-.4.18-.57Z" fill="#fff"/><g opacity="0.32" style="mix-blend-mode:multiply"><path d="M456,60h17.2l17,27.79L507.08,60h17.2v72.42H503.46V106.36l-13.29,21.71-13.39-21.71v26.06H456Zm12.31,63.73V73.9l21.89,35.39L512,73.9v49.83h2.54v-55H512l-21.79,35.72L468.28,68.69h-2.54v55Z" fill="#747578" stroke="#747578" stroke-miterlimit="10" stroke-width="10"/><path d="M557.79,134.26a33.71,33.71,0,0,1-11.14-1.74,22.37,22.37,0,0,1-8.5-5.21,23.06,23.06,0,0,1-5.42-8.79A37,37,0,0,1,530.82,106V60h20.81v45.06a10,10,0,0,0,1.42,5.81q1.42,2,4.74,2t4.74-2a10,10,0,0,0,1.42-5.81V60h20.91v46A37,37,0,0,1,583,118.52a22,22,0,0,1-14,14A33.71,33.71,0,0,1,557.79,134.26Zm0-13q-14.66,0-14.66-16V68.69h-2.54v36.59q0,9.12,4.45,14t12.75,4.83q8.3,0,12.8-4.83t4.5-14V68.69h-2.64v36.59Q572.45,121.23,557.79,121.24Z" fill="#747578" stroke="#747578" stroke-miterlimit="10" stroke-width="10"/><path d="M591.4,60h17.1l18,27.9V60H646.9v72.42h-17.2l-17.88-27.79v27.79H591.4ZM603,123.73V73.57l32.25,50.16h2.54v-55h-2.54v50.16L603,68.69h-2.54v55Z" fill="#747578" stroke="#747578" stroke-miterlimit="10" stroke-width="10"/><path d="M422.16,136.57h17.2l17,27.79,16.9-27.79h17.2V209H469.65V182.93l-13.29,21.71L443,182.93V209H422.16Zm12.31,63.73V150.47l21.89,35.39,21.79-35.39V200.3h2.54v-55h-2.54L456.36,181l-21.89-35.72h-2.54v55Z" fill="#747578" stroke="#747578" stroke-miterlimit="10" stroke-width="10"/><path d="M516.65,136.57h15.63L557,209H536.48l-2.15-6.51H514.59L512.44,209H491.92ZM506.48,200.3l1.86-5.43h32.25l1.86,5.43h2.74l-18.86-55h-3.71l-18.86,55Zm18-52.44,15.24,44.41H509.22Zm4.4,38.65-4.4-12.7-4.4,12.7Z" fill="#747578" stroke="#747578" stroke-miterlimit="10" stroke-width="10"/><path d="M558.47,209V136.57h18.08a54.06,54.06,0,0,1,16.37,2.28A31.69,31.69,0,0,1,605,145.69,29.52,29.52,0,0,1,612.55,157a48.82,48.82,0,0,1,0,31.38A29.5,29.5,0,0,1,605,199.76a32.25,32.25,0,0,1-12.12,6.89A52.85,52.85,0,0,1,576.54,209Zm9.77-8.69h8.31q14.27,0,21.55-7.22t7.28-20.36q0-13.14-7.28-20.3t-21.55-7.17h-8.31Zm2.54-2.61V147.86h5.77q12.41,0,19.3,6.24t6.89,18.62q0,12.38-6.89,18.67t-19.3,6.3Zm8.5-9.34q7.33,0,11.33-3.85t4-11.78q0-7.92-4-11.73t-11.33-3.8Z" fill="#747578" stroke="#747578" stroke-miterlimit="10" stroke-width="10"/></g><path d="M456,55h17.2l17,27.79L507.08,55h17.2v72.42H503.46V101.36l-13.29,21.71-13.39-21.71v26.06H456Zm12.31,63.73V68.9l21.89,35.39L512,68.9v49.83h2.54v-55H512L490.17,99.41,468.28,63.69h-2.54v55Z" fill="none" stroke="#f59120" stroke-miterlimit="10" stroke-width="9"/><path d="M557.79,129.26a33.71,33.71,0,0,1-11.14-1.74,22.37,22.37,0,0,1-8.5-5.21,23.06,23.06,0,0,1-5.42-8.79A37,37,0,0,1,530.82,101V55h20.81v45.06a10,10,0,0,0,1.42,5.81q1.42,2,4.74,2t4.74-2a10,10,0,0,0,1.42-5.81V55h20.91v46A37,37,0,0,1,583,113.52a22,22,0,0,1-14,14A33.71,33.71,0,0,1,557.79,129.26Zm0-13q-14.66,0-14.66-16V63.69h-2.54v36.59q0,9.12,4.45,14t12.75,4.83q8.3,0,12.8-4.83t4.5-14V63.69h-2.64v36.59Q572.45,116.23,557.79,116.24Z" fill="none" stroke="#f59120" stroke-miterlimit="10" stroke-width="9"/><path d="M591.4,55h17.1l18,27.9V55H646.9v72.42h-17.2L611.82,99.62v27.79H591.4ZM603,118.73V68.57l32.25,50.16h2.54v-55h-2.54v50.16L603,63.69h-2.54v55Z" fill="none" stroke="#f59120" stroke-miterlimit="10" stroke-width="9"/><path d="M422.16,131.57h17.2l17,27.79,16.9-27.79h17.2V204H469.65V177.93l-13.29,21.71L443,177.93V204H422.16Zm12.31,63.73V145.47l21.89,35.39,21.79-35.39V195.3h2.54v-55h-2.54L456.36,176l-21.89-35.72h-2.54v55Z" fill="none" stroke="#f59120" stroke-miterlimit="10" stroke-width="9"/><path d="M516.65,131.57h15.63L557,204H536.48l-2.15-6.51H514.59L512.44,204H491.92ZM506.48,195.3l1.86-5.43h32.25l1.86,5.43h2.74l-18.86-55h-3.71l-18.86,55Zm18-52.44,15.24,44.41H509.22Zm4.4,38.65-4.4-12.7-4.4,12.7Z" fill="none" stroke="#f59120" stroke-miterlimit="10" stroke-width="9"/><path d="M558.47,204V131.57h18.08a54.06,54.06,0,0,1,16.37,2.28A31.69,31.69,0,0,1,605,140.69,29.52,29.52,0,0,1,612.55,152a48.82,48.82,0,0,1,0,31.38A29.5,29.5,0,0,1,605,194.76a32.25,32.25,0,0,1-12.12,6.89A52.85,52.85,0,0,1,576.54,204Zm9.77-8.69h8.31q14.27,0,21.55-7.22t7.28-20.36q0-13.14-7.28-20.3t-21.55-7.17h-8.31Zm2.54-2.61V142.86h5.77q12.41,0,19.3,6.24t6.89,18.62q0,12.38-6.89,18.67t-19.3,6.3Zm8.5-9.34q7.33,0,11.33-3.85t4-11.78q0-7.92-4-11.73t-11.33-3.8Z" fill="none" stroke="#f59120" stroke-miterlimit="10" stroke-width="9"/><path d="M456,55h17.2l17,27.79L507.08,55h17.2v72.42H503.46V101.36l-13.29,21.71-13.39-21.71v26.06H456Zm12.31,63.73V68.9l21.89,35.39L512,68.9v49.83h2.54v-55H512L490.17,99.41,468.28,63.69h-2.54v55Z" fill="#fff"/><path d="M557.79,129.26a33.71,33.71,0,0,1-11.14-1.74,22.37,22.37,0,0,1-8.5-5.21,23.06,23.06,0,0,1-5.42-8.79A37,37,0,0,1,530.82,101V55h20.81v45.06a10,10,0,0,0,1.42,5.81q1.42,2,4.74,2t4.74-2a10,10,0,0,0,1.42-5.81V55h20.91v46A37,37,0,0,1,583,113.52a22,22,0,0,1-14,14A33.71,33.71,0,0,1,557.79,129.26Zm0-13q-14.66,0-14.66-16V63.69h-2.54v36.59q0,9.12,4.45,14t12.75,4.83q8.3,0,12.8-4.83t4.5-14V63.69h-2.64v36.59Q572.45,116.23,557.79,116.24Z" fill="#fff"/><path d="M591.4,55h17.1l18,27.9V55H646.9v72.42h-17.2L611.82,99.62v27.79H591.4ZM603,118.73V68.57l32.25,50.16h2.54v-55h-2.54v50.16L603,63.69h-2.54v55Z" fill="#fff"/><path d="M422.16,131.57h17.2l17,27.79,16.9-27.79h17.2V204H469.65V177.93l-13.29,21.71L443,177.93V204H422.16Zm12.31,63.73V145.47l21.89,35.39,21.79-35.39V195.3h2.54v-55h-2.54L456.36,176l-21.89-35.72h-2.54v55Z" fill="#fff"/><path d="M516.65,131.57h15.63L557,204H536.48l-2.15-6.51H514.59L512.44,204H491.92ZM506.48,195.3l1.86-5.43h32.25l1.86,5.43h2.74l-18.86-55h-3.71l-18.86,55Zm18-52.44,15.24,44.41H509.22Zm4.4,38.65-4.4-12.7-4.4,12.7Z" fill="#fff"/><path d="M558.47,204V131.57h18.08a54.06,54.06,0,0,1,16.37,2.28A31.69,31.69,0,0,1,605,140.69,29.52,29.52,0,0,1,612.55,152a48.82,48.82,0,0,1,0,31.38A29.5,29.5,0,0,1,605,194.76a32.25,32.25,0,0,1-12.12,6.89A52.85,52.85,0,0,1,576.54,204Zm9.77-8.69h8.31q14.27,0,21.55-7.22t7.28-20.36q0-13.14-7.28-20.3t-21.55-7.17h-8.31Zm2.54-2.61V142.86h5.77q12.41,0,19.3,6.24t6.89,18.62q0,12.38-6.89,18.67t-19.3,6.3Zm8.5-9.34q7.33,0,11.33-3.85t4-11.78q0-7.92-4-11.73t-11.33-3.8Z" fill="#fff"/><path d="M476.34,266.5,476,312h0a1.62,1.62,0,0,1-3.24.14l0,0-.82-45.65c.18-3.69-1.89-4.45-1.89-4.45-2.14.76-2.08,4.57-2.08,4.57l-1.75,45.65,0,.08h0a1.3,1.3,0,0,1-.59,1.08.71.71,0,0,1-.56.21l-.13,0a1.3,1.3,0,0,1-1.28-1.31s0-.07,0-.11l1.16-45.87c-1.49-8.24-3.94-.21-3.94-.21l-2.22,21.56-3.19,34.11a31.16,31.16,0,0,0-.17,6.08,8.5,8.5,0,0,0,1.11,3.6c1.08,1.74,2.8,2.35,4.32,3.52l4.08,3.15c3.74,2.92,3.15,6.31,3.15,6.31l-4.51,142.2s0,0,0,.07c0,1.34,4,2.43,9,2.43s9-1.09,9-2.43a.57.57,0,0,0,0-.12l-3.21-142.26a10.3,10.3,0,0,1,5.06-7.26l2.65-1.73a9.09,9.09,0,0,0,5-6.9c0-2,.15-4.17.16-6.24,0-3.71-.29-7.39-.51-11.08q-.41-6.76-.88-13.51c-.33-4.86-.63-9.71-.93-14.57q-.37-5.85-.74-11.7-.15-2.37-.31-4.75c-2.68-8.64-4.21.22-4.21.22l.93,45.42,0,0a1.56,1.56,0,0,1-3.12-.12.38.38,0,0,1,0-.05l0-.08-.82-45.3c-2.31-10.73-4.09-.23-4.09-.23" fill="#fff"/><circle cx="610.76" cy="395.44" r="76" fill="#cfd1d2"/><circle cx="610.76" cy="401.43" r="76" fill="#fff"/><path d="M83.78,51.38l.52-7.49H86l.68,3.2.17,1.15h0l.22-1.15.75-3.2h1.57l.52,7.49H88.27l-.15-3V46.85h0l-.26,1.56-.66,3h-1l-.61-3-.22-1.56h0l0,1.56-.17,3Z" fill="#221f1f"/><path d="M93.66,50.08H92l-.27,1.31H90.33l1.74-7.49h1.8l1.73,7.49H93.92Zm-1.38-1.19h1.14l-.4-2-.15-1h0l-.17,1Z" fill="#221f1f"/><path d="M96.2,43.9h2.3a2,2,0,0,1,2.1,2.29,2.16,2.16,0,0,1-1,1.92l1.16,3.28H99.07l-1-2.86h-.19v2.86H96.2Zm1.69,1.26v2.22h.32c.59,0,.77-.44.77-1.14s-.19-1.08-.75-1.08Z" fill="#221f1f"/><path d="M105.58,51.19a2.39,2.39,0,0,1-1.3.31c-1.9,0-3.08-1.24-3.08-3.78s1.31-3.94,3-3.94a2.61,2.61,0,0,1,1.35.28l-.38,1.27a2.15,2.15,0,0,0-.85-.17c-.94,0-1.43.92-1.43,2.54s.51,2.42,1.46,2.42a1.85,1.85,0,0,0,.82-.19Z" fill="#221f1f"/><path d="M106.28,43.9H108v3h1.41v-3h1.7v7.49h-1.7v-3.2H108v3.2h-1.7Z" fill="#221f1f"/><path d="M114.27,45.77l-1,1V45.24l1.39-1.4h1.27v7.55h-1.66Z" fill="#221f1f"/><path d="M116.89,48.51A5.7,5.7,0,0,1,119,43.9h1.91V44a5.71,5.71,0,0,0-2.18,3,1.27,1.27,0,0,1,1-.5c.89,0,1.63.75,1.63,2.39s-.86,2.68-2.21,2.68S116.89,50.56,116.89,48.51Zm2.85.34c0-1-.27-1.21-.62-1.21a.78.78,0,0,0-.59.33c0,.2,0,.4,0,.61,0,1.38.24,1.72.62,1.72S119.74,49.89,119.74,48.85Z" fill="#221f1f"/><path d="M169.46,61.38,170,53.9h1.66l.68,3.2.17,1.15h0l.22-1.15.75-3.2H175l.52,7.49h-1.62l-.15-3V56.85h0l-.26,1.56-.66,3h-1l-.61-3-.22-1.56h0l0,1.56-.17,3Z" fill="#221f1f"/><path d="M179.34,60.08h-1.62l-.27,1.31H176l1.74-7.49h1.8l1.73,7.49H179.6ZM178,58.89h1.14l-.4-2-.15-1h0l-.17,1Z" fill="#221f1f"/><path d="M181.88,53.9h2.3a2,2,0,0,1,2.1,2.29,2.16,2.16,0,0,1-1,1.92l1.16,3.28h-1.73l-1-2.86h-.19v2.86h-1.69Zm1.69,1.26v2.22h.32c.59,0,.77-.44.77-1.14s-.19-1.08-.75-1.08Z" fill="#221f1f"/><path d="M191.26,61.19a2.39,2.39,0,0,1-1.3.31c-1.9,0-3.08-1.24-3.08-3.78s1.31-3.94,3-3.94a2.61,2.61,0,0,1,1.35.28l-.38,1.27a2.15,2.15,0,0,0-.85-.17c-.94,0-1.43.92-1.43,2.54s.51,2.42,1.46,2.42a1.85,1.85,0,0,0,.82-.19Z" fill="#221f1f"/><path d="M192,53.9h1.7v3h1.41v-3h1.7v7.49h-1.7v-3.2h-1.41v3.2H192Z" fill="#221f1f"/><path d="M199,61.38v-1l1.24-2.24a4.5,4.5,0,0,0,.69-2.15.74.74,0,0,0-.79-.83,1.78,1.78,0,0,0-.86.24l-.31-1.28a2.78,2.78,0,0,1,1.49-.35,1.93,1.93,0,0,1,2.19,2.13A6.73,6.73,0,0,1,201.38,59l-.61,1h1.81v1.31Z" fill="#221f1f"/><path d="M205.58,61.55c-1.44,0-2.39-1-2.39-3.87s1-3.95,2.39-3.95S208,54.91,208,57.69,207,61.55,205.58,61.55Zm0-1.38c.47,0,.69-.51.69-2.51s-.22-2.55-.69-2.55-.69.63-.69,2.55S205.11,60.18,205.58,60.18Z" fill="#221f1f"/><path d="M249.47,82.05l.52-7.49h1.66l.68,3.2.17,1.15h0l.22-1.15.75-3.2h1.57l.52,7.49H254l-.15-3V77.51h0l-.26,1.56-.66,3h-1l-.61-3-.22-1.56h0l0,1.56-.17,3Z" fill="#221f1f"/><path d="M259.35,80.74h-1.62l-.27,1.31H256l1.74-7.49h1.8l1.73,7.49h-1.68ZM258,79.55h1.14l-.4-2-.15-1h0l-.17,1Z" fill="#221f1f"/><path d="M261.89,74.57h2.3a2,2,0,0,1,2.1,2.29,2.16,2.16,0,0,1-1,1.92l1.16,3.28h-1.73l-1-2.86h-.19v2.86h-1.69Zm1.69,1.26V78h.32c.59,0,.77-.44.77-1.14s-.19-1.08-.75-1.08Z" fill="#221f1f"/><path d="M271.27,81.86a2.39,2.39,0,0,1-1.3.31c-1.9,0-3.08-1.24-3.08-3.78s1.31-3.94,3-3.94a2.61,2.61,0,0,1,1.35.28L270.9,76a2.15,2.15,0,0,0-.85-.17c-.94,0-1.43.92-1.43,2.54s.51,2.42,1.46,2.42a1.85,1.85,0,0,0,.82-.19Z" fill="#221f1f"/><path d="M272,74.57h1.7v3h1.41v-3h1.7v7.49h-1.7v-3.2h-1.41v3.2H272Z" fill="#221f1f"/><path d="M279,82.05v-1l1.24-2.24a4.5,4.5,0,0,0,.69-2.15.74.74,0,0,0-.79-.83,1.78,1.78,0,0,0-.86.24l-.31-1.28a2.78,2.78,0,0,1,1.49-.35,1.93,1.93,0,0,1,2.19,2.13,6.73,6.73,0,0,1-1.23,3.13l-.61,1h1.81v1.31Z" fill="#221f1f"/><path d="M286.86,80.5v1.55h-1.52V80.5H283.1v-1l1.7-5h2.06v4.78h.58V80.5Zm-1.52-1.16V77.11l0-1.18h0l-.28,1.12-.76,2.29Z" fill="#221f1f"/><path d="M303.49,126.72l.52-7.49h1.66l.68,3.2.17,1.15h0l.22-1.15.75-3.2h1.57l.52,7.49H308l-.15-3v-1.56h0l-.26,1.56-.66,3h-1l-.61-3-.22-1.56h0l0,1.56-.17,3Z" fill="#221f1f"/><path d="M313.37,125.41h-1.62l-.27,1.31H310l1.74-7.49h1.8l1.73,7.49h-1.68ZM312,124.22h1.14l-.4-2-.15-1h0l-.17,1Z" fill="#221f1f"/><path d="M315.91,119.23h2.3a2,2,0,0,1,2.1,2.29,2.16,2.16,0,0,1-1,1.92l1.16,3.28h-1.73l-1-2.86h-.19v2.86h-1.69Zm1.69,1.26v2.22h.32c.59,0,.77-.44.77-1.14s-.19-1.08-.75-1.08Z" fill="#221f1f"/><path d="M325.29,126.53a2.4,2.4,0,0,1-1.3.31c-1.9,0-3.08-1.24-3.08-3.78s1.31-3.94,3-3.94a2.62,2.62,0,0,1,1.35.28l-.38,1.27a2.14,2.14,0,0,0-.85-.17c-.94,0-1.43.92-1.43,2.54s.51,2.42,1.46,2.42a1.85,1.85,0,0,0,.82-.19Z" fill="#221f1f"/><path d="M326,119.23h1.7v3h1.41v-3h1.7v7.49h-1.7v-3.2h-1.41v3.2H326Z" fill="#221f1f"/><path d="M332.8,126.52l.37-1.29a2,2,0,0,0,1,.25.86.86,0,0,0,.9-1c0-.56-.2-1-.88-1h-.33v-1.26h.33a.82.82,0,0,0,.87-.92c0-.57-.28-.87-.91-.87a1.77,1.77,0,0,0-.85.24l-.35-1.24a2.82,2.82,0,0,1,1.49-.37,1.92,1.92,0,0,1,2.1,2.11,1.61,1.61,0,0,1-1,1.61,1.76,1.76,0,0,1,1.14,1.82,2.12,2.12,0,0,1-2.27,2.24A2.94,2.94,0,0,1,332.8,126.52Z" fill="#221f1f"/><path d="M339.58,126.89c-1.44,0-2.39-1-2.39-3.87s1-3.95,2.39-3.95S342,120.24,342,123,341,126.89,339.58,126.89Zm0-1.38c.47,0,.69-.51.69-2.51s-.22-2.55-.69-2.55-.69.63-.69,2.55S339.11,125.51,339.58,125.51Z" fill="#221f1f"/><path d="M353.34,202.72l.52-7.49h1.66l.68,3.2.17,1.15h0l.22-1.15.75-3.2h1.57l.52,7.49h-1.62l-.15-3v-1.56h0l-.26,1.56-.66,3h-1l-.61-3-.22-1.56h0l0,1.56-.17,3Z" fill="#221f1f"/><path d="M363.22,201.41H361.6l-.27,1.31h-1.44l1.74-7.49h1.8l1.73,7.49h-1.68Zm-1.38-1.19H363l-.4-2-.15-1h0l-.17,1Z" fill="#221f1f"/><path d="M365.76,195.23h2.3a2,2,0,0,1,2.1,2.29,2.16,2.16,0,0,1-1,1.92l1.16,3.28h-1.73l-1-2.86h-.19v2.86h-1.69Zm1.69,1.26v2.22h.32c.59,0,.77-.44.77-1.14s-.19-1.08-.75-1.08Z" fill="#221f1f"/><path d="M375.14,202.53a2.39,2.39,0,0,1-1.3.31c-1.9,0-3.08-1.24-3.08-3.78s1.31-3.94,3-3.94a2.61,2.61,0,0,1,1.35.28l-.38,1.27a2.14,2.14,0,0,0-.85-.17c-.94,0-1.43.92-1.43,2.54s.51,2.42,1.46,2.42a1.85,1.85,0,0,0,.82-.19Z" fill="#221f1f"/><path d="M375.84,195.23h1.7v3h1.41v-3h1.7v7.49h-1.7v-3.2h-1.41v3.2h-1.7Z" fill="#221f1f"/><path d="M382.65,202.52l.37-1.29a2,2,0,0,0,1,.25.86.86,0,0,0,.9-1c0-.56-.2-1-.88-1h-.33v-1.26H384a.82.82,0,0,0,.87-.92c0-.57-.28-.87-.91-.87a1.77,1.77,0,0,0-.85.24l-.35-1.24a2.81,2.81,0,0,1,1.49-.37,1.92,1.92,0,0,1,2.1,2.11,1.61,1.61,0,0,1-1,1.61,1.76,1.76,0,0,1,1.14,1.82,2.12,2.12,0,0,1-2.27,2.24A2.94,2.94,0,0,1,382.65,202.52Z" fill="#221f1f"/><path d="M388,197.1l-1,1v-1.49l1.39-1.4h1.27v7.55H388Z" fill="#221f1f"/><path d="M423.73,380.74h-1.62l-.27,1.31H420.4l1.74-7.49h1.8l1.73,7.49H424Zm-1.38-1.19h1.14l-.4-2-.15-1h0l-.17,1Z" fill="#221f1f"/><path d="M426.27,374.57h2.14a2.42,2.42,0,0,1,0,4.84H428v2.65h-1.69Zm1.69,1.26v2.39h.31c.57,0,.78-.41.78-1.2s-.21-1.19-.78-1.19Z" fill="#221f1f"/><path d="M431.36,374.57h2.3a2,2,0,0,1,2.1,2.29,2.17,2.17,0,0,1-1,1.92l1.16,3.28h-1.73l-1-2.86h-.19v2.86h-1.69Zm1.69,1.26V378h.32c.59,0,.77-.44.77-1.14s-.19-1.08-.75-1.08Z" fill="#221f1f"/><path d="M436.62,374.57h1.71v7.49h-1.71Z" fill="#221f1f"/><path d="M439.36,374.57h1.71v6.2h1.71v1.29h-3.42Z" fill="#221f1f"/><path d="M444.53,381.85l.37-1.29a2,2,0,0,0,1,.25.86.86,0,0,0,.9-1c0-.56-.2-1-.88-1h-.33V377.6h.33a.82.82,0,0,0,.87-.92c0-.57-.28-.87-.91-.87a1.77,1.77,0,0,0-.85.24l-.35-1.24a2.81,2.81,0,0,1,1.49-.37,1.92,1.92,0,0,1,2.1,2.11,1.61,1.61,0,0,1-1,1.61,1.76,1.76,0,0,1,1.14,1.82,2.12,2.12,0,0,1-2.27,2.24A3,3,0,0,1,444.53,381.85Z" fill="#221f1f"/><path d="M553.16,38.28c-.4.31-1.09.88-1.09.88a2,2,0,0,1-1.06.56,5.2,5.2,0,0,1-2.33-1V29.84h4.48v8.43ZM538,26.53V18.41l1.55-.92,3.07,2.22v6.81Zm8.57,11.61V19.33l1.62-1V38.63a9.66,9.66,0,0,0-1.62-.5Zm2.08-11.61V18.16l1-.64a6,6,0,0,0,3.46,2.26v6.74Zm11.12,13a6.45,6.45,0,0,1-2.72-1.31V19.89a4.06,4.06,0,0,0,2-3l-.07-.11a6.63,6.63,0,0,1-2.26.35A4.64,4.64,0,0,1,553,15.2l-5.5,3.14c-1.44-1-3.2-2.24-4.59-3.25l-7.13,4.13c-2.26,1.31-3.85,2.83-3.85,5.33v2h-.53a2.85,2.85,0,0,0-3.14,2.75,2.5,2.5,0,0,0,.88,2l.1,0a1.84,1.84,0,0,1,2.08-1.52h.6v4.34a3.61,3.61,0,0,1-1.31,3.11l0,.07c2.79-.27,5.22-1.68,5.22-4.52V19.65c.56-.32.88-.54,1.69-1V37.29c0,1.67-.65,2.22-2.29,2.22-1.86,0-3.74-.85-5.47-.85-2.68,0-4.13,1.68-4.27,4.41l.21.07a3.43,3.43,0,0,1,3.1-1.27c1.7,0,3.35.88,5.12.88,2.51,0,4.06-1.45,4.06-3.85V29.84h4.66v8.5a7,7,0,0,0-3.39,3.74l.07.18a6,6,0,0,1,3.53-1.13A8.42,8.42,0,0,1,548,42.72c.88-.74,3.45-2.61,4.48-3.39,1.37,1.06,3,2.32,4.13,3.35,1.26-1.24,3.25-3.1,3.25-3.1l0-.07Zm15.63-.39L573,40.54a4.85,4.85,0,0,1-2-4.34c0-1.84.6-3.21,2.36-3.21a6.81,6.81,0,0,1,2,.28v5.86Zm-2.19-6.67a8.77,8.77,0,0,0-1.87.28V26.49l.17-.14c1.57,1.05,2.53,1.71,3.88,2.68v3.7a8.13,8.13,0,0,0-2.19-.28ZM580.83,40a3.86,3.86,0,0,1-1.84-.92V27.52c-2-1.36-3.26-2.15-4.9-3.25a40.84,40.84,0,0,1-5.4,3.14v3.85a14.11,14.11,0,0,1,2.5,1.52c-2.48.91-3.74,2.59-3.74,4.59a5.9,5.9,0,0,0,3.1,5.33c2.09-1.32,2.91-1.9,4.45-2.79,1.53,1.14,2.44,1.83,3.64,2.75L580.86,40l0-.07Zm65.73-8.72-3.07,1.91V26.63l.28-.18c.74,1.33,1.86,3.28,2.79,4.8Zm-.32-7c-1.49,1.08-4.49,3.07-6.32,4.16V39.65c1.37.9,3,2,4.34,3,1.31-1.47,2.65-2.78,4-4.06l-.29-.28c-.84.84-1.21,1.27-1.69,1.27s-1.13-.4-2.79-1.41V33.65l6.28-3.88c-1.39-2.09-2.55-3.87-3.53-5.51Zm22.9,14.86-2.4,1.41a4.84,4.84,0,0,1-2-4.34c0-1.84.6-3.21,2.37-3.21a6.83,6.83,0,0,1,2,.28v5.86Zm-2.19-6.67a8.79,8.79,0,0,0-1.87.28V26.49l.21-.14c1.57,1.05,2.5,1.71,3.85,2.68v3.7a8.15,8.15,0,0,0-2.19-.28ZM674.53,40a3.86,3.86,0,0,1-1.84-.92V27.52c-2-1.36-3.26-2.15-4.9-3.25a40.65,40.65,0,0,1-5.4,3.14v3.85a14.12,14.12,0,0,1,2.51,1.52c-2.48.91-3.74,2.59-3.74,4.59a5.91,5.91,0,0,0,3.11,5.33c2.09-1.32,2.91-1.9,4.45-2.79,1.53,1.14,2.44,1.83,3.63,2.75L674.57,40l0-.07Zm16.83-.53-.63.49a36.28,36.28,0,0,1-3.71-2.4V25.89c.6-.36,1.18-.66,2-1.16L691.36,27V39.44Zm3.56-13.66c-4.06-4.14-7.57-7.73-9.14-9.35-.82.72-1.84,1.52-3.07,2.4l0,.07a5.29,5.29,0,0,1,1.94,1.41l4.06,4.09c-2,1.17-3.73,2.11-5.29,3v12c1.45,1,3.28,2.21,4.76,3.35a33,33,0,0,1,6.7-5V25.78ZM537,15.94l-.21-.1a3.14,3.14,0,0,1-1.83.63c-1.11,0-2.37-.78-3.63-.78-2,0-3.83,1.41-4.13,4.34l.18.11A2.78,2.78,0,0,1,530,18.59c1,0,2.51.74,3.25.74,1.54,0,2.74-1.26,3.67-3.39Zm30,23.85,0-.07a6,6,0,0,1-2.08-.92V26.24c-1-.68-1.76-1.26-2.68-2l-2.36,2.65,0,.07a3.5,3.5,0,0,1,1.45.85V40.32c1,.68,2.24,1.6,3.21,2.36,1.54-1.84,2.47-2.89,2.47-2.89ZM564.91,19.5c-.8-.62-1.63-1.3-2.4-2-.73.9-1.4,1.61-2,2.29.91.7,1.81,1.33,2.47,1.91.8-.95,1.4-1.62,2-2.22Zm39.21,20.25,0-.07a5.05,5.05,0,0,1-2.08-.88V26.91c-.94-.61-3.21-2-4.23-2.68-1.16,1-2.29,1.94-3.49,2.9-1.27-.92-2.82-2-4-2.82-1.38,1.11-2.56,2-3.6,2.82-1.3-1-2.52-2-3.64-2.86-.73.88-1.66,1.84-2.51,2.68l0,.07c.6.06,1,.28,2.15,1.31V41c.54.39,1.37,1.05,2.12,1.66.73-.78,1.6-1.61,2.43-2.4-.29-.15-.67-.38-1-.6V28l1.77-1.41,2.5,1.73V41s1.23.95,2.12,1.66c.58-.58,1.82-1.75,2.47-2.36l-1-.64V27.87l1.45-1.17,2.82,1.73V40.32c1.14.79,2.14,1.52,3.21,2.36,1.78-2.18,2.47-2.93,2.47-2.93Zm7.23,0,0-.07a6,6,0,0,1-2.08-.92V26.24c-1-.68-1.76-1.26-2.68-2l-2.36,2.65,0,.07a3.5,3.5,0,0,1,1.45.85V40.32c1,.68,2.24,1.6,3.21,2.36,1.54-1.84,2.47-2.89,2.47-2.89ZM609.27,19.5c-.8-.62-1.63-1.3-2.4-2-.73.9-1.4,1.61-2,2.29.91.7,1.8,1.33,2.47,1.91.8-.95,1.39-1.62,2-2.22Zm14.87-.07-.11-.07c-2.49.74-4.34,2.34-4.34,5.36v1.8h-.85a2.82,2.82,0,0,0-3.11,2.75,2.49,2.49,0,0,0,.85,2h.11c.15-.78.67-1.48,2.08-1.48h.92v5a2.74,2.74,0,0,1-.81,2l.18.11a6,6,0,0,0,4.55-5.58V23.24c0-2.19.16-3.14.53-3.81Zm14.57-3.18-.07-.14a6.77,6.77,0,0,1-2.61.49,5.43,5.43,0,0,1-3.64-1.38c-.82.91-1.85,2-2.72,2.86a5.47,5.47,0,0,0,2.72,1.38v7.06h-6.56V15.41h-.46V38.84a10,10,0,0,0-4.23-1,6.36,6.36,0,0,0-6.42,4.27l.07.18a8.66,8.66,0,0,1,4.55-1.17,8.18,8.18,0,0,1,5.12,1.52c1.07-1.45,2.57-3.17,3.42-4.2l-.28-.25c-.34.49-.81,1-1.16,1a1.34,1.34,0,0,1-.6-.18V29.84h6.56v8.5a5.11,5.11,0,0,0-4.13,4.06l0,.14a6.88,6.88,0,0,1,4-1.23,5.22,5.22,0,0,1,3.56,1.38l2.82-3a6.46,6.46,0,0,0-2.33-1V19.29a4.67,4.67,0,0,0,2.36-3ZM624.32,16l-.07-.14a3,3,0,0,1-1.94.67c-1.11,0-2.37-.78-3.63-.78-2,0-3.79,1.37-4.09,4.31l.14.14a2.79,2.79,0,0,1,2.72-1.55c1,0,2.51.74,3.25.74,1.54,0,2.7-1.26,3.63-3.39Zm37.55,10,0-.11a5.23,5.23,0,0,1-3.74-1.69c-.94,1-1.67,1.68-2.72,2.61-1.25-.91-2.13-1.66-3.32-2.65l-2.4,2.68,0,.07a5.37,5.37,0,0,1,2,1.31V39.65c1.49,1,2.92,2,4.38,3,1-1.1,2.17-2.33,3.42-3.56l-.25-.25c-.49.49-.81.71-1.23.71s-1.12-.34-2.75-1.27V27.52l.32-.32a3.67,3.67,0,0,0,3,1.41c1.45,0,2.57-1,3.28-2.54Zm20.4,13.76c-.73.73-1.72,1.83-2.58,2.86-1.26-1-2.49-1.82-3.21-2.36v-19a1.54,1.54,0,0,0-.88-1.55v-.11L680,16.47l.07.07V38.81a5,5,0,0,0,2.19,1l0,.07Z" fill="#fff"/></g></g></g></svg>