<svg xmlns="http://www.w3.org/2000/svg" viewBox="0 0 612.04 395.91"><defs><clipPath id="a"><path fill="none" d="M0 .15h611.81v395.74H0z"/></clipPath></defs><title>TopRight-box</title><g data-name="Layer 1" style="isolation:isolate"><g clip-path="url(#a)"><path fill="#d0d2d3" d="M-611.81.15H611.8v791.47H-611.81z"/><ellipse cx="3.48" cy="404.74" rx="370.62" ry="370.51" fill="#caccce"/><path fill="none" stroke="#fff" stroke-miterlimit="10" stroke-width="2" d="M253.56 197.47h-44.92v372.89h44.92"/><path fill="#b1b3b5" d="M-52.13-4.46H53.09v799.02H-52.13z"/><path d="M-58.8 41.48c-.4.31-1.09.88-1.09.88a2 2 0 0 1-1.06.56 5.2 5.2 0 0 1-2.33-1V33h4.48v8.43zm-15.14-11.75v-8.11l1.55-.92 3.07 2.22v6.81zm8.57 11.6V22.54l1.62-1v20.29a9.66 9.66 0 0 0-1.62-.49zm2.08-11.6v-8.35l1-.64A6 6 0 0 0-58.8 23v6.74zm11.11 13a6.45 6.45 0 0 1-2.72-1.31V23.1a4.06 4.06 0 0 0 2-3l-.07-.1a6.63 6.63 0 0 1-2.26.35A4.63 4.63 0 0 1-59 18.41l-5.5 3.14c-1.44-1-3.2-2.24-4.59-3.25l-7.13 4.13c-2.23 1.31-3.78 2.83-3.78 5.33v2h-.53a2.85 2.85 0 0 0-3.14 2.75 2.5 2.5 0 0 0 .88 2h.1A1.84 1.84 0 0 1-80.64 33h.6v4.34a3.61 3.61 0 0 1-1.31 3.1v.07c2.79-.27 5.22-1.68 5.22-4.52V22.86c.56-.32.88-.54 1.69-1v18.63c0 1.67-.65 2.22-2.29 2.22-1.85 0-3.74-.85-5.47-.85-2.68 0-4.13 1.68-4.27 4.41l.21.07a3.43 3.43 0 0 1 3.1-1.27c1.7 0 3.35.88 5.11.88 2.51 0 4.06-1.45 4.06-3.84V33h4.66v8.5a7 7 0 0 0-3.39 3.74l.07.18a6 6 0 0 1 3.53-1.13A8.42 8.42 0 0 1-64 45.92c.88-.74 3.45-2.61 4.48-3.39 1.37 1.06 3 2.32 4.13 3.35 1.26-1.24 3.25-3.1 3.25-3.1v-.07zm15.63-.39l-2.4 1.41a4.84 4.84 0 0 1-2-4.34c0-1.83.6-3.21 2.36-3.21a6.81 6.81 0 0 1 2 .28v5.85zm-2.19-6.67a8.77 8.77 0 0 0-1.87.28V29.7l.17-.14c1.57 1.05 2.53 1.71 3.88 2.68v3.7a8.13 8.13 0 0 0-2.19-.28zm7.58 7.51a3.86 3.86 0 0 1-1.84-.93V30.72c-2-1.36-3.26-2.15-4.9-3.24a40.83 40.83 0 0 1-5.4 3.14v3.84A14.11 14.11 0 0 1-40.78 36c-2.48.91-3.74 2.59-3.74 4.58a5.9 5.9 0 0 0 3.1 5.32c2.09-1.32 2.9-1.9 4.44-2.79 1.53 1.14 2.44 1.83 3.63 2.75l2.22-2.61v-.07zm65.7-8.71l-3.07 1.9v-6.53l.28-.18a149.2 149.2 0 0 0 2.79 4.8zm-.32-7c-1.49 1.07-4.49 3.07-6.31 4.16v11.22c1.37.9 3 2 4.34 3 1.31-1.46 2.65-2.77 4-4.05l-.25-.25c-.84.84-1.21 1.27-1.69 1.27s-1.13-.4-2.79-1.41v-4.55L37.77 33c-1.39-2.09-2.55-3.87-3.53-5.5zm22.9 14.85l-2.4 1.41a4.84 4.84 0 0 1-2-4.34c0-1.83.6-3.21 2.36-3.21a6.83 6.83 0 0 1 2 .28v5.85zm-2.19-6.67a8.79 8.79 0 0 0-1.87.28V29.7l.21-.14c1.57 1.05 2.5 1.71 3.85 2.68v3.7a8.15 8.15 0 0 0-2.19-.28zm7.59 7.51a3.86 3.86 0 0 1-1.84-.92V30.72c-2-1.36-3.26-2.15-4.9-3.24a40.64 40.64 0 0 1-5.4 3.14v3.84A14.11 14.11 0 0 1 52.9 36c-2.48.91-3.74 2.59-3.74 4.58a5.9 5.9 0 0 0 3.1 5.32c2.09-1.32 2.91-1.9 4.44-2.79 1.53 1.14 2.44 1.83 3.63 2.75l2.22-2.61v-.07zm16.82-.53l-.63.49a36.27 36.27 0 0 1-3.7-2.4V29.1c.6-.36 1.18-.66 2-1.16l2.36 2.29v12.41zM82.92 29c-4.06-4.14-7.57-7.73-9.13-9.35-.82.72-1.84 1.51-3.07 2.4v.07a5.29 5.29 0 0 1 1.94 1.41l4.06 4.09c-2 1.17-3.73 2.11-5.29 3v12c1.44 1 3.28 2.21 4.76 3.35a32.94 32.94 0 0 1 6.7-5V29zM-75 19.15l-.21-.1a3.14 3.14 0 0 1-1.83.63c-1.11 0-2.36-.78-3.63-.78-2 0-3.83 1.4-4.13 4.34l.18.11a2.78 2.78 0 0 1 2.72-1.55c1 0 2.51.74 3.24.74 1.54 0 2.74-1.26 3.67-3.39zM-45 43v-.07a6 6 0 0 1-2.09-.93V29.45c-1-.68-1.76-1.26-2.68-2l-2.36 2.64v.07a3.5 3.5 0 0 1 1.45.85v12.51c1 .68 2.24 1.6 3.21 2.36C-45.9 44-45 43-45 43zm-2.08-20.28c-.8-.62-1.63-1.3-2.4-2-.73.9-1.4 1.61-2 2.29.91.7 1.81 1.33 2.47 1.9.8-.95 1.4-1.62 2-2.22zM-7.86 43v-.07A5.05 5.05 0 0 1-10 42V30.12c-.94-.61-3.21-2-4.23-2.68-1.16 1-2.29 1.94-3.49 2.89-1.27-.92-2.82-2-4-2.82-1.38 1.1-2.56 2-3.6 2.82-1.3-1-2.52-2-3.63-2.86-.73.88-1.66 1.84-2.5 2.68v.07c.6.06 1 .28 2.15 1.31v12.7c.54.39 1.37 1.05 2.12 1.66.73-.78 1.6-1.61 2.43-2.4-.29-.15-.66-.38-1-.6V31.21l1.77-1.41 2.5 1.73v12.7s1.23.95 2.12 1.66c.58-.58 1.82-1.75 2.47-2.36l-1-.64V31.07l1.44-1.16 2.82 1.73v11.88c1.14.78 2.14 1.52 3.21 2.36C-8.56 43.71-7.86 43-7.86 43zm7.23 0v-.07A6 6 0 0 1-2.75 42V29.45c-1-.68-1.76-1.26-2.68-2l-2.36 2.64v.07a3.49 3.49 0 0 1 1.48.84v12.52c1 .68 2.24 1.6 3.21 2.36C-1.56 44-.63 43-.63 43zm-2.08-20.28c-.8-.62-1.63-1.3-2.4-2-.73.9-1.4 1.61-2 2.29.91.7 1.8 1.33 2.47 1.9.8-.95 1.39-1.62 2-2.22zm14.87-.07l-.16-.08c-2.49.74-4.34 2.34-4.34 5.36v1.8h-.8a2.82 2.82 0 0 0-3.1 2.75 2.49 2.49 0 0 0 .85 2h.11C4.87 33.7 5.39 33 6.8 33h.92v5a2.74 2.74 0 0 1-.81 2l.18.11a6 6 0 0 0 4.55-5.57v-8.09c0-2.19.16-3.14.53-3.81zm14.57-3.17l-.07-.14a6.77 6.77 0 0 1-2.61.49 5.43 5.43 0 0 1-3.64-1.38c-.82.91-1.85 2-2.72 2.86a5.47 5.47 0 0 0 2.72 1.38v7.05h-6.56V18.62h-.46V42a10 10 0 0 0-4.23-1 6.36 6.36 0 0 0-6.42 4.27l.07.18a8.66 8.66 0 0 1 4.55-1.16 8.18 8.18 0 0 1 5.12 1.52c1.07-1.45 2.57-3.16 3.42-4.2l-.28-.25c-.34.49-.81 1-1.16 1a1.34 1.34 0 0 1-.6-.18V33h6.56v8.5a5.11 5.11 0 0 0-4.13 4.06v.14a6.88 6.88 0 0 1 4-1.23 5.22 5.22 0 0 1 3.56 1.37l2.82-3a6.46 6.46 0 0 0-2.33-1V22.5a4.67 4.67 0 0 0 2.36-3zm-14.39-.21l-.07-.14a3 3 0 0 1-1.94.67C9.21 19.79 8 19 6.69 19c-2 0-3.79 1.37-4.09 4.3l.14.14a2.79 2.79 0 0 1 2.71-1.54c1 0 2.51.74 3.25.74 1.54 0 2.7-1.26 3.63-3.39zm37.53 10v-.11a5.23 5.23 0 0 1-3.74-1.69c-.94 1-1.67 1.68-2.72 2.61-1.25-.91-2.13-1.66-3.32-2.65l-2.4 2.68v.07a5.37 5.37 0 0 1 2 1.3v11.37c1.49 1 2.92 2 4.38 3 1-1.1 2.17-2.33 3.42-3.56l-.25-.25c-.49.49-.81.71-1.23.71s-1.12-.34-2.75-1.27V30.72l.32-.32a3.67 3.67 0 0 0 3 1.41c1.45 0 2.57-1 3.28-2.54zM70.26 43c-.73.73-1.72 1.82-2.58 2.86-1.26-1-2.49-1.82-3.21-2.36v-19a1.54 1.54 0 0 0-.88-1.5v-.11L68 19.68l.07.07V42a5 5 0 0 0 2.19 1v.07z" fill="none" stroke="#b1b3b5" stroke-linecap="round" stroke-miterlimit="10" stroke-width="11"/><path fill="none" stroke="#fff" stroke-miterlimit="10" stroke-width="2" d="M505.47 43.27h-57.92v26.28h57.92M426.11 55.26h-57.92v42.27h57.92"/><path fill="none" stroke="#fff" stroke-miterlimit="10" stroke-width="2" d="M373.46 76.58h-57.92v83.58h57.92M314.81 121.89h-51.92v162.52h51.92M373.46 243.81h-57.92v83.58h57.92"/><path fill="none" stroke="#fff" stroke-miterlimit="10" stroke-width="2" d="M426.11 138.04h-57.92v42.28h57.92M426.11 221.99h-57.92v42.27h57.92M426.11 305.27h-57.92v42.27h57.92M505.47 84.68h-57.92v26.29h57.92M505.47 126.1h-57.92v26.28h57.92M505.47 167.51h-57.92v26.29h57.92M505.47 208.93h-57.92v26.28h57.92M505.47 250.34h-57.92v26.29h57.92M505.47 291.76h-57.92v26.28h57.92M505.47 333.17h-57.92v26.29h57.92"/><path fill="#fff" d="M489.93 39.33h75.64v15.99h-75.64zM409.29 47.9h75.64v15.72h-75.64zM329.82 68.47h75.64v15.99h-75.64zM329.82 150.92h75.64v15.99h-75.64zM329.82 236.37h75.64v15.99h-75.64zM329.82 318.31h75.64v15.99h-75.64zM277.5 275.84h75.64v15.99H277.5zM223.47 189.9h75.64v15.99h-75.64zM277.5 113.94h75.64v15.99H277.5zM409.29 89.46h75.64v15.99h-75.64zM409.29 130.93h75.64v15.99h-75.64zM409.29 172.41h75.64v15.99h-75.64zM409.29 213.88h75.64v15.99h-75.64zM409.29 255.35h75.64v15.99h-75.64zM409.29 296.83h75.64v15.99h-75.64zM409.29 338.3h75.64v15.99h-75.64zM489.93 58.31h75.64V74.3h-75.64zM489.93 80.8h75.64v15.99h-75.64zM489.93 99.79h75.64v15.99h-75.64zM489.93 122.27h75.64v15.99h-75.64zM489.93 141.26h75.64v15.99h-75.64zM489.93 163.75h75.64v15.99h-75.64zM489.93 182.73h75.64v15.99h-75.64zM489.93 205.22h75.64v15.99h-75.64zM489.93 224.21h75.64v15.99h-75.64zM489.93 246.69h75.64v15.99h-75.64zM489.93 265.68h75.64v15.99h-75.64zM489.93 288.17h75.64v15.99h-75.64zM489.93 307.16h75.64v15.99h-75.64zM489.93 329.64h75.64v15.99h-75.64zM489.93 348.63h75.64v15.99h-75.64zM161.26 386.9h75.64v15.99h-75.64z"/><ellipse cx="-1.02" cy="401.75" rx="116.18" ry="116.15" fill="#797b7d"/><path d="M151 266.55s-2-3.74-9.24 0c0 0-11 3.68-16.35 39.1 0 0-2.48 21.65-.77 58.18 0 0 0 2.4 1.8 3.16 0 0 4.62 1 5.65 8 0 0 0 .11-.12.31a6.25 6.25 0 0 0-1.34 3.91 6.37 6.37 0 0 0 .78 3.07 4 4 0 0 0 .85 1.43l-1.38 106.05a.45.45 0 0 0 0 .07c0 1.31 3.93 2.36 8.77 2.36s8.68-1 8.76-2.32 0 0 0-.06l-3.54-105.9a6.13 6.13 0 0 0 2.07-4.67 6.26 6.26 0 0 0-1.38-4l-.24-.51s.22-2.74 3.38-7.24l-.4-25.05c.36-8.57-.48-13.76.36-31.87a271 271 0 0 1 4-33.25s.81-7.46-1.64-10.83" fill="#797b7d"/><ellipse cx="-1.02" cy="395.89" rx="116.18" ry="116.15" fill="#fff"/><path d="M-6.31 289.18l7.29.65 1.74 8.57L6 290.28l4.71.42 1.74 8.57 3.23-8.13 7.29.65-9.23 23.26-5.36-.48-1.52-7.43-2.81 7-5.36-.48zm8.44 22l5.63-14.63 3 15.4.81.07 7-17.69-.87-.08-6.38 16.08-3.27-16.98-6.19 16.1-3.43-17-.87-.08 3.77 18.65zM27 293.8l7 2.2-7.15 22.91-7-2.18zm-2.4 21.37l5.4-17.41-.8-.25-5.43 17.41zM39.16 297.58l5 2.59 1.08 10.95 4.22-8.23 6 3.09-11 21.35-5.07-2.6-1.07-10.9-4.09 8.17-6-3.09zm-6.21 20.55l7.59-14.79L42.46 323l.75.39 8.33-16.23-.75-.38-7.59 14.79-1.92-19.67-.75-.39-8.33 16.24zM61 309.66l4.3 3.7-1.51 10.89 6-7 5.13 4.41-15.62 18.18-4.3-3.71 1.51-10.85-6 7-5.13-4.41zm-10.85 18.52L61 315.58l-2.73 19.57.64.55 11.89-13.83-.64-.55-10.84 12.6L62 314.35l-.64-.55-11.85 13.83zM78.83 326.18l7.77 10.08-5 3.84-3.56-4.62-2.04 1.63 3.5 4.54-4.73 3.65-3.5-4.54-2.27 1.69 3.7 4.79-5 3.84-7.91-10.26zm-10.27 21.25l.68-.53-4-5.13 6.28-4.77 3.76 4.87.68-.53-3.76-4.87 6.16-4.75 4 5.13.68-.53-4.47-5.79-14.48 11.11zM89.75 340.93l3.35 6.65a11.68 11.68 0 0 1 1.18 3.7 8.69 8.69 0 0 1-.23 3.54 8.22 8.22 0 0 1-1.71 3.18 10.33 10.33 0 0 1-3.26 2.45 9.08 9.08 0 0 1-2.94 1 9.8 9.8 0 0 1-2.32 0 7.41 7.41 0 0 1-2.07-.59L76.51 368l-3.64-7.23 4-5.63-5.43 2.73-3.1-6.16zM78.8 354a10.47 10.47 0 0 0 1.36 2l-3.76 5.33.45.9 3.94-5.61a5.74 5.74 0 0 0 6.89.81 6.53 6.53 0 0 0 2.23-1.74A5.75 5.75 0 0 0 91 353.5a6.51 6.51 0 0 0 .08-2.56 9.22 9.22 0 0 0-.9-2.7l-1.57-3.12-16.3 8.2.38.75 4.89-2.46zm-.42-2.76l9.87-5 1.19 2.37a6.84 6.84 0 0 1 .79 4.77 5.86 5.86 0 0 1-7.31 3.68 6.9 6.9 0 0 1-3.34-3.48zm3.93 1.17l.16.32A3.5 3.5 0 0 0 84 354.3a2.88 2.88 0 0 0 3.66-1.84 3.5 3.5 0 0 0-.39-2.14l-.16-.32zM101.16 368.19l1.67 7.13-23.37 5.47-1.67-7.13zM81.53 377l17.76-4.16-.19-.84-17.76 4.16zM87.23 380.94a9.84 9.84 0 0 0-.26 1.52 10.77 10.77 0 0 0-.15 1.49 12.92 12.92 0 0 0 0 1.67q.14 1.48 1.35 1.37a1.42 1.42 0 0 0 .91-.54 14.21 14.21 0 0 0 1-1.24q.53-.75 1.17-1.6a11.43 11.43 0 0 1 1.53-1.61 8.83 8.83 0 0 1 2-1.34 7.37 7.37 0 0 1 2.63-.7 7.58 7.58 0 0 1 3 .28 6 6 0 0 1 2.29 1.32 6.64 6.64 0 0 1 1.52 2.15 8.59 8.59 0 0 1 .7 2.75A13.45 13.45 0 0 1 105 388v1.4q0 .62-.09 1.41l-6.7.61v-.59-.59a6.17 6.17 0 0 0 0-.68c0-.13 0-.29-.06-.48a2.73 2.73 0 0 0-.14-.54 1.1 1.1 0 0 0-.29-.43.66.66 0 0 0-.52-.15 1.18 1.18 0 0 0-.68.5q-.39.48-.91 1.16t-1.2 1.51a10.37 10.37 0 0 1-3.68 2.81 8.07 8.07 0 0 1-2.68.69 9.46 9.46 0 0 1-3-.18 6.43 6.43 0 0 1-2.53-1.18 6.65 6.65 0 0 1-1.86-2.27 9.51 9.51 0 0 1-.91-3.46 19.13 19.13 0 0 1-.08-2.28q0-1.06.13-1.88a14.39 14.39 0 0 1 .27-1.75zM83.18 384c0 .31-.07.64-.09 1s0 .63 0 1a9.44 9.44 0 0 0 0 1 6.67 6.67 0 0 0 .39 1.74 4.24 4.24 0 0 0 .91 1.46 3.88 3.88 0 0 0 1.48 1 4.75 4.75 0 0 0 2.1.21 4.35 4.35 0 0 0 1.93-.65 9.14 9.14 0 0 0 1.68-1.36 21.66 21.66 0 0 0 1.51-1.7q.71-.9 1.45-1.69a9.76 9.76 0 0 1 1.5-1.34 3.3 3.3 0 0 1 1.62-.62 2.61 2.61 0 0 1 2.06.56 3.42 3.42 0 0 1 .92 2.32V388a3.68 3.68 0 0 0 0 .52l.93-.09a3.71 3.71 0 0 1 0-.49v-.5-.57a4.55 4.55 0 0 0-1.14-2.79 3.27 3.27 0 0 0-2.85-.88 4 4 0 0 0-1.84.64 9.5 9.5 0 0 0-1.61 1.35q-.78.8-1.49 1.7t-1.45 1.69a8.78 8.78 0 0 1-1.56 1.35 3.74 3.74 0 0 1-1.75.63 3.27 3.27 0 0 1-2.71-.81 4.32 4.32 0 0 1-1.16-2.8 10.35 10.35 0 0 1 0-2q0-.49.09-1z" fill="#f6911e"/><path fill="none" stroke="#fff" stroke-miterlimit="10" stroke-width="2" d="M-165.47 394.89h328.39"/><path fill="#f6911e" d="M565.57 39.33h25.54V364.9h-25.54z"/><path d="M586.32 116.42v5l-5.12 1.69 5.12 1.69v3.2l-5.12 1.69 5.12 1.69v5l-14.67-4.84v-3.65l4.44-1.47-4.44-1.47v-3.65zm-12.91 7l9.21 2.92-9.21 2.92v.55l11.15 3.67v-.59l-10.14-3.34 10.14-3.21-10.14-3.21 10.14-3.34v-.59l-11.15 3.67zM579 136.34a7.49 7.49 0 0 1 3 .6 7.69 7.69 0 0 1 4.1 4.1 7.7 7.7 0 0 1 0 6 7.69 7.69 0 0 1-4.1 4.1 7.69 7.69 0 0 1-6 0 7.69 7.69 0 0 1-4.1-4.1 7.7 7.7 0 0 1 0-6 7.69 7.69 0 0 1 4.1-4.1 7.49 7.49 0 0 1 3-.6zm0 2.07a5.47 5.47 0 0 0-2.19.44 5.67 5.67 0 0 0-3 3 5.66 5.66 0 0 0 0 4.38 5.67 5.67 0 0 0 3 3 5.66 5.66 0 0 0 4.38 0 5.67 5.67 0 0 0 3-3 5.66 5.66 0 0 0 0-4.37 5.67 5.67 0 0 0-3-3 5.47 5.47 0 0 0-2.19-.46zm-5.08 5.59a4.89 4.89 0 0 1 .4-2 5.15 5.15 0 0 1 2.69-2.69 5.1 5.1 0 0 1 3.94 0 5.15 5.15 0 0 1 2.69 2.69 5.09 5.09 0 0 1 0 3.94 5.15 5.15 0 0 1-2.69 2.69 5.1 5.1 0 0 1-3.94 0 5.15 5.15 0 0 1-2.69-2.69 4.89 4.89 0 0 1-.4-1.94zm5.08-3a3 3 0 0 0-1.2.24 3.09 3.09 0 0 0-1.64 1.64 3.09 3.09 0 0 0 0 2.4 3.09 3.09 0 0 0 1.64 1.64 3.09 3.09 0 0 0 2.4 0 3.09 3.09 0 0 0 1.64-1.64 3.09 3.09 0 0 0 0-2.4 3.08 3.08 0 0 0-1.64-1.64 3 3 0 0 0-1.2-.24zM586.32 152.94V158a8.72 8.72 0 0 1-.37 2.61 6 6 0 0 1-1.1 2.08 5 5 0 0 1-1.79 1.37 5.77 5.77 0 0 1-2.45.49 5 5 0 0 1-1.87-.31 5.76 5.76 0 0 1-1.28-.68 4.79 4.79 0 0 1-1-1l-4.84 2.75v-5.5l3.72-2.2h-3.72v-4.68zm-9.57 4.57a7.89 7.89 0 0 0 .18 1.67l-3.52 2.09v.68l3.69-2.2a4.13 4.13 0 0 0 1.29 1.89 3.47 3.47 0 0 0 2.25.7 3.65 3.65 0 0 0 1.69-.37 3.59 3.59 0 0 0 1.22-1 4.56 4.56 0 0 0 .75-1.53 6.89 6.89 0 0 0 .25-1.91v-2.37h-11.14v.57h3.34zm.53-1.8H584v1.8a5 5 0 0 1-.88 3.13 3 3 0 0 1-2.51 1.13 3 3 0 0 1-2.5-1.13 5 5 0 0 1-.87-3.13zm1.83 1.91v.24a2.57 2.57 0 0 0 .37 1.42 1.64 1.64 0 0 0 2.51 0 2.57 2.57 0 0 0 .37-1.42v-.24zM586.32 165.75v4.88H575.5v4h-3.85v-8.93zm-12.91 7.69h.53v-4.92h10.62V168h-11.15zM571.65 175.45h14.67v4.07a13.43 13.43 0 0 1-.46 3.68 7.36 7.36 0 0 1-1.39 2.73 6 6 0 0 1-2.3 1.69 9 9 0 0 1-6.36 0 6 6 0 0 1-2.3-1.69 7.51 7.51 0 0 1-1.4-2.73 13.12 13.12 0 0 1-.47-3.68zm1.76 2.2v1.87a7.07 7.07 0 0 0 1.46 4.85 6 6 0 0 0 8.24 0 7.11 7.11 0 0 0 1.45-4.85v-1.87zm.53.57H584v1.3a6.69 6.69 0 0 1-1.26 4.34 5.38 5.38 0 0 1-7.55 0 6.65 6.65 0 0 1-1.28-4.34zm1.89 1.91a3.78 3.78 0 0 0 .78 2.55 3 3 0 0 0 2.39.9 3 3 0 0 0 2.38-.9 3.82 3.82 0 0 0 .77-2.55zM579 193.48a7.91 7.91 0 0 1 3.18.62 7.41 7.41 0 0 1 2.43 1.67 7.29 7.29 0 0 1 1.55 2.46 8.31 8.31 0 0 1 .54 3 9.34 9.34 0 0 1-.24 2.23 10.65 10.65 0 0 1-.55 1.68 8 8 0 0 1-.77 1.41l-4.14-2.32a7.83 7.83 0 0 0 .51-.77 7.34 7.34 0 0 0 .34-.89 3.85 3.85 0 0 0 .17-1.18 3.18 3.18 0 0 0-.9-2.25 3 3 0 0 0-1-.67 3 3 0 0 0-1.2-.24 2.88 2.88 0 0 0-1.2.25 3.08 3.08 0 0 0-1 .69 3.26 3.26 0 0 0-.66 1 3.4 3.4 0 0 0-.24 1.3 4.08 4.08 0 0 0 .18 1.25 4.61 4.61 0 0 0 .4.92 3.39 3.39 0 0 0 .57.77l-3.97 2.35a6.55 6.55 0 0 1-.86-1.41 12.08 12.08 0 0 1-.57-1.69 8.82 8.82 0 0 1-.26-2.26 8.73 8.73 0 0 1 .56-3.17 7.46 7.46 0 0 1 1.57-2.51 7.14 7.14 0 0 1 2.43-1.65 8 8 0 0 1 3.13-.59zm0 2.77a5.37 5.37 0 0 1 2 .36 4.69 4.69 0 0 1 2.68 2.63 5.42 5.42 0 0 1 .4 2.11 6.07 6.07 0 0 1-.08 1 4.64 4.64 0 0 1-.19.76 2.92 2.92 0 0 1-.26.64l.53.31q.15-.35.29-.75a8.41 8.41 0 0 0 .2-.86 6.34 6.34 0 0 0 .09-1.12 5.89 5.89 0 0 0-.4-2.14 5.47 5.47 0 0 0-1.13-1.8 5.55 5.55 0 0 0-4.1-1.73 5.78 5.78 0 0 0-2.33.45 5.26 5.26 0 0 0-1.77 1.24 5.54 5.54 0 0 0-1.13 1.85 6.34 6.34 0 0 0-.4 2.24 5.78 5.78 0 0 0 .11 1.19 7.13 7.13 0 0 0 .24.9 4.43 4.43 0 0 0 .35.75l.53-.31a2.79 2.79 0 0 1-.33-.66 5 5 0 0 1-.23-.79 5.17 5.17 0 0 1-.1-1.08 5.7 5.7 0 0 1 .4-2.18 4.83 4.83 0 0 1 1.08-1.64 4.73 4.73 0 0 1 1.61-1 5.37 5.37 0 0 1 1.94-.37zM571.28 213.31a8.36 8.36 0 0 1 .35-2.51 5.16 5.16 0 0 1 1.06-1.91 4.63 4.63 0 0 1 1.78-1.22 6.82 6.82 0 0 1 2.53-.43h9.33v4.68h-9.13a1.87 1.87 0 0 0-1.18.32 1.6 1.6 0 0 0 0 2.13 1.88 1.88 0 0 0 1.18.32h9.13v4.71H577a6.82 6.82 0 0 1-2.53-.43 4.57 4.57 0 0 1-1.78-1.23 5.27 5.27 0 0 1-1.06-1.92 8.35 8.35 0 0 1-.35-2.51zm2.64 0q0-3.3 3.23-3.3h7.41v-.57h-7.41a3.78 3.78 0 0 0-2.83 1 3.94 3.94 0 0 0-1 2.87 4 4 0 0 0 1 2.88 3.75 3.75 0 0 0 2.83 1h7.41v-.59h-7.41q-3.24.01-3.23-3.29zM586.32 220.87v5h-14.67v-5zm-12.91 2.77h11.15v-.57h-11.15zM576.2 227a7.27 7.27 0 0 0-.24 1 8 8 0 0 0-.18 1 9.69 9.69 0 0 0-.07 1.13q0 1 .75 1a.84.84 0 0 0 .58-.31 9.26 9.26 0 0 0 .66-.78q.36-.47.8-1a7.36 7.36 0 0 1 1-1 5.29 5.29 0 0 1 1.29-.78 4.1 4.1 0 0 1 1.64-.31 4.23 4.23 0 0 1 1.83.37 3.67 3.67 0 0 1 1.32 1 4.66 4.66 0 0 1 .8 1.55 6.43 6.43 0 0 1 .27 1.9 10.33 10.33 0 0 1-.05 1.06l-.1.95-.13.95h-4.11v-.4-.4-.46-.33a2 2 0 0 0-.06-.37.76.76 0 0 0-.15-.31.38.38 0 0 0-.31-.13q-.18 0-.44.3l-.62.73q-.35.43-.81.95a6.52 6.52 0 0 1-1.06.95 6.13 6.13 0 0 1-1.34.73 4.49 4.49 0 0 1-1.67.3 5.27 5.27 0 0 1-1.81-.31 3.86 3.86 0 0 1-1.47-1 4.56 4.56 0 0 1-1-1.66 7.1 7.1 0 0 1-.36-2.4 14.65 14.65 0 0 1 .08-1.55q.08-.71.19-1.26a10.62 10.62 0 0 1 .26-1.17zm-2.64 1.85q-.07.31-.11.66t-.08.65v.69a5 5 0 0 0 .14 1.2 3 3 0 0 0 .47 1 2.42 2.42 0 0 0 .85.74 2.66 2.66 0 0 0 1.26.27 2.45 2.45 0 0 0 1.21-.32 5.58 5.58 0 0 0 1.1-.81 13.55 13.55 0 0 0 1-1.06q.48-.56 1-1.06a6 6 0 0 1 1-.81 1.86 1.86 0 0 1 1-.32 1.51 1.51 0 0 1 1.22.51 2.5 2.5 0 0 1 .43 1.63v.72a2.83 2.83 0 0 0 0 .35h.57a2.66 2.66 0 0 1 0-.33v-.34-.38a3.34 3.34 0 0 0-.54-2 1.91 1.91 0 0 0-1.68-.77 2.23 2.23 0 0 0-1.15.32 5.8 5.8 0 0 0-1.06.81q-.52.49-1 1.06t-1 1.06a5.45 5.45 0 0 1-1 .81 2.11 2.11 0 0 1-1.1.32 1.9 1.9 0 0 1-1.61-.71 3.15 3.15 0 0 1-.55-2 7.78 7.78 0 0 1 .11-1.36q0-.33.11-.64zM586.32 237.27v5h-14.67v-5zM573.41 240h11.15v-.57h-11.15zM586.32 243.78v3.85l-5.65 4h5.65v4.59h-14.67v-3.82l5.63-4h-5.63v-4.6zm-12.91 2.62h10.16l-10.16 7.26v.57h11.15v-.57H574.4l10.16-7.26v-.57h-11.15zM586.32 257.81v8.64h-3.85v-4h-1.63v3.89h-3.65v-3.89h-1.69v4.11h-3.85v-8.79zM573.41 265h.53v-4.4h4.82v4.18h.53v-4.18H584v4.4h.53v-5h-11.12z" fill="#fff"/><g opacity=".32" style="mix-blend-mode:multiply" fill="#737477" stroke="#737477" stroke-miterlimit="10" stroke-width="10"><path d="M-20.57 60.19h17.09l18 27.88V60.19h20.39v72.37H17.72L-.16 104.78v27.78h-20.41zM-9 123.88V73.75l32.24 50.13h2.54v-55h-2.5V119L-9 68.87h-2.54v55zM40.28 96.43A42.74 42.74 0 0 1 43 80.75a36.88 36.88 0 0 1 7.42-12 32.12 32.12 0 0 1 10.94-7.65 33.6 33.6 0 0 1 13.28-2.66 37.53 37.53 0 0 1 9.91 1.19 43.82 43.82 0 0 1 7.47 2.71 34.23 34.23 0 0 1 6.25 3.8L88 86.23a34.54 34.54 0 0 0-3.42-2.5 31 31 0 0 0-4-1.68 15.59 15.59 0 0 0-5.23-.81 12.93 12.93 0 0 0-5.57 1.19 14.27 14.27 0 0 0-4.44 3.26 15.07 15.07 0 0 0-3 4.83 16.17 16.17 0 0 0-1.07 5.91 15.57 15.57 0 0 0 1.12 5.91 15.29 15.29 0 0 0 3.08 4.83 14.46 14.46 0 0 0 4.59 3.26 13.79 13.79 0 0 0 5.76 1.19 16.55 16.55 0 0 0 5.57-.87 19.4 19.4 0 0 0 4.1-2A15.32 15.32 0 0 0 89 106l10.28 20a28.7 28.7 0 0 1-6.28 4.28 49.51 49.51 0 0 1-7.52 2.82 35.46 35.46 0 0 1-10.06 1.3 35.29 35.29 0 0 1-14.07-2.77 32.89 32.89 0 0 1-11.13-7.76 35.6 35.6 0 0 1-7.33-12 43.51 43.51 0 0 1-2.61-15.44zm12.31 0a29.09 29.09 0 0 1 1.61-9.77 24.21 24.21 0 0 1 4.54-7.92 21.16 21.16 0 0 1 7.13-5.32 22 22 0 0 1 9.38-2 24.56 24.56 0 0 1 4.54.38 18.92 18.92 0 0 1 3.37.92A12.23 12.23 0 0 1 86 74.08l1.37-2.6q-1.57-.77-3.37-1.42a34.4 34.4 0 0 0-3.81-1 25.46 25.46 0 0 0-5-.43 23.86 23.86 0 0 0-9.52 2 24.18 24.18 0 0 0-8 5.59A27.73 27.73 0 0 0 52.15 85 30.06 30.06 0 0 0 50 96.43a31.24 31.24 0 0 0 2 11.5 26.11 26.11 0 0 0 5.52 8.73 24.29 24.29 0 0 0 8.21 5.59 25.65 25.65 0 0 0 10 2 23.4 23.4 0 0 0 5.27-.54 29 29 0 0 0 4-1.19 18.75 18.75 0 0 0 3.32-1.74L87 118.13a11.91 11.91 0 0 1-3 1.63 20.27 20.27 0 0 1-3.52 1.14 20.83 20.83 0 0 1-4.79.49 23.12 23.12 0 0 1-9.67-2 21.4 21.4 0 0 1-7.28-5.32 23.72 23.72 0 0 1-4.59-7.92 29.09 29.09 0 0 1-1.56-9.72zM101.72 60.19h20.81v24.63h11.62V60.19h20.9v72.37h-20.9v-26.8h-11.62v26.8h-20.81zM114 123.88V96.43h28.72v27.45h2.54v-55h-2.54v25H114v-25h-2.54v55zM-53.5 209.08v-72.37h18.07A54.05 54.05 0 0 1-19.07 139 31.69 31.69 0 0 1-7 145.82a29.5 29.5 0 0 1 7.57 11.34 43.84 43.84 0 0 1 2.59 15.68 43.82 43.82 0 0 1-2.59 15.68A29.48 29.48 0 0 1-7 199.86a32.24 32.24 0 0 1-12.11 6.89 52.84 52.84 0 0 1-16.36 2.33zm9.77-8.68h8.3q14.26 0 21.54-7.22t7.28-20.34q0-13.13-7.28-20.29t-21.54-7.16h-8.3zm2.54-2.6V148h5.76q12.4 0 19.29 6.24t6.89 18.61q0 12.37-6.89 18.66t-19.29 6.29zm8.5-9.33q7.33 0 11.33-3.85t4-11.77q0-7.92-4-11.72t-11.33-3.8zM8.53 136.71h17.09l18 27.88v-27.88H64v72.37H46.82L28.94 181.3v27.78H8.53zm11.62 63.69v-50.13l32.24 50.13h2.54v-55h-2.54v50.13l-32.24-50.14h-2.54v55zM70.85 136.71h38.39v19H91.65v8h17.29v18H91.65v8.35h18.27v19H70.85zm31.84 63.69v-2.6H83.16V174h18.56v-2.6H83.16V148h19.54v-2.6H80.62v55zM114 186.62a29.52 29.52 0 0 0 4.49 1.19 32.22 32.22 0 0 0 4.44.87 38.73 38.73 0 0 0 5 .33q4.49 0 4.49-3.69a4.3 4.3 0 0 0-1.37-2.88 42.81 42.81 0 0 0-3.47-3.26q-2.1-1.79-4.49-4a34.42 34.42 0 0 1-4.49-5 26.73 26.73 0 0 1-3.47-6.35 22.24 22.24 0 0 1-1.37-8.08 22.85 22.85 0 0 1 1.66-9 18 18 0 0 1 4.59-6.51 20 20 0 0 1 6.89-4 25.9 25.9 0 0 1 8.45-1.36 41.06 41.06 0 0 1 4.69.27l4.2.49 4.2.65v20.29l-1.76-.22-1.76-.22a19 19 0 0 0-2.05-.11q-.59 0-1.47.05a8.18 8.18 0 0 0-1.66.27 3.28 3.28 0 0 0-1.37.76 2 2 0 0 0-.59 1.52 3.54 3.54 0 0 0 1.32 2.17q1.32 1.3 3.22 3t4.2 4a31.24 31.24 0 0 1 7.48 11.98 24.39 24.39 0 0 1 1.32 8.25 28.58 28.58 0 0 1-1.37 9 19.38 19.38 0 0 1-4.25 7.27 20 20 0 0 1-7.38 4.88 28.7 28.7 0 0 1-10.65 1.79 58.31 58.31 0 0 1-6.89-.38q-3.17-.38-5.62-.92a43.34 43.34 0 0 1-5.18-1.3zm8.2 13q1.37.33 2.93.54 1.37.22 2.88.38a28.68 28.68 0 0 0 3.08.16 20.12 20.12 0 0 0 5.32-.71 12.79 12.79 0 0 0 4.64-2.33 11.67 11.67 0 0 0 3.27-4.18 14.36 14.36 0 0 0 1.22-6.24 13.14 13.14 0 0 0-1.42-6 27.73 27.73 0 0 0-3.61-5.42 65 65 0 0 0-4.69-5q-2.49-2.39-4.69-4.83a29.35 29.35 0 0 1-3.61-4.88 9.92 9.92 0 0 1-1.42-5 7.87 7.87 0 0 1 2.25-6q2.25-2.12 7.23-2.12.78 0 1.61.05t1.61.16a11.23 11.23 0 0 0 1.56.11v-2.81a10.63 10.63 0 0 1-1.47-.11q-.68-.11-1.51-.16c-.55 0-1.12-.05-1.71-.05a13.74 13.74 0 0 0-8.69 2.66q-3.42 2.66-3.42 8.3a11.92 11.92 0 0 0 1.42 5.7 28.53 28.53 0 0 0 3.61 5.21q2.2 2.55 4.69 4.94t4.72 4.81a26.47 26.47 0 0 1 3.61 5 11.22 11.22 0 0 1 1.42 5.43q0 5.21-3.17 7.92t-8.74 2.71a31.13 31.13 0 0 1-6.06-.54q-1.46-.22-2.83-.54zM158 186.62a29.53 29.53 0 0 0 4.49 1.19 32.18 32.18 0 0 0 4.44.87 38.75 38.75 0 0 0 5 .33q4.49 0 4.49-3.69a4.3 4.3 0 0 0-1.37-2.88 42.81 42.81 0 0 0-3.47-3.26q-2.1-1.79-4.49-4a34.3 34.3 0 0 1-4.49-5 26.69 26.69 0 0 1-3.47-6.35 22.22 22.22 0 0 1-1.37-8.08 22.83 22.83 0 0 1 1.66-9 18 18 0 0 1 4.59-6.51 20 20 0 0 1 6.89-4 25.9 25.9 0 0 1 8.45-1.36 41 41 0 0 1 4.69.27l4.2.49 4.2.65v20.29l-1.76-.22-1.76-.22a19 19 0 0 0-2.05-.11q-.59 0-1.47.05a8.17 8.17 0 0 0-1.66.27 3.28 3.28 0 0 0-1.37.76 2 2 0 0 0-.59 1.52 3.54 3.54 0 0 0 1.32 2.17q1.32 1.3 3.22 3t4.2 4a31.24 31.24 0 0 1 7.48 11.98 24.37 24.37 0 0 1 1.3 8.22 28.58 28.58 0 0 1-1.37 9 19.36 19.36 0 0 1-4.25 7.27 20 20 0 0 1-7.38 4.88 28.71 28.71 0 0 1-10.65 1.79 58.29 58.29 0 0 1-6.89-.38q-3.18-.38-5.62-.92a43.41 43.41 0 0 1-5.18-1.3zm8.21 13q1.37.33 2.93.54 1.37.22 2.88.38a28.66 28.66 0 0 0 3.08.16 20.13 20.13 0 0 0 5.32-.71 12.79 12.79 0 0 0 4.64-2.33 11.66 11.66 0 0 0 3.27-4.18 14.36 14.36 0 0 0 1.22-6.24 13.13 13.13 0 0 0-1.42-6 27.64 27.64 0 0 0-3.61-5.42 65 65 0 0 0-4.69-5q-2.49-2.39-4.69-4.83a29.42 29.42 0 0 1-3.61-4.88 9.92 9.92 0 0 1-1.42-5 7.87 7.87 0 0 1 2.25-6q2.24-2.12 7.23-2.12.78 0 1.61.05t1.61.16a11.2 11.2 0 0 0 1.56.11v-2.81a10.61 10.61 0 0 1-1.47-.11q-.68-.11-1.51-.16t-1.71-.05a13.74 13.74 0 0 0-8.69 2.66q-3.42 2.66-3.42 8.3a11.92 11.92 0 0 0 1.42 5.7 28.48 28.48 0 0 0 3.61 5.21q2.2 2.55 4.69 4.94t4.71 4.81a26.51 26.51 0 0 1 3.61 5 11.22 11.22 0 0 1 1.42 5.43q0 5.21-3.17 7.92t-8.74 2.71a31.12 31.12 0 0 1-6.06-.54q-1.47-.22-2.83-.54z"/></g><path d="M-20.57 55.19h17.09l18 27.88V55.19h20.39v72.37H17.72L-.16 99.79v27.78h-20.41zM-9 118.88V68.75l32.24 50.13h2.54v-55h-2.5V114L-9 63.87h-2.54v55zM40.28 91.43A42.74 42.74 0 0 1 43 75.75a36.88 36.88 0 0 1 7.42-12 32.12 32.12 0 0 1 10.94-7.65 33.6 33.6 0 0 1 13.28-2.66 37.53 37.53 0 0 1 9.91 1.19 43.82 43.82 0 0 1 7.47 2.71 34.23 34.23 0 0 1 6.25 3.8L88 81.23a34.54 34.54 0 0 0-3.42-2.5 31 31 0 0 0-4-1.68 15.59 15.59 0 0 0-5.23-.81 12.93 12.93 0 0 0-5.57 1.19 14.27 14.27 0 0 0-4.44 3.26 15.07 15.07 0 0 0-3 4.83 16.17 16.17 0 0 0-1.07 5.91 15.57 15.57 0 0 0 1.12 5.91 15.29 15.29 0 0 0 3.08 4.83 14.46 14.46 0 0 0 4.59 3.26 13.79 13.79 0 0 0 5.76 1.19 16.55 16.55 0 0 0 5.57-.87 19.4 19.4 0 0 0 4.1-2A15.32 15.32 0 0 0 89 101l10.26 20.07a28.7 28.7 0 0 1-6.26 4.21 49.51 49.51 0 0 1-7.52 2.82 35.46 35.46 0 0 1-10.06 1.3 35.29 35.29 0 0 1-14.07-2.77 32.89 32.89 0 0 1-11.13-7.76 35.6 35.6 0 0 1-7.33-12 43.51 43.51 0 0 1-2.61-15.44zm12.31 0a29.09 29.09 0 0 1 1.61-9.77 24.21 24.21 0 0 1 4.54-7.92 21.16 21.16 0 0 1 7.13-5.32 22 22 0 0 1 9.38-2 24.56 24.56 0 0 1 4.54.38 18.92 18.92 0 0 1 3.37.92A12.23 12.23 0 0 1 86 69.08l1.37-2.6q-1.57-.76-3.37-1.41a34.4 34.4 0 0 0-3.81-1 25.46 25.46 0 0 0-5-.43 23.86 23.86 0 0 0-9.52 2 24.18 24.18 0 0 0-8 5.59A27.73 27.73 0 0 0 52.15 80 30.06 30.06 0 0 0 50 91.43a31.24 31.24 0 0 0 2 11.5 26.11 26.11 0 0 0 5.52 8.73 24.29 24.29 0 0 0 8.21 5.59 25.65 25.65 0 0 0 10 2 23.4 23.4 0 0 0 5.27-.54 29 29 0 0 0 4-1.19 18.75 18.75 0 0 0 3.32-1.74L87 113.13a11.91 11.91 0 0 1-3 1.63 20.27 20.27 0 0 1-3.52 1.14 20.83 20.83 0 0 1-4.79.49 23.12 23.12 0 0 1-9.67-2 21.4 21.4 0 0 1-7.28-5.32 23.72 23.72 0 0 1-4.59-7.92 29.09 29.09 0 0 1-1.56-9.72zM101.72 55.19h20.81v24.63h11.62V55.19h20.9v72.37h-20.9v-26.8h-11.62v26.8h-20.81zM114 118.88V91.43h28.72v27.45h2.54v-55h-2.54v25H114v-25h-2.54v55zM-53.5 204.08v-72.37h18.07A54.05 54.05 0 0 1-19.07 134 31.69 31.69 0 0 1-7 140.83a29.5 29.5 0 0 1 7.57 11.34 43.84 43.84 0 0 1 2.59 15.68 43.82 43.82 0 0 1-2.59 15.67A29.48 29.48 0 0 1-7 194.86a32.24 32.24 0 0 1-12.11 6.89 52.84 52.84 0 0 1-16.36 2.33zm9.77-8.68h8.3q14.26 0 21.54-7.22t7.28-20.34q0-13.13-7.28-20.29t-21.54-7.16h-8.3zm2.54-2.6V143h5.76q12.4 0 19.29 6.24t6.89 18.61q0 12.37-6.89 18.66t-19.29 6.29zm8.5-9.33q7.33 0 11.33-3.85t4-11.77q0-7.92-4-11.72t-11.33-3.8zM8.53 131.71h17.09l18 27.88v-27.88H64v72.37H46.82l-17.88-27.77v27.78H8.53zm11.62 63.69v-50.12l32.24 50.12h2.54v-55h-2.54v50.13l-32.24-50.14h-2.54v55zM70.85 131.71h38.39v19H91.65v8h17.29v18H91.65v8.35h18.27v19H70.85zm31.84 63.69v-2.6H83.16V169h18.56v-2.6H83.16V143h19.54v-2.6H80.62v55zM114 181.62a29.52 29.52 0 0 0 4.49 1.19 32.22 32.22 0 0 0 4.44.87 38.73 38.73 0 0 0 5 .33q4.49 0 4.49-3.69a4.3 4.3 0 0 0-1.37-2.88 42.81 42.81 0 0 0-3.47-3.26q-2.1-1.79-4.49-4a34.42 34.42 0 0 1-4.49-5 26.73 26.73 0 0 1-3.47-6.35 22.24 22.24 0 0 1-1.37-8.08 22.85 22.85 0 0 1 1.66-9 18 18 0 0 1 4.59-6.51 20 20 0 0 1 6.89-4 25.9 25.9 0 0 1 8.45-1.36 41.06 41.06 0 0 1 4.69.27l4.2.49 4.2.65v20.29l-1.76-.22-1.76-.22a19 19 0 0 0-2.05-.11q-.59 0-1.47.05a8.18 8.18 0 0 0-1.66.27 3.28 3.28 0 0 0-1.37.76 2 2 0 0 0-.59 1.52 3.54 3.54 0 0 0 1.32 2.17q1.32 1.3 3.22 3t4.2 4a31.24 31.24 0 0 1 7.48 11.99 24.39 24.39 0 0 1 1.32 8.25 28.58 28.58 0 0 1-1.37 9 19.38 19.38 0 0 1-4.25 7.27 20 20 0 0 1-7.38 4.88 28.7 28.7 0 0 1-10.65 1.79 58.31 58.31 0 0 1-6.89-.38q-3.17-.38-5.62-.92a43.34 43.34 0 0 1-5.18-1.3zm8.2 13q1.37.33 2.93.54 1.37.22 2.88.38a28.68 28.68 0 0 0 3.08.16 20.12 20.12 0 0 0 5.32-.71 12.79 12.79 0 0 0 4.64-2.33 11.67 11.67 0 0 0 3.27-4.18 14.36 14.36 0 0 0 1.22-6.24 13.14 13.14 0 0 0-1.42-6 27.73 27.73 0 0 0-3.61-5.42 65 65 0 0 0-4.69-5q-2.49-2.39-4.69-4.83a29.35 29.35 0 0 1-3.61-4.88 9.92 9.92 0 0 1-1.42-5 7.87 7.87 0 0 1 2.25-6q2.25-2.12 7.23-2.12.78 0 1.61.05t1.61.16a11.23 11.23 0 0 0 1.56.11v-2.81a10.63 10.63 0 0 1-1.47-.11q-.68-.11-1.51-.16c-.55 0-1.12-.05-1.71-.05a13.74 13.74 0 0 0-8.69 2.66q-3.42 2.66-3.42 8.3a11.92 11.92 0 0 0 1.42 5.7 28.53 28.53 0 0 0 3.61 5.21q2.2 2.55 4.69 4.94t4.72 4.81a26.47 26.47 0 0 1 3.61 5 11.22 11.22 0 0 1 1.42 5.43q0 5.21-3.17 7.92t-8.74 2.71a31.13 31.13 0 0 1-6.06-.54q-1.46-.22-2.83-.54zM158 181.62a29.53 29.53 0 0 0 4.49 1.19 32.18 32.18 0 0 0 4.44.87 38.75 38.75 0 0 0 5 .33q4.49 0 4.49-3.69a4.3 4.3 0 0 0-1.37-2.88 42.81 42.81 0 0 0-3.47-3.26q-2.1-1.79-4.49-4a34.3 34.3 0 0 1-4.49-5 26.69 26.69 0 0 1-3.47-6.35 22.22 22.22 0 0 1-1.37-8.08 22.83 22.83 0 0 1 1.66-9 18 18 0 0 1 4.59-6.51 20 20 0 0 1 6.89-4 25.9 25.9 0 0 1 8.45-1.36 41 41 0 0 1 4.69.27l4.2.49 4.2.65v20.29l-1.76-.22-1.76-.22a19 19 0 0 0-2.05-.11q-.59 0-1.47.05a8.17 8.17 0 0 0-1.66.27 3.28 3.28 0 0 0-1.37.76 2 2 0 0 0-.59 1.52 3.54 3.54 0 0 0 1.32 2.17q1.32 1.3 3.22 3t4.2 4a31.24 31.24 0 0 1 7.48 11.99 24.37 24.37 0 0 1 1.3 8.21 28.58 28.58 0 0 1-1.37 9 19.36 19.36 0 0 1-4.25 7.27 20 20 0 0 1-7.38 4.88 28.71 28.71 0 0 1-10.65 1.79 58.29 58.29 0 0 1-6.89-.38q-3.18-.38-5.62-.92a43.41 43.41 0 0 1-5.18-1.3zm8.21 13q1.37.33 2.93.54 1.37.22 2.88.38a28.66 28.66 0 0 0 3.08.16 20.13 20.13 0 0 0 5.32-.71 12.79 12.79 0 0 0 4.64-2.33 11.66 11.66 0 0 0 3.27-4.18 14.36 14.36 0 0 0 1.22-6.24 13.13 13.13 0 0 0-1.42-6 27.64 27.64 0 0 0-3.61-5.42 65 65 0 0 0-4.69-5q-2.49-2.39-4.69-4.83a29.42 29.42 0 0 1-3.61-4.88 9.92 9.92 0 0 1-1.42-5 7.87 7.87 0 0 1 2.25-6q2.24-2.12 7.23-2.12.78 0 1.61.05t1.61.16a11.2 11.2 0 0 0 1.56.11v-2.81a10.61 10.61 0 0 1-1.47-.11q-.68-.11-1.51-.16t-1.71-.05a13.74 13.74 0 0 0-8.69 2.66q-3.42 2.66-3.42 8.3a11.92 11.92 0 0 0 1.42 5.7 28.48 28.48 0 0 0 3.61 5.21q2.2 2.55 4.69 4.94t4.71 4.81a26.51 26.51 0 0 1 3.61 5 11.22 11.22 0 0 1 1.42 5.43q0 5.21-3.17 7.92t-8.74 2.71a31.12 31.12 0 0 1-6.06-.54q-1.47-.22-2.83-.54z" fill="none" stroke="#f6911e" stroke-miterlimit="10" stroke-width="9"/><path d="M-20.57 55.19h17.09l18 27.88V55.19h20.39v72.37H17.72L-.16 99.79v27.78h-20.41zM-9 118.88V68.75l32.24 50.13h2.54v-55h-2.5V114L-9 63.87h-2.54v55zM40.28 91.43A42.74 42.74 0 0 1 43 75.75a36.88 36.88 0 0 1 7.42-12 32.12 32.12 0 0 1 10.94-7.65 33.6 33.6 0 0 1 13.28-2.66 37.53 37.53 0 0 1 9.91 1.19 43.82 43.82 0 0 1 7.47 2.71 34.23 34.23 0 0 1 6.25 3.8L88 81.23a34.54 34.54 0 0 0-3.42-2.5 31 31 0 0 0-4-1.68 15.59 15.59 0 0 0-5.23-.81 12.93 12.93 0 0 0-5.57 1.19 14.27 14.27 0 0 0-4.44 3.26 15.07 15.07 0 0 0-3 4.83 16.17 16.17 0 0 0-1.07 5.91 15.57 15.57 0 0 0 1.12 5.91 15.29 15.29 0 0 0 3.08 4.83 14.46 14.46 0 0 0 4.59 3.26 13.79 13.79 0 0 0 5.76 1.19 16.55 16.55 0 0 0 5.57-.87 19.4 19.4 0 0 0 4.1-2A15.32 15.32 0 0 0 89 101l10.26 20.07a28.7 28.7 0 0 1-6.26 4.21 49.51 49.51 0 0 1-7.52 2.82 35.46 35.46 0 0 1-10.06 1.3 35.29 35.29 0 0 1-14.07-2.77 32.89 32.89 0 0 1-11.13-7.76 35.6 35.6 0 0 1-7.33-12 43.51 43.51 0 0 1-2.61-15.44zm12.31 0a29.09 29.09 0 0 1 1.61-9.77 24.21 24.21 0 0 1 4.54-7.92 21.16 21.16 0 0 1 7.13-5.32 22 22 0 0 1 9.38-2 24.56 24.56 0 0 1 4.54.38 18.92 18.92 0 0 1 3.37.92A12.23 12.23 0 0 1 86 69.08l1.37-2.6q-1.57-.76-3.37-1.41a34.4 34.4 0 0 0-3.81-1 25.46 25.46 0 0 0-5-.43 23.86 23.86 0 0 0-9.52 2 24.18 24.18 0 0 0-8 5.59A27.73 27.73 0 0 0 52.15 80 30.06 30.06 0 0 0 50 91.43a31.24 31.24 0 0 0 2 11.5 26.11 26.11 0 0 0 5.52 8.73 24.29 24.29 0 0 0 8.21 5.59 25.65 25.65 0 0 0 10 2 23.4 23.4 0 0 0 5.27-.54 29 29 0 0 0 4-1.19 18.75 18.75 0 0 0 3.32-1.74L87 113.13a11.91 11.91 0 0 1-3 1.63 20.27 20.27 0 0 1-3.52 1.14 20.83 20.83 0 0 1-4.79.49 23.12 23.12 0 0 1-9.67-2 21.4 21.4 0 0 1-7.28-5.32 23.72 23.72 0 0 1-4.59-7.92 29.09 29.09 0 0 1-1.56-9.72zM101.72 55.19h20.81v24.63h11.62V55.19h20.9v72.37h-20.9v-26.8h-11.62v26.8h-20.81zM114 118.88V91.43h28.72v27.45h2.54v-55h-2.54v25H114v-25h-2.54v55zM-53.5 204.08v-72.37h18.07A54.05 54.05 0 0 1-19.07 134 31.69 31.69 0 0 1-7 140.83a29.5 29.5 0 0 1 7.57 11.34 43.84 43.84 0 0 1 2.59 15.68 43.82 43.82 0 0 1-2.59 15.67A29.48 29.48 0 0 1-7 194.86a32.24 32.24 0 0 1-12.11 6.89 52.84 52.84 0 0 1-16.36 2.33zm9.77-8.68h8.3q14.26 0 21.54-7.22t7.28-20.34q0-13.13-7.28-20.29t-21.54-7.16h-8.3zm2.54-2.6V143h5.76q12.4 0 19.29 6.24t6.89 18.61q0 12.37-6.89 18.66t-19.29 6.29zm8.5-9.33q7.33 0 11.33-3.85t4-11.77q0-7.92-4-11.72t-11.33-3.8zM8.53 131.71h17.09l18 27.88v-27.88H64v72.37H46.82l-17.88-27.77v27.78H8.53zm11.62 63.69v-50.12l32.24 50.12h2.54v-55h-2.54v50.13l-32.24-50.14h-2.54v55zM70.85 131.71h38.39v19H91.65v8h17.29v18H91.65v8.35h18.27v19H70.85zm31.84 63.69v-2.6H83.16V169h18.56v-2.6H83.16V143h19.54v-2.6H80.62v55zM114 181.62a29.52 29.52 0 0 0 4.49 1.19 32.22 32.22 0 0 0 4.44.87 38.73 38.73 0 0 0 5 .33q4.49 0 4.49-3.69a4.3 4.3 0 0 0-1.37-2.88 42.81 42.81 0 0 0-3.47-3.26q-2.1-1.79-4.49-4a34.42 34.42 0 0 1-4.49-5 26.73 26.73 0 0 1-3.47-6.35 22.24 22.24 0 0 1-1.37-8.08 22.85 22.85 0 0 1 1.66-9 18 18 0 0 1 4.59-6.51 20 20 0 0 1 6.89-4 25.9 25.9 0 0 1 8.45-1.36 41.06 41.06 0 0 1 4.69.27l4.2.49 4.2.65v20.29l-1.76-.22-1.76-.22a19 19 0 0 0-2.05-.11q-.59 0-1.47.05a8.18 8.18 0 0 0-1.66.27 3.28 3.28 0 0 0-1.37.76 2 2 0 0 0-.59 1.52 3.54 3.54 0 0 0 1.32 2.17q1.32 1.3 3.22 3t4.2 4a31.24 31.24 0 0 1 7.48 11.99 24.39 24.39 0 0 1 1.32 8.25 28.58 28.58 0 0 1-1.37 9 19.38 19.38 0 0 1-4.25 7.27 20 20 0 0 1-7.38 4.88 28.7 28.7 0 0 1-10.65 1.79 58.31 58.31 0 0 1-6.89-.38q-3.17-.38-5.62-.92a43.34 43.34 0 0 1-5.18-1.3zm8.2 13q1.37.33 2.93.54 1.37.22 2.88.38a28.68 28.68 0 0 0 3.08.16 20.12 20.12 0 0 0 5.32-.71 12.79 12.79 0 0 0 4.64-2.33 11.67 11.67 0 0 0 3.27-4.18 14.36 14.36 0 0 0 1.22-6.24 13.14 13.14 0 0 0-1.42-6 27.73 27.73 0 0 0-3.61-5.42 65 65 0 0 0-4.69-5q-2.49-2.39-4.69-4.83a29.35 29.35 0 0 1-3.61-4.88 9.92 9.92 0 0 1-1.42-5 7.87 7.87 0 0 1 2.25-6q2.25-2.12 7.23-2.12.78 0 1.61.05t1.61.16a11.23 11.23 0 0 0 1.56.11v-2.81a10.63 10.63 0 0 1-1.47-.11q-.68-.11-1.51-.16c-.55 0-1.12-.05-1.71-.05a13.74 13.74 0 0 0-8.69 2.66q-3.42 2.66-3.42 8.3a11.92 11.92 0 0 0 1.42 5.7 28.53 28.53 0 0 0 3.61 5.21q2.2 2.55 4.69 4.94t4.72 4.81a26.47 26.47 0 0 1 3.61 5 11.22 11.22 0 0 1 1.42 5.43q0 5.21-3.17 7.92t-8.74 2.71a31.13 31.13 0 0 1-6.06-.54q-1.46-.22-2.83-.54zM158 181.62a29.53 29.53 0 0 0 4.49 1.19 32.18 32.18 0 0 0 4.44.87 38.75 38.75 0 0 0 5 .33q4.49 0 4.49-3.69a4.3 4.3 0 0 0-1.37-2.88 42.81 42.81 0 0 0-3.47-3.26q-2.1-1.79-4.49-4a34.3 34.3 0 0 1-4.49-5 26.69 26.69 0 0 1-3.47-6.35 22.22 22.22 0 0 1-1.37-8.08 22.83 22.83 0 0 1 1.66-9 18 18 0 0 1 4.59-6.51 20 20 0 0 1 6.89-4 25.9 25.9 0 0 1 8.45-1.36 41 41 0 0 1 4.69.27l4.2.49 4.2.65v20.29l-1.76-.22-1.76-.22a19 19 0 0 0-2.05-.11q-.59 0-1.47.05a8.17 8.17 0 0 0-1.66.27 3.28 3.28 0 0 0-1.37.76 2 2 0 0 0-.59 1.52 3.54 3.54 0 0 0 1.32 2.17q1.32 1.3 3.22 3t4.2 4a31.24 31.24 0 0 1 7.48 11.99 24.37 24.37 0 0 1 1.3 8.21 28.58 28.58 0 0 1-1.37 9 19.36 19.36 0 0 1-4.25 7.27 20 20 0 0 1-7.38 4.88 28.71 28.71 0 0 1-10.65 1.79 58.29 58.29 0 0 1-6.89-.38q-3.18-.38-5.62-.92a43.41 43.41 0 0 1-5.18-1.3zm8.21 13q1.37.33 2.93.54 1.37.22 2.88.38a28.66 28.66 0 0 0 3.08.16 20.13 20.13 0 0 0 5.32-.71 12.79 12.79 0 0 0 4.64-2.33 11.66 11.66 0 0 0 3.27-4.18 14.36 14.36 0 0 0 1.22-6.24 13.13 13.13 0 0 0-1.42-6 27.64 27.64 0 0 0-3.61-5.42 65 65 0 0 0-4.69-5q-2.49-2.39-4.69-4.83a29.42 29.42 0 0 1-3.61-4.88 9.92 9.92 0 0 1-1.42-5 7.87 7.87 0 0 1 2.25-6q2.24-2.12 7.23-2.12.78 0 1.61.05t1.61.16a11.2 11.2 0 0 0 1.56.11v-2.81a10.61 10.61 0 0 1-1.47-.11q-.68-.11-1.51-.16t-1.71-.05a13.74 13.74 0 0 0-8.69 2.66q-3.42 2.66-3.42 8.3a11.92 11.92 0 0 0 1.42 5.7 28.48 28.48 0 0 0 3.61 5.21q2.2 2.55 4.69 4.94t4.71 4.81a26.51 26.51 0 0 1 3.61 5 11.22 11.22 0 0 1 1.42 5.43q0 5.21-3.17 7.92t-8.74 2.71a31.12 31.12 0 0 1-6.06-.54q-1.47-.22-2.83-.54zM151 260.7s-2-3.74-9.24 0c0 0-11 3.68-16.35 39.1 0 0-2.48 21.65-.77 58.18 0 0 0 2.4 1.8 3.16 0 0 4.62 1 5.65 8 0 0 0 .11-.12.31a6.25 6.25 0 0 0-1.34 3.91 6.37 6.37 0 0 0 .78 3.07 4 4 0 0 0 .85 1.43L130.88 484a.45.45 0 0 0 0 .07c0 1.31 3.93 2.36 8.77 2.36s8.68-1 8.76-2.32 0 0 0-.06l-3.54-105.9a6.13 6.13 0 0 0 2.07-4.67 6.26 6.26 0 0 0-1.38-4l-.24-.51s.22-2.74 3.38-7.24l-.4-25.05c.36-8.57-.48-13.76.36-31.87a271 271 0 0 1 4-33.25s.81-7.46-1.64-10.83" fill="#fff"/><ellipse cx="-1.23" cy="395.41" rx="75.97" ry="75.95" fill="#d0d2d3"/><ellipse cx="-1.23" cy="401.4" rx="75.97" ry="75.95" fill="#fff"/><path d="M220.62 185.82l.52-7.49h1.66l.68 3.2.17 1.15.22-1.15.75-3.2h1.57l.52 7.49h-1.61l-.15-3v-1.56l-.26 1.56-.66 3h-1l-.61-3-.22-1.56v1.56l-.17 3zM230.49 184.51h-1.62l-.27 1.31h-1.44l1.74-7.49h1.8l1.73 7.49h-1.68zm-1.38-1.19h1.14l-.4-2-.15-1-.17 1zM233 178.33h2.3a2 2 0 0 1 2.1 2.29 2.16 2.16 0 0 1-1 1.92l1.16 3.28h-1.66l-1-2.86h-.19v2.86H233zm1.69 1.26v2.22h.31c.59 0 .77-.44.77-1.14s-.19-1.08-.75-1.08zM242.41 185.63a2.39 2.39 0 0 1-1.3.31c-1.9 0-3.08-1.24-3.08-3.78s1.31-3.94 3-3.94a2.61 2.61 0 0 1 1.35.28l-.38 1.27a2.15 2.15 0 0 0-.85-.17c-.94 0-1.43.92-1.43 2.54s.51 2.42 1.46 2.42a1.85 1.85 0 0 0 .82-.19zM243.11 178.33h1.7v3h1.41v-3h1.7v7.49h-1.7v-3.2h-1.41v3.2h-1.7zM249.92 185.62l.37-1.29a2 2 0 0 0 1 .25.86.86 0 0 0 .9-1c0-.56-.2-1-.88-1h-.33v-1.26h.33a.82.82 0 0 0 .87-.92c0-.57-.28-.87-.91-.87a1.77 1.77 0 0 0-.85.24l-.35-1.24a2.81 2.81 0 0 1 1.49-.37 1.92 1.92 0 0 1 2.1 2.11 1.61 1.61 0 0 1-1 1.61 1.76 1.76 0 0 1 1.14 1.82 2.12 2.12 0 0 1-2.27 2.24 2.94 2.94 0 0 1-1.61-.32zM255.23 180.2l-1 1v-1.49l1.39-1.4h1.27v7.55h-1.66zM490 34.58l.52-7.49h1.66l.68 3.2.17 1.15.22-1.15.75-3.2h1.57l.52 7.49h-1.62l-.15-3V30l-.32 1.6-.66 3h-1l-.61-3-.15-1.6v1.56l-.17 3zM499.87 33.27h-1.62l-.25 1.31h-1.44l1.74-7.49h1.8l1.73 7.49h-1.68zm-1.38-1.19h1.14l-.4-2-.15-1-.17 1zM502.41 27.09h2.3a2 2 0 0 1 2.1 2.29 2.17 2.17 0 0 1-1 1.92l1.19 3.28h-1.73l-1-2.86h-.19v2.86h-1.69zm1.69 1.26v2.22h.32c.59 0 .77-.44.77-1.14s-.19-1.08-.75-1.08zM511.79 34.39a2.4 2.4 0 0 1-1.3.31c-1.9 0-3.08-1.24-3.08-3.78s1.31-3.94 3-3.94a2.61 2.61 0 0 1 1.35.28l-.38 1.27a2.15 2.15 0 0 0-.85-.17c-.94 0-1.43.92-1.43 2.54s.51 2.42 1.46 2.42a1.85 1.85 0 0 0 .82-.19zM512.49 27.09h1.7v3h1.41v-3h1.7v7.49h-1.7v-3.2h-1.41v3.2h-1.7zM520.48 29l-1 1v-1.57l1.39-1.4h1.27v7.55h-1.66zM523 32.65a2.11 2.11 0 0 1 1-1.79 2.39 2.39 0 0 1-.85-1.84 1.92 1.92 0 0 1 2-2 1.83 1.83 0 0 1 2 1.93 2.12 2.12 0 0 1-.85 1.74 2.24 2.24 0 0 1 1 1.9 2 2 0 0 1-2.11 2.21 2 2 0 0 1-2.19-2.15zm2.63 0a1.58 1.58 0 0 0-.7-1.23 1.74 1.74 0 0 0-.5 1.21c0 .53.23.88.62.88s.59-.35.59-.87zm-.37-2.65a1.52 1.52 0 0 0 .49-1.1c0-.41-.18-.75-.57-.75s-.57.35-.57.74a1.42 1.42 0 0 0 .65 1.11zM406.57 44.57l.52-7.49h1.66l.68 3.2.17 1.15.22-1.15.75-3.2h1.57l.52 7.49h-1.62l-.15-3V40l-.26 1.56-.66 3h-1l-.61-3-.2-1.56v1.56l-.17 3zM416.45 43.26h-1.62l-.27 1.31h-1.44l1.74-7.49h1.8l1.73 7.49h-1.68zm-1.38-1.19h1.14l-.4-2-.15-1-.17 1zM419 37.09h2.3a2 2 0 0 1 2.1 2.29 2.17 2.17 0 0 1-1 1.92l1.16 3.28h-1.73l-1-2.86h-.19v2.86H419zm1.69 1.26v2.22h.31c.59 0 .77-.44.77-1.14s-.19-1.08-.75-1.08zM428.36 44.38a2.4 2.4 0 0 1-1.3.31c-1.9 0-3.08-1.24-3.08-3.78S425.29 37 427 37a2.61 2.61 0 0 1 1.35.28l-.35 1.25a2.15 2.15 0 0 0-.85-.17c-.94 0-1.43.92-1.43 2.54s.51 2.42 1.46 2.42a1.85 1.85 0 0 0 .82-.19zM429.06 37.09h1.7v3h1.41v-3h1.7v7.49h-1.7v-3.2h-1.41v3.2h-1.7zM436.06 44.57v-1l1.24-2.24a4.5 4.5 0 0 0 .69-2.15.74.74 0 0 0-.79-.83 1.78 1.78 0 0 0-.86.24l-.34-1.27a2.78 2.78 0 0 1 1.49-.35 1.93 1.93 0 0 1 2.19 2.13 6.73 6.73 0 0 1-1.23 3.13l-.61 1h1.81v1.31zM440.23 44.57v-1l1.24-2.24a4.5 4.5 0 0 0 .69-2.15.74.74 0 0 0-.79-.83 1.78 1.78 0 0 0-.86.24l-.31-1.28a2.78 2.78 0 0 1 1.49-.35 1.93 1.93 0 0 1 2.19 2.13 6.73 6.73 0 0 1-1.23 3.13l-.61 1h1.81v1.31zM324.43 65.23l.52-7.49h1.66l.68 3.2.17 1.15.22-1.15.75-3.2H330l.52 7.49h-1.62l-.15-3v-1.54l-.26 1.56-.66 3h-1l-.61-3-.22-1.56v1.56l-.17 3zM334.31 63.92h-1.62l-.27 1.31H331l1.74-7.49h1.8l1.73 7.49h-1.68zm-1.38-1.19h1.14l-.4-2-.15-1-.17 1zM336.85 57.74h2.3a2 2 0 0 1 2.1 2.29 2.17 2.17 0 0 1-1 1.92l1.16 3.28h-1.73l-1-2.86h-.19v2.86h-1.69zm1.69 1.26v2.22h.32c.59 0 .77-.44.77-1.14s-.19-1.08-.75-1.08zM346.22 65a2.4 2.4 0 0 1-1.3.31c-1.9 0-3.08-1.24-3.08-3.78s1.31-3.94 3-3.94a2.61 2.61 0 0 1 1.35.28l-.38 1.27A2.15 2.15 0 0 0 345 59c-.94 0-1.43.92-1.43 2.54S344.08 64 345 64a1.85 1.85 0 0 0 .82-.19zM346.92 57.74h1.7v3H350v-3h1.7v7.49H350V62h-1.41v3.2h-1.7zM353.92 65.23v-1l1.24-2.23a4.5 4.5 0 0 0 .69-2.15.74.74 0 0 0-.79-.83 1.78 1.78 0 0 0-.86.24l-.31-1.26a2.78 2.78 0 0 1 1.49-.35 1.93 1.93 0 0 1 2.19 2.13 6.73 6.73 0 0 1-1.23 3.13l-.61 1h1.81v1.31zM358.07 63.3a2.11 2.11 0 0 1 1-1.79 2.39 2.39 0 0 1-.85-1.84 1.92 1.92 0 0 1 2-2 1.83 1.83 0 0 1 2 1.93 2.12 2.12 0 0 1-.85 1.74 2.24 2.24 0 0 1 1 1.9 2 2 0 0 1-2.11 2.21 2 2 0 0 1-2.19-2.15zm2.63 0a1.58 1.58 0 0 0-.7-1.23 1.74 1.74 0 0 0-.5 1.21c0 .53.23.88.62.88s.58-.35.58-.87zm-.38-2.61a1.52 1.52 0 0 0 .49-1.1c0-.41-.18-.75-.57-.75s-.57.35-.57.74a1.42 1.42 0 0 0 .65 1.1zM272.42 109.86l.52-7.49h1.66l.68 3.2.17 1.15.22-1.15.75-3.2H278l.52 7.49h-1.62l-.15-3v-1.56l-.26 1.56-.66 3h-1l-.61-3-.22-1.56v1.56l-.17 3zM282.29 108.55h-1.62l-.27 1.31H279l1.74-7.49h1.8l1.73 7.49h-1.68zm-1.38-1.19h1.14l-.4-2-.15-1-.17 1zM284.83 102.38h2.3a2 2 0 0 1 2.1 2.29 2.16 2.16 0 0 1-1 1.92l1.16 3.28h-1.69l-1-2.86h-.19v2.86h-1.69zm1.69 1.26v2.22h.32c.59 0 .77-.44.77-1.14s-.19-1.08-.75-1.08zM294.21 109.67a2.39 2.39 0 0 1-1.3.31c-1.9 0-3.08-1.24-3.08-3.78s1.31-3.94 3-3.94a2.61 2.61 0 0 1 1.35.28l-.38 1.27a2.15 2.15 0 0 0-.85-.17c-.94 0-1.43.92-1.43 2.54s.51 2.42 1.46 2.42a1.85 1.85 0 0 0 .82-.19zM294.91 102.38h1.7v3H298v-3h1.7v7.49H298v-3.2h-1.41v3.2h-1.7zM301.72 109.66l.37-1.29a2 2 0 0 0 1 .25.86.86 0 0 0 .9-1c0-.56-.2-1-.88-1h-.33v-1.26h.33a.82.82 0 0 0 .87-.92c0-.57-.28-.87-.91-.87a1.77 1.77 0 0 0-.85.24l-.35-1.24a2.81 2.81 0 0 1 1.49-.37 1.92 1.92 0 0 1 2.1 2.11 1.61 1.61 0 0 1-1 1.61 1.76 1.76 0 0 1 1.14 1.82 2.12 2.12 0 0 1-2.27 2.24 2.94 2.94 0 0 1-1.61-.32zM308.49 110c-1.44 0-2.39-1-2.39-3.87s1-3.95 2.39-3.95 2.39 1.17 2.39 3.95-.95 3.87-2.39 3.87zm0-1.38c.47 0 .69-.51.69-2.51s-.22-2.55-.69-2.55-.69.63-.69 2.55.2 2.54.69 2.54zM209.68 380.72h-1.62l-.27 1.31h-1.44l1.74-7.49h1.8l1.73 7.49h-1.68zm-1.38-1.19h1.14l-.4-2-.15-1-.17 1zM212.22 374.55h2.14a2.42 2.42 0 0 1 0 4.84h-.45V382h-1.69zm1.69 1.26v2.39h.31c.57 0 .78-.41.78-1.2s-.21-1.19-.78-1.19zM217.31 374.55h2.3a2 2 0 0 1 2.1 2.29 2.16 2.16 0 0 1-1 1.92l1.19 3.24h-1.73l-1-2.86H219V382h-1.69zm1.69 1.26V378h.32c.59 0 .77-.44.77-1.14s-.19-1.08-.75-1.08zM222.57 374.55h1.71V382h-1.71zM225.3 374.55h1.7v6.2h1.71V382h-3.41zM230.47 381.83l.37-1.29a2 2 0 0 0 1 .25.86.86 0 0 0 .9-1c0-.56-.2-1-.88-1h-.33v-1.26h.33a.82.82 0 0 0 .87-.92c0-.57-.28-.87-.91-.87a1.77 1.77 0 0 0-.85.24l-.35-1.24a2.81 2.81 0 0 1 1.49-.37 1.92 1.92 0 0 1 2.1 2.11 1.61 1.61 0 0 1-1 1.61 1.76 1.76 0 0 1 1.14 1.82 2.12 2.12 0 0 1-2.35 2.29 2.94 2.94 0 0 1-1.53-.37z" fill="#231f20"/><path d="M-58.8 38.48c-.4.31-1.09.88-1.09.88a2 2 0 0 1-1.06.56 5.2 5.2 0 0 1-2.33-1V30h4.48v8.43zm-15.14-11.74v-8.12l1.55-.92 3.07 2.22v6.81zm8.57 11.6v-18.8l1.62-1v20.29a9.66 9.66 0 0 0-1.62-.49zm2.08-11.6v-8.36l1-.64A6 6 0 0 0-58.8 20v6.74zm11.11 13a6.45 6.45 0 0 1-2.72-1.31V20.11a4.06 4.06 0 0 0 2-3l-.07-.1a6.63 6.63 0 0 1-2.26.35A4.63 4.63 0 0 1-59 15.42l-5.5 3.14c-1.44-1-3.2-2.24-4.59-3.25l-7.13 4.13c-2.23 1.3-3.78 2.82-3.78 5.32v2h-.53a2.85 2.85 0 0 0-3.14 2.75 2.5 2.5 0 0 0 .88 2h.1A1.84 1.84 0 0 1-80.64 30h.6v4.34a3.61 3.61 0 0 1-1.31 3.1v.07c2.79-.27 5.22-1.68 5.22-4.52V19.86c.56-.32.88-.54 1.69-1v18.63c0 1.67-.65 2.22-2.29 2.22-1.85 0-3.74-.85-5.47-.85-2.68 0-4.13 1.68-4.27 4.41l.21.07a3.43 3.43 0 0 1 3.1-1.27c1.7 0 3.35.88 5.11.88 2.51 0 4.06-1.45 4.06-3.84V30h4.66v8.5a7 7 0 0 0-3.39 3.74l.07.18a6 6 0 0 1 3.53-1.13A8.42 8.42 0 0 1-64 42.92c.88-.74 3.45-2.61 4.48-3.39 1.37 1.06 3 2.32 4.13 3.35 1.26-1.24 3.25-3.1 3.25-3.1v-.07zm15.63-.39l-2.4 1.41a4.84 4.84 0 0 1-2-4.34c0-1.83.6-3.21 2.36-3.21a6.81 6.81 0 0 1 2 .28v5.85zm-2.19-6.67a8.77 8.77 0 0 0-1.87.28V26.7l.17-.14c1.57 1.05 2.53 1.71 3.88 2.68v3.7a8.13 8.13 0 0 0-2.19-.28zm7.58 7.51a3.86 3.86 0 0 1-1.84-.94V27.72c-2-1.36-3.26-2.15-4.9-3.24a40.83 40.83 0 0 1-5.4 3.14v3.84A14.11 14.11 0 0 1-40.78 33c-2.48.91-3.74 2.59-3.74 4.58a5.9 5.9 0 0 0 3.1 5.32c2.09-1.32 2.9-1.9 4.44-2.79 1.53 1.14 2.44 1.83 3.63 2.75l2.22-2.61v-.07zm65.7-8.71l-3.07 1.9v-6.54l.28-.18a149.2 149.2 0 0 0 2.79 4.8zm-.32-7c-1.49 1.07-4.49 3.07-6.31 4.16v11.21c1.37.9 3 2 4.34 3 1.31-1.46 2.65-2.77 4-4.05l-.25-.25c-.84.84-1.21 1.27-1.69 1.27s-1.13-.4-2.79-1.41v-4.55L37.77 30c-1.39-2.09-2.55-3.87-3.53-5.5zm22.9 14.85l-2.4 1.41a4.84 4.84 0 0 1-2-4.34c0-1.83.6-3.21 2.36-3.21a6.83 6.83 0 0 1 2 .28v5.85zm-2.19-6.67a8.79 8.79 0 0 0-1.87.28V26.7l.21-.14c1.57 1.05 2.5 1.71 3.85 2.68v3.7a8.15 8.15 0 0 0-2.19-.28zm7.59 7.51a3.86 3.86 0 0 1-1.84-.92V27.72c-2-1.36-3.26-2.15-4.9-3.24a40.64 40.64 0 0 1-5.4 3.14v3.84A14.11 14.11 0 0 1 52.9 33c-2.48.91-3.74 2.59-3.74 4.58a5.9 5.9 0 0 0 3.1 5.32c2.09-1.32 2.91-1.9 4.44-2.79 1.53 1.14 2.44 1.83 3.63 2.75l2.22-2.61v-.07zm16.82-.53l-.63.49a36.27 36.27 0 0 1-3.7-2.4V26.1c.6-.36 1.18-.66 2-1.16l2.36 2.29v12.41zM82.92 26c-4.06-4.14-7.57-7.73-9.13-9.35-.82.72-1.84 1.51-3.07 2.4v.07a5.29 5.29 0 0 1 1.94 1.41l4.06 4.09c-2 1.17-3.73 2.11-5.29 3v12c1.44 1 3.28 2.21 4.76 3.35a32.94 32.94 0 0 1 6.7-5V26zM-75 16.16l-.21-.1a3.14 3.14 0 0 1-1.83.63c-1.11 0-2.36-.78-3.63-.78-2 0-3.83 1.4-4.13 4.34l.18.11a2.78 2.78 0 0 1 2.72-1.55c1 0 2.51.74 3.24.74 1.54 0 2.74-1.26 3.67-3.39zM-45 40v-.07a6 6 0 0 1-2.09-.93V26.45c-1-.68-1.76-1.26-2.68-2l-2.36 2.64v.07a3.5 3.5 0 0 1 1.45.85v12.51c1 .68 2.24 1.6 3.21 2.36C-45.9 41-45 40-45 40zm-2.08-20.28c-.8-.62-1.63-1.3-2.4-2-.73.9-1.4 1.61-2 2.29.91.7 1.81 1.33 2.47 1.9.8-.95 1.4-1.62 2-2.22zM-7.86 40v-.07A5.05 5.05 0 0 1-10 39V27.12c-.94-.61-3.21-2-4.23-2.68-1.16 1-2.29 1.94-3.49 2.89-1.27-.92-2.82-2-4-2.82-1.38 1.1-2.56 2-3.6 2.82-1.3-1-2.52-2-3.63-2.86-.73.88-1.66 1.84-2.5 2.68v.07c.6.06 1 .28 2.15 1.31v12.7c.54.39 1.37 1.05 2.12 1.66.73-.78 1.6-1.61 2.43-2.4-.29-.15-.66-.38-1-.6V28.22l1.77-1.41 2.5 1.73v12.7s1.23.95 2.12 1.66c.58-.58 1.82-1.75 2.47-2.36l-1-.64V28.08l1.44-1.16 2.82 1.73v11.87c1.14.78 2.14 1.52 3.21 2.36C-8.56 40.71-7.86 40-7.86 40zm7.23 0v-.07A6 6 0 0 1-2.75 39V26.45c-1-.68-1.76-1.26-2.68-2l-2.36 2.64v.07a3.49 3.49 0 0 1 1.48.84v12.52c1 .68 2.24 1.6 3.21 2.36C-1.56 41-.63 40-.63 40zm-2.08-20.28c-.8-.62-1.63-1.3-2.4-2-.73.9-1.4 1.61-2 2.29.91.7 1.8 1.33 2.47 1.9.8-.95 1.39-1.62 2-2.22zm14.87-.07l-.16-.07c-2.49.74-4.34 2.34-4.34 5.36v1.8h-.8a2.82 2.82 0 0 0-3.1 2.75 2.49 2.49 0 0 0 .85 2h.11c.15-.78.67-1.48 2.08-1.48h.92v5a2.74 2.74 0 0 1-.81 2l.18.11a6 6 0 0 0 4.55-5.57v-8.09c0-2.19.16-3.14.53-3.81zm14.57-3.17l-.07-.14a6.77 6.77 0 0 1-2.61.49 5.43 5.43 0 0 1-3.64-1.38c-.82.91-1.85 2-2.72 2.86a5.47 5.47 0 0 0 2.72 1.38v7.05h-6.56V15.63h-.46V39a10 10 0 0 0-4.23-1 6.36 6.36 0 0 0-6.42 4.27l.07.18a8.66 8.66 0 0 1 4.55-1.16 8.18 8.18 0 0 1 5.12 1.52c1.07-1.45 2.57-3.16 3.42-4.2l-.28-.25c-.34.49-.81 1-1.16 1a1.34 1.34 0 0 1-.6-.18V30h6.56v8.5a5.11 5.11 0 0 0-4.13 4.06v.14a6.88 6.88 0 0 1 4-1.23 5.22 5.22 0 0 1 3.56 1.37l2.82-3a6.46 6.46 0 0 0-2.33-1V19.51a4.67 4.67 0 0 0 2.36-3zm-14.39-.21l-.07-.14a3 3 0 0 1-1.94.67C9.21 16.79 8 16 6.69 16c-2 0-3.79 1.37-4.09 4.3l.14.14a2.79 2.79 0 0 1 2.72-1.55c1 0 2.51.74 3.25.74 1.54 0 2.7-1.26 3.63-3.39zm37.53 10v-.11a5.23 5.23 0 0 1-3.74-1.69c-.94 1-1.67 1.68-2.72 2.61-1.25-.91-2.13-1.66-3.32-2.65l-2.4 2.68v.07a5.37 5.37 0 0 1 2 1.3v11.37c1.49 1 2.92 2 4.38 3 1-1.1 2.17-2.33 3.42-3.56l-.25-.25c-.49.49-.81.71-1.23.71s-1.12-.34-2.75-1.27V27.72l.32-.32a3.67 3.67 0 0 0 3 1.41c1.45 0 2.57-1 3.28-2.54zM70.26 40c-.73.73-1.72 1.82-2.58 2.86-1.26-1-2.49-1.82-3.21-2.36v-19a1.54 1.54 0 0 0-.88-1.5v-.11L68 16.68l.07.07V39a5 5 0 0 0 2.19 1v.07z" fill="#fff"/></g><path d="M494.28 45.48l-.95.91V45l1.32-1.33h1.21v7.17h-1.58zM498.32 50.82v-7.11h1.61v3.11l1.37-3.11h1.52l-1.43 3.24 1.61 3.87h-1.69l-1.36-3.24v3.24zM504.53 48.09L503 43.71h1.63l.5 1.61.27 1.16.29-1.16.47-1.61h1.4l-1.45 4.35v2.76h-1.61zM510.25 49.61c.41 0 .61-.23.61-.83v-5.07h1.47v5a2 2 0 0 1-2.1 2.2 2 2 0 0 1-2.22-2.2v-5h1.61v5.07c.01.63.27.83.63.83zM494.28 64.47l-.95.91V64l1.32-1.33h1.21v7.17h-1.58zM496.77 67.07a5.41 5.41 0 0 1 2-4.38h1.81v.09a5.42 5.42 0 0 0-2.07 2.83 1.21 1.21 0 0 1 .95-.47c.84 0 1.55.71 1.55 2.27s-.82 2.54-2.1 2.54-2.14-.95-2.14-2.88zm2.71.32c0-.93-.26-1.15-.59-1.15a.74.74 0 0 0-.56.31v.58c0 1.31.23 1.63.59 1.63s.55-.38.55-1.36zM504 63.92h-1.2V62.7h4.08v1.22h-1.22v5.88H504zM509.46 69.33a1 1 0 0 1-1 .59c-.88 0-1.26-.79-1.26-1.63 0-1.07.59-1.66 1.4-1.66a1.09 1.09 0 0 1 .83.31v-.47a.68.68 0 0 0-.76-.73 1.81 1.81 0 0 0-.95.26l-.3-1.1a3 3 0 0 1 1.56-.37 1.7 1.7 0 0 1 1.95 1.9v3.38h-1.49zm0-.56v-1.12a.59.59 0 0 0-.36-.12c-.26 0-.44.21-.44.68s.15.71.44.71a.53.53 0 0 0 .36-.15zM513.19 69.33v2.29h-1.49v-6.93h1.49v.59a1.38 1.38 0 0 1 1.21-.75c.93 0 1.59.84 1.59 2.67s-.77 2.73-1.71 2.73a1.18 1.18 0 0 1-1.09-.6zm1.29-2.14c0-1.06-.28-1.44-.69-1.44a.71.71 0 0 0-.6.38v2.27a.67.67 0 0 0 .59.3c.4.01.7-.45.7-1.5zM519 63.92h-1.23V62.7h4.08v1.22h-1.22v5.88H519zM524.39 69.33a1 1 0 0 1-1 .59c-.88 0-1.26-.79-1.26-1.63 0-1.07.59-1.66 1.4-1.66a1.09 1.09 0 0 1 .83.31v-.47a.68.68 0 0 0-.76-.73 1.81 1.81 0 0 0-.95.26l-.3-1.1a3 3 0 0 1 1.56-.37 1.7 1.7 0 0 1 1.95 1.9v3.38h-1.49zm0-.56v-1.12a.59.59 0 0 0-.36-.12c-.26 0-.44.21-.44.68s.15.71.44.71a.53.53 0 0 0 .36-.15zM528.12 69.33v2.29h-1.49v-6.93h1.49v.59a1.38 1.38 0 0 1 1.21-.75c.93 0 1.59.84 1.59 2.67s-.77 2.73-1.71 2.73a1.18 1.18 0 0 1-1.09-.6zm1.29-2.14c0-1.06-.28-1.44-.69-1.44a.71.71 0 0 0-.6.38v2.27a.67.67 0 0 0 .59.3c.4.01.7-.45.7-1.5zM493.32 90.46a2 2 0 0 1 .93-1.7 2.27 2.27 0 0 1-.81-1.75 1.82 1.82 0 0 1 1.87-1.95 1.74 1.74 0 0 1 1.88 1.83 2 2 0 0 1-.81 1.65 2.13 2.13 0 0 1 .93 1.8 1.91 1.91 0 0 1-2 2.1 1.85 1.85 0 0 1-1.99-1.98zm2.5 0a1.5 1.5 0 0 0-.67-1.17 1.66 1.66 0 0 0-.47 1.15c0 .5.22.84.59.84s.55-.34.55-.83zm-.36-2.46a1.45 1.45 0 0 0 .46-1c0-.39-.17-.71-.54-.71s-.54.33-.54.7a1.35 1.35 0 0 0 .62 1.01zM503.3 92.11a2.27 2.27 0 0 1-1.23.29c-1.8 0-2.92-1.18-2.92-3.59s1.24-3.74 2.88-3.74a2.48 2.48 0 0 1 1.28.27l-.36 1.21a2 2 0 0 0-.81-.16c-.89 0-1.36.87-1.36 2.41s.48 2.3 1.39 2.3a1.77 1.77 0 0 0 .78-.18zM505.87 91.82a1 1 0 0 1-1 .59c-.88 0-1.26-.79-1.26-1.63 0-1.07.59-1.66 1.4-1.66a1.09 1.09 0 0 1 .83.31V89a.68.68 0 0 0-.76-.73 1.81 1.81 0 0 0-.95.26l-.3-1.1a3 3 0 0 1 1.56-.37 1.7 1.7 0 0 1 1.95 1.9v3.38h-1.49zm0-.56v-1.12a.59.59 0 0 0-.36-.12c-.26 0-.44.21-.44.68s.15.71.44.71a.53.53 0 0 0 .36-.15zM508.11 92.29v-5.11h1.5v.91a1.52 1.52 0 0 1 1.25-1v1.63c-.29 0-1-.09-1.25.36v3.2zM514 91.69a1.25 1.25 0 0 1-1.13.72c-1 0-1.67-.84-1.67-2.67S512 87 512.94 87a1.12 1.12 0 0 1 1.07.64v-2.75h1.49v7.4H514zm0-.88v-2.27a.67.67 0 0 0-.59-.3c-.41 0-.7.46-.7 1.51s.27 1.44.69 1.44a.7.7 0 0 0 .6-.38zM518.27 92.43c-1.27 0-2.18-.93-2.18-2.67S517 87 518.27 87s2.18 1 2.18 2.75-.91 2.68-2.18 2.68zm0-1.2c.39 0 .67-.41.67-1.49s-.29-1.54-.67-1.54-.67.46-.67 1.54.28 1.5.67 1.5zM521 92.29v-5.11h1.49v.63a1.47 1.47 0 0 1 1.27-.79c.88 0 1.26.59 1.26 1.6v3.67h-1.49v-3.51c0-.34-.15-.5-.45-.5a.66.66 0 0 0-.6.42v3.6zM527.42 84.9h1.19l-2.06 8.53h-1.19zM530.13 86.41h-1.23v-1.23h4.1v1.22h-1.22v5.88h-1.62zM534.29 85.11a.82.82 0 1 1 0 1.64.81.81 0 0 1-.83-.83.8.8 0 0 1 .83-.81zm-.75 2.07H535v5.12h-1.49zM535.8 92.29v-5.11h1.5v.91a1.52 1.52 0 0 1 1.25-1v1.63c-.29 0-1-.09-1.25.36v3.2zM541.11 91.82a1 1 0 0 1-1 .59c-.88 0-1.26-.79-1.26-1.63 0-1.07.59-1.66 1.4-1.66a1.09 1.09 0 0 1 .83.31V89a.68.68 0 0 0-.76-.73 1.81 1.81 0 0 0-.95.26l-.3-1.1a3 3 0 0 1 1.56-.37 1.7 1.7 0 0 1 1.95 1.9v3.38h-1.49zm0-.56v-1.12a.59.59 0 0 0-.36-.12c-.26 0-.44.21-.44.68s.15.71.44.71a.53.53 0 0 0 .36-.15zM543.34 92.29v-5.11h1.49v.63a1.47 1.47 0 0 1 1.27-.81c.88 0 1.26.59 1.26 1.6v3.67h-1.49v-3.49c0-.34-.15-.5-.45-.5a.66.66 0 0 0-.6.42v3.6zM550.09 92.43c-1.27 0-2.18-.93-2.18-2.67s.91-2.75 2.18-2.75 2.18 1 2.18 2.75-.91 2.67-2.18 2.67zm0-1.2c.39 0 .67-.41.67-1.49s-.29-1.54-.67-1.54-.67.46-.67 1.54.28 1.5.67 1.5zM493.79 111.19a5.65 5.65 0 0 0 2.06-2.81 1.23 1.23 0 0 1-.94.46c-.84 0-1.55-.71-1.55-2.27s.82-2.54 2.1-2.54 2.13.93 2.13 2.84a5.49 5.49 0 0 1-1.94 4.41h-1.86zm2.23-3.78v-.62c0-1.27-.23-1.59-.59-1.59s-.58.39-.58 1.38.26 1.15.59 1.15a.71.71 0 0 0 .56-.31zM499.72 104.17h2c1.27 0 2.05.59 2.05 1.92a1.48 1.48 0 0 1-.9 1.47 1.64 1.64 0 0 1 1.14 1.66 2 2 0 0 1-2.28 2.06h-2zm1.59 1.1v1.81h.28c.47 0 .68-.29.68-.94s-.21-.86-.68-.87zm0 2.87v2h.32c.53 0 .79-.29.79-1.05s-.26-1-.78-1zM506.62 111.42c-1.27 0-2.18-.93-2.18-2.67s.91-2.75 2.18-2.75 2.18 1 2.18 2.75-.91 2.67-2.18 2.67zm0-1.2c.39 0 .67-.41.67-1.49s-.29-1.54-.67-1.54-.67.46-.67 1.54.28 1.5.67 1.5zM509.38 111.28v-5.12h1.49v.6A1.35 1.35 0 0 1 512 106a1 1 0 0 1 1.1.9 1.46 1.46 0 0 1 1.28-.9c.84 0 1.21.59 1.21 1.6v3.67h-1.49v-3.51c0-.34-.09-.5-.38-.5a.56.56 0 0 0-.51.38v3.64h-1.49v-3.51c0-.34-.09-.5-.38-.5a.56.56 0 0 0-.51.38v3.64zM517.87 110.72v.56h-1.49v-7.4h1.49v2.84A1.38 1.38 0 0 1 519 106c1 0 1.62.84 1.62 2.67s-.77 2.73-1.71 2.73a1.18 1.18 0 0 1-1.04-.68zm1.29-2c0-1.06-.28-1.44-.69-1.44a.71.71 0 0 0-.6.38v2.27a.67.67 0 0 0 .59.3c.41-.05.7-.51.7-1.56zM523.25 110.81a1 1 0 0 1-1 .59c-.88 0-1.26-.79-1.26-1.63 0-1.07.59-1.66 1.4-1.66a1.09 1.09 0 0 1 .83.31v-.47a.68.68 0 0 0-.76-.73 1.81 1.81 0 0 0-.95.26l-.3-1.1a3 3 0 0 1 1.56-.37 1.7 1.7 0 0 1 1.95 1.9v3.38h-1.49zm0-.56v-1.12a.59.59 0 0 0-.36-.12c-.26 0-.44.21-.44.68s.15.71.44.71a.53.53 0 0 0 .36-.15zM526.63 111.38l-1.47-5.22h1.51l.39 1.61.29 1.58.31-1.58.4-1.61h1.34l-2 6.93h-1.31zM531.32 104.17h1.93c1.76 0 2.83 1.2 2.83 3.59s-1.07 3.52-2.83 3.52h-1.93zm1.61 1.28V110h.21c.88 0 1.29-.62 1.29-2.26s-.41-2.29-1.29-2.29zM538.74 110.81a1 1 0 0 1-1 .59c-.88 0-1.26-.79-1.26-1.63 0-1.07.59-1.66 1.4-1.66a1.09 1.09 0 0 1 .83.31v-.47a.68.68 0 0 0-.76-.73 1.81 1.81 0 0 0-.95.26l-.3-1.1a3 3 0 0 1 1.56-.37 1.7 1.7 0 0 1 1.95 1.9v3.38h-1.49zm0-.56v-1.12a.59.59 0 0 0-.36-.12c-.26 0-.44.21-.44.68s.15.71.44.71a.53.53 0 0 0 .36-.15zM541 111.28v-5.12h1.5v.91a1.52 1.52 0 0 1 1.25-1v1.63c-.29 0-1-.09-1.25.36v3.2zM545.77 110.72v.56h-1.49v-7.4h1.49v2.84a1.38 1.38 0 0 1 1.18-.71c1 0 1.62.84 1.62 2.67s-.77 2.73-1.71 2.73a1.18 1.18 0 0 1-1.09-.69zm1.29-2c0-1.06-.28-1.44-.69-1.44a.71.71 0 0 0-.6.38v2.27a.67.67 0 0 0 .59.3c.41-.05.7-.51.7-1.56zM551.15 110.81a1 1 0 0 1-1 .59c-.88 0-1.26-.79-1.26-1.63 0-1.07.59-1.66 1.4-1.66a1.09 1.09 0 0 1 .83.31v-.47a.68.68 0 0 0-.76-.73 1.81 1.81 0 0 0-.95.26l-.3-1.1a3 3 0 0 1 1.56-.37 1.7 1.7 0 0 1 1.95 1.9v3.38h-1.49zm0-.56v-1.12a.59.59 0 0 0-.36-.12c-.26 0-.44.21-.44.68s.15.71.44.71a.53.53 0 0 0 .36-.15zM553.39 111.28v-5.12h1.5v.91a1.52 1.52 0 0 1 1.25-1v1.63c-.29 0-1-.09-1.25.36v3.2zM493.21 133.6l.38-1.21a1.51 1.51 0 0 0 .77.18c.51 0 .9-.38.9-1.08s-.32-1.1-.95-1.1a1.77 1.77 0 0 0-.65.12l.24-3.83h2.81v1.27H495l-.08 1.33a1.93 1.93 0 0 1 1.87 2.19 2.21 2.21 0 0 1-2.3 2.48 2.51 2.51 0 0 1-1.28-.35zM499 126.66h1.93c1.76 0 2.83 1.2 2.83 3.59s-1.07 3.52-2.83 3.52H499zm1.61 1.28v4.55h.21c.88 0 1.29-.62 1.29-2.26s-.41-2.29-1.29-2.29zM506.83 133.22a1.39 1.39 0 0 1-1.19.69c-.88 0-1.3-.58-1.3-1.59v-3.67h1.49v3.51c0 .34.15.5.45.5a.64.64 0 0 0 .55-.33v-3.68h1.49v5.12h-1.49zM511.36 133.86c-1.44 0-2.46-.79-2.46-2.71 0-1.7.9-2.66 2-2.66s1.85.6 1.85 2.27v.84h-2.39c.09.74.41 1.05 1.08 1.05a2.06 2.06 0 0 0 1-.24l.21 1.11a2.39 2.39 0 0 1-1.29.34zm-1-3.26h1c0-.78-.16-1-.48-1s-.45.4-.49 1.01zM514.82 126.66h2c1.27 0 2.05.59 2.05 1.92A1.49 1.49 0 0 1 518 130a1.64 1.64 0 0 1 1.14 1.66 2 2 0 0 1-2.28 2.06h-2zm1.59 1.1v1.81h.28c.47 0 .68-.29.68-.94s-.21-.86-.68-.87zm0 2.87v2h.32c.53 0 .79-.29.79-1.05s-.26-1-.78-1zM521.73 133.29a1 1 0 0 1-1 .59c-.88 0-1.26-.79-1.26-1.63 0-1.07.59-1.66 1.4-1.66a1.09 1.09 0 0 1 .83.31v-.47a.68.68 0 0 0-.76-.73 1.81 1.81 0 0 0-.95.26l-.3-1.1a3 3 0 0 1 1.56-.37 1.7 1.7 0 0 1 1.95 1.9v3.38h-1.49zm0-.56v-1.12a.59.59 0 0 0-.36-.12c-.26 0-.44.21-.44.68s.15.71.44.71a.53.53 0 0 0 .36-.15zM527.11 133.59a1.87 1.87 0 0 1-1 .27c-1.41 0-2.31-.86-2.31-2.63s1-2.7 2.33-2.7a2.21 2.21 0 0 1 1 .22l-.35 1.19a1.18 1.18 0 0 0-.6-.15c-.55 0-.9.51-.9 1.42s.29 1.4.92 1.4a1.2 1.2 0 0 0 .6-.15zM528.38 126.58a.82.82 0 1 1 0 1.64.81.81 0 0 1-.83-.83.8.8 0 0 1 .83-.81zm-.75 2.07h1.49v5.12h-1.49zM494.28 147.42l-.95.91v-1.41l1.32-1.33h1.21v7.17h-1.58zM496.52 152.75v-.95l1.18-2.13a4.27 4.27 0 0 0 .66-2 .7.7 0 0 0-.75-.79 1.69 1.69 0 0 0-.82.23l-.29-1.21a2.64 2.64 0 0 1 1.41-.33 1.83 1.83 0 0 1 2.08 2 6.39 6.39 0 0 1-1.17 3l-.58 1H500v1.24zM502.45 152.56l.35-1.22a1.86 1.86 0 0 0 .91.24.82.82 0 0 0 .85-.91c0-.53-.19-.94-.84-.94h-.31v-1.2h.31a.78.78 0 0 0 .83-.87c0-.54-.27-.83-.86-.83a1.68 1.68 0 0 0-.81.23l-.33-1.18a2.68 2.68 0 0 1 1.41-.35 1.82 1.82 0 0 1 2 2 1.53 1.53 0 0 1-1 1.53 1.67 1.67 0 0 1 1.08 1.73 2 2 0 0 1-2.15 2.13 2.8 2.8 0 0 1-1.44-.36zM506.19 152.56l.35-1.22a1.86 1.86 0 0 0 .91.24.82.82 0 0 0 .85-.91c0-.53-.19-.94-.84-.94h-.31v-1.2h.31a.78.78 0 0 0 .83-.87c0-.54-.27-.83-.86-.83a1.68 1.68 0 0 0-.81.23l-.33-1.18a2.68 2.68 0 0 1 1.41-.35 1.82 1.82 0 0 1 2 2 1.53 1.53 0 0 1-1 1.53 1.67 1.67 0 0 1 1.08 1.73 2 2 0 0 1-2.15 2.13 2.8 2.8 0 0 1-1.44-.36zM511.53 152.75v-7.11h1.61v3.11l1.37-3.11H516l-1.43 3.24 1.59 3.87h-1.66l-1.36-3.24v3.24zM517.16 145.57a.82.82 0 1 1 0 1.64.82.82 0 1 1 0-1.64zm-.75 2.07h1.49v5.12h-1.49zM518.65 151.3v-2.55h-.42v-1.11h.42v-1.5h1.5v1.5h.7v1.11h-.7v2.42a.38.38 0 0 0 .43.44.83.83 0 0 0 .28 0v1.18a2.11 2.11 0 0 1-.56.08c-1.06-.05-1.65-.5-1.65-1.57zM524.4 152.58a1.87 1.87 0 0 1-1 .27c-1.41 0-2.31-.86-2.31-2.63s1-2.7 2.33-2.7a2.21 2.21 0 0 1 1 .22l-.35 1.19a1.18 1.18 0 0 0-.6-.15c-.55 0-.9.51-.9 1.42s.29 1.4.92 1.4a1.2 1.2 0 0 0 .6-.15zM524.75 152.75v-7.4h1.49v2.91a1.47 1.47 0 0 1 1.27-.79c.88 0 1.26.59 1.26 1.6v3.67h-1.49v-3.51c0-.34-.15-.5-.45-.5a.66.66 0 0 0-.6.42v3.6zM531.59 152.85c-1.44 0-2.46-.79-2.46-2.71 0-1.7.9-2.66 2-2.66s1.85.6 1.85 2.27v.84h-2.39c.09.74.41 1.05 1.08 1.05a2.06 2.06 0 0 0 1-.24l.21 1.11a2.39 2.39 0 0 1-1.29.34zm-1-3.26h1c0-.78-.16-1-.48-1s-.45.41-.49 1zM533.41 152.75v-5.12h1.49v.63a1.47 1.47 0 0 1 1.27-.79c.88 0 1.26.59 1.26 1.6v3.67h-1.49v-3.51c0-.34-.15-.5-.45-.5a.66.66 0 0 0-.6.42v3.6zM496.87 173.77v1.47h-1.44v-1.47h-2.13v-.93l1.61-4.71h2v4.54h.55v1.1zm-1.44-1.1v-3.24l-.27 1.06-.72 2.17zM501.34 169.34a.56.56 0 0 0-.63.55.75.75 0 0 0 .29.57c.39.38.86.69 1.25 1.08a2.16 2.16 0 0 1 .73 1.69 2 2 0 0 1-2.13 2.1 3.6 3.6 0 0 1-1.81-.41l.43-1.27a2.72 2.72 0 0 0 1.23.35c.54 0 .74-.28.74-.61a.77.77 0 0 0-.31-.61 14.9 14.9 0 0 1-1.23-1.07 2.2 2.2 0 0 1-.71-1.68 1.92 1.92 0 0 1 2.07-2 3.34 3.34 0 0 1 1.57.35l-.37 1.24a2.53 2.53 0 0 0-1.12-.28zM506 174.7a1.39 1.39 0 0 1-1.19.69c-.88 0-1.3-.58-1.3-1.59v-3.67H505v3.51c0 .34.15.5.45.5a.64.64 0 0 0 .55-.33v-3.68h1.49v5.12H506zM510 177.15c-1.24 0-2-.42-2-1.16a1 1 0 0 1 .66-.9 1 1 0 0 1-.38-.79 1.32 1.32 0 0 1 .67-1.18 1.54 1.54 0 0 1-.72-1.4A1.69 1.69 0 0 1 510 170a1.9 1.9 0 0 1 1.2.41 1.47 1.47 0 0 1 1.1-.37v1.06a2.07 2.07 0 0 0-.63.07 1.33 1.33 0 0 1 .11.63 1.65 1.65 0 0 1-1.79 1.65 2.48 2.48 0 0 1-.46 0 .47.47 0 0 0-.14.32c0 .18.13.29.38.29h.89c1 0 1.57.47 1.57 1.44s-.61 1.65-2.23 1.65zm.86-1.47c0-.2-.14-.37-.44-.37h-1a.5.5 0 0 0-.15.37c0 .32.22.52.78.52s.82-.2.82-.52zm-.86-3.18c.25 0 .46-.19.46-.78s-.21-.81-.46-.81-.45.21-.45.81.24.78.45.78zM514.83 174.76a1 1 0 0 1-1 .59c-.88 0-1.26-.79-1.26-1.63 0-1.07.59-1.66 1.4-1.66a1.09 1.09 0 0 1 .83.31v-.47a.68.68 0 0 0-.76-.73 1.81 1.81 0 0 0-.95.26l-.3-1.1a3 3 0 0 1 1.56-.37 1.7 1.7 0 0 1 1.95 1.9v3.38h-1.49zm0-.56v-1.12a.59.59 0 0 0-.36-.12c-.26 0-.44.21-.44.68s.15.71.44.71a.53.53 0 0 0 .36-.15zM517.06 175.24v-5.12h1.5v.88a1.52 1.52 0 0 1 1.25-1v1.63c-.29 0-1-.09-1.25.36v3.2zM523.51 175.07a1.87 1.87 0 0 1-1 .27c-1.41 0-2.31-.86-2.31-2.63s1-2.7 2.33-2.7a2.21 2.21 0 0 1 1 .22l-.35 1.19a1.18 1.18 0 0 0-.6-.15c-.55 0-.9.51-.9 1.42s.29 1.4.92 1.4a1.2 1.2 0 0 0 .6-.15zM526.05 174.76a1 1 0 0 1-1 .59c-.88 0-1.26-.79-1.26-1.63 0-1.07.59-1.66 1.4-1.66a1.09 1.09 0 0 1 .83.31v-.47a.68.68 0 0 0-.76-.73 1.81 1.81 0 0 0-.95.26l-.3-1.1a3 3 0 0 1 1.56-.37 1.7 1.7 0 0 1 1.95 1.9v3.38h-1.49zm0-.56v-1.12a.59.59 0 0 0-.36-.12c-.26 0-.44.21-.44.68s.15.71.44.71a.53.53 0 0 0 .36-.15zM528.29 175.24v-5.12h1.49v.63a1.47 1.47 0 0 1 1.27-.79c.88 0 1.26.59 1.26 1.6v3.67h-1.49v-3.51c0-.34-.15-.5-.45-.5a.66.66 0 0 0-.6.42v3.6zM535.31 175.33c-1.44 0-2.46-.79-2.46-2.71 0-1.7.9-2.66 2-2.66s1.85.6 1.85 2.27v.84h-2.39c.09.74.41 1.05 1.08 1.05a2.06 2.06 0 0 0 1-.24l.21 1.11a2.39 2.39 0 0 1-1.29.34zm-1-3.26h1c0-.78-.16-1-.48-1s-.45.41-.48 1.01zM494.28 188.89l-.95.91v-1.41l1.32-1.33h1.21v7.17h-1.58zM496.53 194l.35-1.22a1.86 1.86 0 0 0 .91.24.82.82 0 0 0 .85-.91c0-.53-.19-.94-.84-.94h-.31V190h.31a.78.78 0 0 0 .83-.87c0-.54-.27-.83-.86-.83a1.68 1.68 0 0 0-.81.23l-.33-1.18A2.68 2.68 0 0 1 498 187a1.82 1.82 0 0 1 2 2 1.53 1.53 0 0 1-1 1.53 1.67 1.67 0 0 1 1.08 1.73 2 2 0 0 1-2.15 2.13 2.8 2.8 0 0 1-1.4-.39zM502.25 187.12h2a2.3 2.3 0 0 1 0 4.59h-.43v2.52h-1.6zm1.6 1.2v2.27h.29c.54 0 .74-.39.74-1.14s-.2-1.13-.74-1.13zM509.25 194.32c-1.44 0-2.46-.79-2.46-2.71 0-1.7.9-2.66 2-2.66s1.85.6 1.85 2.27v.84h-2.39c.09.74.41 1.05 1.08 1.05a2.06 2.06 0 0 0 1-.24l.21 1.11a2.39 2.39 0 0 1-1.29.34zm-1-3.26h1c0-.78-.16-1-.48-1s-.46.41-.49 1.01zM511.25 194.23v-5.12h1.5v.89a1.52 1.52 0 0 1 1.25-1v1.63c-.29 0-1-.09-1.25.36v3.2zM514.56 194.23v-5.12h1.5v.89a1.52 1.52 0 0 1 1.25-1v1.63c-.29 0-1-.09-1.25.36v3.2zM518.59 187a.82.82 0 1 1 0 1.64.82.82 0 1 1 0-1.64zm-.75 2.07h1.49v5.12h-1.49zM523.24 194.06a1.87 1.87 0 0 1-1 .27c-1.41 0-2.31-.86-2.31-2.63s1-2.7 2.33-2.7a2.21 2.21 0 0 1 1 .22l-.35 1.19a1.18 1.18 0 0 0-.6-.15c-.55 0-.9.51-.9 1.42s.29 1.4.92 1.4a1.2 1.2 0 0 0 .6-.15zM525.77 194.37c-1.27 0-2.18-.93-2.18-2.67s.91-2.75 2.18-2.75 2.18 1 2.18 2.75-.95 2.67-2.18 2.67zm0-1.2c.39 0 .67-.41.67-1.49s-.29-1.54-.67-1.54-.67.46-.67 1.54.28 1.49.67 1.49zM528.53 194.23v-5.12H530v.63a1.47 1.47 0 0 1 1.27-.79c.88 0 1.26.59 1.26 1.6v3.67h-1.49v-3.51c0-.34-.15-.5-.45-.5a.66.66 0 0 0-.6.42v3.6zM535.56 194.32c-1.44 0-2.46-.79-2.46-2.71 0-1.7.9-2.66 2-2.66s1.85.6 1.85 2.27v.84h-2.39c.09.74.41 1.05 1.08 1.05a2.06 2.06 0 0 0 1-.24l.21 1.11a2.39 2.39 0 0 1-1.29.34zm-1-3.26h1c0-.78-.16-1-.48-1s-.45.41-.49 1.01zM537.39 189.29a3.28 3.28 0 0 0 .58-.84.71.71 0 0 1-.6-.68.74.74 0 0 1 .75-.73.77.77 0 0 1 .75.86 2.6 2.6 0 0 1-1 1.74zM541.09 190.14c-.33 0-.49.11-.49.3s.12.29.33.41a8.29 8.29 0 0 1 1 .56 1.55 1.55 0 0 1 .63 1.29 1.62 1.62 0 0 1-1.83 1.65 2.55 2.55 0 0 1-1.5-.39l.36-1.07a2 2 0 0 0 1.06.32c.44 0 .53-.19.53-.41s-.1-.25-.27-.35a6.77 6.77 0 0 1-1-.62 1.46 1.46 0 0 1-.54-1.22A1.52 1.52 0 0 1 541 189a2.82 2.82 0 0 1 1.41.32l-.33 1.09a2 2 0 0 0-.99-.27zM493.4 214a5.41 5.41 0 0 1 2-4.38h1.81v.09a5.42 5.42 0 0 0-2.07 2.83 1.21 1.21 0 0 1 .95-.47c.84 0 1.55.71 1.55 2.27s-.82 2.54-2.1 2.54-2.14-.96-2.14-2.88zm2.71.32c0-.93-.26-1.15-.59-1.15a.74.74 0 0 0-.56.31v.58c0 1.31.23 1.63.59 1.63s.55-.4.55-1.39zM499.57 216.71l.49-7.11h1.58l.65 3 .16 1.09.21-1.09.71-3h1.49l.49 7.11h-1.54l-.14-2.83v-1.48l-.25 1.48-.63 2.83h-.92l-.58-2.83-.21-1.48v1.48l-.16 2.83zM508.1 216.24a1 1 0 0 1-1 .59c-.88 0-1.26-.79-1.26-1.63 0-1.07.59-1.66 1.4-1.66a1.09 1.09 0 0 1 .83.31v-.47a.68.68 0 0 0-.76-.73 1.81 1.81 0 0 0-.95.26l-.3-1.1a3 3 0 0 1 1.56-.37 1.7 1.7 0 0 1 1.95 1.9v3.38h-1.47zm0-.56v-1.12a.59.59 0 0 0-.36-.12c-.26 0-.44.21-.44.68s.15.71.44.71a.53.53 0 0 0 .36-.15zM513.47 216.54a1.87 1.87 0 0 1-1 .27c-1.41 0-2.31-.86-2.31-2.63s1-2.7 2.33-2.7a2.21 2.21 0 0 1 1 .22l-.35 1.19a1.18 1.18 0 0 0-.6-.15c-.55 0-.9.51-.9 1.42s.29 1.4.92 1.4a1.2 1.2 0 0 0 .6-.15zM517.16 216.54a1.87 1.87 0 0 1-1 .27c-1.41 0-2.31-.86-2.31-2.63s1-2.7 2.33-2.7a2.21 2.21 0 0 1 1 .22l-.35 1.19a1.18 1.18 0 0 0-.6-.15c-.55 0-.9.51-.9 1.42s.29 1.4.92 1.4a1.2 1.2 0 0 0 .6-.15zM517.7 216.71v-7.4h1.49v2.91a1.47 1.47 0 0 1 1.27-.79c.88 0 1.26.59 1.26 1.6v3.67h-1.49v-3.5c0-.34-.15-.5-.45-.5a.66.66 0 0 0-.6.42v3.6zM523.2 209.53a.82.82 0 1 1 0 1.64.82.82 0 1 1 0-1.64zm-.75 2.07h1.49v5.12h-1.49zM526.71 216.24a1 1 0 0 1-1 .59c-.88 0-1.26-.79-1.26-1.63 0-1.07.59-1.66 1.4-1.66a1.09 1.09 0 0 1 .83.31v-.47a.68.68 0 0 0-.76-.73 1.81 1.81 0 0 0-.95.26l-.3-1.1a3 3 0 0 1 1.56-.37 1.7 1.7 0 0 1 1.95 1.9v3.38h-1.49zm0-.56v-1.12a.59.59 0 0 0-.36-.12c-.26 0-.44.21-.44.68s.15.71.44.71a.53.53 0 0 0 .36-.15zM529 209.31h1.5v7.4H529zM532 209.53a.82.82 0 1 1 0 1.64.82.82 0 1 1 0-1.64zm-.75 2.07h1.49v5.12h-1.49zM533.48 216.71v-5.11H535v.63a1.47 1.47 0 0 1 1.27-.79c.88 0 1.26.59 1.26 1.6v3.67H536v-3.51c0-.34-.15-.5-.45-.5a.66.66 0 0 0-.6.42v3.6zM540.25 216.24a1 1 0 0 1-1 .59c-.88 0-1.26-.79-1.26-1.63 0-1.07.59-1.66 1.4-1.66a1.09 1.09 0 0 1 .83.31v-.47a.68.68 0 0 0-.76-.73 1.81 1.81 0 0 0-.95.26l-.3-1.1a3 3 0 0 1 1.56-.37 1.7 1.7 0 0 1 1.95 1.9v3.38h-1.49zm0-.56v-1.12a.59.59 0 0 0-.36-.12c-.26 0-.44.21-.44.68s.15.71.44.71a.53.53 0 0 0 .36-.15zM494.28 230.37l-.95.91v-1.41l1.32-1.33h1.21v7.17h-1.58zM497.65 230.37l-.95.91v-1.41l1.32-1.33h1.21v7.17h-1.58zM505.61 235.52a2.28 2.28 0 0 1-1.23.29c-1.8 0-2.92-1.18-2.92-3.59s1.24-3.74 2.88-3.74a2.48 2.48 0 0 1 1.28.27l-.36 1.21a2 2 0 0 0-.81-.16c-.89 0-1.36.87-1.36 2.41s.48 2.3 1.39 2.3a1.77 1.77 0 0 0 .78-.18zM508.16 235.84c-1.27 0-2.18-.93-2.18-2.67s.91-2.75 2.18-2.75 2.18 1 2.18 2.75-.91 2.67-2.18 2.67zm0-1.2c.39 0 .67-.41.67-1.49s-.29-1.54-.67-1.54-.67.46-.67 1.54.28 1.5.67 1.5zM512.07 235.8l-1.47-5.22h1.51l.39 1.61.29 1.58.31-1.58.4-1.61h1.34l-2 6.93h-1.31zM517.31 235.23a1 1 0 0 1-1 .59c-.88 0-1.26-.79-1.26-1.63 0-1.07.59-1.66 1.4-1.66a1.09 1.09 0 0 1 .83.31v-.47a.68.68 0 0 0-.76-.73 1.81 1.81 0 0 0-.95.26l-.3-1.1a3 3 0 0 1 1.56-.37 1.7 1.7 0 0 1 1.95 1.9v3.38h-1.49zm0-.56v-1.12a.59.59 0 0 0-.36-.12c-.26 0-.44.21-.44.68s.15.71.44.71a.53.53 0 0 0 .36-.15zM520.84 235.7l.49-7.11h1.58l.65 3 .16 1.09.21-1.09.71-3h1.49l.49 7.11h-1.52l-.14-2.83v-1.48l-.25 1.48-.63 2.83h-.92l-.58-2.83-.21-1.48v1.48l-.16 2.83zM528.1 228.52a.82.82 0 1 1 0 1.64.81.81 0 0 1-.83-.83.8.8 0 0 1 .83-.81zm-.75 2.07h1.49v5.12h-1.49zM531.61 235.23a1 1 0 0 1-1 .59c-.88 0-1.26-.79-1.26-1.63 0-1.07.59-1.66 1.4-1.66a1.09 1.09 0 0 1 .83.31v-.47a.68.68 0 0 0-.76-.73 1.81 1.81 0 0 0-.95.26l-.3-1.1a3 3 0 0 1 1.56-.37 1.7 1.7 0 0 1 1.95 1.9v3.38h-1.49zm0-.56v-1.12a.59.59 0 0 0-.36-.12c-.26 0-.44.21-.44.68s.15.71.44.71a.53.53 0 0 0 .36-.15zM533.84 235.7v-5.12h1.49v.6a1.35 1.35 0 0 1 1.17-.76 1 1 0 0 1 1.1.9 1.46 1.46 0 0 1 1.28-.9c.84 0 1.21.59 1.21 1.6v3.67h-1.49v-3.51c0-.34-.09-.5-.38-.5a.56.56 0 0 0-.51.38v3.64h-1.49v-3.51c0-.34-.09-.5-.38-.5a.56.56 0 0 0-.51.38v3.64zM541.57 228.52a.82.82 0 1 1 0 1.64.81.81 0 0 1-.83-.83.8.8 0 0 1 .83-.81zm-.75 2.07h1.49v5.12h-1.49zM493.16 258l.35-1.22a1.86 1.86 0 0 0 .91.24.82.82 0 0 0 .85-.91c0-.53-.19-.94-.84-.94h-.31V254h.31a.78.78 0 0 0 .83-.87c0-.54-.27-.83-.86-.83a1.68 1.68 0 0 0-.81.23l-.33-1.18a2.68 2.68 0 0 1 1.41-.35 1.82 1.82 0 0 1 2 2 1.53 1.53 0 0 1-1 1.53 1.67 1.67 0 0 1 1.08 1.73 2 2 0 0 1-2.15 2.13 2.8 2.8 0 0 1-1.44-.39zM500.23 258.19v-7.11h1.64l1.2 3.06.39 1.17-.07-1.34v-2.89h1.31v7.11h-1.43l-1.38-3.46-.43-1.26.08 1.45v3.27zM507.6 257.71a1 1 0 0 1-1 .59c-.88 0-1.26-.79-1.26-1.63 0-1.07.59-1.66 1.4-1.66a1.09 1.09 0 0 1 .83.31v-.47a.68.68 0 0 0-.76-.73 1.81 1.81 0 0 0-.95.26l-.3-1.1a3 3 0 0 1 1.56-.37 1.7 1.7 0 0 1 1.95 1.9v3.38h-1.47zm0-.56V256a.59.59 0 0 0-.36-.12c-.26 0-.44.21-.44.68s.15.71.44.71a.53.53 0 0 0 .36-.12zM510.57 251a.82.82 0 1 1 0 1.64.82.82 0 1 1 0-1.64zm-.75 2.07h1.49v5.12h-1.49zM513.2 255.45l-1.53-4.38h1.63l.5 1.61.27 1.16.29-1.16.47-1.61h1.4l-1.45 4.35v2.76h-1.58zM518.64 257.71a1 1 0 0 1-1 .59c-.88 0-1.26-.79-1.26-1.63 0-1.07.59-1.66 1.4-1.66a1.09 1.09 0 0 1 .83.31v-.47a.68.68 0 0 0-.76-.73 1.81 1.81 0 0 0-.95.26l-.3-1.1a3 3 0 0 1 1.56-.37 1.7 1.7 0 0 1 1.95 1.9v3.38h-1.49zm0-.56V256a.59.59 0 0 0-.36-.12c-.26 0-.44.21-.44.68s.15.71.44.71a.53.53 0 0 0 .36-.12zM521 251.08h2.18a1.91 1.91 0 0 1 2 2.17 2.06 2.06 0 0 1-.91 1.82l1.1 3.11h-1.64l-.94-2.71h-.18v2.71H521zm1.6 1.2v2.11h.3c.56 0 .73-.42.73-1.08s-.18-1-.71-1zM527.86 257.71a1 1 0 0 1-1 .59c-.88 0-1.26-.79-1.26-1.63 0-1.07.59-1.66 1.4-1.66a1.09 1.09 0 0 1 .83.31v-.47a.68.68 0 0 0-.76-.73 1.81 1.81 0 0 0-.95.26l-.3-1.1a3 3 0 0 1 1.56-.37 1.7 1.7 0 0 1 1.95 1.9v3.38h-1.49zm0-.56V256a.59.59 0 0 0-.36-.12c-.26 0-.44.21-.44.68s.15.71.44.71a.53.53 0 0 0 .36-.12zM494.28 271.84l-.95.91v-1.41l1.32-1.33h1.21v7.17h-1.58zM500.24 275.7v1.47h-1.44v-1.47h-2.13v-.93l1.61-4.71h2v4.54h.55v1.1zm-1.44-1.1v-3.24l-.27 1.06-.72 2.17zM505.74 271.27a.51.51 0 0 0-.54.55.8.8 0 0 0 .25.57c.33.38.74.69 1.08 1.08a2.33 2.33 0 0 1 .63 1.69c0 1.19-.62 2.1-1.83 2.1a2.76 2.76 0 0 1-1.56-.41l.37-1.27a2.1 2.1 0 0 0 1.06.35.57.57 0 0 0 .64-.61.82.82 0 0 0-.27-.61 13.54 13.54 0 0 1-1.06-1.07 2.37 2.37 0 0 1-.61-1.68 1.79 1.79 0 0 1 1.78-2 2.55 2.55 0 0 1 1.35.35l-.32 1.24a1.94 1.94 0 0 0-.97-.28zM507.81 275.72v-2.55h-.36v-1.11h.36v-1.5h1.29v1.5h.6v1.11h-.6v2.42c0 .36.19.44.37.44a.63.63 0 0 0 .24 0v1.18a1.58 1.58 0 0 1-.48.08c-.91-.05-1.42-.5-1.42-1.57zM510.22 277.17v-5.12h1.29v.95c.2-.49.56-1 1.08-1v1.63c-.25 0-.85-.09-1.08.36v3.2zM514.79 276.7a.87.87 0 0 1-.83.59c-.76 0-1.09-.79-1.09-1.63 0-1.07.51-1.66 1.2-1.66a.88.88 0 0 1 .71.31v-.47c0-.53-.29-.73-.65-.73a1.4 1.4 0 0 0-.82.26l-.26-1.1a2.28 2.28 0 0 1 1.34-.37c1.18 0 1.67.7 1.67 1.9v3.38h-1.28zm0-.56V275a.47.47 0 0 0-.31-.12c-.22 0-.38.21-.38.68s.13.71.38.71a.43.43 0 0 0 .31-.13zM518.94 276.58a1.08 1.08 0 0 1-1 .72c-.85 0-1.44-.84-1.44-2.67s.66-2.73 1.49-2.73a1 1 0 0 1 .92.64v-2.76h1.28v7.4h-1.28zm0-.88v-2.27a.56.56 0 0 0-.51-.3c-.35 0-.6.46-.6 1.51s.24 1.44.6 1.44a.6.6 0 0 0 .51-.39zM522.62 276.7a.87.87 0 0 1-.83.59c-.76 0-1.09-.79-1.09-1.63 0-1.07.51-1.66 1.2-1.66a.88.88 0 0 1 .71.31v-.47c0-.53-.29-.73-.65-.73a1.4 1.4 0 0 0-.82.26l-.26-1.1a2.28 2.28 0 0 1 1.34-.37c1.18 0 1.67.7 1.67 1.9v3.38h-1.28zm0-.56V275a.47.47 0 0 0-.31-.12c-.22 0-.38.21-.38.68s.13.71.38.71a.43.43 0 0 0 .31-.13zM526.34 270a.75.75 0 0 1 .72.82.72.72 0 1 1-.72-.82zm-.64 2.07h1.3v5.12h-1.28zM527.64 277.17v-5.12h1.28v.63a1.26 1.26 0 0 1 1.09-.79c.76 0 1.09.59 1.09 1.6v3.67h-1.28v-3.51c0-.34-.13-.5-.38-.5s-.4.16-.51.42v3.6zM533 275.72v-2.55h-.36v-1.11h.36v-1.5h1.29v1.5h.6v1.11h-.6v2.42c0 .36.19.44.37.44a.63.63 0 0 0 .24 0v1.18a1.58 1.58 0 0 1-.48.08c-.86-.05-1.42-.5-1.42-1.57zM535.46 277.17v-7.4h1.28v2.91a1.26 1.26 0 0 1 1.09-.79c.76 0 1.09.59 1.09 1.6v3.67h-1.28v-3.51c0-.34-.13-.5-.38-.5s-.4.16-.51.42v3.6zM541.5 277.27c-1.24 0-2.11-.79-2.11-2.71 0-1.7.78-2.66 1.75-2.66s1.59.6 1.59 2.27v.83h-2.06c.07.74.35 1.05.93 1.05a1.57 1.57 0 0 0 .86-.24l.18 1.11a1.84 1.84 0 0 1-1.14.35zm-.83-3.26h.9c0-.78-.14-1-.42-1s-.45.41-.48.99zM546.71 277.32c-1.48 0-2.42-1.1-2.42-3.64s1.05-3.72 2.51-3.72a2.5 2.5 0 0 1 1.29.29l-.33 1.27a1.59 1.59 0 0 0-.8-.21c-.8 0-1.26.73-1.26 2.35s.24 2.34 1 2.34h.18v-1.61h-.5v-1.25h1.8v3.75a2.46 2.46 0 0 1-1.47.43zM549 277.17v-5.12h1.29v.95c.2-.49.56-1 1.08-1v1.63c-.25 0-.85-.09-1.08.36v3.2zM553.5 277.32c-1.09 0-1.88-.93-1.88-2.67s.78-2.75 1.88-2.75 1.88 1 1.88 2.75-.79 2.67-1.88 2.67zm0-1.2c.33 0 .58-.41.58-1.49s-.24-1.54-.58-1.54-.58.46-.58 1.54.24 1.49.58 1.49zM555.59 272.06h1.31l.36 1.74.22 1.47.24-1.47.35-1.74h1.15l-1.22 5.11h-1.2zM561.56 277.27c-1.24 0-2.11-.79-2.11-2.71 0-1.7.78-2.66 1.75-2.66s1.59.6 1.59 2.27v.83h-2.06c.07.74.35 1.05.93 1.05a1.57 1.57 0 0 0 .86-.24l.18 1.11a1.84 1.84 0 0 1-1.14.35zm-.83-3.26h.9c0-.78-.14-1-.42-1s-.45.41-.48.99zM493.63 299.66l1.5-5.86h-1.81v-1.25h3.44v1l-1.57 6.14zM500.71 294.33l-.82.91v-1.41l1.13-1.33h1v7.17h-1.35zM503.61 294.33l-.82.91v-1.41l1.13-1.33h1v7.17h-1.35zM506.5 294.33l-.82.91v-1.41l1.13-1.33h1v7.17h-1.31zM509.4 294.33l-.82.91v-1.41l1.13-1.33h1v7.17h-1.31zM512.87 292.55h1.75c1.14 0 1.85.81 1.85 2.34s-.84 2.25-1.85 2.25h-.37v2.52h-1.38zm1.38 1.2V296h.25c.47 0 .64-.39.64-1.14s-.17-1.13-.64-1.13zM518.89 299.75c-1.24 0-2.11-.79-2.11-2.71 0-1.7.78-2.66 1.75-2.66s1.59.6 1.59 2.27v.84h-2.06c.07.74.35 1.05.93 1.05a1.57 1.57 0 0 0 .86-.24l.18 1.11a1.84 1.84 0 0 1-1.14.34zm-.83-3.26h.9c0-.78-.14-1-.42-1s-.45.41-.48 1.01zM520.62 299.66v-5.12h1.29v.91c.2-.49.56-1 1.08-1v1.63c-.25 0-.85-.09-1.08.36v3.2zM525.56 299.12a1.18 1.18 0 0 1-1 .69c-.76 0-1.12-.58-1.12-1.59v-3.67h1.28v3.51c0 .34.13.5.38.5a.55.55 0 0 0 .47-.33v-3.68h1.28v5.12h-1.28zM527.23 294.54h1.31l.36 1.74.22 1.47.24-1.47.35-1.74h1.15l-1.22 5.12h-1.2zM531.89 292.48a.75.75 0 0 1 .72.82.72.72 0 1 1-.72-.82zm-.64 2.07h1.28v5.12h-1.28zM534.91 299.19a.87.87 0 0 1-.83.59c-.76 0-1.09-.79-1.09-1.63 0-1.07.51-1.66 1.2-1.66a.88.88 0 0 1 .71.31v-.47c0-.53-.29-.73-.65-.73a1.4 1.4 0 0 0-.82.26l-.26-1.1a2.28 2.28 0 0 1 1.34-.37c1.18 0 1.67.7 1.67 1.9v3.38h-1.28zm0-.56v-1.12a.47.47 0 0 0-.31-.12c-.22 0-.38.21-.38.68s.13.71.38.71a.43.43 0 0 0 .31-.15zM536.83 299.66v-5.12h1.28v.63a1.26 1.26 0 0 1 1.09-.79c.76 0 1.09.59 1.09 1.6v3.67H539v-3.51c0-.34-.13-.5-.38-.5s-.4.16-.51.42v3.6zM542.18 292.55h1.72c1.09 0 1.76.59 1.76 1.92a1.52 1.52 0 0 1-.78 1.47 1.64 1.64 0 0 1 1 1.66 1.88 1.88 0 0 1-2 2.06h-1.73zm1.37 1.1v1.81h.24c.41 0 .59-.29.59-.94s-.18-.86-.59-.87zm0 2.87v2h.28c.46 0 .68-.29.68-1.05s-.22-1-.67-1zM547 292.48a.75.75 0 0 1 .72.82.72.72 0 1 1-.72-.82zm-.64 2.07h1.28v5.12h-1.28zM549.72 295.57c-.29 0-.42.11-.42.3a.49.49 0 0 0 .29.41 6.92 6.92 0 0 1 .82.56 1.64 1.64 0 0 1 .54 1.29 1.49 1.49 0 0 1-1.58 1.65 2 2 0 0 1-1.29-.39l.31-1.07a1.58 1.58 0 0 0 .91.32c.38 0 .46-.19.46-.41a.47.47 0 0 0-.23-.35 5.68 5.68 0 0 1-.88-.62 1.56 1.56 0 0 1-.46-1.22 1.41 1.41 0 0 1 1.48-1.6 2.16 2.16 0 0 1 1.21.32l-.29 1.09a1.57 1.57 0 0 0-.87-.28zM551.58 298.21v-2.55h-.36v-1.11h.36V293h1.29v1.5h.6v1.11h-.6v2.42c0 .36.19.44.37.44a.63.63 0 0 0 .24 0v1.18a1.58 1.58 0 0 1-.48.08c-.92 0-1.42-.45-1.42-1.52zM554 299.66v-5.12h1.29v.91c.2-.49.56-1 1.08-1v1.63c-.25 0-.85-.09-1.08.36v3.2zM558.54 299.8c-1.09 0-1.88-.93-1.88-2.67s.78-2.75 1.88-2.75 1.88 1 1.88 2.75-.79 2.67-1.88 2.67zm0-1.2c.33 0 .58-.41.58-1.49s-.24-1.54-.58-1.54-.58.46-.58 1.54.24 1.5.58 1.5zM494.28 313.31l-.95.91v-1.41l1.32-1.33h1.21v7.17h-1.58zM499 318.81c-1.37 0-2.27-1-2.27-3.67s.93-3.75 2.27-3.75 2.27 1.11 2.27 3.75-.87 3.67-2.27 3.67zm0-1.31c.45 0 .66-.48.66-2.38s-.21-2.42-.66-2.42-.66.6-.66 2.42.25 2.38.66 2.38zM503.44 311.54h1.62v5.88h1.62v1.22h-3.25zM509.78 318.11a1.39 1.39 0 0 1-1.19.69c-.88 0-1.3-.58-1.3-1.59v-3.67h1.49V317c0 .34.15.5.45.5a.64.64 0 0 0 .55-.33v-3.68h1.49v5.12h-1.49zM515.19 318.48a1.87 1.87 0 0 1-1 .27c-1.41 0-2.31-.86-2.31-2.63s1-2.7 2.33-2.7a2.21 2.21 0 0 1 1 .22l-.35 1.19a1.18 1.18 0 0 0-.6-.15c-.55 0-.9.51-.9 1.42s.29 1.4.92 1.4a1.2 1.2 0 0 0 .6-.15zM517.74 318.17a1 1 0 0 1-1 .59c-.88 0-1.26-.79-1.26-1.63 0-1.07.59-1.66 1.4-1.66a1.09 1.09 0 0 1 .83.31v-.47a.68.68 0 0 0-.76-.73 1.81 1.81 0 0 0-.95.26l-.3-1.1a3 3 0 0 1 1.56-.37 1.7 1.7 0 0 1 1.95 1.9v3.38h-1.49zm0-.56v-1.12a.59.59 0 0 0-.36-.12c-.26 0-.44.21-.44.68s.15.71.44.71a.53.53 0 0 0 .36-.15zM520 311.24h1.5v7.4H520zM523 311.46a.82.82 0 1 1 0 1.64.81.81 0 0 1-.83-.83.8.8 0 0 1 .83-.81zm-.75 2.07h1.49v5.12h-1.49zM493.34 341.13v-.95l1.18-2.13a4.27 4.27 0 0 0 .66-2 .7.7 0 0 0-.75-.79 1.69 1.69 0 0 0-.82.23l-.29-1.21a2.64 2.64 0 0 1 1.41-.33 1.83 1.83 0 0 1 2.08 2 6.39 6.39 0 0 1-1.17 3l-.58 1h1.72v1.24zM500.11 341.13l.49-7.11h1.58l.65 3 .16 1.09.21-1.09.71-3h1.49l.49 7.11h-1.54l-.14-2.83v-1.48l-.25 1.48-.63 2.83h-.92l-.58-2.83-.21-1.48v1.48l-.16 2.83zM510.65 341a2.28 2.28 0 0 1-1.23.29c-1.8 0-2.92-1.18-2.92-3.59s1.24-3.74 2.88-3.74a2.48 2.48 0 0 1 1.28.27l-.36 1.21a2 2 0 0 0-.81-.16c-.89 0-1.36.87-1.36 2.41s.48 2.3 1.39 2.3a1.77 1.77 0 0 0 .78-.18zM512.68 341.13V334h1.61v3.11l1.37-3.11h1.52l-1.43 3.24 1.59 3.87h-1.69l-1.36-3.24v3.24zM518.5 333.95a.82.82 0 1 1 0 1.64.82.82 0 1 1 0-1.64zm-.75 2.07h1.49v5.12h-1.49zM520.18 339.68v-2.55h-.42V336h.42v-1.5h1.5v1.5h.7v1.11h-.7v2.42a.38.38 0 0 0 .43.44.83.83 0 0 0 .28 0v1.18a2.11 2.11 0 0 1-.56.08c-1.06-.03-1.65-.48-1.65-1.55zM526.12 341a1.87 1.87 0 0 1-1 .27c-1.41 0-2.31-.86-2.31-2.63s1-2.7 2.33-2.7a2.21 2.21 0 0 1 1 .22l-.35 1.19a1.18 1.18 0 0 0-.6-.15c-.55 0-.9.51-.9 1.42s.29 1.4.92 1.4a1.2 1.2 0 0 0 .6-.15zM526.66 341.13v-7.4h1.49v2.91a1.47 1.47 0 0 1 1.27-.79c.88 0 1.26.59 1.26 1.6v3.67h-1.48v-3.51c0-.34-.15-.5-.45-.5a.66.66 0 0 0-.6.42v3.6zM533.69 341.23c-1.44 0-2.46-.79-2.46-2.71 0-1.7.9-2.66 2-2.66s1.85.6 1.85 2.27v.87h-2.39c.09.74.41 1.05 1.08 1.05a2.06 2.06 0 0 0 1-.24l.21 1.11a2.39 2.39 0 0 1-1.29.31zm-1-3.26h1c0-.78-.16-1-.48-1s-.45.41-.49 1.03zM535.69 341.13V336h1.49v.63a1.47 1.47 0 0 1 1.27-.79c.88 0 1.26.59 1.26 1.6v3.67h-1.49v-3.51c0-.34-.15-.5-.45-.5a.66.66 0 0 0-.6.42v3.6zM494.28 354.79l-.95.91v-1.41l1.32-1.33h1.21v7.17h-1.58zM496.58 360l.38-1.21a1.51 1.51 0 0 0 .77.18c.51 0 .9-.38.9-1.08s-.32-1.1-.95-1.1a1.77 1.77 0 0 0-.65.12l.24-3.83H500v1.27h-1.64l-.08 1.33a1.93 1.93 0 0 1 1.87 2.19 2.21 2.21 0 0 1-2.3 2.48 2.51 2.51 0 0 1-1.27-.35zM503.69 353h2a2.3 2.3 0 0 1 0 4.59h-.43v2.52h-1.6zm1.6 1.2v2.27h.29c.54 0 .74-.39.74-1.14s-.2-1.13-.74-1.13zM508.43 360.12V355h1.5v.91a1.52 1.52 0 0 1 1.25-1v1.63c-.29 0-1-.09-1.25.36v3.2zM513.72 360.26c-1.27 0-2.18-.93-2.18-2.67s.91-2.75 2.18-2.75 2.18 1 2.18 2.75-.9 2.67-2.18 2.67zm0-1.2c.39 0 .67-.41.67-1.49s-.29-1.54-.67-1.54-.67.46-.67 1.54.28 1.5.67 1.5zM518.47 360.26c-1.27 0-2.18-.93-2.18-2.67s.91-2.75 2.18-2.75 2.18 1 2.18 2.75-.91 2.67-2.18 2.67zm0-1.2c.39 0 .67-.41.67-1.49s-.29-1.54-.67-1.54-.67.46-.67 1.54.28 1.5.67 1.5zM521.35 356.12H521V355h.39v-.65a1.52 1.52 0 0 1 1.68-1.68 1.9 1.9 0 0 1 .54.06v1.16a1.19 1.19 0 0 0-.27 0c-.29 0-.45.17-.45.6v.51h.71v1.11h-.71v4h-1.51zM413.95 53.48l-.95.91V53l1.32-1.33h1.21v7.17h-1.58zM418 58.82v-7.11h1.61v3.11l1.39-3.11h1.52L421 54.95l1.59 3.87H421l-1.36-3.24v3.24zM424.19 56.09l-1.53-4.38h1.63l.5 1.61.27 1.16.29-1.16.47-1.61h1.4l-1.45 4.35v2.76h-1.61zM429.92 57.61c.41 0 .61-.23.61-.83v-5.07H432v5a2 2 0 0 1-2.1 2.2 2 2 0 0 1-2.22-2.2v-5h1.61v5.07c0 .63.27.83.63.83zM413.45 100.4a5.65 5.65 0 0 0 2.06-2.81 1.23 1.23 0 0 1-.94.46c-.84 0-1.55-.71-1.55-2.27s.82-2.54 2.1-2.54 2.13.93 2.13 2.84a5.49 5.49 0 0 1-1.94 4.41h-1.86zm2.23-3.78V96c0-1.27-.23-1.59-.59-1.59s-.58.39-.58 1.38.26 1.15.59 1.15a.71.71 0 0 0 .58-.32zM419.39 93.38h2c1.27 0 2.05.59 2.05 1.92a1.49 1.49 0 0 1-.9 1.47 1.64 1.64 0 0 1 1.14 1.66 2 2 0 0 1-2.28 2.06h-2zm1.59 1.1v1.81h.28c.47 0 .68-.29.68-.94s-.21-.86-.68-.87zm0 2.87v2h.32c.53 0 .79-.29.79-1.05s-.26-1-.78-1zM426.28 100.63c-1.27 0-2.18-.93-2.18-2.67s.91-2.75 2.18-2.75 2.18 1 2.18 2.75-.91 2.67-2.18 2.67zm0-1.2c.39 0 .67-.41.67-1.49s-.29-1.54-.67-1.54-.67.46-.67 1.54.28 1.49.67 1.49zM429 100.49v-5.12h1.49V96a1.35 1.35 0 0 1 1.17-.76 1 1 0 0 1 1.1.9 1.46 1.46 0 0 1 1.28-.9c.84 0 1.21.59 1.21 1.6v3.67h-1.49V97c0-.34-.09-.5-.38-.5a.56.56 0 0 0-.51.38v3.64h-1.49V97c0-.34-.09-.5-.38-.5a.56.56 0 0 0-.51.38v3.64zM437.54 99.92v.56H436v-7.4h1.49v2.84a1.38 1.38 0 0 1 1.18-.71c1 0 1.62.84 1.62 2.67s-.77 2.73-1.71 2.73a1.18 1.18 0 0 1-1.04-.69zm1.29-2c0-1.06-.28-1.44-.69-1.44a.71.71 0 0 0-.6.38v2.27a.67.67 0 0 0 .59.3c.4-.05.7-.5.7-1.55zM442.92 100a1 1 0 0 1-1 .59c-.88 0-1.26-.79-1.26-1.63 0-1.07.59-1.66 1.4-1.66a1.09 1.09 0 0 1 .83.31v-.47a.68.68 0 0 0-.76-.73 1.81 1.81 0 0 0-.95.26l-.3-1.1a3 3 0 0 1 1.56-.37 1.7 1.7 0 0 1 1.95 1.9v3.38h-1.49zm0-.56v-1.11a.59.59 0 0 0-.36-.12c-.26 0-.44.21-.44.68s.15.71.44.71a.53.53 0 0 0 .36-.15zM446.29 100.59l-1.47-5.22h1.51l.39 1.61.29 1.58.31-1.58.4-1.61h1.34l-2 6.93h-1.31zM451 93.38h1.93c1.76 0 2.83 1.2 2.83 3.59s-1.07 3.52-2.83 3.52H451zm1.61 1.28v4.54h.21c.88 0 1.29-.62 1.29-2.26s-.41-2.29-1.29-2.29zM458.41 100a1 1 0 0 1-1 .59c-.88 0-1.26-.79-1.26-1.63 0-1.07.59-1.66 1.4-1.66a1.09 1.09 0 0 1 .83.31v-.47a.68.68 0 0 0-.76-.73 1.81 1.81 0 0 0-.95.26l-.3-1.1a3 3 0 0 1 1.56-.37 1.7 1.7 0 0 1 1.95 1.9v3.38h-1.49zm0-.56v-1.11a.59.59 0 0 0-.36-.12c-.26 0-.44.21-.44.68s.15.71.44.71a.53.53 0 0 0 .36-.15zM460.64 100.49v-5.12h1.5v.91a1.52 1.52 0 0 1 1.25-1v1.63c-.29 0-1-.09-1.25.36v3.2zM465.44 99.92v.56h-1.49v-7.4h1.49v2.84a1.38 1.38 0 0 1 1.18-.71c1 0 1.62.84 1.62 2.67s-.77 2.73-1.71 2.73a1.18 1.18 0 0 1-1.09-.69zm1.29-2c0-1.06-.28-1.44-.69-1.44a.71.71 0 0 0-.6.38v2.27a.67.67 0 0 0 .59.3c.4-.05.7-.5.7-1.55zM470.82 100a1 1 0 0 1-1 .59c-.88 0-1.26-.79-1.26-1.63 0-1.07.59-1.66 1.4-1.66a1.09 1.09 0 0 1 .83.31v-.47a.68.68 0 0 0-.76-.73 1.81 1.81 0 0 0-.95.26l-.3-1.1a3 3 0 0 1 1.56-.37 1.7 1.7 0 0 1 1.95 1.9v3.38h-1.49zm0-.56v-1.11a.59.59 0 0 0-.36-.12c-.26 0-.44.21-.44.68s.15.71.44.71a.53.53 0 0 0 .36-.15zM473.05 100.49v-5.12h1.5v.91a1.52 1.52 0 0 1 1.25-1v1.63c-.29 0-1-.09-1.25.36v3.2zM412.87 142.32l.38-1.21a1.51 1.51 0 0 0 .77.18c.51 0 .9-.38.9-1.08s-.32-1.1-.95-1.1a1.77 1.77 0 0 0-.65.12l.24-3.83h2.81v1.27h-1.64l-.13 1.33a1.93 1.93 0 0 1 1.87 2.19 2.21 2.21 0 0 1-2.3 2.48 2.51 2.51 0 0 1-1.3-.35zM418.63 135.38h1.93c1.76 0 2.83 1.2 2.83 3.59s-1.07 3.52-2.83 3.52h-1.93zm1.61 1.28v4.55h.21c.88 0 1.29-.62 1.29-2.26s-.41-2.29-1.29-2.29zM426.5 141.94a1.39 1.39 0 0 1-1.19.69c-.88 0-1.3-.58-1.3-1.59v-3.67h1.49v3.51c0 .34.15.5.45.5a.64.64 0 0 0 .55-.33v-3.68h1.5v5.12h-1.5zM431 142.58c-1.44 0-2.46-.79-2.46-2.71 0-1.7.9-2.66 2-2.66s1.85.6 1.85 2.27v.84H430c.09.74.41 1.05 1.08 1.05a2.06 2.06 0 0 0 1-.24l.21 1.11a2.39 2.39 0 0 1-1.29.34zm-1-3.26h1c0-.78-.16-1-.48-1s-.42.41-.46 1zM434.49 135.38h2c1.27 0 2.05.59 2.05 1.92a1.49 1.49 0 0 1-.9 1.47 1.64 1.64 0 0 1 1.14 1.66 2 2 0 0 1-2.28 2.06h-2zm1.59 1.1v1.81h.28c.47 0 .68-.29.68-.94s-.21-.86-.68-.87zm0 2.87v2h.32c.53 0 .79-.29.79-1.05s-.26-1-.78-1zM441.4 142a1 1 0 0 1-1 .59c-.88 0-1.26-.79-1.26-1.63 0-1.07.59-1.66 1.4-1.66a1.09 1.09 0 0 1 .83.31v-.47a.68.68 0 0 0-.76-.73 1.81 1.81 0 0 0-.95.26l-.3-1.1a3 3 0 0 1 1.56-.37 1.7 1.7 0 0 1 1.95 1.9v3.38h-1.47zm0-.56v-1.12a.59.59 0 0 0-.36-.12c-.26 0-.44.21-.44.68s.15.71.44.71a.53.53 0 0 0 .36-.14zM446.77 142.31a1.87 1.87 0 0 1-1 .27c-1.41 0-2.31-.86-2.31-2.63s1-2.7 2.33-2.7a2.21 2.21 0 0 1 1 .22l-.35 1.19a1.18 1.18 0 0 0-.6-.15c-.55 0-.9.51-.9 1.42s.29 1.4.92 1.4a1.2 1.2 0 0 0 .6-.15zM448 135.3a.82.82 0 1 1 0 1.64.81.81 0 0 1-.83-.83.8.8 0 0 1 .83-.81zm-.75 2.07h1.49v5.12h-1.44zM413.95 178.82l-.95.91v-1.41l1.32-1.33h1.21v7.17h-1.58zM416.2 184l.35-1.22a1.86 1.86 0 0 0 .91.24.82.82 0 0 0 .85-.91c0-.53-.19-.94-.84-.94h-.31v-1.2h.31a.78.78 0 0 0 .83-.87c0-.54-.27-.83-.86-.83a1.69 1.69 0 0 0-.81.23l-.33-1.18a2.68 2.68 0 0 1 1.41-.35 1.82 1.82 0 0 1 2 2 1.53 1.53 0 0 1-1 1.53 1.67 1.67 0 0 1 1.08 1.73 2 2 0 0 1-2.15 2.13 2.8 2.8 0 0 1-1.44-.36zM421.92 177h2a2.3 2.3 0 0 1 0 4.59h-.43v2.52h-1.6zm1.6 1.2v2.27h.29c.54 0 .74-.39.74-1.14s-.2-1.13-.74-1.13zM428.91 184.25c-1.44 0-2.46-.79-2.46-2.71 0-1.7.9-2.66 2-2.66s1.85.6 1.85 2.27v.85h-2.39c.09.74.41 1.05 1.08 1.05a2.06 2.06 0 0 0 1-.24l.21 1.11a2.39 2.39 0 0 1-1.29.33zm-1-3.26h1c0-.78-.16-1-.48-1s-.43.4-.49 1.01zM430.92 184.15V179h1.5v.91a1.52 1.52 0 0 1 1.25-1v1.63c-.29 0-1-.09-1.25.36v3.2zM434.22 184.15V179h1.5v.91a1.52 1.52 0 0 1 1.25-1v1.63c-.29 0-1-.09-1.25.36v3.2zM438.26 177a.82.82 0 1 1 0 1.64.81.81 0 0 1-.83-.83.8.8 0 0 1 .83-.81zm-.75 2.07H439v5.12h-1.49zM442.91 184a1.87 1.87 0 0 1-1 .27c-1.41 0-2.31-.86-2.31-2.63s1-2.7 2.33-2.7a2.21 2.21 0 0 1 1 .22l-.35 1.19a1.18 1.18 0 0 0-.6-.15c-.55 0-.9.51-.9 1.42s.29 1.4.92 1.4a1.2 1.2 0 0 0 .6-.15zM445.44 184.29c-1.27 0-2.18-.93-2.18-2.67s.91-2.75 2.18-2.75 2.18 1 2.18 2.75-.91 2.67-2.18 2.67zm0-1.2c.39 0 .67-.41.67-1.49s-.29-1.54-.67-1.54-.67.46-.67 1.54.23 1.5.67 1.5zM448.2 184.15V179h1.49v.63a1.47 1.47 0 0 1 1.27-.79c.88 0 1.26.59 1.26 1.6v3.67h-1.49v-3.51c0-.34-.15-.5-.45-.5a.66.66 0 0 0-.6.42v3.6zM455.23 184.25c-1.44 0-2.46-.79-2.46-2.71 0-1.7.9-2.66 2-2.66s1.85.6 1.85 2.27v.85h-2.39c.09.74.41 1.05 1.08 1.05a2.06 2.06 0 0 0 1-.24l.21 1.11a2.39 2.39 0 0 1-1.29.33zm-1-3.26h1c0-.78-.16-1-.48-1s-.45.4-.49 1.01zM457.06 179.22a3.29 3.29 0 0 0 .58-.84.71.71 0 0 1-.6-.68.74.74 0 0 1 .75-.73.77.77 0 0 1 .75.86 2.6 2.6 0 0 1-1 1.74zM460.75 180.06c-.33 0-.49.11-.49.3s.12.29.33.41a8.29 8.29 0 0 1 1 .56 1.55 1.55 0 0 1 .63 1.29 1.62 1.62 0 0 1-1.83 1.65 2.55 2.55 0 0 1-1.5-.39l.36-1.07a2 2 0 0 0 1.06.32c.44 0 .53-.19.53-.41s-.1-.25-.27-.35a6.77 6.77 0 0 1-1-.62 1.46 1.46 0 0 1-.54-1.22 1.52 1.52 0 0 1 1.72-1.6 2.82 2.82 0 0 1 1.41.32l-.33 1.09a2 2 0 0 0-1.08-.28zM413.06 222.75a5.41 5.41 0 0 1 2-4.38h1.81v.09a5.42 5.42 0 0 0-2.07 2.83 1.21 1.21 0 0 1 .95-.47c.84 0 1.55.71 1.55 2.27s-.82 2.54-2.1 2.54-2.14-.93-2.14-2.88zm2.71.32c0-.93-.26-1.15-.59-1.15a.74.74 0 0 0-.56.31v.58c0 1.31.23 1.63.59 1.63s.56-.38.56-1.37zM419.24 225.49l.49-7.11h1.58l.65 3 .16 1.09.21-1.09.71-3h1.49l.49 7.11h-1.52l-.14-2.83v-1.48l-.25 1.48-.63 2.83h-.92l-.58-2.83-.21-1.48v1.48l-.16 2.83zM427.76 225a1 1 0 0 1-1 .59c-.88 0-1.26-.79-1.26-1.63 0-1.07.59-1.66 1.4-1.66a1.09 1.09 0 0 1 .83.31v-.47a.68.68 0 0 0-.76-.73 1.81 1.81 0 0 0-.95.26l-.3-1.1a3 3 0 0 1 1.56-.37 1.7 1.7 0 0 1 1.95 1.9v3.38h-1.49zm0-.56v-1.12a.59.59 0 0 0-.36-.12c-.26 0-.44.21-.44.68s.15.71.44.71a.53.53 0 0 0 .36-.14zM433.14 225.31a1.87 1.87 0 0 1-1 .27c-1.41 0-2.31-.86-2.31-2.63s1-2.7 2.33-2.7a2.21 2.21 0 0 1 1 .22l-.35 1.19a1.18 1.18 0 0 0-.6-.15c-.55 0-.9.51-.9 1.42s.29 1.4.92 1.4a1.2 1.2 0 0 0 .6-.15zM436.82 225.31a1.87 1.87 0 0 1-1 .27c-1.41 0-2.31-.86-2.31-2.63s1-2.7 2.33-2.7a2.21 2.21 0 0 1 1 .22l-.35 1.19a1.18 1.18 0 0 0-.6-.15c-.55 0-.9.51-.9 1.42s.29 1.4.92 1.4a1.2 1.2 0 0 0 .6-.15zM437.37 225.49v-7.4h1.49V221a1.47 1.47 0 0 1 1.27-.79c.88 0 1.26.59 1.26 1.6v3.67h-1.49V222c0-.34-.15-.5-.45-.5a.66.66 0 0 0-.6.42v3.6zM442.86 218.3a.82.82 0 1 1 0 1.64.81.81 0 0 1-.83-.83.8.8 0 0 1 .83-.81zm-.75 2.07h1.49v5.12h-1.49zM446.38 225a1 1 0 0 1-1 .59c-.88 0-1.26-.79-1.26-1.63 0-1.07.59-1.66 1.4-1.66a1.09 1.09 0 0 1 .83.31v-.47a.68.68 0 0 0-.76-.73 1.81 1.81 0 0 0-.95.26l-.3-1.1a3 3 0 0 1 1.56-.37 1.7 1.7 0 0 1 1.95 1.9v3.38h-1.49zm0-.56v-1.12a.59.59 0 0 0-.36-.12c-.26 0-.44.21-.44.68s.15.71.44.71a.53.53 0 0 0 .36-.14zM448.62 218.08h1.5v7.4h-1.5zM451.64 218.3a.82.82 0 1 1 0 1.64.81.81 0 0 1-.83-.83.8.8 0 0 1 .83-.81zm-.75 2.07h1.49v5.12h-1.49zM453.15 225.49v-5.12h1.49v.63a1.47 1.47 0 0 1 1.27-.79c.88 0 1.26.59 1.26 1.6v3.67h-1.49V222c0-.34-.15-.5-.45-.5a.66.66 0 0 0-.6.42v3.6zM459.92 225a1 1 0 0 1-1 .59c-.88 0-1.26-.79-1.26-1.63 0-1.07.59-1.66 1.4-1.66a1.09 1.09 0 0 1 .83.31v-.47a.68.68 0 0 0-.76-.73 1.81 1.81 0 0 0-.95.26l-.3-1.1a3 3 0 0 1 1.56-.37 1.7 1.7 0 0 1 1.95 1.9v3.38h-1.49zm0-.56v-1.12a.59.59 0 0 0-.36-.12c-.26 0-.44.21-.44.68s.15.71.44.71a.53.53 0 0 0 .36-.14zM412.83 266.22l.35-1.22a1.86 1.86 0 0 0 .91.24.82.82 0 0 0 .85-.91c0-.53-.19-.94-.84-.94h-.31v-1.2h.31a.78.78 0 0 0 .83-.87c0-.54-.27-.83-.86-.83a1.69 1.69 0 0 0-.81.23l-.33-1.18a2.68 2.68 0 0 1 1.41-.35 1.82 1.82 0 0 1 2 2 1.53 1.53 0 0 1-1 1.53 1.67 1.67 0 0 1 1.08 1.73 2 2 0 0 1-2.15 2.13 2.8 2.8 0 0 1-1.44-.36zM419.9 266.41v-7.11h1.64l1.2 3.06.39 1.17-.07-1.34v-2.89h1.31v7.11H423l-1.38-3.46-.43-1.26.08 1.45v3.27zM427.27 265.94a1 1 0 0 1-1 .59c-.88 0-1.26-.79-1.26-1.63 0-1.07.59-1.66 1.4-1.66a1.09 1.09 0 0 1 .83.31v-.47a.68.68 0 0 0-.76-.73 1.81 1.81 0 0 0-.95.26l-.3-1.1a3 3 0 0 1 1.56-.37 1.7 1.7 0 0 1 1.95 1.9v3.38h-1.49zm0-.56v-1.12a.59.59 0 0 0-.36-.12c-.26 0-.44.21-.44.68s.15.71.44.71a.53.53 0 0 0 .36-.15zM430.23 259.23a.82.82 0 1 1 0 1.64.81.81 0 0 1-.83-.83.8.8 0 0 1 .83-.81zm-.75 2.07H431v5.12h-1.49zM432.86 263.68l-1.53-4.38H433l.5 1.61.27 1.16.29-1.16.47-1.61h1.4l-1.45 4.35v2.76h-1.61zM438.31 265.94a1 1 0 0 1-1 .59c-.88 0-1.26-.79-1.26-1.63 0-1.07.59-1.66 1.4-1.66a1.09 1.09 0 0 1 .83.31v-.47a.68.68 0 0 0-.76-.73 1.81 1.81 0 0 0-.95.26l-.3-1.1a3 3 0 0 1 1.56-.37 1.7 1.7 0 0 1 1.95 1.9v3.38h-1.49zm0-.56v-1.12a.59.59 0 0 0-.36-.12c-.26 0-.44.21-.44.68s.15.71.44.71a.53.53 0 0 0 .36-.15zM440.63 259.3h2.18a1.91 1.91 0 0 1 2 2.17 2.06 2.06 0 0 1-.91 1.82l1.1 3.11h-1.64l-.94-2.71h-.18v2.71h-1.6zm1.6 1.2v2.11h.3c.56 0 .73-.42.73-1.08s-.18-1-.71-1zM447.53 265.94a1 1 0 0 1-1 .59c-.88 0-1.26-.79-1.26-1.63 0-1.07.59-1.66 1.4-1.66a1.09 1.09 0 0 1 .83.31v-.47a.68.68 0 0 0-.76-.73 1.81 1.81 0 0 0-.95.26l-.3-1.1a3 3 0 0 1 1.56-.37A1.7 1.7 0 0 1 449 263v3.38h-1.49zm0-.56v-1.12a.59.59 0 0 0-.36-.12c-.26 0-.44.21-.44.68s.15.71.44.71a.53.53 0 0 0 .36-.15zM413.95 303.08l-.95.92v-1.41l1.32-1.33h1.21v7.17h-1.58zM418.7 308.57c-1.37 0-2.27-1-2.27-3.67s.93-3.75 2.27-3.75 2.27 1.11 2.27 3.75-.9 3.67-2.27 3.67zm0-1.31c.45 0 .66-.48.66-2.38s-.21-2.42-.66-2.42-.66.6-.66 2.42.22 2.38.66 2.38zM423.11 301.3h1.62v5.88h1.62v1.22h-3.25zM429.44 307.87a1.39 1.39 0 0 1-1.19.69c-.88 0-1.3-.58-1.3-1.59v-3.67h1.49v3.51c0 .34.15.5.45.5a.64.64 0 0 0 .55-.33v-3.68h1.49v5.12h-1.49zM434.86 308.24a1.87 1.87 0 0 1-1 .27c-1.41 0-2.31-.86-2.31-2.63s1-2.7 2.33-2.7a2.21 2.21 0 0 1 1 .22l-.35 1.19a1.18 1.18 0 0 0-.6-.15c-.55 0-.9.51-.9 1.42s.29 1.4.92 1.4a1.2 1.2 0 0 0 .6-.15zM437.4 307.94a1 1 0 0 1-1 .59c-.88 0-1.26-.79-1.26-1.63 0-1.07.59-1.66 1.4-1.66a1.09 1.09 0 0 1 .83.31v-.47a.68.68 0 0 0-.76-.73 1.81 1.81 0 0 0-.95.26l-.3-1.1a3 3 0 0 1 1.56-.37 1.7 1.7 0 0 1 1.95 1.9v3.38h-1.47zm0-.56v-1.12a.59.59 0 0 0-.36-.12c-.26 0-.44.21-.44.68s.15.71.44.71a.53.53 0 0 0 .36-.15zM439.64 301h1.5v7.4h-1.5zM442.66 301.23a.82.82 0 1 1 0 1.64.81.81 0 0 1-.83-.83.8.8 0 0 1 .83-.81zm-.75 2.07h1.49v5.12h-1.49zM413 350.08v-.95l1.18-2.13a4.27 4.27 0 0 0 .66-2 .7.7 0 0 0-.75-.79 1.69 1.69 0 0 0-.82.23l-.29-1.21a2.64 2.64 0 0 1 1.41-.33 1.83 1.83 0 0 1 2.08 2 6.39 6.39 0 0 1-1.17 3l-.58 1h1.72v1.24zM419.78 350.08l.49-7.11h1.58l.65 3 .16 1.09.21-1.09.71-3h1.49l.49 7.11H424l-.14-2.83v-1.48l-.25 1.48-.63 2.83h-.92l-.58-2.83-.21-1.48v1.48l-.16 2.83zM430.32 349.9a2.28 2.28 0 0 1-1.23.29c-1.8 0-2.92-1.18-2.92-3.59s1.24-3.74 2.88-3.74a2.48 2.48 0 0 1 1.28.27l-.36 1.21a2 2 0 0 0-.81-.16c-.89 0-1.36.87-1.36 2.41s.48 2.3 1.39 2.3a1.77 1.77 0 0 0 .78-.18zM432.34 350.08V343H434v3.11l1.37-3.11h1.52l-1.43 3.24 1.59 3.87h-1.69l-1.36-3.27v3.24zM438.16 342.89a.82.82 0 1 1 0 1.64.81.81 0 0 1-.83-.83.8.8 0 0 1 .83-.81zm-.75 2.07h1.49v5.12h-1.49zM439.84 348.63v-2.55h-.42V345h.42v-1.5h1.5v1.5h.7v1.11h-.7v2.42a.38.38 0 0 0 .43.44.83.83 0 0 0 .28 0v1.18a2.11 2.11 0 0 1-.56.08c-1.06-.09-1.65-.53-1.65-1.6zM445.79 349.91a1.87 1.87 0 0 1-1 .27c-1.41 0-2.31-.86-2.31-2.63s1-2.7 2.33-2.7a2.21 2.21 0 0 1 1 .22l-.35 1.19a1.18 1.18 0 0 0-.6-.15c-.55 0-.9.51-.9 1.42s.29 1.4.92 1.4a1.2 1.2 0 0 0 .6-.15zM446.33 350.08v-7.4h1.49v2.91a1.47 1.47 0 0 1 1.27-.79c.88 0 1.26.59 1.26 1.6v3.67h-1.49v-3.51c0-.34-.15-.5-.45-.5a.66.66 0 0 0-.6.42v3.6zM453.36 350.17c-1.44 0-2.46-.79-2.46-2.71 0-1.7.9-2.66 2-2.66s1.85.6 1.85 2.27v.84h-2.39c.09.74.41 1.05 1.08 1.05a2.06 2.06 0 0 0 1-.24l.21 1.11a2.39 2.39 0 0 1-1.29.34zm-1-3.26h1c0-.78-.16-1-.48-1s-.45.41-.49 1.01zM455.36 350.08V345h1.49v.63a1.47 1.47 0 0 1 1.27-.79c.88 0 1.26.59 1.26 1.6v3.67h-1.48v-3.51c0-.34-.15-.5-.45-.5a.66.66 0 0 0-.6.42v3.6z" fill="#231f20"/><path d="M335.2 74.74l-.95.91v-1.41l1.32-1.33h1.21v7.17h-1.58zM339.24 80.08V73h1.61v3.11l1.37-3.11h1.52l-1.43 3.24 1.59 3.87h-1.69l-1.36-3.24v3.24zM345.45 77.34L343.92 73h1.63l.5 1.61.27 1.16.29-1.16.47-1.61h1.4l-1.45 4.35v2.76h-1.61zM351.18 78.87c.41 0 .61-.23.61-.83V73h1.47v5a2 2 0 0 1-2.1 2.2 2 2 0 0 1-2.22-2.2v-5h1.61v5c0 .67.26.87.63.87zM334.13 162.92l.38-1.21a1.51 1.51 0 0 0 .77.18c.51 0 .9-.38.9-1.08s-.32-1.1-.95-1.1a1.77 1.77 0 0 0-.65.12l.24-3.83h2.81v1.27h-1.64l-.08 1.33a1.93 1.93 0 0 1 1.87 2.19 2.21 2.21 0 0 1-2.3 2.48 2.51 2.51 0 0 1-1.35-.35zM339.89 156h1.93c1.76 0 2.83 1.2 2.83 3.59s-1.07 3.52-2.83 3.52h-1.93zm1.61 1.28v4.55h.21c.88 0 1.29-.62 1.29-2.26s-.41-2.29-1.29-2.29zM347.76 162.54a1.39 1.39 0 0 1-1.19.69c-.88 0-1.3-.58-1.3-1.59V158h1.49v3.51c0 .34.15.5.45.5a.64.64 0 0 0 .55-.33V158h1.49v5.12h-1.49zM352.29 163.17c-1.44 0-2.46-.79-2.46-2.71 0-1.7.9-2.66 2-2.66s1.85.6 1.85 2.27v.84h-2.39c.09.74.41 1.05 1.08 1.05a2.06 2.06 0 0 0 1-.24l.21 1.11a2.39 2.39 0 0 1-1.29.34zm-1-3.26h1c0-.78-.16-1-.48-1s-.45.41-.49 1.01zM355.74 156h2c1.27 0 2.05.59 2.05 1.92a1.49 1.49 0 0 1-.9 1.47A1.64 1.64 0 0 1 360 161a2 2 0 0 1-2.28 2.06h-2zm1.59 1.1v1.81h.28c.47 0 .68-.29.68-.94s-.21-.86-.68-.87zm0 2.87v2h.32c.53 0 .79-.29.79-1.05s-.26-1-.78-1zM362.66 162.6a1 1 0 0 1-1 .59c-.88 0-1.26-.79-1.26-1.63 0-1.07.59-1.66 1.4-1.66a1.09 1.09 0 0 1 .83.31v-.47a.68.68 0 0 0-.76-.73 1.81 1.81 0 0 0-.95.26l-.3-1.1a3 3 0 0 1 1.56-.37 1.7 1.7 0 0 1 1.95 1.9v3.38h-1.49zm0-.56v-1.12a.59.59 0 0 0-.36-.12c-.26 0-.44.21-.44.68s.15.71.44.71a.53.53 0 0 0 .36-.19zM368 162.91a1.87 1.87 0 0 1-1 .27c-1.41 0-2.31-.86-2.31-2.63s1-2.7 2.33-2.7a2.21 2.21 0 0 1 1 .22l-.35 1.19a1.18 1.18 0 0 0-.6-.15c-.55 0-.9.51-.9 1.42s.29 1.4.92 1.4a1.2 1.2 0 0 0 .6-.15zM369.31 155.89a.82.82 0 1 1 0 1.64.81.81 0 0 1-.83-.83.8.8 0 0 1 .83-.81zm-.75 2.07H370v5.12h-1.49zM334.08 248.22l.35-1.22a1.86 1.86 0 0 0 .91.24.82.82 0 0 0 .85-.91c0-.53-.19-.94-.84-.94h-.31v-1.2h.31a.78.78 0 0 0 .83-.87c0-.54-.27-.83-.86-.83a1.69 1.69 0 0 0-.81.23l-.33-1.18a2.68 2.68 0 0 1 1.41-.35 1.82 1.82 0 0 1 2 2 1.53 1.53 0 0 1-1 1.53 1.67 1.67 0 0 1 1.08 1.73 2 2 0 0 1-2.15 2.13 2.8 2.8 0 0 1-1.44-.36zM341.16 248.41v-7.11h1.64l1.2 3.06.39 1.17-.07-1.34v-2.89h1.31v7.11h-1.43l-1.38-3.46-.43-1.26.08 1.45v3.27zM348.53 247.94a1 1 0 0 1-1 .59c-.88 0-1.26-.79-1.26-1.63 0-1.07.59-1.66 1.4-1.66a1.09 1.09 0 0 1 .83.31v-.47a.68.68 0 0 0-.76-.73 1.81 1.81 0 0 0-.95.26l-.3-1.1a3 3 0 0 1 1.56-.37A1.7 1.7 0 0 1 350 245v3.38h-1.49zm0-.56v-1.12a.59.59 0 0 0-.36-.12c-.26 0-.44.21-.44.68s.15.71.44.71a.53.53 0 0 0 .36-.15zM351.49 241.23a.82.82 0 1 1 0 1.64.81.81 0 0 1-.83-.83.8.8 0 0 1 .83-.81zm-.75 2.07h1.49v5.12h-1.49zM354.12 245.68l-1.53-4.38h1.63l.5 1.61.27 1.16.29-1.16.47-1.61h1.4l-1.45 4.35v2.76h-1.61zM359.56 247.94a1 1 0 0 1-1 .59c-.88 0-1.26-.79-1.26-1.63 0-1.07.59-1.66 1.4-1.66a1.09 1.09 0 0 1 .83.31v-.47a.68.68 0 0 0-.76-.73 1.81 1.81 0 0 0-.95.26l-.3-1.1a3 3 0 0 1 1.56-.37 1.7 1.7 0 0 1 1.95 1.9v3.38h-1.49zm0-.56v-1.12a.59.59 0 0 0-.36-.12c-.26 0-.44.21-.44.68s.15.71.44.71a.53.53 0 0 0 .36-.15zM361.89 241.3h2.18a1.91 1.91 0 0 1 2 2.17 2.06 2.06 0 0 1-.91 1.82l1.1 3.11h-1.64l-.94-2.71h-.18v2.71h-1.6zm1.6 1.2v2.11h.3c.56 0 .73-.42.73-1.08s-.18-1-.71-1zM368.78 247.94a1 1 0 0 1-1 .59c-.88 0-1.26-.79-1.26-1.63 0-1.07.59-1.66 1.4-1.66a1.09 1.09 0 0 1 .83.31v-.47a.68.68 0 0 0-.76-.73 1.81 1.81 0 0 0-.95.26l-.3-1.1a3 3 0 0 1 1.56-.37 1.7 1.7 0 0 1 1.95 1.9v3.38h-1.49zm0-.56v-1.12a.59.59 0 0 0-.36-.12c-.26 0-.44.21-.44.68s.15.71.44.71a.53.53 0 0 0 .36-.15zM334.26 330.08v-.95l1.18-2.13a4.27 4.27 0 0 0 .66-2 .7.7 0 0 0-.75-.79 1.69 1.69 0 0 0-.82.23l-.29-1.21a2.64 2.64 0 0 1 1.41-.33 1.83 1.83 0 0 1 2.08 2 6.39 6.39 0 0 1-1.17 3l-.58 1h1.72v1.24zM341 330.08l.49-7.11h1.58l.65 3 .16 1.09.21-1.09.71-3h1.49l.49 7.11h-1.48l-.14-2.83v-1.48l-.25 1.48-.63 2.83h-.92l-.58-2.83-.21-1.48v1.48l-.16 2.83zM351.57 329.9a2.28 2.28 0 0 1-1.23.29c-1.8 0-2.92-1.18-2.92-3.59s1.24-3.74 2.88-3.74a2.48 2.48 0 0 1 1.28.27l-.36 1.21a2 2 0 0 0-.81-.16c-.89 0-1.36.87-1.36 2.41s.48 2.3 1.39 2.3a1.77 1.77 0 0 0 .78-.18zM353.6 330.08V323h1.61v3.11l1.37-3.11h1.52l-1.43 3.24 1.59 3.87h-1.69l-1.36-3.24v3.24zM359.42 322.89a.82.82 0 1 1 0 1.64.81.81 0 0 1-.83-.83.8.8 0 0 1 .83-.81zm-.75 2.07h1.49v5.12h-1.49zM361.1 328.63v-2.55h-.42V325h.42v-1.5h1.5v1.5h.7v1.11h-.7v2.42a.38.38 0 0 0 .43.44.83.83 0 0 0 .28 0v1.18a2.11 2.11 0 0 1-.56.08c-1.06-.09-1.65-.53-1.65-1.6zM367 329.91a1.87 1.87 0 0 1-1 .27c-1.41 0-2.31-.86-2.31-2.63s1-2.7 2.33-2.7a2.21 2.21 0 0 1 1 .22l-.35 1.19a1.18 1.18 0 0 0-.6-.15c-.55 0-.9.51-.9 1.42s.29 1.4.92 1.4a1.2 1.2 0 0 0 .6-.15zM367.59 330.08v-7.4h1.49v2.91a1.47 1.47 0 0 1 1.27-.79c.88 0 1.26.59 1.26 1.6v3.67h-1.49v-3.51c0-.34-.15-.5-.45-.5a.66.66 0 0 0-.6.42v3.6zM374.61 330.17c-1.44 0-2.46-.79-2.46-2.71 0-1.7.9-2.66 2-2.66s1.85.6 1.85 2.27v.84h-2.39c.09.74.41 1.05 1.08 1.05a2.06 2.06 0 0 0 1-.24l.21 1.11a2.39 2.39 0 0 1-1.29.34zm-1-3.26h1c0-.78-.16-1-.48-1s-.45.41-.49 1.01zM376.62 330.08V325h1.49v.63a1.47 1.47 0 0 1 1.27-.79c.88 0 1.26.59 1.26 1.6v3.67h-1.49v-3.51c0-.34-.15-.5-.45-.5a.66.66 0 0 0-.6.42v3.6z" fill="#221f1f"/></g></svg>