<svg xmlns="http://www.w3.org/2000/svg" xmlns:xlink="http://www.w3.org/1999/xlink" viewBox="0 0 612.04 395.91"><defs><clipPath id="clip-path"><rect x="-0.03" y="-0.03" width="612.01" height="395.99" fill="none"/></clipPath></defs><title>TopRight-box-01</title><g style="isolation:isolate"><g id="Layer_1" data-name="Layer 1"><g clip-path="url(#clip-path)"><rect x="-612.04" y="-0.03" width="1224.02" height="791.98" fill="#d0d2d3"/><circle cx="3.45" cy="404.82" r="370.75" fill="#caccce"/><polyline points="253.62 214.42 201.68 214.42 201.68 570.54 253.62 570.54" fill="none" stroke="#fff" stroke-miterlimit="10" stroke-width="2"/><rect x="-52.18" y="-4.64" width="105.25" height="799.53" fill="#b1b3b5"/><path d="M-58.85,41.32c-.4.31-1.09.88-1.09.88a2,2,0,0,1-1.06.56,5.2,5.2,0,0,1-2.33-1V32.89h4.48v8.43ZM-74,29.57V21.45l1.55-.92,3.07,2.22v6.81Zm8.57,11.61V22.37l1.62-1V41.68a9.66,9.66,0,0,0-1.62-.5Zm2.08-11.61V21.21l1-.64a6,6,0,0,0,3.46,2.26v6.74Zm11.12,13a6.45,6.45,0,0,1-2.72-1.31V22.94a4.06,4.06,0,0,0,2-3l-.07-.1a6.63,6.63,0,0,1-2.26.35A4.64,4.64,0,0,1-59,18.24l-5.5,3.14c-1.44-1-3.2-2.24-4.59-3.25l-7.13,4.13c-2.26,1.31-3.85,2.83-3.85,5.33v2h-.53a2.85,2.85,0,0,0-3.14,2.75,2.5,2.5,0,0,0,.88,2l.1,0a1.84,1.84,0,0,1,2.08-1.52h.6v4.34a3.61,3.61,0,0,1-1.31,3.11l0,.07c2.79-.27,5.22-1.68,5.22-4.52V22.69c.56-.32.88-.54,1.69-1V40.33c0,1.67-.65,2.22-2.29,2.22-1.86,0-3.74-.85-5.47-.85-2.68,0-4.13,1.68-4.27,4.41l.21.07a3.43,3.43,0,0,1,3.1-1.27c1.7,0,3.35.88,5.12.88C-75.54,45.8-74,44.36-74,42V32.89h4.66v8.5a7,7,0,0,0-3.39,3.74l.07.18a6,6,0,0,1,3.53-1.13A8.42,8.42,0,0,1-64,45.77c.88-.74,3.45-2.61,4.48-3.39,1.37,1.06,3,2.32,4.13,3.35,1.26-1.24,3.25-3.1,3.25-3.1l0-.07Zm15.63-.39L-39,43.58a4.85,4.85,0,0,1-2-4.34c0-1.84.6-3.21,2.36-3.21a6.81,6.81,0,0,1,2,.28v5.86Zm-2.19-6.67a8.77,8.77,0,0,0-1.87.28V29.54l.17-.14c1.57,1.05,2.53,1.71,3.88,2.68v3.7a8.13,8.13,0,0,0-2.19-.28ZM-31.18,43A3.86,3.86,0,0,1-33,42.1V30.56c-2-1.36-3.26-2.15-4.9-3.25a40.84,40.84,0,0,1-5.4,3.14V34.3a14.11,14.11,0,0,1,2.5,1.52c-2.48.91-3.74,2.59-3.74,4.59a5.9,5.9,0,0,0,3.1,5.33c2.09-1.32,2.91-1.9,4.45-2.79,1.53,1.14,2.44,1.83,3.64,2.75l2.22-2.61,0-.07ZM34.54,34.3l-3.07,1.91V29.68l.28-.18c.74,1.33,1.86,3.28,2.79,4.8Zm-.32-7c-1.49,1.08-4.49,3.07-6.32,4.16V42.7c1.37.9,3,2,4.34,3,1.31-1.47,2.65-2.78,4-4.06L36,41.39c-.84.84-1.21,1.27-1.69,1.27s-1.13-.4-2.79-1.41V36.7l6.28-3.88c-1.39-2.09-2.55-3.87-3.53-5.51Zm22.9,14.86-2.4,1.41a4.84,4.84,0,0,1-2-4.34c0-1.84.6-3.21,2.37-3.21a6.83,6.83,0,0,1,2,.28v5.86ZM54.94,35.5a8.79,8.79,0,0,0-1.87.28V29.54l.21-.14c1.57,1.05,2.5,1.71,3.85,2.68v3.7a8.15,8.15,0,0,0-2.19-.28ZM62.52,43a3.86,3.86,0,0,1-1.84-.92V30.56c-2-1.36-3.26-2.15-4.9-3.25a40.65,40.65,0,0,1-5.4,3.14V34.3a14.12,14.12,0,0,1,2.51,1.52c-2.48.91-3.74,2.59-3.74,4.59a5.91,5.91,0,0,0,3.11,5.33c2.09-1.32,2.91-1.9,4.45-2.79,1.53,1.14,2.44,1.83,3.63,2.75l2.22-2.61,0-.07Zm16.83-.53-.63.49A36.28,36.28,0,0,1,75,40.58V28.94c.6-.36,1.18-.66,2-1.16l2.36,2.29V42.49Zm3.56-13.66c-4.06-4.14-7.57-7.73-9.14-9.35-.82.72-1.84,1.52-3.07,2.4l0,.07a5.29,5.29,0,0,1,1.94,1.41l4.06,4.09c-2,1.17-3.73,2.11-5.29,3v12c1.45,1,3.28,2.21,4.76,3.35a33,33,0,0,1,6.7-5V28.83ZM-75,19l-.21-.1a3.14,3.14,0,0,1-1.83.63c-1.11,0-2.37-.78-3.63-.78-2,0-3.83,1.41-4.13,4.34l.18.11A2.78,2.78,0,0,1-82,21.63c1,0,2.51.74,3.25.74,1.54,0,2.74-1.26,3.67-3.39Zm30,23.85,0-.07a6,6,0,0,1-2.08-.92V29.29c-1-.68-1.76-1.26-2.68-2L-52.18,30l0,.07a3.5,3.5,0,0,1,1.45.85V43.37c1,.68,2.24,1.6,3.21,2.36,1.54-1.84,2.47-2.89,2.47-2.89ZM-47.1,22.55c-.8-.62-1.63-1.3-2.4-2-.73.9-1.4,1.61-2,2.29.91.7,1.81,1.33,2.47,1.91.8-.95,1.4-1.62,2-2.22ZM-7.89,42.8l0-.07A5.05,5.05,0,0,1-10,41.85V30c-.94-.61-3.21-2-4.23-2.68-1.16,1-2.29,1.94-3.49,2.9-1.27-.92-2.82-2-4-2.82-1.38,1.11-2.56,2-3.6,2.82-1.3-1-2.52-2-3.64-2.86-.73.88-1.66,1.84-2.51,2.68l0,.07c.6.06,1,.28,2.15,1.31v12.7c.54.39,1.37,1.05,2.12,1.66.73-.78,1.6-1.61,2.43-2.4-.29-.15-.66-.38-1-.6V31.05l1.77-1.41,2.5,1.73v12.7s1.23.95,2.12,1.66c.58-.58,1.82-1.75,2.47-2.36l-1-.64V30.91l1.45-1.17,2.82,1.73V43.37c1.14.79,2.14,1.52,3.21,2.36,1.78-2.18,2.47-2.93,2.47-2.93Zm7.23,0,0-.07a6,6,0,0,1-2.08-.92V29.29c-1-.68-1.76-1.26-2.68-2L-7.82,30l0,.07a3.5,3.5,0,0,1,1.45.85V43.37c1,.68,2.24,1.6,3.21,2.36,1.54-1.84,2.47-2.89,2.47-2.89ZM-2.74,22.55c-.8-.62-1.63-1.3-2.4-2-.73.9-1.4,1.61-2,2.29.91.7,1.8,1.33,2.47,1.91.8-.95,1.39-1.62,2-2.22Zm14.87-.07L12,22.41c-2.49.74-4.34,2.34-4.34,5.36v1.8H6.84a2.82,2.82,0,0,0-3.11,2.75,2.49,2.49,0,0,0,.85,2h.11c.15-.78.67-1.48,2.08-1.48h.92v5a2.74,2.74,0,0,1-.81,2l.18.11a6,6,0,0,0,4.55-5.58V26.29c0-2.19.16-3.14.53-3.81ZM26.71,19.3l-.07-.14a6.77,6.77,0,0,1-2.61.49,5.43,5.43,0,0,1-3.64-1.38c-.82.91-1.85,2-2.72,2.86a5.47,5.47,0,0,0,2.72,1.38v7.06H13.83V18.46h-.46V41.89a10,10,0,0,0-4.23-1A6.36,6.36,0,0,0,2.71,45.2l.07.18a8.66,8.66,0,0,1,4.55-1.17,8.18,8.18,0,0,1,5.12,1.52c1.07-1.45,2.57-3.17,3.42-4.2l-.28-.25c-.34.49-.81,1-1.16,1a1.34,1.34,0,0,1-.6-.18V32.89h6.56v8.5a5.11,5.11,0,0,0-4.13,4.06l0,.14a6.88,6.88,0,0,1,4-1.23,5.22,5.22,0,0,1,3.56,1.38l2.82-3a6.46,6.46,0,0,0-2.33-1V22.34a4.67,4.67,0,0,0,2.36-3Zm-14.4-.21L12.24,19a3,3,0,0,1-1.94.67c-1.11,0-2.37-.78-3.63-.78-2,0-3.79,1.37-4.09,4.31l.14.14a2.79,2.79,0,0,1,2.72-1.55c1,0,2.51.74,3.25.74,1.54,0,2.7-1.26,3.63-3.39Zm37.55,10,0-.11a5.23,5.23,0,0,1-3.74-1.69c-.94,1-1.67,1.68-2.72,2.61C42.11,29,41.23,28.26,40,27.28L37.65,30l0,.07a5.37,5.37,0,0,1,2,1.31V42.7c1.49,1,2.92,2,4.38,3,1-1.1,2.17-2.33,3.42-3.56l-.25-.25c-.49.49-.81.71-1.23.71s-1.12-.34-2.75-1.27V30.56l.32-.32a3.67,3.67,0,0,0,3,1.41c1.45,0,2.57-1,3.28-2.54Zm20.4,13.76c-.73.73-1.72,1.83-2.58,2.86-1.26-1-2.49-1.82-3.21-2.36v-19a1.54,1.54,0,0,0-.88-1.55v-.11L68,19.51l.07.07V41.85a5,5,0,0,0,2.19,1l0,.07Z" fill="none" stroke="#b1b3b5" stroke-linecap="round" stroke-miterlimit="10" stroke-width="11"/><polyline points="505.62 60.13 447.68 60.13 447.68 86.43 505.62 86.43" fill="none" stroke="#fff" stroke-miterlimit="10" stroke-width="2"/><polyline points="426.23 72.13 368.29 72.13 368.29 114.43 426.23 114.43" fill="none" stroke="#fff" stroke-miterlimit="10" stroke-width="2"/><polyline points="373.56 93.46 315.62 93.46 315.62 177.09 373.56 177.09" fill="none" stroke="#fff" stroke-miterlimit="10" stroke-width="2"/><polyline points="314.89 138.79 262.95 138.79 262.95 301.43 314.89 301.43" fill="none" stroke="#fff" stroke-miterlimit="10" stroke-width="2"/><polyline points="373.56 260.79 315.62 260.79 315.62 344.43 373.56 344.43" fill="none" stroke="#fff" stroke-miterlimit="10" stroke-width="2"/><polyline points="426.23 154.96 368.29 154.96 368.29 197.26 426.23 197.26" fill="none" stroke="#fff" stroke-miterlimit="10" stroke-width="2"/><polyline points="426.23 238.96 368.29 238.96 368.29 281.26 426.23 281.26" fill="none" stroke="#fff" stroke-miterlimit="10" stroke-width="2"/><polyline points="426.23 322.3 368.29 322.3 368.29 364.6 426.23 364.6" fill="none" stroke="#fff" stroke-miterlimit="10" stroke-width="2"/><polyline points="505.62 101.57 447.68 101.57 447.68 127.87 505.62 127.87" fill="none" stroke="#fff" stroke-miterlimit="10" stroke-width="2"/><polyline points="505.62 143.01 447.68 143.01 447.68 169.31 505.62 169.31" fill="none" stroke="#fff" stroke-miterlimit="10" stroke-width="2"/><polyline points="505.62 184.45 447.68 184.45 447.68 210.75 505.62 210.75" fill="none" stroke="#fff" stroke-miterlimit="10" stroke-width="2"/><polyline points="505.62 225.89 447.68 225.89 447.68 252.19 505.62 252.19" fill="none" stroke="#fff" stroke-miterlimit="10" stroke-width="2"/><polyline points="505.62 267.33 447.68 267.33 447.68 293.63 505.62 293.63" fill="none" stroke="#fff" stroke-miterlimit="10" stroke-width="2"/><polyline points="505.62 308.77 447.68 308.77 447.68 335.07 505.62 335.07" fill="none" stroke="#fff" stroke-miterlimit="10" stroke-width="2"/><polyline points="505.62 350.22 447.68 350.22 447.68 376.52 505.62 376.52" fill="none" stroke="#fff" stroke-miterlimit="10" stroke-width="2"/><rect x="490.07" y="56.18" width="75.67" height="16" fill="#fff"/><rect x="409.4" y="64.76" width="75.67" height="15.73" fill="#fff"/><rect x="329.9" y="85.35" width="75.67" height="16" fill="#fff"/><rect x="329.9" y="167.85" width="75.67" height="16" fill="#fff"/><rect x="329.9" y="253.35" width="75.67" height="16" fill="#fff"/><rect x="329.9" y="335.35" width="75.67" height="16" fill="#fff"/><rect x="277.57" y="292.85" width="75.67" height="16" fill="#fff"/><rect x="223.52" y="206.85" width="75.67" height="16" fill="#fff"/><rect x="277.57" y="130.85" width="75.67" height="16" fill="#fff"/><rect x="409.4" y="106.35" width="75.67" height="16" fill="#fff"/><rect x="409.4" y="147.85" width="75.67" height="16" fill="#fff"/><rect x="409.4" y="189.35" width="75.67" height="16" fill="#fff"/><rect x="409.4" y="230.85" width="75.67" height="16" fill="#fff"/><rect x="409.4" y="272.35" width="75.67" height="16" fill="#fff"/><rect x="409.4" y="313.85" width="75.67" height="16" fill="#fff"/><rect x="409.4" y="355.35" width="75.67" height="16" fill="#fff"/><rect x="490.07" y="75.18" width="75.67" height="16" fill="#fff"/><rect x="490.07" y="97.68" width="75.67" height="16" fill="#fff"/><rect x="490.07" y="116.68" width="75.67" height="16" fill="#fff"/><rect x="490.07" y="139.18" width="75.67" height="16" fill="#fff"/><rect x="490.07" y="158.18" width="75.67" height="16" fill="#fff"/><rect x="490.07" y="180.68" width="75.67" height="16" fill="#fff"/><rect x="490.07" y="199.68" width="75.67" height="16" fill="#fff"/><rect x="490.07" y="222.18" width="75.67" height="16" fill="#fff"/><rect x="490.07" y="241.18" width="75.67" height="16" fill="#fff"/><rect x="490.07" y="263.68" width="75.67" height="16" fill="#fff"/><rect x="490.07" y="282.68" width="75.67" height="16" fill="#fff"/><rect x="490.07" y="305.18" width="75.67" height="16" fill="#fff"/><rect x="490.07" y="324.18" width="75.67" height="16" fill="#fff"/><rect x="490.07" y="346.68" width="75.67" height="16" fill="#fff"/><rect x="490.07" y="365.68" width="75.67" height="16" fill="#fff"/><path d="M494.42,62.34l-1,.91V61.84l1.32-1.33H496v7.18h-1.58Z" fill="#231f20"/><path d="M498.46,67.68V60.56h1.62v3.12l1.37-3.12H503l-1.44,3.24,1.6,3.88h-1.69l-1.36-3.24v3.24Z" fill="#231f20"/><path d="M504.67,64.94l-1.53-4.38h1.64l.5,1.62.27,1.16h0l.29-1.16.48-1.62h1.41l-1.46,4.35v2.77h-1.62Z" fill="#231f20"/><path d="M510.4,66.47c.41,0,.61-.23.61-.83V60.56h1.47v5.06a2,2,0,0,1-2.1,2.21,2,2,0,0,1-2.22-2.21V60.56h1.62v5.08C509.77,66.27,510,66.47,510.4,66.47Z" fill="#231f20"/><rect x="161.28" y="386.96" width="75.67" height="16" fill="#fff"/><path d="M494.42,81.34l-1,.91V80.84l1.32-1.33H496v7.18h-1.58Z" fill="#231f20"/><path d="M496.91,83.94a5.42,5.42,0,0,1,2-4.38h1.82v.09a5.43,5.43,0,0,0-2.07,2.83,1.21,1.21,0,0,1,1-.48c.85,0,1.55.71,1.55,2.27s-.82,2.55-2.1,2.55S496.91,85.89,496.91,83.94Zm2.71.32c0-.93-.26-1.15-.59-1.15a.74.74,0,0,0-.56.31c0,.19,0,.38,0,.58,0,1.31.23,1.64.59,1.64S499.62,85.26,499.62,84.27Z" fill="#231f20"/><path d="M504.18,80.79h-1.24V79.56H507v1.23H505.8v5.89h-1.63Z" fill="#231f20"/><path d="M509.61,86.21a1,1,0,0,1-1,.59c-.88,0-1.26-.79-1.26-1.64,0-1.07.59-1.66,1.4-1.66a1.1,1.1,0,0,1,.83.31v-.47a.68.68,0,0,0-.76-.73,1.82,1.82,0,0,0-1,.26l-.3-1.1a3,3,0,0,1,1.56-.37,1.7,1.7,0,0,1,1.95,1.9v3.38h-1.49Zm0-.56V84.52a.59.59,0,0,0-.36-.12c-.26,0-.44.21-.44.68s.15.71.44.71A.53.53,0,0,0,509.61,85.65Z" fill="#231f20"/><path d="M513.34,86.21V88.5h-1.49V81.56h1.49v.59a1.38,1.38,0,0,1,1.21-.75c.93,0,1.6.85,1.6,2.67s-.77,2.74-1.71,2.74A1.19,1.19,0,0,1,513.34,86.21Zm1.29-2.14c0-1.06-.28-1.44-.69-1.44a.71.71,0,0,0-.6.38v2.27a.67.67,0,0,0,.59.3C514.33,85.58,514.63,85.12,514.63,84.07Z" fill="#231f20"/><path d="M519.11,80.79h-1.24V79.56H522v1.23h-1.23v5.89h-1.63Z" fill="#231f20"/><path d="M524.55,86.21a1,1,0,0,1-1,.59c-.88,0-1.26-.79-1.26-1.64,0-1.07.59-1.66,1.4-1.66a1.1,1.1,0,0,1,.83.31v-.47a.68.68,0,0,0-.76-.73,1.82,1.82,0,0,0-1,.26l-.3-1.1a3,3,0,0,1,1.56-.37A1.7,1.7,0,0,1,526,83.3v3.38h-1.49Zm0-.56V84.52a.59.59,0,0,0-.36-.12c-.26,0-.44.21-.44.68s.15.71.44.71A.53.53,0,0,0,524.55,85.65Z" fill="#231f20"/><path d="M528.27,86.21V88.5h-1.49V81.56h1.49v.59a1.38,1.38,0,0,1,1.21-.75c.93,0,1.6.85,1.6,2.67s-.77,2.74-1.71,2.74A1.19,1.19,0,0,1,528.27,86.21Zm1.29-2.14c0-1.06-.28-1.44-.69-1.44a.71.71,0,0,0-.6.38v2.27a.67.67,0,0,0,.59.3C529.27,85.58,529.56,85.12,529.56,84.07Z" fill="#231f20"/><path d="M493.46,107.35a2,2,0,0,1,.93-1.7,2.27,2.27,0,0,1-.81-1.75,1.82,1.82,0,0,1,1.87-1.95,1.74,1.74,0,0,1,1.88,1.83,2,2,0,0,1-.81,1.65,2.13,2.13,0,0,1,.93,1.81,1.91,1.91,0,0,1-2,2.1A1.85,1.85,0,0,1,493.46,107.35Zm2.5,0a1.5,1.5,0,0,0-.67-1.17,1.66,1.66,0,0,0-.47,1.15c0,.5.22.84.59.84S496,107.83,496,107.34Zm-.36-2.48a1.45,1.45,0,0,0,.47-1c0-.39-.17-.71-.54-.71s-.54.33-.54.7A1.35,1.35,0,0,0,495.6,104.86Z" fill="#231f20"/><path d="M503.45,109a2.28,2.28,0,0,1-1.24.29c-1.81,0-2.93-1.18-2.93-3.59s1.25-3.75,2.89-3.75a2.48,2.48,0,0,1,1.28.27l-.36,1.21a2,2,0,0,0-.81-.16c-.89,0-1.36.88-1.36,2.42s.48,2.3,1.39,2.3a1.76,1.76,0,0,0,.78-.18Z" fill="#231f20"/><path d="M506,108.71a1,1,0,0,1-1,.59c-.88,0-1.26-.79-1.26-1.64,0-1.07.59-1.66,1.4-1.66a1.1,1.1,0,0,1,.83.31v-.47a.68.68,0,0,0-.76-.73,1.82,1.82,0,0,0-1,.26l-.3-1.1a3,3,0,0,1,1.56-.37,1.7,1.7,0,0,1,1.95,1.9v3.38H506Zm0-.56V107a.59.59,0,0,0-.36-.12c-.26,0-.44.21-.44.68s.15.71.44.71A.53.53,0,0,0,506,108.15Z" fill="#231f20"/><path d="M508.25,109.18v-5.12h1.5V105a1.52,1.52,0,0,1,1.25-1v1.63c-.29,0-1-.09-1.25.36v3.2Z" fill="#231f20"/><path d="M514.16,108.58a1.26,1.26,0,0,1-1.13.72c-1,0-1.67-.85-1.67-2.67s.77-2.74,1.73-2.74a1.12,1.12,0,0,1,1.07.64v-2.77h1.49v7.42h-1.49Zm0-.88v-2.27a.67.67,0,0,0-.59-.3c-.41,0-.7.46-.7,1.51s.28,1.45.69,1.45A.71.71,0,0,0,514.16,107.7Z" fill="#231f20"/><path d="M518.42,109.32c-1.27,0-2.19-.93-2.19-2.67s.91-2.76,2.19-2.76,2.19,1,2.19,2.76S519.69,109.32,518.42,109.32Zm0-1.2c.39,0,.67-.41.67-1.49s-.29-1.54-.67-1.54-.67.47-.67,1.54S518,108.13,518.42,108.13Z" fill="#231f20"/><path d="M521.18,109.18v-5.12h1.49v.63a1.47,1.47,0,0,1,1.27-.79c.88,0,1.26.59,1.26,1.61v3.68h-1.49v-3.52c0-.34-.15-.5-.45-.5a.66.66,0,0,0-.6.42v3.6Z" fill="#231f20"/><path d="M527.58,101.78h1.19l-2.06,8.55h-1.19Z" fill="#231f20"/><path d="M530.28,103.29H529v-1.23h4.09v1.23h-1.23v5.89h-1.63Z" fill="#231f20"/><path d="M534.44,102a.82.82,0,1,1,0,1.64.82.82,0,1,1,0-1.64Zm-.75,2.07h1.49v5.12h-1.49Z" fill="#231f20"/><path d="M536,109.18v-5.12h1.5V105a1.52,1.52,0,0,1,1.25-1v1.63c-.29,0-1-.09-1.25.36v3.2Z" fill="#231f20"/><path d="M541.27,108.71a1,1,0,0,1-1,.59c-.88,0-1.26-.79-1.26-1.64,0-1.07.59-1.66,1.4-1.66a1.1,1.1,0,0,1,.83.31v-.47a.68.68,0,0,0-.76-.73,1.82,1.82,0,0,0-1,.26l-.3-1.1a3,3,0,0,1,1.56-.37,1.7,1.7,0,0,1,1.95,1.9v3.38h-1.49Zm0-.56V107a.59.59,0,0,0-.36-.12c-.26,0-.44.21-.44.68s.15.71.44.71A.53.53,0,0,0,541.27,108.15Z" fill="#231f20"/><path d="M543.5,109.18v-5.12H545v.63a1.47,1.47,0,0,1,1.27-.79c.88,0,1.26.59,1.26,1.61v3.68H546v-3.52c0-.34-.15-.5-.45-.5a.66.66,0,0,0-.6.42v3.6Z" fill="#231f20"/><path d="M550.25,109.32c-1.27,0-2.19-.93-2.19-2.67s.91-2.76,2.19-2.76,2.19,1,2.19,2.76S551.53,109.32,550.25,109.32Zm0-1.2c.39,0,.67-.41.67-1.49s-.29-1.54-.67-1.54-.67.47-.67,1.54S549.86,108.13,550.25,108.13Z" fill="#231f20"/><path d="M493.93,128.1a5.65,5.65,0,0,0,2.06-2.81,1.24,1.24,0,0,1-.94.46c-.85,0-1.55-.71-1.55-2.27s.82-2.55,2.1-2.55,2.13.93,2.13,2.84a5.5,5.5,0,0,1-1.94,4.42h-1.86Zm2.23-3.78a6.12,6.12,0,0,0,0-.62c0-1.27-.23-1.6-.59-1.6s-.58.39-.58,1.38.26,1.15.59,1.15A.71.71,0,0,0,496.16,124.31Z" fill="#231f20"/><path d="M499.86,121.06h2c1.27,0,2.05.59,2.05,1.92a1.49,1.49,0,0,1-.9,1.47,1.64,1.64,0,0,1,1.14,1.66,2,2,0,0,1-2.28,2.06h-2Zm1.6,1.1V124h.28c.48,0,.68-.29.68-.94s-.21-.86-.68-.87Zm0,2.87v2h.32c.53,0,.79-.29.79-1.06s-.26-1-.78-1Z" fill="#231f20"/><path d="M506.76,128.32c-1.27,0-2.19-.93-2.19-2.67s.91-2.76,2.19-2.76,2.19,1,2.19,2.76S508,128.32,506.76,128.32Zm0-1.2c.39,0,.67-.41.67-1.49s-.29-1.54-.67-1.54-.67.47-.67,1.54S506.37,127.13,506.76,127.13Z" fill="#231f20"/><path d="M509.53,128.18v-5.12H511v.6a1.35,1.35,0,0,1,1.17-.76,1,1,0,0,1,1.1.9,1.46,1.46,0,0,1,1.28-.9c.85,0,1.22.59,1.22,1.61v3.68H514.3v-3.52c0-.34-.09-.5-.38-.5a.56.56,0,0,0-.51.38v3.64h-1.49v-3.52c0-.34-.1-.5-.38-.5a.56.56,0,0,0-.51.38v3.64Z" fill="#231f20"/><path d="M518,127.62v.56h-1.49v-7.42H518v2.84a1.38,1.38,0,0,1,1.18-.71c1,0,1.63.85,1.63,2.67s-.77,2.74-1.71,2.74A1.18,1.18,0,0,1,518,127.62Zm1.29-2.05c0-1.06-.28-1.44-.69-1.44a.71.71,0,0,0-.6.38v2.27a.67.67,0,0,0,.59.3C519,127.08,519.31,126.62,519.31,125.57Z" fill="#231f20"/><path d="M523.41,127.71a1,1,0,0,1-1,.59c-.88,0-1.26-.79-1.26-1.64,0-1.07.59-1.66,1.4-1.66a1.1,1.1,0,0,1,.83.31v-.47a.68.68,0,0,0-.76-.73,1.82,1.82,0,0,0-1,.26l-.3-1.1a3,3,0,0,1,1.56-.37,1.7,1.7,0,0,1,1.95,1.9v3.38h-1.49Zm0-.56V126a.59.59,0,0,0-.36-.12c-.26,0-.44.21-.44.68s.15.71.44.71A.53.53,0,0,0,523.41,127.15Z" fill="#231f20"/><path d="M526.78,128.29l-1.47-5.23h1.51l.39,1.62.29,1.59h0l.31-1.59.4-1.62h1.34l-2,6.94H526.3Z" fill="#231f20"/><path d="M531.47,121.06h1.93c1.77,0,2.83,1.2,2.83,3.59s-1.07,3.53-2.83,3.53h-1.93Zm1.62,1.28v4.55h.21c.88,0,1.29-.62,1.29-2.26s-.41-2.29-1.29-2.29Z" fill="#231f20"/><path d="M538.9,127.71a1,1,0,0,1-1,.59c-.88,0-1.26-.79-1.26-1.64,0-1.07.59-1.66,1.4-1.66a1.1,1.1,0,0,1,.83.31v-.47a.68.68,0,0,0-.76-.73,1.82,1.82,0,0,0-1,.26l-.3-1.1a3,3,0,0,1,1.56-.37,1.7,1.7,0,0,1,1.95,1.9v3.38H538.9Zm0-.56V126a.59.59,0,0,0-.36-.12c-.26,0-.44.21-.44.68s.15.71.44.71A.53.53,0,0,0,538.9,127.15Z" fill="#231f20"/><path d="M541.13,128.18v-5.12h1.5V124a1.52,1.52,0,0,1,1.25-1v1.63c-.29,0-1-.09-1.25.36v3.2Z" fill="#231f20"/><path d="M545.93,127.62v.56h-1.49v-7.42h1.49v2.84a1.38,1.38,0,0,1,1.18-.71c1,0,1.63.85,1.63,2.67S548,128.3,547,128.3A1.18,1.18,0,0,1,545.93,127.62Zm1.29-2.05c0-1.06-.28-1.44-.69-1.44a.71.71,0,0,0-.6.38v2.27a.67.67,0,0,0,.59.3C546.93,127.08,547.22,126.62,547.22,125.57Z" fill="#231f20"/><path d="M551.32,127.71a1,1,0,0,1-1,.59c-.88,0-1.26-.79-1.26-1.64,0-1.07.59-1.66,1.4-1.66a1.1,1.1,0,0,1,.83.31v-.47a.68.68,0,0,0-.76-.73,1.81,1.81,0,0,0-1,.26l-.3-1.1a3,3,0,0,1,1.56-.37,1.7,1.7,0,0,1,1.95,1.9v3.38h-1.49Zm0-.56V126a.59.59,0,0,0-.36-.12c-.26,0-.44.21-.44.68s.15.71.44.71A.54.54,0,0,0,551.32,127.15Z" fill="#231f20"/><path d="M553.55,128.18v-5.12h1.5V124a1.52,1.52,0,0,1,1.25-1v1.63c-.29,0-1-.09-1.25.36v3.2Z" fill="#231f20"/><path d="M493.35,150.52l.38-1.22a1.52,1.52,0,0,0,.77.18c.51,0,.9-.38.9-1.08s-.32-1.1-1-1.1a1.78,1.78,0,0,0-.66.12l0,0,.24-3.83h2.81v1.27h-1.64l-.09,1.33a1.94,1.94,0,0,1,1.87,2.2,2.21,2.21,0,0,1-2.3,2.48A2.52,2.52,0,0,1,493.35,150.52Z" fill="#231f20"/><path d="M499.1,143.56H501c1.77,0,2.83,1.2,2.83,3.59s-1.07,3.53-2.83,3.53H499.1Zm1.62,1.28v4.55h.21c.88,0,1.29-.62,1.29-2.26s-.41-2.29-1.29-2.29Z" fill="#231f20"/><path d="M507,150.14a1.39,1.39,0,0,1-1.19.69c-.88,0-1.3-.58-1.3-1.6v-3.68H506v3.52c0,.34.15.5.45.5a.64.64,0,0,0,.55-.33v-3.69h1.49v5.12H507Z" fill="#231f20"/><path d="M511.51,150.78c-1.44,0-2.46-.79-2.46-2.72,0-1.7.9-2.66,2-2.66s1.85.6,1.85,2.27v.84h-2.4c.09.74.41,1.06,1.08,1.06a2.06,2.06,0,0,0,1-.24l.21,1.11A2.39,2.39,0,0,1,511.51,150.78Zm-1-3.26h1c0-.78-.16-1-.48-1S510.58,146.92,510.54,147.52Z" fill="#231f20"/><path d="M515,143.56h2c1.27,0,2.05.59,2.05,1.92a1.49,1.49,0,0,1-.9,1.47,1.64,1.64,0,0,1,1.14,1.66,2,2,0,0,1-2.28,2.06h-2Zm1.6,1.1v1.82h.28c.48,0,.68-.29.68-.94s-.21-.86-.68-.87Zm0,2.87v2h.32c.53,0,.79-.29.79-1.06s-.26-1-.78-1Z" fill="#231f20"/><path d="M521.89,150.21a1,1,0,0,1-1,.59c-.88,0-1.26-.79-1.26-1.64,0-1.07.59-1.66,1.4-1.66a1.1,1.1,0,0,1,.83.31v-.47a.68.68,0,0,0-.76-.73,1.81,1.81,0,0,0-1,.26l-.3-1.1a3,3,0,0,1,1.56-.37,1.7,1.7,0,0,1,1.95,1.9v3.38h-1.49Zm0-.56v-1.12a.59.59,0,0,0-.36-.12c-.26,0-.44.21-.44.68s.15.71.44.71A.54.54,0,0,0,521.89,149.65Z" fill="#231f20"/><path d="M527.26,150.51a1.88,1.88,0,0,1-1,.27c-1.42,0-2.31-.87-2.31-2.63s1-2.7,2.33-2.7a2.22,2.22,0,0,1,1,.22l-.35,1.19a1.18,1.18,0,0,0-.6-.15c-.55,0-.9.51-.9,1.43s.29,1.41.92,1.41a1.21,1.21,0,0,0,.6-.15Z" fill="#231f20"/><path d="M528.54,143.49a.82.82,0,1,1,0,1.64.82.82,0,1,1,0-1.64Zm-.75,2.07h1.49v5.12h-1.49Z" fill="#231f20"/><path d="M494.42,164.34l-1,.91v-1.42l1.32-1.33H496v7.18h-1.58Z" fill="#231f20"/><path d="M496.66,169.68v-1l1.18-2.13a4.27,4.27,0,0,0,.66-2,.7.7,0,0,0-.75-.79,1.69,1.69,0,0,0-.82.23l-.29-1.22a2.64,2.64,0,0,1,1.42-.33,1.84,1.84,0,0,1,2.08,2,6.4,6.4,0,0,1-1.17,3l-.58,1h1.72v1.25Z" fill="#231f20"/><path d="M502.59,169.49l.35-1.23a1.86,1.86,0,0,0,.91.24.82.82,0,0,0,.86-.91c0-.53-.19-.94-.84-.94h-.31v-1.2h.31a.78.78,0,0,0,.83-.87c0-.54-.27-.83-.87-.83a1.69,1.69,0,0,0-.81.23l-.33-1.18a2.67,2.67,0,0,1,1.42-.35,1.82,1.82,0,0,1,2,2,1.53,1.53,0,0,1-1,1.53,1.67,1.67,0,0,1,1.08,1.73,2,2,0,0,1-2.16,2.13A2.8,2.8,0,0,1,502.59,169.49Z" fill="#231f20"/><path d="M506.33,169.49l.35-1.23a1.86,1.86,0,0,0,.91.24.82.82,0,0,0,.86-.91c0-.53-.19-.94-.84-.94h-.31v-1.2h.31a.78.78,0,0,0,.83-.87c0-.54-.27-.83-.87-.83a1.69,1.69,0,0,0-.81.23l-.33-1.18a2.67,2.67,0,0,1,1.42-.35,1.82,1.82,0,0,1,2,2,1.53,1.53,0,0,1-1,1.53,1.67,1.67,0,0,1,1.08,1.73,2,2,0,0,1-2.16,2.13A2.8,2.8,0,0,1,506.33,169.49Z" fill="#231f20"/><path d="M511.67,169.68v-7.12h1.62v3.12l1.37-3.12h1.52l-1.44,3.24,1.6,3.88h-1.69l-1.36-3.24v3.24Z" fill="#231f20"/><path d="M517.31,162.49a.82.82,0,1,1,0,1.64.82.82,0,1,1,0-1.64Zm-.75,2.07H518v5.12h-1.49Z" fill="#231f20"/><path d="M518.8,168.23v-2.56h-.42v-1.11h.42v-1.5h1.5v1.5h.7v1.11h-.7v2.42a.38.38,0,0,0,.43.44.83.83,0,0,0,.28,0v1.18a2.12,2.12,0,0,1-.56.08C519.39,169.75,518.8,169.3,518.8,168.23Z" fill="#231f20"/><path d="M524.56,169.51a1.88,1.88,0,0,1-1,.27c-1.42,0-2.31-.87-2.31-2.63s1-2.7,2.33-2.7a2.22,2.22,0,0,1,1,.22l-.35,1.19a1.18,1.18,0,0,0-.6-.15c-.55,0-.9.51-.9,1.43s.29,1.41.92,1.41a1.21,1.21,0,0,0,.6-.15Z" fill="#231f20"/><path d="M524.91,169.68v-7.42h1.49v2.92a1.47,1.47,0,0,1,1.27-.79c.88,0,1.26.59,1.26,1.61v3.68h-1.49v-3.52c0-.34-.15-.5-.45-.5a.66.66,0,0,0-.6.42v3.6Z" fill="#231f20"/><path d="M531.75,169.78c-1.44,0-2.46-.79-2.46-2.72,0-1.7.9-2.66,2-2.66s1.85.6,1.85,2.27v.84h-2.4c.09.74.41,1.06,1.08,1.06a2.06,2.06,0,0,0,1-.24l.21,1.11A2.39,2.39,0,0,1,531.75,169.78Zm-1-3.26h1c0-.78-.16-1-.48-1S530.82,165.92,530.78,166.52Z" fill="#231f20"/><path d="M533.56,169.68v-5.12h1.49v.63a1.47,1.47,0,0,1,1.27-.79c.88,0,1.26.59,1.26,1.61v3.68H536.1v-3.52c0-.34-.15-.5-.45-.5a.66.66,0,0,0-.6.42v3.6Z" fill="#231f20"/><path d="M497,190.71v1.47h-1.44v-1.47h-2.13v-.93l1.62-4.71h2v4.54h.55v1.1Zm-1.44-1.1v-2.12l0-1.12h0l-.27,1.06-.72,2.18Z" fill="#231f20"/><path d="M501.49,186.27a.56.56,0,0,0-.63.55.75.75,0,0,0,.29.57c.39.38.87.69,1.25,1.08a2.16,2.16,0,0,1,.73,1.69,2,2,0,0,1-2.13,2.1,3.61,3.61,0,0,1-1.82-.41l.43-1.27a2.72,2.72,0,0,0,1.24.35c.54,0,.74-.29.74-.61a.78.78,0,0,0-.31-.61,14.94,14.94,0,0,1-1.24-1.07,2.2,2.2,0,0,1-.71-1.68,1.93,1.93,0,0,1,2.07-2,3.34,3.34,0,0,1,1.57.35l-.37,1.25A2.52,2.52,0,0,0,501.49,186.27Z" fill="#231f20"/><path d="M506.18,191.64a1.39,1.39,0,0,1-1.19.69c-.88,0-1.3-.58-1.3-1.6v-3.68h1.49v3.52c0,.34.15.5.45.5a.64.64,0,0,0,.55-.33v-3.69h1.49v5.12h-1.49Z" fill="#231f20"/><path d="M510.15,194.09c-1.25,0-2-.42-2-1.16a1,1,0,0,1,.67-.9,1,1,0,0,1-.38-.79,1.33,1.33,0,0,1,.68-1.18,1.54,1.54,0,0,1-.72-1.41,1.7,1.7,0,0,1,1.82-1.76,1.9,1.9,0,0,1,1.2.41,1.48,1.48,0,0,1,1.1-.37V188a2.08,2.08,0,0,0-.63.07,1.32,1.32,0,0,1,.11.63,1.65,1.65,0,0,1-1.8,1.65,2.49,2.49,0,0,1-.46,0,.47.47,0,0,0-.14.32c0,.18.13.29.38.29h.89c1,0,1.57.47,1.57,1.44S511.77,194.09,510.15,194.09Zm.87-1.47c0-.2-.14-.37-.44-.37h-1a.5.5,0,0,0-.15.37c0,.32.22.52.78.52S511,192.92,511,192.62Zm-.86-3.18c.25,0,.46-.19.46-.78s-.21-.81-.46-.81-.45.21-.45.81S509.94,189.43,510.16,189.43Z" fill="#231f20"/><path d="M515,191.71a1,1,0,0,1-1,.59c-.88,0-1.26-.79-1.26-1.64,0-1.07.59-1.66,1.4-1.66a1.1,1.1,0,0,1,.83.31v-.47a.68.68,0,0,0-.76-.73,1.81,1.81,0,0,0-1,.26l-.3-1.1a3,3,0,0,1,1.56-.37,1.7,1.7,0,0,1,1.95,1.9v3.38H515Zm0-.56V190a.59.59,0,0,0-.36-.12c-.26,0-.44.21-.44.68s.15.71.44.71A.54.54,0,0,0,515,191.15Z" fill="#231f20"/><path d="M517.21,192.18v-5.12h1.5V188a1.52,1.52,0,0,1,1.25-1v1.63c-.29,0-1-.09-1.25.36v3.2Z" fill="#231f20"/><path d="M523.66,192a1.88,1.88,0,0,1-1,.27c-1.42,0-2.31-.87-2.31-2.63s1-2.7,2.33-2.7a2.21,2.21,0,0,1,1,.22l-.35,1.19a1.18,1.18,0,0,0-.6-.15c-.55,0-.9.51-.9,1.43s.29,1.41.92,1.41a1.21,1.21,0,0,0,.6-.15Z" fill="#231f20"/><path d="M526.21,191.71a1,1,0,0,1-1,.59c-.88,0-1.26-.79-1.26-1.64,0-1.07.59-1.66,1.4-1.66a1.1,1.1,0,0,1,.83.31v-.47a.68.68,0,0,0-.76-.73,1.81,1.81,0,0,0-1,.26l-.3-1.1a3,3,0,0,1,1.56-.37,1.7,1.7,0,0,1,1.95,1.9v3.38h-1.49Zm0-.56V190a.59.59,0,0,0-.36-.12c-.26,0-.44.21-.44.68s.15.71.44.71A.54.54,0,0,0,526.21,191.15Z" fill="#231f20"/><path d="M528.44,192.18v-5.12h1.49v.63a1.47,1.47,0,0,1,1.27-.79c.88,0,1.26.59,1.26,1.61v3.68H531v-3.52c0-.34-.15-.5-.45-.5a.66.66,0,0,0-.6.42v3.6Z" fill="#231f20"/><path d="M535.47,192.28c-1.45,0-2.46-.79-2.46-2.72,0-1.7.9-2.66,2-2.66s1.85.6,1.85,2.27V190h-2.4c.08.74.41,1.06,1.08,1.06a2.07,2.07,0,0,0,1-.24l.21,1.11A2.4,2.4,0,0,1,535.47,192.28Zm-1-3.26h1c0-.78-.16-1-.49-1S534.54,188.42,534.5,189Z" fill="#231f20"/><path d="M494.42,205.84l-1,.91v-1.42l1.32-1.33H496v7.18h-1.58Z" fill="#231f20"/><path d="M496.67,211l.35-1.23a1.86,1.86,0,0,0,.91.24.82.82,0,0,0,.86-.91c0-.53-.19-.94-.84-.94h-.31V207H498a.78.78,0,0,0,.83-.87c0-.54-.27-.83-.87-.83a1.69,1.69,0,0,0-.81.23l-.33-1.18a2.67,2.67,0,0,1,1.42-.35,1.82,1.82,0,0,1,2,2,1.53,1.53,0,0,1-1,1.53,1.67,1.67,0,0,1,1.08,1.73,2,2,0,0,1-2.16,2.13A2.8,2.8,0,0,1,496.67,211Z" fill="#231f20"/><path d="M502.39,204.06h2a2.31,2.31,0,0,1,0,4.6H504v2.52h-1.61Zm1.61,1.2v2.27h.29c.54,0,.74-.39.74-1.14s-.2-1.13-.74-1.13Z" fill="#231f20"/><path d="M509.39,211.28c-1.45,0-2.46-.79-2.46-2.72,0-1.7.9-2.66,2-2.66s1.85.6,1.85,2.27V209h-2.4c.08.74.41,1.06,1.08,1.06a2.07,2.07,0,0,0,1-.24l.21,1.11A2.4,2.4,0,0,1,509.39,211.28Zm-1-3.26h1c0-.78-.16-1-.49-1S508.46,207.42,508.43,208Z" fill="#231f20"/><path d="M511.4,211.18v-5.12h1.5V207a1.52,1.52,0,0,1,1.25-1v1.63c-.29,0-1-.09-1.25.36v3.2Z" fill="#231f20"/><path d="M514.7,211.18v-5.12h1.5V207a1.52,1.52,0,0,1,1.25-1v1.63c-.29,0-1-.09-1.25.36v3.2Z" fill="#231f20"/><path d="M518.74,204a.82.82,0,1,1,0,1.64.82.82,0,1,1,0-1.64Zm-.75,2.07h1.49v5.12H518Z" fill="#231f20"/><path d="M523.4,211a1.88,1.88,0,0,1-1,.27c-1.42,0-2.31-.87-2.31-2.63s1-2.7,2.33-2.7a2.21,2.21,0,0,1,1,.22l-.35,1.19a1.18,1.18,0,0,0-.6-.15c-.55,0-.9.51-.9,1.43s.29,1.41.92,1.41a1.21,1.21,0,0,0,.6-.15Z" fill="#231f20"/><path d="M525.92,211.32c-1.27,0-2.19-.93-2.19-2.67s.91-2.76,2.19-2.76,2.19,1,2.19,2.76S527.2,211.32,525.92,211.32Zm0-1.2c.39,0,.67-.41.67-1.49s-.29-1.54-.67-1.54-.67.47-.67,1.54S525.53,210.13,525.92,210.13Z" fill="#231f20"/><path d="M528.69,211.18v-5.12h1.49v.63a1.47,1.47,0,0,1,1.27-.79c.88,0,1.26.59,1.26,1.61v3.68h-1.49v-3.52c0-.34-.15-.5-.45-.5a.66.66,0,0,0-.6.42v3.6Z" fill="#231f20"/><path d="M535.72,211.28c-1.45,0-2.46-.79-2.46-2.72,0-1.7.9-2.66,2-2.66s1.85.6,1.85,2.27V209h-2.4c.08.74.41,1.06,1.08,1.06a2.07,2.07,0,0,0,1-.24l.21,1.11A2.4,2.4,0,0,1,535.72,211.28Zm-1-3.26h1c0-.78-.16-1-.49-1S534.79,207.42,534.75,208Z" fill="#231f20"/><path d="M537.55,206.24a3.3,3.3,0,0,0,.58-.85.71.71,0,0,1-.6-.68.74.74,0,0,1,.75-.73.77.77,0,0,1,.75.86,2.6,2.6,0,0,1-1,1.74Z" fill="#231f20"/><path d="M541.25,207.08c-.33,0-.49.11-.49.3s.12.29.33.41a8.24,8.24,0,0,1,1,.56,1.55,1.55,0,0,1,.63,1.29,1.62,1.62,0,0,1-1.83,1.65,2.55,2.55,0,0,1-1.5-.39l.36-1.07a2,2,0,0,0,1.06.32c.44,0,.53-.19.53-.41s-.1-.25-.27-.35a6.74,6.74,0,0,1-1-.62,1.46,1.46,0,0,1-.54-1.23,1.52,1.52,0,0,1,1.72-1.61,2.83,2.83,0,0,1,1.41.32l-.33,1.09A2,2,0,0,0,541.25,207.08Z" fill="#231f20"/><path d="M493.54,230.94a5.42,5.42,0,0,1,2-4.38h1.82v.09a5.44,5.44,0,0,0-2.07,2.83,1.21,1.21,0,0,1,1-.48c.85,0,1.55.71,1.55,2.27s-.82,2.55-2.1,2.55S493.54,232.89,493.54,230.94Zm2.71.32c0-.93-.26-1.15-.59-1.15a.74.74,0,0,0-.56.31c0,.19,0,.38,0,.58,0,1.31.23,1.64.59,1.64S496.25,232.26,496.25,231.27Z" fill="#231f20"/><path d="M499.71,233.68l.5-7.12h1.58l.65,3,.16,1.09h0l.21-1.09.71-3H505l.49,7.12H504l-.14-2.83v-1.48h0l-.25,1.48-.63,2.83H502l-.58-2.83-.21-1.48h0l0,1.48-.16,2.83Z" fill="#231f20"/><path d="M508.25,233.21a1,1,0,0,1-1,.59c-.88,0-1.26-.79-1.26-1.64,0-1.07.59-1.66,1.4-1.66a1.1,1.1,0,0,1,.83.31v-.47a.68.68,0,0,0-.76-.73,1.81,1.81,0,0,0-1,.26l-.3-1.1a3,3,0,0,1,1.56-.37,1.7,1.7,0,0,1,1.95,1.9v3.38h-1.49Zm0-.56v-1.12a.59.59,0,0,0-.36-.12c-.26,0-.44.21-.44.68s.15.71.44.71A.54.54,0,0,0,508.25,232.65Z" fill="#231f20"/><path d="M513.62,233.51a1.88,1.88,0,0,1-1,.27c-1.42,0-2.31-.87-2.31-2.63s1-2.7,2.33-2.7a2.22,2.22,0,0,1,1,.22l-.35,1.19a1.18,1.18,0,0,0-.6-.15c-.55,0-.9.51-.9,1.43s.29,1.41.92,1.41a1.21,1.21,0,0,0,.6-.15Z" fill="#231f20"/><path d="M517.31,233.51a1.88,1.88,0,0,1-1,.27c-1.42,0-2.31-.87-2.31-2.63s1-2.7,2.33-2.7a2.21,2.21,0,0,1,1,.22l-.35,1.19a1.18,1.18,0,0,0-.6-.15c-.55,0-.9.51-.9,1.43s.29,1.41.92,1.41a1.21,1.21,0,0,0,.6-.15Z" fill="#231f20"/><path d="M517.85,233.68v-7.42h1.49v2.92a1.47,1.47,0,0,1,1.27-.79c.88,0,1.26.59,1.26,1.61v3.68h-1.49v-3.52c0-.34-.15-.5-.45-.5a.66.66,0,0,0-.6.42v3.6Z" fill="#231f20"/><path d="M523.35,226.49a.82.82,0,1,1,0,1.64.82.82,0,1,1,0-1.64Zm-.75,2.07h1.49v5.12H522.6Z" fill="#231f20"/><path d="M526.86,233.21a1,1,0,0,1-1,.59c-.88,0-1.26-.79-1.26-1.64,0-1.07.59-1.66,1.4-1.66a1.1,1.1,0,0,1,.83.31v-.47a.68.68,0,0,0-.76-.73,1.82,1.82,0,0,0-1,.26l-.3-1.1a3,3,0,0,1,1.56-.37,1.7,1.7,0,0,1,1.95,1.9v3.38h-1.49Zm0-.56v-1.12a.59.59,0,0,0-.36-.12c-.26,0-.44.21-.44.68s.15.71.44.71A.53.53,0,0,0,526.86,232.65Z" fill="#231f20"/><path d="M529.11,226.27h1.5v7.42h-1.5Z" fill="#231f20"/><path d="M532.13,226.49a.82.82,0,1,1,0,1.64.82.82,0,1,1,0-1.64Zm-.75,2.07h1.49v5.12h-1.49Z" fill="#231f20"/><path d="M533.64,233.68v-5.12h1.49v.63a1.47,1.47,0,0,1,1.27-.79c.88,0,1.26.59,1.26,1.61v3.68h-1.49v-3.52c0-.34-.15-.5-.45-.5a.66.66,0,0,0-.6.42v3.6Z" fill="#231f20"/><path d="M540.41,233.21a1,1,0,0,1-1,.59c-.88,0-1.26-.79-1.26-1.64,0-1.07.59-1.66,1.4-1.66a1.1,1.1,0,0,1,.83.31v-.47a.68.68,0,0,0-.76-.73,1.81,1.81,0,0,0-1,.26l-.3-1.1a3,3,0,0,1,1.56-.37,1.7,1.7,0,0,1,1.95,1.9v3.38h-1.49Zm0-.56v-1.12a.59.59,0,0,0-.36-.12c-.26,0-.44.21-.44.68s.15.71.44.71A.54.54,0,0,0,540.41,232.65Z" fill="#231f20"/><path d="M494.42,247.34l-1,.91v-1.42l1.32-1.33H496v7.18h-1.58Z" fill="#231f20"/><path d="M497.79,247.34l-1,.91v-1.42l1.32-1.33h1.21v7.18h-1.58Z" fill="#231f20"/><path d="M505.76,252.5a2.28,2.28,0,0,1-1.24.29c-1.81,0-2.93-1.18-2.93-3.59s1.25-3.75,2.89-3.75a2.48,2.48,0,0,1,1.28.27l-.36,1.21a2,2,0,0,0-.81-.16c-.89,0-1.36.88-1.36,2.42s.48,2.3,1.39,2.3a1.76,1.76,0,0,0,.78-.18Z" fill="#231f20"/><path d="M508.31,252.82c-1.27,0-2.19-.93-2.19-2.67s.91-2.76,2.19-2.76,2.19,1,2.19,2.76S509.59,252.82,508.31,252.82Zm0-1.2c.39,0,.67-.41.67-1.49s-.29-1.54-.67-1.54-.67.47-.67,1.54S507.92,251.63,508.31,251.63Z" fill="#231f20"/><path d="M512.22,252.79l-1.47-5.23h1.51l.39,1.62.29,1.59h0l.31-1.59.4-1.62H515l-2,6.94h-1.31Z" fill="#231f20"/><path d="M517.46,252.21a1,1,0,0,1-1,.59c-.88,0-1.26-.79-1.26-1.64,0-1.07.59-1.66,1.4-1.66a1.1,1.1,0,0,1,.83.31v-.47a.68.68,0,0,0-.76-.73,1.81,1.81,0,0,0-1,.26l-.3-1.1a3,3,0,0,1,1.56-.37,1.7,1.7,0,0,1,1.95,1.9v3.38h-1.49Zm0-.56v-1.12a.59.59,0,0,0-.36-.12c-.26,0-.44.21-.44.68s.15.71.44.71A.54.54,0,0,0,517.46,251.65Z" fill="#231f20"/><path d="M521,252.68l.49-7.12h1.58l.65,3,.16,1.09h0l.21-1.09.71-3h1.49l.5,7.12h-1.54l-.14-2.83v-1.48h0l-.25,1.48-.63,2.83h-.92l-.58-2.83-.21-1.48h0l0,1.48-.16,2.83Z" fill="#231f20"/><path d="M528.25,245.49a.82.82,0,1,1,0,1.64.82.82,0,1,1,0-1.64Zm-.75,2.07H529v5.12H527.5Z" fill="#231f20"/><path d="M531.77,252.21a1,1,0,0,1-1,.59c-.88,0-1.26-.79-1.26-1.64,0-1.07.59-1.66,1.4-1.66a1.1,1.1,0,0,1,.83.31v-.47a.68.68,0,0,0-.76-.73,1.81,1.81,0,0,0-1,.26l-.3-1.1a3,3,0,0,1,1.56-.37,1.7,1.7,0,0,1,1.95,1.9v3.38h-1.49Zm0-.56v-1.12a.59.59,0,0,0-.36-.12c-.26,0-.44.21-.44.68s.15.71.44.71A.54.54,0,0,0,531.77,251.65Z" fill="#231f20"/><path d="M534,252.68v-5.12h1.49v.6a1.35,1.35,0,0,1,1.17-.76,1,1,0,0,1,1.1.9,1.46,1.46,0,0,1,1.28-.9c.85,0,1.22.59,1.22,1.61v3.68h-1.49v-3.52c0-.34-.09-.5-.38-.5a.56.56,0,0,0-.51.38v3.64h-1.49v-3.52c0-.34-.1-.5-.38-.5a.56.56,0,0,0-.51.38v3.64Z" fill="#231f20"/><path d="M541.73,245.49a.82.82,0,1,1,0,1.64.82.82,0,1,1,0-1.64Zm-.75,2.07h1.49v5.12H541Z" fill="#231f20"/><path d="M493.3,275l.35-1.23a1.87,1.87,0,0,0,.91.24.82.82,0,0,0,.86-.91c0-.53-.19-.94-.84-.94h-.31V271h.31a.78.78,0,0,0,.83-.87c0-.54-.27-.83-.87-.83a1.68,1.68,0,0,0-.81.23l-.33-1.18a2.68,2.68,0,0,1,1.42-.35,1.82,1.82,0,0,1,2,2,1.54,1.54,0,0,1-1,1.53,1.67,1.67,0,0,1,1.08,1.73,2,2,0,0,1-2.16,2.13A2.8,2.8,0,0,1,493.3,275Z" fill="#231f20"/><path d="M500.38,275.18v-7.12H502l1.2,3.06.39,1.17h0l-.07-1.34v-2.89h1.31v7.12h-1.44l-1.38-3.47-.43-1.26h0l.08,1.45v3.28Z" fill="#231f20"/><path d="M507.75,274.71a1,1,0,0,1-1,.59c-.88,0-1.26-.79-1.26-1.64,0-1.07.59-1.66,1.4-1.66a1.1,1.1,0,0,1,.83.31v-.47a.68.68,0,0,0-.76-.73,1.81,1.81,0,0,0-1,.26l-.3-1.1a3,3,0,0,1,1.56-.37,1.7,1.7,0,0,1,1.95,1.9v3.38h-1.49Zm0-.56V273a.59.59,0,0,0-.36-.12c-.26,0-.44.21-.44.68s.15.71.44.71A.54.54,0,0,0,507.75,274.15Z" fill="#231f20"/><path d="M510.71,268a.82.82,0,1,1,0,1.64.82.82,0,1,1,0-1.64Zm-.75,2.07h1.49v5.12H510Z" fill="#231f20"/><path d="M513.36,275.29l-1.47-5.23h1.51l.39,1.62.29,1.59h0l.31-1.59.4-1.62h1.34l-2,6.94h-1.31Z" fill="#231f20"/><path d="M518.61,274.71a1,1,0,0,1-1,.59c-.88,0-1.26-.79-1.26-1.64,0-1.07.59-1.66,1.4-1.66a1.1,1.1,0,0,1,.83.31v-.47a.68.68,0,0,0-.76-.73,1.81,1.81,0,0,0-1,.26l-.3-1.1a3,3,0,0,1,1.56-.37,1.7,1.7,0,0,1,1.95,1.9v3.38h-1.49Zm0-.56V273a.59.59,0,0,0-.36-.12c-.26,0-.44.21-.44.68s.15.71.44.71A.54.54,0,0,0,518.61,274.15Z" fill="#231f20"/><path d="M520.84,275.18v-5.12h1.5V271a1.52,1.52,0,0,1,1.25-1v1.63c-.29,0-1-.09-1.25.36v3.2Z" fill="#231f20"/><path d="M526.15,274.71a1,1,0,0,1-1,.59c-.88,0-1.26-.79-1.26-1.64,0-1.07.59-1.66,1.4-1.66a1.1,1.1,0,0,1,.83.31v-.47a.68.68,0,0,0-.76-.73,1.81,1.81,0,0,0-1,.26l-.3-1.1a3,3,0,0,1,1.56-.37,1.7,1.7,0,0,1,1.95,1.9v3.38h-1.49Zm0-.56V273a.59.59,0,0,0-.36-.12c-.26,0-.44.21-.44.68s.15.71.44.71A.54.54,0,0,0,526.15,274.15Z" fill="#231f20"/><path d="M494.42,288.84l-1,.91v-1.42l1.32-1.33H496v7.18h-1.58Z" fill="#231f20"/><path d="M500.39,292.71v1.47h-1.45v-1.47h-2.13v-.93l1.62-4.71h2v4.54h.55v1.1Zm-1.45-1.1v-2.12l0-1.12h0l-.27,1.06-.72,2.18Z" fill="#231f20"/><path d="M505.88,288.27a.51.51,0,0,0-.54.55.8.8,0,0,0,.25.57c.33.38.74.69,1.08,1.08a2.34,2.34,0,0,1,.63,1.69c0,1.19-.62,2.1-1.83,2.1a2.75,2.75,0,0,1-1.56-.41l.37-1.27a2.1,2.1,0,0,0,1.06.35.57.57,0,0,0,.64-.61.82.82,0,0,0-.27-.61,13.75,13.75,0,0,1-1.06-1.07A2.38,2.38,0,0,1,504,289a1.8,1.8,0,0,1,1.78-2,2.55,2.55,0,0,1,1.35.35l-.32,1.25A1.94,1.94,0,0,0,505.88,288.27Z" fill="#231f20"/><path d="M508,292.73v-2.56h-.36v-1.11H508v-1.5h1.29v1.5h.6v1.11h-.6v2.42c0,.36.19.44.37.44a.62.62,0,0,0,.24,0v1.18a1.58,1.58,0,0,1-.48.08C508.46,294.25,508,293.8,508,292.73Z" fill="#231f20"/><path d="M510.37,294.18v-5.12h1.29V290c.2-.49.56-1,1.08-1v1.63c-.25,0-.85-.09-1.08.36v3.2Z" fill="#231f20"/><path d="M514.93,293.71a.87.87,0,0,1-.82.59c-.76,0-1.09-.79-1.09-1.64,0-1.07.51-1.66,1.2-1.66a.88.88,0,0,1,.71.31v-.47c0-.53-.29-.73-.65-.73a1.4,1.4,0,0,0-.82.26l-.26-1.1a2.27,2.27,0,0,1,1.34-.37c1.17,0,1.67.7,1.67,1.9v3.38h-1.28Zm0-.56V292a.46.46,0,0,0-.31-.12c-.22,0-.37.21-.37.68s.13.71.38.71A.43.43,0,0,0,514.93,293.15Z" fill="#231f20"/><path d="M519.09,293.58a1.08,1.08,0,0,1-1,.72c-.85,0-1.44-.85-1.44-2.67s.66-2.74,1.49-2.74a1,1,0,0,1,.92.64v-2.77h1.28v7.42h-1.28Zm0-.88v-2.27a.56.56,0,0,0-.51-.3c-.35,0-.6.46-.6,1.51s.24,1.45.6,1.45A.6.6,0,0,0,519.09,292.7Z" fill="#231f20"/><path d="M522.77,293.71a.87.87,0,0,1-.82.59c-.76,0-1.09-.79-1.09-1.64,0-1.07.51-1.66,1.2-1.66a.88.88,0,0,1,.71.31v-.47c0-.53-.29-.73-.65-.73a1.4,1.4,0,0,0-.82.26l-.26-1.1a2.27,2.27,0,0,1,1.34-.37c1.17,0,1.67.7,1.67,1.9v3.38h-1.28Zm0-.56V292a.46.46,0,0,0-.31-.12c-.22,0-.37.21-.37.68s.13.71.38.71A.43.43,0,0,0,522.77,293.15Z" fill="#231f20"/><path d="M526.49,287a.75.75,0,0,1,.72.82.72.72,0,1,1-.72-.82Zm-.64,2.07h1.28v5.12h-1.28Z" fill="#231f20"/><path d="M527.79,294.18v-5.12h1.28v.63a1.27,1.27,0,0,1,1.09-.79c.76,0,1.08.59,1.08,1.61v3.68H530v-3.52c0-.34-.13-.5-.38-.5s-.4.16-.51.42v3.6Z" fill="#231f20"/><path d="M533.2,292.73v-2.56h-.36v-1.11h.36v-1.5h1.29v1.5h.6v1.11h-.6v2.42c0,.36.19.44.37.44a.62.62,0,0,0,.24,0v1.18a1.58,1.58,0,0,1-.48.08C533.71,294.25,533.2,293.8,533.2,292.73Z" fill="#231f20"/><path d="M535.61,294.18v-7.42h1.28v2.92a1.27,1.27,0,0,1,1.09-.79c.76,0,1.09.59,1.09,1.61v3.68h-1.28v-3.52c0-.34-.13-.5-.38-.5s-.4.16-.51.42v3.6Z" fill="#231f20"/><path d="M541.66,294.28c-1.24,0-2.12-.79-2.12-2.72,0-1.7.78-2.66,1.75-2.66s1.59.6,1.59,2.27V292h-2.06c.07.74.35,1.06.93,1.06a1.58,1.58,0,0,0,.86-.24l.18,1.11A1.84,1.84,0,0,1,541.66,294.28Zm-.83-3.26h.9c0-.78-.14-1-.42-1S540.86,290.42,540.82,291Z" fill="#231f20"/><path d="M546.87,294.32c-1.48,0-2.42-1.1-2.42-3.64S545.51,287,547,287a2.49,2.49,0,0,1,1.29.29l-.33,1.27a1.59,1.59,0,0,0-.8-.21c-.8,0-1.26.73-1.26,2.36s.24,2.35,1,2.35h.18v-1.62h-.5v-1.25h1.8v3.75A2.46,2.46,0,0,1,546.87,294.32Z" fill="#231f20"/><path d="M549.11,294.18v-5.12h1.29V290c.2-.49.56-1,1.08-1v1.63c-.25,0-.85-.09-1.08.36v3.2Z" fill="#231f20"/><path d="M553.66,294.32c-1.09,0-1.88-.93-1.88-2.67s.78-2.76,1.88-2.76,1.88,1,1.88,2.76S554.75,294.32,553.66,294.32Zm0-1.2c.33,0,.58-.41.58-1.49s-.25-1.54-.58-1.54-.58.47-.58,1.54S553.32,293.13,553.66,293.13Z" fill="#231f20"/><path d="M555.75,289.06h1.31l.36,1.74.22,1.47h0l.24-1.47.35-1.74h1.15l-1.22,5.12H557Z" fill="#231f20"/><path d="M561.72,294.28c-1.24,0-2.12-.79-2.12-2.72,0-1.7.78-2.66,1.75-2.66s1.59.6,1.59,2.27V292h-2.06c.07.74.35,1.06.93,1.06a1.58,1.58,0,0,0,.86-.24l.18,1.11A1.84,1.84,0,0,1,561.72,294.28Zm-.83-3.26h.9c0-.78-.14-1-.42-1S560.92,290.42,560.89,291Z" fill="#231f20"/><path d="M493.78,316.68l1.5-5.87h-1.82v-1.25h3.45v1l-1.57,6.15Z" fill="#231f20"/><path d="M500.85,311.34l-.82.91v-1.42l1.13-1.33h1v7.18h-1.36Z" fill="#231f20"/><path d="M503.75,311.34l-.82.91v-1.42l1.13-1.33h1v7.18h-1.36Z" fill="#231f20"/><path d="M506.65,311.34l-.82.91v-1.42L507,309.5h1v7.18h-1.36Z" fill="#231f20"/><path d="M509.55,311.34l-.82.91v-1.42l1.13-1.33h1v7.18h-1.35Z" fill="#231f20"/><path d="M513,309.56h1.75c1.14,0,1.85.81,1.85,2.35s-.84,2.25-1.85,2.25h-.37v2.52H513Zm1.38,1.2V313h.25c.46,0,.64-.39.64-1.14s-.17-1.13-.64-1.13Z" fill="#231f20"/><path d="M519,316.78c-1.24,0-2.11-.79-2.11-2.72,0-1.7.78-2.66,1.75-2.66s1.59.6,1.59,2.27v.84h-2.06c.07.74.35,1.06.93,1.06a1.57,1.57,0,0,0,.86-.24l.18,1.11A1.84,1.84,0,0,1,519,316.78Zm-.83-3.26h.9c0-.78-.14-1-.42-1S518.24,312.92,518.21,313.52Z" fill="#231f20"/><path d="M520.77,316.68v-5.12h1.29v.91c.2-.49.56-1,1.08-1v1.63c-.25,0-.85-.09-1.08.36v3.2Z" fill="#231f20"/><path d="M525.72,316.14a1.18,1.18,0,0,1-1,.69c-.76,0-1.12-.58-1.12-1.6v-3.68h1.28v3.52c0,.34.13.5.38.5a.55.55,0,0,0,.47-.33v-3.69H527v5.12h-1.28Z" fill="#231f20"/><path d="M527.38,311.56h1.31l.36,1.74.22,1.47h0l.24-1.47.35-1.74H531l-1.22,5.12h-1.2Z" fill="#231f20"/><path d="M532,309.49a.75.75,0,0,1,.72.82.72.72,0,1,1-.72-.82Zm-.64,2.07h1.28v5.12H531.4Z" fill="#231f20"/><path d="M535.06,316.21a.87.87,0,0,1-.82.59c-.76,0-1.09-.79-1.09-1.64,0-1.07.51-1.66,1.2-1.66a.88.88,0,0,1,.71.31v-.47c0-.53-.29-.73-.65-.73a1.4,1.4,0,0,0-.82.26l-.26-1.1a2.27,2.27,0,0,1,1.34-.37c1.17,0,1.67.7,1.67,1.9v3.38h-1.28Zm0-.56v-1.12a.46.46,0,0,0-.31-.12c-.22,0-.37.21-.37.68s.13.71.38.71A.43.43,0,0,0,535.06,315.65Z" fill="#231f20"/><path d="M537,316.68v-5.12h1.28v.63a1.27,1.27,0,0,1,1.09-.79c.76,0,1.09.59,1.09,1.61v3.68h-1.28v-3.52c0-.34-.13-.5-.38-.5s-.4.16-.51.42v3.6Z" fill="#231f20"/><path d="M542.34,309.56h1.72c1.09,0,1.76.59,1.76,1.92A1.52,1.52,0,0,1,545,313a1.65,1.65,0,0,1,1,1.66,1.88,1.88,0,0,1-2,2.06h-1.73Zm1.37,1.1v1.82h.24c.41,0,.59-.29.59-.94s-.18-.86-.59-.87Zm0,2.87v2H544c.46,0,.68-.29.68-1.06s-.22-1-.67-1Z" fill="#231f20"/><path d="M547.19,309.49a.75.75,0,0,1,.72.82.72.72,0,1,1-.72-.82Zm-.65,2.07h1.28v5.12h-1.28Z" fill="#231f20"/><path d="M549.88,312.58c-.29,0-.42.11-.42.3a.49.49,0,0,0,.29.41,6.94,6.94,0,0,1,.82.56,1.64,1.64,0,0,1,.54,1.29,1.5,1.5,0,0,1-1.58,1.65,2,2,0,0,1-1.29-.39l.31-1.07a1.59,1.59,0,0,0,.92.32c.38,0,.46-.19.46-.41a.47.47,0,0,0-.23-.35,5.7,5.7,0,0,1-.88-.62,1.57,1.57,0,0,1-.47-1.23,1.41,1.41,0,0,1,1.48-1.61,2.16,2.16,0,0,1,1.21.32l-.29,1.09A1.58,1.58,0,0,0,549.88,312.58Z" fill="#231f20"/><path d="M551.74,315.23v-2.56h-.36v-1.11h.36v-1.5H553v1.5h.6v1.11H553v2.42c0,.36.19.44.37.44a.62.62,0,0,0,.24,0v1.18a1.58,1.58,0,0,1-.48.08C552.24,316.75,551.74,316.3,551.74,315.23Z" fill="#231f20"/><path d="M554.15,316.68v-5.12h1.29v.91c.2-.49.56-1,1.08-1v1.63c-.25,0-.85-.09-1.08.36v3.2Z" fill="#231f20"/><path d="M558.7,316.82c-1.09,0-1.88-.93-1.88-2.67s.78-2.76,1.88-2.76,1.88,1,1.88,2.76S559.79,316.82,558.7,316.82Zm0-1.2c.33,0,.58-.41.58-1.49s-.25-1.54-.58-1.54-.58.47-.58,1.54S558.36,315.63,558.7,315.63Z" fill="#231f20"/><path d="M494.42,330.34l-1,.91v-1.42l1.32-1.33H496v7.18h-1.58Z" fill="#231f20"/><path d="M499.18,335.84c-1.37,0-2.27-1-2.27-3.68s.93-3.76,2.27-3.76,2.27,1.11,2.27,3.76S500.55,335.84,499.18,335.84Zm0-1.31c.45,0,.66-.48.66-2.39s-.21-2.42-.66-2.42-.66.6-.66,2.42S498.74,334.53,499.18,334.53Z" fill="#231f20"/><path d="M503.59,328.56h1.63v5.89h1.63v1.23h-3.25Z" fill="#231f20"/><path d="M509.93,335.14a1.39,1.39,0,0,1-1.19.69c-.88,0-1.3-.58-1.3-1.6v-3.68h1.49v3.52c0,.34.15.5.45.5a.64.64,0,0,0,.55-.33v-3.69h1.49v5.12h-1.49Z" fill="#231f20"/><path d="M515.34,335.51a1.88,1.88,0,0,1-1,.27c-1.42,0-2.31-.87-2.31-2.63s1-2.7,2.33-2.7a2.21,2.21,0,0,1,1,.22l-.35,1.19a1.18,1.18,0,0,0-.6-.15c-.55,0-.9.51-.9,1.43s.29,1.41.92,1.41a1.21,1.21,0,0,0,.6-.15Z" fill="#231f20"/><path d="M517.89,335.21a1,1,0,0,1-1,.59c-.88,0-1.26-.79-1.26-1.64,0-1.07.59-1.66,1.4-1.66a1.1,1.1,0,0,1,.83.31v-.47a.68.68,0,0,0-.76-.73,1.82,1.82,0,0,0-1,.26l-.3-1.1a3,3,0,0,1,1.56-.37,1.7,1.7,0,0,1,1.95,1.9v3.38h-1.49Zm0-.56v-1.12a.59.59,0,0,0-.36-.12c-.26,0-.44.21-.44.68s.15.71.44.71A.53.53,0,0,0,517.89,334.65Z" fill="#231f20"/><path d="M520.13,328.27h1.5v7.42h-1.5Z" fill="#231f20"/><path d="M523.15,328.49a.82.82,0,1,1,0,1.64.82.82,0,1,1,0-1.64Zm-.75,2.07h1.49v5.12H522.4Z" fill="#231f20"/><path d="M493.48,358.18v-1l1.18-2.13a4.27,4.27,0,0,0,.66-2,.7.7,0,0,0-.75-.79,1.69,1.69,0,0,0-.82.23l-.29-1.22a2.64,2.64,0,0,1,1.42-.33,1.84,1.84,0,0,1,2.08,2,6.4,6.4,0,0,1-1.17,3l-.58,1h1.72v1.25Z" fill="#231f20"/><path d="M500.25,358.18l.49-7.12h1.58l.65,3,.16,1.09h0l.21-1.09.71-3h1.49l.5,7.12h-1.54l-.14-2.83v-1.48h0l-.25,1.48-.63,2.83h-.92l-.58-2.83-.21-1.48h0l0,1.48-.16,2.83Z" fill="#231f20"/><path d="M510.8,358a2.27,2.27,0,0,1-1.24.29c-1.81,0-2.93-1.18-2.93-3.59s1.25-3.75,2.89-3.75a2.48,2.48,0,0,1,1.28.27l-.36,1.21a2,2,0,0,0-.81-.16c-.89,0-1.36.88-1.36,2.42s.49,2.3,1.39,2.3a1.76,1.76,0,0,0,.78-.18Z" fill="#231f20"/><path d="M512.82,358.18v-7.12h1.62v3.12l1.37-3.12h1.52l-1.44,3.24,1.6,3.88H515.8l-1.36-3.24v3.24Z" fill="#231f20"/><path d="M518.65,351a.82.82,0,1,1,0,1.64.82.82,0,1,1,0-1.64Zm-.75,2.07h1.49v5.12h-1.49Z" fill="#231f20"/><path d="M520.33,356.73v-2.56h-.42v-1.11h.42v-1.5h1.5v1.5h.7v1.11h-.7v2.42a.38.38,0,0,0,.43.44.83.83,0,0,0,.28,0v1.18a2.11,2.11,0,0,1-.56.08C520.92,358.25,520.33,357.8,520.33,356.73Z" fill="#231f20"/><path d="M526.28,358a1.88,1.88,0,0,1-1,.27c-1.42,0-2.31-.87-2.31-2.63s1-2.7,2.33-2.7a2.22,2.22,0,0,1,1,.22l-.35,1.19a1.18,1.18,0,0,0-.6-.15c-.55,0-.9.51-.9,1.43s.29,1.41.92,1.41a1.21,1.21,0,0,0,.6-.15Z" fill="#231f20"/><path d="M526.82,358.18v-7.42h1.49v2.92a1.47,1.47,0,0,1,1.27-.79c.88,0,1.26.59,1.26,1.61v3.68h-1.49v-3.52c0-.34-.15-.5-.45-.5a.66.66,0,0,0-.6.42v3.6Z" fill="#231f20"/><path d="M533.85,358.28c-1.44,0-2.46-.79-2.46-2.72,0-1.7.9-2.66,2-2.66s1.85.6,1.85,2.27V356h-2.4c.09.74.41,1.06,1.08,1.06a2.06,2.06,0,0,0,1-.24l.21,1.11A2.39,2.39,0,0,1,533.85,358.28Zm-1-3.26h1c0-.78-.16-1-.48-1S532.92,354.42,532.88,355Z" fill="#231f20"/><path d="M535.85,358.18v-5.12h1.49v.63a1.47,1.47,0,0,1,1.27-.79c.88,0,1.26.59,1.26,1.61v3.68h-1.49v-3.52c0-.34-.15-.5-.45-.5a.66.66,0,0,0-.6.42v3.6Z" fill="#231f20"/><path d="M494.42,371.84l-1,.91v-1.42l1.32-1.33H496v7.18h-1.58Z" fill="#231f20"/><path d="M496.72,377l.38-1.22a1.51,1.51,0,0,0,.77.18c.51,0,.9-.38.9-1.08s-.32-1.1-1-1.1a1.78,1.78,0,0,0-.66.12l0,0,.24-3.83h2.81v1.27h-1.64l-.09,1.33a1.94,1.94,0,0,1,1.87,2.2,2.21,2.21,0,0,1-2.3,2.48A2.52,2.52,0,0,1,496.72,377Z" fill="#231f20"/><path d="M503.84,370.06h2a2.31,2.31,0,0,1,0,4.6h-.43v2.52h-1.61Zm1.61,1.2v2.27h.29c.54,0,.74-.39.74-1.14s-.2-1.13-.74-1.13Z" fill="#231f20"/><path d="M508.58,377.18v-5.12h1.5V373a1.52,1.52,0,0,1,1.25-1v1.63c-.29,0-1-.09-1.25.36v3.2Z" fill="#231f20"/><path d="M513.87,377.32c-1.27,0-2.19-.93-2.19-2.67s.91-2.76,2.19-2.76,2.19,1,2.19,2.76S515.14,377.32,513.87,377.32Zm0-1.2c.39,0,.67-.41.67-1.49s-.29-1.54-.67-1.54-.67.47-.67,1.54S513.48,376.13,513.87,376.13Z" fill="#231f20"/><path d="M518.62,377.32c-1.27,0-2.19-.93-2.19-2.67s.91-2.76,2.19-2.76,2.19,1,2.19,2.76S519.89,377.32,518.62,377.32Zm0-1.2c.39,0,.67-.41.67-1.49s-.29-1.54-.67-1.54-.67.47-.67,1.54S518.23,376.13,518.62,376.13Z" fill="#231f20"/><path d="M521.5,373.17h-.39v-1.11h.39v-.65a1.52,1.52,0,0,1,1.68-1.68,1.91,1.91,0,0,1,.54.06v1.16a1.24,1.24,0,0,0-.27,0c-.29,0-.45.17-.45.6v.54h.71v1.11H523v4H521.5Z" fill="#231f20"/><circle cx="-1.05" cy="401.82" r="116.22" fill="#797b7d"/><path d="M151,266.54s-2-3.74-9.25,0c0,0-11,3.68-16.35,39.12,0,0-2.48,21.66-.77,58.21,0,0,0,2.4,1.8,3.17,0,0,4.62,1,5.65,8,0,0,0,.11-.12.31a6.25,6.25,0,0,0-1.34,3.91,6.38,6.38,0,0,0,.78,3.07,4,4,0,0,0,.85,1.43L130.9,489.95a.45.45,0,0,0,0,.07c0,1.31,3.93,2.37,8.77,2.37s8.68-1,8.76-2.33c0,0,0,0,0,0s0,0,0-.06l-3.54-106a6.14,6.14,0,0,0,2.07-4.67,6.26,6.26,0,0,0-1.38-4l-.24-.51s.22-2.74,3.38-7.25l-.4-25.07c.36-8.58-.48-13.77.36-31.89a271.24,271.24,0,0,1,4-33.27s.81-7.46-1.64-10.83" fill="#797b7d"/><circle cx="-1.05" cy="395.96" r="116.22" fill="#fff"/><path d="M-9.83,289.42l7.31.41,2,8.52,3-8.23,4.72.27,2,8.52,3-8.23,7.31.41L11,314.65l-5.37-.3L3.88,307,1.3,314.1l-5.37-.3ZM-.67,311.1l5.15-14.82,3.45,15.3.81,0,6.43-17.92-.87,0L8.44,310,4.66,293.12-1,309.43l-4-16.85-.87,0,4.37,18.53Z" fill="#f6911e"/><path d="M23.63,293l7.06,2L24.28,318l-7.06-2Zm-1.71,21.46,4.87-17.59-.81-.22-4.87,17.59Z" fill="#f6911e"/><path d="M35.88,296.33,41,298.75l1.44,10.91,4-8.37,6.12,2.89L42.26,325.9l-5.16-2.44L35.68,312.6l-3.94,8.33L25.62,318Zm-5.54,20.75,7.1-15L40,321.65l.76.36,7.8-16.5-.76-.36-7.1,15-2.56-19.61-.76-.36-7.8,16.5Z" fill="#f6911e"/><path d="M58.12,307.7l4.42,3.55L61.39,322.2l5.8-7.21,5.28,4.24-15,18.71L53,334.37l1.15-10.9-5.78,7.18-5.28-4.24ZM47.88,326.58l10.42-13-2.09,19.66.66.53,11.44-14.22-.66-.53L57.23,332l2.09-19.66-.66-.53L47.23,326.05Z" fill="#f6911e"/><path d="M76.5,323.63l8.1,9.82-4.86,4L76,333,74,334.66l3.65,4.42L73,342.88l-3.65-4.42-2.14,1.76,3.86,4.67-4.86,4-8.25-10Zm-9.58,21.6.67-.55-4.12-5,6.08-5,3.92,4.75.67-.55-3.92-4.75,6-4.95,4.12,5,.67-.55L76.34,328,62.26,339.58Z" fill="#f6911e"/><path d="M87.77,337.91l3.61,6.52a11.66,11.66,0,0,1,1.33,3.65,8.68,8.68,0,0,1-.09,3.55A8.21,8.21,0,0,1,91,354.83a10.33,10.33,0,0,1-3.16,2.58A9.07,9.07,0,0,1,85,358.5a9.75,9.75,0,0,1-2.31.13,7.43,7.43,0,0,1-2.09-.51l-5,7.38-3.93-7.08,3.75-5.78-5.32,2.95-3.35-6ZM77.34,351.4a10.48,10.48,0,0,0,1.45,2l-3.55,5.48.49.88L79.44,354a5.74,5.74,0,0,0,6.92.54,6.52,6.52,0,0,0,2.16-1.83,5.75,5.75,0,0,0,1-2.29,6.53,6.53,0,0,0,0-2.56,9.24,9.24,0,0,0-1-2.67l-1.7-3.06-16,8.85.41.74,4.79-2.65Zm-.53-2.74,9.67-5.36,1.29,2.32a6.84,6.84,0,0,1,1,4.74A5.13,5.13,0,0,1,86,353.8a5.08,5.08,0,0,1-4.38.52A6.9,6.9,0,0,1,78.09,351Zm4,1L81,350a3.51,3.51,0,0,0,1.55,1.53,2.88,2.88,0,0,0,3.59-2,3.51,3.51,0,0,0-.48-2.12l-.17-.31Z" fill="#f6911e"/><path d="M100.19,364.9,102.1,372l-23.18,6.25L77,371.16Zm-19.34,9.44,17.62-4.75-.22-.81-17.62,4.75Z" fill="#f6911e"/><path d="M86.69,378.12a9.91,9.91,0,0,0-.21,1.53,10.72,10.72,0,0,0-.1,1.5,13.13,13.13,0,0,0,.1,1.67q.19,1.48,1.4,1.33a1.42,1.42,0,0,0,.89-.57,14.52,14.52,0,0,0,.93-1.28q.5-.76,1.12-1.64A11.39,11.39,0,0,1,92.27,379a8.87,8.87,0,0,1,1.95-1.4,7.37,7.37,0,0,1,2.61-.78,7.59,7.59,0,0,1,3,.17,6,6,0,0,1,2.33,1.24,6.61,6.61,0,0,1,1.59,2.1,8.55,8.55,0,0,1,.8,2.72,13.75,13.75,0,0,1,.1,1.55c0,.52,0,1,0,1.4s0,1,0,1.41l-6.68.84c0-.17,0-.37,0-.59s0-.37,0-.59a6.72,6.72,0,0,0,0-.68c0-.13,0-.29-.08-.48a2.64,2.64,0,0,0-.16-.54,1.09,1.09,0,0,0-.31-.42.65.65,0,0,0-.52-.13q-.29,0-.66.52t-.87,1.19q-.49.7-1.15,1.55a10.33,10.33,0,0,1-1.54,1.6,10.51,10.51,0,0,1-2,1.33,8.11,8.11,0,0,1-2.66.77,9.53,9.53,0,0,1-3-.08,6.42,6.42,0,0,1-2.57-1.1,6.63,6.63,0,0,1-1.91-2.23,9.55,9.55,0,0,1-1-3.43,19.18,19.18,0,0,1-.16-2.28q0-1.06.07-1.89a14.24,14.24,0,0,1,.21-1.76Zm-3.95,3.24q-.05.46-.06,1t0,1a9.8,9.8,0,0,0,.07,1,6.66,6.66,0,0,0,.45,1.72,4.24,4.24,0,0,0,1,1.43,3.88,3.88,0,0,0,1.51.9,4.77,4.77,0,0,0,2.1.15,4.37,4.37,0,0,0,1.91-.71,9.2,9.2,0,0,0,1.64-1.41,21.44,21.44,0,0,0,1.45-1.75q.68-.92,1.4-1.74a9.73,9.73,0,0,1,1.46-1.39,3.29,3.29,0,0,1,1.6-.67,2.61,2.61,0,0,1,2.08.49,3.42,3.42,0,0,1,1,2.29c0,.17,0,.35,0,.53s0,.36,0,.54a3.82,3.82,0,0,0,0,.52l.93-.12a3.51,3.51,0,0,1,0-.49c0-.15,0-.32,0-.51s0-.37-.05-.56A4.57,4.57,0,0,0,100,380.8a3.27,3.27,0,0,0-2.87-.78,4,4,0,0,0-1.82.7,9.41,9.41,0,0,0-1.57,1.4q-.75.83-1.43,1.75t-1.4,1.74A8.78,8.78,0,0,1,89.4,387a3.71,3.71,0,0,1-1.73.69,3.26,3.26,0,0,1-2.74-.72,4.32,4.32,0,0,1-1.25-2.77,10.39,10.39,0,0,1-.07-2q0-.49.06-1Z" fill="#f6911e"/><line x1="-165.55" y1="394.96" x2="162.95" y2="394.96" fill="none" stroke="#fff" stroke-miterlimit="10" stroke-width="2"/><rect x="565.74" y="56.18" width="25.55" height="325.78" fill="#f6911e"/><path d="M586.49,133.32v5L581.37,140l5.13,1.69v3.21l-5.13,1.69,5.13,1.69v5l-14.67-4.84v-3.65l4.44-1.47-4.44-1.47v-3.65Zm-12.91,7,9.22,2.93-9.22,2.93v.55l11.15,3.67v-.59l-10.14-3.34,10.14-3.21-10.14-3.21,10.14-3.34v-.59l-11.15,3.67Z" fill="#fff"/><path d="M579.14,153.25a7.5,7.5,0,0,1,3,.6,7.69,7.69,0,0,1,4.1,4.1,7.71,7.71,0,0,1,0,6,7.69,7.69,0,0,1-4.1,4.1,7.7,7.7,0,0,1-6,0,7.7,7.7,0,0,1-4.1-4.1,7.71,7.71,0,0,1,0-6,7.7,7.7,0,0,1,4.1-4.1A7.5,7.5,0,0,1,579.14,153.25Zm0,2.07a5.47,5.47,0,0,0-2.19.44,5.67,5.67,0,0,0-3,3,5.66,5.66,0,0,0,0,4.38,5.67,5.67,0,0,0,3,3,5.67,5.67,0,0,0,4.38,0,5.67,5.67,0,0,0,3-3,5.66,5.66,0,0,0,0-4.38,5.67,5.67,0,0,0-3-3A5.47,5.47,0,0,0,579.14,155.32ZM574.08,161a4.9,4.9,0,0,1,.4-2,5.15,5.15,0,0,1,2.7-2.69,5.09,5.09,0,0,1,3.94,0,5.16,5.16,0,0,1,2.7,2.69,5.09,5.09,0,0,1,0,3.94,5.16,5.16,0,0,1-2.7,2.7,5.09,5.09,0,0,1-3.94,0,5.15,5.15,0,0,1-2.7-2.7A4.9,4.9,0,0,1,574.08,161Zm5.06-3.08a3,3,0,0,0-1.2.24,3.09,3.09,0,0,0-1.64,1.64,3.09,3.09,0,0,0,0,2.4,3.09,3.09,0,0,0,1.64,1.64,3.09,3.09,0,0,0,2.4,0,3.09,3.09,0,0,0,1.64-1.64,3.09,3.09,0,0,0,0-2.4,3.09,3.09,0,0,0-1.64-1.64A3,3,0,0,0,579.14,157.87Z" fill="#fff"/><path d="M586.49,169.86v5.06a8.73,8.73,0,0,1-.37,2.61,6.07,6.07,0,0,1-1.1,2.08,5.05,5.05,0,0,1-1.79,1.38,5.77,5.77,0,0,1-2.45.5,5,5,0,0,1-1.87-.31,5.7,5.7,0,0,1-1.28-.68,4.71,4.71,0,0,1-1-1l-4.84,2.75v-5.5l3.72-2.2h-3.72v-4.69Zm-9.57,4.58a7.9,7.9,0,0,0,.18,1.67l-3.52,2.09v.68l3.7-2.2a4.14,4.14,0,0,0,1.29,1.89,3.47,3.47,0,0,0,2.25.7,3.65,3.65,0,0,0,1.69-.37,3.58,3.58,0,0,0,1.22-1,4.58,4.58,0,0,0,.75-1.53,6.89,6.89,0,0,0,.25-1.91v-2.38H573.58v.57h3.34Zm.53-1.8h6.75v1.8a5,5,0,0,1-.88,3.13,3,3,0,0,1-2.51,1.13,3,3,0,0,1-2.5-1.13,5,5,0,0,1-.87-3.13Zm1.83,1.91v.24a2.57,2.57,0,0,0,.37,1.42,1.64,1.64,0,0,0,2.51,0,2.57,2.57,0,0,0,.37-1.42v-.24Z" fill="#fff"/><path d="M586.49,182.69v4.88H575.67v4h-3.85v-8.93Zm-12.91,7.7h.53v-4.93h10.63v-.57H573.58Z" fill="#fff"/><path d="M571.82,192.39h14.67v4.07a13.45,13.45,0,0,1-.46,3.69,7.38,7.38,0,0,1-1.39,2.73,6,6,0,0,1-2.3,1.69,9,9,0,0,1-6.36,0,6,6,0,0,1-2.3-1.69,7.5,7.5,0,0,1-1.4-2.73,13.14,13.14,0,0,1-.47-3.69Zm1.76,2.2v1.87a7.08,7.08,0,0,0,1.46,4.85,6,6,0,0,0,8.24,0,7.12,7.12,0,0,0,1.45-4.85v-1.87Zm.53.57h10.1v1.3a6.7,6.7,0,0,1-1.27,4.35,5.38,5.38,0,0,1-7.56,0,6.65,6.65,0,0,1-1.28-4.35Zm1.89,1.91a3.78,3.78,0,0,0,.78,2.55,3,3,0,0,0,2.39.9,3,3,0,0,0,2.38-.9,3.82,3.82,0,0,0,.77-2.55Z" fill="#fff"/><path d="M579.14,210.43a7.9,7.9,0,0,1,3.18.62,7.39,7.39,0,0,1,2.43,1.67,7.28,7.28,0,0,1,1.55,2.46,8.3,8.3,0,0,1,.54,3,9.35,9.35,0,0,1-.24,2.23,10.58,10.58,0,0,1-.55,1.68,8,8,0,0,1-.77,1.41l-4.07-2.31a8,8,0,0,0,.51-.77,7.55,7.55,0,0,0,.34-.89,3.86,3.86,0,0,0,.17-1.18,3.19,3.19,0,0,0-.24-1.25,3.23,3.23,0,0,0-.66-1,3,3,0,0,0-1-.67,3,3,0,0,0-1.2-.24,2.89,2.89,0,0,0-1.2.25,3.06,3.06,0,0,0-1,.69,3.26,3.26,0,0,0-.66,1,3.39,3.39,0,0,0-.24,1.3,4.12,4.12,0,0,0,.18,1.25,4.61,4.61,0,0,0,.4.92,3.33,3.33,0,0,0,.57.77l-4.07,2.31a6.51,6.51,0,0,1-.86-1.41,11.83,11.83,0,0,1-.57-1.69,8.79,8.79,0,0,1-.26-2.27,8.7,8.7,0,0,1,.56-3.17,7.47,7.47,0,0,1,1.57-2.51A7.14,7.14,0,0,1,576,211,8,8,0,0,1,579.14,210.43Zm0,2.77a5.37,5.37,0,0,1,2,.36,4.82,4.82,0,0,1,1.61,1,4.76,4.76,0,0,1,1.08,1.61,5.42,5.42,0,0,1,.4,2.11,6.07,6.07,0,0,1-.08,1,4.55,4.55,0,0,1-.19.76,2.84,2.84,0,0,1-.26.64l.53.31c.1-.23.2-.48.29-.75a8.68,8.68,0,0,0,.2-.86,6.44,6.44,0,0,0,.09-1.12,5.9,5.9,0,0,0-.4-2.15,5.51,5.51,0,0,0-1.13-1.8,5.56,5.56,0,0,0-4.1-1.73,5.78,5.78,0,0,0-2.33.45,5.27,5.27,0,0,0-1.77,1.24,5.53,5.53,0,0,0-1.13,1.85,6.34,6.34,0,0,0-.4,2.24,5.77,5.77,0,0,0,.11,1.19,7,7,0,0,0,.24.9,4.37,4.37,0,0,0,.35.75l.53-.31a2.78,2.78,0,0,1-.33-.66,5,5,0,0,1-.23-.79,5.16,5.16,0,0,1-.1-1.08,5.71,5.71,0,0,1,.4-2.18,4.82,4.82,0,0,1,1.08-1.64,4.72,4.72,0,0,1,1.61-1A5.37,5.37,0,0,1,579.14,213.2Z" fill="#fff"/><path d="M571.44,230.28a8.37,8.37,0,0,1,.35-2.51,5.15,5.15,0,0,1,1.06-1.91,4.64,4.64,0,0,1,1.78-1.22,6.82,6.82,0,0,1,2.53-.43h9.33v4.69h-9.13a1.87,1.87,0,0,0-1.18.32,1.6,1.6,0,0,0,0,2.13,1.87,1.87,0,0,0,1.18.32h9.13v4.71h-9.33a6.81,6.81,0,0,1-2.53-.43,4.58,4.58,0,0,1-1.78-1.23,5.26,5.26,0,0,1-1.06-1.92A8.37,8.37,0,0,1,571.44,230.28Zm2.64,0q0-3.3,3.23-3.3h7.41v-.57h-7.41a3.78,3.78,0,0,0-2.83,1,3.94,3.94,0,0,0-1,2.87,4,4,0,0,0,1,2.88,3.75,3.75,0,0,0,2.83,1h7.41v-.59h-7.41Q574.08,233.58,574.08,230.28Z" fill="#fff"/><path d="M586.49,237.84v5H571.82v-5Zm-12.91,2.77h11.15V240H573.58Z" fill="#fff"/><path d="M576.37,244a7.14,7.14,0,0,0-.24,1,7.67,7.67,0,0,0-.18,1,9.49,9.49,0,0,0-.07,1.13q0,1,.75,1a.84.84,0,0,0,.58-.31,9.1,9.1,0,0,0,.66-.78q.36-.47.8-1a7.32,7.32,0,0,1,1-1,5.27,5.27,0,0,1,1.29-.78,4.1,4.1,0,0,1,1.64-.31,4.23,4.23,0,0,1,1.83.37,3.67,3.67,0,0,1,1.32,1,4.66,4.66,0,0,1,.8,1.55,6.44,6.44,0,0,1,.27,1.9,10.07,10.07,0,0,1-.05,1.06l-.1.95-.13.95h-4.11q0-.18,0-.4t0-.4c0-.15,0-.3,0-.46s0-.2,0-.33a2,2,0,0,0-.05-.37.75.75,0,0,0-.15-.31.38.38,0,0,0-.31-.13q-.18,0-.44.3l-.62.73q-.35.43-.81.95a6.61,6.61,0,0,1-1.06.95,6.16,6.16,0,0,1-1.34.73,4.49,4.49,0,0,1-1.67.3,5.28,5.28,0,0,1-1.81-.31,3.86,3.86,0,0,1-1.47-1,4.58,4.58,0,0,1-1-1.66,7.13,7.13,0,0,1-.36-2.4,14.66,14.66,0,0,1,.08-1.55q.08-.72.19-1.27A10.18,10.18,0,0,1,572,244Zm-2.64,1.85c0,.21-.08.43-.11.66s-.06.42-.08.65,0,.46,0,.69a5,5,0,0,0,.14,1.2,3,3,0,0,0,.47,1,2.41,2.41,0,0,0,.85.74,2.67,2.67,0,0,0,1.26.27,2.45,2.45,0,0,0,1.21-.32,5.63,5.63,0,0,0,1.1-.81,13.84,13.84,0,0,0,1-1.06q.48-.56,1-1.06a6,6,0,0,1,1-.81,1.86,1.86,0,0,1,1-.32,1.51,1.51,0,0,1,1.22.51,2.5,2.5,0,0,1,.43,1.63q0,.18,0,.36c0,.12,0,.25,0,.36a2.83,2.83,0,0,0,0,.35h.57a2.67,2.67,0,0,1,0-.33c0-.1,0-.22,0-.34s0-.25,0-.39a3.34,3.34,0,0,0-.54-2,1.91,1.91,0,0,0-1.68-.77,2.23,2.23,0,0,0-1.16.32,5.78,5.78,0,0,0-1.06.81q-.52.5-1,1.06t-1,1.06a5.41,5.41,0,0,1-1,.81,2.1,2.1,0,0,1-1.1.32,1.9,1.9,0,0,1-1.61-.72,3.15,3.15,0,0,1-.55-2,7.79,7.79,0,0,1,.11-1.36c0-.22.07-.43.11-.64Z" fill="#fff"/><path d="M586.49,254.25v5H571.82v-5ZM573.58,257h11.15v-.57H573.58Z" fill="#fff"/><path d="M586.49,260.77v3.85l-5.65,4h5.65v4.6H571.82v-3.87l5.63-4h-5.63v-4.6Zm-12.91,2.62h10.16l-10.16,7.26v.57h11.15v-.57H574.57l10.16-7.26v-.57H573.58Z" fill="#fff"/><path d="M586.49,274.8v8.65h-3.85v-4H581v3.89h-3.65v-3.89h-1.69v4.11h-3.85v-8.8ZM573.58,282h.53v-4.4h4.82v4.18h.53v-4.18h4.75V282h.53v-5H573.58Z" fill="#fff"/><g opacity="0.32" style="mix-blend-mode:multiply"><path d="M-20.61,60h17.1l18,27.9V60H34.89v72.42H17.7L-.19,104.67v27.79H-20.61ZM-9,123.78V73.62l32.25,50.16h2.54v-55H23.27v50.16L-9,68.73h-2.54v55Z" fill="#737477" stroke="#737477" stroke-miterlimit="10" stroke-width="10"/><path d="M40.27,96.31A42.78,42.78,0,0,1,43,80.62a36.91,36.91,0,0,1,7.43-12A32.13,32.13,0,0,1,61.37,61a33.6,33.6,0,0,1,13.29-2.66,37.53,37.53,0,0,1,9.92,1.19,43.83,43.83,0,0,1,7.48,2.71A34.24,34.24,0,0,1,98.31,66L88,86.1a34.55,34.55,0,0,0-3.42-2.5,31,31,0,0,0-4-1.68,15.59,15.59,0,0,0-5.23-.81,12.93,12.93,0,0,0-5.57,1.19,14.27,14.27,0,0,0-4.45,3.26,15.08,15.08,0,0,0-3,4.83,16.18,16.18,0,0,0-1.08,5.92,15.58,15.58,0,0,0,1.12,5.92,15.3,15.3,0,0,0,3.08,4.83,14.47,14.47,0,0,0,4.59,3.26,13.79,13.79,0,0,0,5.77,1.19,16.55,16.55,0,0,0,5.57-.87,19.4,19.4,0,0,0,4.1-2A15.33,15.33,0,0,0,89,105.86l10.26,20.09A28.7,28.7,0,0,1,93,130.18,49.52,49.52,0,0,1,85.51,133a35.46,35.46,0,0,1-10.06,1.3,35.3,35.3,0,0,1-14.07-2.77,32.9,32.9,0,0,1-11.14-7.76,35.62,35.62,0,0,1-7.33-12A43.55,43.55,0,0,1,40.27,96.31Zm12.31,0a29.12,29.12,0,0,1,1.61-9.77,24.23,24.23,0,0,1,4.54-7.93,21.17,21.17,0,0,1,7.13-5.32,22,22,0,0,1,9.38-2,24.56,24.56,0,0,1,4.54.38,18.92,18.92,0,0,1,3.37.92A12.23,12.23,0,0,1,86,73.94l1.37-2.61Q85.8,70.58,84,69.93a34.4,34.4,0,0,0-3.81-1,25.46,25.46,0,0,0-5-.43,23.86,23.86,0,0,0-9.53,2,24.19,24.19,0,0,0-8,5.59,27.75,27.75,0,0,0-5.57,8.79A30.09,30.09,0,0,0,50,96.31a31.27,31.27,0,0,0,2,11.51,26.13,26.13,0,0,0,5.52,8.74,24.3,24.3,0,0,0,8.21,5.59,25.65,25.65,0,0,0,10,2,23.4,23.4,0,0,0,5.28-.54,29,29,0,0,0,4-1.19,18.75,18.75,0,0,0,3.32-1.74L87,118A11.91,11.91,0,0,1,84,119.65a20.27,20.27,0,0,1-3.52,1.14,20.83,20.83,0,0,1-4.79.49,23.12,23.12,0,0,1-9.67-2A21.41,21.41,0,0,1,58.78,114a23.74,23.74,0,0,1-4.59-7.93A29.12,29.12,0,0,1,52.58,96.31Z" fill="#737477" stroke="#737477" stroke-miterlimit="10" stroke-width="10"/><path d="M101.73,60h20.81V84.69h11.63V60h20.91v72.42H134.17V105.65H122.54v26.82H101.73ZM114,123.78V96.31h28.73v27.47h2.54v-55h-2.54v25H114v-25H111.5v55Z" fill="#737477" stroke="#737477" stroke-miterlimit="10" stroke-width="10"/><path d="M-53.54,209V136.62h18.08A54.06,54.06,0,0,1-19.1,138.9,31.69,31.69,0,0,1-7,145.74,29.52,29.52,0,0,1,.54,157.08a43.88,43.88,0,0,1,2.59,15.69A43.86,43.86,0,0,1,.54,188.46,29.5,29.5,0,0,1-7,199.81,32.25,32.25,0,0,1-19.1,206.7,52.85,52.85,0,0,1-35.47,209Zm9.77-8.69h8.31q14.27,0,21.55-7.22t7.28-20.36q0-13.14-7.28-20.3t-21.55-7.17h-8.31Zm2.54-2.61V147.91h5.77q12.41,0,19.3,6.24t6.89,18.62q0,12.38-6.89,18.67t-19.3,6.3Zm8.5-9.34q7.33,0,11.33-3.85t4-11.78q0-7.92-4-11.73t-11.33-3.8Z" fill="#737477" stroke="#737477" stroke-miterlimit="10" stroke-width="10"/><path d="M8.51,136.62H25.6l18,27.9v-27.9H64V209H46.81L28.93,181.24V209H8.51Zm11.63,63.73V150.19l32.25,50.16h2.54v-55H52.38v50.16L20.13,145.3H17.59v55Z" fill="#737477" stroke="#737477" stroke-miterlimit="10" stroke-width="10"/><path d="M70.85,136.62h38.4v19H91.66v8H109v18H91.66V190h18.27v19H70.85Zm31.86,63.73v-2.61H83.16V174h18.57v-2.61H83.16V147.91H102.7V145.3H80.62v55Z" fill="#737477" stroke="#737477" stroke-miterlimit="10" stroke-width="10"/><path d="M114,186.56a29.52,29.52,0,0,0,4.49,1.19,32.22,32.22,0,0,0,4.45.87,38.74,38.74,0,0,0,5,.33q4.49,0,4.49-3.69a4.3,4.3,0,0,0-1.37-2.88,42.83,42.83,0,0,0-3.47-3.26q-2.1-1.79-4.5-4a34.43,34.43,0,0,1-4.5-5,26.75,26.75,0,0,1-3.47-6.35,22.26,22.26,0,0,1-1.37-8.09,22.87,22.87,0,0,1,1.66-9,18,18,0,0,1,4.59-6.51,20,20,0,0,1,6.89-4,25.9,25.9,0,0,1,8.45-1.36,41.06,41.06,0,0,1,4.69.27l4.2.49,4.2.65v20.3l-1.76-.22-1.76-.22a19,19,0,0,0-2.05-.11q-.59,0-1.47.05a8.18,8.18,0,0,0-1.66.27,3.28,3.28,0,0,0-1.37.76,2,2,0,0,0-.59,1.52,3.54,3.54,0,0,0,1.32,2.17q1.32,1.3,3.22,3t4.2,4A31.26,31.26,0,0,1,154,179.72a24.41,24.41,0,0,1,1.32,8.25,28.61,28.61,0,0,1-1.37,9,19.4,19.4,0,0,1-4.25,7.27,20.06,20.06,0,0,1-7.38,4.89,28.7,28.7,0,0,1-10.65,1.79,58.31,58.31,0,0,1-6.89-.38q-3.18-.38-5.62-.92a43.34,43.34,0,0,1-5.18-1.3Zm8.21,13q1.37.33,2.93.54,1.37.22,2.88.38a28.68,28.68,0,0,0,3.08.16,20.12,20.12,0,0,0,5.33-.71,12.8,12.8,0,0,0,4.64-2.33,11.68,11.68,0,0,0,3.27-4.18,14.37,14.37,0,0,0,1.22-6.24,13.16,13.16,0,0,0-1.42-6,27.75,27.75,0,0,0-3.62-5.43,65,65,0,0,0-4.69-5q-2.49-2.39-4.69-4.83a29.37,29.37,0,0,1-3.62-4.89,9.93,9.93,0,0,1-1.42-5,7.88,7.88,0,0,1,2.25-6q2.25-2.12,7.23-2.12.78,0,1.61.05t1.61.16a11.23,11.23,0,0,0,1.56.11v-2.82a10.63,10.63,0,0,1-1.47-.11q-.68-.11-1.51-.16c-.55,0-1.12-.05-1.71-.05a13.74,13.74,0,0,0-8.7,2.66q-3.42,2.66-3.42,8.31a11.93,11.93,0,0,0,1.42,5.7,28.55,28.55,0,0,0,3.62,5.21q2.2,2.55,4.69,4.94t4.69,4.83a26.49,26.49,0,0,1,3.62,5,11.23,11.23,0,0,1,1.42,5.43q0,5.21-3.18,7.93t-8.75,2.71a31.14,31.14,0,0,1-6.06-.54q-1.46-.22-2.83-.54Z" fill="#737477" stroke="#737477" stroke-miterlimit="10" stroke-width="10"/><path d="M158,186.56a29.53,29.53,0,0,0,4.5,1.19,32.18,32.18,0,0,0,4.45.87,38.75,38.75,0,0,0,5,.33q4.49,0,4.49-3.69a4.3,4.3,0,0,0-1.37-2.88,42.83,42.83,0,0,0-3.47-3.26q-2.1-1.79-4.49-4a34.32,34.32,0,0,1-4.5-5,26.71,26.71,0,0,1-3.47-6.35,22.24,22.24,0,0,1-1.37-8.09,22.85,22.85,0,0,1,1.66-9,18,18,0,0,1,4.59-6.51,20,20,0,0,1,6.89-4,25.9,25.9,0,0,1,8.45-1.36,41,41,0,0,1,4.69.27l4.2.49,4.2.65v20.3l-1.76-.22-1.76-.22a19,19,0,0,0-2.05-.11q-.59,0-1.47.05a8.17,8.17,0,0,0-1.66.27,3.28,3.28,0,0,0-1.37.76,2,2,0,0,0-.59,1.52,3.54,3.54,0,0,0,1.32,2.17q1.32,1.3,3.22,3t4.2,4A31.26,31.26,0,0,1,198,179.72a24.39,24.39,0,0,1,1.32,8.25,28.61,28.61,0,0,1-1.37,9,19.37,19.37,0,0,1-4.25,7.27,20,20,0,0,1-7.38,4.89,28.71,28.71,0,0,1-10.65,1.79,58.3,58.3,0,0,1-6.89-.38q-3.18-.38-5.62-.92a43.41,43.41,0,0,1-5.18-1.3Zm8.21,13q1.37.33,2.93.54,1.37.22,2.88.38a28.66,28.66,0,0,0,3.08.16,20.13,20.13,0,0,0,5.33-.71,12.79,12.79,0,0,0,4.64-2.33,11.67,11.67,0,0,0,3.27-4.18,14.37,14.37,0,0,0,1.22-6.24,13.14,13.14,0,0,0-1.42-6,27.66,27.66,0,0,0-3.62-5.43,65,65,0,0,0-4.69-5q-2.49-2.39-4.69-4.83a29.43,29.43,0,0,1-3.62-4.89,9.93,9.93,0,0,1-1.42-5,7.87,7.87,0,0,1,2.25-6q2.25-2.12,7.23-2.12.78,0,1.61.05t1.61.16a11.2,11.2,0,0,0,1.56.11v-2.82a10.61,10.61,0,0,1-1.47-.11q-.68-.11-1.51-.16t-1.71-.05a13.75,13.75,0,0,0-8.7,2.66q-3.42,2.66-3.42,8.31a11.93,11.93,0,0,0,1.42,5.7,28.5,28.5,0,0,0,3.62,5.21q2.2,2.55,4.69,4.94t4.69,4.83a26.53,26.53,0,0,1,3.62,5,11.23,11.23,0,0,1,1.42,5.43q0,5.21-3.18,7.93t-8.75,2.71a31.12,31.12,0,0,1-6.06-.54q-1.47-.22-2.83-.54Z" fill="#737477" stroke="#737477" stroke-miterlimit="10" stroke-width="10"/></g><path d="M-20.61,55h17.1l18,27.9V55H34.89v72.42H17.7L-.19,99.67v27.79H-20.61ZM-9,118.78V68.62l32.25,50.16h2.54v-55H23.27v50.16L-9,63.73h-2.54v55Z" fill="none" stroke="#f6911e" stroke-miterlimit="10" stroke-width="9"/><path d="M40.27,91.31A42.78,42.78,0,0,1,43,75.62a36.91,36.91,0,0,1,7.43-12A32.13,32.13,0,0,1,61.37,56a33.6,33.6,0,0,1,13.29-2.66,37.53,37.53,0,0,1,9.92,1.19,43.83,43.83,0,0,1,7.48,2.71A34.24,34.24,0,0,1,98.31,61L88,81.1a34.55,34.55,0,0,0-3.42-2.5,31,31,0,0,0-4-1.68,15.59,15.59,0,0,0-5.23-.81,12.93,12.93,0,0,0-5.57,1.19,14.27,14.27,0,0,0-4.45,3.26,15.08,15.08,0,0,0-3,4.83,16.18,16.18,0,0,0-1.08,5.92,15.58,15.58,0,0,0,1.12,5.92,15.3,15.3,0,0,0,3.08,4.83,14.47,14.47,0,0,0,4.59,3.26,13.79,13.79,0,0,0,5.77,1.19,16.55,16.55,0,0,0,5.57-.87,19.4,19.4,0,0,0,4.1-2A15.33,15.33,0,0,0,89,100.86l10.26,20.09A28.7,28.7,0,0,1,93,125.18,49.52,49.52,0,0,1,85.51,128a35.46,35.46,0,0,1-10.06,1.3,35.3,35.3,0,0,1-14.07-2.77,32.9,32.9,0,0,1-11.14-7.76,35.62,35.62,0,0,1-7.33-12A43.55,43.55,0,0,1,40.27,91.31Zm12.31,0a29.12,29.12,0,0,1,1.61-9.77,24.23,24.23,0,0,1,4.54-7.93,21.17,21.17,0,0,1,7.13-5.32,22,22,0,0,1,9.38-2,24.56,24.56,0,0,1,4.54.38,18.92,18.92,0,0,1,3.37.92A12.23,12.23,0,0,1,86,68.94l1.37-2.61Q85.8,65.58,84,64.93a34.4,34.4,0,0,0-3.81-1,25.46,25.46,0,0,0-5-.43,23.86,23.86,0,0,0-9.53,2,24.19,24.19,0,0,0-8,5.59,27.75,27.75,0,0,0-5.57,8.79A30.09,30.09,0,0,0,50,91.31a31.27,31.27,0,0,0,2,11.51,26.13,26.13,0,0,0,5.52,8.74,24.3,24.3,0,0,0,8.21,5.59,25.65,25.65,0,0,0,10,2,23.4,23.4,0,0,0,5.28-.54,29,29,0,0,0,4-1.19,18.75,18.75,0,0,0,3.32-1.74L87,113A11.91,11.91,0,0,1,84,114.65a20.27,20.27,0,0,1-3.52,1.14,20.83,20.83,0,0,1-4.79.49,23.12,23.12,0,0,1-9.67-2A21.41,21.41,0,0,1,58.78,109a23.74,23.74,0,0,1-4.59-7.93A29.12,29.12,0,0,1,52.58,91.31Z" fill="none" stroke="#f6911e" stroke-miterlimit="10" stroke-width="9"/><path d="M101.73,55h20.81V79.69h11.63V55h20.91v72.42H134.17V100.65H122.54v26.82H101.73ZM114,118.78V91.31h28.73v27.47h2.54v-55h-2.54v25H114v-25H111.5v55Z" fill="none" stroke="#f6911e" stroke-miterlimit="10" stroke-width="9"/><path d="M-53.54,204V131.62h18.08A54.06,54.06,0,0,1-19.1,133.9,31.69,31.69,0,0,1-7,140.74,29.52,29.52,0,0,1,.54,152.08a43.88,43.88,0,0,1,2.59,15.69A43.86,43.86,0,0,1,.54,183.46,29.5,29.5,0,0,1-7,194.81,32.25,32.25,0,0,1-19.1,201.7,52.85,52.85,0,0,1-35.47,204Zm9.77-8.69h8.31q14.27,0,21.55-7.22t7.28-20.36q0-13.14-7.28-20.3t-21.55-7.17h-8.31Zm2.54-2.61V142.91h5.77q12.41,0,19.3,6.24t6.89,18.62q0,12.38-6.89,18.67t-19.3,6.3Zm8.5-9.34q7.33,0,11.33-3.85t4-11.78q0-7.92-4-11.73t-11.33-3.8Z" fill="none" stroke="#f6911e" stroke-miterlimit="10" stroke-width="9"/><path d="M8.51,131.62H25.6l18,27.9v-27.9H64V204H46.81L28.93,176.24V204H8.51Zm11.63,63.73V145.19l32.25,50.16h2.54v-55H52.38v50.16L20.13,140.3H17.59v55Z" fill="none" stroke="#f6911e" stroke-miterlimit="10" stroke-width="9"/><path d="M70.85,131.62h38.4v19H91.66v8H109v18H91.66V185h18.27v19H70.85Zm31.86,63.73v-2.61H83.16V169h18.57v-2.61H83.16V142.91H102.7V140.3H80.62v55Z" fill="none" stroke="#f6911e" stroke-miterlimit="10" stroke-width="9"/><path d="M114,181.56a29.52,29.52,0,0,0,4.49,1.19,32.22,32.22,0,0,0,4.45.87,38.74,38.74,0,0,0,5,.33q4.49,0,4.49-3.69a4.3,4.3,0,0,0-1.37-2.88,42.83,42.83,0,0,0-3.47-3.26q-2.1-1.79-4.5-4a34.43,34.43,0,0,1-4.5-5,26.75,26.75,0,0,1-3.47-6.35,22.26,22.26,0,0,1-1.37-8.09,22.87,22.87,0,0,1,1.66-9,18,18,0,0,1,4.59-6.51,20,20,0,0,1,6.89-4,25.9,25.9,0,0,1,8.45-1.36,41.06,41.06,0,0,1,4.69.27l4.2.49,4.2.65v20.3l-1.76-.22-1.76-.22a19,19,0,0,0-2.05-.11q-.59,0-1.47.05a8.18,8.18,0,0,0-1.66.27,3.28,3.28,0,0,0-1.37.76,2,2,0,0,0-.59,1.52,3.54,3.54,0,0,0,1.32,2.17q1.32,1.3,3.22,3t4.2,4A31.26,31.26,0,0,1,154,174.72a24.41,24.41,0,0,1,1.32,8.25,28.61,28.61,0,0,1-1.37,9,19.4,19.4,0,0,1-4.25,7.27,20.06,20.06,0,0,1-7.38,4.89,28.7,28.7,0,0,1-10.65,1.79,58.31,58.31,0,0,1-6.89-.38q-3.18-.38-5.62-.92a43.34,43.34,0,0,1-5.18-1.3Zm8.21,13q1.37.33,2.93.54,1.37.22,2.88.38a28.68,28.68,0,0,0,3.08.16,20.12,20.12,0,0,0,5.33-.71,12.8,12.8,0,0,0,4.64-2.33,11.68,11.68,0,0,0,3.27-4.18,14.37,14.37,0,0,0,1.22-6.24,13.16,13.16,0,0,0-1.42-6,27.75,27.75,0,0,0-3.62-5.43,65,65,0,0,0-4.69-5q-2.49-2.39-4.69-4.83a29.37,29.37,0,0,1-3.62-4.89,9.93,9.93,0,0,1-1.42-5,7.88,7.88,0,0,1,2.25-6q2.25-2.12,7.23-2.12.78,0,1.61.05t1.61.16a11.23,11.23,0,0,0,1.56.11v-2.82a10.63,10.63,0,0,1-1.47-.11q-.68-.11-1.51-.16c-.55,0-1.12-.05-1.71-.05a13.74,13.74,0,0,0-8.7,2.66q-3.42,2.66-3.42,8.31a11.93,11.93,0,0,0,1.42,5.7,28.55,28.55,0,0,0,3.62,5.21q2.2,2.55,4.69,4.94t4.69,4.83a26.49,26.49,0,0,1,3.62,5,11.23,11.23,0,0,1,1.42,5.43q0,5.21-3.18,7.93t-8.75,2.71a31.14,31.14,0,0,1-6.06-.54q-1.46-.22-2.83-.54Z" fill="none" stroke="#f6911e" stroke-miterlimit="10" stroke-width="9"/><path d="M158,181.56a29.53,29.53,0,0,0,4.5,1.19,32.18,32.18,0,0,0,4.45.87,38.75,38.75,0,0,0,5,.33q4.49,0,4.49-3.69a4.3,4.3,0,0,0-1.37-2.88,42.83,42.83,0,0,0-3.47-3.26q-2.1-1.79-4.49-4a34.32,34.32,0,0,1-4.5-5,26.71,26.71,0,0,1-3.47-6.35,22.24,22.24,0,0,1-1.37-8.09,22.85,22.85,0,0,1,1.66-9,18,18,0,0,1,4.59-6.51,20,20,0,0,1,6.89-4,25.9,25.9,0,0,1,8.45-1.36,41,41,0,0,1,4.69.27l4.2.49,4.2.65v20.3l-1.76-.22-1.76-.22a19,19,0,0,0-2.05-.11q-.59,0-1.47.05a8.17,8.17,0,0,0-1.66.27,3.28,3.28,0,0,0-1.37.76,2,2,0,0,0-.59,1.52,3.54,3.54,0,0,0,1.32,2.17q1.32,1.3,3.22,3t4.2,4A31.26,31.26,0,0,1,198,174.72a24.39,24.39,0,0,1,1.32,8.25,28.61,28.61,0,0,1-1.37,9,19.37,19.37,0,0,1-4.25,7.27,20,20,0,0,1-7.38,4.89,28.71,28.71,0,0,1-10.65,1.79,58.3,58.3,0,0,1-6.89-.38q-3.18-.38-5.62-.92a43.41,43.41,0,0,1-5.18-1.3Zm8.21,13q1.37.33,2.93.54,1.37.22,2.88.38a28.66,28.66,0,0,0,3.08.16,20.13,20.13,0,0,0,5.33-.71,12.79,12.79,0,0,0,4.64-2.33,11.67,11.67,0,0,0,3.27-4.18,14.37,14.37,0,0,0,1.22-6.24,13.14,13.14,0,0,0-1.42-6,27.66,27.66,0,0,0-3.62-5.43,65,65,0,0,0-4.69-5q-2.49-2.39-4.69-4.83a29.43,29.43,0,0,1-3.62-4.89,9.93,9.93,0,0,1-1.42-5,7.87,7.87,0,0,1,2.25-6q2.25-2.12,7.23-2.12.78,0,1.61.05t1.61.16a11.2,11.2,0,0,0,1.56.11v-2.82a10.61,10.61,0,0,1-1.47-.11q-.68-.11-1.51-.16t-1.71-.05a13.75,13.75,0,0,0-8.7,2.66q-3.42,2.66-3.42,8.31a11.93,11.93,0,0,0,1.42,5.7,28.5,28.5,0,0,0,3.62,5.21q2.2,2.55,4.69,4.94t4.69,4.83a26.53,26.53,0,0,1,3.62,5,11.23,11.23,0,0,1,1.42,5.43q0,5.21-3.18,7.93t-8.75,2.71a31.12,31.12,0,0,1-6.06-.54q-1.47-.22-2.83-.54Z" fill="none" stroke="#f6911e" stroke-miterlimit="10" stroke-width="9"/><path d="M-20.61,55h17.1l18,27.9V55H34.89v72.42H17.7L-.19,99.67v27.79H-20.61ZM-9,118.78V68.62l32.25,50.16h2.54v-55H23.27v50.16L-9,63.73h-2.54v55Z" fill="#fff"/><path d="M40.27,91.31A42.78,42.78,0,0,1,43,75.62a36.91,36.91,0,0,1,7.43-12A32.13,32.13,0,0,1,61.37,56a33.6,33.6,0,0,1,13.29-2.66,37.53,37.53,0,0,1,9.92,1.19,43.83,43.83,0,0,1,7.48,2.71A34.24,34.24,0,0,1,98.31,61L88,81.1a34.55,34.55,0,0,0-3.42-2.5,31,31,0,0,0-4-1.68,15.59,15.59,0,0,0-5.23-.81,12.93,12.93,0,0,0-5.57,1.19,14.27,14.27,0,0,0-4.45,3.26,15.08,15.08,0,0,0-3,4.83,16.18,16.18,0,0,0-1.08,5.92,15.58,15.58,0,0,0,1.12,5.92,15.3,15.3,0,0,0,3.08,4.83,14.47,14.47,0,0,0,4.59,3.26,13.79,13.79,0,0,0,5.77,1.19,16.55,16.55,0,0,0,5.57-.87,19.4,19.4,0,0,0,4.1-2A15.33,15.33,0,0,0,89,100.86l10.26,20.09A28.7,28.7,0,0,1,93,125.18,49.52,49.52,0,0,1,85.51,128a35.46,35.46,0,0,1-10.06,1.3,35.3,35.3,0,0,1-14.07-2.77,32.9,32.9,0,0,1-11.14-7.76,35.62,35.62,0,0,1-7.33-12A43.55,43.55,0,0,1,40.27,91.31Zm12.31,0a29.12,29.12,0,0,1,1.61-9.77,24.23,24.23,0,0,1,4.54-7.93,21.17,21.17,0,0,1,7.13-5.32,22,22,0,0,1,9.38-2,24.56,24.56,0,0,1,4.54.38,18.92,18.92,0,0,1,3.37.92A12.23,12.23,0,0,1,86,68.94l1.37-2.61Q85.8,65.58,84,64.93a34.4,34.4,0,0,0-3.81-1,25.46,25.46,0,0,0-5-.43,23.86,23.86,0,0,0-9.53,2,24.19,24.19,0,0,0-8,5.59,27.75,27.75,0,0,0-5.57,8.79A30.09,30.09,0,0,0,50,91.31a31.27,31.27,0,0,0,2,11.51,26.13,26.13,0,0,0,5.52,8.74,24.3,24.3,0,0,0,8.21,5.59,25.65,25.65,0,0,0,10,2,23.4,23.4,0,0,0,5.28-.54,29,29,0,0,0,4-1.19,18.75,18.75,0,0,0,3.32-1.74L87,113A11.91,11.91,0,0,1,84,114.65a20.27,20.27,0,0,1-3.52,1.14,20.83,20.83,0,0,1-4.79.49,23.12,23.12,0,0,1-9.67-2A21.41,21.41,0,0,1,58.78,109a23.74,23.74,0,0,1-4.59-7.93A29.12,29.12,0,0,1,52.58,91.31Z" fill="#fff"/><path d="M101.73,55h20.81V79.69h11.63V55h20.91v72.42H134.17V100.65H122.54v26.82H101.73ZM114,118.78V91.31h28.73v27.47h2.54v-55h-2.54v25H114v-25H111.5v55Z" fill="#fff"/><path d="M-53.54,204V131.62h18.08A54.06,54.06,0,0,1-19.1,133.9,31.69,31.69,0,0,1-7,140.74,29.52,29.52,0,0,1,.54,152.08a43.88,43.88,0,0,1,2.59,15.69A43.86,43.86,0,0,1,.54,183.46,29.5,29.5,0,0,1-7,194.81,32.25,32.25,0,0,1-19.1,201.7,52.85,52.85,0,0,1-35.47,204Zm9.77-8.69h8.31q14.27,0,21.55-7.22t7.28-20.36q0-13.14-7.28-20.3t-21.55-7.17h-8.31Zm2.54-2.61V142.91h5.77q12.41,0,19.3,6.24t6.89,18.62q0,12.38-6.89,18.67t-19.3,6.3Zm8.5-9.34q7.33,0,11.33-3.85t4-11.78q0-7.92-4-11.73t-11.33-3.8Z" fill="#fff"/><path d="M8.51,131.62H25.6l18,27.9v-27.9H64V204H46.81L28.93,176.24V204H8.51Zm11.63,63.73V145.19l32.25,50.16h2.54v-55H52.38v50.16L20.13,140.3H17.59v55Z" fill="#fff"/><path d="M70.85,131.62h38.4v19H91.66v8H109v18H91.66V185h18.27v19H70.85Zm31.86,63.73v-2.61H83.16V169h18.57v-2.61H83.16V142.91H102.7V140.3H80.62v55Z" fill="#fff"/><path d="M114,181.56a29.52,29.52,0,0,0,4.49,1.19,32.22,32.22,0,0,0,4.45.87,38.74,38.74,0,0,0,5,.33q4.49,0,4.49-3.69a4.3,4.3,0,0,0-1.37-2.88,42.83,42.83,0,0,0-3.47-3.26q-2.1-1.79-4.5-4a34.43,34.43,0,0,1-4.5-5,26.75,26.75,0,0,1-3.47-6.35,22.26,22.26,0,0,1-1.37-8.09,22.87,22.87,0,0,1,1.66-9,18,18,0,0,1,4.59-6.51,20,20,0,0,1,6.89-4,25.9,25.9,0,0,1,8.45-1.36,41.06,41.06,0,0,1,4.69.27l4.2.49,4.2.65v20.3l-1.76-.22-1.76-.22a19,19,0,0,0-2.05-.11q-.59,0-1.47.05a8.18,8.18,0,0,0-1.66.27,3.28,3.28,0,0,0-1.37.76,2,2,0,0,0-.59,1.52,3.54,3.54,0,0,0,1.32,2.17q1.32,1.3,3.22,3t4.2,4A31.26,31.26,0,0,1,154,174.72a24.41,24.41,0,0,1,1.32,8.25,28.61,28.61,0,0,1-1.37,9,19.4,19.4,0,0,1-4.25,7.27,20.06,20.06,0,0,1-7.38,4.89,28.7,28.7,0,0,1-10.65,1.79,58.31,58.31,0,0,1-6.89-.38q-3.18-.38-5.62-.92a43.34,43.34,0,0,1-5.18-1.3Zm8.21,13q1.37.33,2.93.54,1.37.22,2.88.38a28.68,28.68,0,0,0,3.08.16,20.12,20.12,0,0,0,5.33-.71,12.8,12.8,0,0,0,4.64-2.33,11.68,11.68,0,0,0,3.27-4.18,14.37,14.37,0,0,0,1.22-6.24,13.16,13.16,0,0,0-1.42-6,27.75,27.75,0,0,0-3.62-5.43,65,65,0,0,0-4.69-5q-2.49-2.39-4.69-4.83a29.37,29.37,0,0,1-3.62-4.89,9.93,9.93,0,0,1-1.42-5,7.88,7.88,0,0,1,2.25-6q2.25-2.12,7.23-2.12.78,0,1.61.05t1.61.16a11.23,11.23,0,0,0,1.56.11v-2.82a10.63,10.63,0,0,1-1.47-.11q-.68-.11-1.51-.16c-.55,0-1.12-.05-1.71-.05a13.74,13.74,0,0,0-8.7,2.66q-3.42,2.66-3.42,8.31a11.93,11.93,0,0,0,1.42,5.7,28.55,28.55,0,0,0,3.62,5.21q2.2,2.55,4.69,4.94t4.69,4.83a26.49,26.49,0,0,1,3.62,5,11.23,11.23,0,0,1,1.42,5.43q0,5.21-3.18,7.93t-8.75,2.71a31.14,31.14,0,0,1-6.06-.54q-1.46-.22-2.83-.54Z" fill="#fff"/><path d="M158,181.56a29.53,29.53,0,0,0,4.5,1.19,32.18,32.18,0,0,0,4.45.87,38.75,38.75,0,0,0,5,.33q4.49,0,4.49-3.69a4.3,4.3,0,0,0-1.37-2.88,42.83,42.83,0,0,0-3.47-3.26q-2.1-1.79-4.49-4a34.32,34.32,0,0,1-4.5-5,26.71,26.71,0,0,1-3.47-6.35,22.24,22.24,0,0,1-1.37-8.09,22.85,22.85,0,0,1,1.66-9,18,18,0,0,1,4.59-6.51,20,20,0,0,1,6.89-4,25.9,25.9,0,0,1,8.45-1.36,41,41,0,0,1,4.69.27l4.2.49,4.2.65v20.3l-1.76-.22-1.76-.22a19,19,0,0,0-2.05-.11q-.59,0-1.47.05a8.17,8.17,0,0,0-1.66.27,3.28,3.28,0,0,0-1.37.76,2,2,0,0,0-.59,1.52,3.54,3.54,0,0,0,1.32,2.17q1.32,1.3,3.22,3t4.2,4A31.26,31.26,0,0,1,198,174.72a24.39,24.39,0,0,1,1.32,8.25,28.61,28.61,0,0,1-1.37,9,19.37,19.37,0,0,1-4.25,7.27,20,20,0,0,1-7.38,4.89,28.71,28.71,0,0,1-10.65,1.79,58.3,58.3,0,0,1-6.89-.38q-3.18-.38-5.62-.92a43.41,43.41,0,0,1-5.18-1.3Zm8.21,13q1.37.33,2.93.54,1.37.22,2.88.38a28.66,28.66,0,0,0,3.08.16,20.13,20.13,0,0,0,5.33-.71,12.79,12.79,0,0,0,4.64-2.33,11.67,11.67,0,0,0,3.27-4.18,14.37,14.37,0,0,0,1.22-6.24,13.14,13.14,0,0,0-1.42-6,27.66,27.66,0,0,0-3.62-5.43,65,65,0,0,0-4.69-5q-2.49-2.39-4.69-4.83a29.43,29.43,0,0,1-3.62-4.89,9.93,9.93,0,0,1-1.42-5,7.87,7.87,0,0,1,2.25-6q2.25-2.12,7.23-2.12.78,0,1.61.05t1.61.16a11.2,11.2,0,0,0,1.56.11v-2.82a10.61,10.61,0,0,1-1.47-.11q-.68-.11-1.51-.16t-1.71-.05a13.75,13.75,0,0,0-8.7,2.66q-3.42,2.66-3.42,8.31a11.93,11.93,0,0,0,1.42,5.7,28.5,28.5,0,0,0,3.62,5.21q2.2,2.55,4.69,4.94t4.69,4.83a26.53,26.53,0,0,1,3.62,5,11.23,11.23,0,0,1,1.42,5.43q0,5.21-3.18,7.93t-8.75,2.71a31.12,31.12,0,0,1-6.06-.54q-1.47-.22-2.83-.54Z" fill="#fff"/><path d="M151,260.68s-2-3.74-9.25,0c0,0-11,3.68-16.35,39.12,0,0-2.48,21.66-.77,58.21,0,0,0,2.4,1.8,3.17,0,0,4.62,1,5.65,8,0,0,0,.11-.12.31a6.25,6.25,0,0,0-1.34,3.91,6.38,6.38,0,0,0,.78,3.07,4,4,0,0,0,.85,1.43L130.9,484.09a.45.45,0,0,0,0,.07c0,1.31,3.93,2.37,8.77,2.37s8.68-1,8.76-2.33c0,0,0,0,0,0s0,0,0-.06l-3.54-106a6.14,6.14,0,0,0,2.07-4.67,6.26,6.26,0,0,0-1.38-4l-.24-.51s.22-2.74,3.38-7.25l-.4-25.07c.36-8.58-.48-13.77.36-31.89a271.24,271.24,0,0,1,4-33.27s.81-7.46-1.64-10.83" fill="#fff"/><circle cx="-1.25" cy="395.48" r="76" fill="#d0d2d3"/><circle cx="-1.25" cy="401.47" r="76" fill="#fff"/><path d="M220.66,202.76l.52-7.49h1.66l.68,3.2.17,1.15h0l.22-1.15.75-3.2h1.57l.52,7.49h-1.62l-.15-3v-1.56h0l-.26,1.56-.66,3h-1l-.61-3-.22-1.56h0l0,1.56-.17,3Z" fill="#231f20"/><path d="M230.54,201.45h-1.62l-.27,1.31h-1.44l1.74-7.49h1.8l1.73,7.49H230.8Zm-1.38-1.19h1.14l-.4-2-.15-1h0l-.17,1Z" fill="#231f20"/><path d="M233.08,195.28h2.3a2,2,0,0,1,2.1,2.29,2.16,2.16,0,0,1-1,1.92l1.16,3.28H236l-1-2.86h-.19v2.86h-1.69Zm1.69,1.26v2.22h.32c.59,0,.77-.44.77-1.14s-.19-1.08-.75-1.08Z" fill="#231f20"/><path d="M242.46,202.57a2.39,2.39,0,0,1-1.3.31c-1.9,0-3.08-1.24-3.08-3.78s1.31-3.94,3-3.94a2.61,2.61,0,0,1,1.35.28l-.38,1.27a2.15,2.15,0,0,0-.85-.17c-.94,0-1.43.92-1.43,2.54s.51,2.42,1.46,2.42a1.85,1.85,0,0,0,.82-.19Z" fill="#231f20"/><path d="M243.16,195.28h1.7v3h1.41v-3H248v7.49h-1.7v-3.2h-1.41v3.2h-1.7Z" fill="#231f20"/><path d="M250,202.56l.37-1.29a2,2,0,0,0,1,.25.86.86,0,0,0,.9-1c0-.56-.2-1-.88-1H251v-1.26h.33a.82.82,0,0,0,.87-.92c0-.57-.28-.87-.91-.87a1.77,1.77,0,0,0-.85.24l-.35-1.24a2.81,2.81,0,0,1,1.49-.37,1.92,1.92,0,0,1,2.1,2.11,1.61,1.61,0,0,1-1,1.61,1.76,1.76,0,0,1,1.14,1.82,2.12,2.12,0,0,1-2.27,2.24A2.94,2.94,0,0,1,250,202.56Z" fill="#231f20"/><path d="M255.29,197.15l-1,1v-1.49l1.39-1.4H257v7.55h-1.66Z" fill="#231f20"/><path d="M490.13,51.43l.52-7.49h1.66l.68,3.2.17,1.15h0l.22-1.15.75-3.2h1.57l.52,7.49h-1.62l-.15-3V46.89h0l-.26,1.56-.66,3h-1l-.61-3-.22-1.56h0l0,1.56-.17,3Z" fill="#231f20"/><path d="M500,50.12h-1.62l-.27,1.31h-1.44l1.74-7.49h1.8L502,51.43h-1.68Zm-1.38-1.19h1.14l-.4-2-.15-1h0L499,47Z" fill="#231f20"/><path d="M502.55,43.94h2.3a2,2,0,0,1,2.1,2.29,2.16,2.16,0,0,1-1,1.92l1.16,3.28h-1.73l-1-2.86h-.19v2.86h-1.69Zm1.69,1.26v2.22h.32c.59,0,.77-.44.77-1.14s-.19-1.08-.75-1.08Z" fill="#231f20"/><path d="M511.93,51.24a2.4,2.4,0,0,1-1.3.31c-1.9,0-3.08-1.24-3.08-3.78s1.31-3.94,3-3.94a2.62,2.62,0,0,1,1.35.28l-.38,1.27a2.14,2.14,0,0,0-.85-.17c-.94,0-1.43.92-1.43,2.54s.51,2.42,1.46,2.42a1.85,1.85,0,0,0,.82-.19Z" fill="#231f20"/><path d="M512.63,43.94h1.7v3h1.41v-3h1.7v7.49h-1.7v-3.2h-1.41v3.2h-1.7Z" fill="#231f20"/><path d="M520.62,45.81l-1,1V45.28l1.39-1.4h1.27v7.55h-1.66Z" fill="#231f20"/><path d="M523.16,49.5a2.11,2.11,0,0,1,1-1.79,2.39,2.39,0,0,1-.85-1.84,1.92,1.92,0,0,1,2-2,1.83,1.83,0,0,1,2,1.93,2.12,2.12,0,0,1-.85,1.74,2.24,2.24,0,0,1,1,1.9,2,2,0,0,1-2.11,2.21A2,2,0,0,1,523.16,49.5Zm2.63,0a1.58,1.58,0,0,0-.7-1.23,1.75,1.75,0,0,0-.5,1.21c0,.53.23.88.62.88S525.79,50,525.79,49.49Zm-.38-2.61a1.52,1.52,0,0,0,.49-1.1c0-.41-.18-.75-.57-.75s-.57.35-.57.74A1.42,1.42,0,0,0,525.41,46.88Z" fill="#231f20"/><path d="M406.68,61.43l.52-7.49h1.66l.68,3.2.17,1.15h0l.22-1.15.75-3.2h1.57l.52,7.49h-1.62l-.15-3V56.89h0l-.26,1.56-.66,3h-1l-.61-3-.22-1.56h0l0,1.56-.17,3Z" fill="#231f20"/><path d="M416.56,60.12h-1.62l-.27,1.31h-1.44L415,53.94h1.8l1.73,7.49h-1.68Zm-1.38-1.19h1.14l-.4-2-.15-1h0l-.17,1Z" fill="#231f20"/><path d="M419.1,53.94h2.3a2,2,0,0,1,2.1,2.29,2.16,2.16,0,0,1-1,1.92l1.16,3.28H422l-1-2.86h-.19v2.86H419.1Zm1.69,1.26v2.22h.32c.59,0,.77-.44.77-1.14s-.19-1.08-.75-1.08Z" fill="#231f20"/><path d="M428.48,61.24a2.4,2.4,0,0,1-1.3.31c-1.9,0-3.08-1.24-3.08-3.78s1.31-3.94,3-3.94a2.61,2.61,0,0,1,1.35.28l-.38,1.27a2.15,2.15,0,0,0-.85-.17c-.94,0-1.43.92-1.43,2.54s.51,2.42,1.46,2.42a1.86,1.86,0,0,0,.82-.19Z" fill="#231f20"/><path d="M429.18,53.94h1.7v3h1.41v-3H434v7.49h-1.7v-3.2h-1.41v3.2h-1.7Z" fill="#231f20"/><path d="M436.18,61.43v-1l1.24-2.24a4.5,4.5,0,0,0,.69-2.15.74.74,0,0,0-.79-.83,1.78,1.78,0,0,0-.86.24l-.31-1.28a2.78,2.78,0,0,1,1.49-.35A1.93,1.93,0,0,1,439.83,56a6.73,6.73,0,0,1-1.23,3.13l-.61,1h1.81v1.31Z" fill="#231f20"/><path d="M440.35,61.43v-1l1.24-2.24a4.5,4.5,0,0,0,.69-2.15.74.74,0,0,0-.79-.83,1.78,1.78,0,0,0-.86.24l-.31-1.28a2.78,2.78,0,0,1,1.49-.35A1.93,1.93,0,0,1,444,56a6.73,6.73,0,0,1-1.23,3.13l-.61,1H444v1.31Z" fill="#231f20"/><path d="M324.51,82.1l.52-7.49h1.66l.68,3.2.17,1.15h0l.22-1.15.75-3.2h1.57l.52,7.49H329l-.15-3V77.56h0l-.26,1.56-.66,3h-1l-.61-3-.22-1.56h0l0,1.56-.17,3Z" fill="#231f20"/><path d="M334.39,80.79h-1.62l-.27,1.31h-1.44l1.74-7.49h1.8l1.73,7.49h-1.68ZM333,79.6h1.14l-.4-2-.15-1h0l-.17,1Z" fill="#231f20"/><path d="M336.93,74.61h2.3a2,2,0,0,1,2.1,2.29,2.17,2.17,0,0,1-1,1.92l1.16,3.28H339.8l-1-2.86h-.19V82.1h-1.69Zm1.69,1.26v2.22h.32c.59,0,.77-.44.77-1.14s-.19-1.08-.75-1.08Z" fill="#231f20"/><path d="M346.31,81.91a2.39,2.39,0,0,1-1.3.31c-1.9,0-3.08-1.24-3.08-3.78s1.31-3.94,3-3.94a2.61,2.61,0,0,1,1.35.28l-.38,1.27a2.14,2.14,0,0,0-.85-.17c-.94,0-1.43.92-1.43,2.54s.51,2.42,1.46,2.42a1.85,1.85,0,0,0,.82-.19Z" fill="#231f20"/><path d="M347,74.61h1.7v3h1.41v-3h1.7V82.1h-1.7V78.9h-1.41v3.2H347Z" fill="#231f20"/><path d="M354,82.1v-1l1.24-2.24a4.5,4.5,0,0,0,.69-2.15.74.74,0,0,0-.79-.83,1.78,1.78,0,0,0-.86.24L354,74.84a2.78,2.78,0,0,1,1.49-.35,1.93,1.93,0,0,1,2.19,2.13,6.73,6.73,0,0,1-1.23,3.13l-.61,1h1.81V82.1Z" fill="#231f20"/><path d="M358.16,80.17a2.11,2.11,0,0,1,1-1.79,2.39,2.39,0,0,1-.85-1.84,1.92,1.92,0,0,1,2-2,1.83,1.83,0,0,1,2,1.93,2.12,2.12,0,0,1-.85,1.74,2.24,2.24,0,0,1,1,1.9,2,2,0,0,1-2.11,2.21A2,2,0,0,1,358.16,80.17Zm2.63,0a1.58,1.58,0,0,0-.7-1.23,1.74,1.74,0,0,0-.5,1.21c0,.53.23.88.62.88S360.79,80.68,360.79,80.16Zm-.38-2.61a1.52,1.52,0,0,0,.49-1.1c0-.41-.18-.75-.57-.75s-.57.35-.57.74A1.42,1.42,0,0,0,360.41,77.55Z" fill="#231f20"/><path d="M272.48,126.76l.52-7.49h1.66l.68,3.2.17,1.15h0l.22-1.15.75-3.2h1.57l.52,7.49H277l-.15-3v-1.56h0l-.26,1.56-.66,3h-1l-.61-3-.22-1.56h0l0,1.56-.17,3Z" fill="#231f20"/><path d="M282.36,125.45h-1.62l-.27,1.31H279l1.74-7.49h1.8l1.73,7.49h-1.68ZM281,124.26h1.14l-.4-2-.15-1h0l-.17,1Z" fill="#231f20"/><path d="M284.9,119.28h2.3a2,2,0,0,1,2.1,2.29,2.16,2.16,0,0,1-1,1.92l1.16,3.28h-1.73l-1-2.86h-.19v2.86H284.9Zm1.69,1.26v2.22h.32c.59,0,.77-.44.77-1.14s-.19-1.08-.75-1.08Z" fill="#231f20"/><path d="M294.28,126.57a2.39,2.39,0,0,1-1.3.31c-1.9,0-3.08-1.24-3.08-3.78s1.31-3.94,3-3.94a2.61,2.61,0,0,1,1.35.28l-.38,1.27a2.15,2.15,0,0,0-.85-.17c-.94,0-1.43.92-1.43,2.54s.51,2.42,1.46,2.42a1.85,1.85,0,0,0,.82-.19Z" fill="#231f20"/><path d="M295,119.28h1.7v3h1.41v-3h1.7v7.49h-1.7v-3.2h-1.41v3.2H295Z" fill="#231f20"/><path d="M301.79,126.56l.37-1.29a2,2,0,0,0,1,.25.86.86,0,0,0,.9-1c0-.56-.2-1-.88-1h-.33v-1.26h.33a.82.82,0,0,0,.87-.92c0-.57-.28-.87-.91-.87a1.77,1.77,0,0,0-.85.24l-.35-1.24a2.81,2.81,0,0,1,1.49-.37,1.92,1.92,0,0,1,2.1,2.11,1.61,1.61,0,0,1-1,1.61,1.76,1.76,0,0,1,1.14,1.82,2.12,2.12,0,0,1-2.27,2.24A2.94,2.94,0,0,1,301.79,126.56Z" fill="#231f20"/><path d="M308.57,126.93c-1.44,0-2.39-1-2.39-3.87s1-3.95,2.39-3.95,2.39,1.17,2.39,3.95S310,126.93,308.57,126.93Zm0-1.38c.47,0,.69-.51.69-2.51s-.22-2.55-.69-2.55-.69.63-.69,2.55S308.1,125.55,308.57,125.55Z" fill="#231f20"/><path d="M209.72,380.79H208.1l-.27,1.31h-1.44l1.74-7.49h1.8l1.73,7.49H210Zm-1.38-1.19h1.14l-.4-2-.15-1h0l-.17,1Z" fill="#231f20"/><path d="M212.26,374.61h2.14a2.42,2.42,0,0,1,0,4.84H214v2.65h-1.69Zm1.69,1.26v2.39h.31c.57,0,.78-.41.78-1.2s-.21-1.19-.78-1.19Z" fill="#231f20"/><path d="M217.35,374.61h2.3a2,2,0,0,1,2.1,2.29,2.16,2.16,0,0,1-1,1.92L222,382.1h-1.73l-1-2.86H219v2.86h-1.69Zm1.69,1.26v2.22h.32c.59,0,.77-.44.77-1.14s-.19-1.08-.75-1.08Z" fill="#231f20"/><path d="M222.61,374.61h1.71v7.49h-1.71Z" fill="#231f20"/><path d="M225.35,374.61h1.71v6.2h1.71v1.29h-3.42Z" fill="#231f20"/><path d="M230.52,381.9l.37-1.29a2,2,0,0,0,1,.25.86.86,0,0,0,.9-1c0-.56-.2-1-.88-1h-.33v-1.26h.33a.82.82,0,0,0,.87-.92c0-.57-.28-.87-.91-.87a1.77,1.77,0,0,0-.85.24l-.35-1.24a2.81,2.81,0,0,1,1.49-.37,1.92,1.92,0,0,1,2.1,2.11,1.61,1.61,0,0,1-1,1.61,1.76,1.76,0,0,1,1.14,1.82,2.12,2.12,0,0,1-2.27,2.24A2.94,2.94,0,0,1,230.52,381.9Z" fill="#231f20"/><path d="M-58.85,38.32c-.4.31-1.09.88-1.09.88a2,2,0,0,1-1.06.56,5.2,5.2,0,0,1-2.33-1V29.89h4.48v8.43ZM-74,26.57V18.45l1.55-.92,3.07,2.22v6.81Zm8.57,11.61V19.37l1.62-1V38.68a9.66,9.66,0,0,0-1.62-.5Zm2.08-11.61V18.21l1-.64a6,6,0,0,0,3.46,2.26v6.74Zm11.12,13a6.45,6.45,0,0,1-2.72-1.31V19.94a4.06,4.06,0,0,0,2-3l-.07-.1a6.63,6.63,0,0,1-2.26.35A4.64,4.64,0,0,1-59,15.24l-5.5,3.14c-1.44-1-3.2-2.24-4.59-3.25l-7.13,4.13c-2.26,1.31-3.85,2.83-3.85,5.33v2h-.53a2.85,2.85,0,0,0-3.14,2.75,2.5,2.5,0,0,0,.88,2l.1,0a1.84,1.84,0,0,1,2.08-1.52h.6v4.34a3.61,3.61,0,0,1-1.31,3.11l0,.07c2.79-.27,5.22-1.68,5.22-4.52V19.69c.56-.32.88-.54,1.69-1V37.33c0,1.67-.65,2.22-2.29,2.22-1.86,0-3.74-.85-5.47-.85-2.68,0-4.13,1.68-4.27,4.41l.21.07a3.43,3.43,0,0,1,3.1-1.27c1.7,0,3.35.88,5.12.88C-75.54,42.8-74,41.36-74,39V29.89h4.66v8.5a7,7,0,0,0-3.39,3.74l.07.18a6,6,0,0,1,3.53-1.13A8.42,8.42,0,0,1-64,42.77c.88-.74,3.45-2.61,4.48-3.39,1.37,1.06,3,2.32,4.13,3.35,1.26-1.24,3.25-3.1,3.25-3.1l0-.07Zm15.63-.39L-39,40.58a4.85,4.85,0,0,1-2-4.34c0-1.84.6-3.21,2.36-3.21a6.81,6.81,0,0,1,2,.28v5.86Zm-2.19-6.67a8.77,8.77,0,0,0-1.87.28V26.54l.17-.14c1.57,1.05,2.53,1.71,3.88,2.68v3.7a8.13,8.13,0,0,0-2.19-.28ZM-31.18,40A3.86,3.86,0,0,1-33,39.1V27.56c-2-1.36-3.26-2.15-4.9-3.25a40.84,40.84,0,0,1-5.4,3.14V31.3a14.11,14.11,0,0,1,2.5,1.52c-2.48.91-3.74,2.59-3.74,4.59a5.9,5.9,0,0,0,3.1,5.33c2.09-1.32,2.91-1.9,4.45-2.79,1.53,1.14,2.44,1.83,3.64,2.75l2.22-2.61,0-.07ZM34.54,31.3l-3.07,1.91V26.68l.28-.18c.74,1.33,1.86,3.28,2.79,4.8Zm-.32-7c-1.49,1.08-4.49,3.07-6.32,4.16V39.7c1.37.9,3,2,4.34,3,1.31-1.47,2.65-2.78,4-4.06L36,38.39c-.84.84-1.21,1.27-1.69,1.27s-1.13-.4-2.79-1.41V33.7l6.28-3.88c-1.39-2.09-2.55-3.87-3.53-5.51Zm22.9,14.86-2.4,1.41a4.84,4.84,0,0,1-2-4.34c0-1.84.6-3.21,2.37-3.21a6.83,6.83,0,0,1,2,.28v5.86ZM54.94,32.5a8.79,8.79,0,0,0-1.87.28V26.54l.21-.14c1.57,1.05,2.5,1.71,3.85,2.68v3.7a8.15,8.15,0,0,0-2.19-.28ZM62.52,40a3.86,3.86,0,0,1-1.84-.92V27.56c-2-1.36-3.26-2.15-4.9-3.25a40.65,40.65,0,0,1-5.4,3.14V31.3a14.12,14.12,0,0,1,2.51,1.52c-2.48.91-3.74,2.59-3.74,4.59a5.91,5.91,0,0,0,3.11,5.33c2.09-1.32,2.91-1.9,4.45-2.79,1.53,1.14,2.44,1.83,3.63,2.75l2.22-2.61,0-.07Zm16.83-.53-.63.49A36.28,36.28,0,0,1,75,37.58V25.94c.6-.36,1.18-.66,2-1.16l2.36,2.29V39.49Zm3.56-13.66c-4.06-4.14-7.57-7.73-9.14-9.35-.82.72-1.84,1.52-3.07,2.4l0,.07a5.29,5.29,0,0,1,1.94,1.41l4.06,4.09c-2,1.17-3.73,2.11-5.29,3v12c1.45,1,3.28,2.21,4.76,3.35a33,33,0,0,1,6.7-5V25.83ZM-75,16l-.21-.1a3.14,3.14,0,0,1-1.83.63c-1.11,0-2.37-.78-3.63-.78-2,0-3.83,1.41-4.13,4.34l.18.11A2.78,2.78,0,0,1-82,18.63c1,0,2.51.74,3.25.74,1.54,0,2.74-1.26,3.67-3.39Zm30,23.85,0-.07a6,6,0,0,1-2.08-.92V26.29c-1-.68-1.76-1.26-2.68-2L-52.18,27l0,.07a3.5,3.5,0,0,1,1.45.85V40.37c1,.68,2.24,1.6,3.21,2.36,1.54-1.84,2.47-2.89,2.47-2.89ZM-47.1,19.55c-.8-.62-1.63-1.3-2.4-2-.73.9-1.4,1.61-2,2.29.91.7,1.81,1.33,2.47,1.91.8-.95,1.4-1.62,2-2.22ZM-7.89,39.8l0-.07A5.05,5.05,0,0,1-10,38.85V27c-.94-.61-3.21-2-4.23-2.68-1.16,1-2.29,1.94-3.49,2.9-1.27-.92-2.82-2-4-2.82-1.38,1.11-2.56,2-3.6,2.82-1.3-1-2.52-2-3.64-2.86-.73.88-1.66,1.84-2.51,2.68l0,.07c.6.06,1,.28,2.15,1.31v12.7c.54.39,1.37,1.05,2.12,1.66.73-.78,1.6-1.61,2.43-2.4-.29-.15-.66-.38-1-.6V28.05l1.77-1.41,2.5,1.73v12.7s1.23.95,2.12,1.66c.58-.58,1.82-1.75,2.47-2.36l-1-.64V27.91l1.45-1.17,2.82,1.73V40.37c1.14.79,2.14,1.52,3.21,2.36,1.78-2.18,2.47-2.93,2.47-2.93Zm7.23,0,0-.07a6,6,0,0,1-2.08-.92V26.29c-1-.68-1.76-1.26-2.68-2L-7.82,27l0,.07a3.5,3.5,0,0,1,1.45.85V40.37c1,.68,2.24,1.6,3.21,2.36,1.54-1.84,2.47-2.89,2.47-2.89ZM-2.74,19.55c-.8-.62-1.63-1.3-2.4-2-.73.9-1.4,1.61-2,2.29.91.7,1.8,1.33,2.47,1.91.8-.95,1.39-1.62,2-2.22Zm14.87-.07L12,19.41c-2.49.74-4.34,2.34-4.34,5.36v1.8H6.84a2.82,2.82,0,0,0-3.11,2.75,2.49,2.49,0,0,0,.85,2h.11c.15-.78.67-1.48,2.08-1.48h.92v5a2.74,2.74,0,0,1-.81,2l.18.11a6,6,0,0,0,4.55-5.58V23.29c0-2.19.16-3.14.53-3.81ZM26.71,16.3l-.07-.14a6.77,6.77,0,0,1-2.61.49,5.43,5.43,0,0,1-3.64-1.38c-.82.91-1.85,2-2.72,2.86a5.47,5.47,0,0,0,2.72,1.38v7.06H13.83V15.46h-.46V38.89a10,10,0,0,0-4.23-1A6.36,6.36,0,0,0,2.71,42.2l.07.18a8.66,8.66,0,0,1,4.55-1.17,8.18,8.18,0,0,1,5.12,1.52c1.07-1.45,2.57-3.17,3.42-4.2l-.28-.25c-.34.49-.81,1-1.16,1a1.34,1.34,0,0,1-.6-.18V29.89h6.56v8.5a5.11,5.11,0,0,0-4.13,4.06l0,.14a6.88,6.88,0,0,1,4-1.23,5.22,5.22,0,0,1,3.56,1.38l2.82-3a6.46,6.46,0,0,0-2.33-1V19.34a4.67,4.67,0,0,0,2.36-3Zm-14.4-.21L12.24,16a3,3,0,0,1-1.94.67c-1.11,0-2.37-.78-3.63-.78-2,0-3.79,1.37-4.09,4.31l.14.14a2.79,2.79,0,0,1,2.72-1.55c1,0,2.51.74,3.25.74,1.54,0,2.7-1.26,3.63-3.39Zm37.55,10,0-.11a5.23,5.23,0,0,1-3.74-1.69c-.94,1-1.67,1.68-2.72,2.61C42.11,26,41.23,25.26,40,24.28L37.65,27l0,.07a5.37,5.37,0,0,1,2,1.31V39.7c1.49,1,2.92,2,4.38,3,1-1.1,2.17-2.33,3.42-3.56l-.25-.25c-.49.49-.81.71-1.23.71s-1.12-.34-2.75-1.27V27.56l.32-.32a3.67,3.67,0,0,0,3,1.41c1.45,0,2.57-1,3.28-2.54Zm20.4,13.76c-.73.73-1.72,1.83-2.58,2.86-1.26-1-2.49-1.82-3.21-2.36v-19a1.54,1.54,0,0,0-.88-1.55v-.11L68,16.51l.07.07V38.85a5,5,0,0,0,2.19,1l0,.07Z" fill="#fff"/></g></g></g></svg>