<svg xmlns="http://www.w3.org/2000/svg" viewBox="0 0 612.04 395.91"><defs><clipPath id="a"><path fill="none" d="M0 .15h611.81v395.74H0z"/></clipPath></defs><title>TopRight-box</title><g data-name="Layer 1" style="isolation:isolate"><g clip-path="url(#a)"><path fill="#d0d2d3" d="M-611.81.15H611.8v791.47H-611.81z"/><ellipse cx="3.48" cy="404.74" rx="370.62" ry="370.51" fill="#caccce"/><path fill="none" stroke="#fff" stroke-miterlimit="10" stroke-width="2" d="M253.56 197.47h-44.92v372.89h44.92"/><path fill="#b1b3b5" d="M-52.13-4.46H53.09v799.02H-52.13z"/><path d="M-58.8 41.48c-.4.31-1.09.88-1.09.88a2 2 0 0 1-1.06.56 5.2 5.2 0 0 1-2.33-1V33h4.48v8.43zm-15.14-11.75v-8.11l1.55-.92 3.07 2.22v6.81zm8.57 11.6V22.54l1.62-1v20.29a9.66 9.66 0 0 0-1.62-.49zm2.08-11.6v-8.35l1-.64A6 6 0 0 0-58.8 23v6.74zm11.11 13a6.45 6.45 0 0 1-2.72-1.31V23.1a4.06 4.06 0 0 0 2-3l-.07-.1a6.63 6.63 0 0 1-2.26.35A4.63 4.63 0 0 1-59 18.41l-5.5 3.14c-1.44-1-3.2-2.24-4.59-3.25l-7.13 4.13c-2.23 1.31-3.78 2.83-3.78 5.33v2h-.53a2.85 2.85 0 0 0-3.14 2.75 2.5 2.5 0 0 0 .88 2h.1A1.84 1.84 0 0 1-80.64 33h.6v4.34a3.61 3.61 0 0 1-1.31 3.1v.07c2.79-.27 5.22-1.68 5.22-4.52V22.86c.56-.32.88-.54 1.69-1v18.63c0 1.67-.65 2.22-2.29 2.22-1.85 0-3.74-.85-5.47-.85-2.68 0-4.13 1.68-4.27 4.41l.21.07a3.43 3.43 0 0 1 3.1-1.27c1.7 0 3.35.88 5.11.88 2.51 0 4.06-1.45 4.06-3.84V33h4.66v8.5a7 7 0 0 0-3.39 3.74l.07.18a6 6 0 0 1 3.53-1.13A8.42 8.42 0 0 1-64 45.92c.88-.74 3.45-2.61 4.48-3.39 1.37 1.06 3 2.32 4.13 3.35 1.26-1.24 3.25-3.1 3.25-3.1v-.07zm15.63-.39l-2.4 1.41a4.84 4.84 0 0 1-2-4.34c0-1.83.6-3.21 2.36-3.21a6.81 6.81 0 0 1 2 .28v5.85zm-2.19-6.67a8.77 8.77 0 0 0-1.87.28V29.7l.17-.14c1.57 1.05 2.53 1.71 3.88 2.68v3.7a8.13 8.13 0 0 0-2.19-.28zm7.58 7.51a3.86 3.86 0 0 1-1.84-.93V30.72c-2-1.36-3.26-2.15-4.9-3.24a40.83 40.83 0 0 1-5.4 3.14v3.84A14.11 14.11 0 0 1-40.78 36c-2.48.91-3.74 2.59-3.74 4.58a5.9 5.9 0 0 0 3.1 5.32c2.09-1.32 2.9-1.9 4.44-2.79 1.53 1.14 2.44 1.83 3.63 2.75l2.22-2.61v-.07zm65.7-8.71l-3.07 1.9v-6.53l.28-.18a149.2 149.2 0 0 0 2.79 4.8zm-.32-7c-1.49 1.07-4.49 3.07-6.31 4.16v11.22c1.37.9 3 2 4.34 3 1.31-1.46 2.65-2.77 4-4.05l-.25-.25c-.84.84-1.21 1.27-1.69 1.27s-1.13-.4-2.79-1.41v-4.55L37.77 33c-1.39-2.09-2.55-3.87-3.53-5.5zm22.9 14.85l-2.4 1.41a4.84 4.84 0 0 1-2-4.34c0-1.83.6-3.21 2.36-3.21a6.83 6.83 0 0 1 2 .28v5.85zm-2.19-6.67a8.79 8.79 0 0 0-1.87.28V29.7l.21-.14c1.57 1.05 2.5 1.71 3.85 2.68v3.7a8.15 8.15 0 0 0-2.19-.28zm7.59 7.51a3.86 3.86 0 0 1-1.84-.92V30.72c-2-1.36-3.26-2.15-4.9-3.24a40.64 40.64 0 0 1-5.4 3.14v3.84A14.11 14.11 0 0 1 52.9 36c-2.48.91-3.74 2.59-3.74 4.58a5.9 5.9 0 0 0 3.1 5.32c2.09-1.32 2.91-1.9 4.44-2.79 1.53 1.14 2.44 1.83 3.63 2.75l2.22-2.61v-.07zm16.82-.53l-.63.49a36.27 36.27 0 0 1-3.7-2.4V29.1c.6-.36 1.18-.66 2-1.16l2.36 2.29v12.41zM82.92 29c-4.06-4.14-7.57-7.73-9.13-9.35-.82.72-1.84 1.51-3.07 2.4v.07a5.29 5.29 0 0 1 1.94 1.41l4.06 4.09c-2 1.17-3.73 2.11-5.29 3v12c1.44 1 3.28 2.21 4.76 3.35a32.94 32.94 0 0 1 6.7-5V29zM-75 19.15l-.21-.1a3.14 3.14 0 0 1-1.83.63c-1.11 0-2.36-.78-3.63-.78-2 0-3.83 1.4-4.13 4.34l.18.11a2.78 2.78 0 0 1 2.72-1.55c1 0 2.51.74 3.24.74 1.54 0 2.74-1.26 3.67-3.39zM-45 43v-.07a6 6 0 0 1-2.09-.93V29.45c-1-.68-1.76-1.26-2.68-2l-2.36 2.64v.07a3.5 3.5 0 0 1 1.45.85v12.51c1 .68 2.24 1.6 3.21 2.36C-45.9 44-45 43-45 43zm-2.08-20.28c-.8-.62-1.63-1.3-2.4-2-.73.9-1.4 1.61-2 2.29.91.7 1.81 1.33 2.47 1.9.8-.95 1.4-1.62 2-2.22zM-7.86 43v-.07A5.05 5.05 0 0 1-10 42V30.12c-.94-.61-3.21-2-4.23-2.68-1.16 1-2.29 1.94-3.49 2.89-1.27-.92-2.82-2-4-2.82-1.38 1.1-2.56 2-3.6 2.82-1.3-1-2.52-2-3.63-2.86-.73.88-1.66 1.84-2.5 2.68v.07c.6.06 1 .28 2.15 1.31v12.7c.54.39 1.37 1.05 2.12 1.66.73-.78 1.6-1.61 2.43-2.4-.29-.15-.66-.38-1-.6V31.21l1.77-1.41 2.5 1.73v12.7s1.23.95 2.12 1.66c.58-.58 1.82-1.75 2.47-2.36l-1-.64V31.07l1.44-1.16 2.82 1.73v11.88c1.14.78 2.14 1.52 3.21 2.36C-8.56 43.71-7.86 43-7.86 43zm7.23 0v-.07A6 6 0 0 1-2.75 42V29.45c-1-.68-1.76-1.26-2.68-2l-2.36 2.64v.07a3.49 3.49 0 0 1 1.48.84v12.52c1 .68 2.24 1.6 3.21 2.36C-1.56 44-.63 43-.63 43zm-2.08-20.28c-.8-.62-1.63-1.3-2.4-2-.73.9-1.4 1.61-2 2.29.91.7 1.8 1.33 2.47 1.9.8-.95 1.39-1.62 2-2.22zm14.87-.07l-.16-.08c-2.49.74-4.34 2.34-4.34 5.36v1.8h-.8a2.82 2.82 0 0 0-3.1 2.75 2.49 2.49 0 0 0 .85 2h.11C4.87 33.7 5.39 33 6.8 33h.92v5a2.74 2.74 0 0 1-.81 2l.18.11a6 6 0 0 0 4.55-5.57v-8.09c0-2.19.16-3.14.53-3.81zm14.57-3.17l-.07-.14a6.77 6.77 0 0 1-2.61.49 5.43 5.43 0 0 1-3.64-1.38c-.82.91-1.85 2-2.72 2.86a5.47 5.47 0 0 0 2.72 1.38v7.05h-6.56V18.62h-.46V42a10 10 0 0 0-4.23-1 6.36 6.36 0 0 0-6.42 4.27l.07.18a8.66 8.66 0 0 1 4.55-1.16 8.18 8.18 0 0 1 5.12 1.52c1.07-1.45 2.57-3.16 3.42-4.2l-.28-.25c-.34.49-.81 1-1.16 1a1.34 1.34 0 0 1-.6-.18V33h6.56v8.5a5.11 5.11 0 0 0-4.13 4.06v.14a6.88 6.88 0 0 1 4-1.23 5.22 5.22 0 0 1 3.56 1.37l2.82-3a6.46 6.46 0 0 0-2.33-1V22.5a4.67 4.67 0 0 0 2.36-3zm-14.39-.21l-.07-.14a3 3 0 0 1-1.94.67C9.21 19.79 8 19 6.69 19c-2 0-3.79 1.37-4.09 4.3l.14.14a2.79 2.79 0 0 1 2.71-1.54c1 0 2.51.74 3.25.74 1.54 0 2.7-1.26 3.63-3.39zm37.53 10v-.11a5.23 5.23 0 0 1-3.74-1.69c-.94 1-1.67 1.68-2.72 2.61-1.25-.91-2.13-1.66-3.32-2.65l-2.4 2.68v.07a5.37 5.37 0 0 1 2 1.3v11.37c1.49 1 2.92 2 4.38 3 1-1.1 2.17-2.33 3.42-3.56l-.25-.25c-.49.49-.81.71-1.23.71s-1.12-.34-2.75-1.27V30.72l.32-.32a3.67 3.67 0 0 0 3 1.41c1.45 0 2.57-1 3.28-2.54zM70.26 43c-.73.73-1.72 1.82-2.58 2.86-1.26-1-2.49-1.82-3.21-2.36v-19a1.54 1.54 0 0 0-.88-1.5v-.11L68 19.68l.07.07V42a5 5 0 0 0 2.19 1v.07z" fill="none" stroke="#b1b3b5" stroke-linecap="round" stroke-miterlimit="10" stroke-width="11"/><path fill="none" stroke="#fff" stroke-miterlimit="10" stroke-width="2" d="M505.47 43.27h-57.92v26.28h57.92m-79.36-14.29h-57.92v42.27h57.92"/><path fill="none" stroke="#fff" stroke-miterlimit="10" stroke-width="2" d="M373.46 76.58h-57.92v83.58h57.92m-58.65-38.27h-51.92v162.52h51.92m58.65-40.6h-57.92v83.58h57.92"/><path fill="none" stroke="#fff" stroke-miterlimit="10" stroke-width="2" d="M426.11 138.04h-57.92v42.28h57.92m0 41.67h-57.92v42.27h57.92m0 41.01h-57.92v42.27h57.92m79.36-262.86h-57.92v26.29h57.92m0 15.13h-57.92v26.28h57.92m0 15.13h-57.92v26.29h57.92m0 15.13h-57.92v26.28h57.92m0 15.13h-57.92v26.29h57.92m0 15.13h-57.92v26.28h57.92m0 15.13h-57.92v26.29h57.92"/><path fill="#fff" d="M489.93 39.33h75.64v15.99h-75.64zm-80.64 8.57h75.64v15.72h-75.64zm-79.47 20.57h75.64v15.99h-75.64zm0 82.45h75.64v15.99h-75.64zm0 85.45h75.64v15.99h-75.64zm0 81.94h75.64v15.99h-75.64zm-52.32-42.47h75.64v15.99H277.5zm-54.03-85.94h75.64v15.99h-75.64zm54.03-75.96h75.64v15.99H277.5zm131.79-24.48h75.64v15.99h-75.64zm0 41.47h75.64v15.99h-75.64zm0 41.48h75.64v15.99h-75.64zm0 41.47h75.64v15.99h-75.64zm0 41.47h75.64v15.99h-75.64zm0 41.48h75.64v15.99h-75.64zm0 41.47h75.64v15.99h-75.64zm80.64-279.99h75.64V74.3h-75.64zm0 22.49h75.64v15.99h-75.64zm0 18.99h75.64v15.99h-75.64zm0 22.48h75.64v15.99h-75.64zm0 18.99h75.64v15.99h-75.64zm0 22.49h75.64v15.99h-75.64zm0 18.98h75.64v15.99h-75.64zm0 22.49h75.64v15.99h-75.64zm0 18.99h75.64v15.99h-75.64zm0 22.48h75.64v15.99h-75.64zm0 18.99h75.64v15.99h-75.64zm0 22.49h75.64v15.99h-75.64zm0 18.99h75.64v15.99h-75.64zm0 22.48h75.64v15.99h-75.64zm0 18.99h75.64v15.99h-75.64zM161.26 386.9h75.64v15.99h-75.64z"/><ellipse cx="-1.02" cy="401.75" rx="116.18" ry="116.15" fill="#797b7d"/><path d="M151 266.55s-2-3.74-9.24 0c0 0-11 3.68-16.35 39.1 0 0-2.48 21.65-.77 58.18 0 0 0 2.4 1.8 3.16 0 0 4.62 1 5.65 8 0 0 0 .11-.12.31a6.25 6.25 0 0 0-1.34 3.91 6.37 6.37 0 0 0 .78 3.07 4 4 0 0 0 .85 1.43l-1.38 106.05a.45.45 0 0 0 0 .07c0 1.31 3.93 2.36 8.77 2.36s8.68-1 8.76-2.32 0 0 0-.06l-3.54-105.9a6.13 6.13 0 0 0 2.07-4.67 6.26 6.26 0 0 0-1.38-4l-.24-.51s.22-2.74 3.38-7.24l-.4-25.05c.36-8.57-.48-13.76.36-31.87a271 271 0 0 1 4-33.25s.81-7.46-1.64-10.83" fill="#797b7d"/><ellipse cx="-1.02" cy="395.89" rx="116.18" ry="116.15" fill="#fff"/><path d="M-6.31 289.18l7.29.65 1.74 8.57L6 290.28l4.71.42 1.74 8.57 3.23-8.13 7.29.65-9.23 23.26-5.36-.48-1.52-7.43-2.81 7-5.36-.48zm8.44 22l5.63-14.63 3 15.4.81.07 7-17.69-.87-.08-6.38 16.08-3.27-16.98-6.19 16.1-3.43-17-.87-.08 3.77 18.65zM27 293.8l7 2.2-7.15 22.91-7-2.18zm-2.4 21.37l5.4-17.41-.8-.25-5.43 17.41zm14.56-17.59l5 2.59 1.08 10.95 4.22-8.23 6 3.09-11 21.35-5.07-2.6-1.07-10.9-4.09 8.17-6-3.09zm-6.21 20.55l7.59-14.79L42.46 323l.75.39 8.33-16.23-.75-.38-7.59 14.79-1.92-19.67-.75-.39-8.33 16.24zM61 309.66l4.3 3.7-1.51 10.89 6-7 5.13 4.41-15.62 18.18-4.3-3.71 1.51-10.85-6 7-5.13-4.41zm-10.85 18.52L61 315.58l-2.73 19.57.64.55 11.89-13.83-.64-.55-10.84 12.6L62 314.35l-.64-.55-11.85 13.83zm28.68-2l7.77 10.08-5 3.84-3.56-4.62-2.04 1.63 3.5 4.54-4.73 3.65-3.5-4.54-2.27 1.69 3.7 4.79-5 3.84-7.91-10.26zm-10.27 21.25l.68-.53-4-5.13 6.28-4.77 3.76 4.87.68-.53-3.76-4.87 6.16-4.75 4 5.13.68-.53-4.47-5.79-14.48 11.11zm21.19-6.5l3.35 6.65a11.68 11.68 0 0 1 1.18 3.7 8.69 8.69 0 0 1-.23 3.54 8.22 8.22 0 0 1-1.71 3.18 10.33 10.33 0 0 1-3.26 2.45 9.08 9.08 0 0 1-2.94 1 9.8 9.8 0 0 1-2.32 0 7.41 7.41 0 0 1-2.07-.59L76.51 368l-3.64-7.23 4-5.63-5.43 2.73-3.1-6.16zM78.8 354a10.47 10.47 0 0 0 1.36 2l-3.76 5.33.45.9 3.94-5.61a5.74 5.74 0 0 0 6.89.81 6.53 6.53 0 0 0 2.23-1.74A5.75 5.75 0 0 0 91 353.5a6.51 6.51 0 0 0 .08-2.56 9.22 9.22 0 0 0-.9-2.7l-1.57-3.12-16.3 8.2.38.75 4.89-2.46zm-.42-2.76l9.87-5 1.19 2.37a6.84 6.84 0 0 1 .79 4.77 5.86 5.86 0 0 1-7.31 3.68 6.9 6.9 0 0 1-3.34-3.48zm3.93 1.17l.16.32A3.5 3.5 0 0 0 84 354.3a2.88 2.88 0 0 0 3.66-1.84 3.5 3.5 0 0 0-.39-2.14l-.16-.32zm18.85 15.78l1.67 7.13-23.37 5.47-1.67-7.13zM81.53 377l17.76-4.16-.19-.84-17.76 4.16zm5.7 3.94a9.84 9.84 0 0 0-.26 1.52 10.77 10.77 0 0 0-.15 1.49 12.92 12.92 0 0 0 0 1.67q.14 1.48 1.35 1.37a1.42 1.42 0 0 0 .91-.54 14.21 14.21 0 0 0 1-1.24q.53-.75 1.17-1.6a11.43 11.43 0 0 1 1.53-1.61 8.83 8.83 0 0 1 2-1.34 7.37 7.37 0 0 1 2.63-.7 7.58 7.58 0 0 1 3 .28 6 6 0 0 1 2.29 1.32 6.64 6.64 0 0 1 1.52 2.15 8.59 8.59 0 0 1 .7 2.75A13.45 13.45 0 0 1 105 388v1.4q0 .62-.09 1.41l-6.7.61v-1.18a6.17 6.17 0 0 0 0-.68c0-.13 0-.29-.06-.48a2.73 2.73 0 0 0-.14-.54 1.1 1.1 0 0 0-.29-.43.66.66 0 0 0-.52-.15 1.18 1.18 0 0 0-.68.5q-.39.48-.91 1.16t-1.2 1.51a10.37 10.37 0 0 1-3.68 2.81 8.07 8.07 0 0 1-2.68.69 9.46 9.46 0 0 1-3-.18 6.43 6.43 0 0 1-2.53-1.18 6.65 6.65 0 0 1-1.86-2.27 9.51 9.51 0 0 1-.91-3.46 19.13 19.13 0 0 1-.08-2.28q0-1.06.13-1.88a14.39 14.39 0 0 1 .27-1.75zM83.18 384c0 .31-.07.64-.09 1s0 .63 0 1a9.44 9.44 0 0 0 0 1 6.67 6.67 0 0 0 .39 1.74 4.24 4.24 0 0 0 .91 1.46 3.88 3.88 0 0 0 1.48 1 4.75 4.75 0 0 0 2.1.21 4.35 4.35 0 0 0 1.93-.65 9.14 9.14 0 0 0 1.68-1.36 21.66 21.66 0 0 0 1.51-1.7q.71-.9 1.45-1.69a9.76 9.76 0 0 1 1.5-1.34 3.3 3.3 0 0 1 1.62-.62 2.61 2.61 0 0 1 2.06.56 3.42 3.42 0 0 1 .92 2.32V388a3.68 3.68 0 0 0 0 .52l.93-.09a3.71 3.71 0 0 1 0-.49V386.87a4.55 4.55 0 0 0-1.14-2.79 3.27 3.27 0 0 0-2.85-.88 4 4 0 0 0-1.84.64 9.5 9.5 0 0 0-1.61 1.35q-.78.8-1.49 1.7t-1.45 1.69a8.78 8.78 0 0 1-1.56 1.35 3.74 3.74 0 0 1-1.75.63 3.27 3.27 0 0 1-2.71-.81 4.32 4.32 0 0 1-1.16-2.8 10.35 10.35 0 0 1 0-2q0-.49.09-1z" fill="#f6911e"/><path fill="none" stroke="#fff" stroke-miterlimit="10" stroke-width="2" d="M-165.47 394.89h328.39"/><path fill="#f6911e" d="M565.57 39.33h25.54V364.9h-25.54z"/><path d="M586.32 116.42v5l-5.12 1.69 5.12 1.69v3.2l-5.12 1.69 5.12 1.69v5l-14.67-4.84v-3.65l4.44-1.47-4.44-1.47v-3.65zm-12.91 7l9.21 2.92-9.21 2.92v.55l11.15 3.67v-.59l-10.14-3.34 10.14-3.21-10.14-3.21 10.14-3.34v-.59l-11.15 3.67zm5.59 12.92a7.49 7.49 0 0 1 3 .6 7.69 7.69 0 0 1 4.1 4.1 7.7 7.7 0 0 1 0 6 7.69 7.69 0 0 1-4.1 4.1 7.69 7.69 0 0 1-6 0 7.69 7.69 0 0 1-4.1-4.1 7.7 7.7 0 0 1 0-6 7.69 7.69 0 0 1 4.1-4.1 7.49 7.49 0 0 1 3-.6zm0 2.07a5.47 5.47 0 0 0-2.19.44 5.67 5.67 0 0 0-3 3 5.66 5.66 0 0 0 0 4.38 5.67 5.67 0 0 0 3 3 5.66 5.66 0 0 0 4.38 0 5.67 5.67 0 0 0 3-3 5.66 5.66 0 0 0 0-4.37 5.67 5.67 0 0 0-3-3 5.47 5.47 0 0 0-2.19-.46zm-5.08 5.59a4.89 4.89 0 0 1 .4-2 5.15 5.15 0 0 1 2.69-2.69 5.1 5.1 0 0 1 3.94 0 5.15 5.15 0 0 1 2.69 2.69 5.09 5.09 0 0 1 0 3.94 5.15 5.15 0 0 1-2.69 2.69 5.1 5.1 0 0 1-3.94 0 5.15 5.15 0 0 1-2.69-2.69 4.89 4.89 0 0 1-.4-1.94zm5.08-3a3 3 0 0 0-1.2.24 3.09 3.09 0 0 0-1.64 1.64 3.09 3.09 0 0 0 0 2.4 3.09 3.09 0 0 0 1.64 1.64 3.09 3.09 0 0 0 2.4 0 3.09 3.09 0 0 0 1.64-1.64 3.09 3.09 0 0 0 0-2.4 3.08 3.08 0 0 0-1.64-1.64 3 3 0 0 0-1.2-.24zm7.32 11.94V158a8.72 8.72 0 0 1-.37 2.61 6 6 0 0 1-1.1 2.08 5 5 0 0 1-1.79 1.37 5.77 5.77 0 0 1-2.45.49 5 5 0 0 1-1.87-.31 5.76 5.76 0 0 1-1.28-.68 4.79 4.79 0 0 1-1-1l-4.84 2.75v-5.5l3.72-2.2h-3.72v-4.68zm-9.57 4.57a7.89 7.89 0 0 0 .18 1.67l-3.52 2.09v.68l3.69-2.2a4.13 4.13 0 0 0 1.29 1.89 3.47 3.47 0 0 0 2.25.7 3.65 3.65 0 0 0 1.69-.37 3.59 3.59 0 0 0 1.22-1 4.56 4.56 0 0 0 .75-1.53 6.89 6.89 0 0 0 .25-1.91v-2.37h-11.14v.57h3.34zm.53-1.8H584v1.8a5 5 0 0 1-.88 3.13 3 3 0 0 1-2.51 1.13 3 3 0 0 1-2.5-1.13 5 5 0 0 1-.87-3.13zm1.83 1.91v.24a2.57 2.57 0 0 0 .37 1.42 1.64 1.64 0 0 0 2.51 0 2.57 2.57 0 0 0 .37-1.42v-.24zm7.21 8.13v4.88H575.5v4h-3.85v-8.93zm-12.91 7.69h.53v-4.92h10.62V168h-11.15zm-1.76 2.01h14.67v4.07a13.43 13.43 0 0 1-.46 3.68 7.36 7.36 0 0 1-1.39 2.73 6 6 0 0 1-2.3 1.69 9 9 0 0 1-6.36 0 6 6 0 0 1-2.3-1.69 7.51 7.51 0 0 1-1.4-2.73 13.12 13.12 0 0 1-.47-3.68zm1.76 2.2v1.87a7.07 7.07 0 0 0 1.46 4.85 6 6 0 0 0 8.24 0 7.11 7.11 0 0 0 1.45-4.85v-1.87zm.53.57H584v1.3a6.69 6.69 0 0 1-1.26 4.34 5.38 5.38 0 0 1-7.55 0 6.65 6.65 0 0 1-1.28-4.34zm1.89 1.91a3.78 3.78 0 0 0 .78 2.55 3 3 0 0 0 2.39.9 3 3 0 0 0 2.38-.9 3.82 3.82 0 0 0 .77-2.55zm3.17 13.35a7.91 7.91 0 0 1 3.18.62 7.41 7.41 0 0 1 2.43 1.67 7.29 7.29 0 0 1 1.55 2.46 8.31 8.31 0 0 1 .54 3 9.34 9.34 0 0 1-.24 2.23 10.65 10.65 0 0 1-.55 1.68 8 8 0 0 1-.77 1.41l-4.14-2.32a7.83 7.83 0 0 0 .51-.77 7.34 7.34 0 0 0 .34-.89 3.85 3.85 0 0 0 .17-1.18 3.18 3.18 0 0 0-.9-2.25 3 3 0 0 0-1-.67 3 3 0 0 0-1.2-.24 2.88 2.88 0 0 0-1.2.25 3.08 3.08 0 0 0-1 .69 3.26 3.26 0 0 0-.66 1 3.4 3.4 0 0 0-.24 1.3 4.08 4.08 0 0 0 .18 1.25 4.61 4.61 0 0 0 .4.92 3.39 3.39 0 0 0 .57.77l-3.97 2.35a6.55 6.55 0 0 1-.86-1.41 12.08 12.08 0 0 1-.57-1.69 8.82 8.82 0 0 1-.26-2.26 8.73 8.73 0 0 1 .56-3.17 7.46 7.46 0 0 1 1.57-2.51 7.14 7.14 0 0 1 2.43-1.65 8 8 0 0 1 3.13-.59zm0 2.77a5.37 5.37 0 0 1 2 .36 4.69 4.69 0 0 1 2.68 2.63 5.42 5.42 0 0 1 .4 2.11 6.07 6.07 0 0 1-.08 1 4.64 4.64 0 0 1-.19.76 2.92 2.92 0 0 1-.26.64l.53.31q.15-.35.29-.75a8.41 8.41 0 0 0 .2-.86 6.34 6.34 0 0 0 .09-1.12 5.89 5.89 0 0 0-.4-2.14 5.47 5.47 0 0 0-1.13-1.8 5.55 5.55 0 0 0-4.1-1.73 5.78 5.78 0 0 0-2.33.45 5.26 5.26 0 0 0-1.77 1.24 5.54 5.54 0 0 0-1.13 1.85 6.34 6.34 0 0 0-.4 2.24 5.78 5.78 0 0 0 .11 1.19 7.13 7.13 0 0 0 .24.9 4.43 4.43 0 0 0 .35.75l.53-.31a2.79 2.79 0 0 1-.33-.66 5 5 0 0 1-.23-.79 5.17 5.17 0 0 1-.1-1.08 5.7 5.7 0 0 1 .4-2.18 4.83 4.83 0 0 1 1.08-1.64 4.73 4.73 0 0 1 1.61-1 5.37 5.37 0 0 1 1.94-.37zm-7.72 17.06a8.36 8.36 0 0 1 .35-2.51 5.16 5.16 0 0 1 1.06-1.91 4.63 4.63 0 0 1 1.78-1.22 6.82 6.82 0 0 1 2.53-.43h9.33v4.68h-9.13a1.87 1.87 0 0 0-1.18.32 1.6 1.6 0 0 0 0 2.13 1.88 1.88 0 0 0 1.18.32h9.13v4.71H577a6.82 6.82 0 0 1-2.53-.43 4.57 4.57 0 0 1-1.78-1.23 5.27 5.27 0 0 1-1.06-1.92 8.35 8.35 0 0 1-.35-2.51zm2.64 0q0-3.3 3.23-3.3h7.41v-.57h-7.41a3.78 3.78 0 0 0-2.83 1 3.94 3.94 0 0 0-1 2.87 4 4 0 0 0 1 2.88 3.75 3.75 0 0 0 2.83 1h7.41v-.59h-7.41q-3.24.01-3.23-3.29zm12.4 7.56v5h-14.67v-5zm-12.91 2.77h11.15v-.57h-11.15zm2.79 3.36a7.27 7.27 0 0 0-.24 1 8 8 0 0 0-.18 1 9.69 9.69 0 0 0-.07 1.13q0 1 .75 1a.84.84 0 0 0 .58-.31 9.26 9.26 0 0 0 .66-.78q.36-.47.8-1a7.36 7.36 0 0 1 1-1 5.29 5.29 0 0 1 1.29-.78 4.1 4.1 0 0 1 1.64-.31 4.23 4.23 0 0 1 1.83.37 3.67 3.67 0 0 1 1.32 1 4.66 4.66 0 0 1 .8 1.55 6.43 6.43 0 0 1 .27 1.9 10.33 10.33 0 0 1-.05 1.06l-.1.95-.13.95h-4.11v-1.59a2 2 0 0 0-.06-.37.76.76 0 0 0-.15-.31.38.38 0 0 0-.31-.13q-.18 0-.44.3l-.62.73q-.35.43-.81.95a6.52 6.52 0 0 1-1.06.95 6.13 6.13 0 0 1-1.34.73 4.49 4.49 0 0 1-1.67.3 5.27 5.27 0 0 1-1.81-.31 3.86 3.86 0 0 1-1.47-1 4.56 4.56 0 0 1-1-1.66 7.1 7.1 0 0 1-.36-2.4 14.65 14.65 0 0 1 .08-1.55q.08-.71.19-1.26a10.62 10.62 0 0 1 .26-1.17zm-2.64 1.85q-.07.31-.11.66t-.08.65v.69a5 5 0 0 0 .14 1.2 3 3 0 0 0 .47 1 2.42 2.42 0 0 0 .85.74 2.66 2.66 0 0 0 1.26.27 2.45 2.45 0 0 0 1.21-.32 5.58 5.58 0 0 0 1.1-.81 13.55 13.55 0 0 0 1-1.06q.48-.56 1-1.06a6 6 0 0 1 1-.81 1.86 1.86 0 0 1 1-.32 1.51 1.51 0 0 1 1.22.51 2.5 2.5 0 0 1 .43 1.63v.72a2.83 2.83 0 0 0 0 .35h.57a2.66 2.66 0 0 1 0-.33v-.72a3.34 3.34 0 0 0-.54-2 1.91 1.91 0 0 0-1.68-.77 2.23 2.23 0 0 0-1.15.32 5.8 5.8 0 0 0-1.06.81q-.52.49-1 1.06t-1 1.06a5.45 5.45 0 0 1-1 .81 2.11 2.11 0 0 1-1.1.32 1.9 1.9 0 0 1-1.61-.71 3.15 3.15 0 0 1-.55-2 7.78 7.78 0 0 1 .11-1.36q0-.33.11-.64zm12.76 8.42v5h-14.67v-5zM573.41 240h11.15v-.57h-11.15zm12.91 3.78v3.85l-5.65 4h5.65v4.59h-14.67v-3.82l5.63-4h-5.63v-4.6zm-12.91 2.62h10.16l-10.16 7.26v.57h11.15v-.57H574.4l10.16-7.26v-.57h-11.15zm12.91 11.41v8.64h-3.85v-4h-1.63v3.89h-3.65v-3.89h-1.69v4.11h-3.85v-8.79zM573.41 265h.53v-4.4h4.82v4.18h.53v-4.18H584v4.4h.53v-5h-11.12z" fill="#fff"/><path d="M-20.57 60.19h17.09l18 27.88V60.19h20.39v72.37H17.72L-.16 104.78v27.78h-20.41zM-9 123.88V73.75l32.24 50.13h2.54v-55h-2.5V119L-9 68.87h-2.54v55zm49.28-27.45A42.74 42.74 0 0 1 43 80.75a36.88 36.88 0 0 1 7.42-12 32.12 32.12 0 0 1 10.94-7.65 33.6 33.6 0 0 1 13.28-2.66 37.53 37.53 0 0 1 9.91 1.19 43.82 43.82 0 0 1 7.47 2.71 34.23 34.23 0 0 1 6.25 3.8L88 86.23a34.54 34.54 0 0 0-3.42-2.5 31 31 0 0 0-4-1.68 15.59 15.59 0 0 0-5.23-.81 12.93 12.93 0 0 0-5.57 1.19 14.27 14.27 0 0 0-4.44 3.26 15.07 15.07 0 0 0-3 4.83 16.17 16.17 0 0 0-1.07 5.91 15.57 15.57 0 0 0 1.12 5.91 15.29 15.29 0 0 0 3.08 4.83 14.46 14.46 0 0 0 4.59 3.26 13.79 13.79 0 0 0 5.76 1.19 16.55 16.55 0 0 0 5.57-.87 19.4 19.4 0 0 0 4.1-2A15.32 15.32 0 0 0 89 106l10.28 20a28.7 28.7 0 0 1-6.28 4.28 49.51 49.51 0 0 1-7.52 2.82 35.46 35.46 0 0 1-10.06 1.3 35.29 35.29 0 0 1-14.07-2.77 32.89 32.89 0 0 1-11.13-7.76 35.6 35.6 0 0 1-7.33-12 43.51 43.51 0 0 1-2.61-15.44zm12.31 0a29.09 29.09 0 0 1 1.61-9.77 24.21 24.21 0 0 1 4.54-7.92 21.16 21.16 0 0 1 7.13-5.32 22 22 0 0 1 9.38-2 24.56 24.56 0 0 1 4.54.38 18.92 18.92 0 0 1 3.37.92A12.23 12.23 0 0 1 86 74.08l1.37-2.6q-1.57-.77-3.37-1.42a34.4 34.4 0 0 0-3.81-1 25.46 25.46 0 0 0-5-.43 23.86 23.86 0 0 0-9.52 2 24.18 24.18 0 0 0-8 5.59A27.73 27.73 0 0 0 52.15 85 30.06 30.06 0 0 0 50 96.43a31.24 31.24 0 0 0 2 11.5 26.11 26.11 0 0 0 5.52 8.73 24.29 24.29 0 0 0 8.21 5.59 25.65 25.65 0 0 0 10 2 23.4 23.4 0 0 0 5.27-.54 29 29 0 0 0 4-1.19 18.75 18.75 0 0 0 3.32-1.74L87 118.13a11.91 11.91 0 0 1-3 1.63 20.27 20.27 0 0 1-3.52 1.14 20.83 20.83 0 0 1-4.79.49 23.12 23.12 0 0 1-9.67-2 21.4 21.4 0 0 1-7.28-5.32 23.72 23.72 0 0 1-4.59-7.92 29.09 29.09 0 0 1-1.56-9.72zm49.13-36.24h20.81v24.63h11.62V60.19h20.9v72.37h-20.9v-26.8h-11.62v26.8h-20.81zM114 123.88V96.43h28.72v27.45h2.54v-55h-2.54v25H114v-25h-2.54v55zm-167.5 85.2v-72.37h18.07A54.05 54.05 0 0 1-19.07 139 31.69 31.69 0 0 1-7 145.82a29.5 29.5 0 0 1 7.57 11.34 43.84 43.84 0 0 1 2.59 15.68 43.82 43.82 0 0 1-2.59 15.68A29.48 29.48 0 0 1-7 199.86a32.24 32.24 0 0 1-12.11 6.89 52.84 52.84 0 0 1-16.36 2.33zm9.77-8.68h8.3q14.26 0 21.54-7.22t7.28-20.34q0-13.13-7.28-20.29t-21.54-7.16h-8.3zm2.54-2.6V148h5.76q12.4 0 19.29 6.24t6.89 18.61q0 12.37-6.89 18.66t-19.29 6.29zm8.5-9.33q7.33 0 11.33-3.85t4-11.77q0-7.92-4-11.72t-11.33-3.8zm41.22-51.76h17.09l18 27.88v-27.88H64v72.37H46.82L28.94 181.3v27.78H8.53zm11.62 63.69v-50.13l32.24 50.13h2.54v-55h-2.54v50.13l-32.24-50.14h-2.54v55zm50.7-63.69h38.39v19H91.65v8h17.29v18H91.65v8.35h18.27v19H70.85zm31.84 63.69v-2.6H83.16V174h18.56v-2.6H83.16V148h19.54v-2.6H80.62v55zM114 186.62a29.52 29.52 0 0 0 4.49 1.19 32.22 32.22 0 0 0 4.44.87 38.73 38.73 0 0 0 5 .33q4.49 0 4.49-3.69a4.3 4.3 0 0 0-1.37-2.88 42.81 42.81 0 0 0-3.47-3.26q-2.1-1.79-4.49-4a34.42 34.42 0 0 1-4.49-5 26.73 26.73 0 0 1-3.47-6.35 22.24 22.24 0 0 1-1.37-8.08 22.85 22.85 0 0 1 1.66-9 18 18 0 0 1 4.59-6.51 20 20 0 0 1 6.89-4 25.9 25.9 0 0 1 8.45-1.36 41.06 41.06 0 0 1 4.69.27l4.2.49 4.2.65v20.29l-1.76-.22-1.76-.22a19 19 0 0 0-2.05-.11q-.59 0-1.47.05a8.18 8.18 0 0 0-1.66.27 3.28 3.28 0 0 0-1.37.76 2 2 0 0 0-.59 1.52 3.54 3.54 0 0 0 1.32 2.17q1.32 1.3 3.22 3t4.2 4a31.24 31.24 0 0 1 7.48 11.98 24.39 24.39 0 0 1 1.32 8.25 28.58 28.58 0 0 1-1.37 9 19.38 19.38 0 0 1-4.25 7.27 20 20 0 0 1-7.38 4.88 28.7 28.7 0 0 1-10.65 1.79 58.31 58.31 0 0 1-6.89-.38q-3.17-.38-5.62-.92a43.34 43.34 0 0 1-5.18-1.3zm8.2 13q1.37.33 2.93.54 1.37.22 2.88.38a28.68 28.68 0 0 0 3.08.16 20.12 20.12 0 0 0 5.32-.71 12.79 12.79 0 0 0 4.64-2.33 11.67 11.67 0 0 0 3.27-4.18 14.36 14.36 0 0 0 1.22-6.24 13.14 13.14 0 0 0-1.42-6 27.73 27.73 0 0 0-3.61-5.42 65 65 0 0 0-4.69-5q-2.49-2.39-4.69-4.83a29.35 29.35 0 0 1-3.61-4.88 9.92 9.92 0 0 1-1.42-5 7.87 7.87 0 0 1 2.25-6q2.25-2.12 7.23-2.12.78 0 1.61.05t1.61.16a11.23 11.23 0 0 0 1.56.11v-2.81a10.63 10.63 0 0 1-1.47-.11q-.68-.11-1.51-.16c-.55 0-1.12-.05-1.71-.05a13.74 13.74 0 0 0-8.69 2.66q-3.42 2.66-3.42 8.3a11.92 11.92 0 0 0 1.42 5.7 28.53 28.53 0 0 0 3.61 5.21q2.2 2.55 4.69 4.94t4.72 4.81a26.47 26.47 0 0 1 3.61 5 11.22 11.22 0 0 1 1.42 5.43q0 5.21-3.17 7.92t-8.74 2.71a31.13 31.13 0 0 1-6.06-.54q-1.46-.22-2.83-.54zm35.8-13a29.53 29.53 0 0 0 4.49 1.19 32.18 32.18 0 0 0 4.44.87 38.75 38.75 0 0 0 5 .33q4.49 0 4.49-3.69a4.3 4.3 0 0 0-1.37-2.88 42.81 42.81 0 0 0-3.47-3.26q-2.1-1.79-4.49-4a34.3 34.3 0 0 1-4.49-5 26.69 26.69 0 0 1-3.47-6.35 22.22 22.22 0 0 1-1.37-8.08 22.83 22.83 0 0 1 1.66-9 18 18 0 0 1 4.59-6.51 20 20 0 0 1 6.89-4 25.9 25.9 0 0 1 8.45-1.36 41 41 0 0 1 4.69.27l4.2.49 4.2.65v20.29l-1.76-.22-1.76-.22a19 19 0 0 0-2.05-.11q-.59 0-1.47.05a8.17 8.17 0 0 0-1.66.27 3.28 3.28 0 0 0-1.37.76 2 2 0 0 0-.59 1.52 3.54 3.54 0 0 0 1.32 2.17q1.32 1.3 3.22 3t4.2 4a31.24 31.24 0 0 1 7.48 11.98 24.37 24.37 0 0 1 1.3 8.22 28.58 28.58 0 0 1-1.37 9 19.36 19.36 0 0 1-4.25 7.27 20 20 0 0 1-7.38 4.88 28.71 28.71 0 0 1-10.65 1.79 58.29 58.29 0 0 1-6.89-.38q-3.18-.38-5.62-.92a43.41 43.41 0 0 1-5.18-1.3zm8.21 13q1.37.33 2.93.54 1.37.22 2.88.38a28.66 28.66 0 0 0 3.08.16 20.13 20.13 0 0 0 5.32-.71 12.79 12.79 0 0 0 4.64-2.33 11.66 11.66 0 0 0 3.27-4.18 14.36 14.36 0 0 0 1.22-6.24 13.13 13.13 0 0 0-1.42-6 27.64 27.64 0 0 0-3.61-5.42 65 65 0 0 0-4.69-5q-2.49-2.39-4.69-4.83a29.42 29.42 0 0 1-3.61-4.88 9.92 9.92 0 0 1-1.42-5 7.87 7.87 0 0 1 2.25-6q2.24-2.12 7.23-2.12.78 0 1.61.05t1.61.16a11.2 11.2 0 0 0 1.56.11v-2.81a10.61 10.61 0 0 1-1.47-.11q-.68-.11-1.51-.16t-1.71-.05a13.74 13.74 0 0 0-8.69 2.66q-3.42 2.66-3.42 8.3a11.92 11.92 0 0 0 1.42 5.7 28.48 28.48 0 0 0 3.61 5.21q2.2 2.55 4.69 4.94t4.71 4.81a26.51 26.51 0 0 1 3.61 5 11.22 11.22 0 0 1 1.42 5.43q0 5.21-3.17 7.92t-8.74 2.71a31.12 31.12 0 0 1-6.06-.54q-1.47-.22-2.83-.54z" opacity=".32" style="mix-blend-mode:multiply" fill="#737477" stroke="#737477" stroke-miterlimit="10" stroke-width="10"/><path d="M-20.57 55.19h17.09l18 27.88V55.19h20.39v72.37H17.72L-.16 99.79v27.78h-20.41zM-9 118.88V68.75l32.24 50.13h2.54v-55h-2.5V114L-9 63.87h-2.54v55zm49.28-27.45A42.74 42.74 0 0 1 43 75.75a36.88 36.88 0 0 1 7.42-12 32.12 32.12 0 0 1 10.94-7.65 33.6 33.6 0 0 1 13.28-2.66 37.53 37.53 0 0 1 9.91 1.19 43.82 43.82 0 0 1 7.47 2.71 34.23 34.23 0 0 1 6.25 3.8L88 81.23a34.54 34.54 0 0 0-3.42-2.5 31 31 0 0 0-4-1.68 15.59 15.59 0 0 0-5.23-.81 12.93 12.93 0 0 0-5.57 1.19 14.27 14.27 0 0 0-4.44 3.26 15.07 15.07 0 0 0-3 4.83 16.17 16.17 0 0 0-1.07 5.91 15.57 15.57 0 0 0 1.12 5.91 15.29 15.29 0 0 0 3.08 4.83 14.46 14.46 0 0 0 4.59 3.26 13.79 13.79 0 0 0 5.76 1.19 16.55 16.55 0 0 0 5.57-.87 19.4 19.4 0 0 0 4.1-2A15.32 15.32 0 0 0 89 101l10.26 20.07a28.7 28.7 0 0 1-6.26 4.21 49.51 49.51 0 0 1-7.52 2.82 35.46 35.46 0 0 1-10.06 1.3 35.29 35.29 0 0 1-14.07-2.77 32.89 32.89 0 0 1-11.13-7.76 35.6 35.6 0 0 1-7.33-12 43.51 43.51 0 0 1-2.61-15.44zm12.31 0a29.09 29.09 0 0 1 1.61-9.77 24.21 24.21 0 0 1 4.54-7.92 21.16 21.16 0 0 1 7.13-5.32 22 22 0 0 1 9.38-2 24.56 24.56 0 0 1 4.54.38 18.92 18.92 0 0 1 3.37.92A12.23 12.23 0 0 1 86 69.08l1.37-2.6q-1.57-.76-3.37-1.41a34.4 34.4 0 0 0-3.81-1 25.46 25.46 0 0 0-5-.43 23.86 23.86 0 0 0-9.52 2 24.18 24.18 0 0 0-8 5.59A27.73 27.73 0 0 0 52.15 80 30.06 30.06 0 0 0 50 91.43a31.24 31.24 0 0 0 2 11.5 26.11 26.11 0 0 0 5.52 8.73 24.29 24.29 0 0 0 8.21 5.59 25.65 25.65 0 0 0 10 2 23.4 23.4 0 0 0 5.27-.54 29 29 0 0 0 4-1.19 18.75 18.75 0 0 0 3.32-1.74L87 113.13a11.91 11.91 0 0 1-3 1.63 20.27 20.27 0 0 1-3.52 1.14 20.83 20.83 0 0 1-4.79.49 23.12 23.12 0 0 1-9.67-2 21.4 21.4 0 0 1-7.28-5.32 23.72 23.72 0 0 1-4.59-7.92 29.09 29.09 0 0 1-1.56-9.72zm49.13-36.24h20.81v24.63h11.62V55.19h20.9v72.37h-20.9v-26.8h-11.62v26.8h-20.81zM114 118.88V91.43h28.72v27.45h2.54v-55h-2.54v25H114v-25h-2.54v55zm-167.5 85.2v-72.37h18.07A54.05 54.05 0 0 1-19.07 134 31.69 31.69 0 0 1-7 140.83a29.5 29.5 0 0 1 7.57 11.34 43.84 43.84 0 0 1 2.59 15.68 43.82 43.82 0 0 1-2.59 15.67A29.48 29.48 0 0 1-7 194.86a32.24 32.24 0 0 1-12.11 6.89 52.84 52.84 0 0 1-16.36 2.33zm9.77-8.68h8.3q14.26 0 21.54-7.22t7.28-20.34q0-13.13-7.28-20.29t-21.54-7.16h-8.3zm2.54-2.6V143h5.76q12.4 0 19.29 6.24t6.89 18.61q0 12.37-6.89 18.66t-19.29 6.29zm8.5-9.33q7.33 0 11.33-3.85t4-11.77q0-7.92-4-11.72t-11.33-3.8zm41.22-51.76h17.09l18 27.88v-27.88H64v72.37H46.82l-17.88-27.77v27.78H8.53zm11.62 63.69v-50.12l32.24 50.12h2.54v-55h-2.54v50.13l-32.24-50.14h-2.54v55zm50.7-63.69h38.39v19H91.65v8h17.29v18H91.65v8.35h18.27v19H70.85zm31.84 63.69v-2.6H83.16V169h18.56v-2.6H83.16V143h19.54v-2.6H80.62v55zM114 181.62a29.52 29.52 0 0 0 4.49 1.19 32.22 32.22 0 0 0 4.44.87 38.73 38.73 0 0 0 5 .33q4.49 0 4.49-3.69a4.3 4.3 0 0 0-1.37-2.88 42.81 42.81 0 0 0-3.47-3.26q-2.1-1.79-4.49-4a34.42 34.42 0 0 1-4.49-5 26.73 26.73 0 0 1-3.47-6.35 22.24 22.24 0 0 1-1.37-8.08 22.85 22.85 0 0 1 1.66-9 18 18 0 0 1 4.59-6.51 20 20 0 0 1 6.89-4 25.9 25.9 0 0 1 8.45-1.36 41.06 41.06 0 0 1 4.69.27l4.2.49 4.2.65v20.29l-1.76-.22-1.76-.22a19 19 0 0 0-2.05-.11q-.59 0-1.47.05a8.18 8.18 0 0 0-1.66.27 3.28 3.28 0 0 0-1.37.76 2 2 0 0 0-.59 1.52 3.54 3.54 0 0 0 1.32 2.17q1.32 1.3 3.22 3t4.2 4a31.24 31.24 0 0 1 7.48 11.99 24.39 24.39 0 0 1 1.32 8.25 28.58 28.58 0 0 1-1.37 9 19.38 19.38 0 0 1-4.25 7.27 20 20 0 0 1-7.38 4.88 28.7 28.7 0 0 1-10.65 1.79 58.31 58.31 0 0 1-6.89-.38q-3.17-.38-5.62-.92a43.34 43.34 0 0 1-5.18-1.3zm8.2 13q1.37.33 2.93.54 1.37.22 2.88.38a28.68 28.68 0 0 0 3.08.16 20.12 20.12 0 0 0 5.32-.71 12.79 12.79 0 0 0 4.64-2.33 11.67 11.67 0 0 0 3.27-4.18 14.36 14.36 0 0 0 1.22-6.24 13.14 13.14 0 0 0-1.42-6 27.73 27.73 0 0 0-3.61-5.42 65 65 0 0 0-4.69-5q-2.49-2.39-4.69-4.83a29.35 29.35 0 0 1-3.61-4.88 9.92 9.92 0 0 1-1.42-5 7.87 7.87 0 0 1 2.25-6q2.25-2.12 7.23-2.12.78 0 1.61.05t1.61.16a11.23 11.23 0 0 0 1.56.11v-2.81a10.63 10.63 0 0 1-1.47-.11q-.68-.11-1.51-.16c-.55 0-1.12-.05-1.71-.05a13.74 13.74 0 0 0-8.69 2.66q-3.42 2.66-3.42 8.3a11.92 11.92 0 0 0 1.42 5.7 28.53 28.53 0 0 0 3.61 5.21q2.2 2.55 4.69 4.94t4.72 4.81a26.47 26.47 0 0 1 3.61 5 11.22 11.22 0 0 1 1.42 5.43q0 5.21-3.17 7.92t-8.74 2.71a31.13 31.13 0 0 1-6.06-.54q-1.46-.22-2.83-.54zm35.8-13a29.53 29.53 0 0 0 4.49 1.19 32.18 32.18 0 0 0 4.44.87 38.75 38.75 0 0 0 5 .33q4.49 0 4.49-3.69a4.3 4.3 0 0 0-1.37-2.88 42.81 42.81 0 0 0-3.47-3.26q-2.1-1.79-4.49-4a34.3 34.3 0 0 1-4.49-5 26.69 26.69 0 0 1-3.47-6.35 22.22 22.22 0 0 1-1.37-8.08 22.83 22.83 0 0 1 1.66-9 18 18 0 0 1 4.59-6.51 20 20 0 0 1 6.89-4 25.9 25.9 0 0 1 8.45-1.36 41 41 0 0 1 4.69.27l4.2.49 4.2.65v20.29l-1.76-.22-1.76-.22a19 19 0 0 0-2.05-.11q-.59 0-1.47.05a8.17 8.17 0 0 0-1.66.27 3.28 3.28 0 0 0-1.37.76 2 2 0 0 0-.59 1.52 3.54 3.54 0 0 0 1.32 2.17q1.32 1.3 3.22 3t4.2 4a31.24 31.24 0 0 1 7.48 11.99 24.37 24.37 0 0 1 1.3 8.21 28.58 28.58 0 0 1-1.37 9 19.36 19.36 0 0 1-4.25 7.27 20 20 0 0 1-7.38 4.88 28.71 28.71 0 0 1-10.65 1.79 58.29 58.29 0 0 1-6.89-.38q-3.18-.38-5.62-.92a43.41 43.41 0 0 1-5.18-1.3zm8.21 13q1.37.33 2.93.54 1.37.22 2.88.38a28.66 28.66 0 0 0 3.08.16 20.13 20.13 0 0 0 5.32-.71 12.79 12.79 0 0 0 4.64-2.33 11.66 11.66 0 0 0 3.27-4.18 14.36 14.36 0 0 0 1.22-6.24 13.13 13.13 0 0 0-1.42-6 27.64 27.64 0 0 0-3.61-5.42 65 65 0 0 0-4.69-5q-2.49-2.39-4.69-4.83a29.42 29.42 0 0 1-3.61-4.88 9.92 9.92 0 0 1-1.42-5 7.87 7.87 0 0 1 2.25-6q2.24-2.12 7.23-2.12.78 0 1.61.05t1.61.16a11.2 11.2 0 0 0 1.56.11v-2.81a10.61 10.61 0 0 1-1.47-.11q-.68-.11-1.51-.16t-1.71-.05a13.74 13.74 0 0 0-8.69 2.66q-3.42 2.66-3.42 8.3a11.92 11.92 0 0 0 1.42 5.7 28.48 28.48 0 0 0 3.61 5.21q2.2 2.55 4.69 4.94t4.71 4.81a26.51 26.51 0 0 1 3.61 5 11.22 11.22 0 0 1 1.42 5.43q0 5.21-3.17 7.92t-8.74 2.71a31.12 31.12 0 0 1-6.06-.54q-1.47-.22-2.83-.54z" fill="none" stroke="#f6911e" stroke-miterlimit="10" stroke-width="9"/><path d="M-20.57 55.19h17.09l18 27.88V55.19h20.39v72.37H17.72L-.16 99.79v27.78h-20.41zM-9 118.88V68.75l32.24 50.13h2.54v-55h-2.5V114L-9 63.87h-2.54v55zm49.28-27.45A42.74 42.74 0 0 1 43 75.75a36.88 36.88 0 0 1 7.42-12 32.12 32.12 0 0 1 10.94-7.65 33.6 33.6 0 0 1 13.28-2.66 37.53 37.53 0 0 1 9.91 1.19 43.82 43.82 0 0 1 7.47 2.71 34.23 34.23 0 0 1 6.25 3.8L88 81.23a34.54 34.54 0 0 0-3.42-2.5 31 31 0 0 0-4-1.68 15.59 15.59 0 0 0-5.23-.81 12.93 12.93 0 0 0-5.57 1.19 14.27 14.27 0 0 0-4.44 3.26 15.07 15.07 0 0 0-3 4.83 16.17 16.17 0 0 0-1.07 5.91 15.57 15.57 0 0 0 1.12 5.91 15.29 15.29 0 0 0 3.08 4.83 14.46 14.46 0 0 0 4.59 3.26 13.79 13.79 0 0 0 5.76 1.19 16.55 16.55 0 0 0 5.57-.87 19.4 19.4 0 0 0 4.1-2A15.32 15.32 0 0 0 89 101l10.26 20.07a28.7 28.7 0 0 1-6.26 4.21 49.51 49.51 0 0 1-7.52 2.82 35.46 35.46 0 0 1-10.06 1.3 35.29 35.29 0 0 1-14.07-2.77 32.89 32.89 0 0 1-11.13-7.76 35.6 35.6 0 0 1-7.33-12 43.51 43.51 0 0 1-2.61-15.44zm12.31 0a29.09 29.09 0 0 1 1.61-9.77 24.21 24.21 0 0 1 4.54-7.92 21.16 21.16 0 0 1 7.13-5.32 22 22 0 0 1 9.38-2 24.56 24.56 0 0 1 4.54.38 18.92 18.92 0 0 1 3.37.92A12.23 12.23 0 0 1 86 69.08l1.37-2.6q-1.57-.76-3.37-1.41a34.4 34.4 0 0 0-3.81-1 25.46 25.46 0 0 0-5-.43 23.86 23.86 0 0 0-9.52 2 24.18 24.18 0 0 0-8 5.59A27.73 27.73 0 0 0 52.15 80 30.06 30.06 0 0 0 50 91.43a31.24 31.24 0 0 0 2 11.5 26.11 26.11 0 0 0 5.52 8.73 24.29 24.29 0 0 0 8.21 5.59 25.65 25.65 0 0 0 10 2 23.4 23.4 0 0 0 5.27-.54 29 29 0 0 0 4-1.19 18.75 18.75 0 0 0 3.32-1.74L87 113.13a11.91 11.91 0 0 1-3 1.63 20.27 20.27 0 0 1-3.52 1.14 20.83 20.83 0 0 1-4.79.49 23.12 23.12 0 0 1-9.67-2 21.4 21.4 0 0 1-7.28-5.32 23.72 23.72 0 0 1-4.59-7.92 29.09 29.09 0 0 1-1.56-9.72zm49.13-36.24h20.81v24.63h11.62V55.19h20.9v72.37h-20.9v-26.8h-11.62v26.8h-20.81zM114 118.88V91.43h28.72v27.45h2.54v-55h-2.54v25H114v-25h-2.54v55zm-167.5 85.2v-72.37h18.07A54.05 54.05 0 0 1-19.07 134 31.69 31.69 0 0 1-7 140.83a29.5 29.5 0 0 1 7.57 11.34 43.84 43.84 0 0 1 2.59 15.68 43.82 43.82 0 0 1-2.59 15.67A29.48 29.48 0 0 1-7 194.86a32.24 32.24 0 0 1-12.11 6.89 52.84 52.84 0 0 1-16.36 2.33zm9.77-8.68h8.3q14.26 0 21.54-7.22t7.28-20.34q0-13.13-7.28-20.29t-21.54-7.16h-8.3zm2.54-2.6V143h5.76q12.4 0 19.29 6.24t6.89 18.61q0 12.37-6.89 18.66t-19.29 6.29zm8.5-9.33q7.33 0 11.33-3.85t4-11.77q0-7.92-4-11.72t-11.33-3.8zm41.22-51.76h17.09l18 27.88v-27.88H64v72.37H46.82l-17.88-27.77v27.78H8.53zm11.62 63.69v-50.12l32.24 50.12h2.54v-55h-2.54v50.13l-32.24-50.14h-2.54v55zm50.7-63.69h38.39v19H91.65v8h17.29v18H91.65v8.35h18.27v19H70.85zm31.84 63.69v-2.6H83.16V169h18.56v-2.6H83.16V143h19.54v-2.6H80.62v55zM114 181.62a29.52 29.52 0 0 0 4.49 1.19 32.22 32.22 0 0 0 4.44.87 38.73 38.73 0 0 0 5 .33q4.49 0 4.49-3.69a4.3 4.3 0 0 0-1.37-2.88 42.81 42.81 0 0 0-3.47-3.26q-2.1-1.79-4.49-4a34.42 34.42 0 0 1-4.49-5 26.73 26.73 0 0 1-3.47-6.35 22.24 22.24 0 0 1-1.37-8.08 22.85 22.85 0 0 1 1.66-9 18 18 0 0 1 4.59-6.51 20 20 0 0 1 6.89-4 25.9 25.9 0 0 1 8.45-1.36 41.06 41.06 0 0 1 4.69.27l4.2.49 4.2.65v20.29l-1.76-.22-1.76-.22a19 19 0 0 0-2.05-.11q-.59 0-1.47.05a8.18 8.18 0 0 0-1.66.27 3.28 3.28 0 0 0-1.37.76 2 2 0 0 0-.59 1.52 3.54 3.54 0 0 0 1.32 2.17q1.32 1.3 3.22 3t4.2 4a31.24 31.24 0 0 1 7.48 11.99 24.39 24.39 0 0 1 1.32 8.25 28.58 28.58 0 0 1-1.37 9 19.38 19.38 0 0 1-4.25 7.27 20 20 0 0 1-7.38 4.88 28.7 28.7 0 0 1-10.65 1.79 58.31 58.31 0 0 1-6.89-.38q-3.17-.38-5.62-.92a43.34 43.34 0 0 1-5.18-1.3zm8.2 13q1.37.33 2.93.54 1.37.22 2.88.38a28.68 28.68 0 0 0 3.08.16 20.12 20.12 0 0 0 5.32-.71 12.79 12.79 0 0 0 4.64-2.33 11.67 11.67 0 0 0 3.27-4.18 14.36 14.36 0 0 0 1.22-6.24 13.14 13.14 0 0 0-1.42-6 27.73 27.73 0 0 0-3.61-5.42 65 65 0 0 0-4.69-5q-2.49-2.39-4.69-4.83a29.35 29.35 0 0 1-3.61-4.88 9.92 9.92 0 0 1-1.42-5 7.87 7.87 0 0 1 2.25-6q2.25-2.12 7.23-2.12.78 0 1.61.05t1.61.16a11.23 11.23 0 0 0 1.56.11v-2.81a10.63 10.63 0 0 1-1.47-.11q-.68-.11-1.51-.16c-.55 0-1.12-.05-1.71-.05a13.74 13.74 0 0 0-8.69 2.66q-3.42 2.66-3.42 8.3a11.92 11.92 0 0 0 1.42 5.7 28.53 28.53 0 0 0 3.61 5.21q2.2 2.55 4.69 4.94t4.72 4.81a26.47 26.47 0 0 1 3.61 5 11.22 11.22 0 0 1 1.42 5.43q0 5.21-3.17 7.92t-8.74 2.71a31.13 31.13 0 0 1-6.06-.54q-1.46-.22-2.83-.54zm35.8-13a29.53 29.53 0 0 0 4.49 1.19 32.18 32.18 0 0 0 4.44.87 38.75 38.75 0 0 0 5 .33q4.49 0 4.49-3.69a4.3 4.3 0 0 0-1.37-2.88 42.81 42.81 0 0 0-3.47-3.26q-2.1-1.79-4.49-4a34.3 34.3 0 0 1-4.49-5 26.69 26.69 0 0 1-3.47-6.35 22.22 22.22 0 0 1-1.37-8.08 22.83 22.83 0 0 1 1.66-9 18 18 0 0 1 4.59-6.51 20 20 0 0 1 6.89-4 25.9 25.9 0 0 1 8.45-1.36 41 41 0 0 1 4.69.27l4.2.49 4.2.65v20.29l-1.76-.22-1.76-.22a19 19 0 0 0-2.05-.11q-.59 0-1.47.05a8.17 8.17 0 0 0-1.66.27 3.28 3.28 0 0 0-1.37.76 2 2 0 0 0-.59 1.52 3.54 3.54 0 0 0 1.32 2.17q1.32 1.3 3.22 3t4.2 4a31.24 31.24 0 0 1 7.48 11.99 24.37 24.37 0 0 1 1.3 8.21 28.58 28.58 0 0 1-1.37 9 19.36 19.36 0 0 1-4.25 7.27 20 20 0 0 1-7.38 4.88 28.71 28.71 0 0 1-10.65 1.79 58.29 58.29 0 0 1-6.89-.38q-3.18-.38-5.62-.92a43.41 43.41 0 0 1-5.18-1.3zm8.21 13q1.37.33 2.93.54 1.37.22 2.88.38a28.66 28.66 0 0 0 3.08.16 20.13 20.13 0 0 0 5.32-.71 12.79 12.79 0 0 0 4.64-2.33 11.66 11.66 0 0 0 3.27-4.18 14.36 14.36 0 0 0 1.22-6.24 13.13 13.13 0 0 0-1.42-6 27.64 27.64 0 0 0-3.61-5.42 65 65 0 0 0-4.69-5q-2.49-2.39-4.69-4.83a29.42 29.42 0 0 1-3.61-4.88 9.92 9.92 0 0 1-1.42-5 7.87 7.87 0 0 1 2.25-6q2.24-2.12 7.23-2.12.78 0 1.61.05t1.61.16a11.2 11.2 0 0 0 1.56.11v-2.81a10.61 10.61 0 0 1-1.47-.11q-.68-.11-1.51-.16t-1.71-.05a13.74 13.74 0 0 0-8.69 2.66q-3.42 2.66-3.42 8.3a11.92 11.92 0 0 0 1.42 5.7 28.48 28.48 0 0 0 3.61 5.21q2.2 2.55 4.69 4.94t4.71 4.81a26.51 26.51 0 0 1 3.61 5 11.22 11.22 0 0 1 1.42 5.43q0 5.21-3.17 7.92t-8.74 2.71a31.12 31.12 0 0 1-6.06-.54q-1.47-.22-2.83-.54zM151 260.7s-2-3.74-9.24 0c0 0-11 3.68-16.35 39.1 0 0-2.48 21.65-.77 58.18 0 0 0 2.4 1.8 3.16 0 0 4.62 1 5.65 8 0 0 0 .11-.12.31a6.25 6.25 0 0 0-1.34 3.91 6.37 6.37 0 0 0 .78 3.07 4 4 0 0 0 .85 1.43L130.88 484a.45.45 0 0 0 0 .07c0 1.31 3.93 2.36 8.77 2.36s8.68-1 8.76-2.32 0 0 0-.06l-3.54-105.9a6.13 6.13 0 0 0 2.07-4.67 6.26 6.26 0 0 0-1.38-4l-.24-.51s.22-2.74 3.38-7.24l-.4-25.05c.36-8.57-.48-13.76.36-31.87a271 271 0 0 1 4-33.25s.81-7.46-1.64-10.83" fill="#fff"/><ellipse cx="-1.23" cy="395.41" rx="75.97" ry="75.95" fill="#d0d2d3"/><ellipse cx="-1.23" cy="401.4" rx="75.97" ry="75.95" fill="#fff"/><path d="M220.62 185.82l.52-7.49h1.66l.68 3.2.17 1.15.22-1.15.75-3.2h1.57l.52 7.49h-1.61l-.15-3v-1.56l-.26 1.56-.66 3h-1l-.61-3-.22-1.56v1.56l-.17 3zm9.87-1.31h-1.62l-.27 1.31h-1.44l1.74-7.49h1.8l1.73 7.49h-1.68zm-1.38-1.19h1.14l-.4-2-.15-1-.17 1zm3.89-4.99h2.3a2 2 0 0 1 2.1 2.29 2.16 2.16 0 0 1-1 1.92l1.16 3.28h-1.66l-1-2.86h-.19v2.86H233zm1.69 1.26v2.22h.31c.59 0 .77-.44.77-1.14s-.19-1.08-.75-1.08zm7.72 6.04a2.39 2.39 0 0 1-1.3.31c-1.9 0-3.08-1.24-3.08-3.78s1.31-3.94 3-3.94a2.61 2.61 0 0 1 1.35.28l-.38 1.27a2.15 2.15 0 0 0-.85-.17c-.94 0-1.43.92-1.43 2.54s.51 2.42 1.46 2.42a1.85 1.85 0 0 0 .82-.19zm.7-7.3h1.7v3h1.41v-3h1.7v7.49h-1.7v-3.2h-1.41v3.2h-1.7zm6.81 7.29l.37-1.29a2 2 0 0 0 1 .25.86.86 0 0 0 .9-1c0-.56-.2-1-.88-1h-.33v-1.26h.33a.82.82 0 0 0 .87-.92c0-.57-.28-.87-.91-.87a1.77 1.77 0 0 0-.85.24l-.35-1.24a2.81 2.81 0 0 1 1.49-.37 1.92 1.92 0 0 1 2.1 2.11 1.61 1.61 0 0 1-1 1.61 1.76 1.76 0 0 1 1.14 1.82 2.12 2.12 0 0 1-2.27 2.24 2.94 2.94 0 0 1-1.61-.32zm5.31-5.42l-1 1v-1.49l1.39-1.4h1.27v7.55h-1.66zM490 34.58l.52-7.49h1.66l.68 3.2.17 1.15.22-1.15.75-3.2h1.57l.52 7.49h-1.62l-.15-3V30l-.32 1.6-.66 3h-1l-.61-3-.15-1.6v1.56l-.17 3zm9.87-1.31h-1.62l-.25 1.31h-1.44l1.74-7.49h1.8l1.73 7.49h-1.68zm-1.38-1.19h1.14l-.4-2-.15-1-.17 1zm3.92-4.99h2.3a2 2 0 0 1 2.1 2.29 2.17 2.17 0 0 1-1 1.92l1.19 3.28h-1.73l-1-2.86h-.19v2.86h-1.69zm1.69 1.26v2.22h.32c.59 0 .77-.44.77-1.14s-.19-1.08-.75-1.08zm7.69 6.04a2.4 2.4 0 0 1-1.3.31c-1.9 0-3.08-1.24-3.08-3.78s1.31-3.94 3-3.94a2.61 2.61 0 0 1 1.35.28l-.38 1.27a2.15 2.15 0 0 0-.85-.17c-.94 0-1.43.92-1.43 2.54s.51 2.42 1.46 2.42a1.85 1.85 0 0 0 .82-.19zm.7-7.3h1.7v3h1.41v-3h1.7v7.49h-1.7v-3.2h-1.41v3.2h-1.7zm7.99 1.91l-1 1v-1.57l1.39-1.4h1.27v7.55h-1.66zm2.52 3.65a2.11 2.11 0 0 1 1-1.79 2.39 2.39 0 0 1-.85-1.84 1.92 1.92 0 0 1 2-2 1.83 1.83 0 0 1 2 1.93 2.12 2.12 0 0 1-.85 1.74 2.24 2.24 0 0 1 1 1.9 2 2 0 0 1-2.11 2.21 2 2 0 0 1-2.19-2.15zm2.63 0a1.58 1.58 0 0 0-.7-1.23 1.74 1.74 0 0 0-.5 1.21c0 .53.23.88.62.88s.59-.35.59-.87zm-.37-2.65a1.52 1.52 0 0 0 .49-1.1c0-.41-.18-.75-.57-.75s-.57.35-.57.74a1.42 1.42 0 0 0 .65 1.11zM406.57 44.57l.52-7.49h1.66l.68 3.2.17 1.15.22-1.15.75-3.2h1.57l.52 7.49h-1.62l-.15-3V40l-.26 1.56-.66 3h-1l-.61-3-.2-1.56v1.56l-.17 3zm9.88-1.31h-1.62l-.27 1.31h-1.44l1.74-7.49h1.8l1.73 7.49h-1.68zm-1.38-1.19h1.14l-.4-2-.15-1-.17 1zm3.93-4.98h2.3a2 2 0 0 1 2.1 2.29 2.17 2.17 0 0 1-1 1.92l1.16 3.28h-1.73l-1-2.86h-.19v2.86H419zm1.69 1.26v2.22h.31c.59 0 .77-.44.77-1.14s-.19-1.08-.75-1.08zm7.67 6.03a2.4 2.4 0 0 1-1.3.31c-1.9 0-3.08-1.24-3.08-3.78S425.29 37 427 37a2.61 2.61 0 0 1 1.35.28l-.35 1.25a2.15 2.15 0 0 0-.85-.17c-.94 0-1.43.92-1.43 2.54s.51 2.42 1.46 2.42a1.85 1.85 0 0 0 .82-.19zm.7-7.29h1.7v3h1.41v-3h1.7v7.49h-1.7v-3.2h-1.41v3.2h-1.7zm7 7.48v-1l1.24-2.24a4.5 4.5 0 0 0 .69-2.15.74.74 0 0 0-.79-.83 1.78 1.78 0 0 0-.86.24l-.34-1.27a2.78 2.78 0 0 1 1.49-.35 1.93 1.93 0 0 1 2.19 2.13 6.73 6.73 0 0 1-1.23 3.13l-.61 1h1.81v1.31zm4.17 0v-1l1.24-2.24a4.5 4.5 0 0 0 .69-2.15.74.74 0 0 0-.79-.83 1.78 1.78 0 0 0-.86.24l-.31-1.28a2.78 2.78 0 0 1 1.49-.35 1.93 1.93 0 0 1 2.19 2.13 6.73 6.73 0 0 1-1.23 3.13l-.61 1h1.81v1.31zm-115.8 20.66l.52-7.49h1.66l.68 3.2.17 1.15.22-1.15.75-3.2H330l.52 7.49h-1.62l-.15-3v-1.54l-.26 1.56-.66 3h-1l-.61-3-.22-1.56v1.56l-.17 3zm9.88-1.31h-1.62l-.27 1.31H331l1.74-7.49h1.8l1.73 7.49h-1.68zm-1.38-1.19h1.14l-.4-2-.15-1-.17 1zm3.92-4.99h2.3a2 2 0 0 1 2.1 2.29 2.17 2.17 0 0 1-1 1.92l1.16 3.28h-1.73l-1-2.86h-.19v2.86h-1.69zm1.69 1.26v2.22h.32c.59 0 .77-.44.77-1.14s-.19-1.08-.75-1.08zm7.68 6a2.4 2.4 0 0 1-1.3.31c-1.9 0-3.08-1.24-3.08-3.78s1.31-3.94 3-3.94a2.61 2.61 0 0 1 1.35.28l-.38 1.27A2.15 2.15 0 0 0 345 59c-.94 0-1.43.92-1.43 2.54S344.08 64 345 64a1.85 1.85 0 0 0 .82-.19zm.7-7.26h1.7v3H350v-3h1.7v7.49H350V62h-1.41v3.2h-1.7zm7 7.49v-1l1.24-2.23a4.5 4.5 0 0 0 .69-2.15.74.74 0 0 0-.79-.83 1.78 1.78 0 0 0-.86.24l-.31-1.26a2.78 2.78 0 0 1 1.49-.35 1.93 1.93 0 0 1 2.19 2.13 6.73 6.73 0 0 1-1.23 3.13l-.61 1h1.81v1.31zm4.15-1.93a2.11 2.11 0 0 1 1-1.79 2.39 2.39 0 0 1-.85-1.84 1.92 1.92 0 0 1 2-2 1.83 1.83 0 0 1 2 1.93 2.12 2.12 0 0 1-.85 1.74 2.24 2.24 0 0 1 1 1.9 2 2 0 0 1-2.11 2.21 2 2 0 0 1-2.19-2.15zm2.63 0a1.58 1.58 0 0 0-.7-1.23 1.74 1.74 0 0 0-.5 1.21c0 .53.23.88.62.88s.58-.35.58-.87zm-.38-2.61a1.52 1.52 0 0 0 .49-1.1c0-.41-.18-.75-.57-.75s-.57.35-.57.74a1.42 1.42 0 0 0 .65 1.1zm-87.9 49.17l.52-7.49h1.66l.68 3.2.17 1.15.22-1.15.75-3.2H278l.52 7.49h-1.62l-.15-3v-1.56l-.26 1.56-.66 3h-1l-.61-3-.22-1.56v1.56l-.17 3zm9.87-1.31h-1.62l-.27 1.31H279l1.74-7.49h1.8l1.73 7.49h-1.68zm-1.38-1.19h1.14l-.4-2-.15-1-.17 1zm3.92-4.98h2.3a2 2 0 0 1 2.1 2.29 2.16 2.16 0 0 1-1 1.92l1.16 3.28h-1.69l-1-2.86h-.19v2.86h-1.69zm1.69 1.26v2.22h.32c.59 0 .77-.44.77-1.14s-.19-1.08-.75-1.08zm7.69 6.03a2.39 2.39 0 0 1-1.3.31c-1.9 0-3.08-1.24-3.08-3.78s1.31-3.94 3-3.94a2.61 2.61 0 0 1 1.35.28l-.38 1.27a2.15 2.15 0 0 0-.85-.17c-.94 0-1.43.92-1.43 2.54s.51 2.42 1.46 2.42a1.85 1.85 0 0 0 .82-.19zm.7-7.29h1.7v3H298v-3h1.7v7.49H298v-3.2h-1.41v3.2h-1.7zm6.81 7.28l.37-1.29a2 2 0 0 0 1 .25.86.86 0 0 0 .9-1c0-.56-.2-1-.88-1h-.33v-1.26h.33a.82.82 0 0 0 .87-.92c0-.57-.28-.87-.91-.87a1.77 1.77 0 0 0-.85.24l-.35-1.24a2.81 2.81 0 0 1 1.49-.37 1.92 1.92 0 0 1 2.1 2.11 1.61 1.61 0 0 1-1 1.61 1.76 1.76 0 0 1 1.14 1.82 2.12 2.12 0 0 1-2.27 2.24 2.94 2.94 0 0 1-1.61-.32zm6.77.34c-1.44 0-2.39-1-2.39-3.87s1-3.95 2.39-3.95 2.39 1.17 2.39 3.95-.95 3.87-2.39 3.87zm0-1.38c.47 0 .69-.51.69-2.51s-.22-2.55-.69-2.55-.69.63-.69 2.55.2 2.54.69 2.54zm-98.81 272.1h-1.62l-.27 1.31h-1.44l1.74-7.49h1.8l1.73 7.49h-1.68zm-1.38-1.19h1.14l-.4-2-.15-1-.17 1zm3.92-4.98h2.14a2.42 2.42 0 0 1 0 4.84h-.45V382h-1.69zm1.69 1.26v2.39h.31c.57 0 .78-.41.78-1.2s-.21-1.19-.78-1.19zm3.4-1.26h2.3a2 2 0 0 1 2.1 2.29 2.16 2.16 0 0 1-1 1.92l1.19 3.24h-1.73l-1-2.86H219V382h-1.69zm1.69 1.26V378h.32c.59 0 .77-.44.77-1.14s-.19-1.08-.75-1.08zm3.57-1.26h1.71V382h-1.71zm2.73 0h1.7v6.2h1.71V382h-3.41zm5.17 7.28l.37-1.29a2 2 0 0 0 1 .25.86.86 0 0 0 .9-1c0-.56-.2-1-.88-1h-.33v-1.26h.33a.82.82 0 0 0 .87-.92c0-.57-.28-.87-.91-.87a1.77 1.77 0 0 0-.85.24l-.35-1.24a2.81 2.81 0 0 1 1.49-.37 1.92 1.92 0 0 1 2.1 2.11 1.61 1.61 0 0 1-1 1.61 1.76 1.76 0 0 1 1.14 1.82 2.12 2.12 0 0 1-2.35 2.29 2.94 2.94 0 0 1-1.53-.37z" fill="#231f20"/><path d="M-58.8 38.48c-.4.31-1.09.88-1.09.88a2 2 0 0 1-1.06.56 5.2 5.2 0 0 1-2.33-1V30h4.48v8.43zm-15.14-11.74v-8.12l1.55-.92 3.07 2.22v6.81zm8.57 11.6v-18.8l1.62-1v20.29a9.66 9.66 0 0 0-1.62-.49zm2.08-11.6v-8.36l1-.64A6 6 0 0 0-58.8 20v6.74zm11.11 13a6.45 6.45 0 0 1-2.72-1.31V20.11a4.06 4.06 0 0 0 2-3l-.07-.1a6.63 6.63 0 0 1-2.26.35A4.63 4.63 0 0 1-59 15.42l-5.5 3.14c-1.44-1-3.2-2.24-4.59-3.25l-7.13 4.13c-2.23 1.3-3.78 2.82-3.78 5.32v2h-.53a2.85 2.85 0 0 0-3.14 2.75 2.5 2.5 0 0 0 .88 2h.1A1.84 1.84 0 0 1-80.64 30h.6v4.34a3.61 3.61 0 0 1-1.31 3.1v.07c2.79-.27 5.22-1.68 5.22-4.52V19.86c.56-.32.88-.54 1.69-1v18.63c0 1.67-.65 2.22-2.29 2.22-1.85 0-3.74-.85-5.47-.85-2.68 0-4.13 1.68-4.27 4.41l.21.07a3.43 3.43 0 0 1 3.1-1.27c1.7 0 3.35.88 5.11.88 2.51 0 4.06-1.45 4.06-3.84V30h4.66v8.5a7 7 0 0 0-3.39 3.74l.07.18a6 6 0 0 1 3.53-1.13A8.42 8.42 0 0 1-64 42.92c.88-.74 3.45-2.61 4.48-3.39 1.37 1.06 3 2.32 4.13 3.35 1.26-1.24 3.25-3.1 3.25-3.1v-.07zm15.63-.39l-2.4 1.41a4.84 4.84 0 0 1-2-4.34c0-1.83.6-3.21 2.36-3.21a6.81 6.81 0 0 1 2 .28v5.85zm-2.19-6.67a8.77 8.77 0 0 0-1.87.28V26.7l.17-.14c1.57 1.05 2.53 1.71 3.88 2.68v3.7a8.13 8.13 0 0 0-2.19-.28zm7.58 7.51a3.86 3.86 0 0 1-1.84-.94V27.72c-2-1.36-3.26-2.15-4.9-3.24a40.83 40.83 0 0 1-5.4 3.14v3.84A14.11 14.11 0 0 1-40.78 33c-2.48.91-3.74 2.59-3.74 4.58a5.9 5.9 0 0 0 3.1 5.32c2.09-1.32 2.9-1.9 4.44-2.79 1.53 1.14 2.44 1.83 3.63 2.75l2.22-2.61v-.07zm65.7-8.71l-3.07 1.9v-6.54l.28-.18a149.2 149.2 0 0 0 2.79 4.8zm-.32-7c-1.49 1.07-4.49 3.07-6.31 4.16v11.21c1.37.9 3 2 4.34 3 1.31-1.46 2.65-2.77 4-4.05l-.25-.25c-.84.84-1.21 1.27-1.69 1.27s-1.13-.4-2.79-1.41v-4.55L37.77 30c-1.39-2.09-2.55-3.87-3.53-5.5zm22.9 14.85l-2.4 1.41a4.84 4.84 0 0 1-2-4.34c0-1.83.6-3.21 2.36-3.21a6.83 6.83 0 0 1 2 .28v5.85zm-2.19-6.67a8.79 8.79 0 0 0-1.87.28V26.7l.21-.14c1.57 1.05 2.5 1.71 3.85 2.68v3.7a8.15 8.15 0 0 0-2.19-.28zm7.59 7.51a3.86 3.86 0 0 1-1.84-.92V27.72c-2-1.36-3.26-2.15-4.9-3.24a40.64 40.64 0 0 1-5.4 3.14v3.84A14.11 14.11 0 0 1 52.9 33c-2.48.91-3.74 2.59-3.74 4.58a5.9 5.9 0 0 0 3.1 5.32c2.09-1.32 2.91-1.9 4.44-2.79 1.53 1.14 2.44 1.83 3.63 2.75l2.22-2.61v-.07zm16.82-.53l-.63.49a36.27 36.27 0 0 1-3.7-2.4V26.1c.6-.36 1.18-.66 2-1.16l2.36 2.29v12.41zM82.92 26c-4.06-4.14-7.57-7.73-9.13-9.35-.82.72-1.84 1.51-3.07 2.4v.07a5.29 5.29 0 0 1 1.94 1.41l4.06 4.09c-2 1.17-3.73 2.11-5.29 3v12c1.44 1 3.28 2.21 4.76 3.35a32.94 32.94 0 0 1 6.7-5V26zM-75 16.16l-.21-.1a3.14 3.14 0 0 1-1.83.63c-1.11 0-2.36-.78-3.63-.78-2 0-3.83 1.4-4.13 4.34l.18.11a2.78 2.78 0 0 1 2.72-1.55c1 0 2.51.74 3.24.74 1.54 0 2.74-1.26 3.67-3.39zM-45 40v-.07a6 6 0 0 1-2.09-.93V26.45c-1-.68-1.76-1.26-2.68-2l-2.36 2.64v.07a3.5 3.5 0 0 1 1.45.85v12.51c1 .68 2.24 1.6 3.21 2.36C-45.9 41-45 40-45 40zm-2.08-20.28c-.8-.62-1.63-1.3-2.4-2-.73.9-1.4 1.61-2 2.29.91.7 1.81 1.33 2.47 1.9.8-.95 1.4-1.62 2-2.22zM-7.86 40v-.07A5.05 5.05 0 0 1-10 39V27.12c-.94-.61-3.21-2-4.23-2.68-1.16 1-2.29 1.94-3.49 2.89-1.27-.92-2.82-2-4-2.82-1.38 1.1-2.56 2-3.6 2.82-1.3-1-2.52-2-3.63-2.86-.73.88-1.66 1.84-2.5 2.68v.07c.6.06 1 .28 2.15 1.31v12.7c.54.39 1.37 1.05 2.12 1.66.73-.78 1.6-1.61 2.43-2.4-.29-.15-.66-.38-1-.6V28.22l1.77-1.41 2.5 1.73v12.7s1.23.95 2.12 1.66c.58-.58 1.82-1.75 2.47-2.36l-1-.64V28.08l1.44-1.16 2.82 1.73v11.87c1.14.78 2.14 1.52 3.21 2.36C-8.56 40.71-7.86 40-7.86 40zm7.23 0v-.07A6 6 0 0 1-2.75 39V26.45c-1-.68-1.76-1.26-2.68-2l-2.36 2.64v.07a3.49 3.49 0 0 1 1.48.84v12.52c1 .68 2.24 1.6 3.21 2.36C-1.56 41-.63 40-.63 40zm-2.08-20.28c-.8-.62-1.63-1.3-2.4-2-.73.9-1.4 1.61-2 2.29.91.7 1.8 1.33 2.47 1.9.8-.95 1.39-1.62 2-2.22zm14.87-.07l-.16-.07c-2.49.74-4.34 2.34-4.34 5.36v1.8h-.8a2.82 2.82 0 0 0-3.1 2.75 2.49 2.49 0 0 0 .85 2h.11c.15-.78.67-1.48 2.08-1.48h.92v5a2.74 2.74 0 0 1-.81 2l.18.11a6 6 0 0 0 4.55-5.57v-8.09c0-2.19.16-3.14.53-3.81zm14.57-3.17l-.07-.14a6.77 6.77 0 0 1-2.61.49 5.43 5.43 0 0 1-3.64-1.38c-.82.91-1.85 2-2.72 2.86a5.47 5.47 0 0 0 2.72 1.38v7.05h-6.56V15.63h-.46V39a10 10 0 0 0-4.23-1 6.36 6.36 0 0 0-6.42 4.27l.07.18a8.66 8.66 0 0 1 4.55-1.16 8.18 8.18 0 0 1 5.12 1.52c1.07-1.45 2.57-3.16 3.42-4.2l-.28-.25c-.34.49-.81 1-1.16 1a1.34 1.34 0 0 1-.6-.18V30h6.56v8.5a5.11 5.11 0 0 0-4.13 4.06v.14a6.88 6.88 0 0 1 4-1.23 5.22 5.22 0 0 1 3.56 1.37l2.82-3a6.46 6.46 0 0 0-2.33-1V19.51a4.67 4.67 0 0 0 2.36-3zm-14.39-.21l-.07-.14a3 3 0 0 1-1.94.67C9.21 16.79 8 16 6.69 16c-2 0-3.79 1.37-4.09 4.3l.14.14a2.79 2.79 0 0 1 2.72-1.55c1 0 2.51.74 3.25.74 1.54 0 2.7-1.26 3.63-3.39zm37.53 10v-.11a5.23 5.23 0 0 1-3.74-1.69c-.94 1-1.67 1.68-2.72 2.61-1.25-.91-2.13-1.66-3.32-2.65l-2.4 2.68v.07a5.37 5.37 0 0 1 2 1.3v11.37c1.49 1 2.92 2 4.38 3 1-1.1 2.17-2.33 3.42-3.56l-.25-.25c-.49.49-.81.71-1.23.71s-1.12-.34-2.75-1.27V27.72l.32-.32a3.67 3.67 0 0 0 3 1.41c1.45 0 2.57-1 3.28-2.54zM70.26 40c-.73.73-1.72 1.82-2.58 2.86-1.26-1-2.49-1.82-3.21-2.36v-19a1.54 1.54 0 0 0-.88-1.5v-.11L68 16.68l.07.07V39a5 5 0 0 0 2.19 1v.07z" fill="#fff"/></g><path d="M494.28 45.48l-.95.91V45l1.32-1.33h1.21v7.17h-1.58zm4.04 5.34v-7.11h1.61v3.11l1.37-3.11h1.52l-1.43 3.24 1.61 3.87h-1.69l-1.36-3.24v3.24zm6.21-2.73L503 43.71h1.63l.5 1.61.27 1.16.29-1.16.47-1.61h1.4l-1.45 4.35v2.76h-1.61zm5.72 1.52c.41 0 .61-.23.61-.83v-5.07h1.47v5a2 2 0 0 1-2.1 2.2 2 2 0 0 1-2.22-2.2v-5h1.61v5.07c.01.63.27.83.63.83zm-15.97 14.86l-.95.91V64l1.32-1.33h1.21v7.17h-1.58zm2.49 2.6a5.41 5.41 0 0 1 2-4.38h1.81v.09a5.42 5.42 0 0 0-2.07 2.83 1.21 1.21 0 0 1 .95-.47c.84 0 1.55.71 1.55 2.27s-.82 2.54-2.1 2.54-2.14-.95-2.14-2.88zm2.71.32c0-.93-.26-1.15-.59-1.15a.74.74 0 0 0-.56.31v.58c0 1.31.23 1.63.59 1.63s.55-.38.55-1.36zm4.52-3.47h-1.2V62.7h4.08v1.22h-1.22v5.88H504zm5.46 5.41a1 1 0 0 1-1 .59c-.88 0-1.26-.79-1.26-1.63 0-1.07.59-1.66 1.4-1.66a1.09 1.09 0 0 1 .83.31v-.47a.68.68 0 0 0-.76-.73 1.81 1.81 0 0 0-.95.26l-.3-1.1a3 3 0 0 1 1.56-.37 1.7 1.7 0 0 1 1.95 1.9v3.38h-1.49zm0-.56v-1.12a.59.59 0 0 0-.36-.12c-.26 0-.44.21-.44.68s.15.71.44.71a.53.53 0 0 0 .36-.15zm3.73.56v2.29h-1.49v-6.93h1.49v.59a1.38 1.38 0 0 1 1.21-.75c.93 0 1.59.84 1.59 2.67s-.77 2.73-1.71 2.73a1.18 1.18 0 0 1-1.09-.6zm1.29-2.14c0-1.06-.28-1.44-.69-1.44a.71.71 0 0 0-.6.38v2.27a.67.67 0 0 0 .59.3c.4.01.7-.45.7-1.5zm4.52-3.27h-1.23V62.7h4.08v1.22h-1.22v5.88H519zm5.39 5.41a1 1 0 0 1-1 .59c-.88 0-1.26-.79-1.26-1.63 0-1.07.59-1.66 1.4-1.66a1.09 1.09 0 0 1 .83.31v-.47a.68.68 0 0 0-.76-.73 1.81 1.81 0 0 0-.95.26l-.3-1.1a3 3 0 0 1 1.56-.37 1.7 1.7 0 0 1 1.95 1.9v3.38h-1.49zm0-.56v-1.12a.59.59 0 0 0-.36-.12c-.26 0-.44.21-.44.68s.15.71.44.71a.53.53 0 0 0 .36-.15zm3.73.56v2.29h-1.49v-6.93h1.49v.59a1.38 1.38 0 0 1 1.21-.75c.93 0 1.59.84 1.59 2.67s-.77 2.73-1.71 2.73a1.18 1.18 0 0 1-1.09-.6zm1.29-2.14c0-1.06-.28-1.44-.69-1.44a.71.71 0 0 0-.6.38v2.27a.67.67 0 0 0 .59.3c.4.01.7-.45.7-1.5zm-36.09 23.27a2 2 0 0 1 .93-1.7 2.27 2.27 0 0 1-.81-1.75 1.82 1.82 0 0 1 1.87-1.95 1.74 1.74 0 0 1 1.88 1.83 2 2 0 0 1-.81 1.65 2.13 2.13 0 0 1 .93 1.8 1.91 1.91 0 0 1-2 2.1 1.85 1.85 0 0 1-1.99-1.98zm2.5 0a1.5 1.5 0 0 0-.67-1.17 1.66 1.66 0 0 0-.47 1.15c0 .5.22.84.59.84s.55-.34.55-.83zm-.36-2.46a1.45 1.45 0 0 0 .46-1c0-.39-.17-.71-.54-.71s-.54.33-.54.7a1.35 1.35 0 0 0 .62 1.01zm7.84 4.11a2.27 2.27 0 0 1-1.23.29c-1.8 0-2.92-1.18-2.92-3.59s1.24-3.74 2.88-3.74a2.48 2.48 0 0 1 1.28.27l-.36 1.21a2 2 0 0 0-.81-.16c-.89 0-1.36.87-1.36 2.41s.48 2.3 1.39 2.3a1.77 1.77 0 0 0 .78-.18zm2.57-.29a1 1 0 0 1-1 .59c-.88 0-1.26-.79-1.26-1.63 0-1.07.59-1.66 1.4-1.66a1.09 1.09 0 0 1 .83.31V89a.68.68 0 0 0-.76-.73 1.81 1.81 0 0 0-.95.26l-.3-1.1a3 3 0 0 1 1.56-.37 1.7 1.7 0 0 1 1.95 1.9v3.38h-1.49zm0-.56v-1.12a.59.59 0 0 0-.36-.12c-.26 0-.44.21-.44.68s.15.71.44.71a.53.53 0 0 0 .36-.15zm2.24 1.03v-5.11h1.5v.91a1.52 1.52 0 0 1 1.25-1v1.63c-.29 0-1-.09-1.25.36v3.2zm5.89-.6a1.25 1.25 0 0 1-1.13.72c-1 0-1.67-.84-1.67-2.67S512 87 512.94 87a1.12 1.12 0 0 1 1.07.64v-2.75h1.49v7.4H514zm0-.88v-2.27a.67.67 0 0 0-.59-.3c-.41 0-.7.46-.7 1.51s.27 1.44.69 1.44a.7.7 0 0 0 .6-.38zm4.27 1.62c-1.27 0-2.18-.93-2.18-2.67S517 87 518.27 87s2.18 1 2.18 2.75-.91 2.68-2.18 2.68zm0-1.2c.39 0 .67-.41.67-1.49s-.29-1.54-.67-1.54-.67.46-.67 1.54.28 1.5.67 1.5zm2.73 1.06v-5.11h1.49v.63a1.47 1.47 0 0 1 1.27-.79c.88 0 1.26.59 1.26 1.6v3.67h-1.49v-3.51c0-.34-.15-.5-.45-.5a.66.66 0 0 0-.6.42v3.6zm6.42-7.39h1.19l-2.06 8.53h-1.19zm2.71 1.51h-1.23v-1.23h4.1v1.22h-1.22v5.88h-1.62zm4.16-1.3a.82.82 0 1 1 0 1.64.81.81 0 0 1-.83-.83.8.8 0 0 1 .83-.81zm-.75 2.07H535v5.12h-1.49zm2.26 5.11v-5.11h1.5v.91a1.52 1.52 0 0 1 1.25-1v1.63c-.29 0-1-.09-1.25.36v3.2zm5.31-.47a1 1 0 0 1-1 .59c-.88 0-1.26-.79-1.26-1.63 0-1.07.59-1.66 1.4-1.66a1.09 1.09 0 0 1 .83.31V89a.68.68 0 0 0-.76-.73 1.81 1.81 0 0 0-.95.26l-.3-1.1a3 3 0 0 1 1.56-.37 1.7 1.7 0 0 1 1.95 1.9v3.38h-1.49zm0-.56v-1.12a.59.59 0 0 0-.36-.12c-.26 0-.44.21-.44.68s.15.71.44.71a.53.53 0 0 0 .36-.15zm2.23 1.03v-5.11h1.49v.63a1.47 1.47 0 0 1 1.27-.81c.88 0 1.26.59 1.26 1.6v3.67h-1.49v-3.49c0-.34-.15-.5-.45-.5a.66.66 0 0 0-.6.42v3.6zm6.75.14c-1.27 0-2.18-.93-2.18-2.67s.91-2.75 2.18-2.75 2.18 1 2.18 2.75-.91 2.67-2.18 2.67zm0-1.2c.39 0 .67-.41.67-1.49s-.29-1.54-.67-1.54-.67.46-.67 1.54.28 1.5.67 1.5zm-56.3 19.96a5.65 5.65 0 0 0 2.06-2.81 1.23 1.23 0 0 1-.94.46c-.84 0-1.55-.71-1.55-2.27s.82-2.54 2.1-2.54 2.13.93 2.13 2.84a5.49 5.49 0 0 1-1.94 4.41h-1.86zm2.23-3.78v-.62c0-1.27-.23-1.59-.59-1.59s-.58.39-.58 1.38.26 1.15.59 1.15a.71.71 0 0 0 .56-.31zm3.7-3.24h2c1.27 0 2.05.59 2.05 1.92a1.48 1.48 0 0 1-.9 1.47 1.64 1.64 0 0 1 1.14 1.66 2 2 0 0 1-2.28 2.06h-2zm1.59 1.1v1.81h.28c.47 0 .68-.29.68-.94s-.21-.86-.68-.87zm0 2.87v2h.32c.53 0 .79-.29.79-1.05s-.26-1-.78-1zm5.31 3.28c-1.27 0-2.18-.93-2.18-2.67s.91-2.75 2.18-2.75 2.18 1 2.18 2.75-.91 2.67-2.18 2.67zm0-1.2c.39 0 .67-.41.67-1.49s-.29-1.54-.67-1.54-.67.46-.67 1.54.28 1.5.67 1.5zm2.76 1.06v-5.12h1.49v.6A1.35 1.35 0 0 1 512 106a1 1 0 0 1 1.1.9 1.46 1.46 0 0 1 1.28-.9c.84 0 1.21.59 1.21 1.6v3.67h-1.49v-3.51c0-.34-.09-.5-.38-.5a.56.56 0 0 0-.51.38v3.64h-1.49v-3.51c0-.34-.09-.5-.38-.5a.56.56 0 0 0-.51.38v3.64zm8.49-.56v.56h-1.49v-7.4h1.49v2.84A1.38 1.38 0 0 1 519 106c1 0 1.62.84 1.62 2.67s-.77 2.73-1.71 2.73a1.18 1.18 0 0 1-1.04-.68zm1.29-2c0-1.06-.28-1.44-.69-1.44a.71.71 0 0 0-.6.38v2.27a.67.67 0 0 0 .59.3c.41-.05.7-.51.7-1.56zm4.09 2.09a1 1 0 0 1-1 .59c-.88 0-1.26-.79-1.26-1.63 0-1.07.59-1.66 1.4-1.66a1.09 1.09 0 0 1 .83.31v-.47a.68.68 0 0 0-.76-.73 1.81 1.81 0 0 0-.95.26l-.3-1.1a3 3 0 0 1 1.56-.37 1.7 1.7 0 0 1 1.95 1.9v3.38h-1.49zm0-.56v-1.12a.59.59 0 0 0-.36-.12c-.26 0-.44.21-.44.68s.15.71.44.71a.53.53 0 0 0 .36-.15zm3.38 1.13l-1.47-5.22h1.51l.39 1.61.29 1.58.31-1.58.4-1.61h1.34l-2 6.93h-1.31zm4.69-7.21h1.93c1.76 0 2.83 1.2 2.83 3.59s-1.07 3.52-2.83 3.52h-1.93zm1.61 1.28V110h.21c.88 0 1.29-.62 1.29-2.26s-.41-2.29-1.29-2.29zm5.81 5.36a1 1 0 0 1-1 .59c-.88 0-1.26-.79-1.26-1.63 0-1.07.59-1.66 1.4-1.66a1.09 1.09 0 0 1 .83.31v-.47a.68.68 0 0 0-.76-.73 1.81 1.81 0 0 0-.95.26l-.3-1.1a3 3 0 0 1 1.56-.37 1.7 1.7 0 0 1 1.95 1.9v3.38h-1.49zm0-.56v-1.12a.59.59 0 0 0-.36-.12c-.26 0-.44.21-.44.68s.15.71.44.71a.53.53 0 0 0 .36-.15zm2.26 1.03v-5.12h1.5v.91a1.52 1.52 0 0 1 1.25-1v1.63c-.29 0-1-.09-1.25.36v3.2zm4.77-.56v.56h-1.49v-7.4h1.49v2.84a1.38 1.38 0 0 1 1.18-.71c1 0 1.62.84 1.62 2.67s-.77 2.73-1.71 2.73a1.18 1.18 0 0 1-1.09-.69zm1.29-2c0-1.06-.28-1.44-.69-1.44a.71.71 0 0 0-.6.38v2.27a.67.67 0 0 0 .59.3c.41-.05.7-.51.7-1.56zm4.09 2.09a1 1 0 0 1-1 .59c-.88 0-1.26-.79-1.26-1.63 0-1.07.59-1.66 1.4-1.66a1.09 1.09 0 0 1 .83.31v-.47a.68.68 0 0 0-.76-.73 1.81 1.81 0 0 0-.95.26l-.3-1.1a3 3 0 0 1 1.56-.37 1.7 1.7 0 0 1 1.95 1.9v3.38h-1.49zm0-.56v-1.12a.59.59 0 0 0-.36-.12c-.26 0-.44.21-.44.68s.15.71.44.71a.53.53 0 0 0 .36-.15zm2.24 1.03v-5.12h1.5v.91a1.52 1.52 0 0 1 1.25-1v1.63c-.29 0-1-.09-1.25.36v3.2zm-60.18 22.32l.38-1.21a1.51 1.51 0 0 0 .77.18c.51 0 .9-.38.9-1.08s-.32-1.1-.95-1.1a1.77 1.77 0 0 0-.65.12l.24-3.83h2.81v1.27H495l-.08 1.33a1.93 1.93 0 0 1 1.87 2.19 2.21 2.21 0 0 1-2.3 2.48 2.51 2.51 0 0 1-1.28-.35zm5.79-6.94h1.93c1.76 0 2.83 1.2 2.83 3.59s-1.07 3.52-2.83 3.52H499zm1.61 1.28v4.55h.21c.88 0 1.29-.62 1.29-2.26s-.41-2.29-1.29-2.29zm6.22 5.28a1.39 1.39 0 0 1-1.19.69c-.88 0-1.3-.58-1.3-1.59v-3.67h1.49v3.51c0 .34.15.5.45.5a.64.64 0 0 0 .55-.33v-3.68h1.49v5.12h-1.49zm4.53.64c-1.44 0-2.46-.79-2.46-2.71 0-1.7.9-2.66 2-2.66s1.85.6 1.85 2.27v.84h-2.39c.09.74.41 1.05 1.08 1.05a2.06 2.06 0 0 0 1-.24l.21 1.11a2.39 2.39 0 0 1-1.29.34zm-1-3.26h1c0-.78-.16-1-.48-1s-.45.4-.49 1.01zm4.46-3.94h2c1.27 0 2.05.59 2.05 1.92A1.49 1.49 0 0 1 518 130a1.64 1.64 0 0 1 1.14 1.66 2 2 0 0 1-2.28 2.06h-2zm1.59 1.1v1.81h.28c.47 0 .68-.29.68-.94s-.21-.86-.68-.87zm0 2.87v2h.32c.53 0 .79-.29.79-1.05s-.26-1-.78-1zm5.32 2.66a1 1 0 0 1-1 .59c-.88 0-1.26-.79-1.26-1.63 0-1.07.59-1.66 1.4-1.66a1.09 1.09 0 0 1 .83.31v-.47a.68.68 0 0 0-.76-.73 1.81 1.81 0 0 0-.95.26l-.3-1.1a3 3 0 0 1 1.56-.37 1.7 1.7 0 0 1 1.95 1.9v3.38h-1.49zm0-.56v-1.12a.59.59 0 0 0-.36-.12c-.26 0-.44.21-.44.68s.15.71.44.71a.53.53 0 0 0 .36-.15zm5.38.86a1.87 1.87 0 0 1-1 .27c-1.41 0-2.31-.86-2.31-2.63s1-2.7 2.33-2.7a2.21 2.21 0 0 1 1 .22l-.35 1.19a1.18 1.18 0 0 0-.6-.15c-.55 0-.9.51-.9 1.42s.29 1.4.92 1.4a1.2 1.2 0 0 0 .6-.15zm1.27-7.01a.82.82 0 1 1 0 1.64.81.81 0 0 1-.83-.83.8.8 0 0 1 .83-.81zm-.75 2.07h1.49v5.12h-1.49zm-33.35 18.77l-.95.91v-1.41l1.32-1.33h1.21v7.17h-1.58zm2.24 5.33v-.95l1.18-2.13a4.27 4.27 0 0 0 .66-2 .7.7 0 0 0-.75-.79 1.69 1.69 0 0 0-.82.23l-.29-1.21a2.64 2.64 0 0 1 1.41-.33 1.83 1.83 0 0 1 2.08 2 6.39 6.39 0 0 1-1.17 3l-.58 1H500v1.24zm5.93-.19l.35-1.22a1.86 1.86 0 0 0 .91.24.82.82 0 0 0 .85-.91c0-.53-.19-.94-.84-.94h-.31v-1.2h.31a.78.78 0 0 0 .83-.87c0-.54-.27-.83-.86-.83a1.68 1.68 0 0 0-.81.23l-.33-1.18a2.68 2.68 0 0 1 1.41-.35 1.82 1.82 0 0 1 2 2 1.53 1.53 0 0 1-1 1.53 1.67 1.67 0 0 1 1.08 1.73 2 2 0 0 1-2.15 2.13 2.8 2.8 0 0 1-1.44-.36zm3.74 0l.35-1.22a1.86 1.86 0 0 0 .91.24.82.82 0 0 0 .85-.91c0-.53-.19-.94-.84-.94h-.31v-1.2h.31a.78.78 0 0 0 .83-.87c0-.54-.27-.83-.86-.83a1.68 1.68 0 0 0-.81.23l-.33-1.18a2.68 2.68 0 0 1 1.41-.35 1.82 1.82 0 0 1 2 2 1.53 1.53 0 0 1-1 1.53 1.67 1.67 0 0 1 1.08 1.73 2 2 0 0 1-2.15 2.13 2.8 2.8 0 0 1-1.44-.36zm5.34.19v-7.11h1.61v3.11l1.37-3.11H516l-1.43 3.24 1.59 3.87h-1.66l-1.36-3.24v3.24zm5.63-7.18a.82.82 0 1 1 0 1.64.82.82 0 1 1 0-1.64zm-.75 2.07h1.49v5.12h-1.49zm2.24 3.66v-2.55h-.42v-1.11h.42v-1.5h1.5v1.5h.7v1.11h-.7v2.42a.38.38 0 0 0 .43.44.83.83 0 0 0 .28 0v1.18a2.11 2.11 0 0 1-.56.08c-1.06-.05-1.65-.5-1.65-1.57zm5.75 1.28a1.87 1.87 0 0 1-1 .27c-1.41 0-2.31-.86-2.31-2.63s1-2.7 2.33-2.7a2.21 2.21 0 0 1 1 .22l-.35 1.19a1.18 1.18 0 0 0-.6-.15c-.55 0-.9.51-.9 1.42s.29 1.4.92 1.4a1.2 1.2 0 0 0 .6-.15zm.35.17v-7.4h1.49v2.91a1.47 1.47 0 0 1 1.27-.79c.88 0 1.26.59 1.26 1.6v3.67h-1.49v-3.51c0-.34-.15-.5-.45-.5a.66.66 0 0 0-.6.42v3.6zm6.84.1c-1.44 0-2.46-.79-2.46-2.71 0-1.7.9-2.66 2-2.66s1.85.6 1.85 2.27v.84h-2.39c.09.74.41 1.05 1.08 1.05a2.06 2.06 0 0 0 1-.24l.21 1.11a2.39 2.39 0 0 1-1.29.34zm-1-3.26h1c0-.78-.16-1-.48-1s-.45.41-.49 1zm2.82 3.16v-5.12h1.49v.63a1.47 1.47 0 0 1 1.27-.79c.88 0 1.26.59 1.26 1.6v3.67h-1.49v-3.51c0-.34-.15-.5-.45-.5a.66.66 0 0 0-.6.42v3.6zm-36.54 21.02v1.47h-1.44v-1.47h-2.13v-.93l1.61-4.71h2v4.54h.55v1.1zm-1.44-1.1v-3.24l-.27 1.06-.72 2.17zm5.91-3.33a.56.56 0 0 0-.63.55.75.75 0 0 0 .29.57c.39.38.86.69 1.25 1.08a2.16 2.16 0 0 1 .73 1.69 2 2 0 0 1-2.13 2.1 3.6 3.6 0 0 1-1.81-.41l.43-1.27a2.72 2.72 0 0 0 1.23.35c.54 0 .74-.28.74-.61a.77.77 0 0 0-.31-.61 14.9 14.9 0 0 1-1.23-1.07 2.2 2.2 0 0 1-.71-1.68 1.92 1.92 0 0 1 2.07-2 3.34 3.34 0 0 1 1.57.35l-.37 1.24a2.53 2.53 0 0 0-1.12-.28zm4.66 5.36a1.39 1.39 0 0 1-1.19.69c-.88 0-1.3-.58-1.3-1.59v-3.67H505v3.51c0 .34.15.5.45.5a.64.64 0 0 0 .55-.33v-3.68h1.49v5.12H506zm4 2.45c-1.24 0-2-.42-2-1.16a1 1 0 0 1 .66-.9 1 1 0 0 1-.38-.79 1.32 1.32 0 0 1 .67-1.18 1.54 1.54 0 0 1-.72-1.4A1.69 1.69 0 0 1 510 170a1.9 1.9 0 0 1 1.2.41 1.47 1.47 0 0 1 1.1-.37v1.06a2.07 2.07 0 0 0-.63.07 1.33 1.33 0 0 1 .11.63 1.65 1.65 0 0 1-1.79 1.65 2.48 2.48 0 0 1-.46 0 .47.47 0 0 0-.14.32c0 .18.13.29.38.29h.89c1 0 1.57.47 1.57 1.44s-.61 1.65-2.23 1.65zm.86-1.47c0-.2-.14-.37-.44-.37h-1a.5.5 0 0 0-.15.37c0 .32.22.52.78.52s.82-.2.82-.52zm-.86-3.18c.25 0 .46-.19.46-.78s-.21-.81-.46-.81-.45.21-.45.81.24.78.45.78zm4.83 2.26a1 1 0 0 1-1 .59c-.88 0-1.26-.79-1.26-1.63 0-1.07.59-1.66 1.4-1.66a1.09 1.09 0 0 1 .83.31v-.47a.68.68 0 0 0-.76-.73 1.81 1.81 0 0 0-.95.26l-.3-1.1a3 3 0 0 1 1.56-.37 1.7 1.7 0 0 1 1.95 1.9v3.38h-1.49zm0-.56v-1.12a.59.59 0 0 0-.36-.12c-.26 0-.44.21-.44.68s.15.71.44.71a.53.53 0 0 0 .36-.15zm2.23 1.04v-5.12h1.5v.88a1.52 1.52 0 0 1 1.25-1v1.63c-.29 0-1-.09-1.25.36v3.2zm6.45-.17a1.87 1.87 0 0 1-1 .27c-1.41 0-2.31-.86-2.31-2.63s1-2.7 2.33-2.7a2.21 2.21 0 0 1 1 .22l-.35 1.19a1.18 1.18 0 0 0-.6-.15c-.55 0-.9.51-.9 1.42s.29 1.4.92 1.4a1.2 1.2 0 0 0 .6-.15zm2.54-.31a1 1 0 0 1-1 .59c-.88 0-1.26-.79-1.26-1.63 0-1.07.59-1.66 1.4-1.66a1.09 1.09 0 0 1 .83.31v-.47a.68.68 0 0 0-.76-.73 1.81 1.81 0 0 0-.95.26l-.3-1.1a3 3 0 0 1 1.56-.37 1.7 1.7 0 0 1 1.95 1.9v3.38h-1.49zm0-.56v-1.12a.59.59 0 0 0-.36-.12c-.26 0-.44.21-.44.68s.15.71.44.71a.53.53 0 0 0 .36-.15zm2.24 1.04v-5.12h1.49v.63a1.47 1.47 0 0 1 1.27-.79c.88 0 1.26.59 1.26 1.6v3.67h-1.49v-3.51c0-.34-.15-.5-.45-.5a.66.66 0 0 0-.6.42v3.6zm7.02.09c-1.44 0-2.46-.79-2.46-2.71 0-1.7.9-2.66 2-2.66s1.85.6 1.85 2.27v.84h-2.39c.09.74.41 1.05 1.08 1.05a2.06 2.06 0 0 0 1-.24l.21 1.11a2.39 2.39 0 0 1-1.29.34zm-1-3.26h1c0-.78-.16-1-.48-1s-.45.41-.48 1.01zm-40.03 16.82l-.95.91v-1.41l1.32-1.33h1.21v7.17h-1.58zm2.25 5.11l.35-1.22a1.86 1.86 0 0 0 .91.24.82.82 0 0 0 .85-.91c0-.53-.19-.94-.84-.94h-.31V190h.31a.78.78 0 0 0 .83-.87c0-.54-.27-.83-.86-.83a1.68 1.68 0 0 0-.81.23l-.33-1.18A2.68 2.68 0 0 1 498 187a1.82 1.82 0 0 1 2 2 1.53 1.53 0 0 1-1 1.53 1.67 1.67 0 0 1 1.08 1.73 2 2 0 0 1-2.15 2.13 2.8 2.8 0 0 1-1.4-.39zm5.72-6.88h2a2.3 2.3 0 0 1 0 4.59h-.43v2.52h-1.6zm1.6 1.2v2.27h.29c.54 0 .74-.39.74-1.14s-.2-1.13-.74-1.13zm5.4 6c-1.44 0-2.46-.79-2.46-2.71 0-1.7.9-2.66 2-2.66s1.85.6 1.85 2.27v.84h-2.39c.09.74.41 1.05 1.08 1.05a2.06 2.06 0 0 0 1-.24l.21 1.11a2.39 2.39 0 0 1-1.29.34zm-1-3.26h1c0-.78-.16-1-.48-1s-.46.41-.49 1.01zm3 3.17v-5.12h1.5v.89a1.52 1.52 0 0 1 1.25-1v1.63c-.29 0-1-.09-1.25.36v3.2zm3.31 0v-5.12h1.5v.89a1.52 1.52 0 0 1 1.25-1v1.63c-.29 0-1-.09-1.25.36v3.2zm4.03-7.23a.82.82 0 1 1 0 1.64.82.82 0 1 1 0-1.64zm-.75 2.07h1.49v5.12h-1.49zm5.4 4.99a1.87 1.87 0 0 1-1 .27c-1.41 0-2.31-.86-2.31-2.63s1-2.7 2.33-2.7a2.21 2.21 0 0 1 1 .22l-.35 1.19a1.18 1.18 0 0 0-.6-.15c-.55 0-.9.51-.9 1.42s.29 1.4.92 1.4a1.2 1.2 0 0 0 .6-.15zm2.53.31c-1.27 0-2.18-.93-2.18-2.67s.91-2.75 2.18-2.75 2.18 1 2.18 2.75-.95 2.67-2.18 2.67zm0-1.2c.39 0 .67-.41.67-1.49s-.29-1.54-.67-1.54-.67.46-.67 1.54.28 1.49.67 1.49zm2.76 1.06v-5.12H530v.63a1.47 1.47 0 0 1 1.27-.79c.88 0 1.26.59 1.26 1.6v3.67h-1.49v-3.51c0-.34-.15-.5-.45-.5a.66.66 0 0 0-.6.42v3.6zm7.03.09c-1.44 0-2.46-.79-2.46-2.71 0-1.7.9-2.66 2-2.66s1.85.6 1.85 2.27v.84h-2.39c.09.74.41 1.05 1.08 1.05a2.06 2.06 0 0 0 1-.24l.21 1.11a2.39 2.39 0 0 1-1.29.34zm-1-3.26h1c0-.78-.16-1-.48-1s-.45.41-.49 1.01zm2.83-1.77a3.28 3.28 0 0 0 .58-.84.71.71 0 0 1-.6-.68.74.74 0 0 1 .75-.73.77.77 0 0 1 .75.86 2.6 2.6 0 0 1-1 1.74zm3.7.85c-.33 0-.49.11-.49.3s.12.29.33.41a8.29 8.29 0 0 1 1 .56 1.55 1.55 0 0 1 .63 1.29 1.62 1.62 0 0 1-1.83 1.65 2.55 2.55 0 0 1-1.5-.39l.36-1.07a2 2 0 0 0 1.06.32c.44 0 .53-.19.53-.41s-.1-.25-.27-.35a6.77 6.77 0 0 1-1-.62 1.46 1.46 0 0 1-.54-1.22A1.52 1.52 0 0 1 541 189a2.82 2.82 0 0 1 1.41.32l-.33 1.09a2 2 0 0 0-.99-.27zM493.4 214a5.41 5.41 0 0 1 2-4.38h1.81v.09a5.42 5.42 0 0 0-2.07 2.83 1.21 1.21 0 0 1 .95-.47c.84 0 1.55.71 1.55 2.27s-.82 2.54-2.1 2.54-2.14-.96-2.14-2.88zm2.71.32c0-.93-.26-1.15-.59-1.15a.74.74 0 0 0-.56.31v.58c0 1.31.23 1.63.59 1.63s.55-.4.55-1.39zm3.46 2.39l.49-7.11h1.58l.65 3 .16 1.09.21-1.09.71-3h1.49l.49 7.11h-1.54l-.14-2.83v-1.48l-.25 1.48-.63 2.83h-.92l-.58-2.83-.21-1.48v1.48l-.16 2.83zm8.53-.47a1 1 0 0 1-1 .59c-.88 0-1.26-.79-1.26-1.63 0-1.07.59-1.66 1.4-1.66a1.09 1.09 0 0 1 .83.31v-.47a.68.68 0 0 0-.76-.73 1.81 1.81 0 0 0-.95.26l-.3-1.1a3 3 0 0 1 1.56-.37 1.7 1.7 0 0 1 1.95 1.9v3.38h-1.47zm0-.56v-1.12a.59.59 0 0 0-.36-.12c-.26 0-.44.21-.44.68s.15.71.44.71a.53.53 0 0 0 .36-.15zm5.37.86a1.87 1.87 0 0 1-1 .27c-1.41 0-2.31-.86-2.31-2.63s1-2.7 2.33-2.7a2.21 2.21 0 0 1 1 .22l-.35 1.19a1.18 1.18 0 0 0-.6-.15c-.55 0-.9.51-.9 1.42s.29 1.4.92 1.4a1.2 1.2 0 0 0 .6-.15zm3.69 0a1.87 1.87 0 0 1-1 .27c-1.41 0-2.31-.86-2.31-2.63s1-2.7 2.33-2.7a2.21 2.21 0 0 1 1 .22l-.35 1.19a1.18 1.18 0 0 0-.6-.15c-.55 0-.9.51-.9 1.42s.29 1.4.92 1.4a1.2 1.2 0 0 0 .6-.15zm.54.17v-7.4h1.49v2.91a1.47 1.47 0 0 1 1.27-.79c.88 0 1.26.59 1.26 1.6v3.67h-1.49v-3.5c0-.34-.15-.5-.45-.5a.66.66 0 0 0-.6.42v3.6zm5.5-7.18a.82.82 0 1 1 0 1.64.82.82 0 1 1 0-1.64zm-.75 2.07h1.49v5.12h-1.49zm4.26 4.64a1 1 0 0 1-1 .59c-.88 0-1.26-.79-1.26-1.63 0-1.07.59-1.66 1.4-1.66a1.09 1.09 0 0 1 .83.31v-.47a.68.68 0 0 0-.76-.73 1.81 1.81 0 0 0-.95.26l-.3-1.1a3 3 0 0 1 1.56-.37 1.7 1.7 0 0 1 1.95 1.9v3.38h-1.49zm0-.56v-1.12a.59.59 0 0 0-.36-.12c-.26 0-.44.21-.44.68s.15.71.44.71a.53.53 0 0 0 .36-.15zm2.29-6.37h1.5v7.4H529zm3 .22a.82.82 0 1 1 0 1.64.82.82 0 1 1 0-1.64zm-.75 2.07h1.49v5.12h-1.49zm2.23 5.11v-5.11H535v.63a1.47 1.47 0 0 1 1.27-.79c.88 0 1.26.59 1.26 1.6v3.67H536v-3.51c0-.34-.15-.5-.45-.5a.66.66 0 0 0-.6.42v3.6zm6.77-.47a1 1 0 0 1-1 .59c-.88 0-1.26-.79-1.26-1.63 0-1.07.59-1.66 1.4-1.66a1.09 1.09 0 0 1 .83.31v-.47a.68.68 0 0 0-.76-.73 1.81 1.81 0 0 0-.95.26l-.3-1.1a3 3 0 0 1 1.56-.37 1.7 1.7 0 0 1 1.95 1.9v3.38h-1.49zm0-.56v-1.12a.59.59 0 0 0-.36-.12c-.26 0-.44.21-.44.68s.15.71.44.71a.53.53 0 0 0 .36-.15zm-45.97 14.69l-.95.91v-1.41l1.32-1.33h1.21v7.17h-1.58zm3.37 0l-.95.91v-1.41l1.32-1.33h1.21v7.17h-1.58zm7.96 5.15a2.28 2.28 0 0 1-1.23.29c-1.8 0-2.92-1.18-2.92-3.59s1.24-3.74 2.88-3.74a2.48 2.48 0 0 1 1.28.27l-.36 1.21a2 2 0 0 0-.81-.16c-.89 0-1.36.87-1.36 2.41s.48 2.3 1.39 2.3a1.77 1.77 0 0 0 .78-.18zm2.55.32c-1.27 0-2.18-.93-2.18-2.67s.91-2.75 2.18-2.75 2.18 1 2.18 2.75-.91 2.67-2.18 2.67zm0-1.2c.39 0 .67-.41.67-1.49s-.29-1.54-.67-1.54-.67.46-.67 1.54.28 1.5.67 1.5zm3.91 1.16l-1.47-5.22h1.51l.39 1.61.29 1.58.31-1.58.4-1.61h1.34l-2 6.93h-1.31zm5.24-.57a1 1 0 0 1-1 .59c-.88 0-1.26-.79-1.26-1.63 0-1.07.59-1.66 1.4-1.66a1.09 1.09 0 0 1 .83.31v-.47a.68.68 0 0 0-.76-.73 1.81 1.81 0 0 0-.95.26l-.3-1.1a3 3 0 0 1 1.56-.37 1.7 1.7 0 0 1 1.95 1.9v3.38h-1.49zm0-.56v-1.12a.59.59 0 0 0-.36-.12c-.26 0-.44.21-.44.68s.15.71.44.71a.53.53 0 0 0 .36-.15zm3.53 1.03l.49-7.11h1.58l.65 3 .16 1.09.21-1.09.71-3h1.49l.49 7.11h-1.52l-.14-2.83v-1.48l-.25 1.48-.63 2.83h-.92l-.58-2.83-.21-1.48v1.48l-.16 2.83zm7.26-7.18a.82.82 0 1 1 0 1.64.81.81 0 0 1-.83-.83.8.8 0 0 1 .83-.81zm-.75 2.07h1.49v5.12h-1.49zm4.26 4.64a1 1 0 0 1-1 .59c-.88 0-1.26-.79-1.26-1.63 0-1.07.59-1.66 1.4-1.66a1.09 1.09 0 0 1 .83.31v-.47a.68.68 0 0 0-.76-.73 1.81 1.81 0 0 0-.95.26l-.3-1.1a3 3 0 0 1 1.56-.37 1.7 1.7 0 0 1 1.95 1.9v3.38h-1.49zm0-.56v-1.12a.59.59 0 0 0-.36-.12c-.26 0-.44.21-.44.68s.15.71.44.71a.53.53 0 0 0 .36-.15zm2.23 1.03v-5.12h1.49v.6a1.35 1.35 0 0 1 1.17-.76 1 1 0 0 1 1.1.9 1.46 1.46 0 0 1 1.28-.9c.84 0 1.21.59 1.21 1.6v3.67h-1.49v-3.51c0-.34-.09-.5-.38-.5a.56.56 0 0 0-.51.38v3.64h-1.49v-3.51c0-.34-.09-.5-.38-.5a.56.56 0 0 0-.51.38v3.64zm7.73-7.18a.82.82 0 1 1 0 1.64.81.81 0 0 1-.83-.83.8.8 0 0 1 .83-.81zm-.75 2.07h1.49v5.12h-1.49zM493.16 258l.35-1.22a1.86 1.86 0 0 0 .91.24.82.82 0 0 0 .85-.91c0-.53-.19-.94-.84-.94h-.31V254h.31a.78.78 0 0 0 .83-.87c0-.54-.27-.83-.86-.83a1.68 1.68 0 0 0-.81.23l-.33-1.18a2.68 2.68 0 0 1 1.41-.35 1.82 1.82 0 0 1 2 2 1.53 1.53 0 0 1-1 1.53 1.67 1.67 0 0 1 1.08 1.73 2 2 0 0 1-2.15 2.13 2.8 2.8 0 0 1-1.44-.39zm7.07.19v-7.11h1.64l1.2 3.06.39 1.17-.07-1.34v-2.89h1.31v7.11h-1.43l-1.38-3.46-.43-1.26.08 1.45v3.27zm7.37-.48a1 1 0 0 1-1 .59c-.88 0-1.26-.79-1.26-1.63 0-1.07.59-1.66 1.4-1.66a1.09 1.09 0 0 1 .83.31v-.47a.68.68 0 0 0-.76-.73 1.81 1.81 0 0 0-.95.26l-.3-1.1a3 3 0 0 1 1.56-.37 1.7 1.7 0 0 1 1.95 1.9v3.38h-1.47zm0-.56V256a.59.59 0 0 0-.36-.12c-.26 0-.44.21-.44.68s.15.71.44.71a.53.53 0 0 0 .36-.12zm2.97-6.15a.82.82 0 1 1 0 1.64.82.82 0 1 1 0-1.64zm-.75 2.07h1.49v5.12h-1.49zm3.38 2.38l-1.53-4.38h1.63l.5 1.61.27 1.16.29-1.16.47-1.61h1.4l-1.45 4.35v2.76h-1.58zm5.44 2.26a1 1 0 0 1-1 .59c-.88 0-1.26-.79-1.26-1.63 0-1.07.59-1.66 1.4-1.66a1.09 1.09 0 0 1 .83.31v-.47a.68.68 0 0 0-.76-.73 1.81 1.81 0 0 0-.95.26l-.3-1.1a3 3 0 0 1 1.56-.37 1.7 1.7 0 0 1 1.95 1.9v3.38h-1.49zm0-.56V256a.59.59 0 0 0-.36-.12c-.26 0-.44.21-.44.68s.15.71.44.71a.53.53 0 0 0 .36-.12zm2.36-6.07h2.18a1.91 1.91 0 0 1 2 2.17 2.06 2.06 0 0 1-.91 1.82l1.1 3.11h-1.64l-.94-2.71h-.18v2.71H521zm1.6 1.2v2.11h.3c.56 0 .73-.42.73-1.08s-.18-1-.71-1zm5.26 5.43a1 1 0 0 1-1 .59c-.88 0-1.26-.79-1.26-1.63 0-1.07.59-1.66 1.4-1.66a1.09 1.09 0 0 1 .83.31v-.47a.68.68 0 0 0-.76-.73 1.81 1.81 0 0 0-.95.26l-.3-1.1a3 3 0 0 1 1.56-.37 1.7 1.7 0 0 1 1.95 1.9v3.38h-1.49zm0-.56V256a.59.59 0 0 0-.36-.12c-.26 0-.44.21-.44.68s.15.71.44.71a.53.53 0 0 0 .36-.12zm-33.58 14.69l-.95.91v-1.41l1.32-1.33h1.21v7.17h-1.58zm5.96 3.86v1.47h-1.44v-1.47h-2.13v-.93l1.61-4.71h2v4.54h.55v1.1zm-1.44-1.1v-3.24l-.27 1.06-.72 2.17zm6.94-3.33a.51.51 0 0 0-.54.55.8.8 0 0 0 .25.57c.33.38.74.69 1.08 1.08a2.33 2.33 0 0 1 .63 1.69c0 1.19-.62 2.1-1.83 2.1a2.76 2.76 0 0 1-1.56-.41l.37-1.27a2.1 2.1 0 0 0 1.06.35.57.57 0 0 0 .64-.61.82.82 0 0 0-.27-.61 13.54 13.54 0 0 1-1.06-1.07 2.37 2.37 0 0 1-.61-1.68 1.79 1.79 0 0 1 1.78-2 2.55 2.55 0 0 1 1.35.35l-.32 1.24a1.94 1.94 0 0 0-.97-.28zm2.07 4.45v-2.55h-.36v-1.11h.36v-1.5h1.29v1.5h.6v1.11h-.6v2.42c0 .36.19.44.37.44a.63.63 0 0 0 .24 0v1.18a1.58 1.58 0 0 1-.48.08c-.91-.05-1.42-.5-1.42-1.57zm2.41 1.45v-5.12h1.29v.95c.2-.49.56-1 1.08-1v1.63c-.25 0-.85-.09-1.08.36v3.2zm4.57-.47a.87.87 0 0 1-.83.59c-.76 0-1.09-.79-1.09-1.63 0-1.07.51-1.66 1.2-1.66a.88.88 0 0 1 .71.31v-.47c0-.53-.29-.73-.65-.73a1.4 1.4 0 0 0-.82.26l-.26-1.1a2.28 2.28 0 0 1 1.34-.37c1.18 0 1.67.7 1.67 1.9v3.38h-1.28zm0-.56V275a.47.47 0 0 0-.31-.12c-.22 0-.38.21-.38.68s.13.71.38.71a.43.43 0 0 0 .31-.13zm4.15.44a1.08 1.08 0 0 1-1 .72c-.85 0-1.44-.84-1.44-2.67s.66-2.73 1.49-2.73a1 1 0 0 1 .92.64v-2.76h1.28v7.4h-1.28zm0-.88v-2.27a.56.56 0 0 0-.51-.3c-.35 0-.6.46-.6 1.51s.24 1.44.6 1.44a.6.6 0 0 0 .51-.39zm3.68 1a.87.87 0 0 1-.83.59c-.76 0-1.09-.79-1.09-1.63 0-1.07.51-1.66 1.2-1.66a.88.88 0 0 1 .71.31v-.47c0-.53-.29-.73-.65-.73a1.4 1.4 0 0 0-.82.26l-.26-1.1a2.28 2.28 0 0 1 1.34-.37c1.18 0 1.67.7 1.67 1.9v3.38h-1.28zm0-.56V275a.47.47 0 0 0-.31-.12c-.22 0-.38.21-.38.68s.13.71.38.71a.43.43 0 0 0 .31-.13zm3.72-6.14a.75.75 0 0 1 .72.82.72.72 0 1 1-.72-.82zm-.64 2.07h1.3v5.12h-1.28zm1.94 5.1v-5.12h1.28v.63a1.26 1.26 0 0 1 1.09-.79c.76 0 1.09.59 1.09 1.6v3.67h-1.28v-3.51c0-.34-.13-.5-.38-.5s-.4.16-.51.42v3.6zm5.36-1.45v-2.55h-.36v-1.11h.36v-1.5h1.29v1.5h.6v1.11h-.6v2.42c0 .36.19.44.37.44a.63.63 0 0 0 .24 0v1.18a1.58 1.58 0 0 1-.48.08c-.86-.05-1.42-.5-1.42-1.57zm2.46 1.45v-7.4h1.28v2.91a1.26 1.26 0 0 1 1.09-.79c.76 0 1.09.59 1.09 1.6v3.67h-1.28v-3.51c0-.34-.13-.5-.38-.5s-.4.16-.51.42v3.6zm6.04.1c-1.24 0-2.11-.79-2.11-2.71 0-1.7.78-2.66 1.75-2.66s1.59.6 1.59 2.27v.83h-2.06c.07.74.35 1.05.93 1.05a1.57 1.57 0 0 0 .86-.24l.18 1.11a1.84 1.84 0 0 1-1.14.35zm-.83-3.26h.9c0-.78-.14-1-.42-1s-.45.41-.48.99zm6.04 3.31c-1.48 0-2.42-1.1-2.42-3.64s1.05-3.72 2.51-3.72a2.5 2.5 0 0 1 1.29.29l-.33 1.27a1.59 1.59 0 0 0-.8-.21c-.8 0-1.26.73-1.26 2.35s.24 2.34 1 2.34h.18v-1.61h-.5v-1.25h1.8v3.75a2.46 2.46 0 0 1-1.47.43zm2.29-.15v-5.12h1.29v.95c.2-.49.56-1 1.08-1v1.63c-.25 0-.85-.09-1.08.36v3.2zm4.5.15c-1.09 0-1.88-.93-1.88-2.67s.78-2.75 1.88-2.75 1.88 1 1.88 2.75-.79 2.67-1.88 2.67zm0-1.2c.33 0 .58-.41.58-1.49s-.24-1.54-.58-1.54-.58.46-.58 1.54.24 1.49.58 1.49zm2.09-4.06h1.31l.36 1.74.22 1.47.24-1.47.35-1.74h1.15l-1.22 5.11h-1.2zm5.97 5.21c-1.24 0-2.11-.79-2.11-2.71 0-1.7.78-2.66 1.75-2.66s1.59.6 1.59 2.27v.83h-2.06c.07.74.35 1.05.93 1.05a1.57 1.57 0 0 0 .86-.24l.18 1.11a1.84 1.84 0 0 1-1.14.35zm-.83-3.26h.9c0-.78-.14-1-.42-1s-.45.41-.48.99zm-67.1 25.65l1.5-5.86h-1.81v-1.25h3.44v1l-1.57 6.14zm7.08-5.33l-.82.91v-1.41l1.13-1.33h1v7.17h-1.35zm2.9 0l-.82.91v-1.41l1.13-1.33h1v7.17h-1.35zm2.89 0l-.82.91v-1.41l1.13-1.33h1v7.17h-1.31zm2.9 0l-.82.91v-1.41l1.13-1.33h1v7.17h-1.31zm3.47-1.78h1.75c1.14 0 1.85.81 1.85 2.34s-.84 2.25-1.85 2.25h-.37v2.52h-1.38zm1.38 1.2V296h.25c.47 0 .64-.39.64-1.14s-.17-1.13-.64-1.13zm4.64 6c-1.24 0-2.11-.79-2.11-2.71 0-1.7.78-2.66 1.75-2.66s1.59.6 1.59 2.27v.84h-2.06c.07.74.35 1.05.93 1.05a1.57 1.57 0 0 0 .86-.24l.18 1.11a1.84 1.84 0 0 1-1.14.34zm-.83-3.26h.9c0-.78-.14-1-.42-1s-.45.41-.48 1.01zm2.56 3.17v-5.12h1.29v.91c.2-.49.56-1 1.08-1v1.63c-.25 0-.85-.09-1.08.36v3.2zm4.94-.54a1.18 1.18 0 0 1-1 .69c-.76 0-1.12-.58-1.12-1.59v-3.67h1.28v3.51c0 .34.13.5.38.5a.55.55 0 0 0 .47-.33v-3.68h1.28v5.12h-1.28zm1.67-4.58h1.31l.36 1.74.22 1.47.24-1.47.35-1.74h1.15l-1.22 5.12h-1.2zm4.66-2.06a.75.75 0 0 1 .72.82.72.72 0 1 1-.72-.82zm-.64 2.07h1.28v5.12h-1.28zm3.66 4.64a.87.87 0 0 1-.83.59c-.76 0-1.09-.79-1.09-1.63 0-1.07.51-1.66 1.2-1.66a.88.88 0 0 1 .71.31v-.47c0-.53-.29-.73-.65-.73a1.4 1.4 0 0 0-.82.26l-.26-1.1a2.28 2.28 0 0 1 1.34-.37c1.18 0 1.67.7 1.67 1.9v3.38h-1.28zm0-.56v-1.12a.47.47 0 0 0-.31-.12c-.22 0-.38.21-.38.68s.13.71.38.71a.43.43 0 0 0 .31-.15zm1.92 1.03v-5.12h1.28v.63a1.26 1.26 0 0 1 1.09-.79c.76 0 1.09.59 1.09 1.6v3.67H539v-3.51c0-.34-.13-.5-.38-.5s-.4.16-.51.42v3.6zm5.35-7.11h1.72c1.09 0 1.76.59 1.76 1.92a1.52 1.52 0 0 1-.78 1.47 1.64 1.64 0 0 1 1 1.66 1.88 1.88 0 0 1-2 2.06h-1.73zm1.37 1.1v1.81h.24c.41 0 .59-.29.59-.94s-.18-.86-.59-.87zm0 2.87v2h.28c.46 0 .68-.29.68-1.05s-.22-1-.67-1zm3.45-4.04a.75.75 0 0 1 .72.82.72.72 0 1 1-.72-.82zm-.64 2.07h1.28v5.12h-1.28zm3.36 1.02c-.29 0-.42.11-.42.3a.49.49 0 0 0 .29.41 6.92 6.92 0 0 1 .82.56 1.64 1.64 0 0 1 .54 1.29 1.49 1.49 0 0 1-1.58 1.65 2 2 0 0 1-1.29-.39l.31-1.07a1.58 1.58 0 0 0 .91.32c.38 0 .46-.19.46-.41a.47.47 0 0 0-.23-.35 5.68 5.68 0 0 1-.88-.62 1.56 1.56 0 0 1-.46-1.22 1.41 1.41 0 0 1 1.48-1.6 2.16 2.16 0 0 1 1.21.32l-.29 1.09a1.57 1.57 0 0 0-.87-.28zm1.86 2.64v-2.55h-.36v-1.11h.36V293h1.29v1.5h.6v1.11h-.6v2.42c0 .36.19.44.37.44a.63.63 0 0 0 .24 0v1.18a1.58 1.58 0 0 1-.48.08c-.92 0-1.42-.45-1.42-1.52zm2.42 1.45v-5.12h1.29v.91c.2-.49.56-1 1.08-1v1.63c-.25 0-.85-.09-1.08.36v3.2zm4.54.14c-1.09 0-1.88-.93-1.88-2.67s.78-2.75 1.88-2.75 1.88 1 1.88 2.75-.79 2.67-1.88 2.67zm0-1.2c.33 0 .58-.41.58-1.49s-.24-1.54-.58-1.54-.58.46-.58 1.54.24 1.5.58 1.5zm-64.26 14.71l-.95.91v-1.41l1.32-1.33h1.21v7.17h-1.58zm4.72 5.5c-1.37 0-2.27-1-2.27-3.67s.93-3.75 2.27-3.75 2.27 1.11 2.27 3.75-.87 3.67-2.27 3.67zm0-1.31c.45 0 .66-.48.66-2.38s-.21-2.42-.66-2.42-.66.6-.66 2.42.25 2.38.66 2.38zm4.44-5.96h1.62v5.88h1.62v1.22h-3.25zm6.34 6.57a1.39 1.39 0 0 1-1.19.69c-.88 0-1.3-.58-1.3-1.59v-3.67h1.49V317c0 .34.15.5.45.5a.64.64 0 0 0 .55-.33v-3.68h1.49v5.12h-1.49zm5.41.37a1.87 1.87 0 0 1-1 .27c-1.41 0-2.31-.86-2.31-2.63s1-2.7 2.33-2.7a2.21 2.21 0 0 1 1 .22l-.35 1.19a1.18 1.18 0 0 0-.6-.15c-.55 0-.9.51-.9 1.42s.29 1.4.92 1.4a1.2 1.2 0 0 0 .6-.15zm2.55-.31a1 1 0 0 1-1 .59c-.88 0-1.26-.79-1.26-1.63 0-1.07.59-1.66 1.4-1.66a1.09 1.09 0 0 1 .83.31v-.47a.68.68 0 0 0-.76-.73 1.81 1.81 0 0 0-.95.26l-.3-1.1a3 3 0 0 1 1.56-.37 1.7 1.7 0 0 1 1.95 1.9v3.38h-1.49zm0-.56v-1.12a.59.59 0 0 0-.36-.12c-.26 0-.44.21-.44.68s.15.71.44.71a.53.53 0 0 0 .36-.15zm2.26-6.37h1.5v7.4H520zm3 .22a.82.82 0 1 1 0 1.64.81.81 0 0 1-.83-.83.8.8 0 0 1 .83-.81zm-.75 2.07h1.49v5.12h-1.49zm-28.91 27.6v-.95l1.18-2.13a4.27 4.27 0 0 0 .66-2 .7.7 0 0 0-.75-.79 1.69 1.69 0 0 0-.82.23l-.29-1.21a2.64 2.64 0 0 1 1.41-.33 1.83 1.83 0 0 1 2.08 2 6.39 6.39 0 0 1-1.17 3l-.58 1h1.72v1.24zm6.77 0l.49-7.11h1.58l.65 3 .16 1.09.21-1.09.71-3h1.49l.49 7.11h-1.54l-.14-2.83v-1.48l-.25 1.48-.63 2.83h-.92l-.58-2.83-.21-1.48v1.48l-.16 2.83zm10.54-.13a2.28 2.28 0 0 1-1.23.29c-1.8 0-2.92-1.18-2.92-3.59s1.24-3.74 2.88-3.74a2.48 2.48 0 0 1 1.28.27l-.36 1.21a2 2 0 0 0-.81-.16c-.89 0-1.36.87-1.36 2.41s.48 2.3 1.39 2.3a1.77 1.77 0 0 0 .78-.18zm2.03.13V334h1.61v3.11l1.37-3.11h1.52l-1.43 3.24 1.59 3.87h-1.69l-1.36-3.24v3.24zm5.82-7.18a.82.82 0 1 1 0 1.64.82.82 0 1 1 0-1.64zm-.75 2.07h1.49v5.12h-1.49zm2.43 3.66v-2.55h-.42V336h.42v-1.5h1.5v1.5h.7v1.11h-.7v2.42a.38.38 0 0 0 .43.44.83.83 0 0 0 .28 0v1.18a2.11 2.11 0 0 1-.56.08c-1.06-.03-1.65-.48-1.65-1.55zm5.94 1.32a1.87 1.87 0 0 1-1 .27c-1.41 0-2.31-.86-2.31-2.63s1-2.7 2.33-2.7a2.21 2.21 0 0 1 1 .22l-.35 1.19a1.18 1.18 0 0 0-.6-.15c-.55 0-.9.51-.9 1.42s.29 1.4.92 1.4a1.2 1.2 0 0 0 .6-.15zm.54.13v-7.4h1.49v2.91a1.47 1.47 0 0 1 1.27-.79c.88 0 1.26.59 1.26 1.6v3.67h-1.48v-3.51c0-.34-.15-.5-.45-.5a.66.66 0 0 0-.6.42v3.6zm7.03.1c-1.44 0-2.46-.79-2.46-2.71 0-1.7.9-2.66 2-2.66s1.85.6 1.85 2.27v.87h-2.39c.09.74.41 1.05 1.08 1.05a2.06 2.06 0 0 0 1-.24l.21 1.11a2.39 2.39 0 0 1-1.29.31zm-1-3.26h1c0-.78-.16-1-.48-1s-.45.41-.49 1.03zm3 3.16V336h1.49v.63a1.47 1.47 0 0 1 1.27-.79c.88 0 1.26.59 1.26 1.6v3.67h-1.49v-3.51c0-.34-.15-.5-.45-.5a.66.66 0 0 0-.6.42v3.6zm-41.41 13.66l-.95.91v-1.41l1.32-1.33h1.21v7.17h-1.58zm2.3 5.21l.38-1.21a1.51 1.51 0 0 0 .77.18c.51 0 .9-.38.9-1.08s-.32-1.1-.95-1.1a1.77 1.77 0 0 0-.65.12l.24-3.83H500v1.27h-1.64l-.08 1.33a1.93 1.93 0 0 1 1.87 2.19 2.21 2.21 0 0 1-2.3 2.48 2.51 2.51 0 0 1-1.27-.35zm7.11-7h2a2.3 2.3 0 0 1 0 4.59h-.43v2.52h-1.6zm1.6 1.2v2.27h.29c.54 0 .74-.39.74-1.14s-.2-1.13-.74-1.13zm3.14 5.92V355h1.5v.91a1.52 1.52 0 0 1 1.25-1v1.63c-.29 0-1-.09-1.25.36v3.2zm5.29.14c-1.27 0-2.18-.93-2.18-2.67s.91-2.75 2.18-2.75 2.18 1 2.18 2.75-.9 2.67-2.18 2.67zm0-1.2c.39 0 .67-.41.67-1.49s-.29-1.54-.67-1.54-.67.46-.67 1.54.28 1.5.67 1.5zm4.75 1.2c-1.27 0-2.18-.93-2.18-2.67s.91-2.75 2.18-2.75 2.18 1 2.18 2.75-.91 2.67-2.18 2.67zm0-1.2c.39 0 .67-.41.67-1.49s-.29-1.54-.67-1.54-.67.46-.67 1.54.28 1.5.67 1.5zm2.88-2.94H521V355h.39v-.65a1.52 1.52 0 0 1 1.68-1.68 1.9 1.9 0 0 1 .54.06v1.16a1.19 1.19 0 0 0-.27 0c-.29 0-.45.17-.45.6v.51h.71v1.11h-.71v4h-1.51zM413.95 53.48l-.95.91V53l1.32-1.33h1.21v7.17h-1.58zm4.05 5.34v-7.11h1.61v3.11l1.39-3.11h1.52L421 54.95l1.59 3.87H421l-1.36-3.24v3.24zm6.19-2.73l-1.53-4.38h1.63l.5 1.61.27 1.16.29-1.16.47-1.61h1.4l-1.45 4.35v2.76h-1.61zm5.73 1.52c.41 0 .61-.23.61-.83v-5.07H432v5a2 2 0 0 1-2.1 2.2 2 2 0 0 1-2.22-2.2v-5h1.61v5.07c0 .63.27.83.63.83zm-16.47 42.79a5.65 5.65 0 0 0 2.06-2.81 1.23 1.23 0 0 1-.94.46c-.84 0-1.55-.71-1.55-2.27s.82-2.54 2.1-2.54 2.13.93 2.13 2.84a5.49 5.49 0 0 1-1.94 4.41h-1.86zm2.23-3.78V96c0-1.27-.23-1.59-.59-1.59s-.58.39-.58 1.38.26 1.15.59 1.15a.71.71 0 0 0 .58-.32zm3.71-3.24h2c1.27 0 2.05.59 2.05 1.92a1.49 1.49 0 0 1-.9 1.47 1.64 1.64 0 0 1 1.14 1.66 2 2 0 0 1-2.28 2.06h-2zm1.59 1.1v1.81h.28c.47 0 .68-.29.68-.94s-.21-.86-.68-.87zm0 2.87v2h.32c.53 0 .79-.29.79-1.05s-.26-1-.78-1zm5.3 3.28c-1.27 0-2.18-.93-2.18-2.67s.91-2.75 2.18-2.75 2.18 1 2.18 2.75-.91 2.67-2.18 2.67zm0-1.2c.39 0 .67-.41.67-1.49s-.29-1.54-.67-1.54-.67.46-.67 1.54.28 1.49.67 1.49zm2.72 1.06v-5.12h1.49V96a1.35 1.35 0 0 1 1.17-.76 1 1 0 0 1 1.1.9 1.46 1.46 0 0 1 1.28-.9c.84 0 1.21.59 1.21 1.6v3.67h-1.49V97c0-.34-.09-.5-.38-.5a.56.56 0 0 0-.51.38v3.64h-1.49V97c0-.34-.09-.5-.38-.5a.56.56 0 0 0-.51.38v3.64zm8.54-.57v.56H436v-7.4h1.49v2.84a1.38 1.38 0 0 1 1.18-.71c1 0 1.62.84 1.62 2.67s-.77 2.73-1.71 2.73a1.18 1.18 0 0 1-1.04-.69zm1.29-2c0-1.06-.28-1.44-.69-1.44a.71.71 0 0 0-.6.38v2.27a.67.67 0 0 0 .59.3c.4-.05.7-.5.7-1.55zm4.09 2.08a1 1 0 0 1-1 .59c-.88 0-1.26-.79-1.26-1.63 0-1.07.59-1.66 1.4-1.66a1.09 1.09 0 0 1 .83.31v-.47a.68.68 0 0 0-.76-.73 1.81 1.81 0 0 0-.95.26l-.3-1.1a3 3 0 0 1 1.56-.37 1.7 1.7 0 0 1 1.95 1.9v3.38h-1.49zm0-.56v-1.11a.59.59 0 0 0-.36-.12c-.26 0-.44.21-.44.68s.15.71.44.71a.53.53 0 0 0 .36-.15zm3.37 1.15l-1.47-5.22h1.51l.39 1.61.29 1.58.31-1.58.4-1.61h1.34l-2 6.93h-1.31zm4.71-7.21h1.93c1.76 0 2.83 1.2 2.83 3.59s-1.07 3.52-2.83 3.52H451zm1.61 1.28v4.54h.21c.88 0 1.29-.62 1.29-2.26s-.41-2.29-1.29-2.29zm5.8 5.34a1 1 0 0 1-1 .59c-.88 0-1.26-.79-1.26-1.63 0-1.07.59-1.66 1.4-1.66a1.09 1.09 0 0 1 .83.31v-.47a.68.68 0 0 0-.76-.73 1.81 1.81 0 0 0-.95.26l-.3-1.1a3 3 0 0 1 1.56-.37 1.7 1.7 0 0 1 1.95 1.9v3.38h-1.49zm0-.56v-1.11a.59.59 0 0 0-.36-.12c-.26 0-.44.21-.44.68s.15.71.44.71a.53.53 0 0 0 .36-.15zm2.23 1.05v-5.12h1.5v.91a1.52 1.52 0 0 1 1.25-1v1.63c-.29 0-1-.09-1.25.36v3.2zm4.8-.57v.56h-1.49v-7.4h1.49v2.84a1.38 1.38 0 0 1 1.18-.71c1 0 1.62.84 1.62 2.67s-.77 2.73-1.71 2.73a1.18 1.18 0 0 1-1.09-.69zm1.29-2c0-1.06-.28-1.44-.69-1.44a.71.71 0 0 0-.6.38v2.27a.67.67 0 0 0 .59.3c.4-.05.7-.5.7-1.55zm4.09 2.08a1 1 0 0 1-1 .59c-.88 0-1.26-.79-1.26-1.63 0-1.07.59-1.66 1.4-1.66a1.09 1.09 0 0 1 .83.31v-.47a.68.68 0 0 0-.76-.73 1.81 1.81 0 0 0-.95.26l-.3-1.1a3 3 0 0 1 1.56-.37 1.7 1.7 0 0 1 1.95 1.9v3.38h-1.49zm0-.56v-1.11a.59.59 0 0 0-.36-.12c-.26 0-.44.21-.44.68s.15.71.44.71a.53.53 0 0 0 .36-.15zm2.23 1.05v-5.12h1.5v.91a1.52 1.52 0 0 1 1.25-1v1.63c-.29 0-1-.09-1.25.36v3.2zm-60.18 41.83l.38-1.21a1.51 1.51 0 0 0 .77.18c.51 0 .9-.38.9-1.08s-.32-1.1-.95-1.1a1.77 1.77 0 0 0-.65.12l.24-3.83h2.81v1.27h-1.64l-.13 1.33a1.93 1.93 0 0 1 1.87 2.19 2.21 2.21 0 0 1-2.3 2.48 2.51 2.51 0 0 1-1.3-.35zm5.76-6.94h1.93c1.76 0 2.83 1.2 2.83 3.59s-1.07 3.52-2.83 3.52h-1.93zm1.61 1.28v4.55h.21c.88 0 1.29-.62 1.29-2.26s-.41-2.29-1.29-2.29zm6.26 5.28a1.39 1.39 0 0 1-1.19.69c-.88 0-1.3-.58-1.3-1.59v-3.67h1.49v3.51c0 .34.15.5.45.5a.64.64 0 0 0 .55-.33v-3.68h1.5v5.12h-1.5zm4.5.64c-1.44 0-2.46-.79-2.46-2.71 0-1.7.9-2.66 2-2.66s1.85.6 1.85 2.27v.84H430c.09.74.41 1.05 1.08 1.05a2.06 2.06 0 0 0 1-.24l.21 1.11a2.39 2.39 0 0 1-1.29.34zm-1-3.26h1c0-.78-.16-1-.48-1s-.42.41-.46 1zm4.49-3.94h2c1.27 0 2.05.59 2.05 1.92a1.49 1.49 0 0 1-.9 1.47 1.64 1.64 0 0 1 1.14 1.66 2 2 0 0 1-2.28 2.06h-2zm1.59 1.1v1.81h.28c.47 0 .68-.29.68-.94s-.21-.86-.68-.87zm0 2.87v2h.32c.53 0 .79-.29.79-1.05s-.26-1-.78-1zm5.32 2.65a1 1 0 0 1-1 .59c-.88 0-1.26-.79-1.26-1.63 0-1.07.59-1.66 1.4-1.66a1.09 1.09 0 0 1 .83.31v-.47a.68.68 0 0 0-.76-.73 1.81 1.81 0 0 0-.95.26l-.3-1.1a3 3 0 0 1 1.56-.37 1.7 1.7 0 0 1 1.95 1.9v3.38h-1.47zm0-.56v-1.12a.59.59 0 0 0-.36-.12c-.26 0-.44.21-.44.68s.15.71.44.71a.53.53 0 0 0 .36-.14zm5.37.87a1.87 1.87 0 0 1-1 .27c-1.41 0-2.31-.86-2.31-2.63s1-2.7 2.33-2.7a2.21 2.21 0 0 1 1 .22l-.35 1.19a1.18 1.18 0 0 0-.6-.15c-.55 0-.9.51-.9 1.42s.29 1.4.92 1.4a1.2 1.2 0 0 0 .6-.15zm1.23-7.01a.82.82 0 1 1 0 1.64.81.81 0 0 1-.83-.83.8.8 0 0 1 .83-.81zm-.75 2.07h1.49v5.12h-1.44zm-33.3 41.45l-.95.91v-1.41l1.32-1.33h1.21v7.17h-1.58zm2.25 5.18l.35-1.22a1.86 1.86 0 0 0 .91.24.82.82 0 0 0 .85-.91c0-.53-.19-.94-.84-.94h-.31v-1.2h.31a.78.78 0 0 0 .83-.87c0-.54-.27-.83-.86-.83a1.69 1.69 0 0 0-.81.23l-.33-1.18a2.68 2.68 0 0 1 1.41-.35 1.82 1.82 0 0 1 2 2 1.53 1.53 0 0 1-1 1.53 1.67 1.67 0 0 1 1.08 1.73 2 2 0 0 1-2.15 2.13 2.8 2.8 0 0 1-1.44-.36zm5.72-7h2a2.3 2.3 0 0 1 0 4.59h-.43v2.52h-1.6zm1.6 1.2v2.27h.29c.54 0 .74-.39.74-1.14s-.2-1.13-.74-1.13zm5.39 6.05c-1.44 0-2.46-.79-2.46-2.71 0-1.7.9-2.66 2-2.66s1.85.6 1.85 2.27v.85h-2.39c.09.74.41 1.05 1.08 1.05a2.06 2.06 0 0 0 1-.24l.21 1.11a2.39 2.39 0 0 1-1.29.33zm-1-3.26h1c0-.78-.16-1-.48-1s-.43.4-.49 1.01zm3.01 3.16V179h1.5v.91a1.52 1.52 0 0 1 1.25-1v1.63c-.29 0-1-.09-1.25.36v3.2zm3.3 0V179h1.5v.91a1.52 1.52 0 0 1 1.25-1v1.63c-.29 0-1-.09-1.25.36v3.2zm4.04-7.15a.82.82 0 1 1 0 1.64.81.81 0 0 1-.83-.83.8.8 0 0 1 .83-.81zm-.75 2.07H439v5.12h-1.49zm5.4 4.93a1.87 1.87 0 0 1-1 .27c-1.41 0-2.31-.86-2.31-2.63s1-2.7 2.33-2.7a2.21 2.21 0 0 1 1 .22l-.35 1.19a1.18 1.18 0 0 0-.6-.15c-.55 0-.9.51-.9 1.42s.29 1.4.92 1.4a1.2 1.2 0 0 0 .6-.15zm2.53.29c-1.27 0-2.18-.93-2.18-2.67s.91-2.75 2.18-2.75 2.18 1 2.18 2.75-.91 2.67-2.18 2.67zm0-1.2c.39 0 .67-.41.67-1.49s-.29-1.54-.67-1.54-.67.46-.67 1.54.23 1.5.67 1.5zm2.76 1.06V179h1.49v.63a1.47 1.47 0 0 1 1.27-.79c.88 0 1.26.59 1.26 1.6v3.67h-1.49v-3.51c0-.34-.15-.5-.45-.5a.66.66 0 0 0-.6.42v3.6zm7.03.1c-1.44 0-2.46-.79-2.46-2.71 0-1.7.9-2.66 2-2.66s1.85.6 1.85 2.27v.85h-2.39c.09.74.41 1.05 1.08 1.05a2.06 2.06 0 0 0 1-.24l.21 1.11a2.39 2.39 0 0 1-1.29.33zm-1-3.26h1c0-.78-.16-1-.48-1s-.45.4-.49 1.01zm2.83-1.77a3.29 3.29 0 0 0 .58-.84.71.71 0 0 1-.6-.68.74.74 0 0 1 .75-.73.77.77 0 0 1 .75.86 2.6 2.6 0 0 1-1 1.74zm3.69.84c-.33 0-.49.11-.49.3s.12.29.33.41a8.29 8.29 0 0 1 1 .56 1.55 1.55 0 0 1 .63 1.29 1.62 1.62 0 0 1-1.83 1.65 2.55 2.55 0 0 1-1.5-.39l.36-1.07a2 2 0 0 0 1.06.32c.44 0 .53-.19.53-.41s-.1-.25-.27-.35a6.77 6.77 0 0 1-1-.62 1.46 1.46 0 0 1-.54-1.22 1.52 1.52 0 0 1 1.72-1.6 2.82 2.82 0 0 1 1.41.32l-.33 1.09a2 2 0 0 0-1.08-.28zm-47.69 42.69a5.41 5.41 0 0 1 2-4.38h1.81v.09a5.42 5.42 0 0 0-2.07 2.83 1.21 1.21 0 0 1 .95-.47c.84 0 1.55.71 1.55 2.27s-.82 2.54-2.1 2.54-2.14-.93-2.14-2.88zm2.71.32c0-.93-.26-1.15-.59-1.15a.74.74 0 0 0-.56.31v.58c0 1.31.23 1.63.59 1.63s.56-.38.56-1.37zm3.47 2.42l.49-7.11h1.58l.65 3 .16 1.09.21-1.09.71-3h1.49l.49 7.11h-1.52l-.14-2.83v-1.48l-.25 1.48-.63 2.83h-.92l-.58-2.83-.21-1.48v1.48l-.16 2.83zm8.52-.49a1 1 0 0 1-1 .59c-.88 0-1.26-.79-1.26-1.63 0-1.07.59-1.66 1.4-1.66a1.09 1.09 0 0 1 .83.31v-.47a.68.68 0 0 0-.76-.73 1.81 1.81 0 0 0-.95.26l-.3-1.1a3 3 0 0 1 1.56-.37 1.7 1.7 0 0 1 1.95 1.9v3.38h-1.49zm0-.56v-1.12a.59.59 0 0 0-.36-.12c-.26 0-.44.21-.44.68s.15.71.44.71a.53.53 0 0 0 .36-.14zm5.38.87a1.87 1.87 0 0 1-1 .27c-1.41 0-2.31-.86-2.31-2.63s1-2.7 2.33-2.7a2.21 2.21 0 0 1 1 .22l-.35 1.19a1.18 1.18 0 0 0-.6-.15c-.55 0-.9.51-.9 1.42s.29 1.4.92 1.4a1.2 1.2 0 0 0 .6-.15zm3.68 0a1.87 1.87 0 0 1-1 .27c-1.41 0-2.31-.86-2.31-2.63s1-2.7 2.33-2.7a2.21 2.21 0 0 1 1 .22l-.35 1.19a1.18 1.18 0 0 0-.6-.15c-.55 0-.9.51-.9 1.42s.29 1.4.92 1.4a1.2 1.2 0 0 0 .6-.15zm.55.18v-7.4h1.49V221a1.47 1.47 0 0 1 1.27-.79c.88 0 1.26.59 1.26 1.6v3.67h-1.49V222c0-.34-.15-.5-.45-.5a.66.66 0 0 0-.6.42v3.6zm5.49-7.19a.82.82 0 1 1 0 1.64.81.81 0 0 1-.83-.83.8.8 0 0 1 .83-.81zm-.75 2.07h1.49v5.12h-1.49zm4.27 4.63a1 1 0 0 1-1 .59c-.88 0-1.26-.79-1.26-1.63 0-1.07.59-1.66 1.4-1.66a1.09 1.09 0 0 1 .83.31v-.47a.68.68 0 0 0-.76-.73 1.81 1.81 0 0 0-.95.26l-.3-1.1a3 3 0 0 1 1.56-.37 1.7 1.7 0 0 1 1.95 1.9v3.38h-1.49zm0-.56v-1.12a.59.59 0 0 0-.36-.12c-.26 0-.44.21-.44.68s.15.71.44.71a.53.53 0 0 0 .36-.14zm2.24-6.36h1.5v7.4h-1.5zm3.02.22a.82.82 0 1 1 0 1.64.81.81 0 0 1-.83-.83.8.8 0 0 1 .83-.81zm-.75 2.07h1.49v5.12h-1.49zm2.26 5.12v-5.12h1.49v.63a1.47 1.47 0 0 1 1.27-.79c.88 0 1.26.59 1.26 1.6v3.67h-1.49V222c0-.34-.15-.5-.45-.5a.66.66 0 0 0-.6.42v3.6zm6.77-.49a1 1 0 0 1-1 .59c-.88 0-1.26-.79-1.26-1.63 0-1.07.59-1.66 1.4-1.66a1.09 1.09 0 0 1 .83.31v-.47a.68.68 0 0 0-.76-.73 1.81 1.81 0 0 0-.95.26l-.3-1.1a3 3 0 0 1 1.56-.37 1.7 1.7 0 0 1 1.95 1.9v3.38h-1.49zm0-.56v-1.12a.59.59 0 0 0-.36-.12c-.26 0-.44.21-.44.68s.15.71.44.71a.53.53 0 0 0 .36-.14zm-47.09 41.78l.35-1.22a1.86 1.86 0 0 0 .91.24.82.82 0 0 0 .85-.91c0-.53-.19-.94-.84-.94h-.31v-1.2h.31a.78.78 0 0 0 .83-.87c0-.54-.27-.83-.86-.83a1.69 1.69 0 0 0-.81.23l-.33-1.18a2.68 2.68 0 0 1 1.41-.35 1.82 1.82 0 0 1 2 2 1.53 1.53 0 0 1-1 1.53 1.67 1.67 0 0 1 1.08 1.73 2 2 0 0 1-2.15 2.13 2.8 2.8 0 0 1-1.44-.36zm7.07.19v-7.11h1.64l1.2 3.06.39 1.17-.07-1.34v-2.89h1.31v7.11H423l-1.38-3.46-.43-1.26.08 1.45v3.27zm7.37-.47a1 1 0 0 1-1 .59c-.88 0-1.26-.79-1.26-1.63 0-1.07.59-1.66 1.4-1.66a1.09 1.09 0 0 1 .83.31v-.47a.68.68 0 0 0-.76-.73 1.81 1.81 0 0 0-.95.26l-.3-1.1a3 3 0 0 1 1.56-.37 1.7 1.7 0 0 1 1.95 1.9v3.38h-1.49zm0-.56v-1.12a.59.59 0 0 0-.36-.12c-.26 0-.44.21-.44.68s.15.71.44.71a.53.53 0 0 0 .36-.15zm2.96-6.15a.82.82 0 1 1 0 1.64.81.81 0 0 1-.83-.83.8.8 0 0 1 .83-.81zm-.75 2.07H431v5.12h-1.49zm3.38 2.38l-1.53-4.38H433l.5 1.61.27 1.16.29-1.16.47-1.61h1.4l-1.45 4.35v2.76h-1.61zm5.45 2.26a1 1 0 0 1-1 .59c-.88 0-1.26-.79-1.26-1.63 0-1.07.59-1.66 1.4-1.66a1.09 1.09 0 0 1 .83.31v-.47a.68.68 0 0 0-.76-.73 1.81 1.81 0 0 0-.95.26l-.3-1.1a3 3 0 0 1 1.56-.37 1.7 1.7 0 0 1 1.95 1.9v3.38h-1.49zm0-.56v-1.12a.59.59 0 0 0-.36-.12c-.26 0-.44.21-.44.68s.15.71.44.71a.53.53 0 0 0 .36-.15zm2.32-6.08h2.18a1.91 1.91 0 0 1 2 2.17 2.06 2.06 0 0 1-.91 1.82l1.1 3.11h-1.64l-.94-2.71h-.18v2.71h-1.6zm1.6 1.2v2.11h.3c.56 0 .73-.42.73-1.08s-.18-1-.71-1zm5.3 5.44a1 1 0 0 1-1 .59c-.88 0-1.26-.79-1.26-1.63 0-1.07.59-1.66 1.4-1.66a1.09 1.09 0 0 1 .83.31v-.47a.68.68 0 0 0-.76-.73 1.81 1.81 0 0 0-.95.26l-.3-1.1a3 3 0 0 1 1.56-.37A1.7 1.7 0 0 1 449 263v3.38h-1.49zm0-.56v-1.12a.59.59 0 0 0-.36-.12c-.26 0-.44.21-.44.68s.15.71.44.71a.53.53 0 0 0 .36-.15zm-33.58 37.7l-.95.92v-1.41l1.32-1.33h1.21v7.17h-1.58zm4.75 5.49c-1.37 0-2.27-1-2.27-3.67s.93-3.75 2.27-3.75 2.27 1.11 2.27 3.75-.9 3.67-2.27 3.67zm0-1.31c.45 0 .66-.48.66-2.38s-.21-2.42-.66-2.42-.66.6-.66 2.42.22 2.38.66 2.38zm4.41-5.96h1.62v5.88h1.62v1.22h-3.25zm6.33 6.57a1.39 1.39 0 0 1-1.19.69c-.88 0-1.3-.58-1.3-1.59v-3.67h1.49v3.51c0 .34.15.5.45.5a.64.64 0 0 0 .55-.33v-3.68h1.49v5.12h-1.49zm5.42.37a1.87 1.87 0 0 1-1 .27c-1.41 0-2.31-.86-2.31-2.63s1-2.7 2.33-2.7a2.21 2.21 0 0 1 1 .22l-.35 1.19a1.18 1.18 0 0 0-.6-.15c-.55 0-.9.51-.9 1.42s.29 1.4.92 1.4a1.2 1.2 0 0 0 .6-.15zm2.54-.3a1 1 0 0 1-1 .59c-.88 0-1.26-.79-1.26-1.63 0-1.07.59-1.66 1.4-1.66a1.09 1.09 0 0 1 .83.31v-.47a.68.68 0 0 0-.76-.73 1.81 1.81 0 0 0-.95.26l-.3-1.1a3 3 0 0 1 1.56-.37 1.7 1.7 0 0 1 1.95 1.9v3.38h-1.47zm0-.56v-1.12a.59.59 0 0 0-.36-.12c-.26 0-.44.21-.44.68s.15.71.44.71a.53.53 0 0 0 .36-.15zm2.24-6.38h1.5v7.4h-1.5zm3.02.23a.82.82 0 1 1 0 1.64.81.81 0 0 1-.83-.83.8.8 0 0 1 .83-.81zm-.75 2.07h1.49v5.12h-1.49zM413 350.08v-.95l1.18-2.13a4.27 4.27 0 0 0 .66-2 .7.7 0 0 0-.75-.79 1.69 1.69 0 0 0-.82.23l-.29-1.21a2.64 2.64 0 0 1 1.41-.33 1.83 1.83 0 0 1 2.08 2 6.39 6.39 0 0 1-1.17 3l-.58 1h1.72v1.24zm6.78 0l.49-7.11h1.58l.65 3 .16 1.09.21-1.09.71-3h1.49l.49 7.11H424l-.14-2.83v-1.48l-.25 1.48-.63 2.83h-.92l-.58-2.83-.21-1.48v1.48l-.16 2.83zm10.54-.18a2.28 2.28 0 0 1-1.23.29c-1.8 0-2.92-1.18-2.92-3.59s1.24-3.74 2.88-3.74a2.48 2.48 0 0 1 1.28.27l-.36 1.21a2 2 0 0 0-.81-.16c-.89 0-1.36.87-1.36 2.41s.48 2.3 1.39 2.3a1.77 1.77 0 0 0 .78-.18zm2.02.18V343H434v3.11l1.37-3.11h1.52l-1.43 3.24 1.59 3.87h-1.69l-1.36-3.27v3.24zm5.82-7.19a.82.82 0 1 1 0 1.64.81.81 0 0 1-.83-.83.8.8 0 0 1 .83-.81zm-.75 2.07h1.49v5.12h-1.49zm2.43 3.67v-2.55h-.42V345h.42v-1.5h1.5v1.5h.7v1.11h-.7v2.42a.38.38 0 0 0 .43.44.83.83 0 0 0 .28 0v1.18a2.11 2.11 0 0 1-.56.08c-1.06-.09-1.65-.53-1.65-1.6zm5.95 1.28a1.87 1.87 0 0 1-1 .27c-1.41 0-2.31-.86-2.31-2.63s1-2.7 2.33-2.7a2.21 2.21 0 0 1 1 .22l-.35 1.19a1.18 1.18 0 0 0-.6-.15c-.55 0-.9.51-.9 1.42s.29 1.4.92 1.4a1.2 1.2 0 0 0 .6-.15zm.54.17v-7.4h1.49v2.91a1.47 1.47 0 0 1 1.27-.79c.88 0 1.26.59 1.26 1.6v3.67h-1.49v-3.51c0-.34-.15-.5-.45-.5a.66.66 0 0 0-.6.42v3.6zm7.03.09c-1.44 0-2.46-.79-2.46-2.71 0-1.7.9-2.66 2-2.66s1.85.6 1.85 2.27v.84h-2.39c.09.74.41 1.05 1.08 1.05a2.06 2.06 0 0 0 1-.24l.21 1.11a2.39 2.39 0 0 1-1.29.34zm-1-3.26h1c0-.78-.16-1-.48-1s-.45.41-.49 1.01zm3 3.17V345h1.49v.63a1.47 1.47 0 0 1 1.27-.79c.88 0 1.26.59 1.26 1.6v3.67h-1.48v-3.51c0-.34-.15-.5-.45-.5a.66.66 0 0 0-.6.42v3.6z" fill="#231f20"/></g></svg>